<svg xmlns="http://www.w3.org/2000/svg" width="106" height="106" viewBox="0 0 106 106">
  <g id="Grupo_45974" data-name="Grupo 45974" transform="translate(2931 -3312)">
    <rect id="Rectángulo_12719" data-name="Rectángulo 12719" width="106" height="106" transform="translate(-2931 3312)" fill="none"/>
    <g id="XMLID_1673_" transform="translate(-3009.859 3324.448)">
      <g id="XMLID_1674_" transform="translate(109.34 1.179)">
        <g id="XMLID_1675_" transform="translate(0)">
          <path id="XMLID_1676_" d="M155.106,85.689H117.171a1.511,1.511,0,0,1-1.511-1.511V25.772a1.511,1.511,0,0,1,1.511-1.511h0a16.689,16.689,0,0,0,15.165-9.722l2.831-6.163a1.511,1.511,0,0,1,2-.742l11.713,5.381a1.512,1.512,0,0,1,.694,2.1c-7.554,13.882,1.334,21.67,3.746,23.444a1.509,1.509,0,0,1,.615,1.124l2.676,44.406A1.511,1.511,0,0,1,155.106,85.689Z" transform="translate(-115.66 -7.496)" fill="#be7560"/>
          <path id="XMLID_1677_" d="M131.661,99.823V47a1.888,1.888,0,0,1,1.627-1.87h0a19.274,19.274,0,0,0,14.819-11.006L149.73,30.6a1.888,1.888,0,0,1,2.5-.927l6.394,2.937a1.888,1.888,0,0,1,.946,2.462h0c-3.023,7.026-2.055,12.465-.71,15.79a19.488,19.488,0,0,0,5.46,7.48h0a1.888,1.888,0,0,1,.664,1.327L167.4,99.709a1.888,1.888,0,0,1-1.884,2H133.549A1.888,1.888,0,0,1,131.661,99.823Z" transform="translate(-129.144 -26.035)" fill="#a86552"/>
          <path id="XMLID_1678_" d="M178.15,350.153H161.794l.714-2.517,7.464-26.3,7.464,26.3Z" transform="translate(-154.536 -271.961)" fill="#915040"/>
          <path id="XMLID_1679_" d="M181.261,347.636H166.334l7.464-26.3Z" transform="translate(-158.361 -271.961)" fill="#7c3c2f"/>
          <path id="XMLID_1680_" d="M175.63,109.935H143.664V57.118a21.158,21.158,0,0,0,16.273-12.088L161.56,41.5l6.394,2.937c-3.244,7.539-2.258,13.458-.725,17.245a21.4,21.4,0,0,0,5.988,8.213Z" transform="translate(-139.258 -36.148)" fill="#ea998c"/>
          <path id="XMLID_1681_" d="M183.6,345.748H169.744l6.927-24.411Z" transform="translate(-161.235 -271.961)" fill="#a86552"/>
        </g>
      </g>
      <g id="XMLID_1682_" transform="translate(108.16 0)">
        <path id="XMLID_1683_" d="M148.8,33.294a2.683,2.683,0,0,0-1.093-2,15.822,15.822,0,0,1-5.577-7.675,1.18,1.18,0,0,0-2.248.718A18.243,18.243,0,0,0,146.3,33.19a.329.329,0,0,1,.136.245l2.676,44.406a.332.332,0,0,1-.33.351h-14.94l-.58-2.045h12.447A1.18,1.18,0,0,0,146.89,74.9l-.716-11.89a1.18,1.18,0,0,0-2.356.142l.641,10.639H132.6l-6.64-23.395V47.356a1.18,1.18,0,0,0-2.36,0v3.036l-6.64,23.4h-2.031V44.407a1.18,1.18,0,0,0-2.36,0V74.967a1.18,1.18,0,0,0,1.18,1.18h2.541l-.58,2.045h-4.855a.331.331,0,0,1-.331-.331V19.456a.331.331,0,0,1,.331-.331,17.917,17.917,0,0,0,16.237-10.41l2.831-6.163a.331.331,0,0,1,.439-.163l11.712,5.381a.322.322,0,0,1,.175.195.334.334,0,0,1-.024.266,23.857,23.857,0,0,0-3.1,10.07,1.18,1.18,0,0,0,2.357.125,21.536,21.536,0,0,1,2.815-9.067,2.692,2.692,0,0,0-1.238-3.734L131.343.245a2.694,2.694,0,0,0-3.569,1.322L124.944,7.73a15.551,15.551,0,0,1-14.093,9.035,2.694,2.694,0,0,0-2.691,2.691V77.861a2.694,2.694,0,0,0,2.691,2.691h37.935a2.726,2.726,0,0,0,2.686-2.853Zm-17.4,44.9h-5.437V76.147h4.856Zm-1.25-4.405h-4.187V59.036ZM123.6,59.035V73.787h-4.187ZM118.74,76.147H123.6v2.045h-5.437Z" transform="translate(-108.16 0)"/>
        <path id="XMLID_1689_" d="M159.812,55.8a22.511,22.511,0,0,0,5.935,8.336l1.34,22.227a1.18,1.18,0,0,0,1.177,1.109l.072,0a1.18,1.18,0,0,0,1.107-1.249L168.073,63.5a1.18,1.18,0,0,0-.415-.829A20.2,20.2,0,0,1,162,54.914c-1.4-3.45-2.4-9.085.716-16.336a1.18,1.18,0,0,0-.591-1.539L155.73,34.1a1.18,1.18,0,0,0-1.565.58l-1.623,3.533a19.98,19.98,0,0,1-15.364,11.412,1.18,1.18,0,0,0-1.017,1.169V67.622a1.18,1.18,0,1,0,2.36,0V51.8a22.343,22.343,0,0,0,16.166-12.6l1.13-2.46,4.294,1.973C157.209,46.2,158.318,52.106,159.812,55.8Z" transform="translate(-131.756 -28.646)"/>
        <path id="XMLID_1690_" d="M110.9,85.106h.022a1.18,1.18,0,0,0,.005-2.36H110.9a1.18,1.18,0,0,0-.005,2.36Z" transform="translate(-109.476 -69.728)"/>
        <path id="XMLID_1691_" d="M110.9,65.607h2.627a1.18,1.18,0,1,0,0-2.36H110.9a1.18,1.18,0,0,0,0,2.36Z" transform="translate(-109.476 -53.296)"/>
        <path id="XMLID_1692_" d="M373.333,183.934h-.016a1.18,1.18,0,0,0,0,2.36h.016a1.18,1.18,0,0,0,0-2.36Z" transform="translate(-330.606 -154.996)"/>
        <path id="XMLID_1693_" d="M375.944,164.434h-2.627a1.18,1.18,0,0,0,0,2.36h2.627a1.18,1.18,0,1,0,0-2.36Z" transform="translate(-330.606 -138.564)"/>
        <path id="XMLID_1694_" d="M350.17,34.856h.022a1.18,1.18,0,0,0,.005-2.36h-.022a1.18,1.18,0,0,0-.005,2.36Z" transform="translate(-311.105 -27.383)"/>
        <path id="XMLID_1695_" d="M350.176,15.356H352.8a1.18,1.18,0,0,0,0-2.36h-2.627a1.18,1.18,0,1,0,0,2.36Z" transform="translate(-311.105 -10.951)"/>
        <path id="XMLID_1696_" d="M232.512,313.837a1.18,1.18,0,1,0,0,2.36h.016a1.18,1.18,0,1,0,0-2.36Z" transform="translate(-211.953 -264.461)"/>
        <path id="XMLID_1697_" d="M236.32,295.517a1.18,1.18,0,0,0-1.18-1.18h-2.627a1.18,1.18,0,0,0,0,2.36h2.627A1.18,1.18,0,0,0,236.32,295.517Z" transform="translate(-211.954 -248.029)"/>
        <path id="XMLID_1698_" d="M208.634,176.643a1.18,1.18,0,0,0-2.36,0v1.888a1.18,1.18,0,1,0,2.36,0Z" transform="translate(-190.838 -147.858)"/>
        <path id="XMLID_1699_" d="M208.634,140.643a1.18,1.18,0,0,0-2.36,0v1.888a1.18,1.18,0,0,0,2.36,0Z" transform="translate(-190.838 -117.521)"/>
        <path id="XMLID_1700_" d="M208.634,212.643a1.18,1.18,0,0,0-2.36,0v1.888a1.18,1.18,0,1,0,2.36,0Z" transform="translate(-190.838 -178.194)"/>
        <path id="XMLID_1701_" d="M207.454,247.463a1.18,1.18,0,0,0-1.18,1.18v1.888a1.18,1.18,0,0,0,2.36,0v-1.888A1.18,1.18,0,0,0,207.454,247.463Z" transform="translate(-190.838 -208.53)"/>
      </g>
    </g>
  </g>
</svg>
