<svg xmlns="http://www.w3.org/2000/svg" width="106" height="106" viewBox="0 0 106 106">
  <g id="Grupo_45979" data-name="Grupo 45979" transform="translate(3343 -3128)">
    <rect id="Rectángulo_12711" data-name="Rectángulo 12711" width="106" height="106" transform="translate(-3343 3128)" fill="none"/>
    <g id="alineacion-centrada" transform="translate(-3331 3140)">
      <path id="Trazado_70988" data-name="Trazado 70988" d="M15.583,10h50.25a5.584,5.584,0,0,1,5.583,5.583v50.25a5.584,5.584,0,0,1-5.583,5.583H15.583A5.584,5.584,0,0,1,10,65.833V15.583A5.584,5.584,0,0,1,15.583,10Z" transform="translate(0.792 0.792)" fill="#4dd0e1"/>
      <path id="Trazado_70989" data-name="Trazado 70989" d="M47.167,35.563V46.729a1.4,1.4,0,0,1-1.4,1.4H37.4a1.4,1.4,0,0,1-1.4-1.4V24.4A1.4,1.4,0,0,1,37.4,23h8.375a1.4,1.4,0,0,1,1.4,1.4Z" transform="translate(11.083 5.938)" fill="#ff7043"/>
      <path id="Trazado_70990" data-name="Trazado 70990" d="M31.167,37.542V55.688a1.4,1.4,0,0,1-1.4,1.4H21.4a1.4,1.4,0,0,1-1.4-1.4V19.4A1.4,1.4,0,0,1,21.4,18h8.375a1.4,1.4,0,0,1,1.4,1.4Z" transform="translate(4.75 3.958)" fill="#ff7043"/>
      <g id="Grupo_45740" data-name="Grupo 45740" transform="translate(8 8)">
        <path id="Trazado_70991" data-name="Trazado 70991" d="M66.625,8a2.792,2.792,0,0,0,0,5.583,2.794,2.794,0,0,1,2.792,2.792V38.708H61.042V30.333a4.193,4.193,0,0,0-4.187-4.188H48.479a4.193,4.193,0,0,0-4.187,4.188v8.375H38.708V23.354a4.193,4.193,0,0,0-4.187-4.187H26.146a4.193,4.193,0,0,0-4.187,4.188V38.708H13.583V16.375a2.794,2.794,0,0,1,2.792-2.792,2.792,2.792,0,0,0,0-5.583A8.383,8.383,0,0,0,8,16.375v50.25A8.383,8.383,0,0,0,16.375,75h50.25A8.383,8.383,0,0,0,75,66.625V16.375A8.383,8.383,0,0,0,66.625,8ZM49.875,31.729h5.583V51.271H49.875ZM27.542,24.75h5.583v33.5H27.542ZM66.625,69.417H16.375a2.794,2.794,0,0,1-2.792-2.792V44.292h8.375V59.646a4.193,4.193,0,0,0,4.188,4.188h8.375a4.193,4.193,0,0,0,4.188-4.187V44.292h5.583v8.375a4.193,4.193,0,0,0,4.188,4.188h8.375a4.193,4.193,0,0,0,4.188-4.187V44.292h8.375V66.625A2.794,2.794,0,0,1,66.625,69.417Z" transform="translate(-8 -8)" fill="#080033"/>
        <path id="Trazado_70992" data-name="Trazado 70992" d="M19,10.792a2.793,2.793,0,0,0,2.792,2.792H52.5A2.792,2.792,0,0,0,52.5,8H21.792A2.793,2.793,0,0,0,19,10.792Z" transform="translate(-3.646 -8)" fill="#080033"/>
      </g>
    </g>
  </g>
</svg>
