<svg xmlns="http://www.w3.org/2000/svg" width="106" height="106" viewBox="0 0 106 106">
  <g id="Grupo_45962" data-name="Grupo 45962" transform="translate(3205 -3899)">
    <rect id="Rectángulo_12730" data-name="Rectángulo 12730" width="106" height="106" transform="translate(-3205 3899)" fill="none"/>
    <g id="tela_12_" data-name="tela (12)" transform="translate(-3264.874 3916.364)">
      <path id="Trazado_71308" data-name="Trazado 71308" d="M191.7,110.484l19.076,21.593s-2.224,3.112-3.951,14.413c-1.218,7.971,1.147,18.483,1.147,18.483H180.5Z" transform="translate(-77.986 -95.205)" fill="#1e88e5"/>
      <path id="Trazado_71309" data-name="Trazado 71309" d="M261.5,110.484v5.38l20.117,28.621a.277.277,0,0,0,.5-.1c1.829-8.7-1.538-12.305-1.538-12.305Z" transform="translate(-147.785 -95.205)" fill="#42a5f5"/>
      <g id="Grupo_45779" data-name="Grupo 45779" transform="translate(130.978 34.818)">
        <path id="Trazado_71310" data-name="Trazado 71310" d="M388.133,253.823l-1.815-2.055a32.691,32.691,0,0,1,.044,10.461l2.812,4a.277.277,0,0,0,.5-.1C391.5,257.424,388.133,253.823,388.133,253.823Z" transform="translate(-386.318 -251.768)" fill="#2196f3"/>
      </g>
      <path id="Trazado_71311" data-name="Trazado 71311" d="M0,0H68.731V13H0Z" transform="translate(95.878 69.768) rotate(-90)" fill="#f1f1f1"/>
      <path id="Trazado_71312" data-name="Trazado 71312" d="M196.5,7.5h4.149V76.231H196.5Z" transform="translate(-91.774 -6.463)" fill="#e2e2e2"/>
      <path id="Trazado_71313" data-name="Trazado 71313" d="M0,0H53.1V22.68H0Z" transform="translate(91.037 61.955) rotate(-90)" fill="#42a5f5"/>
      <path id="Trazado_71314" data-name="Trazado 71314" d="M231.5,64h4.149v53.1H231.5Z" transform="translate(-121.933 -55.149)" fill="#2196f3"/>
      <path id="Trazado_71315" data-name="Trazado 71315" d="M133.566,36.18l-4.506-5.1a1.037,1.037,0,1,0-1.555,1.373l4.511,5.106.013.014c.028.031,2.525,2.907,1.6,9.61l-2.569-3.656-.012-.017-16.293-23.18V18.02l9.822,11.117a1.037,1.037,0,0,0,1.555-1.373L114.755,14.887V8.851a1.037,1.037,0,0,0-1.037-1.037h-3.8V1.037A1.037,1.037,0,0,0,108.877,0h-13a1.037,1.037,0,0,0-1.037,1.037V7.814h-3.8A1.037,1.037,0,0,0,90,8.851v4.356a1.037,1.037,0,0,0,2.074,0V9.888H112.68v51.03H92.074V17.606a1.037,1.037,0,0,0-2.074,0V61.955a1.037,1.037,0,0,0,1.037,1.037h3.8v6.776a1.037,1.037,0,0,0,1.037,1.037H129.99A1.037,1.037,0,0,0,131,69.541c0-.013-.3-1.322-.615-3.324a1.037,1.037,0,0,0-2.049.327c.14.876.274,1.618.382,2.187H109.914V62.992h3.8a1.037,1.037,0,0,0,1.037-1.037V23.938L129.1,44.353c-.475,2.028-.908,4.3-1.286,6.776a44.789,44.789,0,0,0-.061,10.928,1.037,1.037,0,0,0,1.031.935q.051,0,.1-.005a1.037,1.037,0,0,0,.93-1.134,42.761,42.761,0,0,1,.048-10.41c.26-1.7.546-3.3.853-4.789l2.265,3.222a1.314,1.314,0,0,0,2.361-.486c1.876-8.928-1.491-12.89-1.781-13.211ZM96.915,2.074H107.84V7.814H96.915ZM107.84,68.731H96.915V62.992H107.84Z"/>
    </g>
  </g>
</svg>
