<svg xmlns="http://www.w3.org/2000/svg" width="106" height="106" viewBox="0 0 106 106">
  <g id="Grupo_45964" data-name="Grupo 45964" transform="translate(3082 -3686)">
    <rect id="Rectángulo_12724" data-name="Rectángulo 12724" width="106" height="106" transform="translate(-3082 3686)" fill="none"/>
    <rect id="Rectángulo_12725" data-name="Rectángulo 12725" width="106" height="106" transform="translate(-3082 3686)" fill="none"/>
    <rect id="Rectángulo_12726" data-name="Rectángulo 12726" width="106" height="106" transform="translate(-3082 3686)" fill="none"/>
    <g id="patron-de-tela_1_" data-name="patron-de-tela (1)" transform="translate(-3081.919 3686.081)">
      <g id="Grupo_45738" data-name="Grupo 45738" transform="translate(17.243 17.243)">
        <path id="Trazado_70918" data-name="Trazado 70918" d="M46.454,24l-14.97,4.99S37.722,48.949,24,57.682c1.443,7.418,3.742,14.552,3.742,21.207,0,6.237-.621,12.239-2.495,17.465H58.929V36.475S50.2,32.732,46.454,24Z" transform="translate(-24 -24)" fill="#f5edc3"/>
        <path id="Trazado_70919" data-name="Trazado 70919" d="M312.434,41.98l-4.99,36.177H284.99L280,41.98a55.288,55.288,0,0,0,7.485-6.237,12.059,12.059,0,0,1,17.465,0,55.29,55.29,0,0,0,7.485,6.237Z" transform="translate(-240.081 -30.753)" fill="#f5c3d7"/>
        <path id="Trazado_70920" data-name="Trazado 70920" d="M296,384h29.939v14.97H296Z" transform="translate(-253.586 -327.864)" fill="#c3f3f5"/>
      </g>
      <path id="Trazado_70921" data-name="Trazado 70921" d="M53.419,89.6V29.718a1.248,1.248,0,0,0-.756-1.147c-.083-.035-8.314-3.64-11.82-11.82a1.247,1.247,0,0,0-1.541-.692l-14.97,4.99a1.247,1.247,0,0,0-.8,1.556,36.929,36.929,0,0,1,1.347,10.668c-.2,7.63-2.992,13.215-8.311,16.6a1.247,1.247,0,0,0-.555,1.291c.432,2.22.942,4.425,1.436,6.557,1.175,5.075,2.285,9.87,2.285,14.41,0,6.923-.792,12.5-2.422,17.044a1.247,1.247,0,0,0,1.174,1.668H52.172A1.247,1.247,0,0,0,53.419,89.6ZM50.924,72.13H48.43a1.247,1.247,0,1,0,0,2.495h2.495V88.349H38.45V85.854a1.247,1.247,0,1,0-2.495,0v2.495H20.215a56.2,56.2,0,0,0,2.018-16.217c0-4.826-1.14-9.755-2.348-14.974-.428-1.849-.868-3.753-1.256-5.659,5.522-3.854,8.543-10.114,8.749-18.163A39.959,39.959,0,0,0,26.24,23.044L39.031,18.78A27.37,27.37,0,0,0,50.924,30.506Z" transform="translate(0 0)"/>
      <path id="Trazado_70922" data-name="Trazado 70922" d="M306.374,34.189a54.37,54.37,0,0,1-7.295-6.081,13.305,13.305,0,0,0-19.229,0,54.593,54.593,0,0,1-7.295,6.081,1.247,1.247,0,0,0-.544,1.208L277,71.574a1.247,1.247,0,0,0,1.236,1.077h22.454a1.247,1.247,0,0,0,1.236-1.077l4.99-36.177a1.247,1.247,0,0,0-.544-1.208ZM299.6,70.156h-20.28l-4.736-34.341a57.571,57.571,0,0,0,7.027-5.943,10.812,10.812,0,0,1,15.7,0,57.571,57.571,0,0,0,7.026,5.943Z" transform="translate(-216.085 -6.757)"/>
      <path id="Trazado_70923" data-name="Trazado 70923" d="M145.247,60.99a1.247,1.247,0,0,0,1.247-1.247V57.247a1.247,1.247,0,1,0-2.495,0v2.495A1.247,1.247,0,0,0,145.247,60.99Z" transform="translate(-108.045 -33.767)"/>
      <path id="Trazado_70924" data-name="Trazado 70924" d="M377.247,60.99a1.247,1.247,0,0,0,1.247-1.247V57.247a1.247,1.247,0,1,0-2.495,0v2.495A1.247,1.247,0,0,0,377.247,60.99Z" transform="translate(-303.869 -33.767)"/>
      <path id="Trazado_70925" data-name="Trazado 70925" d="M377.247,128A1.247,1.247,0,0,0,376,129.247v2.495a1.247,1.247,0,1,0,2.495,0v-2.495A1.247,1.247,0,0,0,377.247,128Z" transform="translate(-303.869 -94.54)"/>
      <path id="Trazado_70926" data-name="Trazado 70926" d="M377.247,176A1.247,1.247,0,0,0,376,177.247v2.495a1.247,1.247,0,0,0,2.495,0v-2.495A1.247,1.247,0,0,0,377.247,176Z" transform="translate(-303.869 -135.055)"/>
      <path id="Trazado_70927" data-name="Trazado 70927" d="M377.247,224A1.247,1.247,0,0,0,376,225.247v2.495a1.247,1.247,0,1,0,2.495,0v-2.495A1.247,1.247,0,0,0,377.247,224Z" transform="translate(-303.869 -175.57)"/>
      <path id="Trazado_70928" data-name="Trazado 70928" d="M377.247,272A1.247,1.247,0,0,0,376,273.247v2.495a1.247,1.247,0,1,0,2.495,0v-2.495A1.247,1.247,0,0,0,377.247,272Z" transform="translate(-303.869 -216.085)"/>
      <path id="Trazado_70929" data-name="Trazado 70929" d="M52.99,249.247A1.247,1.247,0,0,0,51.742,248H49.247a1.247,1.247,0,1,0,0,2.495h2.495A1.247,1.247,0,0,0,52.99,249.247Z" transform="translate(-27.015 -195.828)"/>
      <path id="Trazado_70930" data-name="Trazado 70930" d="M355.742,424h-2.495a1.247,1.247,0,0,0,0,2.495h2.495a1.247,1.247,0,1,0,0-2.495Z" transform="translate(-283.611 -344.383)"/>
      <path id="Trazado_70931" data-name="Trazado 70931" d="M401.247,426.495h2.495a1.247,1.247,0,0,0,0-2.495h-2.495a1.247,1.247,0,1,0,0,2.495Z" transform="translate(-324.126 -344.383)"/>
      <path id="Trazado_70932" data-name="Trazado 70932" d="M320.434,377.247A1.247,1.247,0,0,0,319.187,376H289.247A1.247,1.247,0,0,0,288,377.247v14.97a1.247,1.247,0,0,0,1.247,1.247h29.939a1.247,1.247,0,0,0,1.247-1.247Zm-2.495,6.237H314.2a1.247,1.247,0,1,0,0,2.495h3.742v4.99H305.465v-2.495a1.247,1.247,0,1,0-2.495,0v2.495H290.495v-4.99h3.742a1.247,1.247,0,0,0,0-2.495h-3.742v-4.99H302.97v1.247a1.247,1.247,0,1,0,2.495,0v-1.247h12.475Z" transform="translate(-229.591 -303.868)"/>
      <path id="Trazado_70933" data-name="Trazado 70933" d="M306.495,96h-1.247a1.247,1.247,0,0,0,0,2.495h1.247a1.247,1.247,0,0,0,0-2.495Z" transform="translate(-243.096 -67.53)"/>
      <path id="Trazado_70934" data-name="Trazado 70934" d="M347.742,96h-2.495a1.247,1.247,0,0,0,0,2.495h2.495a1.247,1.247,0,0,0,0-2.495Z" transform="translate(-276.858 -67.53)"/>
      <path id="Trazado_70935" data-name="Trazado 70935" d="M395.742,96h-2.495a1.247,1.247,0,1,0,0,2.495h2.495a1.247,1.247,0,0,0,0-2.495Z" transform="translate(-317.374 -67.53)"/>
      <path id="Trazado_70936" data-name="Trazado 70936" d="M441.247,98.495h1.247a1.247,1.247,0,0,0,0-2.495h-1.247a1.247,1.247,0,0,0,0,2.495Z" transform="translate(-357.889 -67.53)"/>
      <path id="Trazado_70937" data-name="Trazado 70937" d="M75.742,376.007H73.247a1.247,1.247,0,0,0,0,2.495h2.495a1.247,1.247,0,0,0,0-2.495Z" transform="translate(-47.272 -303.874)"/>
      <path id="Trazado_70938" data-name="Trazado 70938" d="M124.99,377.247A1.247,1.247,0,0,0,123.742,376h-2.495a1.247,1.247,0,1,0,0,2.495h2.495A1.247,1.247,0,0,0,124.99,377.247Z" transform="translate(-87.788 -303.868)"/>
      <path id="Trazado_70939" data-name="Trazado 70939" d="M171.742,375.993h-2.495a1.247,1.247,0,1,0,0,2.495h2.495a1.247,1.247,0,0,0,0-2.495Z" transform="translate(-128.303 -303.862)"/>
      <path id="Trazado_70940" data-name="Trazado 70940" d="M97.247,250.495h2.495a1.247,1.247,0,1,0,0-2.495H97.247a1.247,1.247,0,1,0,0,2.495Z" transform="translate(-67.53 -195.828)"/>
      <path id="Trazado_70941" data-name="Trazado 70941" d="M145.247,250.495h2.495a1.247,1.247,0,1,0,0-2.495h-2.495a1.247,1.247,0,0,0,0,2.495Z" transform="translate(-108.045 -195.828)"/>
      <path id="Trazado_70942" data-name="Trazado 70942" d="M193.247,250.495h2.495a1.247,1.247,0,1,0,0-2.495h-2.495a1.247,1.247,0,1,0,0,2.495Z" transform="translate(-148.56 -195.828)"/>
      <path id="Trazado_70943" data-name="Trazado 70943" d="M145.247,108.99a1.247,1.247,0,0,0,1.247-1.247v-2.495a1.247,1.247,0,0,0-2.495,0v2.495A1.247,1.247,0,0,0,145.247,108.99Z" transform="translate(-108.045 -74.282)"/>
      <path id="Trazado_70944" data-name="Trazado 70944" d="M145.247,156.99a1.247,1.247,0,0,0,1.247-1.247v-2.495a1.247,1.247,0,0,0-2.495,0v2.495A1.247,1.247,0,0,0,145.247,156.99Z" transform="translate(-108.045 -114.797)"/>
      <path id="Trazado_70945" data-name="Trazado 70945" d="M145.247,204.99a1.247,1.247,0,0,0,1.247-1.247v-2.495a1.247,1.247,0,1,0-2.495,0v2.495A1.247,1.247,0,0,0,145.247,204.99Z" transform="translate(-108.045 -155.312)"/>
      <path id="Trazado_70946" data-name="Trazado 70946" d="M145.247,280A1.247,1.247,0,0,0,144,281.247v2.495a1.247,1.247,0,0,0,2.495,0v-2.495A1.247,1.247,0,0,0,145.247,280Z" transform="translate(-108.045 -222.838)"/>
      <path id="Trazado_70947" data-name="Trazado 70947" d="M145.247,328A1.247,1.247,0,0,0,144,329.247v2.495a1.247,1.247,0,1,0,2.495,0v-2.495A1.247,1.247,0,0,0,145.247,328Z" transform="translate(-108.045 -263.353)"/>
      <path id="Trazado_70948" data-name="Trazado 70948" d="M145.247,408A1.247,1.247,0,0,0,144,409.247v2.495a1.247,1.247,0,0,0,2.495,0v-2.495A1.247,1.247,0,0,0,145.247,408Z" transform="translate(-108.045 -330.878)"/>
    </g>
  </g>
</svg>
