<svg xmlns="http://www.w3.org/2000/svg" width="106" height="106" viewBox="0 0 106 106">
  <g id="Grupo_45978" data-name="Grupo 45978" transform="translate(3221 -3128)">
    <rect id="Rectángulo_12712" data-name="Rectángulo 12712" width="106" height="106" transform="translate(-3221 3128)" fill="none"/>
    <g id="plancha" transform="translate(-3205 3125.84)">
      <path id="Trazado_71130" data-name="Trazado 71130" d="M16.062,417.814l-4.455,8.634H81.458v-8.634Z" transform="translate(-9.949 -339.112)" fill="#f3cd5d"/>
      <path id="Trazado_71131" data-name="Trazado 71131" d="M71.509,418.159H1.658A1.659,1.659,0,0,1,.184,415.74l4.455-8.634a1.659,1.659,0,0,1,1.474-.9h65.4a1.659,1.659,0,0,1,1.659,1.659V416.5A1.658,1.658,0,0,1,71.509,418.159ZM4.38,414.842H69.85v-5.317H7.124Z" transform="translate(0 -329.164)"/>
      <path id="Trazado_71132" data-name="Trazado 71132" d="M86.449,167.274a31.981,31.981,0,0,0-30.96,23.97l-2.064,6.051H117.3V167.274Zm21.508,21.646H86.94v-3.882a8.939,8.939,0,0,1,8.938-8.938h12.079v12.82Z" transform="translate(-45.791 -124.376)" fill="#228fa0"/>
      <path id="Trazado_71133" data-name="Trazado 71133" d="M106.73,310.461a1.633,1.633,0,0,1-.323-.033,1.554,1.554,0,0,1-.31-.094,1.537,1.537,0,0,1-.287-.153,1.61,1.61,0,0,1-.458-.458,1.683,1.683,0,0,1-.153-.285,1.758,1.758,0,0,1-.095-.31,1.66,1.66,0,0,1-.033-.325,1.634,1.634,0,0,1,.033-.323,1.666,1.666,0,0,1,.095-.31,1.64,1.64,0,0,1,.153-.287,1.607,1.607,0,0,1,.458-.458,1.636,1.636,0,0,1,.287-.153,1.681,1.681,0,0,1,.31-.095,1.641,1.641,0,0,1,.649,0,1.751,1.751,0,0,1,.31.095,1.678,1.678,0,0,1,.285.153,1.584,1.584,0,0,1,.252.206,1.71,1.71,0,0,1,.207.252,1.641,1.641,0,0,1,.153.287,1.686,1.686,0,0,1,.095.31,1.633,1.633,0,0,1,.032.323,1.659,1.659,0,0,1-.032.325,1.746,1.746,0,0,1-.095.31,1.654,1.654,0,0,1-.36.537,1.683,1.683,0,0,1-.537.358,1.625,1.625,0,0,1-.31.094A1.675,1.675,0,0,1,106.73,310.461Z" transform="translate(-90.056 -244.258)"/>
      <path id="Trazado_71134" data-name="Trazado 71134" d="M490.446,25.478a1.664,1.664,0,0,1-.325-.033,1.748,1.748,0,0,1-.31-.095,1.678,1.678,0,0,1-.285-.153,1.591,1.591,0,0,1-.252-.207,1.654,1.654,0,0,1-.36-.537,1.713,1.713,0,0,1-.095-.31,1.783,1.783,0,0,1-.032-.325,1.758,1.758,0,0,1,.032-.323,1.659,1.659,0,0,1,.095-.31,1.636,1.636,0,0,1,.153-.287,1.692,1.692,0,0,1,.207-.252,1.566,1.566,0,0,1,.252-.206,1.683,1.683,0,0,1,.285-.153,1.76,1.76,0,0,1,.31-.095,1.64,1.64,0,0,1,.649,0,1.665,1.665,0,0,1,.31.095,1.635,1.635,0,0,1,.287.153,1.575,1.575,0,0,1,.252.206,1.593,1.593,0,0,1,.206.252,1.636,1.636,0,0,1,.153.287,1.674,1.674,0,0,1,.095.31,1.6,1.6,0,0,1,0,.649,1.7,1.7,0,0,1-.095.31,1.667,1.667,0,0,1-.153.285,1.581,1.581,0,0,1-.206.252,1.6,1.6,0,0,1-.252.207,1.635,1.635,0,0,1-.287.153,1.678,1.678,0,0,1-.31.095A1.631,1.631,0,0,1,490.446,25.478Z" transform="translate(-418.936 0)"/>
      <rect id="Rectángulo_12528" data-name="Rectángulo 12528" width="10.557" height="7.224" transform="translate(40.437 35.674)" fill="#f3cd5d"/>
      <rect id="Rectángulo_12529" data-name="Rectángulo 12529" width="10.655" height="7.224" transform="translate(50.994 35.674)" fill="#00dffc"/>
      <path id="Trazado_71135" data-name="Trazado 71135" d="M160.886,228.026v2.223H143.295a1.659,1.659,0,1,0,0,3.317h40.267a1.659,1.659,0,0,0,1.659-1.659v-12.82a1.659,1.659,0,0,0-1.659-1.659H171.483A10.609,10.609,0,0,0,160.886,228.026Zm21.017,2.223H164.2v-2.223a7.288,7.288,0,0,1,7.28-7.28H181.9Z" transform="translate(-121.396 -167.363)"/>
      <path id="Trazado_71136" data-name="Trazado 71136" d="M109.014,60.381a1.659,1.659,0,1,0-3.317,0v12.2H99.153V67.011a1.659,1.659,0,0,0-1.659-1.659H76.284a1.659,1.659,0,0,0-1.659,1.659v5.62a33.708,33.708,0,0,0-19.476,7.6,33.617,33.617,0,0,0-11.194,17.5l-2.044,5.992a1.659,1.659,0,0,0,1.57,2.194h63.874a1.659,1.659,0,0,0,1.659-1.659V86.774s0-.01,0-.014V60.381Zm-13.178,12.2H88.5V68.669h7.337ZM77.942,68.669h7.239v3.907H77.942V68.669ZM105.7,102.6H45.8l1.316-3.857c.013-.039.025-.079.036-.12A30.332,30.332,0,0,1,76.5,75.894H105.7v26.7h0Z" transform="translate(-35.846 -31.337)"/>
    </g>
  </g>
</svg>
