<svg xmlns="http://www.w3.org/2000/svg" width="106" height="106" viewBox="0 0 106 106">
  <g id="Grupo_45963" data-name="Grupo 45963" transform="translate(3343 -3899)">
    <rect id="Rectángulo_12729" data-name="Rectángulo 12729" width="106" height="106" transform="translate(-3343 3899)" fill="none"/>
    <g id="tela_11_" data-name="tela (11)" transform="translate(-3322.869 3919.131)">
      <g id="Grupo_45777" data-name="Grupo 45777" transform="translate(2.028 2.028)">
        <g id="Grupo_45763" data-name="Grupo 45763" transform="translate(24.673 12.336)">
          <path id="Trazado_71293" data-name="Trazado 71293" d="M56.841,14a6.173,6.173,0,0,1,6.168,6.168,6.178,6.178,0,0,1-6.168,6.168H26a6.173,6.173,0,0,0,6.168-6.168A6.178,6.178,0,0,0,26,14Z" transform="translate(-26 -14)" fill="#5cd6b3"/>
        </g>
        <g id="Grupo_45764" data-name="Grupo 45764" transform="translate(0 12.336)">
          <path id="Trazado_71294" data-name="Trazado 71294" d="M5.084,20.168a3.084,3.084,0,1,1,0-6.168H26.673a6.178,6.178,0,0,1,6.168,6.168,6.173,6.173,0,0,1-6.168,6.168H5.084a3.084,3.084,0,1,1,0-6.168Z" transform="translate(-2 -14)" fill="#48cfad"/>
        </g>
        <g id="Grupo_45765" data-name="Grupo 45765" transform="translate(24.673 0)">
          <path id="Trazado_71295" data-name="Trazado 71295" d="M56.841,2a6.173,6.173,0,0,1,6.168,6.168,6.178,6.178,0,0,1-6.168,6.168H26a6.173,6.173,0,0,0,6.168-6.168A6.178,6.178,0,0,0,26,2Z" transform="translate(-26 -2)" fill="#ff826e"/>
        </g>
        <g id="Grupo_45766" data-name="Grupo 45766" transform="translate(56.542 42.365)">
          <path id="Trazado_71296" data-name="Trazado 71296" d="M62.14,43.847V50.19a6.116,6.116,0,0,1-.822,3.084,7.925,7.925,0,0,1-.535.771C59.817,53.233,57,50.684,57,48.134a8.772,8.772,0,0,1,2.036-4.924,3.05,3.05,0,0,0,2.077.812A3.084,3.084,0,0,0,62.14,43.847Z" transform="translate(-57 -43.21)" fill="#ff826e"/>
        </g>
        <g id="Grupo_45767" data-name="Grupo 45767" transform="translate(57.57 37.009)">
          <path id="Trazado_71297" data-name="Trazado 71297" d="M59.007,43.356a.88.88,0,0,1-.2-.2,3.061,3.061,0,0,1,0-4.153.88.88,0,0,1,.2-.2A3.05,3.05,0,0,1,61.084,38a3.083,3.083,0,0,1,1.028.175v5.819a3.083,3.083,0,0,1-1.028.175,3.05,3.05,0,0,1-2.077-.812Z" transform="translate(-58 -38)" fill="#fc6e51"/>
        </g>
        <g id="Grupo_45768" data-name="Grupo 45768" transform="translate(56.542 26.986)">
          <path id="Trazado_71298" data-name="Trazado 71298" d="M62.14,32.105v6.343a3.083,3.083,0,0,0-1.028-.175,3.05,3.05,0,0,0-2.077.812A8.772,8.772,0,0,1,57,34.161c0-2.55,2.817-5.1,3.783-5.911A6.11,6.11,0,0,1,62.14,32.105Z" transform="translate(-57 -28.25)" fill="#ff826e"/>
        </g>
        <g id="Grupo_45769" data-name="Grupo 45769" transform="translate(24.673 52.43)">
          <path id="Trazado_71299" data-name="Trazado 71299" d="M62.187,53a6.175,6.175,0,0,1-5.346,9.252H26a6.173,6.173,0,0,0,6.168-6.168v-.36a5.965,5.965,0,0,0,2.056.36H56.841a6.162,6.162,0,0,0,4.811-2.313A7.926,7.926,0,0,0,62.187,53Z" transform="translate(-26 -53)" fill="#5cd6b3"/>
        </g>
        <g id="Grupo_45770" data-name="Grupo 45770" transform="translate(32.897 24.673)">
          <path id="Trazado_71300" data-name="Trazado 71300" d="M56.617,26a6.162,6.162,0,0,1,4.811,2.313c-.966.812-3.783,3.362-3.783,5.911a8.772,8.772,0,0,0,2.036,4.924.88.88,0,0,0-.2.2,8.772,8.772,0,0,0-4.924-2.036c-3.084,0-6.168,4.112-6.168,4.112s3.084,4.112,6.168,4.112A8.772,8.772,0,0,0,59.485,43.5a.88.88,0,0,0,.2.2,8.772,8.772,0,0,0-2.036,4.924c0,2.55,2.817,5.1,3.783,5.911a6.162,6.162,0,0,1-4.811,2.313H34a6.173,6.173,0,0,0,6.168-6.168v-18.5A6.173,6.173,0,0,0,34,26Z" transform="translate(-34 -26)" fill="#ffeaa7"/>
        </g>
        <g id="Grupo_45771" data-name="Grupo 45771" transform="translate(47.29 35.981)">
          <path id="Trazado_71301" data-name="Trazado 71301" d="M59.093,39.036a3.061,3.061,0,0,0,0,4.153,8.772,8.772,0,0,1-4.924,2.036c-3.084,0-6.168-4.112-6.168-4.112S51.084,37,54.168,37A8.772,8.772,0,0,1,59.093,39.036Z" transform="translate(-48 -37)" fill="#ff826e"/>
        </g>
        <g id="Grupo_45772" data-name="Grupo 45772" transform="translate(6.168 24.673)">
          <path id="Trazado_71302" data-name="Trazado 71302" d="M11.084,32.168a3.084,3.084,0,0,1,0-6.168H34.729A6.173,6.173,0,0,1,40.9,32.168v18.5a6.173,6.173,0,0,1-6.168,6.168,6.229,6.229,0,0,1-4.359-1.809,6.111,6.111,0,0,1-1.809-4.359V39.364a1.031,1.031,0,0,0-1.028-1.028H11.084a3.084,3.084,0,0,1,0-6.168Z" transform="translate(-8 -26)" fill="#fcd770"/>
        </g>
        <g id="Grupo_45773" data-name="Grupo 45773" transform="translate(0 49.346)">
          <path id="Trazado_71303" data-name="Trazado 71303" d="M5.084,56.168a3.084,3.084,0,0,1,0-6.168H28.729a6.111,6.111,0,0,0,1.809,4.359,5.931,5.931,0,0,0,2.3,1.45v.36a6.173,6.173,0,0,1-6.168,6.168H5.084a3.084,3.084,0,0,1,0-6.168Z" transform="translate(-2 -50)" fill="#48cfad"/>
        </g>
        <g id="Grupo_45774" data-name="Grupo 45774" transform="translate(0 0)">
          <path id="Trazado_71304" data-name="Trazado 71304" d="M5.084,8.168A3.084,3.084,0,0,1,5.084,2H26.673a6.178,6.178,0,0,1,6.168,6.168,6.173,6.173,0,0,1-6.168,6.168H5.084a3.084,3.084,0,0,1,0-6.168Z" transform="translate(-2 -2)" fill="#fc6e51"/>
        </g>
        <g id="Grupo_45775" data-name="Grupo 45775" transform="translate(0 43.178)">
          <path id="Trazado_71305" data-name="Trazado 71305" d="M28.729,44v6.168H5.084a3.084,3.084,0,0,1,0-6.168H28.729Z" transform="translate(-2 -44)" fill="#ccd1d9"/>
        </g>
        <g id="Grupo_45776" data-name="Grupo 45776" transform="translate(0 37.009)">
          <path id="Trazado_71306" data-name="Trazado 71306" d="M28.729,39.028v5.14H5.084a3.084,3.084,0,0,1,0-6.168H27.7A1.031,1.031,0,0,1,28.729,39.028Z" transform="translate(-2 -38)" fill="#ccd1d9"/>
        </g>
      </g>
      <g id="Grupo_45778" data-name="Grupo 45778" transform="translate(1 1)">
        <path id="Trazado_71307" data-name="Trazado 71307" d="M64.738,20.533a7.193,7.193,0,0,0-3.509-6.168A7.189,7.189,0,0,0,57.542,1H5.112A4.11,4.11,0,0,0,2.4,8.2a4.082,4.082,0,0,0,.026,6.168A4.082,4.082,0,0,0,2.4,20.533a4.11,4.11,0,0,0,2.717,7.2H7.74a4.06,4.06,0,0,0,.823,5.14,4.06,4.06,0,0,0-.823,5.14H5.112a4.1,4.1,0,0,0-2.691,7.2,4.058,4.058,0,0,0,0,6.168,4.058,4.058,0,0,0,0,6.168,4.1,4.1,0,0,0,2.691,7.2h52.43a7.172,7.172,0,0,0,6.49-10.275,7.142,7.142,0,0,0,.706-3.089v-18.5A7.193,7.193,0,0,0,61.23,26.7,7.193,7.193,0,0,0,64.738,20.533Zm-7.2-17.477a5.14,5.14,0,0,1,0,10.28H31.728a7.175,7.175,0,0,0,0-10.28ZM3.056,11.28A2.058,2.058,0,0,1,5.112,9.224H27.729V7.168H5.112a2.056,2.056,0,0,1,0-4.112H26.7a5.14,5.14,0,1,1,0,10.28H5.112A2.058,2.058,0,0,1,3.056,11.28Zm0,12.336a2.058,2.058,0,0,1,2.056-2.056H27.729V19.5H5.112a2.056,2.056,0,0,1,0-4.112H26.7a5.14,5.14,0,0,1,0,10.28H5.112A2.058,2.058,0,0,1,3.056,23.617ZM9.224,35.953A2.058,2.058,0,0,1,11.28,33.9H31.841A2.058,2.058,0,0,1,33.9,35.953V52.4h2.056V35.953a4.116,4.116,0,0,0-4.112-4.112H11.28a2.056,2.056,0,1,1,0-4.112H34.925a5.146,5.146,0,0,1,5.14,5.14v18.5a5.14,5.14,0,0,1-10.28,0V40.065a2.058,2.058,0,0,0-2.056-2.056H11.28A2.058,2.058,0,0,1,9.224,35.953ZM3.056,48.29a2.058,2.058,0,0,1,2.056-2.056H25.673V44.178H5.112a2.056,2.056,0,0,1,0-4.112H27.729v10.28H5.112A2.058,2.058,0,0,1,3.056,48.29ZM5.112,62.682a2.056,2.056,0,1,1,0-4.112H27.729V56.514H5.112a2.056,2.056,0,0,1,0-4.112h22.7a7.2,7.2,0,0,0,4,5.449A5.133,5.133,0,0,1,26.7,62.682Zm52.43,0H31.728a7.174,7.174,0,0,0,2.1-4.2,7.131,7.131,0,0,0,1.1.093H57.542a7.17,7.17,0,0,0,5.026-2.055,5.094,5.094,0,0,1-5.026,6.167ZM62.133,30.6a5.078,5.078,0,0,1,.549,2.265v5.14a4.064,4.064,0,0,0-1.806.436,6.868,6.868,0,0,1-1.278-3.52C59.6,33.538,60.793,31.9,62.133,30.6ZM60.626,42.121a2.058,2.058,0,0,1,2.056-2.056v4.112A2.058,2.058,0,0,1,60.626,42.121Zm-1.62,1.806a6.867,6.867,0,0,1-3.52,1.278c-1.756,0-3.773-1.87-4.84-3.084,1.067-1.214,3.084-3.084,4.84-3.084a6.867,6.867,0,0,1,3.52,1.278,3.96,3.96,0,0,0,0,3.613Zm1.87,1.87a4.064,4.064,0,0,0,1.806.436v5.14a5.078,5.078,0,0,1-.549,2.265c-1.341-1.3-2.535-2.934-2.535-4.321A6.867,6.867,0,0,1,60.876,45.8Zm-.02-16.824c-1.391,1.313-3.314,3.562-3.314,5.951a7.127,7.127,0,0,0,.548,2.6,7.126,7.126,0,0,0-2.6-.548c-3.5,0-6.643,4.061-6.991,4.523l-.463.617.463.617c.346.463,3.493,4.523,6.991,4.523a7.126,7.126,0,0,0,2.6-.548,7.127,7.127,0,0,0-.548,2.6c0,2.389,1.923,4.637,3.314,5.952a5.093,5.093,0,0,1-3.314,1.244H39.952a7.172,7.172,0,0,0,2.169-5.14v-18.5a7.172,7.172,0,0,0-2.169-5.14h17.59A5.088,5.088,0,0,1,60.856,28.974Zm-25.931-3.3h-3.2a7.175,7.175,0,0,0,0-10.28H57.542a5.14,5.14,0,0,1,0,10.28Z" transform="translate(-1 -1)"/>
        <ellipse id="Elipse_735" data-name="Elipse 735" cx="1.5" cy="1" rx="1.5" ry="1" transform="translate(54.869 39.869)"/>
      </g>
    </g>
  </g>
</svg>
