<svg xmlns="http://www.w3.org/2000/svg" width="106" height="106" viewBox="0 0 106 106">
  <g id="Grupo_45969" data-name="Grupo 45969" transform="translate(3205 -3499)">
    <rect id="Rectángulo_12721" data-name="Rectángulo 12721" width="106" height="106" transform="translate(-3205 3499)" fill="none"/>
    <g id="etiqueta_1_" data-name="etiqueta (1)" transform="translate(-3189.291 3514.67)">
      <path id="Trazado_71239" data-name="Trazado 71239" d="M75.776,10.109l-24.559-.014a5.81,5.81,0,0,0-4.111,1.7L11.7,47.2a5.809,5.809,0,0,0,0,8.215L36.051,79.766a5.809,5.809,0,0,0,8.215,0L79.674,44.359a5.809,5.809,0,0,0,1.7-4.1l.014-24.526Z" transform="translate(-8.549 -8.598)" fill="#fed79a"/>
      <g id="Grupo_45751" data-name="Grupo 45751" transform="translate(9.955 10.298)">
        <circle id="Elipse_732" data-name="Elipse 732" cx="4.493" cy="4.493" r="4.493" transform="translate(45.084)" fill="#fff"/>
        <path id="Trazado_71240" data-name="Trazado 71240" d="M119.606,101.394,102.7,84.484a4.294,4.294,0,0,0-6.073,0l-26.76,26.76a4.294,4.294,0,0,0,0,6.073l16.91,16.91a4.294,4.294,0,0,0,6.073,0l26.76-26.76A4.294,4.294,0,0,0,119.606,101.394Z" transform="translate(-68.606 -81.415)" fill="#fff"/>
      </g>
      <path id="Trazado_71241" data-name="Trazado 71241" d="M146.331,125.572a1.452,1.452,0,1,0-1.026-.425A1.462,1.462,0,0,0,146.331,125.572Z" transform="translate(-123.858 -104.838)"/>
      <path id="Trazado_71242" data-name="Trazado 71242" d="M72.072,4.309l1.794-1.794A1.451,1.451,0,0,0,71.814.463L70.021,2.256,68.254.486A1.451,1.451,0,0,0,67.228.06L42.669.046h0a7.213,7.213,0,0,0-5.134,2.126L25.276,14.428a1.451,1.451,0,0,0,2.052,2.052L39.583,4.225a4.329,4.329,0,0,1,3.082-1.276h0l23.958.013L67.97,4.308,62.586,9.692a5.942,5.942,0,1,0,1.148,9.3h0a5.955,5.955,0,0,0,.9-7.248l5.385-5.385,1.368,1.37-.013,23.925A4.33,4.33,0,0,1,70.1,34.735L34.691,70.143a4.358,4.358,0,0,1-6.163,0L4.179,45.793a4.358,4.358,0,0,1,0-6.163L19.819,23.989a1.451,1.451,0,0,0-2.052-2.052L2.126,37.578a7.26,7.26,0,0,0,0,10.268l24.349,24.35a7.268,7.268,0,0,0,10.268,0L72.151,36.787a7.214,7.214,0,0,0,2.126-5.13l.014-24.526a1.451,1.451,0,0,0-.424-1.026ZM61.682,16.941a3.042,3.042,0,1,1-2.151-5.192,3.059,3.059,0,0,1,.87.126l-1.675,1.675A1.451,1.451,0,1,0,60.778,15.6l1.67-1.67A3.044,3.044,0,0,1,61.682,16.941Z" transform="translate(0 0)"/>
      <path id="Trazado_71243" data-name="Trazado 71243" d="M58.606,105.747a5.707,5.707,0,0,0,1.683,4.063l16.91,16.91a5.745,5.745,0,0,0,8.125,0l26.76-26.76a5.745,5.745,0,0,0,0-8.125l-16.91-16.91a5.752,5.752,0,0,0-8.125,0l-26.759,26.76A5.707,5.707,0,0,0,58.606,105.747Zm3.735-2.01L89.1,76.977a2.846,2.846,0,0,1,4.021,0l16.91,16.91h0a2.843,2.843,0,0,1,0,4.021l-26.759,26.76a2.843,2.843,0,0,1-4.02,0l-16.91-16.91a2.843,2.843,0,0,1,0-4.021Z" transform="translate(-50.102 -62.585)"/>
      <path id="Trazado_71244" data-name="Trazado 71244" d="M206.724,200.964a1.447,1.447,0,0,0,1.026-.425l.992-.992a6,6,0,0,0,3.145.907,5.267,5.267,0,0,0,3.757-1.523,5.709,5.709,0,0,0-.289-8.047h0a3.207,3.207,0,0,1-.964-2.1,2.4,2.4,0,0,1,.673-1.841,2.815,2.815,0,0,1,3.944.29h0a2.815,2.815,0,0,1,.29,3.944,1.451,1.451,0,1,0,2.052,2.052,5.586,5.586,0,0,0,.616-6.9l.835-.835a1.451,1.451,0,0,0-2.052-2.052l-.835.835a5.586,5.586,0,0,0-6.9.616,5.264,5.264,0,0,0-1.52,4.034,6.1,6.1,0,0,0,1.811,4.014h0a2.612,2.612,0,1,1-3.945-.291,1.451,1.451,0,0,0-2.052-2.052,5.586,5.586,0,0,0-.616,6.9l-.991.991a1.451,1.451,0,0,0,1.027,2.477Z" transform="translate(-175.487 -156.423)"/>
      <path id="Trazado_71245" data-name="Trazado 71245" d="M164.312,321.507a1.451,1.451,0,1,0,2.052-2.052L158.911,312a1.451,1.451,0,1,0-2.052,2.052Z" transform="translate(-133.736 -266.335)"/>
      <path id="Trazado_71246" data-name="Trazado 71246" d="M130.491,287.083a1.452,1.452,0,1,0-1.026-.425A1.459,1.459,0,0,0,130.491,287.083Z" transform="translate(-110.316 -242.913)"/>
    </g>
  </g>
</svg>
