<svg xmlns="http://www.w3.org/2000/svg" width="106" height="106" viewBox="0 0 106 106">
  <g id="Grupo_45968" data-name="Grupo 45968" transform="translate(3343 -3686)">
    <rect id="Rectángulo_12722" data-name="Rectángulo 12722" width="106" height="106" transform="translate(-3343 3686)" fill="none"/>
    <g id="termometro" transform="translate(-3456.023 3696)">
      <g id="Grupo_45752" data-name="Grupo 45752" transform="translate(149.298 1.274)">
        <path id="Trazado_71247" data-name="Trazado 71247" d="M181.549,58.016V16.455a8.955,8.955,0,1,0-17.909,0V58.017a4.514,4.514,0,0,1-1.705,3.521,17.07,17.07,0,1,0,21.332.01A4.533,4.533,0,0,1,181.549,58.016Z" transform="translate(-155.525 -7.5)" fill="#d7effa"/>
      </g>
      <g id="Grupo_45753" data-name="Grupo 45753" transform="translate(154.735 6.711)">
        <path id="Trazado_71248" data-name="Trazado 71248" d="M198.991,113.064a11.7,11.7,0,0,1-11.465-11.52,11.562,11.562,0,0,1,5.534-10.02l.449-.277a4.49,4.49,0,0,0,2.131-3.821V43.1a3.574,3.574,0,0,1,3.382-3.6,3.522,3.522,0,0,1,3.654,3.515V87.426a4.491,4.491,0,0,0,2.131,3.821l.449.277a11.634,11.634,0,0,1-6.1,21.541h-.168Z" transform="translate(-187.526 -39.5)" fill="#f26e91"/>
      </g>
      <g id="Grupo_45754" data-name="Grupo 45754" transform="translate(163.247 6.711)">
        <path id="Trazado_71249" data-name="Trazado 71249" d="M246.848,91.525l-.449-.277a4.491,4.491,0,0,1-2.131-3.821V43.018a3.5,3.5,0,0,0-6.638-1.571,3.523,3.523,0,0,1,2.221,3.27V89.125a4.491,4.491,0,0,0,2.131,3.821l.449.277a11.635,11.635,0,0,1,2.54,17.7,11.782,11.782,0,0,1-2.334,1.989,11.635,11.635,0,0,0,4.212-21.389Z" transform="translate(-237.629 -39.5)" fill="#e05c7e"/>
      </g>
      <g id="Grupo_45755" data-name="Grupo 45755" transform="translate(162.85 6.711)">
        <path id="Trazado_71250" data-name="Trazado 71250" d="M242.324,49.752V43.018A3.522,3.522,0,0,0,238.67,39.5a3.575,3.575,0,0,0-3.382,3.6v6.648h7.036Z" transform="translate(-235.288 -39.5)" fill="#766d78"/>
      </g>
      <g id="Grupo_45756" data-name="Grupo 45756" transform="translate(164.341 6.711)">
        <path id="Trazado_71251" data-name="Trazado 71251" d="M245.955,39.5a3.42,3.42,0,0,0-1.891.659,3.515,3.515,0,0,1,1.467,2.857v6.735h4.078V43.018a3.522,3.522,0,0,0-3.653-3.515Z" transform="translate(-244.064 -39.5)" fill="#655e67"/>
      </g>
      <g id="Grupo_45757" data-name="Grupo 45757" transform="translate(148.023 0)">
        <path id="Trazado_71252" data-name="Trazado 71252" d="M197.063,46.466a1.274,1.274,0,0,0,1.274-1.274V10.229a7.681,7.681,0,0,1,15.361,0V15.36a1.274,1.274,0,0,0,2.549,0V10.229a10.229,10.229,0,0,0-20.458,0V45.192A1.274,1.274,0,0,0,197.063,46.466Z" transform="translate(-187.673 0)"/>
        <path id="Trazado_71253" data-name="Trazado 71253" d="M177.837,148.05a3.248,3.248,0,0,1-1.24-2.537V114.179a1.274,1.274,0,1,0-2.549,0v31.333a5.784,5.784,0,0,0,2.194,4.525,15.8,15.8,0,1,1-19.738-.009,5.764,5.764,0,0,0,2.183-4.516v-1.5a1.274,1.274,0,1,0-2.549,0v1.5a3.228,3.228,0,0,1-1.227,2.526,18.357,18.357,0,0,0,11.2,32.669l.263,0a18.344,18.344,0,0,0,11.467-32.66Z" transform="translate(-148.023 -93.722)"/>
        <path id="Trazado_71254" data-name="Trazado 71254" d="M196.255,33.341A4.753,4.753,0,0,0,192.749,32a4.821,4.821,0,0,0-4.608,4.875V81.2a3.2,3.2,0,0,1-1.527,2.736l-.449.277a12.827,12.827,0,0,0-6.139,11.116,12.98,12.98,0,0,0,12.721,12.783h.186a12.906,12.906,0,0,0,12.89-12.237A12.938,12.938,0,0,0,199.7,84.215l-.449-.277a3.2,3.2,0,0,1-1.526-2.736V36.792A4.752,4.752,0,0,0,196.255,33.341Zm-3.41,1.209.087,0a2.247,2.247,0,0,1,2.244,2.244v5.46h-4.487V36.878a2.309,2.309,0,0,1,2.156-2.328Zm5.067,51.556.449.277a10.359,10.359,0,0,1-5.424,19.182h-.154a10.416,10.416,0,0,1-10.209-10.258,10.3,10.3,0,0,1,4.93-8.924l.449-.277A5.728,5.728,0,0,0,190.69,81.2V44.8h4.487v2.819h-.969a1.274,1.274,0,0,0,0,2.549h.969v3.566h-.969a1.274,1.274,0,0,0,0,2.549h.969v3.566h-.969a1.274,1.274,0,0,0,0,2.549h.969v3.566h-.969a1.274,1.274,0,0,0,0,2.549h.969v3.566h-.969a1.274,1.274,0,0,0,0,2.549h.969V81.2a5.727,5.727,0,0,0,2.736,4.9Z" transform="translate(-174.588 -26.563)"/>
      </g>
    </g>
  </g>
</svg>
