<svg xmlns="http://www.w3.org/2000/svg" width="359.634" height="517.55" viewBox="0 0 359.634 517.55">
  <g id="Grupo_13052" data-name="Grupo 13052" transform="translate(-36.793 -28.979)">
    <g id="Grupo_13040" data-name="Grupo 13040" transform="translate(36.793 36.507)">
      <path id="Trazado_29885" data-name="Trazado 29885" d="M40.433,36.842c63.65,10.263,124.652-1.9,190.95,3.682-1.311,49.536-.012,96.291-1.852,152.966-2.184,67.251-6.762,145.193,3.176,212.148C170.381,416.57,102.1,404.745,36.793,404.3,44.294,293.192,32.932,143.264,40.433,36.842Z" transform="translate(-36.793 -36.842)" fill="#f2efef" fill-rule="evenodd"/>
      <path id="Trazado_29886" data-name="Trazado 29886" d="M217.245,394.208c-7.825-65.646-3.549-134.829-1.419-200.46,1.505-46.373.686-92.709,1.541-139.052-54.408-2.687-108.5,5.1-162.842-.811-1.337,25.166-1.678,50.455-1.713,75.619-.046,33.6.539,67.2,1.032,100.795.782,53.246,1.732,107.322-1.106,160.62,17.221.515,34.425,1.619,51.615,2.717C141.327,396,180.117,398.733,217.245,394.208Z" transform="translate(-37.472 -37.568)" fill="#53b9f2" fill-rule="evenodd"/>
      <path id="Trazado_29887" data-name="Trazado 29887" d="M42.071,39.567c58.678,9.461,115.088-.3,175.558,2.734,2.34,33.706.791,73.493.791,113.445,0,102.691-58.3,185.939-130.226,185.939A96.564,96.564,0,0,1,41.028,329.1C41.95,232.406,36.217,122.624,42.071,39.567Z" transform="translate(-36.904 -36.958)" fill="#fff" fill-rule="evenodd"/>
      <path id="Trazado_29888" data-name="Trazado 29888" d="M215.682,198.182c-13.29,82.548-65.067,144.112-126.917,144.112a94.15,94.15,0,0,1-34.28-6.517c.461-35.213-.124-70.524-.638-105.477-.493-33.593-1.078-67.2-1.032-100.795.034-25.163.375-50.452,1.713-75.619,54.344,5.91,108.434-1.877,162.842.811-.855,46.342-.036,92.679-1.541,139.052Q215.758,195.963,215.682,198.182Z" transform="translate(-37.475 -37.568)" fill="#72c6ff" fill-rule="evenodd"/>
      <g id="Grupo_13039" data-name="Grupo 13039" transform="translate(29.014 22.292)">
        <path id="Trazado_29889" data-name="Trazado 29889" d="M152.1,67.84a.625.625,0,0,1,.75-.451.6.6,0,0,1,.467.725c-2,8.257-.658,13.688,2.459,17.5,3.138,3.841,8.11,6.108,13.3,7.976a.6.6,0,0,1,.367.775.631.631,0,0,1-.8.354c-5.364-1.93-10.518-4.29-13.84-8.358-3.343-4.093-4.8-9.855-2.7-18.525ZM106.753,94.724a.63.63,0,0,1-.8-.355.6.6,0,0,1,.367-.775c5.188-1.867,10.161-4.135,13.3-7.976,3.117-3.816,4.46-9.248,2.46-17.5a.6.6,0,0,1,.467-.725.625.625,0,0,1,.75.451c2.1,8.67.644,14.432-2.7,18.525C117.271,90.433,112.117,92.794,106.753,94.724Z" transform="translate(-68.752 -60.434)" fill="#fff" fill-rule="evenodd"/>
        <g id="Grupo_13037" data-name="Grupo 13037" transform="translate(11.409 31.593)">
          <path id="Trazado_29890" data-name="Trazado 29890" d="M167.169,191.109a43.774,43.774,0,0,0,2.255,8.127,68.357,68.357,0,0,0,3.735,8c.67,1.248,1.218,2.24,1.764,3.23,1.425,2.586,2.848,5.167,4.118,7.844a68.251,68.251,0,0,1,2.867,7.005,62.964,62.964,0,0,1,2.032,7.278c.75,3.477,1.3,7,1.7,10.53s.644,7.07.782,10.616c.145,3.729,1.79,20.538,3.785,40.923,3.308,33.812,7.578,77.457,7.577,87.746a.625.625,0,0,1-1.236.108c-.22-1.158-1.135-2.257-2.754-3.28a26.851,26.851,0,0,0-7.282-2.875,99.171,99.171,0,0,0-13.279-2.188c-6.569-.789-13.14-1.579-18.383-3.927-4.855-2.176-8.778-5.3-13.665-9.182-2.955-2.35-6.267-4.985-10.38-7.875-7.674-5.39-16.944-5.878-24.827-4.777a64.267,64.267,0,0,0-16.6,4.777.633.633,0,0,1-.828-.3.589.589,0,0,1-.056-.206L88.4,351.59c-.058-.691-.117-1.711-.174-3.011s-.115-2.92-.169-4.772a.586.586,0,0,1,.017-.16c1.622-6.328,2.328-14.754,3.027-23.1.564-6.723,1.123-13.4,2.162-18.953A428.67,428.67,0,0,1,107.49,245.11a283.237,283.237,0,0,1,19.778-46.1.613.613,0,0,1,.333-.284,141.578,141.578,0,0,1,18.034-5.374,117.328,117.328,0,0,1,20.893-2.743.62.62,0,0,1,.64.5Zm1.082,8.543a45.029,45.029,0,0,1-2.217-7.818,116.178,116.178,0,0,0-20.12,2.691,140.309,140.309,0,0,0-17.652,5.245,282.249,282.249,0,0,0-19.585,45.709A427.554,427.554,0,0,0,94.492,301.8c-1.023,5.462-1.581,12.124-2.143,18.835-.7,8.36-1.406,16.8-3.042,23.219.053,1.788.108,3.361.167,4.672.054,1.236.112,2.237.173,2.965l.02.237a65.838,65.838,0,0,1,16.134-4.521c8.146-1.136,17.742-.621,25.736,4.995,4.109,2.888,7.454,5.548,10.44,7.922,4.814,3.829,8.68,6.9,13.4,9.017,5.063,2.269,11.539,3.046,18.012,3.824a99.742,99.742,0,0,1,13.455,2.226,28.094,28.094,0,0,1,7.638,3.025,9.738,9.738,0,0,1,2,1.63c-.52-13.589-4.434-53.6-7.514-85.079-2-20.406-3.643-37.233-3.789-40.994-.137-3.505-.381-7.024-.777-10.531s-.941-6.976-1.681-10.412a62.026,62.026,0,0,0-1.993-7.145,67.2,67.2,0,0,0-2.819-6.882c-1.257-2.651-2.669-5.213-4.083-7.779-.64-1.16-1.279-2.32-1.773-3.24A69.246,69.246,0,0,1,168.251,199.651Z" transform="translate(-79.4 -97.276)" fill="#fff" fill-rule="evenodd"/>
          <path id="Trazado_29891" data-name="Trazado 29891" d="M198.937,389.378a4.736,4.736,0,0,1-.084.9c-.517,2.737-3.358,4.457-7.434,5.474a61.8,61.8,0,0,1-14.171,1.324,171.841,171.841,0,0,1-24.689-1.966,161.528,161.528,0,0,1-19.467-4.706,136.1,136.1,0,0,1-17.658-6.769.6.6,0,0,1-.288-.808.6.6,0,0,1,.128-.171c2.976-3.111,4.7-7.54,5.521-12.072,1.067-5.878.618-11.9-.572-15.473a.6.6,0,0,1,.4-.759.635.635,0,0,1,.307-.017,31.728,31.728,0,0,1,6.018,1.737,28.436,28.436,0,0,1,5.736,3.107c4.109,2.888,7.454,5.548,10.44,7.922,4.814,3.829,8.68,6.9,13.4,9.017,5.063,2.269,11.539,3.046,18.012,3.824a99.742,99.742,0,0,1,13.455,2.226,28.094,28.094,0,0,1,7.638,3.025c1.917,1.211,3.012,2.577,3.3,4.075a.73.73,0,0,1,.011.109Zm-1.311.684a3.7,3.7,0,0,0,.06-.637,5.472,5.472,0,0,0-2.741-3.219,26.851,26.851,0,0,0-7.282-2.875,99.171,99.171,0,0,0-13.279-2.188c-6.569-.789-13.14-1.579-18.383-3.927-4.855-2.176-8.778-5.3-13.665-9.182-2.955-2.35-6.267-4.985-10.38-7.875a27.131,27.131,0,0,0-5.482-2.969,30.148,30.148,0,0,0-4.769-1.464,36.814,36.814,0,0,1,.322,15.068,25.311,25.311,0,0,1-5.3,12.1,135.853,135.853,0,0,0,16.747,6.363,160.337,160.337,0,0,0,19.316,4.667,170.1,170.1,0,0,0,24.464,1.943,60.685,60.685,0,0,0,13.863-1.282C194.717,393.685,197.213,392.254,197.627,390.061Z" transform="translate(-80.551 -104.25)" fill="#fff" fill-rule="evenodd"/>
          <path id="Trazado_29892" data-name="Trazado 29892" d="M196.137,113.936a5.064,5.064,0,0,1-.514,3.277,15.551,15.551,0,0,1-2.449,3.127c-2.841,3.07-6.415,10.208-9.654,18.01-4.057,9.773-7.569,20.552-8.472,25.716a52.659,52.659,0,0,0-.7,13.277c.4,4.854,1.507,8.388,2.581,10.223a.594.594,0,0,1-.235.823.637.637,0,0,1-.346.077,116.167,116.167,0,0,0-25.289,2.063,136.426,136.426,0,0,0-21.274,6.033.631.631,0,0,1-.8-.352.586.586,0,0,1,.051-.526,271.428,271.428,0,0,1,28.614-42.407,420.147,420.147,0,0,1,37.441-39.69.639.639,0,0,1,.882.011.6.6,0,0,1,.171.338Zm-1.629,2.733a3.847,3.847,0,0,0,.41-1.238,415.5,415.5,0,0,0-36.3,38.592,270.822,270.822,0,0,0-27.742,40.853,135.7,135.7,0,0,1,19.934-5.534,117.272,117.272,0,0,1,24.548-2.1,29.76,29.76,0,0,1-2.261-9.8,53.779,53.779,0,0,1,.718-13.57c.915-5.236,4.459-16.121,8.546-25.967,3.284-7.911,6.934-15.178,9.883-18.364A14.661,14.661,0,0,0,194.509,116.669Z" transform="translate(-81.141 -93.988)" fill="#fff" fill-rule="evenodd"/>
          <path id="Trazado_29893" data-name="Trazado 29893" d="M170.1,93.159l1.137.389c1.428.483,2.687.888,3.873,1.269,9.139,2.936,14.171,4.552,18.16,15.556.191.528.348,1.005.467,1.44a10.172,10.172,0,0,1,.273,1.259.594.594,0,0,1-.2.528c-27.093,25.6-47.954,49.887-64.07,78.628S102.24,254.2,94.107,297.653c-1.023,5.462-1.581,12.124-2.142,18.835-.94,11.223-1.892,22.586-5.093,29.036a.633.633,0,0,1-.831.283.6.6,0,0,1-.351-.483c-1.908-17.6-2.5-41.014-1.712-63.477.738-20.929,2.681-41.036,5.887-54.847a61.06,61.06,0,0,1,2-6.8,67.873,67.873,0,0,1,2.748-6.549c1.211-2.518,2.586-5,3.963-7.487.563-1.017,1.126-2.034,1.67-3.039a62.933,62.933,0,0,0,4.5-10.021,43.917,43.917,0,0,0,2.135-10.71,34.081,34.081,0,0,0-.877-10.67,54.721,54.721,0,0,0-3.672-10.183c-1.05-2.277-2.2-4.538-3.357-6.8A101.036,101.036,0,0,1,93,141.476c-.145-.422-.285-.855-.419-1.288-.126-.408-.245-.812-.353-1.2a71.026,71.026,0,0,0-4.664-11.315,38.5,38.5,0,0,0-5.512-8.2c-1.517-1.639-2.461-2.776-2.844-4.107s-.18-2.786.622-5c3.99-11,9.02-12.62,18.16-15.556,1.185-.38,2.444-.785,3.873-1.269l1.136-.39a.642.642,0,0,1,.619.115,40.346,40.346,0,0,0,14.073,6.482,76.449,76.449,0,0,0,37.72,0,40.32,40.32,0,0,0,14.093-6.5.642.642,0,0,1,.6-.1Zm.159,1.336-.251-.086a42.055,42.055,0,0,1-14.268,6.509,77.634,77.634,0,0,1-38.385,0,42.077,42.077,0,0,1-14.267-6.509l-.819.279c-1.318.446-2.644.872-3.892,1.273C89.614,98.776,84.791,100.326,81,110.77c-.712,1.963-.91,3.2-.6,4.278.315,1.091,1.178,2.12,2.572,3.625a39.717,39.717,0,0,1,5.7,8.456,72.33,72.33,0,0,1,4.747,11.508l0,.019c.106.383.223.782.348,1.187s.264.829.409,1.256a100.305,100.305,0,0,0,5.913,13.108c1.153,2.259,2.305,4.521,3.376,6.843a55.845,55.845,0,0,1,3.751,10.405,35.223,35.223,0,0,1,.906,11.03,45.034,45.034,0,0,1-2.193,10.989,64,64,0,0,1-4.582,10.209c-.559,1.033-1.116,2.041-1.674,3.048-1.349,2.437-2.7,4.869-3.927,7.431a66.646,66.646,0,0,0-2.7,6.43,60.01,60.01,0,0,0-1.966,6.673c-3.189,13.738-5.123,33.764-5.858,54.621-.753,21.4-.246,43.671,1.458,60.918,2.369-6.48,3.208-16.5,4.037-26.411.564-6.724,1.123-13.4,2.162-18.953,8.16-43.6,19.583-76.93,35.764-105.788,16.137-28.779,37-53.1,64.081-78.71-.048-.255-.113-.527-.193-.818-.116-.421-.262-.87-.439-1.356-3.787-10.443-8.611-11.993-17.373-14.808-1.248-.4-2.574-.827-3.892-1.273Z" transform="translate(-79.015 -93.124)" fill="#fff" fill-rule="evenodd"/>
        </g>
        <g id="Grupo_13038" data-name="Grupo 13038">
          <path id="Trazado_29894" data-name="Trazado 29894" d="M139.705,60.725a.626.626,0,0,0-1.249-.027v3.038a.627.627,0,0,0,1.25.028V60.725Zm-1.25,327.637a.627.627,0,0,0,1.25.028v-3.04a.626.626,0,0,0-1.249-.027v3.039Zm0-6.625a.627.627,0,0,0,1.25.028v-6.051a.626.626,0,0,0-1.249-.027v6.05Zm0-9.636a.627.627,0,0,0,1.25.027v-6.05a.626.626,0,0,0-1.249-.027v6.05Zm0-9.636a.627.627,0,0,0,1.25.028v-6.051a.626.626,0,0,0-1.249-.027v6.05Zm0-9.636a.627.627,0,0,0,1.25.027V346.8a.626.626,0,0,0-1.249-.028v6.051Zm0-9.636a.627.627,0,0,0,1.25.027v-6.05a.626.626,0,0,0-1.249-.028v6.051Zm0-9.636a.627.627,0,0,0,1.25.027v-6.05a.626.626,0,0,0-1.249-.028v6.051Zm0-9.636a.627.627,0,0,0,1.25.027V317.9a.626.626,0,0,0-1.249-.028v6.051Zm0-9.637a.627.627,0,0,0,1.25.028v-6.05a.626.626,0,0,0-1.249-.028v6.05Zm0-9.636a.627.627,0,0,0,1.25.028v-6.05a.626.626,0,0,0-1.249-.028v6.05Zm0-9.636a.627.627,0,0,0,1.25.028v-6.05a.626.626,0,0,0-1.249-.028v6.05Zm0-9.636a.627.627,0,0,0,1.25.028v-6.05a.626.626,0,0,0-1.249-.028v6.05Zm0-9.636a.627.627,0,0,0,1.25.028v-6.051a.626.626,0,0,0-1.249-.027v6.05Zm0-9.636a.627.627,0,0,0,1.25.028v-6.051a.626.626,0,0,0-1.249-.027v6.05Zm0-9.636a.627.627,0,0,0,1.25.027v-6.05a.626.626,0,0,0-1.249-.027v6.05Zm0-9.636a.627.627,0,0,0,1.25.027V240.8a.626.626,0,0,0-1.249-.027v6.05Zm0-9.636a.627.627,0,0,0,1.25.027v-6.05a.626.626,0,0,0-1.249-.028v6.051Zm0-9.636a.627.627,0,0,0,1.25.027v-6.05a.626.626,0,0,0-1.249-.028v6.051Zm0-9.636a.627.627,0,0,0,1.25.027V211.9a.626.626,0,0,0-1.249-.028v6.051Zm0-9.636a.627.627,0,0,0,1.25.027v-6.05a.626.626,0,0,0-1.249-.028v6.051Zm0-9.636a.627.627,0,0,0,1.25.027v-6.05a.626.626,0,0,0-1.249-.028v6.051Zm0-9.637a.627.627,0,0,0,1.25.028v-6.05a.626.626,0,0,0-1.249-.028v6.05Zm0-9.636a.627.627,0,0,0,1.25.028V173.35a.626.626,0,0,0-1.249-.027v6.05Zm0-9.636a.627.627,0,0,0,1.25.028v-6.051a.626.626,0,0,0-1.249-.027v6.05Zm0-9.636a.627.627,0,0,0,1.25.028v-6.051a.626.626,0,0,0-1.249-.027v6.05Zm0-9.636a.627.627,0,0,0,1.25.028v-6.05a.626.626,0,0,0-1.249-.028v6.05Zm0-9.636a.627.627,0,0,0,1.25.027V134.8a.626.626,0,0,0-1.249-.027v6.05Zm0-9.636a.627.627,0,0,0,1.25.027v-6.05a.626.626,0,0,0-1.249-.027v6.05Zm0-9.636a.627.627,0,0,0,1.25.027v-6.05a.626.626,0,0,0-1.249-.027v6.05Zm0-9.636a.627.627,0,0,0,1.25.027V105.9a.626.626,0,0,0-1.249-.028v6.051Zm0-9.636a.627.627,0,0,0,1.25.027v-6.05a.626.626,0,0,0-1.249-.028v6.051Zm0-9.637a.627.627,0,0,0,1.25.028v-6.05a.626.626,0,0,0-1.249-.028v6.05Zm0-9.636a.627.627,0,0,0,1.25.028v-6.05a.626.626,0,0,0-1.249-.028v6.05Zm0-9.636a.627.627,0,0,0,1.25.028v-6.05a.626.626,0,0,0-1.249-.028Z" transform="translate(-70.138 -60.126)" fill="#055f63" fill-rule="evenodd"/>
          <path id="Trazado_29895" data-name="Trazado 29895" d="M204.363,240.044a.605.605,0,1,0,.029-1.21h-3.079a.6.6,0,1,0-.028,1.209Zm-136.645-1.21a.6.6,0,1,0-.029,1.209h3.079a.605.605,0,1,0,.029-1.21Zm6.711,0a.6.6,0,1,0-.029,1.209h6.128a.605.605,0,1,0,.029-1.21Zm9.76,0a.6.6,0,1,0-.028,1.209H90.29a.605.605,0,1,0,.028-1.21Zm9.761,0a.6.6,0,1,0-.029,1.209h6.128a.605.605,0,1,0,.029-1.21Zm9.76,0a.6.6,0,1,0-.028,1.209h6.128a.605.605,0,1,0,.028-1.21Zm9.761,0a.6.6,0,1,0-.029,1.209h6.128a.605.605,0,1,0,.029-1.21Zm9.76,0a.6.6,0,1,0-.028,1.209h6.128a.605.605,0,1,0,.028-1.21Zm9.761,0a.6.6,0,1,0-.029,1.209h6.128a.605.605,0,1,0,.029-1.21Zm9.761,0a.6.6,0,1,0-.029,1.209h6.128a.605.605,0,1,0,.029-1.21Zm9.76,0a.6.6,0,1,0-.028,1.209h6.128a.605.605,0,1,0,.028-1.21Zm9.76,0a.6.6,0,1,0-.028,1.209h6.128a.605.605,0,1,0,.029-1.21Zm9.761,0a.6.6,0,1,0-.029,1.209h6.129a.605.605,0,0,0,.028-1.21Zm9.76,0a.6.6,0,1,0-.028,1.209h6.128a.605.605,0,1,0,.029-1.21Zm9.761,0a.6.6,0,1,0-.029,1.209h6.129a.605.605,0,1,0,.028-1.21Z" transform="translate(-67.098 -67.738)" fill="#055f63" fill-rule="evenodd"/>
          <path id="Trazado_29896" data-name="Trazado 29896" d="M204.363,148.4a.6.6,0,1,0,.029-1.209h-3.079a.605.605,0,1,0-.028,1.21Zm-136.645-1.21a.605.605,0,1,0-.029,1.21h3.079a.6.6,0,1,0,.029-1.209Zm6.711,0a.605.605,0,1,0-.029,1.21h6.128a.6.6,0,1,0,.029-1.209Zm9.76,0a.605.605,0,1,0-.028,1.21H90.29a.6.6,0,1,0,.028-1.209Zm9.761,0a.605.605,0,1,0-.029,1.21h6.128a.6.6,0,1,0,.029-1.209Zm9.76,0a.605.605,0,1,0-.028,1.21h6.128a.6.6,0,1,0,.028-1.209Zm9.761,0a.605.605,0,1,0-.029,1.21h6.128a.6.6,0,1,0,.029-1.209Zm9.76,0a.605.605,0,1,0-.028,1.21h6.128a.6.6,0,1,0,.028-1.209Zm9.761,0a.605.605,0,1,0-.029,1.21h6.128a.6.6,0,1,0,.029-1.209Zm9.761,0a.605.605,0,1,0-.029,1.21h6.128a.6.6,0,1,0,.029-1.209Zm9.76,0a.605.605,0,1,0-.028,1.21h6.128a.6.6,0,1,0,.028-1.209Zm9.76,0a.605.605,0,1,0-.028,1.21h6.128a.6.6,0,1,0,.029-1.209Zm9.761,0A.605.605,0,1,0,172,148.4h6.129a.6.6,0,1,0,.028-1.209Zm9.76,0a.605.605,0,1,0-.028,1.21h6.128a.6.6,0,1,0,.029-1.209Zm9.761,0a.605.605,0,1,0-.029,1.21h6.129a.6.6,0,1,0,.028-1.209Z" transform="translate(-67.098 -63.834)" fill="#055f63" fill-rule="evenodd"/>
          <path id="Trazado_29897" data-name="Trazado 29897" d="M204.363,344.5a.605.605,0,1,0,.029-1.21h-3.079a.6.6,0,1,0-.028,1.209Zm-136.645-1.21a.6.6,0,1,0-.029,1.209h3.079a.605.605,0,1,0,.029-1.21Zm6.711,0A.6.6,0,1,0,74.4,344.5h6.128a.605.605,0,1,0,.029-1.21Zm9.76,0a.6.6,0,1,0-.028,1.209H90.29a.605.605,0,1,0,.028-1.21Zm9.761,0a.6.6,0,1,0-.029,1.209h6.128a.605.605,0,1,0,.029-1.21Zm9.76,0a.6.6,0,1,0-.028,1.209h6.128a.605.605,0,1,0,.028-1.21Zm9.761,0a.6.6,0,1,0-.029,1.209h6.128a.605.605,0,1,0,.029-1.21Zm9.76,0a.6.6,0,1,0-.028,1.209h6.128a.605.605,0,1,0,.028-1.21Zm9.761,0a.6.6,0,1,0-.029,1.209h6.128a.605.605,0,1,0,.029-1.21Zm9.761,0a.6.6,0,1,0-.029,1.209h6.128a.605.605,0,1,0,.029-1.21Zm9.76,0a.6.6,0,1,0-.028,1.209h6.128a.605.605,0,1,0,.028-1.21Zm9.76,0a.6.6,0,1,0-.028,1.209h6.128a.605.605,0,1,0,.029-1.21Zm9.761,0A.6.6,0,1,0,172,344.5h6.129a.605.605,0,0,0,.028-1.21Zm9.76,0a.6.6,0,1,0-.028,1.209h6.128a.605.605,0,1,0,.029-1.21Zm9.761,0a.6.6,0,1,0-.029,1.209h6.129a.605.605,0,1,0,.028-1.21Z" transform="translate(-67.098 -72.187)" fill="#055f63" fill-rule="evenodd"/>
        </g>
      </g>
    </g>
    <path id="Trazado_29898" data-name="Trazado 29898" d="M401.637,562.141c0,3.761-54.29,6.808-121.259,6.808s-121.259-3.047-121.259-6.808,54.29-6.808,121.259-6.808S401.637,558.381,401.637,562.141Z" transform="translate(-5.21 -22.42)" fill-rule="evenodd" opacity="0.12"/>
    <g id="Grupo_13049" data-name="Grupo 13049" transform="translate(206.35 28.979)">
      <g id="Grupo_13048" data-name="Grupo 13048">
        <g id="Grupo_13042" data-name="Grupo 13042" transform="translate(0 186.379)">
          <path id="Trazado_29899" data-name="Trazado 29899" d="M289.567,224.7c-1.8,13.294-13.5,27.231-28.068,37.939-15.232,11.194-33.858,19.041-47.605,18.949a14.53,14.53,0,0,0,.835-4.917,15.033,15.033,0,0,0-.29-2.955c12-.089,28.563-7.263,42.4-17.432,13.028-9.575,23.431-21.638,24.921-32.632Z" transform="translate(-213.894 -223.65)" fill="#fab433" fill-rule="evenodd"/>
          <path id="Trazado_29900" data-name="Trazado 29900" d="M225.412,280.986a49.3,49.3,0,0,1-11.518,1.448,14.53,14.53,0,0,0,.835-4.917,15.033,15.033,0,0,0-.29-2.955c12-.089,28.563-7.263,42.4-17.432a91.6,91.6,0,0,0,14.975-13.594,3.581,3.581,0,0,1,1.045,1.027c3.49,5.392-11.393,18.814-33.243,29.979C234.76,277.024,229.967,279.184,225.412,280.986Z" transform="translate(-213.894 -224.497)" fill="#fcc846" fill-rule="evenodd"/>
          <g id="Grupo_13041" data-name="Grupo 13041" transform="translate(1.694 11.317)">
            <path id="Trazado_29901" data-name="Trazado 29901" d="M274.449,243.454l.278.321,1.974,2.285a.228.228,0,0,1-.036.318.223.223,0,0,1-.317-.007l-1.975-2.285-.236-.272Z" transform="translate(-218.154 -235.81)" fill="#ac273d" fill-rule="evenodd"/>
            <path id="Trazado_29902" data-name="Trazado 29902" d="M276.811,240.556l.344.4,1.885,2.187a.228.228,0,0,1-.036.318.223.223,0,0,1-.317-.007l-1.885-2.186-.285-.331Z" transform="translate(-218.255 -235.687)" fill="#ac273d" fill-rule="evenodd"/>
            <path id="Trazado_29903" data-name="Trazado 29903" d="M278.68,237.984l.1.114,1.787,2.079a.229.229,0,0,1-.036.319.224.224,0,0,1-.318-.007l-1.786-2.079-.023-.027C278.5,238.25,278.588,238.117,278.68,237.984Z" transform="translate(-218.335 -235.577)" fill="#ac273d" fill-rule="evenodd"/>
            <path id="Trazado_29904" data-name="Trazado 29904" d="M260.888,256.111l.306.468,1.93,2.962a.235.235,0,0,1-.075.315.217.217,0,0,1-.31-.045l-1.93-2.962-.3-.451Z" transform="translate(-217.573 -236.349)" fill="#ac273d" fill-rule="evenodd"/>
            <path id="Trazado_29905" data-name="Trazado 29905" d="M263.4,254.111l2.051,3.15a.235.235,0,0,1-.074.315.218.218,0,0,1-.311-.045l-2.032-3.121Z" transform="translate(-217.681 -236.264)" fill="#ac273d" fill-rule="evenodd"/>
            <path id="Trazado_29906" data-name="Trazado 29906" d="M265.951,251.951l.284.435,1.855,2.854a.234.234,0,0,1-.075.314.217.217,0,0,1-.31-.045l-1.856-2.853-.257-.393Z" transform="translate(-217.79 -236.172)" fill="#ac273d" fill-rule="evenodd"/>
            <path id="Trazado_29907" data-name="Trazado 29907" d="M268.479,249.659c.191.257.376.506.551.738l1.984,2.651a.232.232,0,0,1-.056.317.22.22,0,0,1-.314-.026l-1.984-2.652c-.183-.243-.358-.477-.527-.7Z" transform="translate(-217.898 -236.074)" fill="#ac273d" fill-rule="evenodd"/>
            <path id="Trazado_29908" data-name="Trazado 29908" d="M248.044,264.721l.229.47,1.618,3.319a.242.242,0,0,1-.11.309.213.213,0,0,1-.3-.08l-1.616-3.319-.227-.464Z" transform="translate(-217.025 -236.716)" fill="#ac273d" fill-rule="evenodd"/>
            <path id="Trazado_29909" data-name="Trazado 29909" d="M250.557,263.225c.137.242.273.483.41.723l1.816,3.193a.237.237,0,0,1-.091.312.215.215,0,0,1-.306-.062l-1.815-3.192q-.208-.365-.414-.729Z" transform="translate(-217.132 -236.652)" fill="#ac273d" fill-rule="evenodd"/>
            <path id="Trazado_29910" data-name="Trazado 29910" d="M253.272,261.511c.123.216.245.433.368.646l1.809,3.18a.237.237,0,0,1-.092.312.215.215,0,0,1-.305-.062l-1.809-3.181q-.184-.32-.365-.641Z" transform="translate(-217.248 -236.579)" fill="#ac273d" fill-rule="evenodd"/>
            <path id="Trazado_29911" data-name="Trazado 29911" d="M255.936,259.727l.326.573,1.793,3.154a.238.238,0,0,1-.091.312.215.215,0,0,1-.306-.062l-1.792-3.154-.317-.557Z" transform="translate(-217.362 -236.503)" fill="#ac273d" fill-rule="evenodd"/>
            <path id="Trazado_29912" data-name="Trazado 29912" d="M235.246,271.044l.211.551,1.294,3.395a.245.245,0,0,1-.134.3.21.21,0,0,1-.29-.106l-1.294-3.393-.218-.573Z" transform="translate(-216.479 -236.985)" fill="#ac273d" fill-rule="evenodd"/>
            <path id="Trazado_29913" data-name="Trazado 29913" d="M237.677,270.009l.146.3,1.6,3.282a.241.241,0,0,1-.109.308.214.214,0,0,1-.3-.08l-1.6-3.282-.166-.34Z" transform="translate(-216.582 -236.941)" fill="#ac273d" fill-rule="evenodd"/>
            <path id="Trazado_29914" data-name="Trazado 29914" d="M240.59,268.666l.16.327,1.607,3.3a.24.24,0,0,1-.109.309.213.213,0,0,1-.3-.08l-1.607-3.3-.173-.354Z" transform="translate(-216.707 -236.884)" fill="#ac273d" fill-rule="evenodd"/>
            <path id="Trazado_29915" data-name="Trazado 29915" d="M243.45,267.238l.182.371,1.615,3.315a.242.242,0,0,1-.109.309.212.212,0,0,1-.3-.079l-1.615-3.316-.188-.385Z" transform="translate(-216.829 -236.823)" fill="#ac273d" fill-rule="evenodd"/>
            <path id="Trazado_29916" data-name="Trazado 29916" d="M221.294,275.259l.106.5.693,3.272a.248.248,0,0,1-.175.281.2.2,0,0,1-.267-.148l-.693-3.271-.117-.556C220.991,275.312,221.143,275.287,221.294,275.259Z" transform="translate(-215.884 -237.165)" fill="#ac273d" fill-rule="evenodd"/>
            <path id="Trazado_29917" data-name="Trazado 29917" d="M223.971,274.706l.079.248,1.027,3.256a.245.245,0,0,1-.149.294.206.206,0,0,1-.281-.122l-1.027-3.256-.1-.318Z" transform="translate(-215.998 -237.141)" fill="#ac273d" fill-rule="evenodd"/>
            <path id="Trazado_29918" data-name="Trazado 29918" d="M227.062,273.9l.168.53,1.052,3.329a.245.245,0,0,1-.149.294.206.206,0,0,1-.281-.121L226.8,274.6l-.183-.576Z" transform="translate(-216.13 -237.107)" fill="#ac273d" fill-rule="evenodd"/>
            <path id="Trazado_29919" data-name="Trazado 29919" d="M229.778,273.065l.064.168,1.26,3.309a.245.245,0,0,1-.134.3.211.211,0,0,1-.291-.106l-1.259-3.309-.083-.218Z" transform="translate(-216.245 -237.071)" fill="#ac273d" fill-rule="evenodd"/>
            <path id="Trazado_29920" data-name="Trazado 29920" d="M216.128,275.886l.624,2.968a.249.249,0,0,1-.175.281.2.2,0,0,1-.267-.148l-.647-3.077C215.817,275.9,215.972,275.895,216.128,275.886Z" transform="translate(-215.663 -237.192)" fill="#ac273d" fill-rule="evenodd"/>
            <path id="Trazado_29921" data-name="Trazado 29921" d="M218.88,275.63c.081.394.166.794.253,1.2.173.806.315,1.491.456,2.17.151.731.3,1.462.429,2.055a.248.248,0,0,1-.174.281.2.2,0,0,1-.267-.148c-.167-.779-.3-1.42-.432-2.057-.158-.765-.316-1.527-.453-2.168-.09-.416-.179-.845-.27-1.28Z" transform="translate(-215.78 -237.181)" fill="#ac273d" fill-rule="evenodd"/>
            <path id="Trazado_29922" data-name="Trazado 29922" d="M232.688,272.043c.184.489.368.974.551,1.45.295.77.572,1.5.848,2.234.283.752.567,1.5.84,2.215a.242.242,0,0,1-.133.3.208.208,0,0,1-.29-.105c-.294-.763-.568-1.491-.842-2.216-.286-.757-.573-1.515-.848-2.233-.191-.5-.378-.992-.564-1.482Z" transform="translate(-216.37 -237.028)" fill="#ac273d" fill-rule="evenodd"/>
            <path id="Trazado_29923" data-name="Trazado 29923" d="M245.9,265.933c.229.472.467.964.728,1.5.365.745.716,1.472,1.067,2.2s.716,1.481,1.068,2.2a.242.242,0,0,1-.11.309.213.213,0,0,1-.3-.08c-.366-.746-.717-1.473-1.068-2.2s-.716-1.481-1.067-2.2c-.225-.46-.471-.968-.728-1.5Z" transform="translate(-216.933 -236.768)" fill="#ac273d" fill-rule="evenodd"/>
            <path id="Trazado_29924" data-name="Trazado 29924" d="M258.364,258q.536.83,1.08,1.661c.432.659.869,1.334,1.306,2.009.426.657.851,1.313,1.284,1.973a.235.235,0,0,1-.076.315.218.218,0,0,1-.31-.046c-.427-.651-.856-1.314-1.284-1.974s-.863-1.333-1.3-2.007q-.539-.82-1.076-1.654Z" transform="translate(-217.466 -236.43)" fill="#ac273d" fill-rule="evenodd"/>
            <path id="Trazado_29925" data-name="Trazado 29925" d="M270.421,247.778c.421.489.831.964,1.209,1.4.532.611.971,1.119,1.4,1.618.5.583,1.013,1.176,1.408,1.629a.228.228,0,0,1-.035.318.224.224,0,0,1-.317,0c-.547-.627-.976-1.125-1.411-1.63-.5-.583-1-1.157-1.4-1.617-.422-.484-.814-.936-1.193-1.378Z" transform="translate(-217.981 -235.994)" fill="#ac273d" fill-rule="evenodd"/>
            <path id="Trazado_29926" data-name="Trazado 29926" d="M280.291,235.47c.3.351.612.717.921,1.081.369.435.738.869,1.137,1.333a.229.229,0,0,1-.037.319.224.224,0,0,1-.318-.008c-.362-.419-.751-.877-1.138-1.335-.272-.32-.544-.64-.822-.965Q280.164,235.683,280.291,235.47Z" transform="translate(-218.405 -235.47)" fill="#ac273d" fill-rule="evenodd"/>
            <path id="Trazado_29927" data-name="Trazado 29927" d="M272.412,245.723l.131.15,2.057,2.375a.228.228,0,0,1-.036.318.224.224,0,0,1-.317-.007l-2.056-2.373-.1-.119Z" transform="translate(-218.066 -235.907)" fill="#ac273d" fill-rule="evenodd"/>
          </g>
        </g>
        <g id="Grupo_13043" data-name="Grupo 13043" transform="translate(41.607)">
          <path id="Trazado_29928" data-name="Trazado 29928" d="M326.9,28.979a19.047,19.047,0,0,1,11.429,34.283,25.546,25.546,0,0,0-22.857,0A19.047,19.047,0,0,1,326.9,28.979Z" transform="translate(-259.503 -28.979)" fill="#e79c75" fill-rule="evenodd"/>
          <path id="Trazado_29929" data-name="Trazado 29929" d="M326.9,28.979a19,19,0,0,1,14.217,6.374,20.313,20.313,0,0,1-6.959,26.224,25.921,25.921,0,0,0-7.258-1.015,24.464,24.464,0,0,0-11.429,2.7A19.047,19.047,0,0,1,326.9,28.979Z" transform="translate(-259.503 -28.979)" fill="#ebae92" fill-rule="evenodd"/>
          <path id="Trazado_29930" data-name="Trazado 29930" d="M326.921,61.968c8.918,0,16.4,4.343,18.476,10.206-5.957.2-12.137.3-18.476.3s-12.519-.105-18.476-.3C310.517,66.311,318,61.968,326.921,61.968Z" transform="translate(-259.528 -30.384)" fill="#e79c75" fill-rule="evenodd"/>
          <path id="Trazado_29931" data-name="Trazado 29931" d="M343.247,72.745c-5.466,23.322,8.955,29.556,23.1,34.506,14.307,5.008,20.048,5.169,25,19.277,1.48,4.221.956,4.743-2.04,8.088-5.114,5.712-10.27,16.2-13.291,26.187C371,179.473,356.1,194.779,357.8,217.395c1.921,25.541,16.114,33.591,21.438,59.12,2.984,14.309,4.382,34.113,1.818,65.568-24.594,14.231-88.031,14.231-112.625,0-2.672-32.778-1.041-52.9,2.2-67.345,5.424-24.142,19.178-32.4,21.054-57.343,1.7-22.616-13.2-37.922-18.209-56.591-3.021-9.986-8.177-20.475-13.291-26.187-3-3.345-3.52-3.867-2.04-8.088,4.95-14.108,10.69-14.269,25-19.277,14.141-4.95,28.561-11.183,23.1-34.506Z" transform="translate(-257.352 -30.843)" fill="#ebae92" fill-rule="evenodd"/>
          <path id="Trazado_29932" data-name="Trazado 29932" d="M337.774,364.8v17.458h-21V364.8A138.593,138.593,0,0,0,337.774,364.8Z" transform="translate(-259.883 -43.283)" fill="#e58f60" fill-rule="evenodd"/>
          <path id="Trazado_29933" data-name="Trazado 29933" d="M337.774,364.8v7.563a138.593,138.593,0,0,1-21,0V364.8A138.593,138.593,0,0,0,337.774,364.8Z" transform="translate(-259.883 -43.283)" fill="#cd7e58" fill-rule="evenodd"/>
          <rect id="Rectángulo_2789" data-name="Rectángulo 2789" width="8.45" height="96.72" transform="translate(63.168 338.971)" fill="#e58f60"/>
          <path id="Trazado_29934" data-name="Trazado 29934" d="M331.39,484.053c4.774,2.519,8.187,9.209,8.187,17.07,0,7.052-2.749,13.164-6.761,16.165H321.568c-4.012-3-6.761-9.113-6.761-16.165,0-7.86,3.413-14.551,8.188-17.07Z" transform="translate(-259.799 -48.363)" fill="#cd7e58" fill-rule="evenodd"/>
          <path id="Trazado_29935" data-name="Trazado 29935" d="M319.569,515.418c-2.9-3.319-4.762-8.488-4.762-14.295,0-7.86,3.413-14.551,8.188-17.07h7.122a21.433,21.433,0,0,1,4.26,13.224c0,10.058-6.1,18.21-13.631,18.21A10.209,10.209,0,0,1,319.569,515.418Z" transform="translate(-259.799 -48.363)" fill="#e58f60" fill-rule="evenodd"/>
          <path id="Trazado_29936" data-name="Trazado 29936" d="M273.087,549.964h6.5c9.555,0,30.426-.341,36.33-15.942h18.308c5.9,15.6,26.775,15.942,36.329,15.942h6.5a8.237,8.237,0,0,1,8.1,8.319v1.967a8.545,8.545,0,0,1-.057.983H265.042a8.545,8.545,0,0,1-.057-.983v-1.967A8.236,8.236,0,0,1,273.087,549.964Z" transform="translate(-257.677 -50.491)" fill="#cd7e58" fill-rule="evenodd"/>
          <path id="Trazado_29937" data-name="Trazado 29937" d="M315.76,538.436a20.2,20.2,0,0,0,2.319-4.414h18.308a20.165,20.165,0,0,0,2.318,4.414Z" transform="translate(-259.84 -50.491)" fill="#ba7051" fill-rule="evenodd"/>
          <path id="Trazado_29938" data-name="Trazado 29938" d="M273.087,549.964h6.5c9.555,0,30.426-.341,36.33-15.942H331.1c-3.466,11.427-13.1,21.153-26.221,27.211H265.042a8.545,8.545,0,0,1-.057-.983v-1.967A8.236,8.236,0,0,1,273.087,549.964Z" transform="translate(-257.677 -50.491)" fill="#e58f60" fill-rule="evenodd"/>
          <path id="Trazado_29939" data-name="Trazado 29939" d="M315.76,538.436a20.2,20.2,0,0,0,2.319-4.414h15.18a34.5,34.5,0,0,1-1.682,4.414Z" transform="translate(-259.84 -50.491)" fill="#d8865c" fill-rule="evenodd"/>
          <path id="Trazado_29940" data-name="Trazado 29940" d="M318.913,518.766h16.354a6.549,6.549,0,0,1,6.5,6.564v1.552a6.548,6.548,0,0,1-6.5,6.563H318.913a6.548,6.548,0,0,1-6.5-6.563V525.33A6.549,6.549,0,0,1,318.913,518.766Z" transform="translate(-259.697 -49.841)" fill="#cd7e58" fill-rule="evenodd"/>
          <path id="Trazado_29941" data-name="Trazado 29941" d="M318.913,518.766h16.354c.168,0,.332.007.5.019,1.56,1.19,2.442,2.542,2.442,3.976,0,4.767-9.745,8.632-21.767,8.632q-1.153,0-2.278-.047a6.575,6.575,0,0,1-1.744-4.464V525.33A6.549,6.549,0,0,1,318.913,518.766Z" transform="translate(-259.697 -49.841)" fill="#e58f60" fill-rule="evenodd"/>
          <rect id="Rectángulo_2790" data-name="Rectángulo 2790" width="8.45" height="9.643" transform="translate(63.168 338.97)" fill="#cd7e58"/>
          <rect id="Rectángulo_2791" data-name="Rectángulo 2791" width="2.965" height="55.676" transform="translate(64.685 380.014)" fill="#e9a480"/>
          <path id="Trazado_29942" data-name="Trazado 29942" d="M324.617,485.86c2.5,0,4.182,3.653,3.756,8.16s-2.8,8.159-5.3,8.159-4.182-3.652-3.756-8.159S322.117,485.86,324.617,485.86Z" transform="translate(-259.989 -48.44)" fill="#e9a480" fill-rule="evenodd"/>
          <circle id="Elipse_1" data-name="Elipse 1" cx="11.095" cy="11.095" r="11.095" transform="translate(52.984 2.53)" fill="#e9bba3"/>
          <path id="Trazado_29943" data-name="Trazado 29943" d="M349.993,350.352a135.354,135.354,0,0,1-25.756,2.4c-18.642-.056-41.048-3.171-53.35-9.349l-.178-.091c-.315-.16-.624-.322-.931-.485l-.283-.151c-.36-.2-.715-.393-1.063-.594-2.664-32.683-1.05-52.787,2.175-67.219,5.417-24.239,19.2-32.487,21.082-57.468,1.7-22.616-13.2-37.922-18.209-56.591-3.021-9.986-8.177-20.475-13.291-26.187-3-3.345-3.52-3.867-2.04-8.088,4.95-14.108,10.69-14.269,25-19.277,14.141-4.95,28.561-11.183,23.1-34.506h14.665c-2.5,9.5-5.334,28.071.118,36.427,2.431,3.725,6.893,6.528,15.069,8.315,29.772,6.509,14.267,48.283,6.528,66.607-11.232,26.589-15.577,49.1-12.44,74.972C333.736,288.374,353.954,301.828,349.993,350.352Z" transform="translate(-257.352 -30.843)" fill="#e9bba3" fill-rule="evenodd"/>
        </g>
        <g id="Grupo_13045" data-name="Grupo 13045" transform="translate(44.879 74.775)">
          <path id="Trazado_29944" data-name="Trazado 29944" d="M270.07,395.765c-1.491-18.284-3.6-40.722-4.843-62.954l.023-.011a295.239,295.239,0,0,1-.358-29.82,155.82,155.82,0,0,1,3.356-27.214,82.265,82.265,0,0,1,5.808-16.9c2.129-4.581,4.6-8.953,6.942-13.424,4.681-8.946,7.511-16.585,8.278-26.78.731-9.735-1.77-18.243-5.689-27.03-3.008-6.744-6.625-13.232-9.45-20.056l-.356-1.175c3.355-5.8,4.825-14.015,3.59-23.12-1.751-12.912-8.455-24.028-16.6-29.029,4.712-6.507,10.977-7.8,20.815-11.174,8.683,8.582,24.825,14.35,43.305,14.35s34.623-5.767,43.305-14.35c4.553,1.563,8.341,2.681,11.564,4.074a20.546,20.546,0,0,1,8.871,7.338c-7.975,5.109-14.5,16.081-16.222,28.791-1.161,8.558.069,16.327,3.006,22.049-2.922,7.657-7.007,14.822-10.343,22.3-3.92,8.787-6.421,17.3-5.689,27.03.767,10.194,3.6,17.834,8.277,26.78,2.339,4.471,4.813,8.843,6.943,13.424a83.406,83.406,0,0,1,5.179,14.3H324.89V408.928c-20.23-.019-40.717-3.957-53.777-11.515l-.954-.551Z" transform="translate(-260.77 -107.081)" fill="#e44c7f" fill-rule="evenodd"/>
          <path id="Trazado_29945" data-name="Trazado 29945" d="M274.137,171.579h0l-.012-.041-.344-1.134c3.355-5.8,4.825-14.015,3.59-23.12-1.751-12.912-8.455-24.028-16.6-29.029,4.712-6.507,10.977-7.8,20.815-11.174,8.683,8.582,24.825,14.35,43.305,14.35q.429,0,.858,0h.014c.27,0,.539-.006.807-.011l.1,0q.375-.007.748-.018l.1,0c.267-.008.534-.017.8-.027h.036l.79-.034.084,0c.241-.011.482-.025.721-.038l.15-.009.677-.043.164-.011q.353-.024.7-.052l.128-.01.657-.055.23-.021c.19-.016.378-.034.567-.053l.3-.03.512-.054.3-.032c.182-.02.364-.04.545-.062l.288-.034.441-.055.455-.058.289-.038.532-.074.068-.01.247-.035.041-.007.439-.065.011,0,.245-.037.057-.009.431-.069.243-.039.034-.006q.714-.118,1.417-.247l.239-.045.479-.09.237-.047c11.621,11.711,19.791,24.833,15.7,35.847-1.9,5.111-8.737,9.994-11.965,13.427-28.061,29.839-32.348,68.3-11.243,104H324.89V408.928l-.949,0h-.008c-19.918-.142-39.966-4.074-52.821-11.512l-.954-.551-.089-1.1c-1.491-18.284-3.6-40.722-4.843-62.954l.023-.011a295.239,295.239,0,0,1-.358-29.82,155.82,155.82,0,0,1,3.356-27.214,82.265,82.265,0,0,1,5.808-16.9c2.129-4.581,4.6-8.953,6.942-13.424,4.681-8.946,7.511-16.585,8.278-26.78.731-9.735-1.77-18.243-5.689-27.03C280.579,184.89,276.962,178.4,274.137,171.579Z" transform="translate(-260.77 -107.081)" fill="#e55c8b" fill-rule="evenodd"/>
          <g id="Grupo_13044" data-name="Grupo 13044" transform="translate(13.233 8.981)">
            <path id="Trazado_29946" data-name="Trazado 29946" d="M328.282,124.591a.564.564,0,0,0-1.128-.026v5.667a.564.564,0,0,0,1.128.026v-5.667Zm-1.128,147.3a.564.564,0,0,0,1.128.026v-2.911a.564.564,0,0,0-1.128-.026v2.911Zm0-6.269a.564.564,0,0,0,1.128.025v-5.667a.564.564,0,0,0-1.128-.025v5.667Zm0-9.026a.564.564,0,0,0,1.128.026v-5.667a.564.564,0,0,0-1.128-.026V256.6Zm0-9.025a.564.564,0,0,0,1.128.025v-5.667a.564.564,0,0,0-1.128-.025v5.667Zm0-9.026a.564.564,0,0,0,1.128.026V232.9a.564.564,0,0,0-1.128-.026v5.667Zm0-9.026a.564.564,0,0,0,1.128.026v-5.667a.564.564,0,0,0-1.128-.025v5.666Zm0-9.025a.564.564,0,0,0,1.128.025v-5.666a.564.564,0,0,0-1.128-.026v5.667Zm0-9.026a.564.564,0,0,0,1.128.026v-5.667a.564.564,0,0,0-1.128-.026v5.667Zm0-9.025a.564.564,0,0,0,1.128.025V196.8a.564.564,0,0,0-1.128-.025v5.667Zm0-9.026a.564.564,0,0,0,1.128.026v-5.667a.564.564,0,0,0-1.128-.026v5.667Zm0-9.026a.564.564,0,0,0,1.128.026v-5.667a.564.564,0,0,0-1.128-.025v5.666Zm0-9.025a.564.564,0,0,0,1.128.025v-5.666a.564.564,0,0,0-1.128-.026v5.667Zm0-9.026a.564.564,0,0,0,1.128.026v-5.667a.564.564,0,0,0-1.128-.026v5.667Zm0-9.025a.564.564,0,0,0,1.128.025v-5.667a.564.564,0,0,0-1.128-.025v5.667Zm0-9.026a.564.564,0,0,0,1.128.026v-5.667a.564.564,0,0,0-1.128-.026v5.667Zm0-9.026a.564.564,0,0,0,1.128.026v-5.667a.564.564,0,0,0-1.128-.025Z" transform="translate(-276.831 -116.784)" fill="#9f3432" fill-rule="evenodd"/>
            <path id="Trazado_29947" data-name="Trazado 29947" d="M277.717,162.837a.564.564,0,0,0,.191,1.112c1.856-.329,3.7-.669,5.562-.969a.564.564,0,0,0-.063-1.12.6.6,0,0,0-.118.007q-2.792.448-5.571.971Zm95.406,1.083a.564.564,0,0,0,.267-1.094c-1.73-.42-3.85-.693-5.632-.982a.564.564,0,0,0-.178,1.114c1.852.3,3.7.615,5.543.962Zm-8.881-1.471a.564.564,0,0,0,.171-1.115c-1.869-.272-3.741-.514-5.615-.744a.556.556,0,0,0-.386.094.564.564,0,0,0,.25,1.025c1.864.232,3.72.473,5.58.74Zm-8.935-1.121a.565.565,0,0,0,.228-1.1.676.676,0,0,0-.108-.022c-1.876-.17-3.748-.375-5.628-.54a.564.564,0,0,0-.106,1.123c1.877.157,3.742.369,5.614.539Zm-8.971-.8a.564.564,0,0,0,.1-1.124c-1.882-.146-3.771-.244-5.656-.351a.564.564,0,0,0-.157,1.113.8.8,0,0,0,.1.014c1.872.121,3.744.226,5.618.348Zm-8.993-.5a.565.565,0,0,0,.178-1.106.6.6,0,0,0-.133-.021c-1.884-.076-3.765-.129-5.65-.172a.564.564,0,1,0-.023,1.128c1.877.043,3.751.1,5.628.171Zm-9.005-.221a.565.565,0,0,0,.016-1.129c-1.886,0-3.77-.024-5.658,0a.564.564,0,0,0,0,1.128c1.883,0,3.761-.016,5.646,0Zm-9.008.054a.564.564,0,0,0-.025-1.128q-2.823.057-5.65.174a.564.564,0,0,0,0,1.127c1.864-.01,3.792-.136,5.671-.173Zm-9,.33a.564.564,0,0,0,.03-1.124.689.689,0,0,0-.089,0c-1.879.1-3.765.215-5.642.354a.564.564,0,0,0,.033,1.127c1.855-.058,3.8-.259,5.669-.354Zm-8.986.619a.564.564,0,0,0-.038-1.126c-1.787.063-3.882.351-5.685.545a.564.564,0,0,0,.121,1.122q2.8-.3,5.6-.541Zm-8.957.924a.564.564,0,0,0-.129-1.121c-1.875.235-3.742.476-5.612.748a.564.564,0,0,0,.07,1.122l.093-.006Q289.589,162.063,292.384,161.727Z" transform="translate(-274.706 -118.259)" fill="#9f3432" fill-rule="evenodd"/>
            <path id="Trazado_29948" data-name="Trazado 29948" d="M375.906,287.558a.564.564,0,0,0-.2-1.112c-1.839.345-3.706.657-5.555.943a.564.564,0,0,0,.175,1.113c1.861-.287,3.723-.607,5.575-.945Zm-100.651-1.11a.564.564,0,0,0-.216,1.107c.614.117,1.235.223,1.851.329a.564.564,0,0,0,.25-1.1c-.6-.135-1.271-.228-1.884-.338Zm5.158.879a.564.564,0,0,0-.177,1.114q2.795.441,5.593.823a.564.564,0,0,0,.167-1.116c-1.865-.261-3.722-.528-5.583-.821Zm8.917,1.251a.564.564,0,0,0-.228,1.1.578.578,0,0,0,.092.019q2.8.343,5.618.628a.564.564,0,0,0,.17-1.113c-1.818-.274-3.8-.408-5.653-.635Zm8.958.946a.564.564,0,0,0-.1,1.124c1.877.162,3.761.284,5.634.448a.565.565,0,0,0,.3-1.066.579.579,0,0,0-.219-.06c-1.8-.212-3.783-.288-5.612-.446Zm8.984.662a.564.564,0,0,0-.157,1.113.559.559,0,0,0,.092.012c1.882.109,3.762.2,5.645.278a.565.565,0,0,0,.144-1.115.841.841,0,0,0-.1-.012c-1.876-.084-3.748-.168-5.624-.276Zm9,.393a.564.564,0,0,0-.033,1.128q2.826.076,5.651.113a.564.564,0,0,0,.1-1.12.687.687,0,0,0-.09-.009q-2.816-.033-5.63-.112Zm9.009.132a.564.564,0,0,0-.026,1.128c1.872.034,3.8-.013,5.676-.046a.564.564,0,0,0-.02-1.128q-2.815.049-5.63.046Zm9.009-.122a.565.565,0,0,0-.079,1.12.841.841,0,0,0,.111.008q2.822-.073,5.647-.208a.564.564,0,0,0-.041-1.127c-1.879.078-3.757.158-5.637.207Zm9-.38a.564.564,0,0,0,.057,1.127c1.884-.119,3.765-.23,5.647-.375a.565.565,0,0,0,.017-1.124.924.924,0,0,0-.1,0c-1.87.147-3.746.269-5.618.374Zm8.985-.65a.565.565,0,0,0,0,1.124.713.713,0,0,0,.1,0q2.815-.246,5.626-.551a.564.564,0,0,0-.111-1.123c-1.872.2-3.739.386-5.613.55Zm8.958-.932a.564.564,0,0,0,.128,1.121c1.874-.235,3.743-.471,5.612-.74a.565.565,0,0,0-.1-1.123C365.04,288.058,363.088,288.405,361.235,288.627Z" transform="translate(-274.592 -123.702)" fill="#9f3432" fill-rule="evenodd"/>
            <path id="Trazado_29949" data-name="Trazado 29949" d="M277.383,116.681a.564.564,0,0,0-.887.7l.675.875q.5.669.994,1.342c.545.762,1.094,1.536,1.606,2.32a.564.564,0,1,0,.939-.625c-.416-.639-.861-1.269-1.3-1.893l-.664-.92c-.336-.455-.675-.9-1.018-1.353l-.346-.443Zm24.546,286.554a.564.564,0,0,0,1.128.03c0-.726.015-1.493.037-2.217a.564.564,0,0,0-1.128-.033c-.018.739-.021,1.48-.037,2.22Zm.076-5.585a.564.564,0,0,0,1.128.026c.03-1.885.026-3.772.049-5.657a.564.564,0,0,0-1.128-.015c0,1.879-.034,3.766-.049,5.647Zm.074-9.025a.564.564,0,1,0,1.128.008l.038-5.641a.564.564,0,0,0-1.128-.014c0,1.88-.025,3.766-.038,5.648Zm.059-9.025a.564.564,0,0,0,1.129.014c0-1.881.022-3.766.034-5.649a.565.565,0,0,0-1.129-.014c0,1.882-.027,3.766-.034,5.649Zm.056-9.025a.564.564,0,0,0,1.128.014c0-1.881.019-3.767.034-5.649a.564.564,0,0,0-1.129-.014c0,1.882-.024,3.766-.033,5.649Zm.053-9.026a.564.564,0,0,0,1.128.014c0-1.881.022-3.766.033-5.648a.564.564,0,0,0-1.128-.014c0,1.881-.023,3.766-.034,5.648Zm.054-9.025a.564.564,0,0,0,1.128.014c0-1.881.022-3.766.035-5.649a.564.564,0,0,0-1.129-.008l-.034,5.642Zm.056-9.026a.565.565,0,0,0,1.129.015c0-1.88.023-3.767.039-5.649a.564.564,0,0,0-1.128-.015c0,1.881-.028,3.767-.04,5.649Zm.067-9.026a.564.564,0,0,0,1.128.016c0-1.878.03-3.767.053-5.647a.564.564,0,0,0-1.128-.031c-.046,1.878-.039,3.781-.053,5.661Zm.1-9.031a.564.564,0,0,0,1.128.032q.059-2.823.131-5.648a.564.564,0,0,0-1.128-.03c0,1.87-.1,3.768-.131,5.646Zm.21-9.026a.564.564,0,0,0,1.128.03c0-1.863.085-3.776.126-5.644a.564.564,0,0,0-1.128-.035q-.059,2.825-.126,5.65Zm.2-9.023a.564.564,0,0,0,1.128.034l.117-5.652a.565.565,0,0,0-1.129-.033l-.116,5.65Zm.181-9.023a.565.565,0,0,0,1.129.021l.1-5.642a.564.564,0,0,0-1.128-.029c-.039,1.882-.065,3.766-.1,5.65Zm.154-9.023a.564.564,0,0,0,1.128.035c.047-1.883.056-3.777.08-5.661a.564.564,0,0,0-1.128-.033c-.047,1.881-.052,3.775-.08,5.658Zm.12-9.024a.565.565,0,0,0,1.121.1.672.672,0,0,0,.008-.089q.029-2.821.054-5.643a.564.564,0,0,0-1.129-.015c0,1.879-.034,3.766-.054,5.646Zm.078-9.023a.564.564,0,0,0,1.128.014c0-1.883.017-3.768.022-5.652a.565.565,0,0,0-1.129-.02c-.023,1.883-.011,3.774-.021,5.657Zm.023-9.022a.565.565,0,0,0,1.119.1.884.884,0,0,0,.01-.1q0-2.822-.016-5.644a.565.565,0,0,0-1.12-.1.728.728,0,0,0-.009.1q.014,2.819.016,5.639Zm-.039-9.022a.564.564,0,0,0,1.125.051l0-.061q-.023-2.822-.061-5.644a.565.565,0,0,0-1.127-.041c-.064,1.821.045,3.849.06,5.7Zm-.115-9.021a.564.564,0,0,0,1.129-.02q-.046-2.822-.116-5.643a.565.565,0,0,0-1.122-.073.847.847,0,0,0-.006.1q.067,2.818.115,5.636Zm-.2-9.018a.564.564,0,0,0,1.128-.032q-.079-2.822-.179-5.643a.564.564,0,1,0-1.127.041q.1,2.816.178,5.633Zm-.306-9.013a.565.565,0,0,0,1.128,0c-.011-1.845-.161-3.828-.253-5.683a.564.564,0,0,0-1.128.038c.07,1.88.176,3.766.253,5.649ZM302.4,217.2a.564.564,0,0,0,1.127-.056c-.118-1.88-.216-3.763-.338-5.644a.564.564,0,0,0-1.127.049c.082,1.875.235,3.772.338,5.651Zm-.568-9a.564.564,0,0,0,1.126-.012v-.069q-.2-2.816-.438-5.631a.564.564,0,0,0-1.126.038c.064,1.829.307,3.825.439,5.675Zm-.733-8.984a.564.564,0,0,0,1.124-.1q-.26-2.813-.555-5.621a.564.564,0,0,0-1.122,0,.607.607,0,0,0,0,.118q.294,2.8.553,5.607Zm-.925-8.964a.564.564,0,0,0,1.121-.124c-.234-1.873-.453-3.743-.694-5.615a.564.564,0,0,0-1.118.15c.259,1.854.475,3.729.691,5.589Zm-1.153-8.936a.565.565,0,0,0,1.123-.069l-.007-.093q-.4-2.8-.856-5.587a.564.564,0,0,0-1.114.18c.341,1.815.591,3.736.854,5.569Zm-1.42-8.9a.564.564,0,0,0,1.112-.2q-.49-2.783-1.05-5.557a.565.565,0,0,0-1.115.157l.01.068q.556,2.756,1.045,5.529Zm-1.736-8.833a.564.564,0,0,0,1.1-.243q-.606-2.766-1.28-5.509a.564.564,0,0,0-1.106.218c.363,1.815.884,3.7,1.284,5.534Zm-2.115-8.748a.565.565,0,0,0,1.1-.243c-.4-1.769-1.037-3.742-1.568-5.492a.564.564,0,0,0-1.079.33q.817,2.69,1.546,5.4Zm-2.567-8.616a.564.564,0,0,0,1.074-.346c-.589-1.8-1.226-3.585-1.895-5.353a.564.564,0,0,0-1.058.392c.663,1.759,1.284,3.523,1.878,5.307Zm-3.112-8.431a.564.564,0,0,0,1.072-.337.677.677,0,0,0-.029-.092c-.717-1.751-1.487-3.475-2.292-5.186a.564.564,0,1,0-1.02.483c.8,1.694,1.559,3.4,2.268,5.132Zm-3.763-8.145a.564.564,0,0,0,1-.522c-.869-1.679-1.793-3.338-2.772-4.956a.565.565,0,0,0-1.007.5.716.716,0,0,0,.045.09C282.539,126.342,283.451,128,284.305,129.646Z" transform="translate(-274.668 -116.462)" fill="#9f3432" fill-rule="evenodd"/>
            <path id="Trazado_29950" data-name="Trazado 29950" d="M377.734,117.378a.564.564,0,0,0-.866-.722,54.77,54.77,0,0,0-3.348,4.634.565.565,0,0,0,.9.683l.043-.057c1.027-1.558,2.128-3.066,3.275-4.537ZM349.687,277.5a.565.565,0,0,0,1.125.057l0-.069-.024-2.8a.565.565,0,0,0-1.129-.006c0,.939.016,1.881.025,2.821Zm-.048-6.193a.564.564,0,0,0,1.119.1.715.715,0,0,0,.01-.1q-.016-2.819-.022-5.639a.564.564,0,0,0-1.125-.059l0,.061q.007,2.822.022,5.644Zm-.024-9.029a.565.565,0,0,0,1.129.019c.023-1.882.007-3.774.016-5.657a.564.564,0,0,0-1.128-.013c0,1.883-.017,3.767-.017,5.652Zm.04-9.031a.564.564,0,0,0,1.128.017c0-1.877.034-3.767.062-5.645a.565.565,0,0,0-1.129-.034c-.046,1.874-.061,3.787-.061,5.662Zm.114-9.03a.564.564,0,0,0,1.128.032c.039-1.883.071-3.766.116-5.648a.565.565,0,0,0-1.11-.158.64.64,0,0,0-.018.131q-.066,2.821-.116,5.643Zm.2-9.029a.564.564,0,0,0,1.128.032q.079-2.816.178-5.634a.564.564,0,0,0-1.1-.191.642.642,0,0,0-.026.15q-.1,2.822-.179,5.643Zm.306-9.028a.564.564,0,0,0,1.122.1l.006-.057q.115-2.816.252-5.631a.564.564,0,1,0-1.127-.056q-.138,2.821-.253,5.64Zm.428-9.024a.565.565,0,0,0,1.114.155.593.593,0,0,0,.012-.093q.154-2.812.337-5.625a.565.565,0,0,0-1.112-.17.74.74,0,0,0-.014.1q-.187,2.816-.338,5.637Zm.57-9.018a.564.564,0,0,0,1.125.088c.117-1.871.281-3.755.438-5.624a.564.564,0,0,0-1.125-.095c-.156,1.874-.313,3.755-.438,5.63Zm.734-9.007a.564.564,0,0,0,1.124.1c.168-1.865.344-3.744.553-5.606a.565.565,0,0,0-1.1-.236.755.755,0,0,0-.025.116c-.2,1.871-.386,3.748-.555,5.622Zm.929-8.991a.564.564,0,0,0,1.118.145c.234-1.868.446-3.736.693-5.6a.564.564,0,0,0-1.117-.156c-.234,1.873-.477,3.74-.694,5.615Zm1.156-8.967a.564.564,0,0,0,1.115.171c.272-1.861.551-3.719.855-5.575a.564.564,0,0,0-1.113-.184q-.455,2.789-.857,5.587Zm1.426-8.932a.565.565,0,0,0,1.079.311.836.836,0,0,0,.033-.113c.328-1.846.669-3.693,1.044-5.529a.564.564,0,0,0-1.016-.435.579.579,0,0,0-.09.209c-.374,1.847-.719,3.7-1.049,5.557Zm1.745-8.877a.564.564,0,1,0,1.1.24c.4-1.829.82-3.662,1.273-5.477a.565.565,0,0,0-1.1-.275c-.456,1.828-.883,3.671-1.28,5.512Zm2.127-8.8a.559.559,0,0,0,.143.544.565.565,0,0,0,.946-.249c.486-1.8.991-3.62,1.547-5.4a.565.565,0,0,0-1.038-.432.763.763,0,0,0-.041.1c-.552,1.8-1.067,3.621-1.557,5.443Zm2.587-8.681a.564.564,0,0,0,1.067.365c.573-1.777,1.218-3.556,1.877-5.3a.564.564,0,1,0-1.054-.4q-1,2.652-1.89,5.338Zm3.139-8.5a.564.564,0,0,0,1.028.462c.772-1.725,1.464-3.446,2.281-5.161a.564.564,0,0,0-1.007-.507c-.831,1.661-1.592,3.487-2.3,5.206Zm3.806-8.238a.564.564,0,0,0,1,.525c.867-1.662,1.769-3.286,2.737-4.892a.564.564,0,1,0-.965-.584C370.716,125.8,369.8,127.44,368.925,129.122Z" transform="translate(-277.788 -116.462)" fill="#9f3432" fill-rule="evenodd"/>
          </g>
        </g>
        <g id="Grupo_13047" data-name="Grupo 13047" transform="translate(64.973 180.044)">
          <path id="Trazado_29951" data-name="Trazado 29951" d="M281.786,217.033h88.24a26.48,26.48,0,0,0,.028,7.9h-88.3a26.48,26.48,0,0,0,.028-7.9Z" transform="translate(-281.758 -217.033)" fill="#fab433" fill-rule="evenodd"/>
          <path id="Trazado_29952" data-name="Trazado 29952" d="M281.786,217.033h85.079a1.393,1.393,0,0,1,.045.33c0,3-10.034,5.7-26,7.568H281.758a26.48,26.48,0,0,0,.028-7.9Z" transform="translate(-281.758 -217.033)" fill="#fcc846" fill-rule="evenodd"/>
          <g id="Grupo_13046" data-name="Grupo 13046" transform="translate(2.248)">
            <path id="Trazado_29953" data-name="Trazado 29953" d="M284.558,217.033v4.055a.226.226,0,0,1-.452,0v-4.055Z" transform="translate(-284.106 -217.033)" fill="#ac273d" fill-rule="evenodd"/>
            <path id="Trazado_29954" data-name="Trazado 29954" d="M299.087,217.033v4.055a.226.226,0,1,1-.452,0v-4.055Z" transform="translate(-284.725 -217.033)" fill="#ac273d" fill-rule="evenodd"/>
            <path id="Trazado_29955" data-name="Trazado 29955" d="M313.65,217.033v4.055a.226.226,0,0,1-.452,0v-4.055Z" transform="translate(-285.345 -217.033)" fill="#ac273d" fill-rule="evenodd"/>
            <path id="Trazado_29956" data-name="Trazado 29956" d="M328.178,217.033v4.055a.225.225,0,1,1-.451,0v-4.055Z" transform="translate(-285.964 -217.033)" fill="#ac273d" fill-rule="evenodd"/>
            <path id="Trazado_29957" data-name="Trazado 29957" d="M342.775,217.033v4.055a.225.225,0,1,1-.451,0v-4.055Z" transform="translate(-286.586 -217.033)" fill="#ac273d" fill-rule="evenodd"/>
            <path id="Trazado_29958" data-name="Trazado 29958" d="M357.3,217.033v4.055a.225.225,0,1,1-.451,0v-4.055Z" transform="translate(-287.205 -217.033)" fill="#ac273d" fill-rule="evenodd"/>
            <path id="Trazado_29959" data-name="Trazado 29959" d="M371.8,217.033v4.055a.226.226,0,0,1-.452,0v-4.055Z" transform="translate(-287.822 -217.033)" fill="#ac273d" fill-rule="evenodd"/>
            <path id="Trazado_29960" data-name="Trazado 29960" d="M287.2,217.033v2.324a.226.226,0,0,1-.452,0v-2.324Z" transform="translate(-284.219 -217.033)" fill="#ac273d" fill-rule="evenodd"/>
            <path id="Trazado_29961" data-name="Trazado 29961" d="M290.274,217.033v2.324a.225.225,0,0,1-.451,0v-2.324Z" transform="translate(-284.349 -217.033)" fill="#ac273d" fill-rule="evenodd"/>
            <path id="Trazado_29962" data-name="Trazado 29962" d="M293.353,217.033v2.324a.225.225,0,0,1-.451,0v-2.324Z" transform="translate(-284.481 -217.033)" fill="#ac273d" fill-rule="evenodd"/>
            <path id="Trazado_29963" data-name="Trazado 29963" d="M296.426,217.033v2.324a.225.225,0,0,1-.451,0v-2.324Z" transform="translate(-284.612 -217.033)" fill="#ac273d" fill-rule="evenodd"/>
            <path id="Trazado_29964" data-name="Trazado 29964" d="M301.458,217.033v2.324a.225.225,0,0,1-.451,0v-2.324Z" transform="translate(-284.826 -217.033)" fill="#ac273d" fill-rule="evenodd"/>
            <path id="Trazado_29965" data-name="Trazado 29965" d="M304.531,217.033v2.324a.226.226,0,0,1-.452,0v-2.324Z" transform="translate(-284.957 -217.033)" fill="#ac273d" fill-rule="evenodd"/>
            <path id="Trazado_29966" data-name="Trazado 29966" d="M307.61,217.033v2.324a.226.226,0,0,1-.452,0v-2.324Z" transform="translate(-285.088 -217.033)" fill="#ac273d" fill-rule="evenodd"/>
            <path id="Trazado_29967" data-name="Trazado 29967" d="M310.682,217.033v2.324a.225.225,0,0,1-.451,0v-2.324Z" transform="translate(-285.219 -217.033)" fill="#ac273d" fill-rule="evenodd"/>
            <path id="Trazado_29968" data-name="Trazado 29968" d="M316.294,217.033v2.324a.226.226,0,0,1-.452,0v-2.324Z" transform="translate(-285.458 -217.033)" fill="#ac273d" fill-rule="evenodd"/>
            <path id="Trazado_29969" data-name="Trazado 29969" d="M319.366,217.033v2.324a.225.225,0,0,1-.451,0v-2.324Z" transform="translate(-285.589 -217.033)" fill="#ac273d" fill-rule="evenodd"/>
            <path id="Trazado_29970" data-name="Trazado 29970" d="M322.445,217.033v2.324a.225.225,0,0,1-.451,0v-2.324Z" transform="translate(-285.72 -217.033)" fill="#ac273d" fill-rule="evenodd"/>
            <path id="Trazado_29971" data-name="Trazado 29971" d="M325.518,217.033v2.324a.226.226,0,0,1-.452,0v-2.324Z" transform="translate(-285.851 -217.033)" fill="#ac273d" fill-rule="evenodd"/>
            <path id="Trazado_29972" data-name="Trazado 29972" d="M330.55,217.033v2.324a.225.225,0,0,1-.451,0v-2.324Z" transform="translate(-286.065 -217.033)" fill="#ac273d" fill-rule="evenodd"/>
            <path id="Trazado_29973" data-name="Trazado 29973" d="M333.623,217.033v2.324a.226.226,0,0,1-.452,0v-2.324Z" transform="translate(-286.196 -217.033)" fill="#ac273d" fill-rule="evenodd"/>
            <path id="Trazado_29974" data-name="Trazado 29974" d="M336.7,217.033v2.324a.226.226,0,0,1-.452,0v-2.324Z" transform="translate(-286.327 -217.033)" fill="#ac273d" fill-rule="evenodd"/>
            <path id="Trazado_29975" data-name="Trazado 29975" d="M339.774,217.033v2.324a.225.225,0,0,1-.451,0v-2.324Z" transform="translate(-286.458 -217.033)" fill="#ac273d" fill-rule="evenodd"/>
            <path id="Trazado_29976" data-name="Trazado 29976" d="M345.794,217.033v2.324a.225.225,0,0,1-.451,0v-2.324Z" transform="translate(-286.714 -217.033)" fill="#ac273d" fill-rule="evenodd"/>
            <path id="Trazado_29977" data-name="Trazado 29977" d="M348.867,217.033v2.324a.226.226,0,0,1-.452,0v-2.324Z" transform="translate(-286.845 -217.033)" fill="#ac273d" fill-rule="evenodd"/>
            <path id="Trazado_29978" data-name="Trazado 29978" d="M351.946,217.033v2.324a.226.226,0,0,1-.452,0v-2.324Z" transform="translate(-286.976 -217.033)" fill="#ac273d" fill-rule="evenodd"/>
            <path id="Trazado_29979" data-name="Trazado 29979" d="M355.018,217.033v2.324a.225.225,0,0,1-.451,0v-2.324Z" transform="translate(-287.107 -217.033)" fill="#ac273d" fill-rule="evenodd"/>
            <path id="Trazado_29980" data-name="Trazado 29980" d="M360.05,217.033v2.324a.225.225,0,0,1-.451,0v-2.324Z" transform="translate(-287.322 -217.033)" fill="#ac273d" fill-rule="evenodd"/>
            <path id="Trazado_29981" data-name="Trazado 29981" d="M363.123,217.033v2.324a.225.225,0,0,1-.451,0v-2.324Z" transform="translate(-287.452 -217.033)" fill="#ac273d" fill-rule="evenodd"/>
            <path id="Trazado_29982" data-name="Trazado 29982" d="M366.2,217.033v2.324a.225.225,0,0,1-.451,0v-2.324Z" transform="translate(-287.584 -217.033)" fill="#ac273d" fill-rule="evenodd"/>
            <path id="Trazado_29983" data-name="Trazado 29983" d="M369.275,217.033v2.324a.225.225,0,0,1-.451,0v-2.324Z" transform="translate(-287.715 -217.033)" fill="#ac273d" fill-rule="evenodd"/>
          </g>
        </g>
      </g>
    </g>
    <g id="Grupo_13051" data-name="Grupo 13051" transform="translate(146.052 169.797)">
      <path id="Trazado_29984" data-name="Trazado 29984" d="M228.853,516.513H195.439q1.62,14.381,3.241,28.763a7.819,7.819,0,0,1-6.243,0q-20.762-184.224-41.524-368.445a7.7,7.7,0,0,1,6.244,0L160.4,205.6h33.414q-1.62-14.383-3.241-28.763a6.711,6.711,0,0,1,6.243,0l41.524,368.445a7.2,7.2,0,0,1-6.244,0l-3.242-28.763Zm-34.078-5.885h33.415l-5.067-44.954H189.709l5.067,44.954Zm-.3-299.149H161.061l5.067,44.954h33.415l-5.067-44.954Zm5.73,50.839H166.792l5.066,44.954h33.415l-5.066-44.954Zm5.729,50.838H172.521l5.067,44.955H211l-5.066-44.955ZM211.665,364H178.251l5.066,44.954h33.415L211.665,364Zm5.729,50.839H183.98l5.066,44.954h33.415Z" transform="translate(-150.913 -176.062)" fill="#8c746e" fill-rule="evenodd"/>
      <path id="Trazado_29985" data-name="Trazado 29985" d="M299.533,258.386s5.191-7.2,6.069-9.051a7.239,7.239,0,0,0-1.094-6.722c-1.392-.987-1.1-5.373-.65-7.751.728-3.84-1.089-3.373-2.188-.647-1.915,4.753-6.574,19.089-5.816,23.344A5.112,5.112,0,0,0,299.533,258.386Z" transform="translate(-157.083 -178.448)" fill="#fea682" fill-rule="evenodd"/>
      <path id="Trazado_29986" data-name="Trazado 29986" d="M245.641,319.326c33.364,11.186,55.615-50.535,51.792-59.864-.887-.652-4.418-1.983-5.335-1.494-5.118,8.557-19.505,26.03-31.232,30.419-8.2,3.07-18.83-6.672-26.5,5.961C229.04,303.13,233.109,315.124,245.641,319.326Z" transform="translate(-154.37 -179.546)" fill="#152d83" fill-rule="evenodd"/>
      <path id="Trazado_29987" data-name="Trazado 29987" d="M245.641,320.651c.84.282,1.67.506,2.495.7,3.01-11.007,6.282-25.158-2.49-32.353-4.024-.084-7.931,1.168-11.275,6.679C229.04,304.457,233.109,316.45,245.641,320.651Z" transform="translate(-154.37 -180.872)" fill="#202d5a" fill-rule="evenodd"/>
      <path id="Trazado_29988" data-name="Trazado 29988" d="M287.555,268.954c-7.28,8.791-17.005,17.882-25.231,20.979a12.819,12.819,0,0,1-1.988.567c-10.627,2.141-1.7,43.017,22.655,4.461a95.207,95.207,0,0,0,10.323-22.435C295.884,264.16,294.02,261.148,287.555,268.954Z" transform="translate(-155.386 -179.826)" fill="#123c90" fill-rule="evenodd"/>
      <path id="Trazado_29989" data-name="Trazado 29989" d="M298.846,261.476a1.175,1.175,0,1,1-1.063,1.045A1.064,1.064,0,0,1,298.846,261.476Z" transform="translate(-157.169 -179.7)" fill="#6f4e61" fill-rule="evenodd"/>
      <path id="Trazado_29990" data-name="Trazado 29990" d="M200.217,466.863h9.036a11.465,11.465,0,0,1,.683-6.5H200.9A7.757,7.757,0,0,1,200.217,466.863Z" transform="translate(-153.013 -188.171)" fill="#feceb4" fill-rule="evenodd"/>
      <path id="Trazado_29991" data-name="Trazado 29991" d="M199.832,466.169c1.616,0,3.208.174,4.657.23,1.464-.055,3.108-.23,4.724-.23,2.284,0,3.9,1.632,3.6,3.645a3.642,3.642,0,0,1-.471,1.315h-17.1a3.068,3.068,0,0,1-.085-1.315A4.681,4.681,0,0,1,199.832,466.169Z" transform="translate(-152.796 -188.419)" fill="#0d50a4" fill-rule="evenodd"/>
      <path id="Trazado_29992" data-name="Trazado 29992" d="M195.638,472.43h15.993a.83.83,0,0,0,.792-.69l.056-.39H195.105l-.056.39A.584.584,0,0,0,195.638,472.43Z" transform="translate(-152.793 -188.639)" fill="#202d5a" fill-rule="evenodd"/>
      <path id="Trazado_29993" data-name="Trazado 29993" d="M205.157,470.957c1.908,0,3.732.064,5.463.172h1.853a3.642,3.642,0,0,0,.471-1.315c.294-2.012-1.318-3.645-3.6-3.645-1.616,0-3.26.174-4.724.23-1.449-.055-3.041-.23-4.657-.23a4.99,4.99,0,0,0-1.827.352C198.862,469.1,201.607,470.957,205.157,470.957Z" transform="translate(-152.924 -188.419)" fill="#152d83" fill-rule="evenodd"/>
      <path id="Trazado_29994" data-name="Trazado 29994" d="M213.825,455.988c-1,1.158-14.7.883-15.7-.143-1.761-13.191-.153-24.256.574-39.887.63-13.558,2.425-31.861,5.1-43.6,5.357-23.53,32.7-26.277,29.7,1.361C230.762,398.949,221.845,432.72,213.825,455.988Z" transform="translate(-152.89 -183.634)" fill="#cf035c" fill-rule="evenodd"/>
      <path id="Trazado_29995" data-name="Trazado 29995" d="M216.321,421.41c.949-3.9,1.856-7.856,2.686-11.836,3.272-15.71-16.7-15.02-18.073-1.482-.528,5.2-.926,10.423-1.168,15.641C197.445,473.591,207.25,458.714,216.321,421.41Z" transform="translate(-152.979 -185.509)" fill="#d7206b" fill-rule="evenodd"/>
      <path id="Trazado_29996" data-name="Trazado 29996" d="M181.729,413.913h9.035a11.475,11.475,0,0,1,.684-6.5h-9.036A7.757,7.757,0,0,1,181.729,413.913Z" transform="translate(-152.226 -185.916)" fill="#feceb4" fill-rule="evenodd"/>
      <path id="Trazado_29997" data-name="Trazado 29997" d="M181.343,413.22c1.617,0,3.209.173,4.658.23,1.464-.056,3.107-.23,4.724-.23,2.283,0,3.9,1.631,3.6,3.644a3.664,3.664,0,0,1-.471,1.316h-17.1a3.087,3.087,0,0,1-.086-1.316A4.682,4.682,0,0,1,181.343,413.22Z" transform="translate(-152.009 -186.163)" fill="#0d50a4" fill-rule="evenodd"/>
      <path id="Trazado_29998" data-name="Trazado 29998" d="M177.15,419.481h15.992a.831.831,0,0,0,.792-.691l.057-.389H176.617l-.056.389A.584.584,0,0,0,177.15,419.481Z" transform="translate(-152.005 -186.384)" fill="#202d5a" fill-rule="evenodd"/>
      <path id="Trazado_29999" data-name="Trazado 29999" d="M186.669,418.007c1.908,0,3.732.064,5.463.173h1.853a3.664,3.664,0,0,0,.471-1.316c.294-2.012-1.319-3.644-3.6-3.644-1.617,0-3.26.173-4.724.23-1.449-.056-3.041-.23-4.658-.23a4.968,4.968,0,0,0-1.826.352C180.374,416.154,183.119,418.007,186.669,418.007Z" transform="translate(-152.137 -186.163)" fill="#152d83" fill-rule="evenodd"/>
      <path id="Trazado_30000" data-name="Trazado 30000" d="M192.746,405.012c-1,1.159-14.7.884-15.7-.143-6.055-22.2-9.2-38.874-9.664-51.009-.855-22.182,29.589-26.124,28.7,6.386C195.625,377.212,195.614,391.663,192.746,405.012Z" transform="translate(-151.614 -182.897)" fill="#df356e" fill-rule="evenodd"/>
      <path id="Trazado_30001" data-name="Trazado 30001" d="M187.72,399.2c1.4-9.4.215-13.2-3.95-22.158-5.924-12.734-15.127-24.591-13.3-10.161a252.217,252.217,0,0,0,6.458,31.538C178.745,405.375,186.806,405.329,187.72,399.2Z" transform="translate(-151.736 -183.908)" fill="#e55b8a" fill-rule="evenodd"/>
      <path id="Trazado_30002" data-name="Trazado 30002" d="M197.109,346.853c-.572,12.622-.572,23.878-1.113,34.24-6.167-4.2-11.183-9.777-13.283-16.937-3.135-10.686,2.64-20.09,7.352-20.391C192.222,343.627,194.605,345,197.109,346.853Z" transform="translate(-152.23 -183.204)" fill="#cf035c" fill-rule="evenodd"/>
      <path id="Trazado_30003" data-name="Trazado 30003" d="M237.069,362.164a12.431,12.431,0,0,1-.921,8.354c-3.381,7.686-11.173,12.076-24.139,10.993-12.4-1.035-25.65-5.812-29.434-17.864-3.135-9.979-6.327-25.725-1.613-27.088a14.323,14.323,0,0,1,5.133.629C198.793,341.315,235.137,354.907,237.069,362.164Z" transform="translate(-152.091 -182.897)" fill="#df356e" fill-rule="evenodd"/>
      <path id="Trazado_30004" data-name="Trazado 30004" d="M211.779,368.631c12.551,3.006,28.1,1.106,26.805-6.577-3.075-18.249.062-29.686,3.446-38.475,5.391-14,12.1-33.421-8.21-36.919-5.232-.9-14.977.063-19.252,3.338-10.683,8.182-11.812,22.344-17.178,37.226-1.223,3.39-7.618,9.852-8.565,12.827C184.453,353.787,199.009,365.573,211.779,368.631Z" transform="translate(-152.494 -180.759)" fill="#152d83" fill-rule="evenodd"/>
      <path id="Trazado_30005" data-name="Trazado 30005" d="M211.774,293c-7.85,8.4-9.264,21.107-14.055,34.393a15.547,15.547,0,0,1-1.946,3.336,47.4,47.4,0,0,0,5.274-1.542c24.557-8.7,28.44-31.426,20.926-37.84C219.561,289.285,215.8,290.544,211.774,293Z" transform="translate(-152.824 -180.928)" fill="#513946" fill-rule="evenodd"/>
      <path id="Trazado_30006" data-name="Trazado 30006" d="M230.889,286.367c-5.383-.226-12.755.9-16.322,3.63-10.683,8.182-11.812,22.344-17.178,37.226-1.223,3.39-7.618,9.852-8.565,12.827-3.354,10.539,4.432,19.928,14,25.111,13.243-8.731,24.618-27.729,28.353-49.766A76.3,76.3,0,0,0,230.889,286.367Z" transform="translate(-152.494 -180.759)" fill="#123c90" fill-rule="evenodd"/>
      <path id="Trazado_30007" data-name="Trazado 30007" d="M191.932,337.276a20.684,20.684,0,0,0-3.108,4.871c-2.414,7.586.943,14.574,6.582,19.828C210.011,358.7,219.225,328.2,191.932,337.276Z" transform="translate(-152.494 -182.857)" fill="#0d50a4" fill-rule="evenodd"/>
      <path id="Trazado_30008" data-name="Trazado 30008" d="M211.774,293c-7.85,8.4-9.264,21.107-14.055,34.393a15.547,15.547,0,0,1-1.946,3.336,47.4,47.4,0,0,0,5.274-1.542c24.557-8.7,28.44-31.426,20.926-37.84C219.561,289.285,215.8,290.544,211.774,293Z" transform="translate(-152.824 -180.928)" fill="#202d5a" fill-rule="evenodd"/>
      <path id="Trazado_30009" data-name="Trazado 30009" d="M164.559,275.373a4.87,4.87,0,0,0,6.544,2.776.733.733,0,0,1,1.046.478c.406,1.274-.879,1.988-1.572,3.027-.845,1.271-1.656,2.708.329,5.026-.033.732-4.438,3.664-6.476,3.194-3.075-1.869-9.709-7.135-6.792-12.059C160.555,273.137,162.213,269.269,164.559,275.373Z" transform="translate(-151.169 -180.158)" fill="#febea0" fill-rule="evenodd"/>
      <path id="Trazado_30010" data-name="Trazado 30010" d="M164.3,290.5a15.546,15.546,0,0,1,6.9-3.483c1.087,2.767,11.207,19.005,22.938,14.3,5.7-2.284,20.4-16.454,26.486-10.531,7.514,7.313,3.63,29.578-20.926,35.342C166.357,333.96,163.089,298.917,164.3,290.5Z" transform="translate(-151.474 -180.788)" fill="#123c90" fill-rule="evenodd"/>
      <path id="Trazado_30011" data-name="Trazado 30011" d="M173.419,310.381c8.642,15.89,32.343,11.474,41.11-.945,6.06-8.588,3.139-21.028-8.639-13.4-1.956,1.268-3.853,2.619-5.78,3.931a29.233,29.233,0,0,1-5.118,3.008,13.976,13.976,0,0,1-8.44.678,19.416,19.416,0,0,1-7.5-3.72C169.1,292.242,169.341,302.883,173.419,310.381Z" transform="translate(-151.759 -181.071)" fill="#0d50a4" fill-rule="evenodd"/>
      <path id="Trazado_30012" data-name="Trazado 30012" d="M247.485,260.458c1.028,4.146-1.125,12.227-2.194,14.8-1.543,3.707-3.408,4.857-6.527,4.606-4.292-.345-7.969-5.3-7.474-11.462.573-7.138,3.209-11.988,10.814-11.155C244.628,257.52,246.994,258.477,247.485,260.458Z" transform="translate(-154.335 -179.516)" fill="#feceb4" fill-rule="evenodd"/>
      <path id="Trazado_30013" data-name="Trazado 30013" d="M230.119,264.7a1.514,1.514,0,0,0,2.086-1.056c.492-1.682-1.068-3.731.423-5.036,1.014-.888,4.558-.9,6.995.423,4.931,1.951,5.467-2.133,3.961-5.468-11.071,2.04-17.135.2-16.218,5.968C227.787,262.181,227.3,263.955,230.119,264.7Z" transform="translate(-154.166 -179.363)" fill="#3b2933" fill-rule="evenodd"/>
      <g id="Grupo_13050" data-name="Grupo 13050" transform="translate(72.45 94.737)">
        <path id="Trazado_30014" data-name="Trazado 30014" d="M227.358,277.7c2.168,3.513,3.27,6.436-.772,9.655,2.714,1.61,9.117,2.517,13.652,1.952-1.068-5.186,2.054-10.4-.063-14.3C237.269,275.3,230.227,277.206,227.358,277.7Z" transform="translate(-226.586 -275.013)" fill="#fea682" fill-rule="evenodd"/>
        <path id="Trazado_30015" data-name="Trazado 30015" d="M228.993,281.231c.706,2.176.322,4.215-2.407,6.388,1.883,1.117,5.542,1.895,9.121,2.079-1.02-3.874-2.666-7.177-4.769-8.333A2.7,2.7,0,0,0,228.993,281.231Z" transform="translate(-226.586 -275.273)" fill="#febea0" fill-rule="evenodd"/>
      </g>
      <path id="Trazado_30016" data-name="Trazado 30016" d="M239.673,247.377a4.63,4.63,0,0,1,4.488,2.74c3.695.074,8.323,4.645,3.261,11.445a6.025,6.025,0,0,1-1.169,4.2c1.058,2.71.5,6.875-2.711,8.876a5.2,5.2,0,0,1-1.684,1.079,8.335,8.335,0,0,1-6.268,3.8,7.778,7.778,0,0,1-5.212-1.728,4.793,4.793,0,0,1-7.517-2.907,3.4,3.4,0,0,1-1-6.654,7.972,7.972,0,0,1,3.217-14.2,6.545,6.545,0,0,1,10.975-4.555A4.626,4.626,0,0,1,239.673,247.377Z" transform="translate(-153.799 -179.099)" fill="#151e3b" fill-rule="evenodd"/>
      <path id="Trazado_30017" data-name="Trazado 30017" d="M166.2,292.3a1.175,1.175,0,1,1-1.063,1.046A1.065,1.065,0,0,1,166.2,292.3Z" transform="translate(-151.519 -181.013)" fill="#e55b8a" fill-rule="evenodd"/>
    </g>
  </g>
</svg>
