<svg xmlns="http://www.w3.org/2000/svg" width="173" height="215.804" viewBox="0 0 173 215.804">
  <g id="requisito" transform="translate(0 -1.313)">
    <g id="Grupo_32785" data-name="Grupo 32785" transform="translate(3.177 4.49)">
      <path id="Trazado_30034" data-name="Trazado 30034" d="M186.152,210.813H94.565A24.213,24.213,0,0,1,70.352,186.6V77.441A24.213,24.213,0,0,1,94.565,53.228h91.587a24.213,24.213,0,0,1,24.213,24.213V186.6A24.213,24.213,0,0,1,186.152,210.813Z" transform="translate(-43.724 -34.41)" fill="#f9f6f9"/>
      <path id="Trazado_30035" data-name="Trazado 30035" d="M106.081,210.816H94.568A24.213,24.213,0,0,1,70.352,186.6V77.443A24.212,24.212,0,0,1,94.568,53.231h11.513A24.211,24.211,0,0,0,81.869,77.443V186.6a24.211,24.211,0,0,0,24.212,24.216Z" transform="translate(-43.724 -34.412)" fill="#dddaec"/>
      <path id="Trazado_30036" data-name="Trazado 30036" d="M196.964,22.791a22.135,22.135,0,0,0-41.154,0h-7.8a15.148,15.148,0,0,0,0,30.3h56.748a15.148,15.148,0,1,0,0-30.3Z" transform="translate(-79.752 -8.813)" fill="#ffe07d"/>
      <path id="Trazado_30037" data-name="Trazado 30037" d="M183.6,10.021a22.181,22.181,0,0,0-13.363,12.768h-7.8a15.149,15.149,0,0,0,0,30.3H148.013a15.149,15.149,0,1,1,0-30.3h7.794a22.142,22.142,0,0,1,27.8-12.768Z" transform="translate(-79.752 -8.812)" fill="#f1ce64"/>
      <circle id="Elipse_539" data-name="Elipse 539" cx="9.057" cy="9.057" r="9.057" transform="translate(87.578 13.08)" fill="#407093"/>
      <g id="Grupo_32782" data-name="Grupo 32782" transform="translate(0 51.519)">
        <circle id="Elipse_540" data-name="Elipse 540" cx="26.628" cy="26.628" r="26.628" transform="translate(0 0.001)" fill="#e28086"/>
        <path id="Trazado_30038" data-name="Trazado 30038" d="M41.052,182.762a26.63,26.63,0,1,1,0-51.436,26.633,26.633,0,0,0,0,51.436Z" transform="translate(-7.501 -130.414)" fill="#dd636e"/>
      </g>
      <g id="Grupo_32783" data-name="Grupo 32783" transform="translate(52.544 103.855)">
        <circle id="Elipse_541" data-name="Elipse 541" cx="26.628" cy="26.628" r="26.628" transform="translate(0 0.001)" fill="#a2e19f"/>
        <path id="Trazado_30039" data-name="Trazado 30039" d="M165.074,306.294a26.629,26.629,0,1,1,0-51.436,26.633,26.633,0,0,0,0,51.436Z" transform="translate(-131.523 -253.946)" fill="#97cf92"/>
      </g>
      <g id="Grupo_32784" data-name="Grupo 32784" transform="translate(105.089 156.192)">
        <circle id="Elipse_542" data-name="Elipse 542" cx="26.628" cy="26.628" r="26.628" transform="translate(0 0.001)" fill="#9dc6fb"/>
        <path id="Trazado_30040" data-name="Trazado 30040" d="M289.1,429.827a26.63,26.63,0,1,1,0-51.436,26.633,26.633,0,0,0,0,51.436Z" transform="translate(-255.546 -377.479)" fill="#80b4fb"/>
      </g>
    </g>
    <g id="Grupo_32786" data-name="Grupo 32786" transform="translate(0 1.313)">
      <path id="Trazado_30041" data-name="Trazado 30041" d="M145.61,20.127h-5.034a18.254,18.254,0,0,0-12.389-4.837h-5.74a25.316,25.316,0,0,0-45.269,0H71.438a18.254,18.254,0,0,0-12.391,4.839H54.019a27.421,27.421,0,0,0-27.39,27.39V53a29.8,29.8,0,0,0,0,59.27v44.4a27.423,27.423,0,0,0,27.39,27.395h51.249a29.8,29.8,0,1,0,59.432,3.239,29.666,29.666,0,0,0-1.584-9.566A27.4,27.4,0,0,0,173,156.678V67.264a3.177,3.177,0,0,0-6.355,0v89.415a21.037,21.037,0,0,1-6.352,15.054,29.79,29.79,0,0,0-53.611,5.984H54.019a21.061,21.061,0,0,1-21.035-21.04v-44.4a29.8,29.8,0,0,0,0-59.269V47.519A21.059,21.059,0,0,1,54.019,26.484h.539A18.325,18.325,0,0,0,71.438,51.941h56.748a18.326,18.326,0,0,0,16.88-25.459h.544a21.061,21.061,0,0,1,21.035,21.039v7.041a3.177,3.177,0,0,0,6.355,0V47.521a27.424,27.424,0,0,0-27.39-27.394ZM134.894,163.86a23.451,23.451,0,1,1-23.451,23.451A23.477,23.477,0,0,1,134.894,163.86ZM53.257,82.638A23.451,23.451,0,1,1,29.806,59.187,23.478,23.478,0,0,1,53.257,82.638Zm74.929-37.051H71.438a11.971,11.971,0,1,1,0-23.941h7.8a3.178,3.178,0,0,0,2.953-2.005,18.958,18.958,0,0,1,35.247,0,3.178,3.178,0,0,0,2.953,2.005h7.8a11.971,11.971,0,0,1,0,23.941Z" transform="translate(0 -1.313)"/>
      <path id="Trazado_30042" data-name="Trazado 30042" d="M218.949,32.185A12.235,12.235,0,1,0,231.183,44.42a12.248,12.248,0,0,0-12.235-12.235Zm0,18.115a5.88,5.88,0,1,1,5.88-5.88A5.886,5.886,0,0,1,218.949,50.3Z" transform="translate(-119.136 -19.106)"/>
      <path id="Trazado_30043" data-name="Trazado 30043" d="M50.809,156.538a3.178,3.178,0,0,0,3.177,3.177h2.749v24.551a3.177,3.177,0,0,0,6.355,0V156.538a3.178,3.178,0,0,0-3.177-3.177H53.986A3.178,3.178,0,0,0,50.809,156.538Z" transform="translate(-29.283 -88.943)"/>
      <path id="Trazado_30044" data-name="Trazado 30044" d="M189.091,288a3.064,3.064,0,0,0,.056-.315l.137-1.072a3.117,3.117,0,0,0,.026-.4,10.273,10.273,0,0,0-20.352-1.988,3.178,3.178,0,1,0,6.236,1.225,3.918,3.918,0,0,1,7.758.59l-.086.669a15.346,15.346,0,0,1-2.422,4.774c-4.392,6.275-7.013,9.706-8.42,11.55-1.744,2.284-2.541,3.327-2,5.086a3.305,3.305,0,0,0,2.148,2.177c.424.141.831.277,6.219.277,2.116,0,5-.021,8.956-.071a3.178,3.178,0,0,0-.08-6.355c-2.775.035-5.719.058-8.165.063,1.537-2.056,3.671-4.972,6.548-9.083A21.1,21.1,0,0,0,189.091,288Z" transform="translate(-97.341 -159.587)"/>
      <path id="Trazado_30045" data-name="Trazado 30045" d="M134.85,295.2a3.178,3.178,0,0,0,.527,4.463,29.507,29.507,0,0,0,18.449,6.394,29.789,29.789,0,1,0-27.077-17.336,3.178,3.178,0,1,0,5.771-2.662,23.459,23.459,0,1,1,6.793,8.614A3.178,3.178,0,0,0,134.85,295.2Z" transform="translate(-71.478 -142.594)"/>
      <path id="Trazado_30046" data-name="Trazado 30046" d="M304.806,428.674a3.93,3.93,0,0,1-3.879-3.367,3.97,3.97,0,0,1-.038-.551,3.177,3.177,0,1,0-6.355,0,10.454,10.454,0,0,0,.1,1.429,10.273,10.273,0,1,0,17.6-8.524,10.271,10.271,0,1,0-17.5-9.083,3.178,3.178,0,1,0,6.236,1.225,3.918,3.918,0,1,1,3.844,4.681,3.177,3.177,0,0,0,0,6.355,3.917,3.917,0,1,1,0,7.834Z" transform="translate(-169.749 -231.259)"/>
      <path id="Trazado_30047" data-name="Trazado 30047" d="M224.639,169.989a3.178,3.178,0,0,0-3.177-3.177H172.076a3.177,3.177,0,0,0,0,6.355h49.386A3.178,3.178,0,0,0,224.639,169.989Z" transform="translate(-97.342 -96.696)"/>
      <path id="Trazado_30048" data-name="Trazado 30048" d="M205.03,211.079a3.177,3.177,0,0,0,0-6.355H172.076a3.177,3.177,0,0,0,0,6.355Z" transform="translate(-97.342 -118.546)"/>
      <path id="Trazado_30049" data-name="Trazado 30049" d="M318.456,293.522a3.178,3.178,0,0,0-3.177-3.177H275.641a3.177,3.177,0,0,0,0,6.355h39.637a3.178,3.178,0,0,0,3.177-3.177Z" transform="translate(-157.03 -167.892)"/>
      <path id="Trazado_30050" data-name="Trazado 30050" d="M275.641,328.257a3.177,3.177,0,0,0,0,6.355h23.206a3.177,3.177,0,0,0,0-6.355Z" transform="translate(-157.03 -189.742)"/>
    </g>
  </g>
</svg>
