<svg xmlns="http://www.w3.org/2000/svg" width="68" height="68" viewBox="0 0 68 68">
  <g id="Grupo_46004" data-name="Grupo 46004" transform="translate(14156 -7895)">
    <g id="Elipse_763" data-name="Elipse 763" transform="translate(-14156 7895)" fill="#fff" stroke="#361274" stroke-width="4">
      <circle cx="34" cy="34" r="34" stroke="none"/>
      <circle cx="34" cy="34" r="32" fill="none"/>
    </g>
    <path id="Trazado_71679" data-name="Trazado 71679" d="M2.285-.918V-6.289A10.841,10.841,0,0,0,8.848-4.238a5.908,5.908,0,0,0,3.682-1.016,3.372,3.372,0,0,0,1.318-2.832,3.219,3.219,0,0,0-1.631-2.891,8.449,8.449,0,0,0-4.482-1.016h-2.6v-4.727h2.4q5.469,0,5.469-3.633,0-3.418-4.2-3.418A9.574,9.574,0,0,0,3.34-21.953v-5.039a15.1,15.1,0,0,1,6.875-1.484A10.375,10.375,0,0,1,16.9-26.543a6.154,6.154,0,0,1,2.393,5.02q0,5.488-5.566,6.875v.1a7.567,7.567,0,0,1,4.688,2.158,6.085,6.085,0,0,1,1.719,4.385A7.515,7.515,0,0,1,17.266-1.8Q14.395.488,9.336.488A15.326,15.326,0,0,1,2.285-.918Z" transform="translate(-14134 7943)" fill="#361274"/>
  </g>
</svg>
