<svg xmlns="http://www.w3.org/2000/svg" width="68" height="68" viewBox="0 0 68 68">
  <g id="Grupo_46006" data-name="Grupo 46006" transform="translate(14156 -8068)">
    <g id="Elipse_765" data-name="Elipse 765" transform="translate(-14156 8068)" fill="#fff" stroke="#361274" stroke-width="4">
      <circle cx="34" cy="34" r="34" stroke="none"/>
      <circle cx="34" cy="34" r="32" fill="none"/>
    </g>
    <path id="Trazado_71677" data-name="Trazado 71677" d="M2.773-.723V-6A11.513,11.513,0,0,0,8.887-4.238,5.742,5.742,0,0,0,12.705-5.4a3.912,3.912,0,0,0,1.377-3.154q0-4.16-5.879-4.16a43.533,43.533,0,0,0-5,.332L4.258-28.008H19.082v5.039H8.965l-.391,5.605q1.5-.117,2.6-.117a9.552,9.552,0,0,1,6.758,2.266,7.912,7.912,0,0,1,2.441,6.094A8.995,8.995,0,0,1,17.461-2.2,11.181,11.181,0,0,1,9.57.488,16.885,16.885,0,0,1,2.773-.723Z" transform="translate(-14134 8116)" fill="#361274"/>
  </g>
</svg>
