<svg xmlns="http://www.w3.org/2000/svg" xmlns:xlink="http://www.w3.org/1999/xlink" width="866" height="460" viewBox="0 0 866 460">
  <defs>
    <linearGradient id="linear-gradient" x1="1.13" y1="1.295" x2="0.236" y2="0.19" gradientUnits="objectBoundingBox">
      <stop offset="0" stop-color="#b37cff"/>
      <stop offset="1" stop-color="#f895e7"/>
    </linearGradient>
    <linearGradient id="linear-gradient-2" x1="-0.691" y1="1.11" x2="0.946" y2="1.11" gradientUnits="objectBoundingBox">
      <stop offset="0" stop-color="#a737d5"/>
      <stop offset="1" stop-color="#ef497a"/>
    </linearGradient>
    <linearGradient id="linear-gradient-3" x1="-4.804" y1="-0.638" x2="-2.519" y2="-0.638" gradientUnits="objectBoundingBox">
      <stop offset="0" stop-color="#ce1567"/>
      <stop offset="1" stop-color="#7a1dbc"/>
    </linearGradient>
    <linearGradient id="linear-gradient-4" x1="0.567" y1="-0.195" x2="0.453" y2="1.105" gradientUnits="objectBoundingBox">
      <stop offset="0" stop-color="#53d8ff"/>
      <stop offset="1" stop-color="#3840f7"/>
    </linearGradient>
    <linearGradient id="linear-gradient-5" x1="0.509" y1="0.475" x2="1.157" y2="-1.414" xlink:href="#linear-gradient-4"/>
    <linearGradient id="linear-gradient-6" x1="-7.896" y1="5.063" x2="18.44" y2="-9.25" xlink:href="#linear-gradient-4"/>
    <linearGradient id="linear-gradient-7" x1="0.651" y1="0.296" x2="-0.29" y2="1.509" xlink:href="#linear-gradient-4"/>
    <linearGradient id="linear-gradient-8" x1="2.578" y1="-2.211" x2="-1.787" y2="3.403" xlink:href="#linear-gradient-2"/>
    <linearGradient id="linear-gradient-9" x1="3.377" y1="-3.239" x2="-0.988" y2="2.375" xlink:href="#linear-gradient-2"/>
    <linearGradient id="linear-gradient-10" x1="4.049" y1="-3.235" x2="-1.695" y2="2.799" xlink:href="#linear-gradient-2"/>
    <linearGradient id="linear-gradient-11" x1="4.975" y1="-5.294" x2="0.61" y2="0.32" xlink:href="#linear-gradient-2"/>
    <linearGradient id="linear-gradient-12" x1="4.975" y1="-5.294" x2="0.61" y2="0.32" xlink:href="#linear-gradient-2"/>
    <linearGradient id="linear-gradient-13" x1="3.501" y1="-2.631" x2="-1.193" y2="2.341" gradientUnits="objectBoundingBox">
      <stop offset="0" stop-color="#cb236d"/>
      <stop offset="1" stop-color="#4c246d"/>
    </linearGradient>
    <linearGradient id="linear-gradient-14" x1="3.651" y1="-2.376" x2="-2.701" y2="2.624" xlink:href="#linear-gradient-13"/>
    <linearGradient id="linear-gradient-15" x1="3.109" y1="-1.929" x2="-3.243" y2="3.071" xlink:href="#linear-gradient-13"/>
    <linearGradient id="linear-gradient-16" x1="2.495" y1="-1.343" x2="-3.204" y2="3.659" xlink:href="#linear-gradient-13"/>
    <linearGradient id="linear-gradient-17" x1="1.667" y1="-0.838" x2="-2.849" y2="4.09" xlink:href="#linear-gradient-13"/>
    <linearGradient id="linear-gradient-18" x1="1.146" y1="-0.428" x2="-3.548" y2="4.545" xlink:href="#linear-gradient-13"/>
    <linearGradient id="linear-gradient-19" x1="0.988" y1="0.133" x2="-6.021" y2="5.1" xlink:href="#linear-gradient-13"/>
    <linearGradient id="linear-gradient-20" x1="0.317" y1="0.535" x2="-4.775" y2="5.529" xlink:href="#linear-gradient-13"/>
    <linearGradient id="linear-gradient-21" x1="-0.976" y1="1.028" x2="-21.714" y2="8.212" xlink:href="#linear-gradient-13"/>
    <linearGradient id="linear-gradient-22" x1="1.519" y1="-0.775" x2="-1.484" y2="2.907" gradientUnits="objectBoundingBox">
      <stop offset="0" stop-color="#2b3582"/>
      <stop offset="1" stop-color="#150e42"/>
    </linearGradient>
    <linearGradient id="linear-gradient-23" x1="1.004" y1="-2.464" x2="-0.074" y2="4.125" xlink:href="#linear-gradient-22"/>
    <linearGradient id="linear-gradient-24" x1="0.727" y1="-2.869" x2="0.282" y2="3.71" xlink:href="#linear-gradient-4"/>
    <linearGradient id="linear-gradient-25" x1="-3.565" y1="-0.38" x2="-1.566" y2="1.843" gradientUnits="objectBoundingBox">
      <stop offset="0" stop-color="#fdf53f"/>
      <stop offset="1" stop-color="#d93c65"/>
    </linearGradient>
    <linearGradient id="linear-gradient-26" x1="-281.591" y1="-0.166" x2="-299.634" y2="3.358" xlink:href="#linear-gradient-22"/>
    <linearGradient id="linear-gradient-27" x1="-353.302" y1="-0.086" x2="-376.065" y2="3.376" xlink:href="#linear-gradient-22"/>
    <linearGradient id="linear-gradient-28" x1="-311.603" y1="-0.015" x2="-331.823" y2="3.448" xlink:href="#linear-gradient-22"/>
    <linearGradient id="linear-gradient-29" x1="-208.376" y1="0.121" x2="-222.07" y2="3.397" xlink:href="#linear-gradient-22"/>
    <linearGradient id="linear-gradient-30" x1="-483.658" y1="0.174" x2="-515.658" y2="3.699" xlink:href="#linear-gradient-22"/>
    <linearGradient id="linear-gradient-31" x1="-303.814" y1="0.227" x2="-324.029" y2="3.744" xlink:href="#linear-gradient-22"/>
    <linearGradient id="linear-gradient-32" x1="-188.651" y1="-0.19" x2="-200.647" y2="2.95" xlink:href="#linear-gradient-22"/>
    <linearGradient id="linear-gradient-33" x1="-5.155" y1="-0.38" x2="-3.155" y2="1.843" xlink:href="#linear-gradient-25"/>
    <linearGradient id="linear-gradient-34" x1="-396.992" y1="-0.166" x2="-415.035" y2="3.358" xlink:href="#linear-gradient-22"/>
    <linearGradient id="linear-gradient-35" x1="-498.84" y1="-0.086" x2="-521.6" y2="3.376" xlink:href="#linear-gradient-22"/>
    <linearGradient id="linear-gradient-36" x1="-440.908" y1="-0.015" x2="-461.126" y2="3.448" xlink:href="#linear-gradient-22"/>
    <linearGradient id="linear-gradient-37" x1="-295.972" y1="0.121" x2="-309.667" y2="3.397" xlink:href="#linear-gradient-22"/>
    <linearGradient id="linear-gradient-38" x1="-688.464" y1="0.174" x2="-720.47" y2="3.699" xlink:href="#linear-gradient-22"/>
    <linearGradient id="linear-gradient-39" x1="-433.081" y1="0.227" x2="-453.295" y2="3.744" xlink:href="#linear-gradient-22"/>
    <linearGradient id="linear-gradient-40" x1="-265.374" y1="-0.19" x2="-277.369" y2="2.95" xlink:href="#linear-gradient-22"/>
    <linearGradient id="linear-gradient-41" x1="-4.713" y1="-0.293" x2="-2.626" y2="1.712" xlink:href="#linear-gradient-25"/>
    <linearGradient id="linear-gradient-42" x1="-361.67" y1="-0.167" x2="-382.58" y2="3.363" xlink:href="#linear-gradient-22"/>
    <linearGradient id="linear-gradient-43" x1="-454.44" y1="-0.086" x2="-480.75" y2="3.373" xlink:href="#linear-gradient-22"/>
    <linearGradient id="linear-gradient-44" x1="-401.473" y1="-0.016" x2="-424.874" y2="3.449" xlink:href="#linear-gradient-22"/>
    <linearGradient id="linear-gradient-45" x1="-269.354" y1="0.123" x2="-285.123" y2="3.383" xlink:href="#linear-gradient-22"/>
    <linearGradient id="linear-gradient-46" x1="-626.296" y1="0.176" x2="-663.186" y2="3.687" xlink:href="#linear-gradient-22"/>
    <linearGradient id="linear-gradient-47" x1="-393.936" y1="0.227" x2="-417.333" y2="3.745" xlink:href="#linear-gradient-22"/>
    <linearGradient id="linear-gradient-48" x1="-241.865" y1="-0.189" x2="-255.709" y2="2.944" xlink:href="#linear-gradient-22"/>
    <linearGradient id="linear-gradient-49" x1="1.956" y1="0.807" x2="3.317" y2="0.807" xlink:href="#linear-gradient-22"/>
    <linearGradient id="linear-gradient-50" x1="0.729" y1="1.165" x2="0.24" y2="-0.258" xlink:href="#linear-gradient-22"/>
    <linearGradient id="linear-gradient-51" x1="7.207" y1="0.5" x2="6.207" y2="0.5" gradientUnits="objectBoundingBox">
      <stop offset="0" stop-color="#f9b776"/>
      <stop offset="1" stop-color="#f47960"/>
    </linearGradient>
    <linearGradient id="linear-gradient-52" x1="-3.136" y1="-3.045" x2="-3.115" y2="1.639" xlink:href="#linear-gradient-13"/>
    <linearGradient id="linear-gradient-53" x1="-14.37" y1="0.5" x2="-13.37" y2="0.5" xlink:href="#linear-gradient-51"/>
    <linearGradient id="linear-gradient-54" x1="-3.971" y1="1.255" x2="-3.764" y2="0.047" xlink:href="#linear-gradient-22"/>
    <linearGradient id="linear-gradient-55" x1="-8.499" y1="-3.752" x2="-8.449" y2="1.733" xlink:href="#linear-gradient-13"/>
    <linearGradient id="linear-gradient-56" x1="-16.644" y1="0.5" x2="-15.644" y2="0.5" xlink:href="#linear-gradient-51"/>
    <linearGradient id="linear-gradient-57" x1="-2.696" y1="1.244" x2="-2.55" y2="0.059" xlink:href="#linear-gradient-22"/>
    <linearGradient id="linear-gradient-58" x1="3.912" y1="0.155" x2="4.605" y2="1.439" xlink:href="#linear-gradient-25"/>
    <linearGradient id="linear-gradient-59" x1="9.047" y1="-0.047" x2="10.384" y2="3.075" xlink:href="#linear-gradient-25"/>
    <linearGradient id="linear-gradient-60" x1="-2.152" y1="0.5" x2="-1.152" y2="0.5" xlink:href="#linear-gradient-51"/>
    <linearGradient id="linear-gradient-61" x1="1.49" y1="-1.44" x2="1.112" y2="-0.767" xlink:href="#linear-gradient-22"/>
    <linearGradient id="linear-gradient-62" x1="0.932" y1="-3.497" x2="0.359" y2="1.805" xlink:href="#linear-gradient-2"/>
    <linearGradient id="linear-gradient-63" x1="0.605" y1="-1.235" x2="0.461" y2="1.146" xlink:href="#linear-gradient-2"/>
    <linearGradient id="linear-gradient-64" x1="-7.135" y1="0.5" x2="-6.135" y2="0.5" xlink:href="#linear-gradient-51"/>
    <linearGradient id="linear-gradient-65" x1="5.9" y1="3.917" x2="7.032" y2="3.917" xlink:href="#linear-gradient-51"/>
    <linearGradient id="linear-gradient-66" x1="-5.622" y1="0.5" x2="-4.622" y2="0.5" xlink:href="#linear-gradient-51"/>
    <linearGradient id="linear-gradient-67" x1="-39.325" y1="-12.695" x2="-39.685" y2="-13.635" xlink:href="#linear-gradient-51"/>
    <linearGradient id="linear-gradient-68" x1="-23.153" y1="-14.329" x2="-22.976" y2="-12.934" xlink:href="#linear-gradient-22"/>
    <linearGradient id="linear-gradient-69" x1="-172.552" y1="-46.857" x2="-173.958" y2="-49.918" xlink:href="#linear-gradient-51"/>
  </defs>
  <g id="Grupo_46007" data-name="Grupo 46007" transform="translate(-267 -2596)">
    <g id="Grupo_45984" data-name="Grupo 45984">
      <rect id="Rectángulo_12700" data-name="Rectángulo 12700" width="866" height="460" rx="10" transform="translate(267 2596)" fill="#fcf8ec"/>
      <g id="Grupo_45968" data-name="Grupo 45968" transform="translate(-22 590)">
        <path id="Trazado_30051" data-name="Trazado 30051" d="M670.211,629.755a67.552,67.552,0,0,1-10.336,8.7c-33.718,24.193-73.616,17.141-82.1,15.419-12.521-2.543-36.725-7.459-54.224-28.037-26.474-31.133-22.352-80.182-1.817-112.56,3.756-5.923,23.6-38.794,63.925-44.065,24.406-3.19,52.855,3.244,73.457,20.5C702.367,525.95,699.288,599.144,670.211,629.755Z" transform="translate(-142.87 1675.273)" opacity="0.3" fill="url(#linear-gradient)"/>
        <g id="Grupo_32787" data-name="Grupo 32787" transform="translate(380.281 2143)">
          <path id="Trazado_30052" data-name="Trazado 30052" d="M768.828,459.687a1.1,1.1,0,0,1,1.712-1.212c8.694,6.484,30.079,26.429,29.763,65.568-.4,49.106,11.7,65.632,25.487,74.985a54.489,54.489,0,0,1-30.714-19.809C763.429,538.216,774.681,477.753,768.828,459.687Z" transform="translate(-768.771 -458.252)" fill="url(#linear-gradient-2)"/>
          <path id="Trazado_30053" data-name="Trazado 30053" d="M881.331,684.173c1.6,5.28,3.086,10.589,4.381,15.945q1.983,8.022,3.472,16.148c.969,5.417,1.837,10.852,2.472,16.316.66,5.461,1.084,10.943,1.491,16.449.438,5.5.847,11.045,1.825,16.564a55.959,55.959,0,0,0,5.212,16.007c.649,1.25,1.323,2.494,2.063,3.685.719,1.206,1.491,2.38,2.284,3.539a58.023,58.023,0,0,0,18.347,17.149,1.066,1.066,0,0,0,1.126-1.811l0,0c-1.146-.734-2.283-1.481-3.382-2.275-.556-.388-1.094-.8-1.639-1.2-.529-.422-1.075-.824-1.591-1.262a56.231,56.231,0,0,1-5.883-5.578,61.627,61.627,0,0,1-9.232-13.307,53.7,53.7,0,0,1-3.1-7.471,60.908,60.908,0,0,1-1.981-7.877c-.991-5.352-1.442-10.836-1.919-16.333s-1.009-11.019-1.759-16.511q-.552-4.119-1.251-8.216c-.225-1.366-.477-2.728-.726-4.091s-.532-2.718-.812-4.074q-1.7-8.131-3.9-16.14c-1.492-5.328-3.124-10.615-4.957-15.83a.286.286,0,0,0-.544.177Z" transform="translate(-873.577 -668.289)" fill="#fff" style="mix-blend-mode: soft-light;isolation: isolate"/>
        </g>
        <g id="Grupo_32789" data-name="Grupo 32789" transform="translate(361 2174.958)">
          <g id="Grupo_32788" data-name="Grupo 32788">
            <path id="Trazado_30054" data-name="Trazado 30054" d="M534.9,1043.782a2.771,2.771,0,0,1-4.323,1.573,84.5,84.5,0,0,1-34.04-64.091c-1.723-31.607-5.661-48.582-7.983-56.165a1.738,1.738,0,0,1,2.7-1.9C506.11,934.211,551.727,974.489,534.9,1043.782Z" transform="translate(-488.468 -922.846)" fill="url(#linear-gradient-3)"/>
            <path id="Trazado_30055" data-name="Trazado 30055" d="M735.673,1499.922a.769.769,0,0,1-1.166-.22c-.232-.422-23.2-42.666-27.584-86.505a.768.768,0,1,1,1.529-.153c4.349,43.52,27.172,85.5,27.4,85.918A.769.769,0,0,1,735.673,1499.922Z" transform="translate(-691.893 -1378.68)" fill="#fff" style="mix-blend-mode: soft-light;isolation: isolate"/>
          </g>
        </g>
        <path id="Trazado_30056" data-name="Trazado 30056" d="M987.534,815.645h110.757a11.474,11.474,0,0,1,11.459,10.891l6.659,136.318a8.461,8.461,0,0,1-8.3,8.89l-126.941,2.307a8.032,8.032,0,0,1-8.178-8.031l1.516-137.352A13.024,13.024,0,0,1,987.534,815.645Z" transform="translate(-578.665 1351.939)" fill="url(#linear-gradient-4)"/>
        <path id="Trazado_30057" data-name="Trazado 30057" d="M1052.9,2664.006h0l-14.2-.184a8.741,8.741,0,0,1-8.595-8.706V2633.67a.284.284,0,0,1,.569,0v21.446a8.17,8.17,0,0,0,8.033,8.138l14.2.184a.284.284,0,0,1,0,.568Z" transform="translate(-631.841 -340.765)" fill="url(#linear-gradient-5)"/>
        <path id="Trazado_30058" data-name="Trazado 30058" d="M1030.382,2490.368a.284.284,0,0,1-.284-.284v-3.473a.284.284,0,1,1,.569,0v3.473A.284.284,0,0,1,1030.382,2490.368Z" transform="translate(-631.841 -203.821)" fill="url(#linear-gradient-6)"/>
        <g id="Grupo_32798" data-name="Grupo 32798" transform="translate(404.399 2166.248)">
          <path id="Trazado_30059" data-name="Trazado 30059" d="M1124.2,796.249c15.125,2.051,67.135,8.395,110.137,5.094a3.5,3.5,0,0,1,3.767,3.3l7.056,137.033a4.026,4.026,0,0,1-3.782,4.234c-18.086,1.07-92.568,5.208-119.135,2.425a3.189,3.189,0,0,1-2.854-3.156l.52-145.156A3.783,3.783,0,0,1,1124.2,796.249Z" transform="translate(-1119.393 -796.214)" fill="url(#linear-gradient-7)"/>
          <path id="Trazado_30060" data-name="Trazado 30060" d="M1149.433,857.092c14.555,1.974,64.607,8.079,105.99,4.9a3.366,3.366,0,0,1,3.625,3.175l6.734,130.96a3.874,3.874,0,0,1-3.64,4.074c-17.4,1.03-89.082,5.012-114.649,2.334a3.07,3.07,0,0,1-2.746-3.038l.557-138.776A3.641,3.641,0,0,1,1149.433,857.092Z" transform="translate(-1143.003 -852.873)" fill="#fff" opacity="0.6"/>
          <g id="Grupo_32796" data-name="Grupo 32796" transform="translate(13.415 42.916)">
            <path id="Trazado_30061" data-name="Trazado 30061" d="M1327.452,1481.759h-.025l-9.6-.092a2.5,2.5,0,0,1-2.551-2.12l-.844-8.056a1.668,1.668,0,0,1,.394-1.254,2.023,2.023,0,0,1,1.411-.695h0c.809-.055,1.946-.152,3.151-.255,2.54-.216,5.7-.485,7.477-.508h.038a2.593,2.593,0,0,1,2.568,1.819c.5,1.839.453,5.333.358,9.055A2.289,2.289,0,0,1,1327.452,1481.759Zm-.551-12.411h-.031c-1.756.022-4.906.29-7.436.506-1.207.1-2.347.2-3.16.256h0a1.451,1.451,0,0,0-1.014.494,1.1,1.1,0,0,0-.264.828l.844,8.056a1.931,1.931,0,0,0,1.991,1.611l9.6.092h.02a1.721,1.721,0,0,0,1.807-1.552c.094-3.679.138-7.127-.339-8.893A2.027,2.027,0,0,0,1326.9,1469.348Z" transform="translate(-1314.421 -1465.431)" fill="#fff"/>
            <path id="Trazado_30062" data-name="Trazado 30062" d="M1339.7,1493.181c2.017-.138,6.4-.583,8.48-.609a1.859,1.859,0,0,1,1.86,1.285,32.655,32.655,0,0,1,.278,7.171,1.6,1.6,0,0,1-1.688,1.461l-7.673-.074a1.772,1.772,0,0,1-1.815-1.49l-.675-6.438A1.247,1.247,0,0,1,1339.7,1493.181Z" transform="translate(-1336.804 -1487.588)" fill="#fff" opacity="0.6"/>
            <g id="Grupo_32791" data-name="Grupo 32791" transform="translate(20.796 8.063)" opacity="0.6">
              <path id="Trazado_30063" data-name="Trazado 30063" d="M1617.054,1537.332a.281.281,0,0,0-.288.4l1.438,3.978a.668.668,0,0,0,.585.41h67.569a.422.422,0,0,0,.423-.436l-.081-2.71a.464.464,0,0,0-.449-.444Z" transform="translate(-1616.742 -1537.332)" fill="#fff"/>
            </g>
            <path id="Trazado_30064" data-name="Trazado 30064" d="M1352.1,1426.967h0a1.474,1.474,0,0,1,2.033.553l1.894,3.395a.473.473,0,0,0,.845-.036l4.7-10.458a.524.524,0,0,1,1,.226,20.645,20.645,0,0,1-6.008,14.369s-2.817-1.095-5.085-6.076A1.545,1.545,0,0,1,1352.1,1426.967Z" transform="translate(-1348.796 -1420.11)" fill="url(#linear-gradient-8)"/>
            <path id="Trazado_30065" data-name="Trazado 30065" d="M1327.452,1780.928h-.025l-9.6-.092a2.5,2.5,0,0,1-2.551-2.12l-.844-8.056a1.667,1.667,0,0,1,.394-1.254,2.024,2.024,0,0,1,1.41-.7h0c.81-.055,1.951-.152,3.159-.255,2.537-.216,5.695-.485,7.469-.507h.037a2.593,2.593,0,0,1,2.569,1.819c.5,1.839.453,5.332.358,9.055A2.288,2.288,0,0,1,1327.452,1780.928Zm-11.179-11.649a1.451,1.451,0,0,0-1.014.494,1.1,1.1,0,0,0-.264.828l.844,8.056a1.931,1.931,0,0,0,1.991,1.61l9.6.092h.02a1.72,1.72,0,0,0,1.806-1.552c.094-3.679.138-7.127-.339-8.892a2.012,2.012,0,0,0-2.05-1.4c-1.754.022-4.9.29-7.428.506-1.21.1-2.353.2-3.168.256Z" transform="translate(-1314.421 -1744.021)" fill="#fff"/>
            <path id="Trazado_30066" data-name="Trazado 30066" d="M1339.7,1792.352c2.017-.138,6.4-.583,8.48-.609a1.859,1.859,0,0,1,1.86,1.285,32.657,32.657,0,0,1,.278,7.171,1.6,1.6,0,0,1-1.688,1.461l-7.673-.074a1.773,1.773,0,0,1-1.815-1.49l-.675-6.438A1.247,1.247,0,0,1,1339.7,1792.352Z" transform="translate(-1336.804 -1766.179)" fill="#fff" opacity="0.6"/>
            <g id="Grupo_32792" data-name="Grupo 32792" transform="translate(20.796 28.642)" opacity="0.6">
              <path id="Trazado_30067" data-name="Trazado 30067" d="M1617.054,1836.5a.281.281,0,0,0-.288.4l1.438,3.978a.668.668,0,0,0,.585.41h67.569a.422.422,0,0,0,.423-.436l-.081-2.709a.463.463,0,0,0-.449-.443Z" transform="translate(-1616.742 -1836.502)" fill="#fff"/>
            </g>
            <path id="Trazado_30068" data-name="Trazado 30068" d="M1352.1,1726.137h0a1.474,1.474,0,0,1,2.033.553l1.894,3.395a.473.473,0,0,0,.845-.037l4.7-10.458a.524.524,0,0,1,1,.226,20.645,20.645,0,0,1-6.008,14.369s-2.817-1.095-5.085-6.076A1.545,1.545,0,0,1,1352.1,1726.137Z" transform="translate(-1348.796 -1698.701)" fill="url(#linear-gradient-9)"/>
            <path id="Trazado_30069" data-name="Trazado 30069" d="M1327.452,2080.1h-.025l-9.6-.092a2.5,2.5,0,0,1-2.551-2.119l-.844-8.056a1.668,1.668,0,0,1,.394-1.254,2.024,2.024,0,0,1,1.41-.695h0c.81-.055,1.951-.152,3.159-.256,2.537-.216,5.695-.485,7.469-.507h.037a2.594,2.594,0,0,1,2.569,1.819c.5,1.839.453,5.333.358,9.055A2.288,2.288,0,0,1,1327.452,2080.1Zm-11.179-11.649a1.451,1.451,0,0,0-1.014.494,1.1,1.1,0,0,0-.264.828l.844,8.056a1.931,1.931,0,0,0,1.991,1.611l9.6.092h.02a1.72,1.72,0,0,0,1.806-1.552c.094-3.679.138-7.127-.339-8.892a2.017,2.017,0,0,0-2.05-1.4c-1.754.021-4.9.29-7.428.5-1.21.1-2.353.2-3.168.257Z" transform="translate(-1314.421 -2022.612)" fill="#fff"/>
            <path id="Trazado_30070" data-name="Trazado 30070" d="M1339.7,2091.522c2.017-.138,6.4-.583,8.48-.609a1.859,1.859,0,0,1,1.86,1.285,32.654,32.654,0,0,1,.278,7.171,1.6,1.6,0,0,1-1.688,1.461l-7.673-.074a1.772,1.772,0,0,1-1.815-1.49l-.675-6.438A1.246,1.246,0,0,1,1339.7,2091.522Z" transform="translate(-1336.804 -2044.769)" fill="#fff" opacity="0.6"/>
            <g id="Grupo_32793" data-name="Grupo 32793" transform="translate(20.797 49.221)" opacity="0.6">
              <path id="Trazado_30071" data-name="Trazado 30071" d="M1617.072,2135.671a.279.279,0,0,0-.286.4l1.461,3.979a.672.672,0,0,0,.587.41h68.608a.422.422,0,0,0,.423-.436l-.082-2.71a.464.464,0,0,0-.45-.443Z" transform="translate(-1616.761 -2135.671)" fill="#fff"/>
            </g>
            <path id="Trazado_30072" data-name="Trazado 30072" d="M1352.1,2025.308h0a1.474,1.474,0,0,1,2.033.553l1.894,3.395a.473.473,0,0,0,.845-.036l4.7-10.458a.524.524,0,0,1,1,.227,20.645,20.645,0,0,1-6.008,14.369s-2.817-1.095-5.085-6.076A1.545,1.545,0,0,1,1352.1,2025.308Z" transform="translate(-1348.796 -1977.293)" fill="url(#linear-gradient-10)"/>
            <path id="Trazado_30073" data-name="Trazado 30073" d="M1327.452,2379.27h-.025l-9.6-.092a2.5,2.5,0,0,1-2.551-2.12l-.844-8.056a1.669,1.669,0,0,1,.394-1.254,2.023,2.023,0,0,1,1.411-.694h0c.808-.055,1.946-.152,3.15-.255,2.54-.217,5.7-.486,7.478-.508h.038a2.592,2.592,0,0,1,2.568,1.818c.5,1.839.453,5.333.358,9.055A2.288,2.288,0,0,1,1327.452,2379.27Zm-.552-12.41h-.031c-1.756.021-4.906.29-7.437.506-1.207.1-2.347.2-3.16.255h0a1.45,1.45,0,0,0-1.014.494,1.1,1.1,0,0,0-.264.828l.844,8.056a1.931,1.931,0,0,0,1.991,1.611l9.6.092h.02a1.72,1.72,0,0,0,1.806-1.552c.094-3.679.138-7.127-.339-8.892A2.027,2.027,0,0,0,1326.9,2366.86Z" transform="translate(-1314.421 -2301.206)" fill="#fff"/>
            <path id="Trazado_30074" data-name="Trazado 30074" d="M1339.7,2390.692c2.017-.138,6.4-.583,8.48-.609a1.859,1.859,0,0,1,1.86,1.285,32.656,32.656,0,0,1,.278,7.171,1.6,1.6,0,0,1-1.688,1.461l-7.673-.073a1.773,1.773,0,0,1-1.815-1.49l-.675-6.438A1.246,1.246,0,0,1,1339.7,2390.692Z" transform="translate(-1336.804 -2323.362)" fill="#fff" opacity="0.6"/>
            <g id="Grupo_32794" data-name="Grupo 32794" transform="translate(20.8 69.8)" opacity="0.6">
              <path id="Trazado_30075" data-name="Trazado 30075" d="M1617.107,2434.838a.276.276,0,0,0-.282.4l1.5,3.982a.68.68,0,0,0,.591.408h70.646a.421.421,0,0,0,.423-.436l-.085-2.71a.464.464,0,0,0-.45-.443Z" transform="translate(-1616.799 -2434.838)" fill="#fff"/>
            </g>
            <path id="Trazado_30076" data-name="Trazado 30076" d="M1352.1,2324.478h0a1.474,1.474,0,0,1,2.033.553l1.894,3.4a.473.473,0,0,0,.845-.037l4.7-10.458a.524.524,0,0,1,1,.227,20.645,20.645,0,0,1-6.008,14.369s-2.817-1.095-5.085-6.076A1.545,1.545,0,0,1,1352.1,2324.478Z" transform="translate(-1348.796 -2255.884)" fill="url(#linear-gradient-11)"/>
            <path id="Trazado_30077" data-name="Trazado 30077" d="M1344.17,2677.679h-.025l-9.6-.093a2.5,2.5,0,0,1-2.551-2.119l-.844-8.056a1.668,1.668,0,0,1,.394-1.254,2.022,2.022,0,0,1,1.41-.695h0c.808-.055,1.946-.152,3.15-.255,2.54-.215,5.7-.485,7.478-.508h.038a2.593,2.593,0,0,1,2.568,1.818c.5,1.839.453,5.333.358,9.055A2.289,2.289,0,0,1,1344.17,2677.679Zm-.552-12.411h-.031c-1.756.021-4.906.29-7.437.505-1.207.1-2.346.2-3.159.256h0a1.453,1.453,0,0,0-1.014.493,1.1,1.1,0,0,0-.264.829l.844,8.056a1.931,1.931,0,0,0,1.991,1.61l9.6.092h.02a1.72,1.72,0,0,0,1.806-1.552c.094-3.678.138-7.127-.339-8.892A2.027,2.027,0,0,0,1343.618,2665.268Z" transform="translate(-1329.988 -2579.088)" fill="#fff"/>
            <path id="Trazado_30078" data-name="Trazado 30078" d="M1356.413,2689.1c2.017-.137,6.4-.583,8.48-.609a1.86,1.86,0,0,1,1.86,1.285,32.649,32.649,0,0,1,.278,7.171,1.6,1.6,0,0,1-1.689,1.461l-7.673-.074a1.773,1.773,0,0,1-1.815-1.49l-.675-6.438A1.247,1.247,0,0,1,1356.413,2689.1Z" transform="translate(-1352.372 -2601.243)" fill="#fff" opacity="0.6"/>
            <g id="Grupo_32795" data-name="Grupo 32795" transform="translate(22.4 90.327)" opacity="0.6">
              <path id="Trazado_30079" data-name="Trazado 30079" d="M1640.372,2733.248a.276.276,0,0,0-.282.4l1.5,3.982a.68.68,0,0,0,.59.408h70.527a.422.422,0,0,0,.423-.437l-.085-2.709a.464.464,0,0,0-.45-.443Z" transform="translate(-1640.063 -2733.248)" fill="#fff"/>
            </g>
            <path id="Trazado_30080" data-name="Trazado 30080" d="M1368.814,2622.887h0a1.474,1.474,0,0,1,2.033.553l1.894,3.4a.473.473,0,0,0,.845-.037l4.7-10.458a.524.524,0,0,1,1,.227,20.648,20.648,0,0,1-6.008,14.369s-2.817-1.095-5.085-6.076A1.546,1.546,0,0,1,1368.814,2622.887Z" transform="translate(-1364.364 -2533.766)" fill="url(#linear-gradient-12)"/>
          </g>
          <g id="Grupo_32797" data-name="Grupo 32797" transform="translate(8.983 20.8)">
            <path id="Trazado_30081" data-name="Trazado 30081" d="M1262.331,1137.756l-1.821.042a.8.8,0,0,1-.507-.142.869.869,0,0,1-.293-.374l-1-2.56-5.243.12-.886,2.6a.827.827,0,0,1-.267.374.773.773,0,0,1-.5.178l-1.829.042,4.682-12.77,2.407-.055Zm-8.3-4.592,4.035-.093-1.637-4.175q-.111-.277-.247-.655t-.268-.821q-.113.449-.222.837t-.216.679Z" transform="translate(-1249.981 -1123.383)" fill="url(#linear-gradient-13)"/>
            <path id="Trazado_30082" data-name="Trazado 30082" d="M1447.953,1129.937l.1,4.455-2.354.054-.289-12.656,4.122-.094a7.229,7.229,0,0,1,2.2.247,4.232,4.232,0,0,1,1.551.8,3.26,3.26,0,0,1,.922,1.257,4.759,4.759,0,0,1,.058,3.313,3.5,3.5,0,0,1-.889,1.338,4.28,4.28,0,0,1-1.512.893,6.811,6.811,0,0,1-2.146.355Zm-.042-1.838,1.768-.041a3.543,3.543,0,0,0,1.125-.188,2.1,2.1,0,0,0,.786-.482,1.9,1.9,0,0,0,.456-.746,2.817,2.817,0,0,0,.135-.971,2.552,2.552,0,0,0-.178-.916,1.817,1.817,0,0,0-.489-.689,2.106,2.106,0,0,0-.807-.424,3.745,3.745,0,0,0-1.133-.127l-1.768.04Z" transform="translate(-1431.968 -1120.104)" fill="url(#linear-gradient-14)"/>
            <path id="Trazado_30083" data-name="Trazado 30083" d="M1607,1126.3l.1,4.455-2.354.054-.289-12.656,4.122-.094a7.219,7.219,0,0,1,2.2.247,4.237,4.237,0,0,1,1.551.8,3.262,3.262,0,0,1,.922,1.258,4.762,4.762,0,0,1,.058,3.313,3.5,3.5,0,0,1-.889,1.338,4.282,4.282,0,0,1-1.512.893,6.817,6.817,0,0,1-2.146.356Zm-.042-1.838,1.768-.04a3.549,3.549,0,0,0,1.126-.188,2.093,2.093,0,0,0,.786-.482,1.9,1.9,0,0,0,.456-.746,2.821,2.821,0,0,0,.135-.971,2.555,2.555,0,0,0-.179-.916,1.819,1.819,0,0,0-.489-.689,2.105,2.105,0,0,0-.806-.424,3.746,3.746,0,0,0-1.133-.127l-1.768.041Z" transform="translate(-1580.077 -1116.718)" fill="url(#linear-gradient-15)"/>
            <path id="Trazado_30084" data-name="Trazado 30084" d="M1766.042,1122.25l.113,4.945-2.354.054-.289-12.656,3.86-.088a8.058,8.058,0,0,1,2.225.216,4.232,4.232,0,0,1,1.531.714,2.891,2.891,0,0,1,.893,1.131,4.036,4.036,0,0,1,.149,2.681,3.507,3.507,0,0,1-.519,1.045,3.658,3.658,0,0,1-.857.834,4.586,4.586,0,0,1-1.173.587,2.334,2.334,0,0,1,.787.709l3.275,4.6-2.118.048a1.032,1.032,0,0,1-.524-.111,1.063,1.063,0,0,1-.372-.342l-2.753-3.991a.939.939,0,0,0-.336-.316,1.149,1.149,0,0,0-.532-.084Zm-.039-1.689,1.471-.034a3.643,3.643,0,0,0,1.156-.193,2.244,2.244,0,0,0,.8-.478,1.846,1.846,0,0,0,.461-.707,2.4,2.4,0,0,0,.137-.888,1.8,1.8,0,0,0-.668-1.465,3.036,3.036,0,0,0-1.95-.472l-1.506.034Z" transform="translate(-1728.187 -1113.408)" fill="url(#linear-gradient-16)"/>
            <path id="Trazado_30085" data-name="Trazado 30085" d="M1927.8,1114.537a7.024,7.024,0,0,1-.4,2.588,6.112,6.112,0,0,1-1.257,2.082,5.909,5.909,0,0,1-1.991,1.4,7.306,7.306,0,0,1-5.239.12,5.946,5.946,0,0,1-2.061-1.306,6.066,6.066,0,0,1-1.355-2.022,7.4,7.4,0,0,1-.118-5.155,6.072,6.072,0,0,1,1.262-2.082,5.944,5.944,0,0,1,2-1.4,6.858,6.858,0,0,1,2.61-.546,6.772,6.772,0,0,1,2.628.43,5.99,5.99,0,0,1,2.053,1.306,6.063,6.063,0,0,1,1.351,2.018A7.022,7.022,0,0,1,1927.8,1114.537Zm-2.416.055a5.9,5.9,0,0,0-.318-1.862,3.96,3.96,0,0,0-.824-1.387,3.417,3.417,0,0,0-1.276-.855,4.7,4.7,0,0,0-3.339.077,3.448,3.448,0,0,0-1.245.913,3.972,3.972,0,0,0-.769,1.423,6.379,6.379,0,0,0,.086,3.738,3.925,3.925,0,0,0,.833,1.382,3.471,3.471,0,0,0,1.285.85,4.7,4.7,0,0,0,3.339-.076,3.435,3.435,0,0,0,1.236-.908,3.907,3.907,0,0,0,.76-1.418A5.9,5.9,0,0,0,1925.382,1114.593Z" transform="translate(-1869.222 -1107.552)" fill="url(#linear-gradient-17)"/>
            <path id="Trazado_30086" data-name="Trazado 30086" d="M2101.209,1104.289l1.9-.043a.792.792,0,0,1,.5.137.917.917,0,0,1,.3.378l3.152,7.652q.156.373.3.821t.28.944a10.809,10.809,0,0,1,.458-1.788l2.791-7.788a.91.91,0,0,1,.272-.374.757.757,0,0,1,.5-.178l1.9-.043-4.822,12.773-2.127.049Z" transform="translate(-2042.655 -1103.635)" fill="url(#linear-gradient-18)"/>
            <path id="Trazado_30087" data-name="Trazado 30087" d="M2307.938,1100.915l.042,1.873-5.61.128.08,3.51,4.42-.1.041,1.812-4.42.1.082,3.58,5.61-.128.043,1.882-7.983.182-.289-12.656Z" transform="translate(-2227.73 -1100.756)" fill="url(#linear-gradient-19)"/>
            <path id="Trazado_30088" data-name="Trazado 30088" d="M2457.027,1104.783a6.85,6.85,0,0,1-.405,2.566,5.743,5.743,0,0,1-3.251,3.385,7.1,7.1,0,0,1-2.606.524l-4.832.11-.289-12.656,4.831-.11a7.058,7.058,0,0,1,2.628.408,5.926,5.926,0,0,1,2.051,1.258,5.826,5.826,0,0,1,1.35,1.97A6.838,6.838,0,0,1,2457.027,1104.783Zm-2.407.055a5.82,5.82,0,0,0-.323-1.862,3.961,3.961,0,0,0-.828-1.382,3.449,3.449,0,0,0-1.276-.851,4.327,4.327,0,0,0-1.674-.268l-2.459.056.2,8.91,2.459-.056a4.324,4.324,0,0,0,1.661-.344,3.44,3.44,0,0,0,1.236-.908,3.951,3.951,0,0,0,.764-1.419A5.8,5.8,0,0,0,2454.62,1104.838Z" transform="translate(-2363.397 -1098.599)" fill="url(#linear-gradient-20)"/>
            <path id="Trazado_30089" data-name="Trazado 30089" d="M2633.4,1153.639a1.331,1.331,0,0,1,.089-.519,1.226,1.226,0,0,1,.27-.427,1.384,1.384,0,0,1,.418-.29,1.323,1.323,0,0,1,.523-.117,1.3,1.3,0,0,1,.519.093,1.291,1.291,0,0,1,.716.684,1.334,1.334,0,0,1,.024,1.037,1.327,1.327,0,0,1-.271.422,1.257,1.257,0,0,1-.414.285,1.343,1.343,0,0,1-.514.113,1.373,1.373,0,0,1-.527-.089,1.308,1.308,0,0,1-.43-.266,1.232,1.232,0,0,1-.29-.409A1.328,1.328,0,0,1,2633.4,1153.639Zm.142,6.24a1.353,1.353,0,0,1,.089-.519,1.243,1.243,0,0,1,.271-.427,1.383,1.383,0,0,1,.418-.29,1.324,1.324,0,0,1,.523-.117,1.3,1.3,0,0,1,.519.093,1.287,1.287,0,0,1,.716.684,1.335,1.335,0,0,1,.024,1.037,1.335,1.335,0,0,1-.271.422,1.269,1.269,0,0,1-.414.286,1.35,1.35,0,0,1-.514.113,1.375,1.375,0,0,1-.528-.089,1.311,1.311,0,0,1-.43-.266,1.232,1.232,0,0,1-.29-.41A1.328,1.328,0,0,1,2633.54,1159.88Z" transform="translate(-2538.236 -1148.594)" fill="url(#linear-gradient-21)"/>
          </g>
        </g>
        <path id="Trazado_30090" data-name="Trazado 30090" d="M1907.657,464.522c-4-2.783-7.48-2.728-9.928-2.006a4.885,4.885,0,0,0-3.469,5.135l1.056,11.527,12.567,1.115S1915.5,469.98,1907.657,464.522Zm-5.527,9.3a3.134,3.134,0,1,1,3.133-3.133A3.133,3.133,0,0,1,1902.131,473.821Z" transform="translate(-1436.54 1681.169)" fill="url(#linear-gradient-22)"/>
        <path id="Trazado_30091" data-name="Trazado 30091" d="M1917.859,497.418a.284.284,0,0,1-.282-.258l-.168-1.836a.284.284,0,1,1,.566-.052l.168,1.836a.284.284,0,0,1-.257.309Zm-.329-3.6a.284.284,0,0,1-.283-.258l-.128-1.394a4.642,4.642,0,0,1,3.292-4.872,9.376,9.376,0,0,1,4.584-.189.284.284,0,1,1-.114.557,8.817,8.817,0,0,0-4.309.177,4.073,4.073,0,0,0-2.887,4.275l.128,1.394a.284.284,0,0,1-.257.309Z" transform="translate(-1457.828 1658.061)" fill="#fff"/>
        <path id="Trazado_30092" data-name="Trazado 30092" d="M1660.552,692.4v-5.8a3.536,3.536,0,0,1,3.658-3.534l39.956,1.369a3.44,3.44,0,0,1,3.316,3.232l.334,5.569Z" transform="translate(-1218.928 1475.398)" fill="url(#linear-gradient-23)"/>
        <path id="Trazado_30093" data-name="Trazado 30093" d="M1850.035,706.87h-1.718a.284.284,0,0,1,0-.568h1.718a.284.284,0,1,1,0,.568Z" transform="translate(-1393.512 1453.762)" fill="#fff"/>
        <path id="Trazado_30094" data-name="Trazado 30094" d="M1688.145,712.2a.284.284,0,0,1-.284-.284v-2.344a3.27,3.27,0,0,1,3.266-3.266h6.318a.284.284,0,0,1,0,.568h-6.318a2.7,2.7,0,0,0-2.7,2.7v2.344A.284.284,0,0,1,1688.145,712.2Z" transform="translate(-1244.358 1453.762)" fill="#fff"/>
        <path id="Trazado_30095" data-name="Trazado 30095" d="M1425.5,787.867l69.871,0a5.164,5.164,0,0,1,5.089,4.283l.059.342a4.435,4.435,0,0,1-4.37,5.192h-71.684a2.884,2.884,0,0,1-2.88-3.022l.154-3.208A3.765,3.765,0,0,1,1425.5,787.867Z" transform="translate(-996.395 1377.808)" fill="url(#linear-gradient-24)"/>
        <g id="Grupo_32801" data-name="Grupo 32801" transform="translate(470.019 2281.719)">
          <path id="Trazado_30096" data-name="Trazado 30096" d="M2144.531,2524.417a7.592,7.592,0,0,0,7.736-7.591v-33.78a8.093,8.093,0,0,0-8-8.1c-13.32-.145-40.79-.152-63.267,1.742a6.084,6.084,0,0,0-5.564,5.848l-2.1,32.658a7.733,7.733,0,0,0,7.582,8.011Z" transform="translate(-2073.326 -2474.892)" fill="url(#linear-gradient-25)"/>
          <path id="Trazado_30097" data-name="Trazado 30097" d="M2888.6,2612.13c.057,2.875-.028,7.435-.1,10.382a2.6,2.6,0,0,1-2.906,2.522l-10.961-1.285a2.6,2.6,0,0,1-2.271-2.971l1.345-8.976a2.6,2.6,0,0,1,2.574-2.217H2886A2.6,2.6,0,0,1,2888.6,2612.13Z" transform="translate(-2817.375 -2600.32)" fill="#fff"/>
          <path id="Trazado_30098" data-name="Trazado 30098" d="M2537.668,2505.513l-9.144.987a2.062,2.062,0,0,1-2.277-2.2l2-27.2c3.833-.122,7.614-.21,11.262-.272v26.637A2.062,2.062,0,0,1,2537.668,2505.513Z" transform="translate(-2495.087 -2476.693)" fill="#fff" opacity="0.37"/>
          <path id="Trazado_30099" data-name="Trazado 30099" d="M2613,2501.933a.919.919,0,0,1-.917.867l-.054,0a.919.919,0,0,1-.865-.971l1.379-23.74c.618-.016,1.231-.029,1.845-.043Z" transform="translate(-2574.162 -2477.828)" fill="#fff"/>
          <g id="Grupo_32800" data-name="Grupo 32800" transform="translate(59.121 11.98)">
            <path id="Trazado_30100" data-name="Trazado 30100" d="M3030.95,2661.607a.307.307,0,0,0,.306-.287l.474-7.478a.306.306,0,0,0-.287-.325.3.3,0,0,0-.325.287l-.474,7.478a.306.306,0,0,0,.287.325Z" transform="translate(-3023.912 -2653.21)" fill="url(#linear-gradient-26)"/>
            <path id="Trazado_30101" data-name="Trazado 30101" d="M3016.758,2659.669a.306.306,0,0,0,.307-.3l.249-7.62a.307.307,0,0,0-.3-.317.29.29,0,0,0-.316.3l-.249,7.62a.307.307,0,0,0,.3.317Z" transform="translate(-3010.697 -2651.271)" fill="url(#linear-gradient-27)"/>
            <path id="Trazado_30102" data-name="Trazado 30102" d="M2997.72,2659.675a.305.305,0,0,1-.291-.32c.122-2.56.353-7.442.357-7.609a.307.307,0,0,1,.613,0c0,.126-.3,6.382-.358,7.635a.306.306,0,0,1-.306.292Zm.059-7.926h0Z" transform="translate(-2992.983 -2651.278)" fill="url(#linear-gradient-28)"/>
            <path id="Trazado_30103" data-name="Trazado 30103" d="M2963.865,2657.766a.613.613,0,0,0,.612-.592c.259-7.383.214-7.55.184-7.66a.613.613,0,0,0-1.2.242c.02.444-.117,4.74-.21,7.375a.613.613,0,0,0,.591.634Z" transform="translate(-2961.157 -2649.062)" fill="url(#linear-gradient-29)"/>
            <path id="Trazado_30104" data-name="Trazado 30104" d="M2948.7,2661.613a.306.306,0,0,0,.307-.307v-7.477a.307.307,0,0,0-.613,0v7.477A.306.306,0,0,0,2948.7,2661.613Z" transform="translate(-2947.325 -2653.216)" fill="url(#linear-gradient-30)"/>
            <path id="Trazado_30105" data-name="Trazado 30105" d="M2933.1,2661.375a.307.307,0,0,0,.307-.3c.059-2.6.2-6.842.318-7.352a.306.306,0,0,0-.436-.406c-.167.109-.326.213-.5,7.743a.307.307,0,0,0,.3.314Z" transform="translate(-2932.798 -2652.977)" fill="url(#linear-gradient-31)"/>
            <path id="Trazado_30106" data-name="Trazado 30106" d="M3050.772,2658.133a.613.613,0,0,0,.612-.581l.409-7.851a.614.614,0,0,0-.581-.645.621.621,0,0,0-.645.581l-.409,7.852a.613.613,0,0,0,.581.644Z" transform="translate(-3042.085 -2649.054)" fill="url(#linear-gradient-32)"/>
          </g>
        </g>
        <g id="Grupo_32803" data-name="Grupo 32803" transform="translate(487.639 2247.391)">
          <path id="Trazado_30107" data-name="Trazado 30107" d="M2384.917,2005.289v-23.723a5.684,5.684,0,0,0-5.622-5.687c-9.354-.1-28.646-.107-44.431,1.223a4.273,4.273,0,0,0-3.907,4.107l-1.475,22.935a5.43,5.43,0,0,0,5.324,5.626l44.678.849A5.332,5.332,0,0,0,2384.917,2005.289Z" transform="translate(-2329.478 -1975.839)" fill="url(#linear-gradient-33)"/>
          <path id="Trazado_30108" data-name="Trazado 30108" d="M2902.025,2072.219c.039,2.019-.02,5.221-.069,7.291a1.828,1.828,0,0,1-2.041,1.772l-7.7-.9a1.828,1.828,0,0,1-1.595-2.086l.945-6.3a1.828,1.828,0,0,1,1.808-1.557h6.822A1.826,1.826,0,0,1,2902.025,2072.219Z" transform="translate(-2852.004 -2063.925)" fill="#fff"/>
          <path id="Trazado_30109" data-name="Trazado 30109" d="M2655.574,1997.344l-6.421.693a1.448,1.448,0,0,1-1.6-1.545l1.4-19.1c2.692-.085,5.347-.148,7.909-.191V1995.9A1.447,1.447,0,0,1,2655.574,1997.344Z" transform="translate(-2625.67 -1977.104)" fill="#fff" opacity="0.37"/>
          <path id="Trazado_30110" data-name="Trazado 30110" d="M2708.475,1994.831a.646.646,0,0,1-.645.608h-.038a.646.646,0,0,1-.607-.682l.968-16.672,1.3-.03Z" transform="translate(-2681.203 -1977.902)" fill="#fff"/>
          <g id="Grupo_32802" data-name="Grupo 32802" transform="translate(41.519 8.413)">
            <path id="Trazado_30111" data-name="Trazado 30111" d="M3001.993,2106.966a.216.216,0,0,0,.215-.2l.333-5.251a.215.215,0,0,0-.2-.229.21.21,0,0,0-.229.2l-.333,5.251a.216.216,0,0,0,.2.229Z" transform="translate(-2997.051 -2101.068)" fill="url(#linear-gradient-34)"/>
            <path id="Trazado_30112" data-name="Trazado 30112" d="M2992.027,2105.6a.216.216,0,0,0,.216-.208l.174-5.352a.216.216,0,0,0-.208-.222.2.2,0,0,0-.222.208l-.174,5.352a.215.215,0,0,0,.208.222Z" transform="translate(-2987.771 -2099.707)" fill="url(#linear-gradient-35)"/>
            <path id="Trazado_30113" data-name="Trazado 30113" d="M2978.657,2105.608a.214.214,0,0,1-.2-.225c.085-1.8.248-5.226.251-5.344a.215.215,0,0,1,.431,0c0,.089-.209,4.482-.252,5.362a.215.215,0,0,1-.214.205Zm.042-5.566h0Z" transform="translate(-2975.33 -2099.711)" fill="url(#linear-gradient-36)"/>
            <path id="Trazado_30114" data-name="Trazado 30114" d="M2954.882,2104.268a.43.43,0,0,0,.43-.416c.182-5.185.15-5.3.129-5.379a.431.431,0,0,0-.842.17c.014.311-.083,3.328-.147,5.179a.43.43,0,0,0,.415.446Z" transform="translate(-2952.979 -2098.155)" fill="url(#linear-gradient-37)"/>
            <path id="Trazado_30115" data-name="Trazado 30115" d="M2944.235,2106.97a.215.215,0,0,0,.215-.215v-5.25a.215.215,0,1,0-.43,0v5.25A.215.215,0,0,0,2944.235,2106.97Z" transform="translate(-2943.266 -2101.072)" fill="url(#linear-gradient-38)"/>
            <path id="Trazado_30116" data-name="Trazado 30116" d="M2933.278,2106.8a.215.215,0,0,0,.216-.21c.041-1.825.137-4.805.224-5.163a.215.215,0,0,0-.306-.285c-.117.077-.228.149-.348,5.438a.215.215,0,0,0,.21.22Z" transform="translate(-2933.063 -2100.905)" fill="url(#linear-gradient-39)"/>
            <path id="Trazado_30117" data-name="Trazado 30117" d="M3015.913,2104.526a.431.431,0,0,0,.43-.408l.287-5.514a.431.431,0,0,0-.408-.453.436.436,0,0,0-.452.408l-.287,5.514a.43.43,0,0,0,.408.452Z" transform="translate(-3009.813 -2098.15)" fill="url(#linear-gradient-40)"/>
          </g>
        </g>
        <g id="Grupo_32805" data-name="Grupo 32805" transform="translate(461.717 2296.371)">
          <path id="Trazado_30118" data-name="Trazado 30118" d="M2000.548,2717.347v-23.723c0-3.117-2.165-5.653-4.858-5.687-8.084-.1-24.756-.107-38.4,1.223a4.054,4.054,0,0,0-3.377,4.107l-1.275,22.936c-.095,3.034,1.978,5.568,4.6,5.626l38.612.849C1998.432,2722.734,2000.548,2720.33,2000.548,2717.347Z" transform="translate(-1952.636 -2687.896)" fill="url(#linear-gradient-41)"/>
          <path id="Trazado_30119" data-name="Trazado 30119" d="M2447.448,2784.276c.034,2.018-.017,5.221-.06,7.291a1.675,1.675,0,0,1-1.763,1.771l-6.653-.9a1.8,1.8,0,0,1-1.378-2.086l.817-6.3a1.673,1.673,0,0,1,1.562-1.557h5.9A1.709,1.709,0,0,1,2447.448,2784.276Z" transform="translate(-2404.219 -2775.982)" fill="#fff"/>
          <path id="Trazado_30120" data-name="Trazado 30120" d="M2234.458,2709.4l-5.549.693a1.352,1.352,0,0,1-1.382-1.546l1.213-19.1c2.327-.085,4.621-.147,6.835-.191v18.706A1.387,1.387,0,0,1,2234.458,2709.4Z" transform="translate(-2208.614 -2689.161)" fill="#fff" opacity="0.37"/>
          <path id="Trazado_30121" data-name="Trazado 30121" d="M2280.175,2706.888a.6.6,0,0,1-.556.608h-.032a.618.618,0,0,1-.525-.682l.837-16.671,1.12-.03Z" transform="translate(-2256.607 -2689.959)" fill="#fff"/>
          <g id="Grupo_32804" data-name="Grupo 32804" transform="translate(35.882 8.413)">
            <path id="Trazado_30122" data-name="Trazado 30122" d="M2533.841,2819.023a.2.2,0,0,0,.186-.2l.288-5.251a.207.207,0,0,0-.174-.228.193.193,0,0,0-.2.2l-.288,5.251a.207.207,0,0,0,.174.229Z" transform="translate(-2529.57 -2813.125)" fill="url(#linear-gradient-42)"/>
            <path id="Trazado_30123" data-name="Trazado 30123" d="M2525.229,2817.661a.2.2,0,0,0,.186-.208l.151-5.351a.205.205,0,0,0-.18-.223c-.119-.007-.189.09-.192.208l-.151,5.352a.2.2,0,0,0,.18.222Z" transform="translate(-2521.55 -2811.764)" fill="url(#linear-gradient-43)"/>
            <path id="Trazado_30124" data-name="Trazado 30124" d="M2513.674,2817.666a.205.205,0,0,1-.177-.225c.074-1.8.214-5.226.217-5.344a.188.188,0,1,1,.372,0c0,.089-.181,4.482-.217,5.362a.2.2,0,0,1-.185.205Zm.036-5.567h0Z" transform="translate(-2510.798 -2811.769)" fill="url(#linear-gradient-44)"/>
            <path id="Trazado_30125" data-name="Trazado 30125" d="M2493.126,2816.325a.4.4,0,0,0,.372-.416c.157-5.185.13-5.3.111-5.379a.369.369,0,0,0-.456-.3.434.434,0,0,0-.271.473c.012.311-.072,3.328-.127,5.178a.409.409,0,0,0,.358.446Z" transform="translate(-2491.483 -2810.212)" fill="url(#linear-gradient-45)"/>
            <path id="Trazado_30126" data-name="Trazado 30126" d="M2483.926,2819.027a.2.2,0,0,0,.186-.215v-5.251a.188.188,0,1,0-.372,0v5.251A.2.2,0,0,0,2483.926,2819.027Z" transform="translate(-2483.089 -2813.129)" fill="url(#linear-gradient-46)"/>
            <path id="Trazado_30127" data-name="Trazado 30127" d="M2474.458,2818.859a.2.2,0,0,0,.186-.21c.036-1.824.119-4.805.193-5.163a.246.246,0,0,0-.007-.223.171.171,0,0,0-.258-.062c-.1.077-.2.149-.3,5.438a.2.2,0,0,0,.182.22Z" transform="translate(-2474.271 -2812.962)" fill="url(#linear-gradient-47)"/>
            <path id="Trazado_30128" data-name="Trazado 30128" d="M2545.873,2816.582a.4.4,0,0,0,.371-.408l.248-5.514a.411.411,0,0,0-.353-.452.4.4,0,0,0-.391.407l-.249,5.514a.412.412,0,0,0,.353.452Z" transform="translate(-2540.6 -2810.207)" fill="url(#linear-gradient-48)"/>
          </g>
        </g>
        <path id="Trazado_30129" data-name="Trazado 30129" d="M1376.079,2350.647l-45.778,49.824a4.868,4.868,0,0,0,.58,7.124l.367.288a4.525,4.525,0,0,0,6.372-.79l41.645-53.785Z" transform="translate(-910.198 -77.474)" fill="url(#linear-gradient-49)"/>
        <path id="Trazado_71696" data-name="Trazado 71696" d="M37.04,0C57.5,0,74.08,16.284,74.08,36.372S57.5,72.744,37.04,72.744,0,56.459,0,36.372,16.583,0,37.04,0Z" transform="translate(441.633 2230.368) rotate(-27.426)" fill="#fff" opacity="0.27"/>
        <path id="Trazado_30130" data-name="Trazado 30130" d="M1807.578,1363.607c-20.2,10.484-28.238,35.067-17.943,54.907s35.02,27.425,55.224,16.941,28.238-35.067,17.943-54.907S1827.783,1353.123,1807.578,1363.607Zm34.543,66.57c-17.236,8.944-38.329,2.474-47.112-14.452s-1.929-37.9,15.307-46.841,38.33-2.473,47.112,14.452S1859.358,1421.233,1842.121,1430.177Z" transform="translate(-1334.956 846.061)" fill="url(#linear-gradient-50)"/>
        <path id="Trazado_30131" data-name="Trazado 30131" d="M1831.381,1457.776a.105.105,0,0,1-.1-.044c-.547-.791-1.071-1.614-1.557-2.446a.106.106,0,0,1,.183-.106c.483.828,1,1.647,1.548,2.433a.105.105,0,0,1-.027.147A.1.1,0,0,1,1831.381,1457.776Zm-4.961-10.175a.105.105,0,0,1-.115-.073,37.132,37.132,0,0,1-1.524-7.743,37.907,37.907,0,0,1,4.532-21.51,39.1,39.1,0,0,1,37.333-20.172.106.106,0,0,1-.017.211,38.891,38.891,0,0,0-37.13,20.063,37.694,37.694,0,0,0-4.507,21.39,36.891,36.891,0,0,0,1.516,7.7.106.106,0,0,1-.07.132Z" transform="translate(-1371.724 809.665)" fill="#fff"/>
        <path id="Trazado_30132" data-name="Trazado 30132" d="M1355.616,3011.443c-1.99.278-3.374-.237-4.118-1.529a3.637,3.637,0,0,1,.494-4.2l5.405-6.158a.089.089,0,1,1,.134.118l-5.405,6.159a3.458,3.458,0,0,0-.473,4c.711,1.236,2.05,1.72,4,1.433h0a.089.089,0,0,1,.025.177Z" transform="translate(-930.708 -681.714)" fill="#fff"/>
        <path id="Trazado_30133" data-name="Trazado 30133" d="M1467.42,2961.306a.089.089,0,0,1-.08-.148l.7-.8a.09.09,0,0,1,.135.118l-.7.8A.093.093,0,0,1,1467.42,2961.306Z" transform="translate(-1038.985 -645.219)" fill="#fff"/>
        <path id="Trazado_30134" data-name="Trazado 30134" d="M1005.134,1908.685s0,12.45-5.458,11.435c-3.335-.62-5.309-14.031-5.309-14.031s3.45-7.685,3.836-5.17C1001,1919.206,1003.09,1905.209,1005.134,1908.685Z" transform="translate(-598.567 341.79)" fill="url(#linear-gradient-51)"/>
        <path id="Trazado_30135" data-name="Trazado 30135" d="M929.389,3094.959s-.412,2.333-.614,4.643a1.591,1.591,0,0,0,1.522,1.724c3.076.129,9.655.377,12.016.272a.518.518,0,0,0,.456-.709h0a1.159,1.159,0,0,0-.593-.625l-10.868-4.995Z" transform="translate(-537.481 -770.587)" fill="url(#linear-gradient-52)"/>
        <path id="Trazado_30136" data-name="Trazado 30136" d="M932.878,3069.2l.331,2.791s1.9.886,3.2-.112l-.788-3.11Z" transform="translate(-541.308 -746.194)" fill="url(#linear-gradient-53)"/>
        <path id="Trazado_30137" data-name="Trazado 30137" d="M819.653,2312.243c-.143.729-.768,36.369,3.042,52.341a.542.542,0,0,1-.318.63,9.437,9.437,0,0,1-3.1.631.934.934,0,0,1-.926-.671c-1.089-3.705-6.307-22.272-6.988-40.008-.761-19.818,0-.675,0-.675l.446-12.251Z" transform="translate(-427.834 -41.711)" fill="url(#linear-gradient-54)"/>
        <path id="Trazado_30138" data-name="Trazado 30138" d="M738.3,3112.655a16.788,16.788,0,0,0-1.291,4.308.971.971,0,0,0,.854,1.163c1.016.1,2.579.228,3.832.219a.968.968,0,0,0,.958-1.08,8.164,8.164,0,0,0-1.906-4.478Z" transform="translate(-358.893 -787.065)" fill="url(#linear-gradient-55)"/>
        <path id="Trazado_30139" data-name="Trazado 30139" d="M747.672,3058.251l.774,4.22a2.728,2.728,0,0,0,2.278.157l-.369-4.541Z" transform="translate(-368.842 -736.251)" fill="url(#linear-gradient-56)"/>
        <path id="Trazado_30140" data-name="Trazado 30140" d="M701.048,2301.46c-3.116,18.8.676,46.476,1.955,51.892a.845.845,0,0,0,.682.642,5.668,5.668,0,0,0,2.437-.1.773.773,0,0,0,.556-.713c.172-4.378-.137-31.26,2.766-41.884a2.413,2.413,0,0,1,.931-1.331l5.635-4.006.432-6.475Z" transform="translate(-324.308 -29.834)" fill="url(#linear-gradient-57)"/>
        <g id="Grupo_32808" data-name="Grupo 32808" transform="translate(375.577 2236.44)">
          <path id="Trazado_30141" data-name="Trazado 30141" d="M721.732,1816.906a52.647,52.647,0,0,0-19.984,1.742c-2.783,16.241-.487,34.973-.487,34.973,7.229,1.9,15.384-1.159,15.384-1.159,1.2-6.788,6.208-22.463,6.208-22.463,2.281-.283,4.422.869,3.93-2.3S723.165,1817.05,721.732,1816.906Z" transform="translate(-700.371 -1816.641)" fill="url(#linear-gradient-58)"/>
        </g>
        <path id="Trazado_30142" data-name="Trazado 30142" d="M586.485,1854.869l-3.582-9.041s-8.722,5.926-10.156,13.439a20.639,20.639,0,0,1,7.582,2.032C580.974,1857.751,586.485,1854.869,586.485,1854.869Z" transform="translate(-205.949 392.62)" fill="url(#linear-gradient-59)"/>
        <path id="Trazado_30143" data-name="Trazado 30143" d="M592.26,2045.317s-10.075,5.519-13.379.793a5.028,5.028,0,0,1-1.134-3.214,19.061,19.061,0,0,0-7.605-1.689c-.433,2.265-.211,4.189,1.443,7.285,4.423,8.28,21.971-.761,21.971-.761Z" transform="translate(-203.345 210.68)" fill="url(#linear-gradient-60)"/>
        <g id="Grupo_32809" data-name="Grupo 32809" transform="translate(388.515 2242.008)">
          <path id="Trazado_30144" data-name="Trazado 30144" d="M900.691,1934.5l4.28-14.946a.436.436,0,0,1,.369-.314c.776-.091,3.023-.345,5.617-.564a63.757,63.757,0,0,1,8.922-.3.438.438,0,0,1,.358.629c-1.233,2.495-6.306,12.643-8.846,15.968a.438.438,0,0,1-.353.173l-9.93-.092A.437.437,0,0,1,900.691,1934.5Z" transform="translate(-899.833 -1916.889)" fill="url(#linear-gradient-61)"/>
          <path id="Trazado_30145" data-name="Trazado 30145" d="M1053.933,1898.1l3.047-.508a.219.219,0,0,1,.244.284l-.3.914a.219.219,0,0,1-.179.148l-2.932.392a.219.219,0,0,1-.242-.266l.187-.8A.218.218,0,0,1,1053.933,1898.1Z" transform="translate(-1042.206 -1897.59)" fill="url(#linear-gradient-62)"/>
          <path id="Trazado_30146" data-name="Trazado 30146" d="M1025.695,1913.04l.251-1.308a.3.3,0,0,1,.266-.243l6.154-.624a.3.3,0,0,1,.325.371l-.392,1.629a.3.3,0,0,1-.279.231l-6.014.3A.3.3,0,0,1,1025.695,1913.04Z" transform="translate(-1016.25 -1909.95)" fill="url(#linear-gradient-63)"/>
          <path id="Trazado_30147" data-name="Trazado 30147" d="M889.733,2051.057a.85.85,0,0,1-.9-.681,10.408,10.408,0,0,1-.3-3.488c.3-1.086.882-2.482,2.822-2.172a28.383,28.383,0,0,1,4.227,1.127,1.11,1.11,0,0,1-1.59.958l.914.707s-.131,1.133-1.376.527l.85.938a.991.991,0,0,1-1.451.334C892.109,2048.774,891.672,2050.87,889.733,2051.057Z" transform="translate(-888.46 -2034.555)" fill="url(#linear-gradient-64)"/>
          <path id="Trazado_30148" data-name="Trazado 30148" d="M1066.245,1961.276s2.257-2.2,2.579-3.278.572-2.572-1.236-3.339a28.387,28.387,0,0,0-4.18-1.291,1.11,1.11,0,0,0,.838,1.656l-1.15.114s-.491,1.029.885,1.178l-1.219.343a.991.991,0,0,0,1.052,1.053C1064.907,1957.694,1063.849,1960.209,1066.245,1961.276Z" transform="translate(-1050.772 -1949.532)" fill="url(#linear-gradient-65)"/>
        </g>
        <path id="Trazado_30149" data-name="Trazado 30149" d="M833.973,1716.841,831,1725.433a.31.31,0,0,0,.141.373,6.984,6.984,0,0,0,7.244-.487,1.457,1.457,0,0,0,.671-1.041l.962-7.436Z" transform="translate(-446.423 512.734)" fill="url(#linear-gradient-66)"/>
        <g id="Grupo_32810" data-name="Grupo 32810" transform="translate(383.466 2220.519)">
          <path id="Trazado_30150" data-name="Trazado 30150" d="M876.2,1650.44s-.96,6.888-2.754,8.651-4.964-.752-6.642-4.455l1.891-6.818Z" transform="translate(-863.247 -1643.511)" fill="url(#linear-gradient-67)"/>
          <path id="Trazado_30151" data-name="Trazado 30151" d="M820.652,1593.768a.253.253,0,0,0,.307-.235,6.6,6.6,0,0,1,.4-2.093s-.255-.648,1.721.168,4.94,2.01,6.506.959c1.527-1.025,2.72-5.519-1.465-4.281a.253.253,0,0,1-.326-.233,2.61,2.61,0,0,0-1.969-2.7,2.394,2.394,0,0,0-2.684.912.252.252,0,0,1-.393.034,2.919,2.919,0,0,0-3.693-.712c-1.46.83-1.6,1.8-1.517,2.381a.252.252,0,0,1-.333.276,1.519,1.519,0,0,0-1.885.775c-.87,1.352.667,2.29,1.123,2.531a.254.254,0,0,1,.135.2c.07.65.462,3.475,2.047,4.929a.255.255,0,0,0,.415-.116l.828-2.719a.255.255,0,0,1,.3-.175Z" transform="translate(-815.055 -1585.188)" fill="url(#linear-gradient-68)"/>
          <path id="Trazado_30152" data-name="Trazado 30152" d="M868.281,1692.05s-.946-2.653-1.871-1.666.554,2.8,1.755,3.053Z" transform="translate(-862.607 -1682.943)" fill="url(#linear-gradient-69)"/>
        </g>
        <path id="Trazado_71697" data-name="Trazado 71697" d="M1.063,18.49V16.75a3.38,3.38,0,0,0,.716.475,5.8,5.8,0,0,0,.879.356,7,7,0,0,0,.927.224,5.17,5.17,0,0,0,.861.079,3.374,3.374,0,0,0,2.035-.505,1.9,1.9,0,0,0,.448-2.342,2.525,2.525,0,0,0-.62-.69,6.148,6.148,0,0,0-.936-.6q-.541-.286-1.165-.6-.659-.334-1.23-.677a5.332,5.332,0,0,1-.993-.756,3.153,3.153,0,0,1-.664-.936,2.9,2.9,0,0,1-.242-1.226,2.883,2.883,0,0,1,.378-1.5A3.242,3.242,0,0,1,2.452,7a4.5,4.5,0,0,1,1.4-.615,6.419,6.419,0,0,1,1.6-.2,6.147,6.147,0,0,1,2.716.448V8.295a4.923,4.923,0,0,0-2.865-.773,4.712,4.712,0,0,0-.967.1,2.731,2.731,0,0,0-.861.33,1.908,1.908,0,0,0-.615.589,1.563,1.563,0,0,0-.237.879,1.809,1.809,0,0,0,.18.835,2.046,2.046,0,0,0,.532.642,5.3,5.3,0,0,0,.857.563q.505.272,1.165.6.677.334,1.283.7a5.865,5.865,0,0,1,1.063.817,3.632,3.632,0,0,1,.725.993A2.792,2.792,0,0,1,8.7,15.818,3.165,3.165,0,0,1,8.336,17.4a2.993,2.993,0,0,1-.984,1.05,4.3,4.3,0,0,1-1.428.584,7.822,7.822,0,0,1-1.705.18,6.948,6.948,0,0,1-.738-.048q-.439-.048-.9-.141a7.315,7.315,0,0,1-.866-.229A2.694,2.694,0,0,1,1.063,18.49ZM18.3,19H16.857V17.576h-.035a2.96,2.96,0,0,1-2.777,1.635q-3.217,0-3.217-3.832V10h1.433v5.15Q12.261,18,14.44,18a2.205,2.205,0,0,0,1.736-.778,2.976,2.976,0,0,0,.681-2.035V10H18.3Zm15.688,0H32.546V13.832a3.9,3.9,0,0,0-.461-2.162A1.75,1.75,0,0,0,30.533,11a1.921,1.921,0,0,0-1.569.844,3.228,3.228,0,0,0-.646,2.021V19H26.877V13.656Q26.877,11,24.829,11a1.9,1.9,0,0,0-1.564.8,3.288,3.288,0,0,0-.615,2.07V19H21.208V10h1.441v1.424h.035a3.058,3.058,0,0,1,2.795-1.635,2.6,2.6,0,0,1,2.549,1.863,3.212,3.212,0,0,1,2.988-1.863q2.971,0,2.971,3.665Zm9.167,0H41.713V17.594h-.035a3.018,3.018,0,0,1-2.769,1.617,2.959,2.959,0,0,1-2.1-.712,2.466,2.466,0,0,1-.76-1.89q0-2.522,2.971-2.936l2.7-.378Q41.713,11,39.858,11a4.431,4.431,0,0,0-2.936,1.107V10.633a5.577,5.577,0,0,1,3.059-.844q3.173,0,3.173,3.357Zm-1.441-4.553-2.171.3a3.525,3.525,0,0,0-1.512.5,1.432,1.432,0,0,0-.51,1.261,1.374,1.374,0,0,0,.47,1.077A1.817,1.817,0,0,0,39.243,18a2.314,2.314,0,0,0,1.771-.751,2.685,2.685,0,0,0,.7-1.9ZM58.482,19H57.041V17.471h-.035a3.327,3.327,0,0,1-3.094,1.74A3.362,3.362,0,0,1,51.2,18a4.958,4.958,0,0,1-1.015-3.292,5.394,5.394,0,0,1,1.125-3.577,3.71,3.71,0,0,1,3-1.345,2.885,2.885,0,0,1,2.7,1.459h.035V5.676h1.441Zm-1.441-4.069V13.6a2.575,2.575,0,0,0-.721-1.846A2.417,2.417,0,0,0,54.492,11a2.489,2.489,0,0,0-2.074.967,4.237,4.237,0,0,0-.756,2.672,3.81,3.81,0,0,0,.725,2.457,2.37,2.37,0,0,0,1.947.9,2.462,2.462,0,0,0,1.956-.87A3.242,3.242,0,0,0,57.041,14.931Zm11.593-.07H62.279a3.366,3.366,0,0,0,.809,2.32A2.788,2.788,0,0,0,65.215,18a4.422,4.422,0,0,0,2.795-1V18.35a5.224,5.224,0,0,1-3.138.861,3.8,3.8,0,0,1-3-1.226,5.018,5.018,0,0,1-1.09-3.45,4.921,4.921,0,0,1,1.191-3.423,3.819,3.819,0,0,1,2.958-1.323,3.384,3.384,0,0,1,2.733,1.143,4.764,4.764,0,0,1,.967,3.173Zm-1.477-1.222a2.933,2.933,0,0,0-.6-1.942A2.051,2.051,0,0,0,64.907,11a2.328,2.328,0,0,0-1.731.729,3.31,3.31,0,0,0-.879,1.907Zm12.762,5.273a2.779,2.779,0,0,1-1.345.281q-2.364,0-2.364-2.637V11.23H74.663V10H76.21V7.8l1.441-.466V10h2.268v1.23H77.651V16.3a2.1,2.1,0,0,0,.308,1.292,1.228,1.228,0,0,0,1.02.387,1.515,1.515,0,0,0,.94-.3Zm9.158-4.052H82.723a3.366,3.366,0,0,0,.809,2.32A2.788,2.788,0,0,0,85.658,18a4.422,4.422,0,0,0,2.795-1V18.35a5.224,5.224,0,0,1-3.138.861,3.8,3.8,0,0,1-3-1.226,5.018,5.018,0,0,1-1.09-3.45,4.921,4.921,0,0,1,1.191-3.423,3.819,3.819,0,0,1,2.958-1.323,3.384,3.384,0,0,1,2.733,1.143,4.764,4.764,0,0,1,.967,3.173ZM87.6,13.639A2.933,2.933,0,0,0,87,11.7,2.051,2.051,0,0,0,85.351,11a2.328,2.328,0,0,0-1.731.729,3.31,3.31,0,0,0-.879,1.907Zm7.418,5.572a4.175,4.175,0,0,1-3.186-1.261,4.672,4.672,0,0,1-1.191-3.344,4.867,4.867,0,0,1,1.239-3.542,4.455,4.455,0,0,1,3.349-1.274,4.037,4.037,0,0,1,3.142,1.239A4.914,4.914,0,0,1,99.5,14.465a4.835,4.835,0,0,1-1.217,3.45A4.265,4.265,0,0,1,95.019,19.211ZM95.124,11a2.742,2.742,0,0,0-2.2.945,3.88,3.88,0,0,0-.809,2.606,3.67,3.67,0,0,0,.817,2.522A2.778,2.778,0,0,0,95.124,18a2.635,2.635,0,0,0,2.149-.905,3.928,3.928,0,0,0,.751-2.575,4,4,0,0,0-.751-2.6A2.623,2.623,0,0,0,95.124,11Zm11.373.457a1.763,1.763,0,0,0-1.09-.29,1.839,1.839,0,0,0-1.542.87,4.023,4.023,0,0,0-.62,2.373V19H101.8V10h1.441v1.854h.035a3.143,3.143,0,0,1,.94-1.481,2.144,2.144,0,0,1,1.415-.532,2.353,2.353,0,0,1,.861.123ZM109.5,19h-1.441V10H109.5Zm1.292-13.588-2.3,2.883h-1.116l1.96-2.883ZM118.863,19h-1.441V17.594h-.035a3.018,3.018,0,0,1-2.769,1.617,2.959,2.959,0,0,1-2.1-.712,2.466,2.466,0,0,1-.76-1.89q0-2.522,2.971-2.936l2.7-.378q0-2.294-1.854-2.294a4.431,4.431,0,0,0-2.936,1.107V10.633a5.577,5.577,0,0,1,3.059-.844q3.173,0,3.173,3.357Zm-1.441-4.553-2.171.3a3.525,3.525,0,0,0-1.512.5,1.432,1.432,0,0,0-.51,1.261,1.374,1.374,0,0,0,.47,1.077,1.817,1.817,0,0,0,1.252.417,2.314,2.314,0,0,0,1.771-.751,2.685,2.685,0,0,0,.7-1.9Zm3.612,4.228V17.128a4.266,4.266,0,0,0,2.593.87q1.9,0,1.9-1.266a1.1,1.1,0,0,0-.163-.611,1.62,1.62,0,0,0-.439-.444,3.383,3.383,0,0,0-.65-.347q-.374-.154-.8-.321a10.357,10.357,0,0,1-1.05-.479,3.173,3.173,0,0,1-.756-.545,2.028,2.028,0,0,1-.457-.69,2.441,2.441,0,0,1-.154-.905,2.15,2.15,0,0,1,.29-1.121,2.572,2.572,0,0,1,.773-.817,3.607,3.607,0,0,1,1.1-.5,4.893,4.893,0,0,1,1.279-.167,5.164,5.164,0,0,1,2.092.4v1.459A4.077,4.077,0,0,0,124.3,11a2.671,2.671,0,0,0-.729.092,1.786,1.786,0,0,0-.558.259,1.2,1.2,0,0,0-.36.4,1.053,1.053,0,0,0-.127.514,1.233,1.233,0,0,0,.127.589,1.3,1.3,0,0,0,.374.422,2.855,2.855,0,0,0,.6.334q.352.149.8.325a11.131,11.131,0,0,1,1.072.47,3.678,3.678,0,0,1,.809.545,2.129,2.129,0,0,1,.514.7,2.254,2.254,0,0,1,.18.94,2.217,2.217,0,0,1-.294,1.16,2.523,2.523,0,0,1-.787.817,3.6,3.6,0,0,1-1.134.483,5.6,5.6,0,0,1-1.345.158A5.106,5.106,0,0,1,121.034,18.675ZM141.311,10l-4.14,10.441q-1.107,2.795-3.111,2.795a3.3,3.3,0,0,1-.94-.114V21.83a2.672,2.672,0,0,0,.853.158,1.767,1.767,0,0,0,1.635-1.3l.721-1.705L132.812,10h1.6l2.435,6.926q.044.132.185.686h.053q.044-.211.176-.668L139.816,10Zm7.954,7.7h-.035v5.44h-1.441V10h1.441v1.582h.035a3.408,3.408,0,0,1,3.111-1.793A3.3,3.3,0,0,1,155.092,11a5.005,5.005,0,0,1,.976,3.239,5.578,5.578,0,0,1-1.1,3.617,3.658,3.658,0,0,1-3.006,1.358A3.011,3.011,0,0,1,149.265,17.7Zm-.035-3.63v1.257a2.676,2.676,0,0,0,.725,1.894A2.587,2.587,0,0,0,153.848,17a4.6,4.6,0,0,0,.743-2.786,3.629,3.629,0,0,0-.694-2.355A2.3,2.3,0,0,0,152.016,11a2.554,2.554,0,0,0-2.021.875A3.211,3.211,0,0,0,149.229,14.069Zm13.834-2.61a1.763,1.763,0,0,0-1.09-.29,1.839,1.839,0,0,0-1.542.87,4.023,4.023,0,0,0-.62,2.373V19H158.37V10h1.441v1.854h.035a3.143,3.143,0,0,1,.94-1.481,2.144,2.144,0,0,1,1.415-.532,2.353,2.353,0,0,1,.861.123ZM171.07,19h-1.441V17.594h-.035a3.018,3.018,0,0,1-2.769,1.617,2.959,2.959,0,0,1-2.1-.712,2.466,2.466,0,0,1-.76-1.89q0-2.522,2.971-2.936l2.7-.378q0-2.294-1.854-2.294a4.431,4.431,0,0,0-2.936,1.107V10.633a5.577,5.577,0,0,1,3.059-.844q3.173,0,3.173,3.357Zm-1.441-4.553-2.171.3a3.525,3.525,0,0,0-1.512.5,1.432,1.432,0,0,0-.51,1.261,1.374,1.374,0,0,0,.47,1.077,1.817,1.817,0,0,0,1.252.417,2.314,2.314,0,0,0,1.771-.751,2.685,2.685,0,0,0,.7-1.9Zm.193-9.035-2.3,2.883H166.4l1.96-2.883Zm10.1,13.175a4.684,4.684,0,0,1-2.461.624,4.074,4.074,0,0,1-3.107-1.252,4.539,4.539,0,0,1-1.182-3.248,4.99,4.99,0,0,1,1.274-3.573,4.458,4.458,0,0,1,3.4-1.349,4.735,4.735,0,0,1,2.092.439v1.477a3.665,3.665,0,0,0-2.145-.7,2.9,2.9,0,0,0-2.263.989,3.752,3.752,0,0,0-.883,2.6,3.573,3.573,0,0,0,.831,2.5,2.863,2.863,0,0,0,2.228.914,3.613,3.613,0,0,0,2.215-.782Zm6.354.325a2.779,2.779,0,0,1-1.345.281q-2.364,0-2.364-2.637V11.23H181.02V10h1.547V7.8l1.441-.466V10h2.268v1.23h-2.268V16.3a2.1,2.1,0,0,0,.308,1.292,1.228,1.228,0,0,0,1.02.387,1.515,1.515,0,0,0,.94-.3Zm2.663-11.2a.913.913,0,0,1-.659-.264.89.89,0,0,1-.272-.668.923.923,0,0,1,.932-.94.931.931,0,0,1,.672.268.939.939,0,0,1,0,1.332A.923.923,0,0,1,188.938,7.715Zm.7,11.285H188.2V10h1.441Zm9.053-.413a4.684,4.684,0,0,1-2.461.624,4.074,4.074,0,0,1-3.107-1.252,4.539,4.539,0,0,1-1.182-3.248,4.99,4.99,0,0,1,1.274-3.573,4.458,4.458,0,0,1,3.4-1.349,4.735,4.735,0,0,1,2.092.439v1.477a3.665,3.665,0,0,0-2.145-.7,2.9,2.9,0,0,0-2.263.989,3.752,3.752,0,0,0-.883,2.6,3.573,3.573,0,0,0,.831,2.5,2.863,2.863,0,0,0,2.228.914,3.613,3.613,0,0,0,2.215-.782Zm8.622.413h-1.441V17.594h-.035a3.018,3.018,0,0,1-2.769,1.617,2.959,2.959,0,0,1-2.1-.712,2.466,2.466,0,0,1-.76-1.89q0-2.522,2.971-2.936l2.7-.378q0-2.294-1.854-2.294a4.431,4.431,0,0,0-2.936,1.107V10.633a5.577,5.577,0,0,1,3.059-.844q3.173,0,3.173,3.357Zm-1.441-4.553-2.171.3a3.525,3.525,0,0,0-1.512.5,1.432,1.432,0,0,0-.51,1.261,1.374,1.374,0,0,0,.47,1.077,1.817,1.817,0,0,0,1.252.417,2.314,2.314,0,0,0,1.771-.751,2.685,2.685,0,0,0,.7-1.9Zm3.612,4.228V17.128a4.266,4.266,0,0,0,2.593.87q1.9,0,1.9-1.266a1.1,1.1,0,0,0-.163-.611,1.62,1.62,0,0,0-.439-.444,3.383,3.383,0,0,0-.65-.347q-.374-.154-.8-.321a10.357,10.357,0,0,1-1.05-.479,3.173,3.173,0,0,1-.756-.545,2.028,2.028,0,0,1-.457-.69,2.441,2.441,0,0,1-.154-.905,2.15,2.15,0,0,1,.29-1.121,2.572,2.572,0,0,1,.773-.817,3.607,3.607,0,0,1,1.1-.5,4.893,4.893,0,0,1,1.279-.167,5.164,5.164,0,0,1,2.092.4v1.459a4.077,4.077,0,0,0-2.285-.65,2.671,2.671,0,0,0-.729.092,1.786,1.786,0,0,0-.558.259,1.2,1.2,0,0,0-.36.4,1.053,1.053,0,0,0-.127.514,1.233,1.233,0,0,0,.127.589,1.3,1.3,0,0,0,.374.422,2.855,2.855,0,0,0,.6.334q.352.149.8.325a11.131,11.131,0,0,1,1.072.47,3.678,3.678,0,0,1,.809.545,2.129,2.129,0,0,1,.514.7,2.254,2.254,0,0,1,.18.94,2.217,2.217,0,0,1-.294,1.16,2.523,2.523,0,0,1-.787.817,3.6,3.6,0,0,1-1.134.483,5.6,5.6,0,0,1-1.345.158A5.106,5.106,0,0,1,209.487,18.675ZM230.282,19h-1.441V17.471h-.035a3.327,3.327,0,0,1-3.094,1.74A3.362,3.362,0,0,1,223,18a4.958,4.958,0,0,1-1.015-3.292,5.394,5.394,0,0,1,1.125-3.577,3.71,3.71,0,0,1,3-1.345,2.885,2.885,0,0,1,2.7,1.459h.035V5.676h1.441Zm-1.441-4.069V13.6a2.575,2.575,0,0,0-.721-1.846A2.417,2.417,0,0,0,226.292,11a2.489,2.489,0,0,0-2.074.967,4.237,4.237,0,0,0-.756,2.672,3.81,3.81,0,0,0,.725,2.457,2.37,2.37,0,0,0,1.947.9,2.462,2.462,0,0,0,1.956-.87A3.242,3.242,0,0,0,228.841,14.931Zm11.593-.07h-6.354a3.366,3.366,0,0,0,.809,2.32,2.788,2.788,0,0,0,2.127.817,4.422,4.422,0,0,0,2.795-1V18.35a5.224,5.224,0,0,1-3.138.861,3.8,3.8,0,0,1-3-1.226,5.018,5.018,0,0,1-1.09-3.45,4.921,4.921,0,0,1,1.191-3.423,3.819,3.819,0,0,1,2.958-1.323,3.384,3.384,0,0,1,2.733,1.143,4.764,4.764,0,0,1,.967,3.173Zm-1.477-1.222a2.933,2.933,0,0,0-.6-1.942A2.051,2.051,0,0,0,236.707,11a2.328,2.328,0,0,0-1.731.729,3.31,3.31,0,0,0-.879,1.907Zm14.722,4.948a4.684,4.684,0,0,1-2.461.624,4.074,4.074,0,0,1-3.107-1.252,4.539,4.539,0,0,1-1.182-3.248,4.99,4.99,0,0,1,1.274-3.573,4.458,4.458,0,0,1,3.4-1.349,4.735,4.735,0,0,1,2.092.439v1.477a3.665,3.665,0,0,0-2.145-.7,2.9,2.9,0,0,0-2.263.989,3.752,3.752,0,0,0-.883,2.6,3.573,3.573,0,0,0,.831,2.5,2.863,2.863,0,0,0,2.228.914,3.613,3.613,0,0,0,2.215-.782ZM262.3,19h-1.441V17.594h-.035a3.018,3.018,0,0,1-2.769,1.617,2.959,2.959,0,0,1-2.1-.712,2.466,2.466,0,0,1-.76-1.89q0-2.522,2.971-2.936l2.7-.378Q260.859,11,259,11a4.431,4.431,0,0,0-2.936,1.107V10.633a5.577,5.577,0,0,1,3.059-.844q3.173,0,3.173,3.357Zm-1.441-4.553-2.171.3a3.525,3.525,0,0,0-1.512.5,1.432,1.432,0,0,0-.51,1.261,1.374,1.374,0,0,0,.47,1.077A1.817,1.817,0,0,0,258.39,18a2.314,2.314,0,0,0,1.771-.751,2.685,2.685,0,0,0,.7-1.9Zm5.6,4.553h-1.441V5.676h1.441Zm3.656-11.285a.913.913,0,0,1-.659-.264.89.89,0,0,1-.272-.668.923.923,0,0,1,.932-.94.931.931,0,0,1,.672.268.939.939,0,0,1,0,1.332A.923.923,0,0,1,270.114,7.715Zm.7,11.285h-1.441V10h1.441Zm10.6,0h-1.441V17.471h-.035a3.327,3.327,0,0,1-3.094,1.74A3.362,3.362,0,0,1,274.135,18a4.958,4.958,0,0,1-1.015-3.292,5.394,5.394,0,0,1,1.125-3.577,3.71,3.71,0,0,1,3-1.345,2.885,2.885,0,0,1,2.7,1.459h.035V5.676h1.441Zm-1.441-4.069V13.6a2.575,2.575,0,0,0-.721-1.846A2.417,2.417,0,0,0,277.427,11a2.489,2.489,0,0,0-2.074.967,4.237,4.237,0,0,0-.756,2.672,3.81,3.81,0,0,0,.725,2.457,2.37,2.37,0,0,0,1.947.9,2.462,2.462,0,0,0,1.956-.87A3.242,3.242,0,0,0,279.976,14.931ZM290.777,19h-1.441V17.594H289.3a3.018,3.018,0,0,1-2.769,1.617,2.959,2.959,0,0,1-2.1-.712,2.466,2.466,0,0,1-.76-1.89q0-2.522,2.971-2.936l2.7-.378q0-2.294-1.854-2.294a4.431,4.431,0,0,0-2.936,1.107V10.633a5.577,5.577,0,0,1,3.059-.844q3.173,0,3.173,3.357Zm-1.441-4.553-2.171.3a3.525,3.525,0,0,0-1.512.5,1.432,1.432,0,0,0-.51,1.261,1.374,1.374,0,0,0,.47,1.077,1.817,1.817,0,0,0,1.252.417,2.314,2.314,0,0,0,1.771-.751,2.685,2.685,0,0,0,.7-1.9ZM301.175,19h-1.441V17.471H299.7a3.327,3.327,0,0,1-3.094,1.74A3.362,3.362,0,0,1,293.893,18a4.958,4.958,0,0,1-1.015-3.292A5.394,5.394,0,0,1,294,11.134a3.71,3.71,0,0,1,3-1.345,2.885,2.885,0,0,1,2.7,1.459h.035V5.676h1.441Zm-1.441-4.069V13.6a2.575,2.575,0,0,0-.721-1.846A2.417,2.417,0,0,0,297.185,11a2.489,2.489,0,0,0-2.074.967,4.237,4.237,0,0,0-.756,2.672,3.81,3.81,0,0,0,.725,2.457,2.37,2.37,0,0,0,1.947.9,2.462,2.462,0,0,0,1.956-.87A3.242,3.242,0,0,0,299.733,14.931Zm4.86,4.263a.933.933,0,0,1-.69-.29.955.955,0,0,1-.286-.694.969.969,0,0,1,.286-.7.926.926,0,0,1,.69-.294.95.95,0,0,1,.7.294.962.962,0,0,1,.29.7.947.947,0,0,1-.29.694A.958.958,0,0,1,304.594,19.193ZM8.191,71H1.652V58.4H3.129V69.664H8.191ZM10.67,59.715a.913.913,0,0,1-.659-.264.89.89,0,0,1-.272-.668.923.923,0,0,1,.932-.94.931.931,0,0,1,.672.268.939.939,0,0,1,0,1.332A.923.923,0,0,1,10.67,59.715ZM11.373,71H9.932V62h1.441Zm10.6,0H20.531V69.471H20.5a3.327,3.327,0,0,1-3.094,1.74A3.362,3.362,0,0,1,14.691,70a4.958,4.958,0,0,1-1.015-3.292A5.394,5.394,0,0,1,14.8,63.134a3.71,3.71,0,0,1,3-1.345,2.885,2.885,0,0,1,2.7,1.459h.035V57.676h1.441Zm-1.441-4.069V65.6a2.575,2.575,0,0,0-.721-1.846A2.417,2.417,0,0,0,17.982,63a2.489,2.489,0,0,0-2.074.967,4.237,4.237,0,0,0-.756,2.672,3.81,3.81,0,0,0,.725,2.457,2.37,2.37,0,0,0,1.947.9,2.462,2.462,0,0,0,1.956-.87A3.242,3.242,0,0,0,20.531,66.931Zm11.593-.07H25.77a3.366,3.366,0,0,0,.809,2.32A2.788,2.788,0,0,0,28.705,70,4.422,4.422,0,0,0,31.5,69V70.35a5.224,5.224,0,0,1-3.138.861,3.8,3.8,0,0,1-3-1.226,5.018,5.018,0,0,1-1.09-3.45,4.921,4.921,0,0,1,1.191-3.423,3.819,3.819,0,0,1,2.958-1.323,3.384,3.384,0,0,1,2.733,1.143,4.764,4.764,0,0,1,.967,3.173Zm-1.477-1.222a2.933,2.933,0,0,0-.6-1.942A2.051,2.051,0,0,0,28.4,63a2.328,2.328,0,0,0-1.731.729,3.31,3.31,0,0,0-.879,1.907ZM39,63.459a1.763,1.763,0,0,0-1.09-.29,1.839,1.839,0,0,0-1.542.87,4.023,4.023,0,0,0-.62,2.373V71H34.3V62h1.441v1.854h.035a3.143,3.143,0,0,1,.94-1.481,2.144,2.144,0,0,1,1.415-.532,2.353,2.353,0,0,1,.861.123ZM47,71H45.563V69.594h-.035a3.018,3.018,0,0,1-2.769,1.617,2.959,2.959,0,0,1-2.1-.712,2.466,2.466,0,0,1-.76-1.89q0-2.522,2.971-2.936l2.7-.378Q45.563,63,43.708,63a4.431,4.431,0,0,0-2.936,1.107V62.633a5.577,5.577,0,0,1,3.059-.844Q47,61.789,47,65.146Zm-1.441-4.553-2.171.3a3.525,3.525,0,0,0-1.512.5,1.432,1.432,0,0,0-.51,1.261,1.374,1.374,0,0,0,.47,1.077A1.817,1.817,0,0,0,43.093,70a2.314,2.314,0,0,0,1.771-.751,2.685,2.685,0,0,0,.7-1.9ZM56,62.413,50.669,69.77h5.273V71H48.551v-.448l5.326-7.321H49.052V62H56Zm9.545,7.866q0,4.957-4.746,4.957a6.372,6.372,0,0,1-2.918-.633V73.162a5.993,5.993,0,0,0,2.9.844q3.322,0,3.322-3.533v-.984h-.035a3.641,3.641,0,0,1-5.8.523,4.8,4.8,0,0,1-1.024-3.221,5.6,5.6,0,0,1,1.1-3.647,3.685,3.685,0,0,1,3.019-1.354,2.934,2.934,0,0,1,2.7,1.459H64.1V62H65.54ZM64.1,66.931V65.6a2.575,2.575,0,0,0-.725-1.837A2.387,2.387,0,0,0,61.567,63a2.5,2.5,0,0,0-2.092.971,4.335,4.335,0,0,0-.756,2.72,3.721,3.721,0,0,0,.725,2.4,2.343,2.343,0,0,0,1.92.9,2.509,2.509,0,0,0,1.973-.861A3.21,3.21,0,0,0,64.1,66.931Zm8.121,4.28a4.175,4.175,0,0,1-3.186-1.261,4.672,4.672,0,0,1-1.191-3.344,4.867,4.867,0,0,1,1.239-3.542,4.455,4.455,0,0,1,3.349-1.274,4.037,4.037,0,0,1,3.142,1.239A4.914,4.914,0,0,1,76.7,66.465a4.835,4.835,0,0,1-1.217,3.45A4.265,4.265,0,0,1,72.22,71.211ZM72.325,63a2.742,2.742,0,0,0-2.2.945,3.88,3.88,0,0,0-.809,2.606,3.67,3.67,0,0,0,.817,2.522A2.778,2.778,0,0,0,72.325,70a2.635,2.635,0,0,0,2.149-.905,3.928,3.928,0,0,0,.751-2.575,4,4,0,0,0-.751-2.6A2.623,2.623,0,0,0,72.325,63ZM91.169,66.86H84.814a3.366,3.366,0,0,0,.809,2.32A2.788,2.788,0,0,0,87.75,70a4.422,4.422,0,0,0,2.795-1V70.35a5.224,5.224,0,0,1-3.138.861,3.8,3.8,0,0,1-3-1.226,5.018,5.018,0,0,1-1.09-3.45,4.921,4.921,0,0,1,1.191-3.423,3.819,3.819,0,0,1,2.958-1.323A3.384,3.384,0,0,1,90.2,62.932a4.764,4.764,0,0,1,.967,3.173Zm-1.477-1.222a2.933,2.933,0,0,0-.6-1.942A2.051,2.051,0,0,0,87.442,63a2.328,2.328,0,0,0-1.731.729,3.31,3.31,0,0,0-.879,1.907ZM100.819,71H99.378V65.867Q99.378,63,97.286,63a2.269,2.269,0,0,0-1.789.813,3.013,3.013,0,0,0-.708,2.052V71H93.349V62H94.79v1.494h.035a3.248,3.248,0,0,1,2.953-1.705,2.753,2.753,0,0,1,2.259.954,4.248,4.248,0,0,1,.782,2.755Zm14.88-4.14h-6.354a3.366,3.366,0,0,0,.809,2.32A2.788,2.788,0,0,0,112.28,70a4.422,4.422,0,0,0,2.795-1V70.35a5.224,5.224,0,0,1-3.138.861,3.8,3.8,0,0,1-3-1.226,5.018,5.018,0,0,1-1.09-3.45,4.921,4.921,0,0,1,1.191-3.423A3.819,3.819,0,0,1,112,61.789a3.384,3.384,0,0,1,2.733,1.143A4.764,4.764,0,0,1,115.7,66.1Zm-1.477-1.222a2.933,2.933,0,0,0-.6-1.942A2.051,2.051,0,0,0,111.973,63a2.328,2.328,0,0,0-1.731.729,3.31,3.31,0,0,0-.879,1.907ZM119.32,71h-1.441V57.676h1.441Zm20.628,0h-1.441V65.832a3.9,3.9,0,0,0-.461-2.162A1.75,1.75,0,0,0,136.494,63a1.921,1.921,0,0,0-1.569.844,3.228,3.228,0,0,0-.646,2.021V71h-1.441V65.656q0-2.654-2.048-2.654a1.9,1.9,0,0,0-1.564.8,3.288,3.288,0,0,0-.615,2.07V71h-1.441V62h1.441v1.424h.035a3.058,3.058,0,0,1,2.795-1.635,2.6,2.6,0,0,1,2.549,1.863,3.212,3.212,0,0,1,2.988-1.863q2.971,0,2.971,3.665Zm9.958-4.14h-6.354a3.366,3.366,0,0,0,.809,2.32,2.788,2.788,0,0,0,2.127.817,4.422,4.422,0,0,0,2.795-1V70.35a5.224,5.224,0,0,1-3.138.861,3.8,3.8,0,0,1-3-1.226,5.018,5.018,0,0,1-1.09-3.45,4.921,4.921,0,0,1,1.191-3.423,3.819,3.819,0,0,1,2.958-1.323,3.384,3.384,0,0,1,2.733,1.143,4.764,4.764,0,0,1,.967,3.173Zm-1.477-1.222a2.933,2.933,0,0,0-.6-1.942A2.051,2.051,0,0,0,146.18,63a2.328,2.328,0,0,0-1.731.729,3.31,3.31,0,0,0-.879,1.907Zm8.35-2.18a1.763,1.763,0,0,0-1.09-.29,1.839,1.839,0,0,0-1.542.87,4.023,4.023,0,0,0-.62,2.373V71h-1.441V62h1.441v1.854h.035a3.143,3.143,0,0,1,.94-1.481,2.144,2.144,0,0,1,1.415-.532,2.353,2.353,0,0,1,.861.123Zm7.7,7.128a4.684,4.684,0,0,1-2.461.624,4.074,4.074,0,0,1-3.107-1.252,4.539,4.539,0,0,1-1.182-3.248A4.99,4.99,0,0,1,159,63.138a4.458,4.458,0,0,1,3.4-1.349,4.735,4.735,0,0,1,2.092.439v1.477a3.665,3.665,0,0,0-2.145-.7,2.9,2.9,0,0,0-2.263.989,3.752,3.752,0,0,0-.883,2.6,3.573,3.573,0,0,0,.831,2.5,2.863,2.863,0,0,0,2.228.914,3.613,3.613,0,0,0,2.215-.782ZM173.1,71h-1.441V69.594h-.035a3.018,3.018,0,0,1-2.769,1.617,2.959,2.959,0,0,1-2.1-.712,2.466,2.466,0,0,1-.76-1.89q0-2.522,2.971-2.936l2.7-.378Q171.659,63,169.8,63a4.431,4.431,0,0,0-2.936,1.107V62.633a5.577,5.577,0,0,1,3.059-.844q3.173,0,3.173,3.357Zm-1.441-4.553-2.171.3a3.525,3.525,0,0,0-1.512.5,1.432,1.432,0,0,0-.51,1.261,1.374,1.374,0,0,0,.47,1.077,1.817,1.817,0,0,0,1.252.417,2.314,2.314,0,0,0,1.771-.751,2.685,2.685,0,0,0,.7-1.9ZM183.5,71h-1.441V69.471h-.035a3.327,3.327,0,0,1-3.094,1.74A3.362,3.362,0,0,1,176.216,70a4.958,4.958,0,0,1-1.015-3.292,5.394,5.394,0,0,1,1.125-3.577,3.71,3.71,0,0,1,3-1.345,2.885,2.885,0,0,1,2.7,1.459h.035V57.676H183.5Zm-1.441-4.069V65.6a2.575,2.575,0,0,0-.721-1.846A2.417,2.417,0,0,0,179.508,63a2.489,2.489,0,0,0-2.074.967,4.237,4.237,0,0,0-.756,2.672A3.81,3.81,0,0,0,177.4,69.1a2.37,2.37,0,0,0,1.947.9,2.462,2.462,0,0,0,1.956-.87A3.242,3.242,0,0,0,182.057,66.931Zm8.121,4.28a4.175,4.175,0,0,1-3.186-1.261,4.672,4.672,0,0,1-1.191-3.344,4.867,4.867,0,0,1,1.239-3.542,4.455,4.455,0,0,1,3.349-1.274,4.037,4.037,0,0,1,3.142,1.239,4.914,4.914,0,0,1,1.129,3.437,4.835,4.835,0,0,1-1.217,3.45A4.265,4.265,0,0,1,190.178,71.211ZM190.283,63a2.742,2.742,0,0,0-2.2.945,3.88,3.88,0,0,0-.809,2.606,3.67,3.67,0,0,0,.817,2.522,2.778,2.778,0,0,0,2.188.923,2.635,2.635,0,0,0,2.149-.905,3.928,3.928,0,0,0,.751-2.575,4,4,0,0,0-.751-2.6A2.623,2.623,0,0,0,190.283,63Zm7.181,8.191a.933.933,0,0,1-.69-.29.955.955,0,0,1-.286-.694.969.969,0,0,1,.286-.7.926.926,0,0,1,.69-.294.95.95,0,0,1,.7.294.962.962,0,0,1,.29.7.947.947,0,0,1-.29.694A.958.958,0,0,1,197.464,71.193ZM3.129,123H1.652V110.4H3.129Zm10.591,0H12.278v-5.133q0-2.865-2.092-2.865a2.269,2.269,0,0,0-1.789.813,3.013,3.013,0,0,0-.708,2.052V123H6.249v-9H7.69v1.494h.035a3.248,3.248,0,0,1,2.953-1.705,2.753,2.753,0,0,1,2.259.954,4.248,4.248,0,0,1,.782,2.755Zm9.791-9-3.586,9H18.51l-3.41-9h1.582l2.285,6.539a5.869,5.869,0,0,1,.316,1.257h.035a5.943,5.943,0,0,1,.281-1.222L21.99,114Zm5.309,9.211a4.175,4.175,0,0,1-3.186-1.261,4.672,4.672,0,0,1-1.191-3.344,4.867,4.867,0,0,1,1.239-3.542,4.455,4.455,0,0,1,3.349-1.274,4.037,4.037,0,0,1,3.142,1.239,4.914,4.914,0,0,1,1.129,3.437,4.835,4.835,0,0,1-1.217,3.45A4.265,4.265,0,0,1,28.819,123.211ZM28.925,115a2.742,2.742,0,0,0-2.2.945,3.88,3.88,0,0,0-.809,2.606,3.67,3.67,0,0,0,.817,2.522,2.778,2.778,0,0,0,2.188.923,2.635,2.635,0,0,0,2.149-.905,3.928,3.928,0,0,0,.751-2.575,4,4,0,0,0-.751-2.6A2.623,2.623,0,0,0,28.925,115Zm8.121,8H35.6V109.676h1.441Zm10.2,0H45.8v-1.424h-.035a2.96,2.96,0,0,1-2.777,1.635q-3.217,0-3.217-3.832V114H41.2v5.15q0,2.848,2.18,2.848a2.205,2.205,0,0,0,1.736-.778,2.976,2.976,0,0,0,.681-2.035V114h1.441Zm9.044-.413a4.684,4.684,0,0,1-2.461.624,4.074,4.074,0,0,1-3.107-1.252,4.539,4.539,0,0,1-1.182-3.248,4.99,4.99,0,0,1,1.274-3.573,4.458,4.458,0,0,1,3.4-1.349,4.735,4.735,0,0,1,2.092.439v1.477a3.665,3.665,0,0,0-2.145-.7,2.9,2.9,0,0,0-2.263.989,3.752,3.752,0,0,0-.883,2.6,3.573,3.573,0,0,0,.831,2.5A2.863,2.863,0,0,0,54.07,122a3.613,3.613,0,0,0,2.215-.782Zm6.873-7.128a1.763,1.763,0,0,0-1.09-.29,1.839,1.839,0,0,0-1.542.87,4.023,4.023,0,0,0-.62,2.373V123H58.465v-9h1.441v1.854h.035a3.143,3.143,0,0,1,.94-1.481,2.144,2.144,0,0,1,1.415-.532,2.353,2.353,0,0,1,.861.123ZM71.165,123H69.724v-1.406h-.035a3.018,3.018,0,0,1-2.769,1.617,2.959,2.959,0,0,1-2.1-.712,2.466,2.466,0,0,1-.76-1.89q0-2.522,2.971-2.936l2.7-.378q0-2.294-1.854-2.294a4.431,4.431,0,0,0-2.936,1.107v-1.477a5.577,5.577,0,0,1,3.059-.844q3.173,0,3.173,3.357Zm-1.441-4.553-2.171.3a3.525,3.525,0,0,0-1.512.5,1.432,1.432,0,0,0-.51,1.261,1.374,1.374,0,0,0,.47,1.077,1.817,1.817,0,0,0,1.252.417,2.314,2.314,0,0,0,1.771-.751,2.685,2.685,0,0,0,.7-1.9ZM81.352,123H79.91v-5.133q0-2.865-2.092-2.865a2.269,2.269,0,0,0-1.789.813,3.013,3.013,0,0,0-.708,2.052V123H73.881v-9h1.441v1.494h.035a3.248,3.248,0,0,1,2.953-1.705,2.753,2.753,0,0,1,2.259.954,4.248,4.248,0,0,1,.782,2.755Zm9.088,0H89V109.676h1.441Zm6.68.211a4.175,4.175,0,0,1-3.186-1.261,4.672,4.672,0,0,1-1.191-3.344,4.867,4.867,0,0,1,1.239-3.542,4.455,4.455,0,0,1,3.349-1.274,4.037,4.037,0,0,1,3.142,1.239,4.914,4.914,0,0,1,1.129,3.437,4.835,4.835,0,0,1-1.217,3.45A4.265,4.265,0,0,1,97.119,123.211ZM97.225,115a2.742,2.742,0,0,0-2.2.945,3.88,3.88,0,0,0-.809,2.606,3.67,3.67,0,0,0,.817,2.522,2.778,2.778,0,0,0,2.188.923,2.635,2.635,0,0,0,2.149-.905,3.928,3.928,0,0,0,.751-2.575,4,4,0,0,0-.751-2.6A2.623,2.623,0,0,0,97.225,115Zm6.135,7.673v-1.547a4.266,4.266,0,0,0,2.593.87q1.9,0,1.9-1.266a1.1,1.1,0,0,0-.163-.611,1.62,1.62,0,0,0-.439-.444,3.383,3.383,0,0,0-.65-.347q-.374-.154-.8-.321a10.357,10.357,0,0,1-1.05-.479,3.173,3.173,0,0,1-.756-.545,2.028,2.028,0,0,1-.457-.69,2.441,2.441,0,0,1-.154-.905,2.15,2.15,0,0,1,.29-1.121,2.572,2.572,0,0,1,.773-.817,3.607,3.607,0,0,1,1.1-.5,4.893,4.893,0,0,1,1.279-.167,5.164,5.164,0,0,1,2.092.4v1.459a4.077,4.077,0,0,0-2.285-.65,2.671,2.671,0,0,0-.729.092,1.786,1.786,0,0,0-.558.259,1.2,1.2,0,0,0-.36.4,1.053,1.053,0,0,0-.127.514,1.233,1.233,0,0,0,.127.589,1.3,1.3,0,0,0,.374.422,2.855,2.855,0,0,0,.6.334q.352.149.8.325a11.131,11.131,0,0,1,1.072.47,3.678,3.678,0,0,1,.809.545,2.129,2.129,0,0,1,.514.7,2.254,2.254,0,0,1,.18.94,2.217,2.217,0,0,1-.294,1.16,2.523,2.523,0,0,1-.787.817,3.6,3.6,0,0,1-1.134.483,5.6,5.6,0,0,1-1.345.158A5.106,5.106,0,0,1,103.359,122.675Zm14.59-.976h-.035v5.44h-1.441V114h1.441v1.582h.035a3.408,3.408,0,0,1,3.111-1.793A3.3,3.3,0,0,1,123.776,115a5.005,5.005,0,0,1,.976,3.239,5.578,5.578,0,0,1-1.1,3.617,3.658,3.658,0,0,1-3.006,1.358A3.011,3.011,0,0,1,117.949,121.7Zm-.035-3.63v1.257a2.676,2.676,0,0,0,.725,1.894,2.587,2.587,0,0,0,3.894-.224,4.6,4.6,0,0,0,.743-2.786,3.629,3.629,0,0,0-.694-2.355A2.3,2.3,0,0,0,120.7,115a2.554,2.554,0,0,0-2.021.875A3.211,3.211,0,0,0,117.914,118.069Zm13.834-2.61a1.763,1.763,0,0,0-1.09-.29,1.839,1.839,0,0,0-1.542.87,4.023,4.023,0,0,0-.62,2.373V123h-1.441v-9H128.5v1.854h.035a3.143,3.143,0,0,1,.94-1.481,2.144,2.144,0,0,1,1.415-.532,2.353,2.353,0,0,1,.861.123Zm5.326,7.752a4.175,4.175,0,0,1-3.186-1.261,4.672,4.672,0,0,1-1.191-3.344,4.867,4.867,0,0,1,1.239-3.542,4.455,4.455,0,0,1,3.349-1.274,4.037,4.037,0,0,1,3.142,1.239,4.914,4.914,0,0,1,1.129,3.437,4.835,4.835,0,0,1-1.217,3.45A4.265,4.265,0,0,1,137.074,123.211ZM137.18,115a2.742,2.742,0,0,0-2.2.945,3.88,3.88,0,0,0-.809,2.606,3.67,3.67,0,0,0,.817,2.522,2.778,2.778,0,0,0,2.188.923,2.635,2.635,0,0,0,2.149-.905,3.928,3.928,0,0,0,.751-2.575,4,4,0,0,0-.751-2.6A2.623,2.623,0,0,0,137.18,115Zm12.814,7.585a4.684,4.684,0,0,1-2.461.624,4.074,4.074,0,0,1-3.107-1.252,4.539,4.539,0,0,1-1.182-3.248,4.99,4.99,0,0,1,1.274-3.573,4.458,4.458,0,0,1,3.4-1.349,4.735,4.735,0,0,1,2.092.439v1.477a3.665,3.665,0,0,0-2.145-.7,2.9,2.9,0,0,0-2.263.989,3.752,3.752,0,0,0-.883,2.6,3.573,3.573,0,0,0,.831,2.5,2.863,2.863,0,0,0,2.228.914,3.613,3.613,0,0,0,2.215-.782Zm9.413-3.727h-6.354a3.366,3.366,0,0,0,.809,2.32,2.788,2.788,0,0,0,2.127.817,4.422,4.422,0,0,0,2.795-1v1.354a5.224,5.224,0,0,1-3.138.861,3.8,3.8,0,0,1-3-1.226,5.018,5.018,0,0,1-1.09-3.45,4.921,4.921,0,0,1,1.191-3.423,3.819,3.819,0,0,1,2.958-1.323,3.384,3.384,0,0,1,2.733,1.143,4.764,4.764,0,0,1,.967,3.173Zm-1.477-1.222a2.933,2.933,0,0,0-.6-1.942,2.051,2.051,0,0,0-1.648-.694,2.328,2.328,0,0,0-1.731.729,3.31,3.31,0,0,0-.879,1.907Zm3.111,5.036v-1.547a4.266,4.266,0,0,0,2.593.87q1.9,0,1.9-1.266a1.1,1.1,0,0,0-.163-.611,1.62,1.62,0,0,0-.439-.444,3.383,3.383,0,0,0-.65-.347q-.374-.154-.8-.321a10.357,10.357,0,0,1-1.05-.479,3.173,3.173,0,0,1-.756-.545,2.028,2.028,0,0,1-.457-.69,2.441,2.441,0,0,1-.154-.905,2.15,2.15,0,0,1,.29-1.121,2.572,2.572,0,0,1,.773-.817,3.607,3.607,0,0,1,1.1-.5,4.893,4.893,0,0,1,1.279-.167,5.164,5.164,0,0,1,2.092.4v1.459a4.077,4.077,0,0,0-2.285-.65,2.671,2.671,0,0,0-.729.092,1.786,1.786,0,0,0-.558.259,1.2,1.2,0,0,0-.36.4,1.053,1.053,0,0,0-.127.514,1.233,1.233,0,0,0,.127.589,1.3,1.3,0,0,0,.374.422,2.855,2.855,0,0,0,.6.334q.352.149.8.325a11.131,11.131,0,0,1,1.072.47,3.678,3.678,0,0,1,.809.545,2.129,2.129,0,0,1,.514.7,2.254,2.254,0,0,1,.18.94,2.217,2.217,0,0,1-.294,1.16,2.523,2.523,0,0,1-.787.817,3.6,3.6,0,0,1-1.134.483,5.6,5.6,0,0,1-1.345.158A5.106,5.106,0,0,1,161.042,122.675Zm11.944.536a4.175,4.175,0,0,1-3.186-1.261,4.672,4.672,0,0,1-1.191-3.344,4.867,4.867,0,0,1,1.239-3.542,4.455,4.455,0,0,1,3.349-1.274,4.037,4.037,0,0,1,3.142,1.239,4.914,4.914,0,0,1,1.129,3.437,4.835,4.835,0,0,1-1.217,3.45A4.265,4.265,0,0,1,172.986,123.211Zm.105-8.209a2.742,2.742,0,0,0-2.2.945,3.88,3.88,0,0,0-.809,2.606,3.67,3.67,0,0,0,.817,2.522,2.778,2.778,0,0,0,2.188.923,2.635,2.635,0,0,0,2.149-.905,3.928,3.928,0,0,0,.751-2.575,4,4,0,0,0-.751-2.6A2.623,2.623,0,0,0,173.092,115Zm6.135,7.673v-1.547a4.266,4.266,0,0,0,2.593.87q1.9,0,1.9-1.266a1.1,1.1,0,0,0-.163-.611,1.62,1.62,0,0,0-.439-.444,3.383,3.383,0,0,0-.65-.347q-.374-.154-.8-.321a10.357,10.357,0,0,1-1.05-.479,3.173,3.173,0,0,1-.756-.545,2.028,2.028,0,0,1-.457-.69,2.441,2.441,0,0,1-.154-.905,2.15,2.15,0,0,1,.29-1.121,2.572,2.572,0,0,1,.773-.817,3.607,3.607,0,0,1,1.1-.5,4.893,4.893,0,0,1,1.279-.167,5.164,5.164,0,0,1,2.092.4v1.459A4.077,4.077,0,0,0,182.5,115a2.671,2.671,0,0,0-.729.092,1.786,1.786,0,0,0-.558.259,1.2,1.2,0,0,0-.36.4,1.053,1.053,0,0,0-.127.514,1.233,1.233,0,0,0,.127.589,1.3,1.3,0,0,0,.374.422,2.855,2.855,0,0,0,.6.334q.352.149.8.325a11.131,11.131,0,0,1,1.072.47,3.678,3.678,0,0,1,.809.545,2.129,2.129,0,0,1,.514.7,2.254,2.254,0,0,1,.18.94,2.217,2.217,0,0,1-.294,1.16,2.523,2.523,0,0,1-.787.817,3.6,3.6,0,0,1-1.134.483,5.6,5.6,0,0,1-1.345.158A5.106,5.106,0,0,1,179.227,122.675Zm8.684.519a.933.933,0,0,1-.69-.29.955.955,0,0,1-.286-.694.969.969,0,0,1,.286-.7.926.926,0,0,1,.69-.294.95.95,0,0,1,.7.294.962.962,0,0,1,.29.7.947.947,0,0,1-.29.694A.958.958,0,0,1,187.91,123.193ZM209.285,123h-1.468v-8.455q0-1,.123-2.452h-.035a7.84,7.84,0,0,1-.378,1.222L203.221,123H202.5l-4.3-9.615a7.533,7.533,0,0,1-.378-1.292h-.035q.07.756.07,2.47V123h-1.424V110.4h1.951l3.867,8.789a11.254,11.254,0,0,1,.58,1.512h.053q.378-1.037.606-1.547l3.946-8.754h1.846Zm10.354-4.14h-6.354a3.366,3.366,0,0,0,.809,2.32,2.788,2.788,0,0,0,2.127.817,4.422,4.422,0,0,0,2.795-1v1.354a5.224,5.224,0,0,1-3.138.861,3.8,3.8,0,0,1-3-1.226,5.018,5.018,0,0,1-1.09-3.45,4.921,4.921,0,0,1,1.191-3.423,3.819,3.819,0,0,1,2.958-1.323,3.384,3.384,0,0,1,2.733,1.143,4.764,4.764,0,0,1,.967,3.173Zm-1.477-1.222a2.933,2.933,0,0,0-.6-1.942,2.051,2.051,0,0,0-1.648-.694,2.328,2.328,0,0,0-1.731.729,3.31,3.31,0,0,0-.879,1.907Zm5.1,4.983a5.641,5.641,0,0,1-.892,3.415,2.99,2.99,0,0,1-2.553,1.2,2.71,2.71,0,0,1-1.2-.281V125.61a2.385,2.385,0,0,0,1.23.4q1.969,0,1.969-3.146V114h1.441Zm-.7-10.907a.913.913,0,0,1-.659-.264.89.89,0,0,1-.272-.668.923.923,0,0,1,.932-.94.931.931,0,0,1,.672.268.939.939,0,0,1,0,1.332A.923.923,0,0,1,222.557,111.715Zm7.383,11.5a4.175,4.175,0,0,1-3.186-1.261,4.672,4.672,0,0,1-1.191-3.344,4.867,4.867,0,0,1,1.239-3.542,4.455,4.455,0,0,1,3.349-1.274,4.037,4.037,0,0,1,3.142,1.239,4.914,4.914,0,0,1,1.129,3.437,4.835,4.835,0,0,1-1.217,3.45A4.265,4.265,0,0,1,229.939,123.211Zm.105-8.209a2.742,2.742,0,0,0-2.2.945,3.88,3.88,0,0,0-.809,2.606,3.67,3.67,0,0,0,.817,2.522,2.778,2.778,0,0,0,2.188.923,2.635,2.635,0,0,0,2.149-.905,3.928,3.928,0,0,0,.751-2.575,4,4,0,0,0-.751-2.6A2.623,2.623,0,0,0,230.045,115Zm11.373.457a1.763,1.763,0,0,0-1.09-.29,1.839,1.839,0,0,0-1.542.87,4.023,4.023,0,0,0-.62,2.373V123h-1.441v-9h1.441v1.854h.035a3.143,3.143,0,0,1,.94-1.481,2.144,2.144,0,0,1,1.415-.532,2.353,2.353,0,0,1,.861.123ZM249.425,123h-1.441v-1.406h-.035a3.018,3.018,0,0,1-2.769,1.617,2.959,2.959,0,0,1-2.1-.712,2.466,2.466,0,0,1-.76-1.89q0-2.522,2.971-2.936l2.7-.378q0-2.294-1.854-2.294a4.431,4.431,0,0,0-2.936,1.107v-1.477a5.577,5.577,0,0,1,3.059-.844q3.173,0,3.173,3.357Zm-1.441-4.553-2.171.3a3.525,3.525,0,0,0-1.512.5,1.432,1.432,0,0,0-.51,1.261,1.374,1.374,0,0,0,.47,1.077,1.817,1.817,0,0,0,1.252.417,2.314,2.314,0,0,0,1.771-.751,2.685,2.685,0,0,0,.7-1.9Zm15.223,4.14a4.684,4.684,0,0,1-2.461.624,4.074,4.074,0,0,1-3.107-1.252,4.539,4.539,0,0,1-1.182-3.248,4.99,4.99,0,0,1,1.274-3.573,4.458,4.458,0,0,1,3.4-1.349,4.735,4.735,0,0,1,2.092.439v1.477a3.665,3.665,0,0,0-2.145-.7,2.9,2.9,0,0,0-2.263.989,3.752,3.752,0,0,0-.883,2.6,3.573,3.573,0,0,0,.831,2.5,2.863,2.863,0,0,0,2.228.914,3.613,3.613,0,0,0,2.215-.782Zm5.941.624a4.175,4.175,0,0,1-3.186-1.261,4.672,4.672,0,0,1-1.191-3.344,4.867,4.867,0,0,1,1.239-3.542,4.455,4.455,0,0,1,3.349-1.274,4.037,4.037,0,0,1,3.142,1.239,4.914,4.914,0,0,1,1.129,3.437,4.835,4.835,0,0,1-1.217,3.45A4.265,4.265,0,0,1,269.147,123.211Zm.105-8.209a2.742,2.742,0,0,0-2.2.945,3.88,3.88,0,0,0-.809,2.606,3.67,3.67,0,0,0,.817,2.522,2.778,2.778,0,0,0,2.188.923,2.635,2.635,0,0,0,2.149-.905,3.928,3.928,0,0,0,.751-2.575,4,4,0,0,0-.751-2.6A2.623,2.623,0,0,0,269.253,115Zm14.15,8h-1.441v-5.133q0-2.865-2.092-2.865a2.269,2.269,0,0,0-1.789.813,3.013,3.013,0,0,0-.708,2.052V123h-1.441v-9h1.441v1.494h.035a3.248,3.248,0,0,1,2.953-1.705,2.753,2.753,0,0,1,2.259.954,4.248,4.248,0,0,1,.782,2.755Zm6.891-.088a2.779,2.779,0,0,1-1.345.281q-2.364,0-2.364-2.637V115.23h-1.547V114h1.547v-2.2l1.441-.466V114h2.268v1.23h-2.268V120.3a2.1,2.1,0,0,0,.308,1.292,1.228,1.228,0,0,0,1.02.387,1.515,1.515,0,0,0,.94-.3Zm2.663-11.2a.913.913,0,0,1-.659-.264.89.89,0,0,1-.272-.668.923.923,0,0,1,.932-.94.931.931,0,0,1,.672.268.939.939,0,0,1,0,1.332A.923.923,0,0,1,292.957,111.715Zm.7,11.285h-1.441v-9h1.441Zm10.389,0h-1.441v-5.133q0-2.865-2.092-2.865a2.269,2.269,0,0,0-1.789.813,3.013,3.013,0,0,0-.708,2.052V123h-1.441v-9h1.441v1.494h.035a3.248,3.248,0,0,1,2.953-1.705,2.753,2.753,0,0,1,2.259.954,4.248,4.248,0,0,1,.782,2.755Zm9.993,0H312.6v-1.424h-.035a2.96,2.96,0,0,1-2.777,1.635q-3.217,0-3.217-3.832V114H308v5.15q0,2.848,2.18,2.848a2.205,2.205,0,0,0,1.736-.778,2.976,2.976,0,0,0,.681-2.035V114h1.441Zm9.352,0h-1.441v-1.406h-.035a3.018,3.018,0,0,1-2.769,1.617,2.959,2.959,0,0,1-2.1-.712,2.466,2.466,0,0,1-.76-1.89q0-2.522,2.971-2.936l2.7-.378q0-2.294-1.854-2.294a4.431,4.431,0,0,0-2.936,1.107v-1.477a5.577,5.577,0,0,1,3.059-.844q3.173,0,3.173,3.357Zm-1.441-4.553-2.171.3a3.525,3.525,0,0,0-1.512.5,1.432,1.432,0,0,0-.51,1.261,1.374,1.374,0,0,0,.47,1.077,1.817,1.817,0,0,0,1.252.417,2.314,2.314,0,0,0,1.771-.751,2.685,2.685,0,0,0,.7-1.9Zm4.658,4.746a.933.933,0,0,1-.69-.29.955.955,0,0,1-.286-.694.969.969,0,0,1,.286-.7.926.926,0,0,1,.69-.294.95.95,0,0,1,.7.294.962.962,0,0,1,.29.7.947.947,0,0,1-.29.694A.958.958,0,0,1,326.61,123.193Z" transform="translate(693.496 2203.49)" fill="#080033"/>
        <path id="Trazado_71698" data-name="Trazado 71698" d="M14,0H2.242V-19.605H13.549v3.6H6.658v4.361H13.07v3.582H6.658v4.484H14ZM30.242-14,25.621-7.219,30.215,0H25.238L23.215-3.773q-.246-.451-.588-1.271h-.055a8.878,8.878,0,0,1-.561,1.23L19.975,0H15.012l4.73-6.973L15.3-14h5l2,3.924a8.605,8.605,0,0,1,.561,1.313h.055A9.249,9.249,0,0,1,23.5-10.1L25.539-14ZM42.314-.506A8.542,8.542,0,0,1,38.09.342a7.145,7.145,0,0,1-5.223-1.955,6.752,6.752,0,0,1-2-5.045,7.438,7.438,0,0,1,2.14-5.626,7.907,7.907,0,0,1,5.722-2.058,7.342,7.342,0,0,1,3.582.656v3.664a4.925,4.925,0,0,0-3.021-1.012,3.981,3.981,0,0,0-2.946,1.087,4.056,4.056,0,0,0-1.087,3A3.99,3.99,0,0,0,36.3-4.026a3.819,3.819,0,0,0,2.857,1.06,5.7,5.7,0,0,0,3.158-1.012ZM57.723-5.77H48.59q.219,3.049,3.842,3.049a7.5,7.5,0,0,0,4.061-1.094V-.7A10.667,10.667,0,0,1,51.447.342a7.1,7.1,0,0,1-5.264-1.88,7.1,7.1,0,0,1-1.873-5.243A7.492,7.492,0,0,1,46.334-12.3a6.741,6.741,0,0,1,4.977-2.037,6.118,6.118,0,0,1,4.737,1.818,7,7,0,0,1,1.675,4.936ZM53.717-8.422q0-3.008-2.434-3.008a2.324,2.324,0,0,0-1.8.861,3.909,3.909,0,0,0-.923,2.146ZM64.613,0h-4.32V-20.727h4.32ZM80.828-5.77H71.7q.219,3.049,3.842,3.049A7.5,7.5,0,0,0,79.6-3.814V-.7A10.667,10.667,0,0,1,74.553.342a7.1,7.1,0,0,1-5.264-1.88,7.1,7.1,0,0,1-1.873-5.243A7.492,7.492,0,0,1,69.439-12.3a6.741,6.741,0,0,1,4.977-2.037,6.118,6.118,0,0,1,4.737,1.818,7,7,0,0,1,1.675,4.936ZM76.822-8.422q0-3.008-2.434-3.008a2.324,2.324,0,0,0-1.8.861,3.909,3.909,0,0,0-.923,2.146ZM96.92,0H92.613V-7.779q0-3.254-2.324-3.254a2.306,2.306,0,0,0-1.846.861,3.281,3.281,0,0,0-.725,2.188V0H83.4V-14h4.32v2.215h.055a4.951,4.951,0,0,1,4.5-2.557q4.648,0,4.648,5.77Zm14.027-.506a8.542,8.542,0,0,1-4.225.848A7.145,7.145,0,0,1,101.5-1.613a6.752,6.752,0,0,1-2-5.045,7.438,7.438,0,0,1,2.14-5.626,7.907,7.907,0,0,1,5.722-2.058,7.342,7.342,0,0,1,3.582.656v3.664a4.925,4.925,0,0,0-3.021-1.012,3.981,3.981,0,0,0-2.946,1.087,4.056,4.056,0,0,0-1.087,3,3.99,3.99,0,0,0,1.039,2.919,3.819,3.819,0,0,0,2.857,1.06,5.7,5.7,0,0,0,3.158-1.012Zm5.018-15.709a2.523,2.523,0,0,1-1.791-.649,2.092,2.092,0,0,1-.7-1.593,2.018,2.018,0,0,1,.7-1.586,2.607,2.607,0,0,1,1.791-.615,2.6,2.6,0,0,1,1.8.615,2.027,2.027,0,0,1,.69,1.586,2.084,2.084,0,0,1-.69,1.613A2.566,2.566,0,0,1,115.965-16.215ZM118.1,0h-4.32V-14h4.32Zm15.285,0h-4.088V-2.01h-.055A4.563,4.563,0,0,1,125.07.342a4.362,4.362,0,0,1-3.206-1.155A4.14,4.14,0,0,1,120.7-3.9q0-4.074,4.826-4.7l3.8-.506q0-2.3-2.488-2.3a8.493,8.493,0,0,0-4.758,1.49v-3.254a10.7,10.7,0,0,1,2.468-.82,12.972,12.972,0,0,1,2.851-.355q5.988,0,5.988,5.975Zm-4.061-5.687v-.943l-2.543.328q-2.105.273-2.105,1.9a1.57,1.57,0,0,0,.513,1.21,1.97,1.97,0,0,0,1.388.472,2.558,2.558,0,0,0,1.982-.841A3.037,3.037,0,0,0,129.322-5.687ZM158.225,0H153.9V-1.928h-.055a4.844,4.844,0,0,1-4.334,2.27,5.308,5.308,0,0,1-4.225-1.853,7.669,7.669,0,0,1-1.6-5.175,8.347,8.347,0,0,1,1.764-5.564,5.753,5.753,0,0,1,4.621-2.092A3.931,3.931,0,0,1,153.85-12.4h.055v-8.326h4.32Zm-4.238-6.809V-7.861a3.313,3.313,0,0,0-.793-2.27,2.619,2.619,0,0,0-2.064-.9,2.6,2.6,0,0,0-2.242,1.128,5.238,5.238,0,0,0-.807,3.1,4.532,4.532,0,0,0,.779,2.844,2.587,2.587,0,0,0,2.16,1,2.6,2.6,0,0,0,2.14-1.053A4.388,4.388,0,0,0,153.986-6.809ZM174.439-5.77h-9.133q.219,3.049,3.842,3.049a7.5,7.5,0,0,0,4.061-1.094V-.7A10.667,10.667,0,0,1,168.164.342a7.1,7.1,0,0,1-5.264-1.88,7.1,7.1,0,0,1-1.873-5.243,7.492,7.492,0,0,1,2.023-5.523,6.741,6.741,0,0,1,4.977-2.037,6.118,6.118,0,0,1,4.737,1.818,7,7,0,0,1,1.675,4.936Zm-4.006-2.652q0-3.008-2.434-3.008a2.324,2.324,0,0,0-1.8.861,3.909,3.909,0,0,0-.923,2.146ZM189.055,0h-4.32V-20.727h4.32ZM204.34,0h-4.088V-2.01H200.2a4.563,4.563,0,0,1-4.17,2.352,4.362,4.362,0,0,1-3.206-1.155A4.14,4.14,0,0,1,191.652-3.9q0-4.074,4.826-4.7l3.8-.506q0-2.3-2.488-2.3a8.493,8.493,0,0,0-4.758,1.49v-3.254a10.7,10.7,0,0,1,2.468-.82,12.972,12.972,0,0,1,2.851-.355q5.988,0,5.988,5.975Zm-4.061-5.687v-.943l-2.543.328q-2.105.273-2.105,1.9a1.57,1.57,0,0,0,.513,1.21,1.97,1.97,0,0,0,1.388.472,2.558,2.558,0,0,0,1.982-.841A3.037,3.037,0,0,0,200.279-5.687ZM217.67-16.215a2.523,2.523,0,0,1-1.791-.649,2.092,2.092,0,0,1-.7-1.593,2.018,2.018,0,0,1,.7-1.586,2.607,2.607,0,0,1,1.791-.615,2.6,2.6,0,0,1,1.8.615,2.027,2.027,0,0,1,.69,1.586,2.084,2.084,0,0,1-.69,1.613A2.566,2.566,0,0,1,217.67-16.215ZM219.8,0h-4.32V-14h4.32Zm17.363-1.6a7.921,7.921,0,0,1-2.256,6.036q-2.256,2.14-6.535,2.14a10.359,10.359,0,0,1-4.484-.807V2.133a8.588,8.588,0,0,0,4.361,1.258,4.7,4.7,0,0,0,3.391-1.155,4.146,4.146,0,0,0,1.2-3.138V-2.01h-.055A4.825,4.825,0,0,1,228.43.342a5.246,5.246,0,0,1-4.252-1.887A7.651,7.651,0,0,1,222.605-6.6a8.522,8.522,0,0,1,1.75-5.646,5.713,5.713,0,0,1,4.607-2.092,4.252,4.252,0,0,1,3.828,1.969h.055V-14h4.32ZM232.9-6.727V-7.834a3.4,3.4,0,0,0-.786-2.263,2.543,2.543,0,0,0-2.044-.937,2.643,2.643,0,0,0-2.256,1.121,5.272,5.272,0,0,0-.82,3.158,4.45,4.45,0,0,0,.779,2.769,2.54,2.54,0,0,0,2.133,1.019A2.644,2.644,0,0,0,232.073-4,4.232,4.232,0,0,0,232.9-6.727ZM254.078,0h-4.307V-2.133H249.7A4.886,4.886,0,0,1,245.424.342q-4.867,0-4.867-5.893V-14h4.307v8.066q0,2.967,2.352,2.967a2.326,2.326,0,0,0,1.859-.813,3.28,3.28,0,0,0,.7-2.208V-14h4.307Zm15.285,0h-4.088V-2.01h-.055a4.563,4.563,0,0,1-4.17,2.352,4.362,4.362,0,0,1-3.206-1.155A4.14,4.14,0,0,1,256.676-3.9q0-4.074,4.826-4.7l3.8-.506q0-2.3-2.488-2.3a8.493,8.493,0,0,0-4.758,1.49v-3.254a10.7,10.7,0,0,1,2.468-.82,12.972,12.972,0,0,1,2.851-.355q5.988,0,5.988,5.975ZM265.3-5.687v-.943L262.76-6.3q-2.105.273-2.105,1.9a1.57,1.57,0,0,0,.513,1.21,1.97,1.97,0,0,0,1.388.472,2.558,2.558,0,0,0,1.982-.841A3.037,3.037,0,0,0,265.3-5.687ZM277.1,0h-4.32V-20.727h4.32Zm17.336,0h-4.32V-1.928h-.055a4.844,4.844,0,0,1-4.334,2.27A5.308,5.308,0,0,1,281.5-1.511a7.669,7.669,0,0,1-1.6-5.175,8.347,8.347,0,0,1,1.764-5.564,5.753,5.753,0,0,1,4.621-2.092,3.931,3.931,0,0,1,3.773,1.941h.055v-8.326h4.32ZM290.2-6.809V-7.861a3.313,3.313,0,0,0-.793-2.27,2.619,2.619,0,0,0-2.064-.9A2.6,2.6,0,0,0,285.1-9.905a5.238,5.238,0,0,0-.807,3.1,4.532,4.532,0,0,0,.779,2.844,2.587,2.587,0,0,0,2.16,1,2.6,2.6,0,0,0,2.14-1.053A4.388,4.388,0,0,0,290.2-6.809ZM309.723,0h-4.088V-2.01h-.055A4.563,4.563,0,0,1,301.41.342,4.362,4.362,0,0,1,298.2-.813,4.14,4.14,0,0,1,297.035-3.9q0-4.074,4.826-4.7l3.8-.506q0-2.3-2.488-2.3a8.493,8.493,0,0,0-4.758,1.49v-3.254a10.7,10.7,0,0,1,2.468-.82,12.972,12.972,0,0,1,2.851-.355q5.988,0,5.988,5.975Zm-4.061-5.687v-.943l-2.543.328q-2.105.273-2.105,1.9a1.57,1.57,0,0,0,.513,1.21,1.97,1.97,0,0,0,1.388.472,2.558,2.558,0,0,0,1.982-.841A3.037,3.037,0,0,0,305.662-5.687ZM326.84,0h-4.32V-1.928h-.055a4.844,4.844,0,0,1-4.334,2.27,5.308,5.308,0,0,1-4.225-1.853,7.669,7.669,0,0,1-1.6-5.175,8.347,8.347,0,0,1,1.764-5.564,5.753,5.753,0,0,1,4.621-2.092,3.931,3.931,0,0,1,3.773,1.941h.055v-8.326h4.32ZM322.6-6.809V-7.861a3.313,3.313,0,0,0-.793-2.27,2.619,2.619,0,0,0-2.064-.9A2.6,2.6,0,0,0,317.5-9.905a5.238,5.238,0,0,0-.807,3.1,4.532,4.532,0,0,0,.779,2.844,2.587,2.587,0,0,0,2.16,1,2.6,2.6,0,0,0,2.14-1.053A4.388,4.388,0,0,0,322.6-6.809Z" transform="translate(653 2171)" fill="#361274"/>
        <g id="Componente_8_1" data-name="Componente 8 – 1" transform="translate(653 2206.035)">
          <circle id="Elipse_533" data-name="Elipse 533" cx="8" cy="8" r="8" fill="#895cd8"/>
          <g id="Grupo_13138" data-name="Grupo 13138" transform="translate(4.572 4.572)">
            <circle id="Elipse_534" data-name="Elipse 534" cx="1" cy="1" r="1" transform="translate(0.428 0.428)" fill="#fff"/>
            <circle id="Elipse_537" data-name="Elipse 537" cx="1" cy="1" r="1" transform="translate(0.428 4.428)" fill="#fff"/>
            <circle id="Elipse_535" data-name="Elipse 535" cx="1" cy="1" r="1" transform="translate(4.428 0.428)" fill="#fff"/>
            <circle id="Elipse_536" data-name="Elipse 536" cx="1" cy="1" r="1" transform="translate(4.428 4.428)" fill="#fff"/>
          </g>
        </g>
        <g id="Componente_8_2" data-name="Componente 8 – 2" transform="translate(653 2259.98)">
          <circle id="Elipse_533-2" data-name="Elipse 533" cx="8" cy="8" r="8" fill="#895cd8"/>
          <g id="Grupo_13138-2" data-name="Grupo 13138" transform="translate(4.572 4.572)">
            <circle id="Elipse_534-2" data-name="Elipse 534" cx="1" cy="1" r="1" transform="translate(0.428 0.428)" fill="#fff"/>
            <circle id="Elipse_537-2" data-name="Elipse 537" cx="1" cy="1" r="1" transform="translate(0.428 4.428)" fill="#fff"/>
            <circle id="Elipse_535-2" data-name="Elipse 535" cx="1" cy="1" r="1" transform="translate(4.428 0.428)" fill="#fff"/>
            <circle id="Elipse_536-2" data-name="Elipse 536" cx="1" cy="1" r="1" transform="translate(4.428 4.428)" fill="#fff"/>
          </g>
        </g>
        <g id="Componente_8_3" data-name="Componente 8 – 3" transform="translate(653 2313.926)">
          <circle id="Elipse_533-3" data-name="Elipse 533" cx="8" cy="8" r="8" fill="#895cd8"/>
          <g id="Grupo_13138-3" data-name="Grupo 13138" transform="translate(4.572 4.572)">
            <circle id="Elipse_534-3" data-name="Elipse 534" cx="1" cy="1" r="1" transform="translate(0.428 0.428)" fill="#fff"/>
            <circle id="Elipse_537-3" data-name="Elipse 537" cx="1" cy="1" r="1" transform="translate(0.428 4.428)" fill="#fff"/>
            <circle id="Elipse_535-3" data-name="Elipse 535" cx="1" cy="1" r="1" transform="translate(4.428 0.428)" fill="#fff"/>
            <circle id="Elipse_536-3" data-name="Elipse 536" cx="1" cy="1" r="1" transform="translate(4.428 4.428)" fill="#fff"/>
          </g>
        </g>
      </g>
    </g>
    <path id="Trazado_71699" data-name="Trazado 71699" d="M24.5,0A24.5,24.5,0,1,1,0,24.5,24.5,24.5,0,0,1,24.5,0Z" transform="translate(1053 2625)" fill="#e6e2d5"/>
    <path id="Trazado_71700" data-name="Trazado 71700" d="M15.176-6.521a7.187,7.187,0,0,1-.506,2.707,6.608,6.608,0,0,1-1.408,2.181A6.515,6.515,0,0,1,11.115-.185,6.912,6.912,0,0,1,8.395.342a6.863,6.863,0,0,1-2.96-.615A5.975,5.975,0,0,1,3.227-2.058,8.342,8.342,0,0,1,1.846-4.922a14.155,14.155,0,0,1-.479-3.842,15.817,15.817,0,0,1,.622-4.587,10.531,10.531,0,0,1,1.777-3.521,7.983,7.983,0,0,1,2.8-2.263,8.314,8.314,0,0,1,3.691-.8,9.311,9.311,0,0,1,3.527.533v3.609a6.468,6.468,0,0,0-3.254-.848,4.547,4.547,0,0,0-1.982.424,4.382,4.382,0,0,0-1.524,1.2,5.817,5.817,0,0,0-1,1.88,8.366,8.366,0,0,0-.39,2.454h.082A4.755,4.755,0,0,1,9.83-12.605a5.362,5.362,0,0,1,2.2.438,4.775,4.775,0,0,1,1.682,1.237,5.676,5.676,0,0,1,1.08,1.921A7.664,7.664,0,0,1,15.176-6.521Zm-4.225.273q0-3.158-2.584-3.158A2.535,2.535,0,0,0,7.3-9.187a2.373,2.373,0,0,0-.82.615,2.807,2.807,0,0,0-.526.937,3.681,3.681,0,0,0-.185,1.2,4.627,4.627,0,0,0,.191,1.354,3.6,3.6,0,0,0,.54,1.1,2.674,2.674,0,0,0,.827.745,2.111,2.111,0,0,0,1.066.273,2.309,2.309,0,0,0,1.06-.239,2.372,2.372,0,0,0,.807-.67,3.079,3.079,0,0,0,.513-1.039A4.74,4.74,0,0,0,10.951-6.248Z" transform="translate(1069 2660)" fill="#fcf8ec"/>
  </g>
</svg>
