<svg xmlns="http://www.w3.org/2000/svg" width="138" height="125" viewBox="0 0 138 125">
  <g id="Grupo_46039" data-name="Grupo 46039" transform="translate(4808 -2530)">
    <rect id="Rectángulo_12709" data-name="Rectángulo 12709" width="138" height="125" transform="translate(-4808 2530)" fill="none"/>
    <g id="desgarrador-de-costuras" transform="translate(-4806 2526)">
      <path id="Trazado_70969" data-name="Trazado 70969" d="M24,24H67.808v97.726H24Z" transform="translate(-6.315 -6.315)" fill="#0093b9"/>
      <path id="Trazado_70970" data-name="Trazado 70970" d="M144,24h18.534v97.726H144Z" transform="translate(-101.041 -6.315)" fill="#fdc01e"/>
      <path id="Trazado_70971" data-name="Trazado 70971" d="M280,24h43.808v97.726H280Z" transform="translate(-208.397 -6.315)" fill="#0093b9"/>
      <path id="Trazado_70972" data-name="Trazado 70972" d="M280,24h18.534v97.726H280Z" transform="translate(-208.397 -6.315)" fill="#fdc01e"/>
      <path id="Trazado_70973" data-name="Trazado 70973" d="M115.411,16H71.6a1.685,1.685,0,0,0-1.685,1.685v6.74h-6.74v-6.74A1.685,1.685,0,0,0,61.493,16H17.685A1.685,1.685,0,0,0,16,17.685v97.726a1.685,1.685,0,0,0,1.685,1.685H61.493a1.685,1.685,0,0,0,1.685-1.685v-6.74h6.74v6.74A1.685,1.685,0,0,0,71.6,117.1h43.808a1.685,1.685,0,0,0,1.685-1.685V17.685A1.685,1.685,0,0,0,115.411,16ZM69.918,27.794V35.83l-6.74-2.888V27.794Zm0,16.849h-6.74V36.608l6.74,2.888Zm3.37-3.7,6.754,2.895a.421.421,0,0,1-.166.808H73.288Zm-3.37,23.922h-6.74V56.827l6.74,2.888Zm3.37-3.7,6.754,2.895a.421.421,0,0,1-.166.808H73.288Zm-3.37,23.922h-6.74V77.046l6.74,2.888Zm3.37-3.7,6.754,2.895a.421.421,0,0,1-.166.808H73.288Zm-10.11,7.073h6.74v8.036L63.178,93.6Zm-3.37,3.7L53.054,89.26a.421.421,0,0,1,.166-.808h6.588Zm3.37-18.775V68.233h6.74v8.036Zm-3.37-1.444-6.754-2.895a.421.421,0,0,1,.166-.808h6.588Zm3.37-18.775V48.014h6.74v8.036Zm-3.37-1.444-6.754-2.895a.421.421,0,0,1,.166-.808h6.588Zm0-20.219L53.054,28.6a.421.421,0,0,1,.166-.808h6.588ZM19.37,19.37h21.9v94.356H19.37Zm40.438,94.356H44.644V19.37H59.808v5.055H53.22A3.791,3.791,0,0,0,51.727,31.7l8.082,3.464v9.48H53.22a3.791,3.791,0,0,0-1.493,7.276l8.082,3.464v9.48H53.22a3.791,3.791,0,0,0-1.493,7.276L59.808,75.6v9.48H53.22a3.791,3.791,0,0,0-1.493,7.276l8.082,3.464v9.48H49.7v3.37h10.11Zm3.37-8.425V97.266l6.74,2.888V105.3Zm10.11-3.7,6.754,2.895a.421.421,0,0,1-.166.808H73.288Zm0,7.073h6.588a3.791,3.791,0,0,0,1.493-7.276l-8.082-3.464v-9.48h6.588a3.791,3.791,0,0,0,1.493-7.276l-8.082-3.464v-9.48h6.588a3.791,3.791,0,0,0,1.493-7.276l-8.082-3.464v-9.48h6.588a3.791,3.791,0,0,0,1.493-7.276l-8.082-3.464v-9.48H83.4v-3.37H73.288V19.37H88.452v94.356H73.288Zm40.438,5.055h-21.9V19.37h21.9Z"/>
      <path id="Trazado_70974" data-name="Trazado 70974" d="M392,56h3.37v3.37H392Z" transform="translate(-296.808 -31.575)"/>
      <path id="Trazado_70975" data-name="Trazado 70975" d="M392,120h3.37v3.37H392Z" transform="translate(-296.808 -82.096)"/>
      <path id="Trazado_70976" data-name="Trazado 70976" d="M392,184h3.37v3.37H392Z" transform="translate(-296.808 -132.617)"/>
      <path id="Trazado_70977" data-name="Trazado 70977" d="M392,248h3.37v3.37H392Z" transform="translate(-296.808 -183.137)"/>
      <path id="Trazado_70978" data-name="Trazado 70978" d="M392,312h3.37v3.37H392Z" transform="translate(-296.808 -233.658)"/>
      <path id="Trazado_70979" data-name="Trazado 70979" d="M392,376h3.37v3.37H392Z" transform="translate(-296.808 -284.178)"/>
      <path id="Trazado_70980" data-name="Trazado 70980" d="M392,440h3.37v3.37H392Z" transform="translate(-296.808 -334.699)"/>
      <path id="Trazado_70981" data-name="Trazado 70981" d="M104,56h3.37v3.37H104Z" transform="translate(-69.466 -31.575)"/>
      <path id="Trazado_70982" data-name="Trazado 70982" d="M104,120h3.37v3.37H104Z" transform="translate(-69.466 -82.096)"/>
      <path id="Trazado_70983" data-name="Trazado 70983" d="M104,184h3.37v3.37H104Z" transform="translate(-69.466 -132.617)"/>
      <path id="Trazado_70984" data-name="Trazado 70984" d="M104,248h3.37v3.37H104Z" transform="translate(-69.466 -183.137)"/>
      <path id="Trazado_70985" data-name="Trazado 70985" d="M104,312h3.37v3.37H104Z" transform="translate(-69.466 -233.658)"/>
      <path id="Trazado_70986" data-name="Trazado 70986" d="M104,376h3.37v3.37H104Z" transform="translate(-69.466 -284.178)"/>
      <path id="Trazado_70987" data-name="Trazado 70987" d="M104,440h3.37v3.37H104Z" transform="translate(-69.466 -334.699)"/>
    </g>
  </g>
</svg>
