<svg xmlns="http://www.w3.org/2000/svg" width="138" height="125" viewBox="0 0 138 125">
  <g id="Grupo_46042" data-name="Grupo 46042" transform="translate(4522 -2740)">
    <rect id="Rectángulo_12711" data-name="Rectángulo 12711" width="138" height="125" transform="translate(-4522 2740)" fill="none"/>
    <g id="Grupo_46041" data-name="Grupo 46041" transform="translate(-348.8 -2.113)">
      <g id="Grupo_45954" data-name="Grupo 45954" transform="translate(-4157 2753.785)">
        <g id="patron-de-tela_1_" data-name="patron-de-tela (1)" transform="translate(0 0)">
          <g id="Grupo_45738" data-name="Grupo 45738" transform="translate(1.673 1.673)">
            <path id="Trazado_70918" data-name="Trazado 70918" d="M54.1,24,34.032,30.688S42.392,57.44,24,69.144c1.935,9.942,5.016,19.5,5.016,28.424,0,8.36-.833,16.4-3.344,23.408H70.816V40.72S59.112,35.7,54.1,24Z" transform="translate(-24 -24)" fill="#f5edc3"/>
          </g>
          <path id="Trazado_70921" data-name="Trazado 70921" d="M66.156,114.645V34.388a1.672,1.672,0,0,0-1.014-1.537C65.032,32.8,54,27.972,49.3,17.009a1.672,1.672,0,0,0-2.066-.928L27.17,22.769A1.672,1.672,0,0,0,26.1,24.854a49.5,49.5,0,0,1,1.805,14.3C27.647,49.38,23.9,56.866,16.769,61.4a1.672,1.672,0,0,0-.744,1.73c.579,2.975,1.263,5.931,1.924,8.789,1.575,6.8,3.062,13.229,3.062,19.315,0,9.28-1.062,16.752-3.246,22.844a1.672,1.672,0,0,0,1.574,2.236H64.484A1.672,1.672,0,0,0,66.156,114.645ZM62.812,91.234H59.468a1.672,1.672,0,1,0,0,3.344h3.344v18.395H46.092v-3.344a1.672,1.672,0,1,0-3.344,0v3.344h-21.1c1.818-6.014,2.7-13.155,2.7-21.736,0-6.468-1.529-13.075-3.147-20.069-.573-2.478-1.164-5.03-1.683-7.584,7.4-5.166,11.45-13.556,11.727-24.345a53.558,53.558,0,0,0-1.526-13.8l17.144-5.715C51.461,29.074,59.89,33.97,62.812,35.444Z" transform="translate(-15.994 -15.995)"/>
          <path id="Trazado_70923" data-name="Trazado 70923" d="M145.672,62.688a1.672,1.672,0,0,0,1.672-1.672V57.672a1.672,1.672,0,0,0-3.344,0v3.344A1.672,1.672,0,0,0,145.672,62.688Z" transform="translate(-117.247 -47.639)"/>
          <path id="Trazado_70929" data-name="Trazado 70929" d="M54.688,249.672A1.672,1.672,0,0,0,53.016,248H49.672a1.672,1.672,0,0,0,0,3.344h3.344A1.672,1.672,0,0,0,54.688,249.672Z" transform="translate(-41.311 -199.511)"/>
          <path id="Trazado_70937" data-name="Trazado 70937" d="M77.016,376.007H73.672a1.672,1.672,0,1,0,0,3.344h3.344a1.672,1.672,0,0,0,0-3.344Z" transform="translate(-60.295 -300.764)"/>
          <path id="Trazado_70938" data-name="Trazado 70938" d="M126.688,377.672A1.672,1.672,0,0,0,125.016,376h-3.344a1.672,1.672,0,1,0,0,3.344h3.344A1.672,1.672,0,0,0,126.688,377.672Z" transform="translate(-98.263 -300.759)"/>
          <path id="Trazado_70939" data-name="Trazado 70939" d="M173.016,375.993h-3.344a1.672,1.672,0,1,0,0,3.344h3.344a1.672,1.672,0,1,0,0-3.344Z" transform="translate(-136.231 -300.753)"/>
          <path id="Trazado_70940" data-name="Trazado 70940" d="M97.672,251.344h3.344a1.672,1.672,0,1,0,0-3.344H97.672a1.672,1.672,0,0,0,0,3.344Z" transform="translate(-79.279 -199.511)"/>
          <path id="Trazado_70941" data-name="Trazado 70941" d="M145.672,251.344h3.344a1.672,1.672,0,1,0,0-3.344h-3.344a1.672,1.672,0,1,0,0,3.344Z" transform="translate(-117.247 -199.511)"/>
          <path id="Trazado_70942" data-name="Trazado 70942" d="M193.672,251.344h3.344a1.672,1.672,0,1,0,0-3.344h-3.344a1.672,1.672,0,1,0,0,3.344Z" transform="translate(-155.215 -199.511)"/>
          <path id="Trazado_70943" data-name="Trazado 70943" d="M145.672,110.688a1.672,1.672,0,0,0,1.672-1.672v-3.344a1.672,1.672,0,0,0-3.344,0v3.344A1.672,1.672,0,0,0,145.672,110.688Z" transform="translate(-117.247 -85.607)"/>
          <path id="Trazado_70944" data-name="Trazado 70944" d="M145.672,158.688a1.672,1.672,0,0,0,1.672-1.672v-3.344a1.672,1.672,0,1,0-3.344,0v3.344A1.672,1.672,0,0,0,145.672,158.688Z" transform="translate(-117.247 -123.575)"/>
          <path id="Trazado_70945" data-name="Trazado 70945" d="M145.672,206.688a1.672,1.672,0,0,0,1.672-1.672v-3.344a1.672,1.672,0,1,0-3.344,0v3.344A1.672,1.672,0,0,0,145.672,206.688Z" transform="translate(-117.247 -161.543)"/>
          <path id="Trazado_70946" data-name="Trazado 70946" d="M145.672,280A1.672,1.672,0,0,0,144,281.672v3.344a1.672,1.672,0,1,0,3.344,0v-3.344A1.672,1.672,0,0,0,145.672,280Z" transform="translate(-117.247 -224.823)"/>
          <path id="Trazado_70947" data-name="Trazado 70947" d="M145.672,328A1.672,1.672,0,0,0,144,329.672v3.344a1.672,1.672,0,1,0,3.344,0v-3.344A1.672,1.672,0,0,0,145.672,328Z" transform="translate(-117.247 -262.791)"/>
          <path id="Trazado_70948" data-name="Trazado 70948" d="M145.672,408A1.672,1.672,0,0,0,144,409.672v3.344a1.672,1.672,0,0,0,3.344,0v-3.344A1.672,1.672,0,0,0,145.672,408Z" transform="translate(-117.247 -326.07)"/>
        </g>
        <g id="patron-de-tela_1_2" data-name="patron-de-tela (1)" transform="translate(56.271 0)">
          <g id="Grupo_45738-2" data-name="Grupo 45738" transform="translate(1.673 1.673)">
            <path id="Trazado_70918-2" data-name="Trazado 70918" d="M54.1,24,34.032,30.688S42.392,57.44,24,69.144c1.935,9.942,5.016,19.5,5.016,28.424,0,8.36-.833,16.4-3.344,23.408H70.816V40.72S59.112,35.7,54.1,24Z" transform="translate(-24 -24)" fill="#f5edc3"/>
          </g>
          <path id="Trazado_70921-2" data-name="Trazado 70921" d="M66.156,114.645V34.388a1.672,1.672,0,0,0-1.014-1.537C65.032,32.8,54,27.972,49.3,17.009a1.672,1.672,0,0,0-2.066-.928L27.17,22.769A1.672,1.672,0,0,0,26.1,24.854a49.5,49.5,0,0,1,1.805,14.3C27.647,49.38,23.9,56.866,16.769,61.4a1.672,1.672,0,0,0-.744,1.73c.579,2.975,1.263,5.931,1.924,8.789,1.575,6.8,3.062,13.229,3.062,19.315,0,9.28-1.062,16.752-3.246,22.844a1.672,1.672,0,0,0,1.574,2.236H64.484A1.672,1.672,0,0,0,66.156,114.645ZM62.812,91.234H59.468a1.672,1.672,0,1,0,0,3.344h3.344v18.395H46.092v-3.344a1.672,1.672,0,1,0-3.344,0v3.344h-21.1c1.818-6.014,2.7-13.155,2.7-21.736,0-6.468-1.529-13.075-3.147-20.069-.573-2.478-1.164-5.03-1.683-7.584,7.4-5.166,11.45-13.556,11.727-24.345a53.558,53.558,0,0,0-1.526-13.8l17.144-5.715C51.461,29.074,59.89,33.97,62.812,35.444Z" transform="translate(-15.994 -15.995)"/>
          <path id="Trazado_70923-2" data-name="Trazado 70923" d="M145.672,62.688a1.672,1.672,0,0,0,1.672-1.672V57.672a1.672,1.672,0,0,0-3.344,0v3.344A1.672,1.672,0,0,0,145.672,62.688Z" transform="translate(-117.247 -47.639)"/>
          <path id="Trazado_70929-2" data-name="Trazado 70929" d="M54.688,249.672A1.672,1.672,0,0,0,53.016,248H49.672a1.672,1.672,0,0,0,0,3.344h3.344A1.672,1.672,0,0,0,54.688,249.672Z" transform="translate(-41.311 -199.511)"/>
          <path id="Trazado_70937-2" data-name="Trazado 70937" d="M77.016,376.007H73.672a1.672,1.672,0,1,0,0,3.344h3.344a1.672,1.672,0,0,0,0-3.344Z" transform="translate(-60.295 -300.764)"/>
          <path id="Trazado_70938-2" data-name="Trazado 70938" d="M126.688,377.672A1.672,1.672,0,0,0,125.016,376h-3.344a1.672,1.672,0,1,0,0,3.344h3.344A1.672,1.672,0,0,0,126.688,377.672Z" transform="translate(-98.263 -300.759)"/>
          <path id="Trazado_70939-2" data-name="Trazado 70939" d="M173.016,375.993h-3.344a1.672,1.672,0,1,0,0,3.344h3.344a1.672,1.672,0,1,0,0-3.344Z" transform="translate(-136.231 -300.753)"/>
          <path id="Trazado_70940-2" data-name="Trazado 70940" d="M97.672,251.344h3.344a1.672,1.672,0,1,0,0-3.344H97.672a1.672,1.672,0,0,0,0,3.344Z" transform="translate(-79.279 -199.511)"/>
          <path id="Trazado_70941-2" data-name="Trazado 70941" d="M145.672,251.344h3.344a1.672,1.672,0,1,0,0-3.344h-3.344a1.672,1.672,0,1,0,0,3.344Z" transform="translate(-117.247 -199.511)"/>
          <path id="Trazado_70942-2" data-name="Trazado 70942" d="M193.672,251.344h3.344a1.672,1.672,0,1,0,0-3.344h-3.344a1.672,1.672,0,1,0,0,3.344Z" transform="translate(-155.215 -199.511)"/>
          <path id="Trazado_70943-2" data-name="Trazado 70943" d="M145.672,110.688a1.672,1.672,0,0,0,1.672-1.672v-3.344a1.672,1.672,0,0,0-3.344,0v3.344A1.672,1.672,0,0,0,145.672,110.688Z" transform="translate(-117.247 -85.607)"/>
          <path id="Trazado_70944-2" data-name="Trazado 70944" d="M145.672,158.688a1.672,1.672,0,0,0,1.672-1.672v-3.344a1.672,1.672,0,1,0-3.344,0v3.344A1.672,1.672,0,0,0,145.672,158.688Z" transform="translate(-117.247 -123.575)"/>
          <path id="Trazado_70945-2" data-name="Trazado 70945" d="M145.672,206.688a1.672,1.672,0,0,0,1.672-1.672v-3.344a1.672,1.672,0,1,0-3.344,0v3.344A1.672,1.672,0,0,0,145.672,206.688Z" transform="translate(-117.247 -161.543)"/>
          <path id="Trazado_70946-2" data-name="Trazado 70946" d="M145.672,280A1.672,1.672,0,0,0,144,281.672v3.344a1.672,1.672,0,1,0,3.344,0v-3.344A1.672,1.672,0,0,0,145.672,280Z" transform="translate(-117.247 -224.823)"/>
          <path id="Trazado_70947-2" data-name="Trazado 70947" d="M145.672,328A1.672,1.672,0,0,0,144,329.672v3.344a1.672,1.672,0,1,0,3.344,0v-3.344A1.672,1.672,0,0,0,145.672,328Z" transform="translate(-117.247 -262.791)"/>
          <path id="Trazado_70948-2" data-name="Trazado 70948" d="M145.672,408A1.672,1.672,0,0,0,144,409.672v3.344a1.672,1.672,0,0,0,3.344,0v-3.344A1.672,1.672,0,0,0,145.672,408Z" transform="translate(-117.247 -326.07)"/>
        </g>
      </g>
    </g>
  </g>
</svg>
