<svg xmlns="http://www.w3.org/2000/svg" width="138" height="125" viewBox="0 0 138 125">
  <g id="Grupo_46037" data-name="Grupo 46037" transform="translate(4502 -2387)">
    <rect id="Rectángulo_12708" data-name="Rectángulo 12708" width="138" height="125" transform="translate(-4502 2387)" fill="none"/>
    <g id="patron-de-tela_2_" data-name="patron-de-tela (2)" transform="translate(-4536.571 2364.001)">
      <path id="Trazado_70949" data-name="Trazado 70949" d="M188.572,60.821S167.75,64.607,152.607,40L129.893,51.357s7.571,17.036,7.571,32.179S128,100.572,128,100.572l5.679,26.5h54.893Z" transform="translate(-54.964 -6.108)" fill="#e8edf1"/>
      <path id="Trazado_70950" data-name="Trazado 70950" d="M347.357,125.053V191.3H336V124.14A28.361,28.361,0,0,0,347.357,125.053Z" transform="translate(-213.75 -70.339)" fill="#e0e2e5"/>
      <path id="Trazado_70951" data-name="Trazado 70951" d="M184.358,120.964V54.714a1.893,1.893,0,0,0-2.231-1.862,27.066,27.066,0,0,1-11.421-1.134c-11.163-3.349-18.447-12.081-22.593-18.817a1.893,1.893,0,0,0-2.459-.7L122.939,43.557a1.893,1.893,0,0,0-.883,2.461c.074.168,7.408,16.859,7.408,31.411,0,13.263-7.636,15.111-7.943,15.18a1.893,1.893,0,0,0-1.48,2.253l5.679,26.5a1.893,1.893,0,0,0,1.851,1.5h54.893A1.893,1.893,0,0,0,184.358,120.964ZM169.215,92.571h-1.893a1.893,1.893,0,0,0,0,3.786h1.893v22.714H129.1l-5.011-23.384a13.365,13.365,0,0,0,3.873-2.724c4.369-4.369,5.287-10.86,5.287-15.535,0-12.762-5.116-26.559-7.032-31.278l19.6-9.8c7.781,11.9,16.886,16.83,23.4,18.869Zm11.357,26.5H173V56.182a32.356,32.356,0,0,0,7.571.608Z" transform="translate(-48.857)"/>
      <path id="Trazado_70952" data-name="Trazado 70952" d="M189.679,184h-3.786a1.893,1.893,0,0,0,0,3.786h3.786a1.893,1.893,0,1,0,0-3.786Z" transform="translate(-97.714 -116.036)"/>
      <path id="Trazado_70953" data-name="Trazado 70953" d="M173.679,288h-3.786a1.893,1.893,0,1,0,0,3.786h3.786a1.893,1.893,0,1,0,0-3.786Z" transform="translate(-85.5 -195.429)"/>
      <path id="Trazado_70954" data-name="Trazado 70954" d="M221.679,288h-3.786a1.893,1.893,0,0,0,0,3.786h3.786a1.893,1.893,0,1,0,0-3.786Z" transform="translate(-122.143 -195.429)"/>
      <path id="Trazado_70955" data-name="Trazado 70955" d="M265.893,291.786h3.786a1.893,1.893,0,0,0,0-3.786h-3.786a1.893,1.893,0,0,0,0,3.786Z" transform="translate(-158.786 -195.429)"/>
      <path id="Trazado_70956" data-name="Trazado 70956" d="M233.893,184a1.893,1.893,0,1,0,0,3.786h3.786a1.893,1.893,0,0,0,0-3.786Z" transform="translate(-134.357 -116.036)"/>
      <path id="Trazado_70957" data-name="Trazado 70957" d="M281.893,187.786h3.786a1.893,1.893,0,0,0,0-3.786h-3.786a1.893,1.893,0,0,0,0,3.786Z" transform="translate(-171 -116.036)"/>
      <path id="Trazado_70958" data-name="Trazado 70958" d="M57.893,314.5a1.893,1.893,0,1,0,0,3.786h7.571a1.893,1.893,0,1,0,0-3.786H63.571V291.786h1.893a1.893,1.893,0,1,0,0-3.786H57.893a1.893,1.893,0,1,0,0,3.786h1.893V314.5Z" transform="translate(0 -195.429)"/>
      <path id="Trazado_70959" data-name="Trazado 70959" d="M321.893,48A1.893,1.893,0,0,0,320,49.893v7.571a1.893,1.893,0,0,0,3.786,0V55.571h7.571v1.893a1.893,1.893,0,1,0,3.786,0V49.893a1.893,1.893,0,1,0-3.786,0v1.893h-7.571V49.893A1.893,1.893,0,0,0,321.893,48Z" transform="translate(-201.536 -12.215)"/>
      <path id="Trazado_70960" data-name="Trazado 70960" d="M198.893,443.357a1.893,1.893,0,0,0,1.893-1.893v-7.571a1.893,1.893,0,0,0-3.786,0v1.893H147.786v-1.893a1.893,1.893,0,0,0-3.786,0v7.571a1.893,1.893,0,0,0,3.786,0v-1.893H197v1.893A1.893,1.893,0,0,0,198.893,443.357Z" transform="translate(-67.179 -305.357)"/>
      <path id="Trazado_70961" data-name="Trazado 70961" d="M417.464,123.786a1.893,1.893,0,0,0,0-3.786h-7.571a1.893,1.893,0,0,0,0,3.786h1.893V186.25h-1.893a1.893,1.893,0,0,0,0,3.786h7.571a1.893,1.893,0,0,0,0-3.786h-1.893V123.786Z" transform="translate(-268.714 -67.179)"/>
    </g>
  </g>
</svg>
