<svg xmlns="http://www.w3.org/2000/svg" width="174" height="181" viewBox="0 0 174 181">
  <g id="Grupo_46014" data-name="Grupo 46014" transform="translate(8755 -4785)">
    <path id="Trazado_71718" data-name="Trazado 71718" d="M10,0H164a10,10,0,0,1,10,10V171a10,10,0,0,1-10,10H10A10,10,0,0,1,0,171V10A10,10,0,0,1,10,0Z" transform="translate(-8755 4785)" fill="#fff7de"/>
    <path id="Trazado_71719" data-name="Trazado 71719" d="M-55.925-.7A12.929,12.929,0,0,1-61.53.342a9.448,9.448,0,0,1-7.1-2.652A9.7,9.7,0,0,1-71.21-9.379,10.358,10.358,0,0,1-68.3-17.008a10.162,10.162,0,0,1,7.54-2.926,14.1,14.1,0,0,1,4.84.725v4.252a8.576,8.576,0,0,0-4.484-1.176A5.949,5.949,0,0,0-64.866-14.4a6.443,6.443,0,0,0-1.7,4.7,6.319,6.319,0,0,0,1.6,4.532,5.651,5.651,0,0,0,4.307,1.688,9.186,9.186,0,0,0,4.73-1.258Zm7.314.7h-4.32V-14h4.32Zm2.229-20.631-4.279,4.416h-3.117l3.555-4.416ZM-35.841-10.1a3.748,3.748,0,0,0-1.818-.424A2.62,2.62,0,0,0-39.86-9.5a4.5,4.5,0,0,0-.793,2.81V0h-4.32V-14h4.32v2.6h.055a3.737,3.737,0,0,1,3.691-2.844,2.782,2.782,0,0,1,1.066.164Zm12.51,9.6a8.542,8.542,0,0,1-4.225.848,7.145,7.145,0,0,1-5.223-1.955,6.752,6.752,0,0,1-2-5.045,7.438,7.438,0,0,1,2.14-5.626,7.907,7.907,0,0,1,5.722-2.058,7.342,7.342,0,0,1,3.582.656v3.664a4.925,4.925,0,0,0-3.021-1.012A3.981,3.981,0,0,0-29.3-9.946a4.056,4.056,0,0,0-1.087,3,3.99,3.99,0,0,0,1.039,2.919,3.819,3.819,0,0,0,2.857,1.06,5.7,5.7,0,0,0,3.158-1.012ZM-7.2,0H-11.5V-2.133h-.068A4.886,4.886,0,0,1-15.853.342q-4.867,0-4.867-5.893V-14h4.307v8.066q0,2.967,2.352,2.967A2.326,2.326,0,0,0-12.2-3.78a3.28,3.28,0,0,0,.7-2.208V-14H-7.2ZM.759,0h-4.32V-20.727H.759ZM11.067.342a7.526,7.526,0,0,1-5.5-1.962,7.113,7.113,0,0,1-2-5.325A7.113,7.113,0,0,1,5.64-12.38a7.852,7.852,0,0,1,5.619-1.962,7.435,7.435,0,0,1,5.469,1.962A6.974,6.974,0,0,1,18.71-7.191a7.4,7.4,0,0,1-2.044,5.51A7.609,7.609,0,0,1,11.067.342Zm.109-11.375A2.882,2.882,0,0,0,8.8-9.98,4.642,4.642,0,0,0,7.95-7q0,4.033,3.254,4.033,3.1,0,3.1-4.143Q14.308-11.033,11.177-11.033ZM20.6-.369v-3.5a9.2,9.2,0,0,0,2.126.957,7.049,7.049,0,0,0,2,.314,4.3,4.3,0,0,0,1.812-.314,1.016,1.016,0,0,0,.663-.957.885.885,0,0,0-.3-.684,2.8,2.8,0,0,0-.772-.479A8.766,8.766,0,0,0,25.095-5.4q-.561-.164-1.08-.369a10.348,10.348,0,0,1-1.47-.677,4.248,4.248,0,0,1-1.066-.841,3.3,3.3,0,0,1-.656-1.107,4.419,4.419,0,0,1-.226-1.49,3.836,3.836,0,0,1,.513-2.023A4.188,4.188,0,0,1,22.477-13.3a6.247,6.247,0,0,1,1.955-.793,10.194,10.194,0,0,1,2.29-.253,12.707,12.707,0,0,1,1.887.144,14.082,14.082,0,0,1,1.887.417v3.336a6.817,6.817,0,0,0-1.757-.718A7.411,7.411,0,0,0,26.9-11.4a4.074,4.074,0,0,0-.8.075,2.634,2.634,0,0,0-.663.219,1.218,1.218,0,0,0-.451.369.85.85,0,0,0-.164.513.947.947,0,0,0,.246.656,2.137,2.137,0,0,0,.643.472,6.343,6.343,0,0,0,.882.355q.485.157.964.321a12.532,12.532,0,0,1,1.559.656,4.983,4.983,0,0,1,1.2.834,3.275,3.275,0,0,1,.766,1.121,3.985,3.985,0,0,1,.267,1.531,3.994,3.994,0,0,1-.54,2.126A4.324,4.324,0,0,1,29.367-.718,6.51,6.51,0,0,1,27.3.089a11.445,11.445,0,0,1-2.427.253A12.51,12.51,0,0,1,20.6-.369ZM55.255,0h-4.32V-1.928H50.88A4.844,4.844,0,0,1,46.546.342a5.308,5.308,0,0,1-4.225-1.853,7.669,7.669,0,0,1-1.6-5.175,8.347,8.347,0,0,1,1.764-5.564,5.753,5.753,0,0,1,4.621-2.092A3.931,3.931,0,0,1,50.88-12.4h.055v-8.326h4.32ZM51.017-6.809V-7.861a3.313,3.313,0,0,0-.793-2.27,2.619,2.619,0,0,0-2.064-.9,2.6,2.6,0,0,0-2.242,1.128,5.238,5.238,0,0,0-.807,3.1,4.532,4.532,0,0,0,.779,2.844,2.587,2.587,0,0,0,2.16,1,2.6,2.6,0,0,0,2.14-1.053A4.388,4.388,0,0,0,51.017-6.809ZM71.47-5.77H62.337q.219,3.049,3.842,3.049a7.5,7.5,0,0,0,4.061-1.094V-.7A10.667,10.667,0,0,1,65.194.342a7.1,7.1,0,0,1-5.264-1.88,7.1,7.1,0,0,1-1.873-5.243A7.492,7.492,0,0,1,60.081-12.3a6.741,6.741,0,0,1,4.977-2.037,6.118,6.118,0,0,1,4.737,1.818A7,7,0,0,1,71.47-7.588ZM67.464-8.422q0-3.008-2.434-3.008a2.324,2.324,0,0,0-1.8.861,3.909,3.909,0,0,0-.923,2.146ZM-34.651,29.494a8.542,8.542,0,0,1-4.225.848A7.145,7.145,0,0,1-44.1,28.387a6.752,6.752,0,0,1-2-5.045,7.438,7.438,0,0,1,2.14-5.626,7.907,7.907,0,0,1,5.722-2.058,7.342,7.342,0,0,1,3.582.656v3.664a4.925,4.925,0,0,0-3.021-1.012,3.981,3.981,0,0,0-2.946,1.087,4.056,4.056,0,0,0-1.087,3,3.99,3.99,0,0,0,1.039,2.919,3.819,3.819,0,0,0,2.857,1.06,5.7,5.7,0,0,0,3.158-1.012ZM-20.173,30h-4.088V27.99h-.055a4.563,4.563,0,0,1-4.17,2.352,4.362,4.362,0,0,1-3.206-1.155A4.14,4.14,0,0,1-32.86,26.1q0-4.074,4.826-4.7l3.8-.506q0-2.3-2.488-2.3a8.493,8.493,0,0,0-4.758,1.49V16.834a10.7,10.7,0,0,1,2.468-.82,12.972,12.972,0,0,1,2.851-.355q5.988,0,5.988,5.975Zm-4.061-5.687v-.943l-2.543.328q-2.105.273-2.105,1.9a1.57,1.57,0,0,0,.513,1.21,1.97,1.97,0,0,0,1.388.472A2.558,2.558,0,0,0-25,26.438,3.037,3.037,0,0,0-24.233,24.313ZM-12.435,30h-4.32V9.273h4.32ZM-6.61,13.785A2.523,2.523,0,0,1-8.4,13.136a2.092,2.092,0,0,1-.7-1.593,2.018,2.018,0,0,1,.7-1.586A2.607,2.607,0,0,1-6.61,9.342a2.6,2.6,0,0,1,1.8.615,2.027,2.027,0,0,1,.69,1.586,2.084,2.084,0,0,1-.69,1.613A2.566,2.566,0,0,1-6.61,13.785ZM-4.478,30H-8.8V16h4.32Zm17.336,0H8.538V28.072H8.483a4.844,4.844,0,0,1-4.334,2.27A5.308,5.308,0,0,1-.075,28.489a7.669,7.669,0,0,1-1.6-5.175A8.347,8.347,0,0,1,.089,17.75,5.753,5.753,0,0,1,4.71,15.658,3.931,3.931,0,0,1,8.483,17.6h.055V9.273h4.32ZM8.62,23.191V22.139a3.313,3.313,0,0,0-.793-2.27,2.619,2.619,0,0,0-2.064-.9,2.6,2.6,0,0,0-2.242,1.128,5.238,5.238,0,0,0-.807,3.1,4.532,4.532,0,0,0,.779,2.844,2.587,2.587,0,0,0,2.16,1,2.6,2.6,0,0,0,2.14-1.053A4.388,4.388,0,0,0,8.62,23.191ZM28.144,30H24.056V27.99H24a4.563,4.563,0,0,1-4.17,2.352,4.362,4.362,0,0,1-3.206-1.155A4.14,4.14,0,0,1,15.456,26.1q0-4.074,4.826-4.7l3.8-.506q0-2.3-2.488-2.3a8.493,8.493,0,0,0-4.758,1.49V16.834a10.7,10.7,0,0,1,2.468-.82,12.972,12.972,0,0,1,2.851-.355q5.988,0,5.988,5.975Zm-4.061-5.687v-.943L21.54,23.7q-2.105.273-2.105,1.9a1.57,1.57,0,0,0,.513,1.21,1.97,1.97,0,0,0,1.388.472,2.558,2.558,0,0,0,1.982-.841A3.037,3.037,0,0,0,24.083,24.313ZM45.261,30H40.94V28.072h-.055a4.844,4.844,0,0,1-4.334,2.27,5.308,5.308,0,0,1-4.225-1.853,7.669,7.669,0,0,1-1.6-5.175,8.347,8.347,0,0,1,1.764-5.564,5.753,5.753,0,0,1,4.621-2.092A3.931,3.931,0,0,1,40.886,17.6h.055V9.273h4.32Zm-4.238-6.809V22.139a3.313,3.313,0,0,0-.793-2.27,2.8,2.8,0,0,0-4.307.226,5.238,5.238,0,0,0-.807,3.1,4.532,4.532,0,0,0,.779,2.844,2.767,2.767,0,0,0,4.3-.055A4.388,4.388,0,0,0,41.022,23.191Z" transform="translate(-8668 4915)" fill="#361274"/>
    <g id="alta-calidad" transform="translate(-8787.526 4806)">
      <path id="Trazado_30701" data-name="Trazado 30701" d="M282.517,39.315l2.169,12.3-11.735,4.272L266.706,66.7l-11.691-4.256V.18l9.523,7.991h12.489l2.169,12.3,9.566,8.029Z" transform="translate(-135.443 -0.144)" fill="#ff9f22"/>
      <path id="Trazado_30702" data-name="Trazado 30702" d="M119.572.036V62.3l-.044-.016L107.79,66.558l-6.244-10.816L89.811,51.47l2.169-12.3L85.735,28.356,95.3,20.326l2.169-12.3h12.489L119.528,0Z" fill="#ffda44"/>
      <path id="Trazado_30703" data-name="Trazado 30703" d="M267.764,129.877l-12.749,9.56v-7.494l9.151-6.864Z" transform="translate(-135.443 -100.078)" fill="#fd5"/>
      <path id="Trazado_30704" data-name="Trazado 30704" d="M201.719,153.739v7.494l-5.491,4.118-7.823-9.129,4.551-3.9,4.17,4.863Z" transform="translate(-82.148 -121.874)" fill="#fff68e"/>
    </g>
  </g>
</svg>
