<svg xmlns="http://www.w3.org/2000/svg" width="174" height="181" viewBox="0 0 174 181">
  <g id="Grupo_46011" data-name="Grupo 46011" transform="translate(9325 -4785)">
    <path id="Trazado_71712" data-name="Trazado 71712" d="M10,0H164a10,10,0,0,1,10,10V171a10,10,0,0,1-10,10H10A10,10,0,0,1,0,171V10A10,10,0,0,1,10,0Z" transform="translate(-9325 4785)" fill="#fff7de"/>
    <path id="Trazado_71713" data-name="Trazado 71713" d="M-52.767-16.01h-5.592V0h-4.43V-16.01h-5.564v-3.6h15.586Zm9.242,5.906a3.748,3.748,0,0,0-1.818-.424,2.62,2.62,0,0,0-2.2,1.032,4.5,4.5,0,0,0-.793,2.81V0h-4.32V-14h4.32v2.6h.055a3.737,3.737,0,0,1,3.691-2.844,2.782,2.782,0,0,1,1.066.164ZM-29.866,0h-4.088V-2.01h-.055A4.563,4.563,0,0,1-38.179.342,4.362,4.362,0,0,1-41.385-.813,4.14,4.14,0,0,1-42.554-3.9q0-4.074,4.826-4.7l3.8-.506q0-2.3-2.488-2.3a8.493,8.493,0,0,0-4.758,1.49v-3.254a10.7,10.7,0,0,1,2.468-.82,12.972,12.972,0,0,1,2.851-.355q5.988,0,5.988,5.975Zm-4.061-5.687v-.943L-36.47-6.3q-2.105.273-2.105,1.9a1.57,1.57,0,0,0,.513,1.21,1.97,1.97,0,0,0,1.388.472,2.558,2.558,0,0,0,1.982-.841A3.037,3.037,0,0,0-33.927-5.687Zm11.854,4.061h-.055V0h-4.32V-20.727h4.32v8.832h.055a5.126,5.126,0,0,1,4.553-2.447,5,5,0,0,1,4.17,1.859A8.019,8.019,0,0,1-11.888-7.4,8.683,8.683,0,0,1-13.6-1.777,5.567,5.567,0,0,1-18.163.342,4.411,4.411,0,0,1-22.073-1.627ZM-22.2-7.533V-6.1a3.277,3.277,0,0,0,.779,2.242,2.535,2.535,0,0,0,2,.889,2.649,2.649,0,0,0,2.29-1.142,5.512,5.512,0,0,0,.813-3.233,4.385,4.385,0,0,0-.745-2.714,2.514,2.514,0,0,0-2.126-.978,2.746,2.746,0,0,0-2.153.971A3.687,3.687,0,0,0-22.2-7.533ZM2.29,0H-1.8V-2.01h-.055A4.563,4.563,0,0,1-6.022.342,4.362,4.362,0,0,1-9.229-.813,4.14,4.14,0,0,1-10.4-3.9q0-4.074,4.826-4.7l3.8-.506q0-2.3-2.488-2.3a8.493,8.493,0,0,0-4.758,1.49v-3.254a10.7,10.7,0,0,1,2.468-.82A12.972,12.972,0,0,1-3.7-14.342q5.988,0,5.988,5.975ZM-1.771-5.687v-.943L-4.313-6.3q-2.105.273-2.105,1.9a1.57,1.57,0,0,0,.513,1.21,1.97,1.97,0,0,0,1.388.472,2.558,2.558,0,0,0,1.982-.841A3.037,3.037,0,0,0-1.771-5.687ZM7.9-16.215A2.523,2.523,0,0,1,6.1-16.864a2.092,2.092,0,0,1-.7-1.593,2.018,2.018,0,0,1,.7-1.586A2.607,2.607,0,0,1,7.9-20.658a2.6,2.6,0,0,1,1.8.615,2.027,2.027,0,0,1,.69,1.586,2.084,2.084,0,0,1-.69,1.613A2.566,2.566,0,0,1,7.9-16.215ZM10.028-.246A7.61,7.61,0,0,1,8.511,4.717,5.321,5.321,0,0,1,4.136,6.576a6.049,6.049,0,0,1-2.064-.41V2.775a3.365,3.365,0,0,0,1.6.506q2.037,0,2.037-3.2V-14h4.32ZM20.337.342a7.526,7.526,0,0,1-5.5-1.962,7.113,7.113,0,0,1-2-5.325,7.113,7.113,0,0,1,2.078-5.435,7.852,7.852,0,0,1,5.619-1.962A7.435,7.435,0,0,1,26-12.38a6.974,6.974,0,0,1,1.982,5.188,7.4,7.4,0,0,1-2.044,5.51A7.609,7.609,0,0,1,20.337.342Zm.109-11.375A2.882,2.882,0,0,0,18.067-9.98,4.642,4.642,0,0,0,17.22-7q0,4.033,3.254,4.033,3.1,0,3.1-4.143Q23.577-11.033,20.446-11.033ZM51.085-5.77H41.952q.219,3.049,3.842,3.049a7.5,7.5,0,0,0,4.061-1.094V-.7A10.667,10.667,0,0,1,44.81.342a7.1,7.1,0,0,1-5.264-1.88,7.1,7.1,0,0,1-1.873-5.243A7.492,7.492,0,0,1,39.7-12.3a6.741,6.741,0,0,1,4.977-2.037,6.118,6.118,0,0,1,4.737,1.818,7,7,0,0,1,1.675,4.936ZM47.079-8.422q0-3.008-2.434-3.008a2.324,2.324,0,0,0-1.8.861,3.909,3.909,0,0,0-.923,2.146ZM67.177,0H62.87V-7.779q0-3.254-2.324-3.254a2.306,2.306,0,0,0-1.846.861,3.281,3.281,0,0,0-.725,2.188V0h-4.32V-14h4.32v2.215h.055a4.951,4.951,0,0,1,4.5-2.557q4.648,0,4.648,5.77ZM-31.534,24.23h-9.133q.219,3.049,3.842,3.049a7.5,7.5,0,0,0,4.061-1.094V29.3a10.667,10.667,0,0,1-5.045,1.039,7.1,7.1,0,0,1-5.264-1.88,7.1,7.1,0,0,1-1.873-5.243A7.492,7.492,0,0,1-42.923,17.7a6.741,6.741,0,0,1,4.977-2.037,6.118,6.118,0,0,1,4.737,1.818,7,7,0,0,1,1.675,4.936Zm-4.006-2.652q0-3.008-2.434-3.008a2.324,2.324,0,0,0-1.8.861,3.909,3.909,0,0,0-.923,2.146Zm20.275,14.861h-4.32V28.072h-.055a4.8,4.8,0,0,1-4.307,2.27A5.361,5.361,0,0,1-28.191,28.5,7.593,7.593,0,0,1-29.8,23.342a8.39,8.39,0,0,1,1.764-5.592,5.724,5.724,0,0,1,4.594-2.092,4.166,4.166,0,0,1,3.8,1.969h.055V16h4.32ZM-19.5,23.314V22.193a3.417,3.417,0,0,0-.793-2.3,2.556,2.556,0,0,0-2.037-.93,2.637,2.637,0,0,0-2.256,1.128,5.225,5.225,0,0,0-.82,3.124,4.41,4.41,0,0,0,.8,2.8,2.533,2.533,0,0,0,2.085,1.012,2.678,2.678,0,0,0,2.194-1.025A4.159,4.159,0,0,0-19.5,23.314ZM1.675,30H-2.632V27.867H-2.7a4.886,4.886,0,0,1-4.279,2.475q-4.867,0-4.867-5.893V16H-7.54v8.066q0,2.967,2.352,2.967a2.326,2.326,0,0,0,1.859-.813,3.28,3.28,0,0,0,.7-2.208V16H1.675ZM7.5,13.785a2.523,2.523,0,0,1-1.791-.649,2.092,2.092,0,0,1-.7-1.593,2.018,2.018,0,0,1,.7-1.586A2.607,2.607,0,0,1,7.5,9.342a2.6,2.6,0,0,1,1.8.615,2.027,2.027,0,0,1,.69,1.586,2.084,2.084,0,0,1-.69,1.613A2.566,2.566,0,0,1,7.5,13.785ZM9.632,30H5.312V16h4.32Zm8.012-1.627h-.055v8.066h-4.32V16h4.32v2.105h.055a5.079,5.079,0,0,1,4.5-2.447,5.061,5.061,0,0,1,4.2,1.866A7.946,7.946,0,0,1,27.829,22.6,8.613,8.613,0,0,1,26.1,28.223a5.639,5.639,0,0,1-4.6,2.119A4.359,4.359,0,0,1,17.644,28.373Zm-.123-5.742v1.121a3.564,3.564,0,0,0,.766,2.365,2.492,2.492,0,0,0,2.01.916,2.649,2.649,0,0,0,2.29-1.142,5.512,5.512,0,0,0,.813-3.233q0-3.691-2.871-3.691a2.7,2.7,0,0,0-2.167,1A4.008,4.008,0,0,0,17.521,22.631ZM37.3,30.342a7.526,7.526,0,0,1-5.5-1.962,7.113,7.113,0,0,1-2-5.325,7.113,7.113,0,0,1,2.078-5.435A7.852,7.852,0,0,1,37.5,15.658a7.435,7.435,0,0,1,5.469,1.962,6.974,6.974,0,0,1,1.982,5.188,7.4,7.4,0,0,1-2.044,5.51A7.609,7.609,0,0,1,37.3,30.342Zm.109-11.375a2.882,2.882,0,0,0-2.379,1.053A4.642,4.642,0,0,0,34.187,23q0,4.033,3.254,4.033,3.1,0,3.1-4.143Q40.544,18.967,37.413,18.967Z" transform="translate(-9238 4915)" fill="#361274"/>
    <g id="unido" transform="translate(-9277.501 4803)">
      <path id="Trazado_30648" data-name="Trazado 30648" d="M69.448,129.9a1.207,1.207,0,1,1,.069,0h-.069Zm-4.794-.18a1.232,1.232,0,0,1-.141-.008h0a1.192,1.192,0,0,1,.245-2.372l.037,0a1.192,1.192,0,0,1-.137,2.377Zm9.577-.368A1.192,1.192,0,0,1,74,126.987l.022,0a1.192,1.192,0,0,1,.448,2.342l-.009,0A1.223,1.223,0,0,1,74.231,129.349Zm-14.307-.541a1.212,1.212,0,0,1-.315-.042l-.007,0a1.192,1.192,0,0,1,.61-2.305l.025.007a1.192,1.192,0,0,1-.313,2.343Zm18.953-.733a1.192,1.192,0,0,1-.408-2.313l.02-.007A1.192,1.192,0,1,1,79.294,128l-.01,0A1.2,1.2,0,0,1,78.877,128.075Zm-23.494-.893a1.176,1.176,0,0,1-.486-.105l-.016-.007a1.185,1.185,0,1,1,.5.113Zm27.886-1.077a1.205,1.205,0,1,1,.587-.155l-.027.015a1.189,1.189,0,0,1-.56.14ZM94.1,115.448l.008.005-.126-.09Zm-55.034-5.2a1.194,1.194,0,0,1-1.105-.744l0-.008a1.192,1.192,0,0,1,2.2-.91l.008.021a1.193,1.193,0,0,1-1.1,1.641Zm59.178-2.288a1.2,1.2,0,1,1,1.146-.862l-.015.047A1.192,1.192,0,0,1,98.24,107.963Zm-60.636-2.3a1.193,1.193,0,0,1-1.159-.916l0-.016a1.192,1.192,0,1,1,2.319-.554l0,.016a1.194,1.194,0,0,1-1.16,1.469Zm61.732-2.387a1.178,1.178,0,0,1-.209-.019,1.2,1.2,0,1,1,1.389-1.016l-.008.049A1.193,1.193,0,0,1,99.337,103.274ZM36.869,100.9a1.191,1.191,0,0,1-1.186-1.087l0-.049a1.192,1.192,0,1,1,1.293,1.132C36.937,100.9,36.9,100.9,36.869,100.9ZM99.7,98.472A1.192,1.192,0,0,1,98.51,97.28v-.087a1.192,1.192,0,1,1,2.384,0v.016c0,.008,0,.017,0,.025s0,.02,0,.031v.016A1.192,1.192,0,0,1,99.7,98.472ZM36.866,96.086c-.034,0-.069,0-.1,0a1.2,1.2,0,1,1,1.295-1.134l0,.049a1.192,1.192,0,0,1-1.186,1.089ZM99.328,93.6a1.192,1.192,0,0,1-1.172-.985l-.008-.049a1.192,1.192,0,1,1,1.389,1.016A1.171,1.171,0,0,1,99.328,93.6Zm.2-1.238-.2.03ZM37.589,91.326a1.2,1.2,0,1,1,1.169-.964l-.011.049a1.192,1.192,0,0,1-1.158.916Zm60.645-2.408A1.2,1.2,0,0,1,97.1,88.1l-.013-.042a1.192,1.192,0,0,1,2.279-.7v0a1.186,1.186,0,0,1-.756,1.5A1.163,1.163,0,0,1,98.234,88.918Zm-59.2-2.188a1.193,1.193,0,0,1-1.1-1.641l.006-.014a1.192,1.192,0,1,1,2.209.9l-.006.015a1.193,1.193,0,0,1-1.1.744Zm57.391-2.277A1.2,1.2,0,0,1,95.36,83.8l-.018-.035a1.193,1.193,0,0,1,2.14-1.052v0a1.192,1.192,0,0,1-1.057,1.734ZM41.169,82.41a1.2,1.2,0,1,1,1.047-.618l-.028.047a1.19,1.19,0,0,1-1.019.571ZM93.95,80.316a1.2,1.2,0,1,1,.96-1.9l.025.036a1.192,1.192,0,0,1-.985,1.862ZM43.939,78.469a1.192,1.192,0,0,1-.917-1.954l.01-.012a1.192,1.192,0,1,1,1.835,1.523l-.01.012a1.188,1.188,0,0,1-.918.431Zm46.94-1.862a1.2,1.2,0,1,1,.84-2.038l.02.02a1.192,1.192,0,0,1-.86,2.018Zm-43.6-1.612a1.192,1.192,0,0,1-.791-2.085l0,0a1.192,1.192,0,0,1,1.595,1.773l-.019.017a1.189,1.189,0,0,1-.79.3Zm40-1.588a1.187,1.187,0,0,1-.7-.23l-.04-.031a1.193,1.193,0,1,1,.744.261Zm.107-1.355-.119.153ZM51.1,72.068a1.2,1.2,0,1,1,.682-.215l-.042.028a1.185,1.185,0,0,1-.64.187Zm32.132-1.278a1.182,1.182,0,0,1-.557-.139l-.028-.016a1.192,1.192,0,0,1,1.149-2.089l0,0a1.193,1.193,0,0,1-.567,2.242ZM55.324,69.758a1.192,1.192,0,0,1-.493-2.278l.028-.012a1.192,1.192,0,1,1,.465,2.29Zm0,0" transform="translate(-30.167 -56.973)" fill="#a7c7d3"/>
      <path id="Trazado_30649" data-name="Trazado 30649" d="M200.457,193.769l-17.95-17.95a2.874,2.874,0,1,1,4.065-4.064l-4.622-4.622a2.872,2.872,0,0,1,3.791-4.3l-1.759-1.759a2.874,2.874,0,0,1-.844-2.036,2.7,2.7,0,0,1,.039-.467,2.875,2.875,0,0,1,4.871-1.563l2.014,2.014a2.875,2.875,0,0,1-.807-2.493,2.844,2.844,0,0,1,.8-1.575,2.877,2.877,0,0,1,4.068,0l11.665,11.665.033-.046a5.256,5.256,0,0,1,7.44.006l5.439,5.439a5.579,5.579,0,0,1,1.635,3.938l0,3.4A6.006,6.006,0,0,0,222.1,183.6l1.213,1.213-13.873,13.873-1.55-1.55a6.009,6.009,0,0,0-3.855-1.747,5.577,5.577,0,0,1-3.579-1.623Zm0,0" transform="translate(-153.161 -130.333)" fill="#fecbaa"/>
      <path id="Trazado_30650" data-name="Trazado 30650" d="M356.771,360.411l15.747-15.747a1.328,1.328,0,0,1,1.879,0L380,350.271a1.328,1.328,0,0,1,0,1.879L364.258,367.9a1.328,1.328,0,0,1-1.879,0l-5.608-5.608A1.329,1.329,0,0,1,356.771,360.411Zm0,0" transform="translate(-301.393 -291.154)" fill="#fdd559"/>
      <path id="Trazado_30651" data-name="Trazado 30651" d="M461.757,381.464a1.19,1.19,0,1,0,0-1.685A1.191,1.191,0,0,0,461.757,381.464Zm0,0" transform="translate(-390.213 -320.886)" fill="#ff8812"/>
      <path id="Trazado_30652" data-name="Trazado 30652" d="M345.11,232.028l-4.017-4.016.033-.046a5.228,5.228,0,0,1,2.031-1.262l3.639,3.639a1.192,1.192,0,0,1-1.686,1.686Zm0,0" transform="translate(-288.463 -191.723)" fill="#ffae85"/>
      <path id="Trazado_30653" data-name="Trazado 30653" d="M80.2,193.777l17.95-17.95a2.874,2.874,0,1,0-4.065-4.065l4.622-4.622a2.872,2.872,0,0,0-3.791-4.3l1.759-1.759a2.871,2.871,0,0,0,.844-2.035,2.7,2.7,0,0,0-.039-.468,2.875,2.875,0,0,0-4.871-1.562L90.6,159.029a2.874,2.874,0,1,0-4.065-4.065L74.865,166.63l-.033-.046a5.257,5.257,0,0,0-7.44.005l-5.439,5.44a5.58,5.58,0,0,0-1.635,3.938l0,3.4a6,6,0,0,1-1.76,4.243l-1.213,1.213L71.216,198.7l1.55-1.55a6.01,6.01,0,0,1,3.855-1.747,5.577,5.577,0,0,0,3.579-1.623Zm0,0" transform="translate(-48.494 -130.34)" fill="#fecbaa"/>
      <path id="Trazado_30654" data-name="Trazado 30654" d="M23.623,360.421,7.877,344.675a1.328,1.328,0,0,0-1.879,0L.39,350.283a1.328,1.328,0,0,0,0,1.879l15.746,15.747a1.329,1.329,0,0,0,1.879,0l5.608-5.608a1.329,1.329,0,0,0,0-1.879Zm0,0" transform="translate(0 -291.163)" fill="#ff84a7"/>
      <path id="Trazado_30655" data-name="Trazado 30655" d="M107.125,451.4a1.19,1.19,0,1,0-1.685,0A1.191,1.191,0,0,0,107.125,451.4Zm0,0" transform="translate(-88.876 -380.033)" fill="#ef6085"/>
      <path id="Trazado_30656" data-name="Trazado 30656" d="M133.723,232.04l4.016-4.017-.033-.046a5.228,5.228,0,0,0-2.031-1.262l-3.639,3.638a1.192,1.192,0,0,0,1.686,1.686Zm0,0" transform="translate(-111.368 -191.734)" fill="#ffae85"/>
      <path id="Trazado_30657" data-name="Trazado 30657" d="M175.394,78.449v25.385a2.874,2.874,0,1,1-5.748,0v6.537a2.869,2.869,0,0,1-.841,2.034,2.87,2.87,0,0,1-3.7.312,2.873,2.873,0,0,1-1.184-1.986v2.488a2.874,2.874,0,0,1-.843,2.036,2.723,2.723,0,0,1-.357.3,2.875,2.875,0,0,1-4.55-2.34v-2.848a2.874,2.874,0,1,1-5.748,0v-16.5l-.055.01a5.256,5.256,0,0,1-5.257-5.265V80.926a5.582,5.582,0,0,1,1.629-3.941l2.4-2.408a6,6,0,0,0,1.755-4.244V68.618h19.619V70.81a6.011,6.011,0,0,0,1.491,3.961,5.578,5.578,0,0,1,1.383,3.678Zm0,0" transform="translate(-124.413 -58.03)" fill="#fedfc5"/>
      <path id="Trazado_30658" data-name="Trazado 30658" d="M167.925,171.759a2.877,2.877,0,0,0-4.068,0l4.622-4.622a2.872,2.872,0,0,0-3.791-4.3l1.759-1.759a2.873,2.873,0,0,0,.844-2.035,2.708,2.708,0,0,0-.038-.468,2.875,2.875,0,0,0-4.872-1.562l-2.014,2.014a2.874,2.874,0,1,0-4.065-4.065l-11.665,11.665-.033-.046a5.228,5.228,0,0,0-2.031-1.262,5.284,5.284,0,0,0-2.729-.169,7.7,7.7,0,0,0,4.05,3.063V182.68a5.264,5.264,0,0,0,6.285,5.163,5.274,5.274,0,0,0,3.049,2.677l14.693-14.693a2.875,2.875,0,0,0,0-4.068Zm0,0" transform="translate(-118.265 -130.34)" fill="#ffae85"/>
      <path id="Trazado_30659" data-name="Trazado 30659" d="M206.518,176.137V165.984a5.336,5.336,0,0,0-.7.59l-.033.046-11.665-11.665a2.877,2.877,0,0,0-4.068,0,2.844,2.844,0,0,0-.8,1.575,2.875,2.875,0,0,0,.807,2.493l-2.014-2.014a2.873,2.873,0,0,0-4.872,1.563,2.753,2.753,0,0,0-.038.467,2.874,2.874,0,0,0,.844,2.036l1.759,1.759a2.869,2.869,0,0,0-4.6,1.809,2.818,2.818,0,0,0-.037.46,2.865,2.865,0,0,0,.844,2.033l4.622,4.622a2.874,2.874,0,1,0-4.065,4.065l12.025,12.024a5.282,5.282,0,0,0,.988.093,5.212,5.212,0,0,0,3.077-1,5.314,5.314,0,0,0,.643-.547,5.226,5.226,0,0,0,1.539-3.721v-1.3c.162.015.325.022.489.022a5.267,5.267,0,0,0,5.258-5.263Zm0,0" transform="translate(-153.154 -130.333)" fill="#ffae85"/>
      <path id="Trazado_30660" data-name="Trazado 30660" d="M175.394,78.449v25.385a2.875,2.875,0,0,1-2.874,2.879c-.043,0-.089,0-.135,0a2.844,2.844,0,0,1-1.544-.541l0,0a2.873,2.873,0,0,1-1.192-2.333v6.537a2.869,2.869,0,0,1-.841,2.034,2.87,2.87,0,0,1-3.7.312,2.872,2.872,0,0,1-1.184-1.986v2.488a2.874,2.874,0,0,1-.843,2.036,2.72,2.72,0,0,1-.357.3,2.875,2.875,0,0,1-4.55-2.34v-2.848a2.874,2.874,0,1,1-5.748,0v-16.5l-.055.01a5.256,5.256,0,0,1-5.257-5.265V80.926a5.582,5.582,0,0,1,1.629-3.941l2.4-2.408a6.023,6.023,0,0,0,1.755-4.244V68.618h19.619V70.81a5.446,5.446,0,0,0,.189,1.483,5.977,5.977,0,0,0,1.3,2.478,5.622,5.622,0,0,1,1.383,3.678Zm0,0" transform="translate(-124.413 -58.03)" fill="#fedfc5"/>
      <path id="Trazado_30661" data-name="Trazado 30661" d="M205.644,78.45v25.385a2.875,2.875,0,0,1-2.874,2.879c-.043,0-.089,0-.135,0a2.844,2.844,0,0,1-1.544-.541l.049-24.461a3.74,3.74,0,0,0-.1-.679,11.057,11.057,0,0,0-11.061-8.923h-7.1a5.982,5.982,0,0,0,.269-1.774V68.618H202.77V70.81a5.446,5.446,0,0,0,.189,1.483,5.977,5.977,0,0,0,1.3,2.478,5.622,5.622,0,0,1,1.383,3.678Zm0,0" transform="translate(-154.663 -58.03)" fill="#fecbaa"/>
      <path id="Trazado_30662" data-name="Trazado 30662" d="M190.7,10.588H168.43A1.329,1.329,0,0,1,167.1,9.26V1.328A1.329,1.329,0,0,1,168.43,0H190.7a1.329,1.329,0,0,1,1.328,1.328V9.26A1.329,1.329,0,0,1,190.7,10.588Zm0,0" transform="translate(-141.317 0)" fill="#83d9ff"/>
      <path id="Trazado_30663" data-name="Trazado 30663" d="M194.842,27.778a1.19,1.19,0,1,0-1.19,1.192A1.191,1.191,0,0,0,194.842,27.778Zm0,0" transform="translate(-162.764 -22.484)" fill="#5186ff"/>
      <g id="Grupo_45594" data-name="Grupo 45594" transform="translate(25.629 28.971)">
        <path id="Trazado_30664" data-name="Trazado 30664" d="M287.807,204.224v15.618a2.872,2.872,0,0,1-1.193-2.334v6.537a2.866,2.866,0,0,1-.841,2.035,2.785,2.785,0,0,1-.351.3V204.224a1.192,1.192,0,0,1,2.385,0Zm0,0" transform="translate(-267.01 -200.676)" fill="#fecbaa"/>
        <path id="Trazado_30665" data-name="Trazado 30665" d="M250.669,204.224v22.167a2.873,2.873,0,0,1-1.184-1.985v2.488a2.872,2.872,0,0,1-.843,2.036,2.725,2.725,0,0,1-.357.3V204.223a1.192,1.192,0,1,1,2.384,0Zm0,0" transform="translate(-235.603 -200.675)" fill="#fecbaa"/>
        <path id="Trazado_30666" data-name="Trazado 30666" d="M213.454,204.224v25a2.873,2.873,0,0,1-1.192-2.333v-2.849a2.874,2.874,0,0,1-1.192,2.334V204.224a1.192,1.192,0,0,1,2.384,0Zm0,0" transform="translate(-204.13 -200.675)" fill="#fecbaa"/>
        <path id="Trazado_30667" data-name="Trazado 30667" d="M168.478,188.954v5.68l-.056.009a5.23,5.23,0,0,1-2.328-.543v-5.146a1.192,1.192,0,1,1,2.384,0Zm0,0" transform="translate(-166.094 -187.761)" fill="#fecbaa"/>
      </g>
    </g>
  </g>
</svg>
