<svg xmlns="http://www.w3.org/2000/svg" width="174" height="181" viewBox="0 0 174 181">
  <g id="Grupo_46015" data-name="Grupo 46015" transform="translate(8565 -4785)">
    <path id="Trazado_71720" data-name="Trazado 71720" d="M10,0H164a10,10,0,0,1,10,10V171a10,10,0,0,1-10,10H10A10,10,0,0,1,0,171V10A10,10,0,0,1,10,0Z" transform="translate(-8565 4785)" fill="#fff7de"/>
    <path id="Trazado_71721" data-name="Trazado 71721" d="M-66.146-.645v-3.75a7.206,7.206,0,0,0,2.215,1.283,7.119,7.119,0,0,0,2.414.428,5.353,5.353,0,0,0,1.248-.129,2.923,2.923,0,0,0,.891-.357,1.559,1.559,0,0,0,.533-.539,1.345,1.345,0,0,0,.176-.674,1.457,1.457,0,0,0-.281-.879,3.026,3.026,0,0,0-.768-.715,8.02,8.02,0,0,0-1.154-.633q-.668-.3-1.441-.621a7.357,7.357,0,0,1-2.936-2,4.375,4.375,0,0,1-.967-2.859,4.554,4.554,0,0,1,.527-2.256A4.479,4.479,0,0,1-64.254-15.9a6.437,6.437,0,0,1,2.1-.9,10.809,10.809,0,0,1,2.531-.287,15.225,15.225,0,0,1,2.326.158,9.148,9.148,0,0,1,1.869.486v3.5a5.652,5.652,0,0,0-.92-.516,7.288,7.288,0,0,0-1.025-.369,7.821,7.821,0,0,0-1.049-.217,7.423,7.423,0,0,0-.99-.07,5.164,5.164,0,0,0-1.172.123,3.006,3.006,0,0,0-.891.346,1.72,1.72,0,0,0-.562.533,1.264,1.264,0,0,0-.2.7,1.332,1.332,0,0,0,.223.756,2.554,2.554,0,0,0,.633.633,6.715,6.715,0,0,0,1,.586q.586.287,1.324.592a14.756,14.756,0,0,1,1.811.9,6.437,6.437,0,0,1,1.377,1.072A4.177,4.177,0,0,1-54.99-6.51a4.824,4.824,0,0,1,.3,1.787,4.787,4.787,0,0,1-.533,2.361A4.329,4.329,0,0,1-56.666-.814a6.276,6.276,0,0,1-2.127.85,12.292,12.292,0,0,1-2.561.258A14.238,14.238,0,0,1-63.984.059,7.942,7.942,0,0,1-66.146-.645ZM-40.881,0h-3.691V-1.828h-.059A4.188,4.188,0,0,1-48.3.293q-4.172,0-4.172-5.051V-12h3.691v6.914q0,2.543,2.016,2.543a1.994,1.994,0,0,0,1.594-.7,2.812,2.812,0,0,0,.6-1.893V-12h3.691ZM-26-1.371A6.789,6.789,0,0,1-27.932,3.8a7.836,7.836,0,0,1-5.6,1.834,8.879,8.879,0,0,1-3.844-.691V1.828a7.361,7.361,0,0,0,3.738,1.078,4.026,4.026,0,0,0,2.906-.99A3.553,3.553,0,0,0-29.7-.773v-.949h-.047A4.136,4.136,0,0,1-33.486.293a4.5,4.5,0,0,1-3.645-1.617A6.558,6.558,0,0,1-38.479-5.66a7.3,7.3,0,0,1,1.5-4.84,4.9,4.9,0,0,1,3.949-1.793,3.644,3.644,0,0,1,3.281,1.688h.047V-12H-26Zm-3.656-4.395v-.949a2.917,2.917,0,0,0-.674-1.939,2.179,2.179,0,0,0-1.752-.8,2.265,2.265,0,0,0-1.934.961,4.519,4.519,0,0,0-.7,2.707,3.814,3.814,0,0,0,.668,2.373,2.177,2.177,0,0,0,1.828.873,2.266,2.266,0,0,0,1.857-.885A3.628,3.628,0,0,0-29.654-5.766Zm17.531.82h-7.828q.188,2.613,3.293,2.613a6.429,6.429,0,0,0,3.48-.937V-.6A9.143,9.143,0,0,1-17.5.293a6.087,6.087,0,0,1-4.512-1.611,6.088,6.088,0,0,1-1.605-4.494,6.422,6.422,0,0,1,1.734-4.734,5.778,5.778,0,0,1,4.266-1.746,5.244,5.244,0,0,1,4.061,1.559A6,6,0,0,1-12.123-6.5Zm-3.434-2.273q0-2.578-2.086-2.578a1.992,1.992,0,0,0-1.541.738,3.351,3.351,0,0,0-.791,1.84ZM-2.092-8.66A3.212,3.212,0,0,0-3.65-9.023a2.245,2.245,0,0,0-1.887.885,3.86,3.86,0,0,0-.68,2.408V0h-3.7V-12h3.7v2.227h.047a3.2,3.2,0,0,1,3.164-2.437,2.385,2.385,0,0,1,.914.141Zm12.41,3.715H2.49q.188,2.613,3.293,2.613a6.429,6.429,0,0,0,3.48-.937V-.6A9.143,9.143,0,0,1,4.939.293,6.087,6.087,0,0,1,.428-1.318,6.088,6.088,0,0,1-1.178-5.812,6.422,6.422,0,0,1,.557-10.547a5.778,5.778,0,0,1,4.266-1.746,5.244,5.244,0,0,1,4.061,1.559A6,6,0,0,1,10.318-6.5ZM6.885-7.219Q6.885-9.8,4.8-9.8a1.992,1.992,0,0,0-1.541.738,3.351,3.351,0,0,0-.791,1.84ZM24.111,0H20.42V-6.668q0-2.789-1.992-2.789a1.977,1.977,0,0,0-1.582.738,2.813,2.813,0,0,0-.621,1.875V0h-3.7V-12h3.7v1.9h.047a4.243,4.243,0,0,1,3.855-2.191q3.984,0,3.984,4.945ZM36.135-.434a7.322,7.322,0,0,1-3.621.727,6.124,6.124,0,0,1-4.477-1.676,5.788,5.788,0,0,1-1.711-4.324,6.376,6.376,0,0,1,1.834-4.822,6.778,6.778,0,0,1,4.9-1.764,6.293,6.293,0,0,1,3.07.563V-8.59a4.221,4.221,0,0,0-2.59-.867,3.412,3.412,0,0,0-2.525.932,3.476,3.476,0,0,0-.932,2.572,3.42,3.42,0,0,0,.891,2.5,3.273,3.273,0,0,0,2.449.908,4.888,4.888,0,0,0,2.707-.867Zm4.3-13.465a2.163,2.163,0,0,1-1.535-.557,1.793,1.793,0,0,1-.6-1.365,1.73,1.73,0,0,1,.6-1.359,2.235,2.235,0,0,1,1.535-.527,2.229,2.229,0,0,1,1.541.527,1.737,1.737,0,0,1,.592,1.359,1.786,1.786,0,0,1-.592,1.383A2.2,2.2,0,0,1,40.436-13.9ZM42.264,0h-3.7V-12h3.7Zm13.1,0h-3.5V-1.723h-.047A3.911,3.911,0,0,1,48.24.293,3.739,3.739,0,0,1,45.492-.7a3.548,3.548,0,0,1-1-2.643q0-3.492,4.137-4.031L51.885-7.8q0-1.969-2.133-1.969A7.28,7.28,0,0,0,45.674-8.5v-2.789a9.175,9.175,0,0,1,2.115-.7,11.119,11.119,0,0,1,2.443-.3q5.133,0,5.133,5.121Zm-3.48-4.875v-.809l-2.18.281q-1.8.234-1.8,1.629a1.346,1.346,0,0,0,.439,1.037,1.689,1.689,0,0,0,1.189.4,2.192,2.192,0,0,0,1.7-.721A2.6,2.6,0,0,0,51.885-4.875ZM57.51-.316v-3a7.884,7.884,0,0,0,1.822.82,6.042,6.042,0,0,0,1.717.27A3.682,3.682,0,0,0,62.6-2.5a.871.871,0,0,0,.568-.82.759.759,0,0,0-.258-.586,2.4,2.4,0,0,0-.662-.41,7.514,7.514,0,0,0-.885-.316q-.48-.141-.926-.316a8.87,8.87,0,0,1-1.26-.58,3.641,3.641,0,0,1-.914-.721A2.833,2.833,0,0,1,57.7-7.2a3.788,3.788,0,0,1-.193-1.277,3.288,3.288,0,0,1,.439-1.734A3.59,3.59,0,0,1,59.121-11.4a5.355,5.355,0,0,1,1.676-.68,8.738,8.738,0,0,1,1.963-.217,10.891,10.891,0,0,1,1.617.123,12.07,12.07,0,0,1,1.617.357v2.859a5.844,5.844,0,0,0-1.506-.615,6.352,6.352,0,0,0-1.576-.205,3.492,3.492,0,0,0-.686.064,2.258,2.258,0,0,0-.568.188,1.044,1.044,0,0,0-.387.316.728.728,0,0,0-.141.439.812.812,0,0,0,.211.563,1.832,1.832,0,0,0,.551.4,5.437,5.437,0,0,0,.756.3q.416.135.826.275a10.741,10.741,0,0,1,1.336.563,4.272,4.272,0,0,1,1.025.715,2.807,2.807,0,0,1,.656.961,3.415,3.415,0,0,1,.229,1.313,3.424,3.424,0,0,1-.463,1.822,3.706,3.706,0,0,1-1.23,1.23,5.58,5.58,0,0,1-1.77.691,9.81,9.81,0,0,1-2.08.217A10.723,10.723,0,0,1,57.51-.316ZM-38.162,22.605h-.047V29.52h-3.7V12h3.7v1.8h.047a4.353,4.353,0,0,1,3.855-2.1,4.338,4.338,0,0,1,3.6,1.6,6.811,6.811,0,0,1,1.271,4.354,7.383,7.383,0,0,1-1.482,4.816,4.833,4.833,0,0,1-3.943,1.816A3.736,3.736,0,0,1-38.162,22.605Zm-.105-4.922v.961a3.055,3.055,0,0,0,.656,2.027,2.136,2.136,0,0,0,1.723.785,2.27,2.27,0,0,0,1.963-.979,4.725,4.725,0,0,0,.7-2.771q0-3.164-2.461-3.164a2.311,2.311,0,0,0-1.857.861A3.435,3.435,0,0,0-38.268,17.684ZM-17.279,24h-3.5V22.277h-.047A3.911,3.911,0,0,1-24.4,24.293a3.739,3.739,0,0,1-2.748-.99,3.548,3.548,0,0,1-1-2.643q0-3.492,4.137-4.031l3.258-.434q0-1.969-2.133-1.969A7.28,7.28,0,0,0-26.971,15.5V12.715a9.175,9.175,0,0,1,2.115-.7,11.119,11.119,0,0,1,2.443-.3q5.133,0,5.133,5.121Zm-3.48-4.875v-.809l-2.18.281q-1.8.234-1.8,1.629a1.346,1.346,0,0,0,.439,1.037,1.689,1.689,0,0,0,1.189.4,2.192,2.192,0,0,0,1.7-.721A2.6,2.6,0,0,0-20.76,19.125ZM-6.521,15.34a3.212,3.212,0,0,0-1.559-.363,2.245,2.245,0,0,0-1.887.885,3.86,3.86,0,0,0-.68,2.408V24h-3.7V12h3.7v2.227h.047a3.2,3.2,0,0,1,3.164-2.437,2.385,2.385,0,0,1,.914.141ZM5.186,24h-3.5V22.277H1.635a3.911,3.911,0,0,1-3.574,2.016,3.739,3.739,0,0,1-2.748-.99,3.548,3.548,0,0,1-1-2.643q0-3.492,4.137-4.031L1.705,16.2q0-1.969-2.133-1.969A7.28,7.28,0,0,0-4.506,15.5V12.715a9.175,9.175,0,0,1,2.115-.7,11.119,11.119,0,0,1,2.443-.3q5.133,0,5.133,5.121Zm-3.48-4.875v-.809l-2.18.281q-1.8.234-1.8,1.629a1.346,1.346,0,0,0,.439,1.037,1.689,1.689,0,0,0,1.189.4,2.192,2.192,0,0,0,1.7-.721A2.6,2.6,0,0,0,1.705,19.125ZM18.439,24h-3.7V6.234h3.7Zm13.1,0h-3.5V22.277H27.99a3.911,3.911,0,0,1-3.574,2.016,3.739,3.739,0,0,1-2.748-.99,3.548,3.548,0,0,1-1-2.643q0-3.492,4.137-4.031l3.258-.434q0-1.969-2.133-1.969A7.28,7.28,0,0,0,21.85,15.5V12.715a9.175,9.175,0,0,1,2.115-.7,11.119,11.119,0,0,1,2.443-.3q5.133,0,5.133,5.121Zm-3.48-4.875v-.809l-2.18.281q-1.8.234-1.8,1.629a1.346,1.346,0,0,0,.439,1.037,1.689,1.689,0,0,0,1.189.4,2.192,2.192,0,0,0,1.7-.721A2.6,2.6,0,0,0,28.061,19.125Zm5.625,4.559v-3a7.884,7.884,0,0,0,1.822.82,6.042,6.042,0,0,0,1.717.27,3.682,3.682,0,0,0,1.553-.27.871.871,0,0,0,.568-.82.759.759,0,0,0-.258-.586,2.4,2.4,0,0,0-.662-.41,7.514,7.514,0,0,0-.885-.316q-.48-.141-.926-.316a8.87,8.87,0,0,1-1.26-.58,3.641,3.641,0,0,1-.914-.721,2.833,2.833,0,0,1-.562-.949,3.788,3.788,0,0,1-.193-1.277,3.288,3.288,0,0,1,.439-1.734A3.59,3.59,0,0,1,35.3,12.6a5.355,5.355,0,0,1,1.676-.68,8.738,8.738,0,0,1,1.963-.217,10.891,10.891,0,0,1,1.617.123,12.07,12.07,0,0,1,1.617.357v2.859a5.844,5.844,0,0,0-1.506-.615,6.352,6.352,0,0,0-1.576-.205,3.492,3.492,0,0,0-.686.064,2.258,2.258,0,0,0-.568.188,1.044,1.044,0,0,0-.387.316.728.728,0,0,0-.141.439.812.812,0,0,0,.211.563,1.832,1.832,0,0,0,.551.4,5.437,5.437,0,0,0,.756.3q.416.135.826.275a10.741,10.741,0,0,1,1.336.563,4.272,4.272,0,0,1,1.025.715,2.807,2.807,0,0,1,.656.961,3.845,3.845,0,0,1-.234,3.135,3.706,3.706,0,0,1-1.23,1.23,5.58,5.58,0,0,1-1.77.691,9.81,9.81,0,0,1-2.08.217A10.723,10.723,0,0,1,33.686,23.684ZM-24.129,48H-27.82V41.156q0-2.613-1.922-2.613a1.766,1.766,0,0,0-1.488.785,3.226,3.226,0,0,0-.574,1.957V48h-3.7V41.086q0-2.543-1.887-2.543a1.809,1.809,0,0,0-1.518.75,3.3,3.3,0,0,0-.568,2.039V48h-3.7V36h3.7v1.875h.047a4.427,4.427,0,0,1,1.611-1.564,4.429,4.429,0,0,1,2.268-.6,3.455,3.455,0,0,1,3.48,2.238,4.439,4.439,0,0,1,4.031-2.238q3.914,0,3.914,4.828Zm13.711-4.945h-7.828q.188,2.613,3.293,2.613a6.429,6.429,0,0,0,3.48-.937V47.4a9.143,9.143,0,0,1-4.324.891,6.087,6.087,0,0,1-4.512-1.611,6.088,6.088,0,0,1-1.605-4.494,6.422,6.422,0,0,1,1.734-4.734,5.778,5.778,0,0,1,4.266-1.746,5.244,5.244,0,0,1,4.061,1.559,6,6,0,0,1,1.436,4.23Zm-3.434-2.273q0-2.578-2.086-2.578a1.992,1.992,0,0,0-1.541.738,3.351,3.351,0,0,0-.791,1.84ZM-6.34,34.1a2.163,2.163,0,0,1-1.535-.557,1.793,1.793,0,0,1-.6-1.365,1.73,1.73,0,0,1,.6-1.359,2.235,2.235,0,0,1,1.535-.527A2.229,2.229,0,0,1-4.8,30.82a1.737,1.737,0,0,1,.592,1.359A1.786,1.786,0,0,1-4.8,33.563,2.2,2.2,0,0,1-6.34,34.1Zm1.828,13.688a6.523,6.523,0,0,1-1.3,4.254,4.561,4.561,0,0,1-3.75,1.594,5.185,5.185,0,0,1-1.77-.352V50.379a2.884,2.884,0,0,0,1.371.434q1.746,0,1.746-2.742V36h3.7Zm8.836.5A6.451,6.451,0,0,1-.393,46.611a6.1,6.1,0,0,1-1.717-4.564A6.1,6.1,0,0,1-.328,37.389a6.73,6.73,0,0,1,4.816-1.682,6.373,6.373,0,0,1,4.688,1.682,5.978,5.978,0,0,1,1.7,4.447,6.345,6.345,0,0,1-1.752,4.723A6.522,6.522,0,0,1,4.324,48.293Zm.094-9.75a2.47,2.47,0,0,0-2.039.9A3.979,3.979,0,0,0,1.652,42q0,3.457,2.789,3.457,2.66,0,2.66-3.551Q7.1,38.543,4.418,38.543Zm16.688.8a3.212,3.212,0,0,0-1.559-.363,2.245,2.245,0,0,0-1.887.885,3.86,3.86,0,0,0-.68,2.408V48h-3.7V36h3.7v2.227h.047a3.2,3.2,0,0,1,3.164-2.437,2.385,2.385,0,0,1,.914.141ZM32.813,48h-3.5V46.277h-.047a3.911,3.911,0,0,1-3.574,2.016,3.739,3.739,0,0,1-2.748-.99,3.548,3.548,0,0,1-1-2.643q0-3.492,4.137-4.031l3.258-.434q0-1.969-2.133-1.969A7.28,7.28,0,0,0,23.121,39.5V36.715a9.175,9.175,0,0,1,2.115-.7,11.119,11.119,0,0,1,2.443-.3q5.133,0,5.133,5.121Zm-3.48-4.875v-.809l-2.18.281q-1.8.234-1.8,1.629a1.346,1.346,0,0,0,.439,1.037,1.689,1.689,0,0,0,1.189.4,2.192,2.192,0,0,0,1.7-.721A2.6,2.6,0,0,0,29.332,43.125Zm5.625,4.559v-3a7.884,7.884,0,0,0,1.822.82,6.042,6.042,0,0,0,1.717.27,3.682,3.682,0,0,0,1.553-.27.871.871,0,0,0,.568-.82.759.759,0,0,0-.258-.586,2.4,2.4,0,0,0-.662-.41,7.514,7.514,0,0,0-.885-.316q-.48-.141-.926-.316a8.87,8.87,0,0,1-1.26-.58,3.641,3.641,0,0,1-.914-.721,2.833,2.833,0,0,1-.562-.949,3.788,3.788,0,0,1-.193-1.277,3.288,3.288,0,0,1,.439-1.734A3.59,3.59,0,0,1,36.568,36.6a5.355,5.355,0,0,1,1.676-.68,8.738,8.738,0,0,1,1.963-.217,10.891,10.891,0,0,1,1.617.123,12.07,12.07,0,0,1,1.617.357v2.859a5.844,5.844,0,0,0-1.506-.615,6.352,6.352,0,0,0-1.576-.205,3.492,3.492,0,0,0-.686.064,2.258,2.258,0,0,0-.568.188,1.044,1.044,0,0,0-.387.316.728.728,0,0,0-.141.439.812.812,0,0,0,.211.563,1.832,1.832,0,0,0,.551.4,5.437,5.437,0,0,0,.756.3q.416.135.826.275a10.741,10.741,0,0,1,1.336.563,4.272,4.272,0,0,1,1.025.715,2.807,2.807,0,0,1,.656.961,3.845,3.845,0,0,1-.234,3.135,3.706,3.706,0,0,1-1.23,1.23,5.58,5.58,0,0,1-1.77.691,9.81,9.81,0,0,1-2.08.217A10.723,10.723,0,0,1,34.957,47.684Z" transform="translate(-8478 4902)" fill="#361274"/>
    <g id="grafico" transform="translate(-8507 4806.915)">
      <g id="Grupo_45616" data-name="Grupo 45616" transform="translate(0 0.085)">
        <g id="Grupo_45615" data-name="Grupo 45615" transform="translate(0 0)">
          <g id="Grupo_45613" data-name="Grupo 45613" transform="translate(0 34.887)">
            <g id="Grupo_45612" data-name="Grupo 45612">
              <g id="Grupo_45611" data-name="Grupo 45611">
                <g id="Grupo_45610" data-name="Grupo 45610">
                  <g id="Grupo_45609" data-name="Grupo 45609">
                    <g id="Grupo_45608" data-name="Grupo 45608" transform="translate(5.146 3.416)">
                      <g id="Grupo_45607" data-name="Grupo 45607">
                        <path id="Trazado_30705" data-name="Trazado 30705" d="M76.826,327.275l-.35-.289v-1.348l.364-.252.007-.988a5.148,5.148,0,0,0-4.4-4.588l-10.8-1.243c-2.491-.352-3.735-1.187-5.906-2.457a19.35,19.35,0,0,0-9.771-2.648H42.1v14.374l14.112,5.253a10.738,10.738,0,0,0,3.746.675H74.5A10.738,10.738,0,0,0,80.25,332.1l8.344-5.287a6.72,6.72,0,0,0,3.651-6.322Z" transform="translate(-42.101 -313.463)" fill="#ffddce"/>
                        <path id="Trazado_30706" data-name="Trazado 30706" d="M59.959,377.358H74.5a10.738,10.738,0,0,0,5.748-1.668l18.21-11.539a3.2,3.2,0,0,0,.52-4.188c-.989-1.453-2.625-1.706-4.425-.855l-2.995,1.319a6.382,6.382,0,0,1-2.966,5.391l-8.344,5.287a10.739,10.739,0,0,1-5.748,1.668H59.959a10.738,10.738,0,0,1-3.746-.675L42.1,366.846v4.584l14.112,5.253a10.739,10.739,0,0,0,3.746.675Z" transform="translate(-42.101 -353.102)" fill="#ffcbbe"/>
                        <g id="Grupo_45606" data-name="Grupo 45606" transform="translate(33.422 7.973)">
                          <path id="Trazado_30707" data-name="Trazado 30707" d="M315.549,378.7v.069l.046-.02Z" transform="translate(-315.548 -378.695)" fill="#f5dbcc"/>
                        </g>
                      </g>
                    </g>
                    <path id="Trazado_30708" data-name="Trazado 30708" d="M8.182,310.072a1.854,1.854,0,0,1-1.854,1.854H1.854A1.854,1.854,0,0,1,0,310.072v-22.7a1.854,1.854,0,0,1,1.854-1.854H6.328a1.854,1.854,0,0,1,1.854,1.854Z" transform="translate(0 -285.517)" fill="#407093"/>
                  </g>
                </g>
              </g>
            </g>
          </g>
          <g id="Grupo_45614" data-name="Grupo 45614" transform="translate(13.07)">
            <path id="Trazado_30709" data-name="Trazado 30709" d="M135.571,20.974A18.656,18.656,0,0,0,122.875,3.3,3.285,3.285,0,0,0,121.1,3.21a18.128,18.128,0,0,0-6.428,2.866l-3.293,2.982a18.222,18.222,0,0,0,9.723,29.68,3.283,3.283,0,0,0,1.776-.087,18.656,18.656,0,0,0,12.7-17.677Z" transform="translate(-106.939 -2.755)" fill="#e28086"/>
            <path id="Trazado_30710" data-name="Trazado 30710" d="M227.368.085a18.271,18.271,0,0,0-3.987.439,18.222,18.222,0,0,1,0,35.56,18.22,18.22,0,1,0,3.987-36Z" transform="translate(-209.149 -0.085)" fill="#dd636e"/>
            <path id="Trazado_30711" data-name="Trazado 30711" d="M196.9,91.108l.545-10.127a.462.462,0,0,0-.486-.486l-10.127.545a.462.462,0,0,0-.3.788l2.232,2.232a.462.462,0,0,1,0,.654l-7.6,7.6a.462.462,0,0,0,0,.654l3.811,3.811a.462.462,0,0,0,.654,0l7.6-7.6a.462.462,0,0,1,.654,0l2.232,2.232A.462.462,0,0,0,196.9,91.108Z" transform="translate(-171.972 -70.666)" fill="#f4fbff"/>
          </g>
        </g>
      </g>
      <path id="Trazado_30712" data-name="Trazado 30712" d="M220.182,406.375H209.51a.917.917,0,0,0,0,1.833h10.672Z" transform="translate(-183.098 -356.632)" fill="#ffcbbe"/>
    </g>
  </g>
</svg>
