<svg xmlns="http://www.w3.org/2000/svg" width="79" height="79" viewBox="0 0 79 79">
  <g id="incrementar" transform="translate(-1 -1)">
    <g id="Grupo_45674" data-name="Grupo 45674" transform="translate(2.274 2.274)">
      <g id="Grupo_45659" data-name="Grupo 45659" transform="translate(10.194 0)">
        <path id="Trazado_70657" data-name="Trazado 70657" d="M76.258,4.548V17.29H67.084l1.478-7.416a1.876,1.876,0,0,0,.051-.459A2.311,2.311,0,0,0,66.294,7.1a1.876,1.876,0,0,0-.459.051L54.979,9.314a2.065,2.065,0,0,0-1.058,3.479l2.587,2.587L54.444,17.29H10V4.548A2.556,2.556,0,0,1,12.548,2H73.71A2.556,2.556,0,0,1,76.258,4.548Z" transform="translate(-10 -2)" fill="#b4dd7f"/>
      </g>
      <g id="Grupo_45660" data-name="Grupo 45660" transform="translate(10.194 15.29)">
        <path id="Trazado_70658" data-name="Trazado 70658" d="M54.444,14,39.306,28.016,30.387,19.1l-2.931,2.931A17.872,17.872,0,0,0,10,20.817V14Z" transform="translate(-10 -14)" fill="#e6e9ed"/>
      </g>
      <g id="Grupo_45661" data-name="Grupo 45661" transform="translate(21.661 15.29)">
        <path id="Trazado_70659" data-name="Trazado 70659" d="M73.79,14V57.323a2.556,2.556,0,0,1-2.548,2.548H19v-5.5A17.861,17.861,0,0,0,31.908,30.73l4.931,4.931,21.024-19.75L60.45,18.5a2.065,2.065,0,0,0,3.479-1.058L64.616,14Z" transform="translate(-19 -14)" fill="#e6e9ed"/>
      </g>
      <g id="Grupo_45662" data-name="Grupo 45662" transform="translate(35.677 5.097)">
        <path id="Trazado_70660" data-name="Trazado 70660" d="M30,6h5.1v5.1H30Z" transform="translate(-30 -6)" fill="#e6e9ed"/>
      </g>
      <g id="Grupo_45663" data-name="Grupo 45663" transform="translate(25.484 5.097)">
        <path id="Trazado_70661" data-name="Trazado 70661" d="M22,6h5.1v5.1H22Z" transform="translate(-22 -6)" fill="#e6e9ed"/>
      </g>
      <g id="Grupo_45664" data-name="Grupo 45664" transform="translate(66.258 25.484)">
        <path id="Trazado_70662" data-name="Trazado 70662" d="M54,22h5.1V52.581H54Z" transform="translate(-54 -22)" fill="#ff826e"/>
      </g>
      <g id="Grupo_45665" data-name="Grupo 45665" transform="translate(6.651 5.097)">
        <path id="Trazado_70663" data-name="Trazado 70663" d="M69.375,8.319a1.876,1.876,0,0,1-.051.459l-1.478,7.416-.688,3.44a2.065,2.065,0,0,1-3.479,1.058L61.093,18.1,40.069,37.855l-4.931-4.931-3.988-3.988L28.6,31.484,10.762,49.323a12.6,12.6,0,0,1-3.542-4.1L24.5,27.942l3.721-3.721,2.931-2.931,8.919,8.919L55.206,16.194l2.064-1.911L54.684,11.7a2.065,2.065,0,0,1,1.058-3.479L66.6,6.051A1.876,1.876,0,0,1,67.056,6a2.311,2.311,0,0,1,2.319,2.319Z" transform="translate(-7.22 -6)" fill="#ff826e"/>
      </g>
      <g id="Grupo_45666" data-name="Grupo 45666" transform="translate(56.065 28.032)">
        <path id="Trazado_70664" data-name="Trazado 70664" d="M46,24h5.1V52.032H46Z" transform="translate(-46 -24)" fill="#ff826e"/>
      </g>
      <g id="Grupo_45667" data-name="Grupo 45667" transform="translate(45.871 35.677)">
        <path id="Trazado_70665" data-name="Trazado 70665" d="M38,30h5.1V50.387H38Z" transform="translate(-38 -30)" fill="#ff826e"/>
      </g>
      <g id="Grupo_45668" data-name="Grupo 45668" transform="translate(35.677 43.323)">
        <path id="Trazado_70666" data-name="Trazado 70666" d="M30,36h5.1V48.742H30Z" transform="translate(-30 -36)" fill="#ff826e"/>
      </g>
      <g id="Grupo_45669" data-name="Grupo 45669" transform="translate(0 20.387)">
        <path id="Trazado_70667" data-name="Trazado 70667" d="M23.661,53.27A17.843,17.843,0,0,1,12.194,19.72a17.872,17.872,0,0,1,17.456,1.21l-3.721,3.721-.013-.013a12.747,12.747,0,1,0,4.116,3.555l2.548-2.548,3.988,3.988A17.861,17.861,0,0,1,23.661,53.27Z" transform="translate(-2 -18)" fill="#fcd770"/>
      </g>
      <g id="Grupo_45670" data-name="Grupo 45670" transform="translate(10.194 30.581)">
        <path id="Trazado_70668" data-name="Trazado 70668" d="M27.839,26A12.742,12.742,0,0,1,10,43.839Z" transform="translate(-10 -26)" fill="#69d6f4"/>
      </g>
      <g id="Grupo_45671" data-name="Grupo 45671" transform="translate(5.097 25.484)">
        <path id="Trazado_70669" data-name="Trazado 70669" d="M24.833,23.555,7.555,40.833A12.613,12.613,0,0,1,6,34.742a12.744,12.744,0,0,1,18.82-11.2Z" transform="translate(-6 -22)" fill="#69d6f4"/>
      </g>
      <g id="Grupo_45672" data-name="Grupo 45672" transform="translate(14.016 55.657)">
        <path id="Trazado_70670" data-name="Trazado 70670" d="M20.645,51.185V62.652a3.823,3.823,0,0,1-7.645,0V45.68a18.122,18.122,0,0,0,7.645,0Z" transform="translate(-13 -45.68)" fill="#969faa"/>
      </g>
      <g id="Grupo_45673" data-name="Grupo 45673" transform="translate(15.29 5.097)">
        <path id="Trazado_70671" data-name="Trazado 70671" d="M14,6h5.1v5.1H14Z" transform="translate(-14 -6)" fill="#e6e9ed"/>
      </g>
    </g>
    <g id="Grupo_45675" data-name="Grupo 45675" transform="translate(1 1)">
      <path id="Trazado_70672" data-name="Trazado 70672" d="M76.177,1H15.016a3.827,3.827,0,0,0-3.823,3.823V23.609A19.089,19.089,0,0,0,15.016,58.9v16a5.1,5.1,0,0,0,10.194,0V64.71H76.177A3.827,3.827,0,0,0,80,60.887V4.823A3.827,3.827,0,0,0,76.177,1ZM15.016,3.548H76.177a1.275,1.275,0,0,1,1.274,1.274V16.29H71.106l1.179-5.9a3.591,3.591,0,0,0-3.522-4.3,3.546,3.546,0,0,0-.706.07L57.2,8.338a3.339,3.339,0,0,0-1.7,5.636l1.644,1.645-.726.672H13.742V4.823a1.275,1.275,0,0,1,1.274-1.274ZM32.855,28.5,12.4,48.961a11.578,11.578,0,0,1-1.867-2.175L32.855,24.463l8.886,8.886,19.073-17.66L57.3,12.172a.791.791,0,0,1,.4-1.335L68.558,8.666A1.064,1.064,0,0,1,69.806,9.69a1.009,1.009,0,0,1-.02.205L67.615,20.753a.824.824,0,0,1-1.335.4L62.825,17.7,41.8,37.452Zm-1.274,12a11.452,11.452,0,0,1-17.1,9.979L30.095,34.868A11.347,11.347,0,0,1,31.581,40.5Zm-22.935,0A11.436,11.436,0,0,1,23.992,29.722L9.335,44.379A11.382,11.382,0,0,1,8.645,40.5Zm5.1-21.661H53.66L41.809,29.812,32.855,20.86l-3.128,3.128A18.948,18.948,0,0,0,13.742,22.5ZM3.548,40.5a16.553,16.553,0,0,1,24.3-14.638l-1.916,1.916A13.924,13.924,0,1,0,31.959,33l.9-.9,2.869,2.869A16.562,16.562,0,1,1,3.548,40.5ZM20.113,77.452A2.551,2.551,0,0,1,17.565,74.9V59.423a19.1,19.1,0,0,0,2.548.19,19.1,19.1,0,0,0,2.548-.19V74.9A2.551,2.551,0,0,1,20.113,77.452Zm56.065-15.29H25.21V58.9A19.167,19.167,0,0,0,36.677,50v9.618H74.9V26.484H67.258V57.065H64.71V29.032H57.065V57.065H54.516V36.677H46.871V57.065H44.323V44.323H38.841a18.448,18.448,0,0,0,.25-5.979L41.746,41,62.77,21.249l1.707,1.707a3.312,3.312,0,0,0,2.361.979,3.348,3.348,0,0,0,3.275-2.683l.483-2.413h6.855V60.887a1.275,1.275,0,0,1-1.274,1.274Zm-36.952-5.1V46.871h2.548V57.065Zm12.742,0H49.419V39.226h2.548Zm10.194,0H59.613V31.581h2.548Zm7.645,0V29.032h2.548V57.065Z" transform="translate(-1 -1)"/>
      <path id="Trazado_70673" data-name="Trazado 70673" d="M20.645,5H13v7.645h7.645ZM18.1,10.1H15.548V7.548H18.1Z" transform="translate(2.29 0.097)"/>
      <path id="Trazado_70674" data-name="Trazado 70674" d="M28.645,5H21v7.645h7.645ZM26.1,10.1H23.548V7.548H26.1Z" transform="translate(4.484 0.097)"/>
      <path id="Trazado_70675" data-name="Trazado 70675" d="M36.645,5H29v7.645h7.645ZM34.1,10.1H31.548V7.548H34.1Z" transform="translate(6.677 0.097)"/>
    </g>
  </g>
</svg>
