<svg xmlns="http://www.w3.org/2000/svg" width="77.999" height="78" viewBox="0 0 77.999 78">
  <g id="definiendo" transform="translate(-0.001)">
    <circle id="Elipse_721" data-name="Elipse 721" cx="31.5" cy="31.5" r="31.5" transform="translate(14.001 1)" fill="#17afdc"/>
    <path id="Trazado_70627" data-name="Trazado 70627" d="M339.066,136l-11.241,15.6,5.554,3.449,11.375-15.231Z" transform="translate(-274.553 -113.9)" fill="#f4393d"/>
    <path id="Trazado_70628" data-name="Trazado 70628" d="M219.626,108.149,212.8,112.5l1.137-7.615L221.9,93.836V80H192v40.3h29.9V105.1Z" transform="translate(-160.8 -67)" fill="#f7edd3"/>
    <path id="Trazado_70629" data-name="Trazado 70629" d="M8,384h5.2v7.8H8Z" transform="translate(-6.7 -321.601)" fill="#dbe6fd"/>
    <path id="Trazado_70630" data-name="Trazado 70630" d="M40,350.5v7.834l7.8,6.466V344Z" transform="translate(-33.5 -288.101)" fill="#5358a1"/>
    <g id="Grupo_45657" data-name="Grupo 45657" transform="translate(36.401 19.5)">
      <path id="Trazado_70631" data-name="Trazado 70631" d="M224,120h5.2v5.2H224Z" transform="translate(-224.001 -120)" fill="#fccc38"/>
      <path id="Trazado_70632" data-name="Trazado 70632" d="M224,184h5.2v5.2H224Z" transform="translate(-224.001 -173.6)" fill="#fccc38"/>
      <path id="Trazado_70633" data-name="Trazado 70633" d="M224,248h5.2v5.2H224Z" transform="translate(-224.001 -227.2)" fill="#fccc38"/>
      <path id="Trazado_70634" data-name="Trazado 70634" d="M321.272,232l-.134.185L320,239.8l6.825-4.351Z" transform="translate(-304.401 -213.8)" fill="#fccc38"/>
    </g>
    <path id="Trazado_70635" data-name="Trazado 70635" d="M14.852,336.123a1.3,1.3,0,0,0-1.384.179l-7.438,6.2H1.3A1.3,1.3,0,0,0,0,343.8v7.8a1.3,1.3,0,0,0,1.3,1.3h4.69l7.48,6.2a1.3,1.3,0,0,0,2.13-1V337.3A1.3,1.3,0,0,0,14.852,336.123ZM2.6,345.1H5.2v5.2H2.6ZM13,355.334l-5.2-4.311v-6.614l5.2-4.333Z" transform="translate(0 -281.401)"/>
    <path id="Trazado_70636" data-name="Trazado 70636" d="M112,360h3.9v2.6H112V360Z" transform="translate(-93.8 -301.501)"/>
    <path id="Trazado_70637" data-name="Trazado 70637" d="M112,408h3.9v2.6H112V408Z" transform="translate(-93.8 -341.701)"/>
    <path id="Trazado_70638" data-name="Trazado 70638" d="M112,456h3.9v2.6H112V456Z" transform="translate(-93.8 -381.901)"/>
    <path id="Trazado_70639" data-name="Trazado 70639" d="M222.5,119.8h-5.2a1.3,1.3,0,0,1-1.3-1.3v-5.2a1.3,1.3,0,0,1,1.3-1.3h5.2a1.3,1.3,0,0,1,1.3,1.3v5.2A1.3,1.3,0,0,1,222.5,119.8Zm-3.9-2.6h2.6v-2.6h-2.6Z" transform="translate(-180.9 -93.8)"/>
    <path id="Trazado_70640" data-name="Trazado 70640" d="M222.5,183.8h-5.2a1.3,1.3,0,0,1-1.3-1.3v-5.2a1.3,1.3,0,0,1,1.3-1.3h5.2a1.3,1.3,0,0,1,1.3,1.3v5.2A1.3,1.3,0,0,1,222.5,183.8Zm-3.9-2.6h2.6v-2.6h-2.6Z" transform="translate(-180.9 -147.4)"/>
    <path id="Trazado_70641" data-name="Trazado 70641" d="M222.5,247.8h-5.2a1.3,1.3,0,0,1-1.3-1.3v-5.2a1.3,1.3,0,0,1,1.3-1.3h5.2a1.3,1.3,0,0,1,1.3,1.3v5.2A1.3,1.3,0,0,1,222.5,247.8Zm-3.9-2.6h2.6v-2.6h-2.6Z" transform="translate(-180.9 -201)"/>
    <path id="Trazado_70642" data-name="Trazado 70642" d="M225.582,86a1.3,1.3,0,0,0-.557-.861l-5.687-3.819a1.3,1.3,0,0,0-1.78.319L216.5,83.108V73.3a1.3,1.3,0,0,0-1.3-1.3H185.3a1.3,1.3,0,0,0-1.3,1.3v40.3a1.3,1.3,0,0,0,1.3,1.3h29.9a1.3,1.3,0,0,0,1.3-1.3V98.835L225.342,87A1.3,1.3,0,0,0,225.582,86ZM186.6,112.3V74.6h27.3V86.716L206.317,97.24h0l-.132.183a1.307,1.307,0,0,0-.232.568l-1.137,7.615A1.3,1.3,0,0,0,206.8,106.9l6.825-4.351a1.285,1.285,0,0,0,.276-.243v10Zm23.883-10.837-2.676,1.706.46-3.082Zm2.114-1.748L209.24,97.63l9.692-13.449,3.508,2.356Z" transform="translate(-154.1 -60.3)"/>
    <path id="Trazado_70643" data-name="Trazado 70643" d="M280,128h10.4v2.6H280Z" transform="translate(-234.5 -107.2)"/>
    <path id="Trazado_70644" data-name="Trazado 70644" d="M280,192h6.5v2.6H280Z" transform="translate(-234.5 -160.8)"/>
    <path id="Trazado_70645" data-name="Trazado 70645" d="M280,256h2.6v2.6H280Z" transform="translate(-234.5 -214.4)"/>
    <path id="Trazado_70646" data-name="Trazado 70646" d="M112.5,65A32.5,32.5,0,1,1,145,32.5,32.5,32.5,0,0,1,112.5,65Zm0-62.4a29.9,29.9,0,1,0,29.9,29.9A29.9,29.9,0,0,0,112.5,2.6Z" transform="translate(-67)"/>
  </g>
</svg>
