<svg xmlns="http://www.w3.org/2000/svg" width="79" height="73.733" viewBox="0 0 79 73.733">
  <g id="medicion" transform="translate(-16 -32)">
    <rect id="Rectángulo_12479" data-name="Rectángulo 12479" width="10" height="18" transform="translate(91 97) rotate(180)" fill="#4367e0"/>
    <rect id="Rectángulo_12480" data-name="Rectángulo 12480" width="11" height="28" transform="translate(81 97) rotate(180)" fill="#4976f2"/>
    <rect id="Rectángulo_12481" data-name="Rectángulo 12481" width="11" height="41" transform="translate(70 97) rotate(180)" fill="#548aff"/>
    <rect id="Rectángulo_12482" data-name="Rectángulo 12482" width="16" height="58" transform="translate(38 40)" fill="#ffc431"/>
    <path id="Trazado_70696" data-name="Trazado 70696" d="M93.442,440l5.267,3.95v1.317h-10.5l0-3.95Z" transform="translate(-60.325 -340.85)" fill="#c5dafa"/>
    <path id="Trazado_70697" data-name="Trazado 70697" d="M24.035,294.283,24.01,264H39.8v28.967l-5.267,1.317-2.633-23.7-2.633,22.383L24,294.283Z" transform="translate(-6.683 -193.817)" fill="#718799"/>
    <path id="Trazado_70698" data-name="Trazado 70698" d="M24,170.433h.01L24,158.517A6.517,6.517,0,0,1,30.517,152h7.966a6.357,6.357,0,0,1,4.5,1.862l2.088,2.088v7.9L39.8,158.583v11.85Z" transform="translate(-6.683 -100.25)" fill="#548aff"/>
    <path id="Trazado_70699" data-name="Trazado 70699" d="M75.95,128v5.925a1.975,1.975,0,0,1-3.95,0V128Z" transform="translate(-46.783 -80.2)" fill="#ffceb6"/>
    <path id="Trazado_70700" data-name="Trazado 70700" d="M74.633,125.267h0A2.633,2.633,0,0,1,72,122.633v-1.317L73.317,120h3.95v2.633A2.633,2.633,0,0,1,74.633,125.267Z" transform="translate(-46.783 -73.517)" fill="#ffceb6"/>
    <path id="Trazado_70701" data-name="Trazado 70701" d="M77.267,99.95l.771-.771a1.862,1.862,0,0,0,.545-1.317h0A1.862,1.862,0,0,0,76.721,96H74.633A2.633,2.633,0,0,0,72,98.633v2.633l1.317-1.317Z" transform="translate(-46.783 -53.467)" fill="#c47220"/>
    <path id="Trazado_70702" data-name="Trazado 70702" d="M60.608,212l4.608,4.608H71.8l2.361-2.361a.931.931,0,0,1,.658-.273h0a.931.931,0,0,1,.931.931v1.7H79.7v2.633a3.95,3.95,0,0,1-3.95,3.95H65.31a6.583,6.583,0,0,1-4.655-1.928L56,216.608h0Z" transform="translate(-33.417 -150.375)" fill="#ffceb6"/>
    <path id="Trazado_70703" data-name="Trazado 70703" d="M29.442,440l5.267,3.95v1.317h-10.5l0-3.95Z" transform="translate(-6.859 -340.85)" fill="#e0edff"/>
    <path id="Trazado_70704" data-name="Trazado 70704" d="M290.633,49.217,320.917,79.5V66.333l-23.7-23.7L299.85,40H288V51.85Z" transform="translate(-227.233 -6.683)" fill="#02c26a"/>
    <ellipse id="Elipse_726" data-name="Elipse 726" cx="1.5" cy="1" rx="1.5" ry="1" transform="translate(45 44)"/>
    <path id="Trazado_70705" data-name="Trazado 70705" d="M95,132.567v-2.633H92.367V112.817A1.317,1.317,0,0,0,91.05,111.5H81.833v-9.217a1.317,1.317,0,0,0-1.317-1.317H71.3V89.117A1.317,1.317,0,0,0,69.983,87.8H59.45a1.317,1.317,0,0,0-1.317,1.317v40.817H55.5V73.317A1.317,1.317,0,0,0,54.183,72h-15.8a1.317,1.317,0,0,0-1.317,1.317V85.946a7.619,7.619,0,0,0-5.267-2.1h-.227a3.931,3.931,0,0,0,.227-1.317V80.445l.386-.386a3.179,3.179,0,0,0-2.248-5.426H27.85a3.954,3.954,0,0,0-3.95,3.95V83.85h-.066A7.843,7.843,0,0,0,16,91.684v46.15a1.317,1.317,0,0,0,1.317,1.317H38.383a1.317,1.317,0,0,0,1.317-1.317v-1.317a1.316,1.316,0,0,0-.527-1.053l-4.743-3.557L34.32,107.55h2.747v23.7a1.317,1.317,0,0,0,1.317,1.317Zm-5.267-18.433v15.8h-7.9v-15.8Zm-47.4-13.167h2.633v1.317a2.636,2.636,0,0,1-2.633,2.633H31.893a5.232,5.232,0,0,1-3.724-1.543L24.445,99.65,27.192,96.9l3.677,3.677a1.317,1.317,0,0,0,.931.386h6.583a1.317,1.317,0,0,0,.931-.386l1.7-1.7v.771a1.317,1.317,0,0,0,1.317,1.317Zm-18.979,1.317H18.633V97.562Zm13.712-3.95H34.433v-3.4l2.633,2.633ZM26.533,86.257a3.931,3.931,0,0,0,1.317.226v.658a.658.658,0,1,1-1.317,0Zm1.317-8.99h2.088a.545.545,0,0,1,.386.931l-.386.386h-3.4a1.318,1.318,0,0,1,1.317-1.317Zm-1.317,4.5.545-.545h2.088v1.317a1.317,1.317,0,0,1-2.633,0Zm-2.7,4.721H23.9v.658a3.292,3.292,0,1,0,6.583,0v-.658H31.8a5.007,5.007,0,0,1,3.564,1.476l1.7,1.7v4.176l-3.019-3.019a1.317,1.317,0,0,0-2.248.931v6.038l-6.969-6.969-1.862,1.862,2.361,2.361-2.746,2.746-2.427-2.427a5.2,5.2,0,0,1,3.677-8.878Zm-5.2,50.033v-1.605L22.295,134l3.361,2.521Zm5.346-4.549,1.2-10.2,1.345,12.107Zm1.241-23.1h0a1.317,1.317,0,0,0-1.308,1.163l-2.527,21.48-2.749.687v-27.28h7.355l.32.32a7.844,7.844,0,0,0,5.379,2.309L31.8,131.54l-2.8.7-2.467-22.2a1.317,1.317,0,0,0-1.3-1.171Zm10.968,27.65H29.167v-1.605L32.828,134Zm3.511-6.583V107.55h2.633a5.273,5.273,0,0,0,5.267-5.267V99.65a1.317,1.317,0,0,0-1.317-1.317H43.65v-.386a2.248,2.248,0,0,0-3.837-1.589l-.113.113V74.633H52.867v7.9H50.233v2.633h2.633V87.8H50.233v2.633h2.633v2.633H50.233V95.7h2.633v2.633H50.233v2.633h2.633V103.6H50.233v2.633h2.633v2.633H50.233V111.5h2.633v2.633H50.233v2.633h2.633V119.4H50.233v2.633h2.633v2.633H50.233V127.3h2.633v2.633Zm21.067-39.5h7.9v39.5h-7.9ZM71.3,103.6h7.9v26.333H71.3Z" transform="translate(0 -33.417)"/>
    <path id="Trazado_70706" data-name="Trazado 70706" d="M315.55,59.65a1.317,1.317,0,0,0-.386-.931L292.4,35.95l1.7-1.7A1.317,1.317,0,0,0,293.167,32h-11.85A1.317,1.317,0,0,0,280,33.317v11.85a1.317,1.317,0,0,0,2.248.931l1.7-1.7L313.3,73.748a1.317,1.317,0,0,0,2.248-.931Zm-2.633,9.988L284.881,41.6a1.317,1.317,0,0,0-1.862,0l-.386.386V34.633h7.355l-.386.386a1.317,1.317,0,0,0,0,1.862L312.917,60.2Z" transform="translate(-220.55)"/>
  </g>
</svg>
