<svg xmlns="http://www.w3.org/2000/svg" width="333.499" height="194.676" viewBox="0 0 333.499 194.676">
  <g id="Grupo_45878" data-name="Grupo 45878" transform="translate(-64.032 -79.133)">
    <path id="Trazado_71428" data-name="Trazado 71428" d="M84.736,273.809H390.943c2.271-5.849,4.814-19.854,5.15-21.889,7.19-43.523-12.421-106.832-62.073-112.22-15.368-1.668-26.306-1.611-36.588-14.924-7.442-9.637-12.159-21.865-20.827-30.217-18.879-18.19-48.484-20.727-69.4-5.292-23.763,17.538-38.576,51.149-69.233,56.918-6.242,1.174-12.626,1.373-18.879,2.487a61.421,61.421,0,0,0-41.923,29.172c-14.461,24.065-19.125,59.776-2.963,84C76.032,264.575,80.364,270.425,84.736,273.809Z" fill="#eef"/>
    <g id="Grupo_45821" data-name="Grupo 45821" transform="translate(105.93 102.209)">
      <g id="Grupo_45818" data-name="Grupo 45818" transform="translate(11.71)">
        <path id="Trazado_71429" data-name="Trazado 71429" d="M390.861,146.68v.005c-.016.263-.038.526-.071.795a24.03,24.03,0,0,1-.757,3.865v.005c-.06.214-.126.433-.192.647V152a31.881,31.881,0,0,1-1.667,4.3c-.082.186-.17.367-.269.554a40.948,40.948,0,0,1-2.358,4.211v.005c-.1.164-.2.323-.313.488a60.02,60.02,0,0,1-4.15,5.609c-.121.143-.241.285-.362.433q-2.533,2.993-5.674,6.042c-.132.132-.263.258-.395.384-.471.455-.954.9-1.447,1.36q-2.533,2.336-5.483,4.556c-.143.11-.291.219-.439.329a103.879,103.879,0,0,1-8.728,5.79l-.477.28c-3.257,1.924-6.744,3.778-10.422,5.565-.164.082-.334.164-.5.247q-5.1,2.459-10.669,4.759c-.175.077-.351.148-.526.219q-5.748,2.368-11.93,4.578c-.181.06-.362.126-.543.192q-5.987,2.13-12.3,4.123h-.005c-.186.06-.367.121-.554.175q-7.311,2.311-14.957,4.43c-.192.055-.378.1-.57.159-5.017,1.393-10.121,2.736-15.275,4.019-.192.049-.389.1-.581.143-5.137,1.283-10.324,2.517-15.527,3.7-.192.049-.389.093-.587.132-5.236,1.2-10.488,2.336-15.724,3.438-.2.038-.395.082-.6.121-5.329,1.118-10.642,2.193-15.894,3.224-.2.038-.4.082-.6.121-5.411,1.064-10.762,2.083-16.009,3.065-.208.038-.406.077-.609.115H213.7c-5.219.976-10.335,1.913-15.307,2.824l-.559.1q-3.355.617-6.618,1.206a42.372,42.372,0,0,0-6.639,1.722c-.247.088-.493.175-.729.269-5.5,2.105-8.794,5.137-10.291,8.684v.005c-.077.186-.148.367-.219.559-1.552,4.276-.62,9.238,2.089,14.189.093.186.2.367.3.548a48.036,48.036,0,0,0,12.917,13.986h.005c.269.2.537.406.811.6a61.715,61.715,0,0,0,8.076,4.945,57.141,57.141,0,0,0,6.9,2.961c.384.137.762.269,1.146.395,20.094,6.76,42.808,3.783,42.808,3.783-29.129,8.69-69.777-6.086-80.309-18.822s-6.82-22.55,3.92-31.223,86.137-19.666,132.986-31.651,71.142-34.573,79.6-52.238-2.873-22.819-12.9-26.667c-24.31-9.342-46.75,6.184-46.75,6.184l-5.335-1.1s22.55-14.545,50.089-6.448c12.451,3.662,19.326,10,20.883,17.923.077.373.137.751.186,1.135A18.882,18.882,0,0,1,390.861,146.68Z" transform="translate(-161.809 -121.222)" fill="#393fa6"/>
        <g id="Grupo_45793" data-name="Grupo 45793" transform="translate(226.897 18.522)">
          <path id="Trazado_71430" data-name="Trazado 71430" d="M577.715,157.994l-2.056-2.654.433-.334,1.436,1.853C577.605,157.232,577.666,157.61,577.715,157.994Z" transform="translate(-575.659 -155.006)" fill="#c7beff"/>
        </g>
        <g id="Grupo_45794" data-name="Grupo 45794" transform="translate(226.897 23.238)">
          <path id="Trazado_71431" data-name="Trazado 71431" d="M577.814,165.826v.005c-.016.263-.038.526-.071.795l-2.083-2.686.433-.334Z" transform="translate(-575.659 -163.606)" fill="#c7beff"/>
        </g>
        <g id="Grupo_45795" data-name="Grupo 45795" transform="translate(226.102 27.947)">
          <path id="Trazado_71432" data-name="Trazado 71432" d="M576.331,174.373v.005c-.06.214-.126.433-.192.647l-1.93-2.489.433-.34Z" transform="translate(-574.209 -172.196)" fill="#c7beff"/>
        </g>
        <g id="Grupo_45796" data-name="Grupo 45796" transform="translate(224.057 32.662)">
          <path id="Trazado_71433" data-name="Trazado 71433" d="M572.787,183.214c-.082.186-.17.367-.269.554l-2.04-2.637.433-.334Z" transform="translate(-570.479 -180.796)" fill="#c7beff"/>
        </g>
        <g id="Grupo_45797" data-name="Grupo 45797" transform="translate(221.426 37.421)">
          <path id="Trazado_71434" data-name="Trazado 71434" d="M567.993,191.9v.005c-.1.164-.2.323-.312.488l-2-2.582.433-.334Z" transform="translate(-565.679 -189.476)" fill="#c7beff"/>
        </g>
        <g id="Grupo_45798" data-name="Grupo 45798" transform="translate(217.16 43.781)">
          <path id="Trazado_71435" data-name="Trazado 71435" d="M560.015,203.242c-.121.143-.241.285-.362.433L557.9,201.41l.439-.334Z" transform="translate(-557.899 -201.076)" fill="#c7beff"/>
        </g>
        <g id="Grupo_45799" data-name="Grupo 45799" transform="translate(211.053 50.152)">
          <path id="Trazado_71436" data-name="Trazado 71436" d="M548.947,214.966c-.132.132-.263.258-.395.384l-1.793-2.314.433-.34Z" transform="translate(-546.759 -212.696)" fill="#c7beff"/>
        </g>
        <g id="Grupo_45800" data-name="Grupo 45800" transform="translate(204.035 56.851)">
          <path id="Trazado_71437" data-name="Trazado 71437" d="M535.839,226.786c-.143.11-.291.219-.439.329l-1.442-1.859.433-.34Z" transform="translate(-533.959 -224.916)" fill="#c7beff"/>
        </g>
        <g id="Grupo_45801" data-name="Grupo 45801" transform="translate(194.632 62.668)">
          <path id="Trazado_71438" data-name="Trazado 71438" d="M518.925,237.7l-.477.28-1.639-2.111.433-.34Z" transform="translate(-516.809 -235.526)" fill="#c7beff"/>
        </g>
        <g id="Grupo_45802" data-name="Grupo 45802" transform="translate(183.98 68.831)">
          <path id="Trazado_71439" data-name="Trazado 71439" d="M499.249,248.619c-.164.082-.334.164-.5.247l-1.365-1.765.433-.334Z" transform="translate(-497.379 -246.766)" fill="#c7beff"/>
        </g>
        <g id="Grupo_45803" data-name="Grupo 45803" transform="translate(172.899 73.957)">
          <path id="Trazado_71440" data-name="Trazado 71440" d="M478.945,257.849c-.175.077-.351.148-.526.219l-1.25-1.617.433-.334Z" transform="translate(-477.169 -256.116)" fill="#c7beff"/>
        </g>
        <g id="Grupo_45804" data-name="Grupo 45804" transform="translate(160.382 78.672)">
          <path id="Trazado_71441" data-name="Trazado 71441" d="M456.176,266.531c-.181.06-.362.126-.543.192l-1.294-1.672.433-.334Z" transform="translate(-454.339 -264.716)" fill="#c7beff"/>
        </g>
        <g id="Grupo_45805" data-name="Grupo 45805" transform="translate(147.877 83.426)">
          <path id="Trazado_71442" data-name="Trazado 71442" d="M433.026,274.762c-.186.06-.367.121-.554.175l-.943-1.217.433-.334Z" transform="translate(-431.529 -273.386)" fill="#c7beff"/>
        </g>
        <g id="Grupo_45806" data-name="Grupo 45806" transform="translate(131.708 87.181)">
          <path id="Trazado_71443" data-name="Trazado 71443" d="M404.194,282.462c-.192.055-.378.1-.57.159l-1.584-2.05.433-.334Z" transform="translate(-402.039 -280.236)" fill="#c7beff"/>
        </g>
        <g id="Grupo_45807" data-name="Grupo 45807" transform="translate(115.54 90.942)">
          <path id="Trazado_71444" data-name="Trazado 71444" d="M375.027,289.739c-.192.049-.389.1-.581.143l-1.9-2.451.433-.334Z" transform="translate(-372.549 -287.096)" fill="#c7beff"/>
        </g>
        <g id="Grupo_45808" data-name="Grupo 45808" transform="translate(99.372 94.703)">
          <path id="Trazado_71445" data-name="Trazado 71445" d="M345.6,296.675c-.192.049-.389.093-.587.132l-1.952-2.517.433-.334Z" transform="translate(-343.059 -293.956)" fill="#c7beff"/>
        </g>
        <g id="Grupo_45809" data-name="Grupo 45809" transform="translate(83.204 98.459)">
          <path id="Trazado_71446" data-name="Trazado 71446" d="M315.965,303.339c-.2.038-.395.082-.6.121l-1.8-2.319.433-.334Z" transform="translate(-313.569 -300.806)" fill="#c7beff"/>
        </g>
        <g id="Grupo_45810" data-name="Grupo 45810" transform="translate(67.036 102.22)">
          <path id="Trazado_71447" data-name="Trazado 71447" d="M286.151,309.782c-.2.038-.4.082-.6.121l-1.475-1.9.433-.334Z" transform="translate(-284.079 -307.666)" fill="#c7beff"/>
        </g>
        <g id="Grupo_45811" data-name="Grupo 45811" transform="translate(50.867 105.975)">
          <path id="Trazado_71448" data-name="Trazado 71448" d="M256.223,316.062c-.208.038-.406.077-.609.115h-.005l-1.02-1.321.439-.34Z" transform="translate(-254.589 -314.516)" fill="#c7beff"/>
        </g>
        <g id="Grupo_45812" data-name="Grupo 45812" transform="translate(34.842 107.735)">
          <path id="Trazado_71449" data-name="Trazado 71449" d="M227.1,320.451l-.559.1-1.179-2.6.5-.225Z" transform="translate(-225.359 -317.726)" fill="#c7beff"/>
        </g>
        <g id="Grupo_45813" data-name="Grupo 45813" transform="translate(18.383 111.568)">
          <path id="Trazado_71450" data-name="Trazado 71450" d="M199.72,326.635c-.247.088-.493.175-.729.269l-3.651-1.689.23-.5Z" transform="translate(-195.339 -324.716)" fill="#c7beff"/>
        </g>
        <g id="Grupo_45814" data-name="Grupo 45814" transform="translate(5.954 122.445)">
          <path id="Trazado_71451" data-name="Trazado 71451" d="M178.459,344.556c-.077.186-.148.367-.219.559l-5.532.384-.038-.543Z" transform="translate(-172.669 -344.556)" fill="#c7beff"/>
        </g>
        <g id="Grupo_45815" data-name="Grupo 45815" transform="translate(5.97 137.193)">
          <path id="Trazado_71452" data-name="Trazado 71452" d="M180.643,372H172.7v-.548h7.643C180.435,371.642,180.539,371.823,180.643,372Z" transform="translate(-172.699 -371.456)" fill="#c7beff"/>
        </g>
        <g id="Grupo_45816" data-name="Grupo 45816" transform="translate(18.476 151.185)">
          <path id="Trazado_71453" data-name="Trazado 71453" d="M204.681,398.122l-9.172-.6.038-.548,8.317.543h.005C204.139,397.722,204.407,397.924,204.681,398.122Z" transform="translate(-195.509 -396.976)" fill="#c7beff"/>
        </g>
        <g id="Grupo_45817" data-name="Grupo 45817" transform="translate(38.433 160.237)">
          <path id="Trazado_71454" data-name="Trazado 71454" d="M237.244,413.881l-5.263.718-.071-.543,4.189-.57C236.481,413.623,236.86,413.755,237.244,413.881Z" transform="translate(-231.909 -413.486)" fill="#c7beff"/>
        </g>
      </g>
      <g id="Grupo_45819" data-name="Grupo 45819" transform="translate(18.307 5.66)">
        <ellipse id="Elipse_738" data-name="Elipse 738" cx="9.17" cy="7.31" rx="9.17" ry="7.31" transform="matrix(0.599, -0.801, 0.801, 0.599, 0.878, 15.339)" fill="#3e71cc"/>
        <ellipse id="Elipse_739" data-name="Elipse 739" cx="9.17" cy="7.31" rx="9.17" ry="7.31" transform="translate(0 14.682) rotate(-53.184)" fill="#5d8cf4"/>
        <path id="Trazado_71455" data-name="Trazado 71455" d="M193.922,150.762c-2.461,3.288-6.581,4.363-9.2,2.4s-2.751-6.218-.289-9.506,6.581-4.363,9.2-2.4S196.383,147.474,193.922,150.762Z" transform="translate(-177.829 -135.49)" fill="#3e71cc"/>
        <path id="Trazado_71456" data-name="Trazado 71456" d="M198.108,150.67a.57.57,0,1,1-.027-.891A.639.639,0,0,1,198.108,150.67Z" transform="translate(-184.328 -139.742)" fill="#393fa6"/>
        <path id="Trazado_71457" data-name="Trazado 71457" d="M190.2,153.975a.57.57,0,1,1-.027-.89A.638.638,0,0,1,190.2,153.975Z" transform="translate(-180.755 -141.234)" fill="#393fa6"/>
      </g>
      <g id="Grupo_45820" data-name="Grupo 45820" transform="translate(0 40.358)">
        <ellipse id="Elipse_740" data-name="Elipse 740" cx="7.31" cy="9.17" rx="7.31" ry="9.17" transform="translate(0 14.071) rotate(-63.55)" fill="#3e71cc"/>
        <ellipse id="Elipse_741" data-name="Elipse 741" cx="7.31" cy="9.17" rx="7.31" ry="9.17" transform="translate(0.488 13.089) rotate(-63.55)" fill="#5d8cf4"/>
        <path id="Trazado_71458" data-name="Trazado 71458" d="M153.714,214.374c-3.677-1.83-5.476-5.688-4.018-8.62s5.621-3.824,9.3-2,5.476,5.689,4.018,8.62S157.392,216.2,153.714,214.374Z" transform="translate(-144.399 -198.437)" fill="#3e71cc"/>
        <path id="Trazado_71459" data-name="Trazado 71459" d="M164.126,217.433a.57.57,0,1,1,.872-.187A.639.639,0,0,1,164.126,217.433Z" transform="translate(-150.954 -204.553)" fill="#393fa6"/>
        <path id="Trazado_71460" data-name="Trazado 71460" d="M159.453,210.248a.57.57,0,1,1,.871-.187A.639.639,0,0,1,159.453,210.248Z" transform="translate(-148.843 -201.307)" fill="#393fa6"/>
      </g>
    </g>
    <g id="Grupo_45877" data-name="Grupo 45877" transform="translate(74.206 111.107)">
      <g id="Grupo_45822" data-name="Grupo 45822" transform="translate(0 144.023)">
        <path id="Trazado_71461" data-name="Trazado 71461" d="M98.857,421.752s-9.84-1.819-16.267.639c0,0,5.3,5.394,24.019,5.394S98.857,421.752,98.857,421.752Z" transform="translate(-82.59 -409.613)" fill="#a81164"/>
        <path id="Trazado_71462" data-name="Trazado 71462" d="M118.264,400.145s38.048,3.462,53.278,3.462,52.173-1.731,52.173-1.731,10.7,6.94,9.833,16.44H118.264Z" transform="translate(-98.705 -400.145)" fill="#a81164"/>
        <path id="Trazado_71463" data-name="Trazado 71463" d="M113.22,400.145c-5.31-.075-10.6,18.172,0,18.172S119.686,400.236,113.22,400.145Z" transform="translate(-93.662 -400.145)" fill="#ce2178"/>
        <path id="Trazado_71464" data-name="Trazado 71464" d="M112.109,406.12s2.729-2.577,4.257,4.075-6.734,14.893-9.255,3.47c0,0,2.274,4.772,4.721,3.615a6.139,6.139,0,0,0,3.025-7.375c-1.013-3.036-3.63-1.022-3.912,1.8s2.1,2.649,2.281.785c0,0-.538,2.618-2.563,2.04S109.94,407.251,112.109,406.12Z" transform="translate(-93.667 -402.622)" fill="#a81164"/>
      </g>
      <g id="Grupo_45823" data-name="Grupo 45823" transform="translate(119.871 12.746)">
        <path id="Trazado_71465" data-name="Trazado 71465" d="M315.6,176.813s6.386,1.711,10.382,0l-2.076,137.9s0,3.223-13.3,3.223Z" transform="translate(-305.463 -167.98)" fill="#b2afff"/>
        <path id="Trazado_71466" data-name="Trazado 71466" d="M304.343,161.462s7.519-2.892,13.014,2.6c0,0-2.024,126.464-1.157,146.086H301.841S299.375,239.1,304.343,161.462Z" transform="translate(-301.229 -160.702)" fill="#c7beff"/>
      </g>
      <g id="Grupo_45824" data-name="Grupo 45824" transform="translate(96.372 1.095)">
        <path id="Trazado_71467" data-name="Trazado 71467" d="M271.389,150.739s-10.716,0-13.022-2.892l4.98,155.3s4.86,1.706,13.246,1.706Z" transform="translate(-258.367 -143.244)" fill="#ef9ad5"/>
        <path id="Trazado_71468" data-name="Trazado 71468" d="M267.451,141.162s9.095-2.892,16.665-1.157l4.968,160.545H273.757S269.531,164.009,267.451,141.162Z" transform="translate(-262.471 -139.451)" fill="#ffb9df"/>
      </g>
      <g id="Grupo_45829" data-name="Grupo 45829" transform="translate(0 64.878)">
        <g id="Grupo_45826" data-name="Grupo 45826" transform="translate(3.549)">
          <g id="Grupo_45825" data-name="Grupo 45825" transform="translate(0 1.086)">
            <path id="Trazado_71469" data-name="Trazado 71469" d="M89.328,291.335l-.266-.065c.3-1.22,3.006-11.914,5-11.477a.346.346,0,0,0,.279-.076c1.714-1.21,3.277-12.972,3.292-13.091l.016-.124.124,0c.08,0,8.1.274,14.933,0,6.724-.268,8.09-8.654,8.1-8.739l.271.042c-.013.087-1.412,8.693-8.363,8.971-6.378.255-13.785.037-14.829,0-.18,1.34-1.656,11.933-3.39,13.156a.6.6,0,0,1-.494.12.374.374,0,0,0-.078-.008C92.6,280.053,90.418,286.915,89.328,291.335Z" transform="translate(-89.062 -257.768)" fill="#ae1f59"/>
          </g>
          <rect id="Rectángulo_12670" data-name="Rectángulo 12670" width="0.415" height="8.302" transform="translate(4.976 15.773)" fill="#393fa6"/>
          <ellipse id="Elipse_742" data-name="Elipse 742" cx="2.145" cy="5.652" rx="2.145" ry="5.652" transform="translate(35.969 7.704)" fill="#393fa6"/>
          <path id="Trazado_71470" data-name="Trazado 71470" d="M96.718,265.107h28.4a1.665,1.665,0,0,1,1.665,1.665V292.9h-15.5V290.76l4.153-4.153V275.632l-2.858-2.286H101l-1.8,3.428a.969.969,0,0,1-.857.518H96.021a.969.969,0,0,1-.968-.969v-9.552A1.665,1.665,0,0,1,96.718,265.107Z" transform="translate(-91.768 -259.997)" fill="#ef9ad5"/>
          <path id="Trazado_71471" data-name="Trazado 71471" d="M101.822,265.107h28.4a1.665,1.665,0,0,1,1.666,1.665V292.9h-15.5V290.76l4.153-4.153V275.632l-2.858-2.286H106.1l-1.8,3.428a.968.968,0,0,1-.857.518h-2.32a.969.969,0,0,1-.969-.969v-9.552A1.665,1.665,0,0,1,101.822,265.107Z" transform="translate(-94.074 -259.997)" fill="#ffb9df"/>
          <rect id="Rectángulo_12671" data-name="Rectángulo 12671" width="1.799" height="5.11" transform="translate(30.988)" fill="#ae1f59"/>
          <rect id="Rectángulo_12672" data-name="Rectángulo 12672" width="18.458" height="1.306" transform="translate(3.49 31.599)" fill="#5d8cf4"/>
        </g>
        <g id="Grupo_45827" data-name="Grupo 45827" transform="translate(3.775 34.073)">
          <path id="Trazado_71472" data-name="Trazado 71472" d="M97.063,317.934l-7.588,63.751h1.293l8.282-63.751Z" transform="translate(-89.475 -317.934)" fill="#5d8cf4"/>
          <path id="Trazado_71473" data-name="Trazado 71473" d="M132.386,317.934l-6.073,63.751h1.293l6.768-63.751Z" transform="translate(-106.116 -317.934)" fill="#5d8cf4"/>
        </g>
        <g id="Grupo_45828" data-name="Grupo 45828" transform="translate(0 32.728)">
          <path id="Trazado_71474" data-name="Trazado 71474" d="M186.319,317.934l7.588,63.751h-1.293l-8.282-63.751Z" transform="translate(-128.551 -316.589)" fill="#5d8cf4"/>
          <path id="Trazado_71475" data-name="Trazado 71475" d="M152.244,317.934l6.073,63.751h-1.293l-6.768-63.751Z" transform="translate(-113.158 -316.589)" fill="#5d8cf4"/>
          <rect id="Rectángulo_12673" data-name="Rectángulo 12673" width="69.113" height="2.689" fill="#393fa6"/>
          <rect id="Rectángulo_12674" data-name="Rectángulo 12674" width="34.556" height="2.689" fill="#4952b7"/>
        </g>
      </g>
      <g id="Grupo_45832" data-name="Grupo 45832" transform="translate(282.058 52.837)">
        <path id="Trazado_71476" data-name="Trazado 71476" d="M601.8,234.318s9.843-.493,19.951-.493,11.518.493,11.518.493-.759,28.069,2.386,43.069H609.627Z" transform="translate(-599.194 -233.825)" fill="#b2afff"/>
        <path id="Trazado_71477" data-name="Trazado 71477" d="M625.2,270.616l-7.954,89.693h1.768l7.954-89.693Z" transform="translate(-606.175 -250.445)" fill="#393fa6"/>
        <path id="Trazado_71478" data-name="Trazado 71478" d="M632.742,270.616l7.954,89.693h1.768l-7.954-89.693Z" transform="translate(-613.173 -250.445)" fill="#393fa6"/>
        <path id="Trazado_71479" data-name="Trazado 71479" d="M627.4,282.425H597.049l2.6-47.7H630Z" transform="translate(-597.049 -234.232)" fill="#c7beff"/>
        <g id="Grupo_45830" data-name="Grupo 45830" transform="translate(15.533 5.909)">
          <path id="Trazado_71480" data-name="Trazado 71480" d="M642.071,245.179c-1.7.052-1.422,4.062-1.422,4.062s.95,0,.593,1.516a15.311,15.311,0,0,1-.735,2.379h1.762s-.889-2.924.116-3.9S644.133,245.117,642.071,245.179Z" transform="translate(-632.214 -244.862)" fill="#ffe8ff"/>
          <path id="Trazado_71481" data-name="Trazado 71481" d="M638.963,257.172s1.151-1.68,1.9-1.489,1.555,2.409-1.077,5.112h-1.414S637.685,258.5,638.963,257.172Z" transform="translate(-631.165 -249.601)" fill="#ffe8ff"/>
          <path id="Trazado_71482" data-name="Trazado 71482" d="M634,265.019s.593,7.3.588,9.3,1.3,12.868,1.3,12.868l.72,3.136h-3.091l1.876-1.081,0-1.677s-3.4-11.466-3.539-14.141l-3.7,16.9h-2.765l2.086-.865.615-2.433s.868-7.353,1.274-11.9,3.228-10.111,3.228-10.111Z" transform="translate(-625.381 -253.825)" fill="#ffe8ff"/>
          <path id="Trazado_71483" data-name="Trazado 71483" d="M641.64,255.349c.674-.228,1.837,6.218,1.837,6.218l.409,6.269.459.976s-.127.649-.56.594-.681-.7-.5-1.351l-.646-5.679-1.249-6.068Z" transform="translate(-632.612 -249.454)" fill="#ffe8ff"/>
          <path id="Trazado_71484" data-name="Trazado 71484" d="M637.094,256.439l-1.355.216-2.716,6.975L630,268.6s-.251,1.142-.038,1.3.813,0,.813,0l-.122-1.355,3.674-5.343Z" transform="translate(-627.413 -249.949)" fill="#ffe8ff"/>
          <path id="Trazado_71485" data-name="Trazado 71485" d="M641.34,245.892s-.407-1.343,1.1-1.288a1.945,1.945,0,0,1,1.593,2.7c-.408.973-.88,2.811.011,3.569a1.825,1.825,0,0,1,.572,2.356c-.35.833.6,1.861.6,1.861s-2.415.27-3.054-.973-.273-7.516-.273-7.516Z" transform="translate(-632.568 -244.602)" fill="#ffe8ff"/>
        </g>
        <g id="Grupo_45831" data-name="Grupo 45831" transform="translate(3.675 5.816)">
          <path id="Trazado_71486" data-name="Trazado 71486" d="M613.094,245.118c1.794-.689,1.339,3.6.6,4.245S611.193,245.849,613.094,245.118Z" transform="translate(-607.586 -244.709)" fill="#ffe8ff"/>
          <path id="Trazado_71487" data-name="Trazado 71487" d="M610.2,250.607a13.161,13.161,0,0,0,.2,2.6c.227.817,1.513,1.2,1.513,1.2l-2.178,4.109,3.106,19.627h-7.808s-.008-12.544.092-15.9a4.085,4.085,0,0,1,3.013-4l-.323-4.434-3.3,1.422,2.3,3.946-1.3.687.365-1.351-2.131-3.435,4.559-2.782s.813.7,1.039.594.054-1.838.054-1.838Z" transform="translate(-603.752 -247.222)" fill="#ffe8ff"/>
          <path id="Trazado_71488" data-name="Trazado 71488" d="M617.865,257.524l-.45,6.174.289,6.7.4,1.294-.937.527.054-1.821-.284-6.878.157-5.291Z" transform="translate(-609.706 -250.347)" fill="#ffe8ff"/>
          <path id="Trazado_71489" data-name="Trazado 71489" d="M618.1,296.084l1.418,7.029,1.969,1.244h-2.657l.032-1.081-1.476-6.921Z" transform="translate(-609.911 -267.766)" fill="#ffe8ff"/>
          <path id="Trazado_71490" data-name="Trazado 71490" d="M608.383,294.9l.332,8.924h-1.356l.737-2-.7-6.7Z" transform="translate(-605.382 -267.229)" fill="#ffe8ff"/>
          <path id="Trazado_71491" data-name="Trazado 71491" d="M612.146,244.843s.621-.643,1.033-.317.975,3.292.975,3.292l.7.332-4.71.671s.973-.828.826-1.344S611.43,243.969,612.146,244.843Z" transform="translate(-606.637 -244.434)" fill="#ffe8ff"/>
        </g>
      </g>
      <g id="Grupo_45858" data-name="Grupo 45858" transform="translate(191.524 23.918)">
        <path id="Trazado_71492" data-name="Trazado 71492" d="M486.8,182.5s-43.6-3.2-54.878,0c0,0,4.745,48.394,0,64.918l52.705-5.017Z" transform="translate(-431.92 -181.079)" fill="#b2afff"/>
        <path id="Trazado_71493" data-name="Trazado 71493" d="M459.018,332.331h-1.768l10.965-123.65h1.768Z" transform="translate(-443.362 -193.548)" fill="#393fa6"/>
        <path id="Trazado_71494" data-name="Trazado 71494" d="M478.215,332.331h1.768l-10.965-123.65h-1.768Z" transform="translate(-447.88 -193.548)" fill="#393fa6"/>
        <path id="Trazado_71495" data-name="Trazado 71495" d="M493.129,251.119H439.968l-4.916-67.444h53.161Z" transform="translate(-433.335 -182.252)" fill="#c7beff"/>
        <g id="Grupo_45857" data-name="Grupo 45857" transform="translate(18.476 7.823)">
          <g id="Grupo_45835" data-name="Grupo 45835" transform="translate(10.548)">
            <g id="Grupo_45833" data-name="Grupo 45833">
              <path id="Trazado_71496" data-name="Trazado 71496" d="M493.732,211.388h-8.065l-.052-.545H493.3l1.661-6.073c-.7-.586-3.357-3.145-4.214-8.878H489.4c.072.989.177,4.325-1.489,6.19a3.84,3.84,0,0,1-3,1.265l-.051-.545a3.356,3.356,0,0,0,2.621-1.1c1.782-2,1.35-6.036,1.345-6.077l-.032-.277h2.422l.036.26c.885,6.432,4.136,8.84,4.169,8.864l.169.122Z" transform="translate(-484.859 -195.347)" fill="#5d8cf4"/>
            </g>
            <g id="Grupo_45834" data-name="Grupo 45834" transform="translate(0.757 15.496)">
              <path id="Trazado_71497" data-name="Trazado 71497" d="M505.136,264.224H490.062l-.051-.545h14.424l-10.5-39.523h-7.642l-.051-.545h8.1l.06.227Z" transform="translate(-486.239 -223.611)" fill="#5d8cf4"/>
            </g>
          </g>
          <g id="Grupo_45856" data-name="Grupo 45856">
            <g id="Grupo_45846" data-name="Grupo 45846" transform="translate(0.101)">
              <g id="Grupo_45836" data-name="Grupo 45836" transform="translate(2.633)">
                <path id="Trazado_71498" data-name="Trazado 71498" d="M471.194,197.01l-.55-.06c.007-.435,0-.887-.024-1.343l-.013-.26h2.422l.021.277a12.284,12.284,0,0,0,.2,1.325l-.539.058c-.1-.48-.151-.871-.18-1.115h-1.347C471.2,196.271,471.2,196.646,471.194,197.01Z" transform="translate(-470.606 -195.347)" fill="#5d8cf4"/>
              </g>
              <g id="Grupo_45837" data-name="Grupo 45837" transform="translate(5.285 3.494)">
                <path id="Trazado_71499" data-name="Trazado 71499" d="M477.274,204.873a7.916,7.916,0,0,1-1.831-3.012l.515-.141a7.336,7.336,0,0,0,1.682,2.782Z" transform="translate(-475.443 -201.72)" fill="#5d8cf4"/>
              </g>
              <g id="Grupo_45838" data-name="Grupo 45838" transform="translate(8.985 7.264)">
                <path id="Trazado_71500" data-name="Trazado 71500" d="M484.028,210.422h-.548l-.1-1.1a4.751,4.751,0,0,1-1.185-.211l.122-.518a4.286,4.286,0,0,0,1.286.19h.274Z" transform="translate(-482.192 -208.597)" fill="#5d8cf4"/>
              </g>
              <g id="Grupo_45839" data-name="Grupo 45839" transform="translate(10.41 10.54)">
                <path id="Trazado_71501" data-name="Trazado 71501" d="M485.566,216.988h-.548l-.228-2.417h.548Z" transform="translate(-484.79 -214.571)" fill="#5d8cf4"/>
              </g>
              <g id="Grupo_45840" data-name="Grupo 45840" transform="translate(9.78 14.406)">
                <path id="Trazado_71502" data-name="Trazado 71502" d="M485.337,223.258h-1.645l-.051-.545h1.1l-.1-1.09h.548Z" transform="translate(-483.641 -221.624)" fill="#5d8cf4"/>
              </g>
              <g id="Grupo_45841" data-name="Grupo 45841" transform="translate(6.047 15.496)">
                <path id="Trazado_71503" data-name="Trazado 71503" d="M479.217,224.156h-2.333l-.051-.545h2.333Z" transform="translate(-476.833 -223.611)" fill="#5d8cf4"/>
              </g>
              <g id="Grupo_45842" data-name="Grupo 45842" transform="translate(2.464 14.396)">
                <path id="Trazado_71504" data-name="Trazado 71504" d="M472.532,223.249H470.97l-.673-1.458.5-.187.508,1.1h1.179Z" transform="translate(-470.297 -221.604)" fill="#5d8cf4"/>
              </g>
              <g id="Grupo_45843" data-name="Grupo 45843" transform="translate(1.164 11.581)">
                <path id="Trazado_71505" data-name="Trazado 71505" d="M468.738,218.416l-.812-1.759.5-.187.812,1.759Z" transform="translate(-467.926 -216.47)" fill="#5d8cf4"/>
              </g>
              <g id="Grupo_45844" data-name="Grupo 45844" transform="translate(0 8.174)">
                <path id="Trazado_71506" data-name="Trazado 71506" d="M466.479,212.794l-.676-1.465.145-.123a4.834,4.834,0,0,0,.784-.951l.469.328a6.042,6.042,0,0,1-.734.92l.509,1.1Z" transform="translate(-465.803 -210.256)" fill="#5d8cf4"/>
              </g>
              <g id="Grupo_45845" data-name="Grupo 45845" transform="translate(1.771 3.514)">
                <path id="Trazado_71507" data-name="Trazado 71507" d="M469.549,205.025l-.515-.24a12.667,12.667,0,0,0,.763-3.028l.547.12A13.2,13.2,0,0,1,469.549,205.025Z" transform="translate(-469.034 -201.757)" fill="#5d8cf4"/>
              </g>
            </g>
            <g id="Grupo_45855" data-name="Grupo 45855" transform="translate(0 15.496)">
              <g id="Grupo_45847" data-name="Grupo 45847" transform="translate(9.881)">
                <path id="Trazado_71508" data-name="Trazado 71508" d="M485.439,225.246h-.548l-.1-1.09h-1.1l-.051-.545h1.645Z" transform="translate(-483.641 -223.611)" fill="#5d8cf4"/>
              </g>
              <g id="Grupo_45848" data-name="Grupo 45848" transform="translate(11.289 3.306)">
                <path id="Trazado_71509" data-name="Trazado 71509" d="M489.957,263.641h-.548l-.262-2.787h.548Zm-.419-4.459h-.548l-.262-2.787h.548Zm-.419-4.458h-.548l-.263-2.787h.548Zm-.42-4.459h-.548l-.262-2.787h.548Zm-.42-4.46h-.548l-.262-2.786h.548Zm-.419-4.458h-.548l-.262-2.787h.548Zm-.42-4.459h-.548l-.262-2.787h.548Zm-.419-4.459h-.548l-.262-2.787h.548Z" transform="translate(-486.209 -229.642)" fill="#5d8cf4"/>
              </g>
              <g id="Grupo_45849" data-name="Grupo 45849" transform="translate(13.652 38.978)">
                <path id="Trazado_71510" data-name="Trazado 71510" d="M492.216,296.34h-1.645l-.051-.545h1.1l-.1-1.09h.548Z" transform="translate(-490.52 -294.705)" fill="#5d8cf4"/>
              </g>
              <g id="Grupo_45850" data-name="Grupo 45850" transform="translate(3.54 40.068)">
                <path id="Trazado_71511" data-name="Trazado 71511" d="M480.343,297.238h-3.16l-.052-.545h3.16Zm-5.056,0h-3.16l-.052-.545h3.16Z" transform="translate(-472.076 -296.693)" fill="#5d8cf4"/>
              </g>
              <g id="Grupo_45851" data-name="Grupo 45851" transform="translate(0 38.951)">
                <path id="Trazado_71512" data-name="Trazado 71512" d="M467.315,296.318h-1.7l.129-1.661.549.092-.079,1.025h1.046Z" transform="translate(-465.619 -294.657)" fill="#5d8cf4"/>
              </g>
              <g id="Grupo_45852" data-name="Grupo 45852" transform="translate(0.258 3.243)">
                <path id="Trazado_71513" data-name="Trazado 71513" d="M466.639,263.652l-.549-.091.217-2.79.549.092Zm.346-4.463-.549-.092.216-2.79.549.092Zm.345-4.463-.549-.092.216-2.79.549.092Zm.346-4.463-.549-.092.216-2.79.549.092Zm.346-4.463-.549-.092.216-2.79.549.091Zm.345-4.464-.549-.092.216-2.79.549.092Zm.346-4.463-.55-.092.217-2.79.549.092Zm.346-4.463-.549-.092.216-2.79.549.092Z" transform="translate(-466.09 -229.527)" fill="#5d8cf4"/>
              </g>
              <g id="Grupo_45853" data-name="Grupo 45853" transform="translate(3.025)">
                <path id="Trazado_71514" data-name="Trazado 71514" d="M471.686,225.272l-.549-.091.122-1.569h1.6l.051.545h-1.139Z" transform="translate(-471.137 -223.611)" fill="#5d8cf4"/>
              </g>
              <g id="Grupo_45854" data-name="Grupo 45854" transform="translate(6.148)">
                <path id="Trazado_71515" data-name="Trazado 71515" d="M479.217,224.156h-2.333l-.051-.545h2.333Z" transform="translate(-476.833 -223.611)" fill="#5d8cf4"/>
              </g>
            </g>
          </g>
        </g>
      </g>
      <g id="Grupo_45865" data-name="Grupo 45865" transform="translate(219.304 61.603)">
        <g id="Grupo_45862" data-name="Grupo 45862" transform="translate(46.904 59.977)">
          <g id="Grupo_45859" data-name="Grupo 45859">
            <rect id="Rectángulo_12675" data-name="Rectángulo 12675" width="26.68" height="6.392" rx="3.196" fill="#393fa6"/>
          </g>
          <g id="Grupo_45861" data-name="Grupo 45861" transform="translate(1.233 3.622)">
            <g id="Grupo_45860" data-name="Grupo 45860">
              <path id="Trazado_71516" data-name="Trazado 71516" d="M594.1,403.314a.505.505,0,0,1-.492-.394l-3.433-15.245-2.116,15.2a.5.5,0,0,1-.475.435.5.5,0,0,1-.516-.387L582.5,383.845l-4.57,19.081a.491.491,0,0,1-.516.387.5.5,0,0,1-.475-.435l-2.116-15.2-3.433,15.245a.5.5,0,0,1-1-.132l1.464-36.487a.5.5,0,0,1,1-.049l2.2,15.784,3.422-15.2a.5.5,0,0,1,.489-.394h0a.506.506,0,0,1,.491.388L582.5,379.51l3.035-12.676a.506.506,0,0,1,.491-.388h0a.505.505,0,0,1,.49.394l3.422,15.2,2.2-15.783a.5.5,0,0,1,.525-.435.506.506,0,0,1,.48.485l1.464,36.487a.5.5,0,0,1-.439.521A.546.546,0,0,1,594.1,403.314Zm-11.083-21.637,4.41,18.415,2.117-15.215-3.535-15.695Zm-7.565,3.2,2.117,15.215,4.41-18.415-2.992-12.495Zm-2.814-12.893-1.015,25.3,2.8-12.448Zm17.932,12.85,2.8,12.448-1.015-25.3Z" transform="translate(-570.389 -365.816)" fill="#393fa6"/>
            </g>
          </g>
        </g>
        <g id="Grupo_45863" data-name="Grupo 45863" transform="translate(3.775 37.348)">
          <path id="Trazado_71517" data-name="Trazado 71517" d="M497.063,317.934l-7.588,63.751h1.293l8.282-63.751Z" transform="translate(-489.475 -317.934)" fill="#5d8cf4"/>
          <path id="Trazado_71518" data-name="Trazado 71518" d="M532.386,317.934l-6.073,63.751h1.293l6.768-63.751Z" transform="translate(-506.116 -317.934)" fill="#5d8cf4"/>
        </g>
        <path id="Trazado_71519" data-name="Trazado 71519" d="M568.647,326.964s-1.062,10.492-2.8,15.832c-1.2,3.685-5.393,8.812-18.111,6.8-7.709-1.218-18.91-10.513-18.91-10.513l-14.115,30.433H511.25s10.749-37.129,11.5-40.137,22.591,2.052,22.591,2.052l5.31-2.052Z" transform="translate(-495.537 -284.665)" fill="#872178"/>
        <path id="Trazado_71520" data-name="Trazado 71520" d="M560.568,280.454s-9.074,7.946-11.606,13.256-1.573,6.563-.126,6.382,2.008.573,4.156-.39a6.227,6.227,0,0,0,2.482-2.3s7.118-7.056,6.207-7.766S560.568,280.454,560.568,280.454Z" transform="translate(-511.863 -263.655)" fill="#ef9ad5"/>
        <path id="Trazado_71521" data-name="Trazado 71521" d="M574.247,261.672s-9.042,5.071-6.33,9.859c0,0-2.1,5.41-.507,9.53s8.1,7.013,6.837,12.438-2.207,3.979.162,6.872,17.741-1.472,19.368-3.177-1.73-25.662-14.547-27.173C579.23,270.02,580.158,259.868,574.247,261.672Z" transform="translate(-520.637 -255.073)" fill="#ffb9df"/>
        <path id="Trazado_71522" data-name="Trazado 71522" d="M506.032,393.893l6.34,1.85-3.17,4.741.576,2.2-.576,4.163h-1.008l-.72-1.735L506.032,408l-7.348,3.469s-1.441-1.619,2.45-3.7l4.264-7.4Z" transform="translate(-489.742 -314.9)" fill="#393fa6"/>
        <path id="Trazado_71523" data-name="Trazado 71523" d="M538.19,349.072s-4.565.071-6.078,2.6,10,33.557,10,33.557H544.9L540.587,356.6l10.387.912Z" transform="translate(-504.899 -294.652)" fill="#7a1970"/>
        <path id="Trazado_71524" data-name="Trazado 71524" d="M541.908,411.624h6.258v5.46l1.178,2.4-1.178,4.528h-.932l-.612-1.864-3.428,1.864h-7.412s.8-1.464,3.462-1.731l4.591-5.46Z" transform="translate(-506.619 -322.91)" fill="#393fa6"/>
        <path id="Trazado_71525" data-name="Trazado 71525" d="M578.447,311.1l-4.279.133s-3.077-1.231-3.561-.931a29.516,29.516,0,0,0-2.582,3.271h10.422Z" transform="translate(-521.184 -277.117)" fill="#ff8fdf"/>
        <path id="Trazado_71526" data-name="Trazado 71526" d="M587.054,281.758c-1.564,5.992,6.926,11.486,7.125,12.384s-11.785,2.9-12.185,3.3-1.1,1.343-.5,2.219,16.517,1.026,18.8.452,3.576-4.37,0-10.562C597.319,284.4,588.15,277.557,587.054,281.758Z" transform="translate(-527.164 -263.655)" fill="#ffc2e6"/>
        <path id="Trazado_71527" data-name="Trazado 71527" d="M571.425,279.276s2.542,1.688,2.537,3.376a12.782,12.782,0,0,0,1.2,4.219s2.5-3.188,4.446-5.813S575.524,274.333,571.425,279.276Z" transform="translate(-522.72 -262.075)" fill="#ff7bcd"/>
        <path id="Trazado_71528" data-name="Trazado 71528" d="M559.32,253.2s-4.514,10.088-1.468,15.961,2.963,8.9,1.468,9.83,4.11,4.279,5.2-1.014-1.23-10.35.911-13.181,4.433,1.506,4.433,1.506,7.782,3.585,8.039-.545-3.074-4.84-3.436-8.27S567.325,246.738,559.32,253.2Z" transform="translate(-516.112 -250.18)" fill="#ce2178"/>
        <path id="Trazado_71529" data-name="Trazado 71529" d="M568.945,252.712c-7.43-1.005-9.4,5.728-5.787,12.576s5.063,4.919,7.957,2.809S576.178,253.691,568.945,252.712Z" transform="translate(-518.191 -251.078)" fill="#ff8fdf"/>
        <path id="Trazado_71530" data-name="Trazado 71530" d="M561.587,256.887s1.085,6.349,8.681,4.38c0,0,1.033-1.232,1.567-.522s-.316,3.686-.316,3.686,2.245-2.962,2.245-5.856,1.326-6.631-5.425-8.439-10.85,4.32-9.283,9.936C559.056,260.072,559.779,257.249,561.587,256.887Z" transform="translate(-516.982 -249.813)" fill="#ce2178"/>
        <path id="Trazado_71531" data-name="Trazado 71531" d="M533.663,313.28s8.54.809,10.816.519l4.062-.519,2.281,1.207s-8.728,1.193-13.128.452Z" transform="translate(-505.661 -278.484)" fill="#c7beff"/>
        <path id="Trazado_71532" data-name="Trazado 71532" d="M555.82,302.082l.535,7.8h.5l-.52-7.8Z" transform="translate(-515.671 -273.425)" fill="#872178"/>
        <path id="Trazado_71533" data-name="Trazado 71533" d="M547.922,310.044c.066-.662,2.4-2.8,3.129-2.863s2.239,2.995,2.239,2.995-2.33,1.911-2.684,1.555S547.788,311.376,547.922,310.044Z" transform="translate(-512.1 -275.728)" fill="#ff8fdf"/>
        <g id="Grupo_45864" data-name="Grupo 45864" transform="translate(0 36.003)">
          <path id="Trazado_71534" data-name="Trazado 71534" d="M586.319,317.934l7.588,63.751h-1.293l-8.282-63.751Z" transform="translate(-528.551 -316.589)" fill="#5d8cf4"/>
          <path id="Trazado_71535" data-name="Trazado 71535" d="M552.244,317.934l6.073,63.751h-1.293l-6.768-63.751Z" transform="translate(-513.158 -316.589)" fill="#5d8cf4"/>
          <rect id="Rectángulo_12676" data-name="Rectángulo 12676" width="69.113" height="2.689" fill="#393fa6"/>
          <rect id="Rectángulo_12677" data-name="Rectángulo 12677" width="34.556" height="2.689" fill="#4952b7"/>
        </g>
      </g>
      <g id="Grupo_45876" data-name="Grupo 45876" transform="translate(45.307 0)">
        <path id="Trazado_71536" data-name="Trazado 71536" d="M215.44,237.509s2.649,9.72,3.548,9.554,12.684-4.572,12.684-4.572l1.9-4.982H224.5l-.423-6.8Z" transform="translate(-187.91 -179.583)" fill="#a099f5"/>
        <g id="Grupo_45874" data-name="Grupo 45874" transform="translate(31.974)">
          <path id="Trazado_71537" data-name="Trazado 71537" d="M377,147.764c-1.969-.832-5.382-.547-8.5,0h0c-3.536.607-3.137-10.312-3.137-10.312h-4.348s.4,10.919-3.137,10.312h0c-3.12-.549-6.533-.833-8.5,0-4.357,1.841,6.812,22.534,6.812,22.534s-7.6,11.2-7.2,21.178c.45,11.1,3.035,28.255,3.035,28.255H374.35s2.586-17.151,3.035-28.255c.4-9.979-7.2-21.178-7.2-21.178S381.356,149.605,377,147.764Z" transform="translate(-279.932 -137.453)" fill="#ffb9df"/>
          <path id="Trazado_71538" data-name="Trazado 71538" d="M370.138,362.358V282.286h-5.679v80.072l-6.991,3.223h19.661Z" transform="translate(-284.044 -202.88)" fill="#5d8cf4"/>
          <g id="Grupo_45873" data-name="Grupo 45873" transform="translate(40.736 39.516)">
            <g id="Grupo_45866" data-name="Grupo 45866">
              <path id="Trazado_71539" data-name="Trazado 71539" d="M382.378,332.713a.5.5,0,0,1-.5-.477c-3.231-59.372-28.664-117.07-30.744-121.7H329.6c-2.08,4.627-27.514,62.331-30.744,121.7a.5.5,0,0,1-1.008-.055c3.362-61.787,30.692-121.759,30.968-122.357a.505.505,0,0,1,.459-.294h22.18a.505.505,0,0,1,.459.294c.276.6,27.606,60.57,30.968,122.357a.5.5,0,0,1-.476.531Z" transform="translate(-297.848 -209.529)" fill="#393fa6"/>
            </g>
            <g id="Grupo_45867" data-name="Grupo 45867" transform="translate(9.688)">
              <path id="Trazado_71540" data-name="Trazado 71540" d="M380.672,332.713a.5.5,0,0,1-.5-.484c-2.479-59.209-21.945-116.761-23.647-121.69H340.173c-1.7,4.929-21.168,62.481-23.646,121.69a.505.505,0,0,1-1.009-.042c2.586-61.768,23.609-121.723,23.821-122.321a.5.5,0,0,1,.476-.337h17.066a.5.5,0,0,1,.476.337c.212.6,21.235,60.553,23.821,122.321a.5.5,0,0,1-.483.525Z" transform="translate(-315.517 -209.529)" fill="#393fa6"/>
            </g>
            <g id="Grupo_45868" data-name="Grupo 45868" transform="translate(22.372)">
              <path id="Trazado_71541" data-name="Trazado 71541" d="M378.44,332.712a.5.5,0,0,1-.5-.492c-1.5-59-13.245-116.351-14.361-121.681h-9.551c-1.117,5.33-12.861,62.682-14.361,121.681a.505.505,0,0,1-.5.492h-.013a.5.5,0,0,1-.492-.518c1.57-61.738,14.339-121.669,14.467-122.266a.5.5,0,0,1,.493-.4h10.37a.5.5,0,0,1,.493.4c.129.6,12.9,60.528,14.467,122.266a.5.5,0,0,1-.492.518Z" transform="translate(-338.653 -209.529)" fill="#393fa6"/>
            </g>
            <g id="Grupo_45869" data-name="Grupo 45869" transform="translate(42.013)">
              <path id="Trazado_71542" data-name="Trazado 71542" d="M374.982,332.713a.5.5,0,0,1-.5-.5V210.034a.5.5,0,0,1,1.01,0V332.208A.5.5,0,0,1,374.982,332.713Z" transform="translate(-374.477 -209.529)" fill="#393fa6"/>
            </g>
            <g id="Grupo_45870" data-name="Grupo 45870" transform="translate(21.886 22.609)">
              <path id="Trazado_71543" data-name="Trazado 71543" d="M378.525,251.777H338.272a.5.5,0,0,1,0-1.01h40.253a.5.5,0,1,1,0,1.01Z" transform="translate(-337.767 -250.767)" fill="#393fa6"/>
            </g>
            <g id="Grupo_45871" data-name="Grupo 45871" transform="translate(10.298 59.767)">
              <path id="Trazado_71544" data-name="Trazado 71544" d="M380.565,319.552h-63.43a.5.5,0,1,1,0-1.01h63.43a.5.5,0,1,1,0,1.01Z" transform="translate(-316.63 -318.542)" fill="#393fa6"/>
            </g>
            <g id="Grupo_45872" data-name="Grupo 45872" transform="translate(1.826 102.536)">
              <path id="Trazado_71545" data-name="Trazado 71545" d="M382.056,397.56H301.683a.5.5,0,0,1,0-1.01h80.373a.5.5,0,0,1,0,1.01Z" transform="translate(-301.178 -396.55)" fill="#393fa6"/>
            </g>
          </g>
          <path id="Trazado_71546" data-name="Trazado 71546" d="M355.817,183.675a17.175,17.175,0,0,0,6.1,4.57c8.08,3.9,11.6,2.933,11.6,2.933,1.3.167,1.2,1.935,1.2,1.935s6.092,8.765,7.69,12.094-25.434-5.6-26.1-8.123,2.863-7.89,2.863-7.89S355.124,185,355.817,183.675Z" transform="translate(-283.262 -158.333)" fill="#a81164"/>
          <path id="Trazado_71547" data-name="Trazado 71547" d="M368.452,155.832c1.184-.192-6.266,15.854-14.326,18.585,0,0-1.062,1.064.669,3.194,0,0-7.224,11.234-6.475,13.05s29.642-10.786,25.251-35.352Z" transform="translate(-279.887 -145.52)" fill="#ce2178"/>
          <path id="Trazado_71548" data-name="Trazado 71548" d="M323.086,272.1s39.1,55.39,63.545,61.749c0,0,2.65.377,2.894,7.5s8.766,19.637,8.766,19.637H355.412s-36.151-26.74-41.744-56.429C313.668,304.549,318.777,277.76,323.086,272.1Z" transform="translate(-264.258 -198.276)" fill="#a81164"/>
          <path id="Trazado_71549" data-name="Trazado 71549" d="M253.038,245.294s7.052,32.871,34.76,36.768,17.449-10,17.449-10S273.4,283.912,253.038,245.294Z" transform="translate(-236.869 -186.169)" fill="#a81164"/>
          <path id="Trazado_71550" data-name="Trazado 71550" d="M328.653,247.063c-11.314,30.725-42.782,36.788-57.364,29.363s-17.572-21.985-21.173-21.938-7.591,18.377-8.59,27.166-4.394,8.59-4.394,8.59a10.529,10.529,0,0,0-5.792-10.871c-3.4-1.483-1.6-9.5-3-11.895s-4.794,0-4.794,0c-.2-6.986,12.185-35.76,18.377-32.365s6.991,29.563,33.16,26.749,47.673-31.143,47.673-31.143.864-.133,1.6,1.132a7.116,7.116,0,0,1,.8,2.863s2.264,6.925,3,8.056A4.355,4.355,0,0,1,328.653,247.063Z" transform="translate(-223.547 -179.583)" fill="#ce2178"/>
        </g>
        <g id="Grupo_45875" data-name="Grupo 45875" transform="translate(0 21)">
          <path id="Trazado_71551" data-name="Trazado 71551" d="M244.773,242.69a3.552,3.552,0,0,1,1.048-1.821c.75-.525,3.3,0,3.3,0a1.425,1.425,0,0,1-1.348.794c-.949-.071-2.347,1.527-2.347,1.527Z" transform="translate(-201.161 -205.065)" fill="#f272c5"/>
          <path id="Trazado_71552" data-name="Trazado 71552" d="M172.573,409.042l4.195-14.542-4.195-1.531-2.741,15.913Z" transform="translate(-167.307 -273.88)" fill="#d95eb5"/>
          <path id="Trazado_71553" data-name="Trazado 71553" d="M165.227,426.449s.4-6.591,1.836-6.858a6.738,6.738,0,0,1,2.547,0s.574-1.766,1.9-1.391,4.653,4.449,6.7,5.224,4.012.775,3.58,3.025Z" transform="translate(-165.227 -285.254)" fill="#c7beff"/>
          <path id="Trazado_71554" data-name="Trazado 71554" d="M178.235,260.534s-5.166,5.39-4.566,20.289,2.515,22.491,2.156,25.487-4.47,30.606-2.672,32.2a7.358,7.358,0,0,0,4.335,2.024c.658-.027,8.964-24.837,10.263-31.969s1.7-21.864,1.7-21.864l2.4-23.963Z" transform="translate(-168.603 -214.054)" fill="#3e71cc"/>
          <path id="Trazado_71555" data-name="Trazado 71555" d="M239.74,399.091l4.594,12.557-3.6.16-5.793-12.645Z" transform="translate(-196.722 -276.646)" fill="#f272c5"/>
          <path id="Trazado_71556" data-name="Trazado 71556" d="M243.287,426s-.867-7.022.515-7.307a6.424,6.424,0,0,1,2.547,0s.234-1.882,1.633-1.482,5.509,4.74,7.707,5.566,4.161.826,4.161,3.223Z" transform="translate(-200.368 -284.807)" fill="#c7beff"/>
          <path id="Trazado_71557" data-name="Trazado 71557" d="M187.984,262.221s-8.523,15.488,0,27.488c5.768,8.12,6.658,13.693,7.99,19.623s12.38,27.5,14.846,30.433,6.194,1.065,7.526,0-9.809-38.767-11.3-42.554-7.347-21.117-7.347-21.117l2.1-10.923Z" transform="translate(-173.796 -214.816)" fill="#5d8cf4"/>
          <path id="Trazado_71558" data-name="Trazado 71558" d="M236.285,177.113c3.685-2.11,7.48,7.471,6.244,10.418s-7.661,10-9.227,9.342S226.023,182.989,236.285,177.113Z" transform="translate(-194.624 -176.234)" fill="#f272c5"/>
          <path id="Trazado_71559" data-name="Trazado 71559" d="M225.194,193.991s-1.082,2.578-4.916,5.292l6.1,5.6s.415-3.213,1-3.047,1.173,2.008,1.173,2.008S229.489,192.761,225.194,193.991Z" transform="translate(-190.096 -183.951)" fill="#d95eb5"/>
          <path id="Trazado_71560" data-name="Trazado 71560" d="M229.313,181.353a7.514,7.514,0,0,0-.252,4.444c.621,2.422,5.669,2.378,5.669,2.378s1.273-3.149,3.055-3.267-1.044,5.071-1.044,5.071l4.389-3.75.737.824s4.207,1.331,1.291-6.174S232.356,174.616,229.313,181.353Z" transform="translate(-193.963 -175.757)" fill="#393fa6"/>
          <path id="Trazado_71561" data-name="Trazado 71561" d="M195.946,199.206s5.969,2.578,8.345,6.326,4.919,5.059,3.4,10.649-11.077,11.8-12.4,28.068c0,0-21.253,17.161-23.433,10.853C167.764,243.244,176.075,209.693,195.946,199.206Z" transform="translate(-167.764 -186.35)" fill="#c7beff"/>
          <path id="Trazado_71562" data-name="Trazado 71562" d="M251.6,249.574l3.708-4.221s.849-3.056,1.018-3.912,1.567,0,1.567,0a1.9,1.9,0,0,1,1.2.442c.7.5,1.476,3.46,1.1,4.874s-3.1,1.418-3.1,1.418L253.2,253.27Z" transform="translate(-204.247 -205.257)" fill="#f272c5"/>
          <path id="Trazado_71563" data-name="Trazado 71563" d="M233.45,220.1c2.651,4.222,6.147,20.4,6.147,20.4l5.006-4.62a26.447,26.447,0,0,1,.636,6.818s-4.77,7.291-7.639,7.89-9.7-16.007-9.7-16.007.026-5.674,1.319-8.666A21.6,21.6,0,0,1,233.45,220.1Z" transform="translate(-193.538 -195.791)" fill="#b2afff"/>
        </g>
      </g>
    </g>
  </g>
</svg>
