<svg xmlns="http://www.w3.org/2000/svg" width="138" height="125" viewBox="0 0 138 125">
  <g id="Grupo_46036" data-name="Grupo 46036" transform="translate(4653 -2387)">
    <rect id="Rectángulo_12707" data-name="Rectángulo 12707" width="138" height="125" transform="translate(-4653 2387)" fill="none"/>
    <g id="patron-de-tela_1_" data-name="patron-de-tela (1)" transform="translate(-4652.995 2380.005)">
      <g id="Grupo_45738" data-name="Grupo 45738" transform="translate(17.775 17.775)">
        <path id="Trazado_70918" data-name="Trazado 70918" d="M56.02,24,34.673,31.115S43.568,59.577,24,72.03c2.058,10.578,5.337,20.751,5.337,30.241,0,8.894-.886,17.452-3.558,24.9h48.03V41.789S61.356,36.452,56.02,24Z" transform="translate(-24 -24)" fill="#e8edf1"/>
        <path id="Trazado_70919" data-name="Trazado 70919" d="M326.251,46.231l-7.116,51.587h-32.02L280,46.231a78.842,78.842,0,0,0,10.673-8.894,17.2,17.2,0,0,1,24.9,0,78.843,78.843,0,0,0,10.673,8.894Z" transform="translate(-223.076 -30.221)" fill="#e8edf1"/>
        <path id="Trazado_70920" data-name="Trazado 70920" d="M296,384h42.693v21.346H296Z" transform="translate(-235.518 -303.951)" fill="#e8edf1"/>
      </g>
      <path id="Trazado_70921" data-name="Trazado 70921" d="M69.362,120.95V35.564a1.779,1.779,0,0,0-1.078-1.635c-.118-.05-11.856-5.191-16.855-16.855a1.779,1.779,0,0,0-2.2-.987L27.885,23.2a1.779,1.779,0,0,0-1.135,2.218A52.66,52.66,0,0,1,28.67,40.634c-.279,10.88-4.266,18.845-11.852,23.671a1.779,1.779,0,0,0-.791,1.84c.616,3.165,1.343,6.31,2.047,9.351,1.676,7.237,3.258,14.074,3.258,20.549,0,9.873-1.13,17.822-3.453,24.3a1.779,1.779,0,0,0,1.675,2.379h48.03A1.779,1.779,0,0,0,69.362,120.95ZM65.8,96.043H62.246a1.779,1.779,0,1,0,0,3.558H65.8v19.571H48.015v-3.558a1.779,1.779,0,0,0-3.558,0v3.558H22.012c1.934-6.4,2.878-14,2.878-23.125,0-6.881-1.626-13.91-3.348-21.352-.61-2.636-1.238-5.351-1.79-8.069,7.874-5.5,12.182-14.422,12.477-25.9A56.981,56.981,0,0,0,30.6,26.047l18.239-6.08C53.728,29.91,62.7,35.119,65.8,36.687Z" transform="translate(0 0)"/>
      <path id="Trazado_70922" data-name="Trazado 70922" d="M321.016,38.53a77.529,77.529,0,0,1-10.4-8.672C304.756,24,298.846,24,296.9,24s-7.852,0-13.71,5.858a77.846,77.846,0,0,1-10.4,8.672,1.779,1.779,0,0,0-.775,1.723l7.115,51.587a1.779,1.779,0,0,0,1.762,1.536h32.02a1.779,1.779,0,0,0,1.762-1.536l7.115-51.587a1.779,1.779,0,0,0-.775-1.723Zm-9.653,51.289H282.444l-6.753-48.97a82.093,82.093,0,0,0,10.02-8.475,15.418,15.418,0,0,1,22.388,0,82.093,82.093,0,0,0,10.019,8.475Z" transform="translate(-199.08 -6.225)"/>
      <path id="Trazado_70923" data-name="Trazado 70923" d="M145.779,63.115a1.779,1.779,0,0,0,1.779-1.779V57.779a1.779,1.779,0,1,0-3.558,0v3.558A1.779,1.779,0,0,0,145.779,63.115Z" transform="translate(-99.542 -31.11)"/>
      <path id="Trazado_70924" data-name="Trazado 70924" d="M377.779,63.115a1.779,1.779,0,0,0,1.779-1.779V57.779a1.779,1.779,0,0,0-3.558,0v3.558A1.779,1.779,0,0,0,377.779,63.115Z" transform="translate(-279.955 -31.11)"/>
      <path id="Trazado_70925" data-name="Trazado 70925" d="M377.779,128A1.779,1.779,0,0,0,376,129.779v3.558a1.779,1.779,0,1,0,3.558,0v-3.558A1.779,1.779,0,0,0,377.779,128Z" transform="translate(-279.955 -87.1)"/>
      <path id="Trazado_70926" data-name="Trazado 70926" d="M377.779,176A1.779,1.779,0,0,0,376,177.779v3.558a1.779,1.779,0,0,0,3.558,0v-3.558A1.779,1.779,0,0,0,377.779,176Z" transform="translate(-279.955 -124.426)"/>
      <path id="Trazado_70927" data-name="Trazado 70927" d="M377.779,224A1.779,1.779,0,0,0,376,225.779v3.558a1.779,1.779,0,1,0,3.558,0v-3.558A1.779,1.779,0,0,0,377.779,224Z" transform="translate(-279.955 -161.753)"/>
      <path id="Trazado_70928" data-name="Trazado 70928" d="M377.779,272A1.779,1.779,0,0,0,376,273.779v3.558a1.779,1.779,0,1,0,3.558,0v-3.558A1.779,1.779,0,0,0,377.779,272Z" transform="translate(-279.955 -199.08)"/>
      <path id="Trazado_70929" data-name="Trazado 70929" d="M55.115,249.779A1.779,1.779,0,0,0,53.337,248H49.779a1.779,1.779,0,0,0,0,3.558h3.558A1.779,1.779,0,0,0,55.115,249.779Z" transform="translate(-24.889 -180.417)"/>
      <path id="Trazado_70930" data-name="Trazado 70930" d="M357.337,424h-3.558a1.779,1.779,0,1,0,0,3.558h3.558a1.779,1.779,0,1,0,0-3.558Z" transform="translate(-261.292 -317.281)"/>
      <path id="Trazado_70931" data-name="Trazado 70931" d="M401.779,427.558h3.558a1.779,1.779,0,1,0,0-3.558h-3.558a1.779,1.779,0,1,0,0,3.558Z" transform="translate(-298.618 -317.281)"/>
      <path id="Trazado_70932" data-name="Trazado 70932" d="M334.251,377.779A1.779,1.779,0,0,0,332.472,376H289.779A1.779,1.779,0,0,0,288,377.779v21.346a1.779,1.779,0,0,0,1.779,1.779h42.693a1.779,1.779,0,0,0,1.779-1.779Zm-3.558,8.894h-5.337a1.779,1.779,0,1,0,0,3.558h5.337v7.116H312.9v-3.558a1.779,1.779,0,1,0-3.558,0v3.558H291.558v-7.116h5.337a1.779,1.779,0,0,0,0-3.558h-5.337v-7.115h17.789v1.779a1.779,1.779,0,1,0,3.558,0v-1.779h17.789Z" transform="translate(-211.523 -279.954)"/>
      <path id="Trazado_70933" data-name="Trazado 70933" d="M307.558,96h-1.779a1.779,1.779,0,1,0,0,3.558h1.779a1.779,1.779,0,1,0,0-3.558Z" transform="translate(-223.965 -62.215)"/>
      <path id="Trazado_70934" data-name="Trazado 70934" d="M349.337,96h-3.558a1.779,1.779,0,1,0,0,3.558h3.558a1.779,1.779,0,1,0,0-3.558Z" transform="translate(-255.07 -62.215)"/>
      <path id="Trazado_70935" data-name="Trazado 70935" d="M397.337,96h-3.558a1.779,1.779,0,1,0,0,3.558h3.558a1.779,1.779,0,1,0,0-3.558Z" transform="translate(-292.397 -62.215)"/>
      <path id="Trazado_70936" data-name="Trazado 70936" d="M441.779,99.558h1.779a1.779,1.779,0,1,0,0-3.558h-1.779a1.779,1.779,0,1,0,0,3.558Z" transform="translate(-329.724 -62.215)"/>
      <path id="Trazado_70937" data-name="Trazado 70937" d="M77.337,376.007H73.779a1.779,1.779,0,0,0,0,3.558h3.558a1.779,1.779,0,0,0,0-3.558Z" transform="translate(-43.552 -279.96)"/>
      <path id="Trazado_70938" data-name="Trazado 70938" d="M127.116,377.779A1.779,1.779,0,0,0,125.337,376h-3.558a1.779,1.779,0,0,0,0,3.558h3.558A1.779,1.779,0,0,0,127.116,377.779Z" transform="translate(-80.879 -279.954)"/>
      <path id="Trazado_70939" data-name="Trazado 70939" d="M173.337,375.993h-3.558a1.779,1.779,0,1,0,0,3.558h3.558a1.779,1.779,0,1,0,0-3.558Z" transform="translate(-118.206 -279.949)"/>
      <path id="Trazado_70940" data-name="Trazado 70940" d="M97.779,251.558h3.558a1.779,1.779,0,1,0,0-3.558H97.779a1.779,1.779,0,0,0,0,3.558Z" transform="translate(-62.216 -180.417)"/>
      <path id="Trazado_70941" data-name="Trazado 70941" d="M145.779,251.558h3.558a1.779,1.779,0,1,0,0-3.558h-3.558a1.779,1.779,0,1,0,0,3.558Z" transform="translate(-99.542 -180.417)"/>
      <path id="Trazado_70942" data-name="Trazado 70942" d="M193.779,251.558h3.558a1.779,1.779,0,0,0,0-3.558h-3.558a1.779,1.779,0,0,0,0,3.558Z" transform="translate(-136.869 -180.417)"/>
      <path id="Trazado_70943" data-name="Trazado 70943" d="M145.779,111.116a1.779,1.779,0,0,0,1.779-1.779v-3.558a1.779,1.779,0,1,0-3.558,0v3.558A1.779,1.779,0,0,0,145.779,111.116Z" transform="translate(-99.542 -68.436)"/>
      <path id="Trazado_70944" data-name="Trazado 70944" d="M145.779,159.116a1.779,1.779,0,0,0,1.779-1.779v-3.558a1.779,1.779,0,1,0-3.558,0v3.558A1.779,1.779,0,0,0,145.779,159.116Z" transform="translate(-99.542 -105.763)"/>
      <path id="Trazado_70945" data-name="Trazado 70945" d="M145.779,207.115a1.779,1.779,0,0,0,1.779-1.779v-3.558a1.779,1.779,0,0,0-3.558,0v3.558A1.779,1.779,0,0,0,145.779,207.115Z" transform="translate(-99.542 -143.09)"/>
      <path id="Trazado_70946" data-name="Trazado 70946" d="M145.779,280A1.779,1.779,0,0,0,144,281.779v3.558a1.779,1.779,0,0,0,3.558,0v-3.558A1.779,1.779,0,0,0,145.779,280Z" transform="translate(-99.542 -205.301)"/>
      <path id="Trazado_70947" data-name="Trazado 70947" d="M145.779,328A1.779,1.779,0,0,0,144,329.779v3.558a1.779,1.779,0,0,0,3.558,0v-3.558A1.779,1.779,0,0,0,145.779,328Z" transform="translate(-99.542 -242.628)"/>
      <path id="Trazado_70948" data-name="Trazado 70948" d="M145.779,408A1.779,1.779,0,0,0,144,409.779v3.558a1.779,1.779,0,0,0,3.558,0v-3.558A1.779,1.779,0,0,0,145.779,408Z" transform="translate(-99.542 -304.839)"/>
    </g>
  </g>
</svg>
