<svg xmlns="http://www.w3.org/2000/svg" width="138" height="125" viewBox="0 0 138 125">
  <g id="Grupo_46043" data-name="Grupo 46043" transform="translate(4715 -2734)">
    <rect id="Rectángulo_12708" data-name="Rectángulo 12708" width="138" height="125" transform="translate(-4715 2734)" fill="none"/>
    <g id="Grupo_46040" data-name="Grupo 46040" transform="translate(-542.944 296.873)">
      <g id="tela_15_" data-name="tela (15)" transform="translate(-4151 2449.5)">
        <path id="Trazado_71707" data-name="Trazado 71707" d="M8.117,51.731H43.2v80.02H8.117Zm0,0" transform="translate(-6.616 -41.534)" fill="#ff485c"/>
        <path id="Trazado_71708" data-name="Trazado 71708" d="M60.637,51.731H75.018v80.02H60.637Zm0,0" transform="translate(-48.783 -41.534)" fill="#ff5e81"/>
        <path id="Trazado_71709" data-name="Trazado 71709" d="M243.92,131.75h-57.8V51.73a57.8,57.8,0,0,1,57.8,57.8Zm0,0" transform="translate(-149.534 -41.534)" fill="#ff485c"/>
        <path id="Trazado_71710" data-name="Trazado 71710" d="M186.121,51.731v.31a57.806,57.806,0,0,1,51.794,57.49v22.22h6.006V109.53a57.8,57.8,0,0,0-57.8-57.8Zm0,0" transform="translate(-149.534 -41.534)" fill="#ee2b5c"/>
        <path id="Trazado_71711" data-name="Trazado 71711" d="M83.873,31.554A1.5,1.5,0,0,0,81.5,33.4,55.737,55.737,0,0,1,93.385,68V88.715h-24.2a1.83,1.83,0,0,0-.169-.085,1.552,1.552,0,0,0-.28-.086,1.535,1.535,0,0,0-.587,0,1.614,1.614,0,0,0-.283.086,1.712,1.712,0,0,0-.168.085H38.588v-77a56.137,56.137,0,0,1,39.64,17.847,1.5,1.5,0,1,0,2.194-2.05A59.147,59.147,0,0,0,37.087,8.695H32.673V1.5a1.5,1.5,0,0,0-1.5-1.5H7.916a1.5,1.5,0,0,0-1.5,1.5V8.695H2A1.5,1.5,0,0,0,.5,10.2v80.02a1.5,1.5,0,0,0,1.5,1.5H6.414v7.7a1.5,1.5,0,0,0,1.5,1.5H31.172a1.5,1.5,0,0,0,1.5-1.5v-7.7H94.886a1.5,1.5,0,0,0,1.5-1.5V68A58.716,58.716,0,0,0,83.873,31.554ZM9.417,3H29.671V8.695H9.417ZM3.5,11.7h7.349v17.09a1.5,1.5,0,0,0,3,0V11.7H25.233v62.82a1.5,1.5,0,0,0,3,0V11.7h7.349V88.715H28.236V80.523a1.5,1.5,0,1,0-3,0v8.191H13.854V34.793a1.5,1.5,0,1,0-3,0V88.715H3.5ZM29.671,97.915H9.417V92.223H29.671Zm0,0" transform="translate(-0.5 0)"/>
        <path id="Trazado_71712" data-name="Trazado 71712" d="M340.161,194.151a1.557,1.557,0,0,0-.228-.186,1.622,1.622,0,0,0-.26-.139,1.481,1.481,0,0,0-.867-.086,1.586,1.586,0,0,0-.282.086,1.607,1.607,0,0,0-.259.139,1.559,1.559,0,0,0-.228.186,1.508,1.508,0,0,0-.44,1.061,1.457,1.457,0,0,0,.03.295,1.549,1.549,0,0,0,.085.28,1.51,1.51,0,0,0,.139.26,1.464,1.464,0,0,0,.186.228,1.565,1.565,0,0,0,.228.186,1.605,1.605,0,0,0,.259.138,1.526,1.526,0,0,0,.282.086,1.433,1.433,0,0,0,.293.028,1.442,1.442,0,0,0,.574-.114,1.62,1.62,0,0,0,.26-.138,1.474,1.474,0,0,0,.414-.414,1.687,1.687,0,0,0,.139-.26,1.549,1.549,0,0,0,.085-.28,1.574,1.574,0,0,0,.029-.295A1.516,1.516,0,0,0,340.161,194.151Zm0,0" transform="translate(-271.154 -155.531)"/>
        <path id="Trazado_71713" data-name="Trazado 71713" d="M339.1,385.238a1.5,1.5,0,1,0,1.5,1.5A1.5,1.5,0,0,0,339.1,385.238Zm0,0" transform="translate(-271.154 -309.306)"/>
        <path id="Trazado_71714" data-name="Trazado 71714" d="M340.6,227.127a1.5,1.5,0,1,1-1.5-1.5A1.5,1.5,0,0,1,340.6,227.127Zm0,0" transform="translate(-271.154 -181.153)"/>
        <path id="Trazado_71715" data-name="Trazado 71715" d="M339.1,417.148a1.5,1.5,0,1,0,1.5,1.5A1.5,1.5,0,0,0,339.1,417.148Zm0,0" transform="translate(-271.154 -334.926)"/>
        <path id="Trazado_71716" data-name="Trazado 71716" d="M340.6,259.052a1.5,1.5,0,1,1-1.5-1.5A1.5,1.5,0,0,1,340.6,259.052Zm0,0" transform="translate(-271.154 -206.786)"/>
        <path id="Trazado_71717" data-name="Trazado 71717" d="M340.6,290.974a1.5,1.5,0,1,1-1.5-1.5A1.5,1.5,0,0,1,340.6,290.974Zm0,0" transform="translate(-271.154 -232.416)"/>
        <path id="Trazado_71718" data-name="Trazado 71718" d="M340.6,354.818a1.5,1.5,0,1,1-1.5-1.5A1.5,1.5,0,0,1,340.6,354.818Zm0,0" transform="translate(-271.154 -283.676)"/>
        <path id="Trazado_71719" data-name="Trazado 71719" d="M340.6,322.9a1.5,1.5,0,1,1-1.5-1.5A1.5,1.5,0,0,1,340.6,322.9Zm0,0" transform="translate(-271.154 -258.046)"/>
      </g>
    </g>
  </g>
</svg>
