<svg xmlns="http://www.w3.org/2000/svg" width="138" height="125" viewBox="0 0 138 125">
  <g id="Grupo_46035" data-name="Grupo 46035" transform="translate(4808 -2387)">
    <rect id="Rectángulo_12706" data-name="Rectángulo 12706" width="138" height="125" transform="translate(-4808 2387)" fill="none"/>
    <g id="dieta" transform="translate(-4812 2358)">
      <path id="Trazado_70908" data-name="Trazado 70908" d="M159.911,111.067v36.311H123.6v-7.644H108.311v7.644H72V111.067C77.733,82.4,87.289,63.289,87.289,63.289L81.556,48h68.8l-5.733,15.289S154.178,82.4,159.911,111.067Z" transform="translate(-42.622 -6.089)" fill="#f5cbaa"/>
      <path id="Trazado_70909" data-name="Trazado 70909" d="M159.911,262.718c-15.289,5.733-36.311,28.667-36.311,28.667H108.311S87.289,268.451,72,262.718c1.106-5.535,2.355-10.714,3.653-15.468a103.664,103.664,0,0,0,40.3,7.824,103.664,103.664,0,0,0,40.3-7.824C157.556,252,158.805,257.183,159.911,262.718Z" transform="translate(-42.622 -157.74)" fill="#fc9495"/>
      <path id="Trazado_70910" data-name="Trazado 70910" d="M331.467,220.445H320V144h5.733l5.733,7.644Z" transform="translate(-231.378 -79.156)" fill="#fde575"/>
      <path id="Trazado_70911" data-name="Trazado 70911" d="M33.556,119.644H24V112h9.556l1.911,3.822Z" transform="translate(-6.089 -54.8)" fill="#e74444"/>
      <path id="Trazado_70912" data-name="Trazado 70912" d="M441.911,111.644h9.556V104h-9.556L440,107.822Z" transform="translate(-322.711 -48.711)" fill="#e74444"/>
      <path id="Trazado_70913" data-name="Trazado 70913" d="M112,96h68.8v11.467H112Z" transform="translate(-73.067 -42.622)" fill="#fde575"/>
      <path id="Trazado_70914" data-name="Trazado 70914" d="M240,96h7.645v11.467H240Z" transform="translate(-170.489 -42.622)" fill="#99a2a7"/>
      <path id="Trazado_70915" data-name="Trazado 70915" d="M31.087,96.7l-3.822-7.644a1.911,1.911,0,1,0-3.419,1.71l.528,1.056H17.911A1.911,1.911,0,0,0,16,93.732v7.644a1.911,1.911,0,0,0,1.911,1.911h6.463l-.528,1.056a1.911,1.911,0,1,0,3.419,1.71l3.822-7.644A1.911,1.911,0,0,0,31.087,96.7ZM19.822,99.465V95.643h6.463l.956,1.911-.956,1.911Z" transform="translate(0 -36.532)"/>
      <path id="Trazado_70916" data-name="Trazado 70916" d="M144.692,66.706a1.911,1.911,0,0,0,1.486-1.862V53.378a1.911,1.911,0,0,0-1.911-1.911h-1.542l3.332-8.885A1.911,1.911,0,0,0,144.267,40h-68.8a1.911,1.911,0,0,0-1.79,2.582l3.332,8.885H75.467a1.911,1.911,0,0,0-1.911,1.911V64.845a1.911,1.911,0,0,0,1.486,1.862,229.344,229.344,0,0,0-11,37.9,1.915,1.915,0,0,0-.037.375v36.311a1.911,1.911,0,0,0,1.911,1.911h36.311a1.911,1.911,0,0,0,1.911-1.911v-5.733H115.6v5.733a1.911,1.911,0,0,0,1.911,1.911h36.311a1.911,1.911,0,0,0,1.911-1.911V104.978a1.914,1.914,0,0,0-.037-.375,229.342,229.342,0,0,0-11-37.9Zm-28.013,65.027H103.056c-3.437-3.671-20.89-21.843-34.955-27.929.853-4.114,1.78-8.02,2.744-11.7a106.592,106.592,0,0,0,39.021,7.137,113.039,113.039,0,0,0,13.379-.794V125.1C120.057,128.18,117.711,130.636,116.679,131.734ZM83.111,57.2a1.911,1.911,0,0,0,1.911-1.911h3.822V57.2a1.911,1.911,0,1,0,3.822,0V55.289h3.822a1.911,1.911,0,0,0,3.822,0h3.822v7.644H77.378V55.289H81.2A1.911,1.911,0,0,0,83.111,57.2Zm38.222,1.911a1.911,1.911,0,0,0,1.911-1.911V55.289h3.822a1.911,1.911,0,1,0,3.822,0h3.822V57.2a1.911,1.911,0,1,0,3.822,0V55.289h3.822v7.644H115.6V55.289h3.822V57.2A1.911,1.911,0,0,0,121.334,59.111Zm16.818,12.231-3.44-4.587H140.6a217.048,217.048,0,0,1,7.279,21.637,90.084,90.084,0,0,1-9.348,3.16V72.489a1.913,1.913,0,0,0-.382-1.147Zm-26.373-8.409h-3.822V55.289h3.822Zm11.467,3.822V94.6a109.154,109.154,0,0,1-13.378.822,102.4,102.4,0,0,1-38.015-7.029,217.02,217.02,0,0,1,7.279-21.637Zm3.822,68.8a1.911,1.911,0,0,0,0-3.822v-3.822h1.911a1.911,1.911,0,1,0,0-3.822h-1.911v-3.822a1.911,1.911,0,0,0,0-3.822v-3.822h1.911a1.911,1.911,0,1,0,0-3.822h-1.911v-3.822a1.911,1.911,0,0,0,0-3.822V97.334h1.911a1.911,1.911,0,1,0,0-3.822h-1.911V89.689a1.911,1.911,0,0,0,0-3.822V82.045h1.911a1.911,1.911,0,1,0,0-3.822h-1.911V74.4a1.911,1.911,0,0,0,0-3.822V66.756h2.867l4.778,6.37v66.252h-7.644Zm11.467-40.04a95.4,95.4,0,0,0,10.354-3.41c.964,3.678,1.892,7.585,2.745,11.7a66.4,66.4,0,0,0-13.1,8.03ZM78.224,43.822h63.285l-2.867,7.644H81.091Zm-10.4,95.556v-31.5c13.08,6.265,29.441,23.281,32.489,26.521v4.98Zm51.6-4.981c.679-.722,2.016-2.126,3.822-3.937v8.918h-3.822Zm19.111,4.981V116.671a73.607,73.607,0,0,1,13.378-8.794v31.5Z" transform="translate(-36.533)"/>
      <circle id="Elipse_730" data-name="Elipse 730" cx="2.048" cy="2.048" r="2.048" transform="translate(71.286 70.714)"/>
      <path id="Trazado_70917" data-name="Trazado 70917" d="M445.378,83.821h-6.463l.528-1.056a1.911,1.911,0,1,0-3.419-1.71L432.2,88.7a1.911,1.911,0,0,0,0,1.709l3.822,7.644a1.911,1.911,0,1,0,3.419-1.71l-.528-1.056h6.463a1.911,1.911,0,0,0,1.911-1.911V85.732A1.911,1.911,0,0,0,445.378,83.821Zm-1.911,7.644H437l-.956-1.911L437,87.643h6.463Z" transform="translate(-316.622 -30.443)"/>
    </g>
  </g>
</svg>
