<svg xmlns="http://www.w3.org/2000/svg" width="138" height="125" viewBox="0 0 138 125">
  <g id="Grupo_46038" data-name="Grupo 46038" transform="translate(4653 -2530)">
    <rect id="Rectángulo_12710" data-name="Rectángulo 12710" width="138" height="125" transform="translate(-4653 2530)" fill="none"/>
    <g id="patron-de-tela_1_" data-name="patron-de-tela (1)" transform="translate(-4654.995 2522.005)">
      <g id="Grupo_45738" data-name="Grupo 45738" transform="translate(17.82 17.82)">
        <path id="Trazado_70918" data-name="Trazado 70918" d="M56.829,24,34.943,31.3S44.062,60.477,24,73.244c2.11,10.845,5.472,21.275,5.472,31.005,0,9.119-.908,17.893-3.648,25.534H75.068V42.239S62.3,36.767,56.829,24Z" transform="translate(-24 -24)" fill="#f5edc3"/>
        <path id="Trazado_70919" data-name="Trazado 70919" d="M327.42,46.591l-7.3,52.892H287.3L280,46.591a80.834,80.834,0,0,0,10.943-9.119C296.415,32,301.886,32,303.71,32s7.3,0,12.767,5.472a80.836,80.836,0,0,0,10.943,9.119Z" transform="translate(-221.637 -30.176)" fill="#f5c3d7"/>
        <path id="Trazado_70920" data-name="Trazado 70920" d="M296,384h43.772v21.886H296Z" transform="translate(-233.989 -301.927)" fill="#c3f3f5"/>
      </g>
      <path id="Trazado_70921" data-name="Trazado 70921" d="M70.711,123.6V36.058a1.824,1.824,0,0,0-1.106-1.677C69.485,34.33,57.45,29.06,52.325,17.1a1.824,1.824,0,0,0-2.253-1.012l-21.886,7.3a1.824,1.824,0,0,0-1.164,2.275,53.991,53.991,0,0,1,1.969,15.6c-.286,11.156-4.374,19.321-12.151,24.27a1.824,1.824,0,0,0-.811,1.887c.632,3.245,1.377,6.469,2.1,9.587,1.718,7.42,3.34,14.43,3.34,21.069,0,10.122-1.158,18.273-3.541,24.918a1.824,1.824,0,0,0,1.717,2.439H68.887A1.824,1.824,0,0,0,70.711,123.6ZM67.064,98.066H63.416a1.824,1.824,0,1,0,0,3.648h3.648V121.78H48.825v-3.648a1.824,1.824,0,1,0-3.648,0v3.648H22.165c1.983-6.56,2.95-14.35,2.95-23.71,0-7.055-1.667-14.262-3.433-21.892-.625-2.7-1.269-5.487-1.836-8.273,8.073-5.635,12.49-14.787,12.792-26.556A58.422,58.422,0,0,0,30.974,26.3l18.7-6.233C54.682,30.261,63.876,35.6,67.064,37.21Z" transform="translate(0 0)"/>
      <path id="Trazado_70922" data-name="Trazado 70922" d="M322.256,38.9a79.489,79.489,0,0,1-10.665-8.891C305.585,24,299.525,24,297.534,24s-8.051,0-14.057,6.006A79.817,79.817,0,0,1,272.812,38.9a1.824,1.824,0,0,0-.795,1.767l7.3,52.892a1.824,1.824,0,0,0,1.807,1.575h32.829a1.824,1.824,0,0,0,1.807-1.575l7.3-52.892a1.824,1.824,0,0,0-.795-1.767Zm-9.9,52.585h-29.65l-6.924-50.209a84.166,84.166,0,0,0,10.273-8.689,15.807,15.807,0,0,1,22.954,0,84.167,84.167,0,0,0,10.272,8.689Z" transform="translate(-197.641 -6.18)"/>
      <path id="Trazado_70923" data-name="Trazado 70923" d="M145.824,63.3a1.824,1.824,0,0,0,1.824-1.824V57.824a1.824,1.824,0,0,0-3.648,0v3.648A1.824,1.824,0,0,0,145.824,63.3Z" transform="translate(-98.823 -30.885)"/>
      <path id="Trazado_70924" data-name="Trazado 70924" d="M377.824,63.3a1.824,1.824,0,0,0,1.824-1.824V57.824a1.824,1.824,0,1,0-3.648,0v3.648A1.824,1.824,0,0,0,377.824,63.3Z" transform="translate(-277.931 -30.885)"/>
      <path id="Trazado_70925" data-name="Trazado 70925" d="M377.824,128A1.824,1.824,0,0,0,376,129.824v3.648a1.824,1.824,0,1,0,3.648,0v-3.648A1.824,1.824,0,0,0,377.824,128Z" transform="translate(-277.931 -86.47)"/>
      <path id="Trazado_70926" data-name="Trazado 70926" d="M377.824,176A1.824,1.824,0,0,0,376,177.824v3.648a1.824,1.824,0,0,0,3.648,0v-3.648A1.824,1.824,0,0,0,377.824,176Z" transform="translate(-277.931 -123.527)"/>
      <path id="Trazado_70927" data-name="Trazado 70927" d="M377.824,224A1.824,1.824,0,0,0,376,225.824v3.648a1.824,1.824,0,1,0,3.648,0v-3.648A1.824,1.824,0,0,0,377.824,224Z" transform="translate(-277.931 -160.584)"/>
      <path id="Trazado_70928" data-name="Trazado 70928" d="M377.824,272A1.824,1.824,0,0,0,376,273.824v3.648a1.824,1.824,0,1,0,3.648,0v-3.648A1.824,1.824,0,0,0,377.824,272Z" transform="translate(-277.931 -197.641)"/>
      <path id="Trazado_70929" data-name="Trazado 70929" d="M55.3,249.824A1.824,1.824,0,0,0,53.472,248H49.824a1.824,1.824,0,0,0,0,3.648h3.648A1.824,1.824,0,0,0,55.3,249.824Z" transform="translate(-24.709 -179.112)"/>
      <path id="Trazado_70930" data-name="Trazado 70930" d="M357.472,424h-3.648a1.824,1.824,0,0,0,0,3.648h3.648a1.824,1.824,0,1,0,0-3.648Z" transform="translate(-259.403 -314.987)"/>
      <path id="Trazado_70931" data-name="Trazado 70931" d="M401.824,427.648h3.648a1.824,1.824,0,0,0,0-3.648h-3.648a1.824,1.824,0,1,0,0,3.648Z" transform="translate(-296.459 -314.987)"/>
      <path id="Trazado_70932" data-name="Trazado 70932" d="M335.42,377.824A1.824,1.824,0,0,0,333.6,376H289.824A1.824,1.824,0,0,0,288,377.824V399.71a1.824,1.824,0,0,0,1.824,1.824H333.6a1.824,1.824,0,0,0,1.824-1.824Zm-3.648,9.119H326.3a1.824,1.824,0,0,0,0,3.648h5.472v7.3H313.534v-3.648a1.824,1.824,0,1,0-3.648,0v3.648H291.648v-7.3h5.472a1.824,1.824,0,0,0,0-3.648h-5.472v-7.3h18.239v1.824a1.824,1.824,0,1,0,3.648,0v-1.824h18.238Z" transform="translate(-209.993 -277.931)"/>
      <path id="Trazado_70933" data-name="Trazado 70933" d="M307.648,96h-1.824a1.824,1.824,0,0,0,0,3.648h1.824a1.824,1.824,0,0,0,0-3.648Z" transform="translate(-222.346 -61.765)"/>
      <path id="Trazado_70934" data-name="Trazado 70934" d="M349.472,96h-3.648a1.824,1.824,0,0,0,0,3.648h3.648a1.824,1.824,0,0,0,0-3.648Z" transform="translate(-253.226 -61.765)"/>
      <path id="Trazado_70935" data-name="Trazado 70935" d="M397.472,96h-3.648a1.824,1.824,0,1,0,0,3.648h3.648a1.824,1.824,0,0,0,0-3.648Z" transform="translate(-290.283 -61.765)"/>
      <path id="Trazado_70936" data-name="Trazado 70936" d="M441.824,99.648h1.824a1.824,1.824,0,0,0,0-3.648h-1.824a1.824,1.824,0,0,0,0,3.648Z" transform="translate(-327.34 -61.765)"/>
      <path id="Trazado_70937" data-name="Trazado 70937" d="M77.472,376.007H73.824a1.824,1.824,0,0,0,0,3.648h3.648a1.824,1.824,0,0,0,0-3.648Z" transform="translate(-43.237 -277.936)"/>
      <path id="Trazado_70938" data-name="Trazado 70938" d="M127.3,377.824A1.824,1.824,0,0,0,125.472,376h-3.648a1.824,1.824,0,1,0,0,3.648h3.648A1.824,1.824,0,0,0,127.3,377.824Z" transform="translate(-80.294 -277.931)"/>
      <path id="Trazado_70939" data-name="Trazado 70939" d="M173.472,375.993h-3.648a1.824,1.824,0,1,0,0,3.648h3.648a1.824,1.824,0,1,0,0-3.648Z" transform="translate(-117.351 -277.925)"/>
      <path id="Trazado_70940" data-name="Trazado 70940" d="M97.824,251.648h3.648a1.824,1.824,0,0,0,0-3.648H97.824a1.824,1.824,0,0,0,0,3.648Z" transform="translate(-61.766 -179.112)"/>
      <path id="Trazado_70941" data-name="Trazado 70941" d="M145.824,251.648h3.648a1.824,1.824,0,0,0,0-3.648h-3.648a1.824,1.824,0,0,0,0,3.648Z" transform="translate(-98.823 -179.112)"/>
      <path id="Trazado_70942" data-name="Trazado 70942" d="M193.824,251.648h3.648a1.824,1.824,0,1,0,0-3.648h-3.648a1.824,1.824,0,0,0,0,3.648Z" transform="translate(-135.88 -179.112)"/>
      <path id="Trazado_70943" data-name="Trazado 70943" d="M145.824,111.3a1.824,1.824,0,0,0,1.824-1.824v-3.648a1.824,1.824,0,0,0-3.648,0v3.648A1.824,1.824,0,0,0,145.824,111.3Z" transform="translate(-98.823 -67.942)"/>
      <path id="Trazado_70944" data-name="Trazado 70944" d="M145.824,159.3a1.824,1.824,0,0,0,1.824-1.824v-3.648a1.824,1.824,0,0,0-3.648,0v3.648A1.824,1.824,0,0,0,145.824,159.3Z" transform="translate(-98.823 -104.998)"/>
      <path id="Trazado_70945" data-name="Trazado 70945" d="M145.824,207.3a1.824,1.824,0,0,0,1.824-1.824v-3.648a1.824,1.824,0,0,0-3.648,0v3.648A1.824,1.824,0,0,0,145.824,207.3Z" transform="translate(-98.823 -142.055)"/>
      <path id="Trazado_70946" data-name="Trazado 70946" d="M145.824,280A1.824,1.824,0,0,0,144,281.824v3.648a1.824,1.824,0,0,0,3.648,0v-3.648A1.824,1.824,0,0,0,145.824,280Z" transform="translate(-98.823 -203.817)"/>
      <path id="Trazado_70947" data-name="Trazado 70947" d="M145.824,328A1.824,1.824,0,0,0,144,329.824v3.648a1.824,1.824,0,0,0,3.648,0v-3.648A1.824,1.824,0,0,0,145.824,328Z" transform="translate(-98.823 -240.874)"/>
      <path id="Trazado_70948" data-name="Trazado 70948" d="M145.824,408A1.824,1.824,0,0,0,144,409.824v3.648a1.824,1.824,0,0,0,3.648,0v-3.648A1.824,1.824,0,0,0,145.824,408Z" transform="translate(-98.823 -302.635)"/>
    </g>
  </g>
</svg>
