<svg xmlns="http://www.w3.org/2000/svg" width="115" height="140" viewBox="0 0 115 140">
  <g id="Grupo_46033" data-name="Grupo 46033" transform="translate(4621 -2109)">
    <rect id="Rectángulo_12703" data-name="Rectángulo 12703" width="115" height="140" transform="translate(-4621 2109)" fill="none"/>
    <g id="Grupo_46029" data-name="Grupo 46029" transform="translate(-5304.388 571)">
      <g id="XMLID_1252_" transform="translate(708 1547)">
        <g id="XMLID_1253_" transform="translate(0 0)">
          <path id="XMLID_1254_" d="M171.673,121.024H112.961a2.339,2.339,0,0,1-2.34-2.338v-90.4a2.339,2.339,0,0,1,2.34-2.34A25.825,25.825,0,0,0,136.433,10.9l4.381-9.538a2.338,2.338,0,0,1,3.1-1.149l18.127,8.328a2.339,2.339,0,0,1,1.076,3.246c-11.693,21.487,2.065,33.541,5.8,36.285a2.343,2.343,0,0,1,.95,1.741l4.142,68.73A2.338,2.338,0,0,1,171.673,121.024Z" transform="translate(-109.175 0)" fill="#be7560"/>
          <path id="XMLID_1255_" d="M127.106,131.513V49.764a2.922,2.922,0,0,1,2.518-2.894h0a29.83,29.83,0,0,0,22.936-17.034l2.512-5.468a2.922,2.922,0,0,1,3.875-1.435l9.9,4.546a2.922,2.922,0,0,1,1.464,3.81h0c-4.679,10.875-3.18,19.293-1.1,24.44a30.164,30.164,0,0,0,8.45,11.577h0a2.921,2.921,0,0,1,1.027,2.053l3.735,61.979a2.922,2.922,0,0,1-2.917,3.1H130.028A2.922,2.922,0,0,1,127.106,131.513Z" transform="translate(-121.764 -17.307)" fill="#a86552"/>
          <path id="XMLID_1256_" d="M183.463,367.914H158.148l1.106-3.9,11.552-40.7,11.552,40.7Z" transform="translate(-145.468 -246.89)" fill="#915040"/>
          <path id="XMLID_1257_" d="M185.929,364.018h-23.1l11.552-40.7Z" transform="translate(-149.04 -246.89)" fill="#7c3c2f"/>
          <path id="XMLID_1258_" d="M187.4,142.491H140.932a1.461,1.461,0,0,1-1.461-1.461V61.989a1.464,1.464,0,0,1,1.214-1.439,32.749,32.749,0,0,0,23.972-18.516l1.9-4.142a1.461,1.461,0,0,1,1.938-.718l7.293,3.35a1.463,1.463,0,0,1,.745,1.872c-4.376,11.057-2.875,19.761-.591,25.4a33.046,33.046,0,0,0,8.813,12.318,1.456,1.456,0,0,1,.492,1.007l3.605,59.815A1.461,1.461,0,0,1,187.4,142.491Z" transform="translate(-131.206 -28.285)" fill="#ea998c"/>
          <path id="XMLID_1259_" d="M187.781,361.1H166.338l10.722-37.783Z" transform="translate(-151.722 -246.89)" fill="#a86552"/>
          <path id="XMLID_1260_" d="M207.618,296.459v49.554h-3.653V296.459a1.826,1.826,0,0,1,3.653,0Z" transform="translate(-180.455 -224.989)" fill="#7c3c2f"/>
          <g id="XMLID_1261_" transform="translate(0 13.576)">
            <path id="XMLID_1262_" d="M106.357,81.174h-.034a1.826,1.826,0,0,1,.008-3.653h.034a1.826,1.826,0,0,1-.008,3.653Z" transform="translate(-104.505 -72.773)" fill="#a86552"/>
            <path id="XMLID_1263_" d="M110.4,61.087h-4.066a1.826,1.826,0,0,1,0-3.652H110.4a1.826,1.826,0,0,1,0,3.652Z" transform="translate(-104.505 -57.435)" fill="#a86552"/>
          </g>
          <g id="XMLID_1264_" transform="translate(63.9 38.216)">
            <path id="XMLID_1265_" d="M376.691,185.416h-.025a1.826,1.826,0,1,1,0-3.652h.025a1.826,1.826,0,1,1,0,3.652Z" transform="translate(-374.839 -177.015)" fill="#a86552"/>
            <path id="XMLID_1266_" d="M380.733,165.327h-4.066a1.826,1.826,0,0,1,0-3.652h4.066a1.826,1.826,0,0,1,0,3.652Z" transform="translate(-374.84 -161.675)" fill="#a86552"/>
          </g>
          <g id="XMLID_1267_" transform="translate(58.265 1.34)">
            <path id="XMLID_1268_" d="M352.852,29.407h-.034a1.826,1.826,0,0,1,.008-3.653h.034a1.826,1.826,0,0,1-.008,3.653Z" transform="translate(-351 -21.006)" fill="#a86552"/>
            <path id="XMLID_1269_" d="M356.894,9.32h-4.066a1.826,1.826,0,0,1,0-3.652h4.066a1.826,1.826,0,1,1,0,3.652Z" transform="translate(-351.001 -5.668)" fill="#a86552"/>
          </g>
          <g id="XMLID_1270_" transform="translate(29.613 69.848)">
            <path id="XMLID_1271_" d="M231.637,319.239h-.025a1.826,1.826,0,1,1,0-3.652h.025a1.826,1.826,0,0,1,0,3.652Z" transform="translate(-229.785 -310.838)" fill="#a86552"/>
            <path id="XMLID_1272_" d="M235.678,299.15h-4.066a1.826,1.826,0,0,1,0-3.652h4.066a1.826,1.826,0,1,1,0,3.652Z" transform="translate(-229.785 -295.498)" fill="#a86552"/>
          </g>
        </g>
        <path id="XMLID_1273_" d="M205.8,168.824A1.826,1.826,0,0,1,203.971,167v-2.922a1.826,1.826,0,1,1,3.652,0V167A1.826,1.826,0,0,1,205.8,168.824Zm0-8.766a1.826,1.826,0,0,1-1.826-1.826V155.31a1.826,1.826,0,1,1,3.652,0v2.922A1.826,1.826,0,0,1,205.8,160.058Zm0-8.766a1.826,1.826,0,0,1-1.826-1.826v-2.922a1.826,1.826,0,0,1,3.652,0v2.922A1.826,1.826,0,0,1,205.8,151.292Zm0-8.766a1.826,1.826,0,0,1-1.826-1.826v-2.922a1.826,1.826,0,0,1,3.652,0V140.7A1.826,1.826,0,0,1,205.8,142.526Z" transform="translate(-180.46 -103.815)" fill="#7c3c2f"/>
      </g>
    </g>
  </g>
</svg>
