<svg xmlns="http://www.w3.org/2000/svg" width="115" height="140" viewBox="0 0 115 140">
  <g id="Grupo_46034" data-name="Grupo 46034" transform="translate(4751 -2109)">
    <rect id="Rectángulo_12702" data-name="Rectángulo 12702" width="115" height="140" transform="translate(-4751 2109)" fill="none"/>
    <g id="_x30_6_Mannequin" transform="translate(-4795.443 2118)">
      <path id="Trazado_70870" data-name="Trazado 70870" d="M147.89,329.154l4.262,4.319,4.261-4.319V294.5l-4.129-2.814L147.89,294.5Z" transform="translate(-71.358 -222.741)" fill="#736572"/>
      <path id="Trazado_70871" data-name="Trazado 70871" d="M132.438,457.494l7.914,3.653,1.1-3.653v-4.87a2.435,2.435,0,0,0-2.435-2.435h-4.14a2.435,2.435,0,0,0-2.435,2.435Z" transform="translate(-59.559 -343.776)" fill="#fcf1f2"/>
      <path id="Trazado_70872" data-name="Trazado 70872" d="M167.935,452.624v4.87l-3.985,3.653-3.32-3.653v-4.87a2.436,2.436,0,0,0-2.435-2.435H165.5A2.436,2.436,0,0,1,167.935,452.624Z" transform="translate(-79.226 -343.776)" fill="#f4e5e0"/>
      <path id="Trazado_70873" data-name="Trazado 70873" d="M135.388,271.414H146.1a2.435,2.435,0,0,0,2.435-2.435v-4.87l-7.66-2.656-7.924,2.656v4.87A2.435,2.435,0,0,0,135.388,271.414Z" transform="translate(-59.952 -199.652)" fill="#fcf1f2"/>
      <path id="Trazado_70874" data-name="Trazado 70874" d="M167.42,264.109v4.87a2.436,2.436,0,0,1-2.435,2.435H157.68a2.436,2.436,0,0,0,2.435-2.435v-4.87l3.516-2.656Z" transform="translate(-78.834 -199.652)" fill="#f4e5e0"/>
      <path id="Trazado_70875" data-name="Trazado 70875" d="M58.823,53.451a36.528,36.528,0,0,0-1.847-28.124l-2.15-4.321a3.653,3.653,0,0,1,1.712-4.931l12.288-5.8a3.652,3.652,0,0,0,2.094-3.3V2.435A2.435,2.435,0,0,1,73.357,0H81.9a2.435,2.435,0,0,1,2.435,2.435v4.54a3.653,3.653,0,0,0,2.094,3.3l12.288,5.8a3.653,3.653,0,0,1,1.712,4.931l-2.15,4.321A36.527,36.527,0,0,0,97.166,55.4l-31.8,4.482Z" transform="translate(0 0)" fill="#e29a6c"/>
      <path id="Trazado_70876" data-name="Trazado 70876" d="M190.163,25.327a36.522,36.522,0,0,0-1.848,28.123c.225.656-7.08.656-7.305,0a36.522,36.522,0,0,1,1.848-28.123L185.006,21a3.651,3.651,0,0,0-1.712-4.931l-12.287-5.8a3.654,3.654,0,0,1-2.094-3.3V2.435A2.436,2.436,0,0,0,166.477,0h7.305a2.436,2.436,0,0,1,2.435,2.435V6.974a3.653,3.653,0,0,0,2.094,3.3l12.287,5.8A3.651,3.651,0,0,1,192.311,21Z" transform="translate(-85.552)" fill="#ce845c"/>
      <path id="Trazado_70877" data-name="Trazado 70877" d="M100.527,237.132H65.418a3.652,3.652,0,0,1-3.382-5.033l1.641-4.02q.395-.968.733-1.953h37.123q.34.986.733,1.953l1.641,4.02a3.652,3.652,0,0,1-3.38,5.033Z" transform="translate(-5.588 -172.675)" fill="#ce845c"/>
      <path id="Trazado_70878" data-name="Trazado 70878" d="M231.009,237.132H223.7a3.652,3.652,0,0,0,3.38-5.033l-1.641-4.02q-.395-.968-.733-1.953h7.305q.34.986.733,1.953l1.641,4.02a3.652,3.652,0,0,1-3.38,5.033Z" transform="translate(-129.251 -172.675)" fill="#be785a"/>
      <path id="Trazado_70879" data-name="Trazado 70879" d="M92.448,488.4h26.3a1.218,1.218,0,0,0,1.218-1.218v-2.435a3.653,3.653,0,0,0-3.653-3.653H94.883a3.653,3.653,0,0,0-3.653,3.653v2.435A1.218,1.218,0,0,0,92.448,488.4Z" transform="translate(-28.091 -367.375)" fill="#736572"/>
      <path id="Trazado_70880" data-name="Trazado 70880" d="M205.209,484.747v2.435a1.218,1.218,0,0,1-1.218,1.218h-7.305a1.218,1.218,0,0,0,1.218-1.218v-2.435a3.654,3.654,0,0,0-3.653-3.653h7.305A3.654,3.654,0,0,1,205.209,484.747Z" transform="translate(-106.76 -367.375)" fill="#615260"/>
      <g id="Grupo_45734" data-name="Grupo 45734" transform="translate(82.252 28.978)">
        <path id="Trazado_70881" data-name="Trazado 70881" d="M185.46,122.592H173.308a1.218,1.218,0,0,0-1.162,1.582l3.9,12.419a1.217,1.217,0,0,0,1.162.853h13.308Z" transform="translate(-172.089 -122.592)" fill="#ffc263"/>
        <path id="Trazado_70882" data-name="Trazado 70882" d="M383.181,122.592H395.41a1.218,1.218,0,0,1,1.162,1.582l-3.9,12.419a1.217,1.217,0,0,1-1.162.853H377.769Z" transform="translate(-329.151 -122.592)" fill="#ffc263"/>
        <path id="Trazado_70883" data-name="Trazado 70883" d="M273.125,122.592H287.98l3.688,7.954-7.2,10.5H273.3l-3.227-11.558Z" transform="translate(-246.911 -122.592)" fill="#ffc263"/>
      </g>
      <path id="Trazado_70884" data-name="Trazado 70884" d="M233.756,145.032l-5.595-22.441h12.961v2.168a7.427,7.427,0,1,0,14.854-.148v-2.02h5.543l-3.046,22.439a29.222,29.222,0,0,0-.559,11.307l3.965,40.33a1.445,1.445,0,0,1-1.43,1.655H229.835a1.445,1.445,0,0,1-1.43-1.654l5.909-40.331a29.217,29.217,0,0,0-.559-11.3Z" transform="translate(-132.655 -93.614)" fill="#ffe077"/>
      <path id="Trazado_70885" data-name="Trazado 70885" d="M355.949,196.669a1.443,1.443,0,0,1-1.429,1.653h-7.305a1.443,1.443,0,0,0,1.429-1.653l-5.912-40.33a29.245,29.245,0,0,1,.558-11.309l5.6-22.439h7.305l-5.6,22.439a29.245,29.245,0,0,0-.558,11.309Z" transform="translate(-219.907 -93.614)" fill="#ffd05b"/>
    </g>
  </g>
</svg>
