<svg xmlns="http://www.w3.org/2000/svg" width="68" height="68" viewBox="0 0 68 68">
  <g id="Grupo_46003" data-name="Grupo 46003" transform="translate(14156 -7807)">
    <g id="Elipse_762" data-name="Elipse 762" transform="translate(-14156 7807)" fill="#fff" stroke="#361274" stroke-width="4">
      <circle cx="34" cy="34" r="34" stroke="none"/>
      <circle cx="34" cy="34" r="32" fill="none"/>
    </g>
    <path id="Trazado_71680" data-name="Trazado 71680" d="M8.379-5.117H20.254V0H1.621V-2.109a9.818,9.818,0,0,1,.723-3.857A12.8,12.8,0,0,1,4.16-9.033a15.756,15.756,0,0,1,2.393-2.4q1.3-1.045,2.471-1.885,1.23-.879,2.158-1.68a12.3,12.3,0,0,0,1.563-1.592,6.052,6.052,0,0,0,.947-1.6A4.763,4.763,0,0,0,14-19.922a3.474,3.474,0,0,0-1.016-2.715,4.515,4.515,0,0,0-3.105-.918,10.43,10.43,0,0,0-6.914,2.871v-5.43a14.842,14.842,0,0,1,8.242-2.363,12.173,12.173,0,0,1,3.818.557,8.078,8.078,0,0,1,2.861,1.592,6.789,6.789,0,0,1,1.787,2.51,8.47,8.47,0,0,1,.615,3.291,9.279,9.279,0,0,1-.6,3.438,10.563,10.563,0,0,1-1.582,2.734A14.351,14.351,0,0,1,15.84-12.1q-1.289,1.025-2.676,1.982-.937.664-1.807,1.318A17.127,17.127,0,0,0,9.824-7.51,7,7,0,0,0,8.77-6.27,2.141,2.141,0,0,0,8.379-5.117Z" transform="translate(-14134 7855)" fill="#361274"/>
  </g>
</svg>
