<svg xmlns="http://www.w3.org/2000/svg" width="107" height="107" viewBox="0 0 107 107">
  <g id="Grupo_45988" data-name="Grupo 45988" transform="translate(-1313 -3347)">
    <rect id="Rectángulo_12749" data-name="Rectángulo 12749" width="107" height="107" transform="translate(1313 3347)" fill="none"/>
    <g id="aro-de-bordado" transform="translate(1328.058 3362.058)">
      <path id="Trazado_71338" data-name="Trazado 71338" d="M77.216,38.608c0,3.3-3.838,6.055-4.652,9.1-.842,3.151,1.08,7.449-.516,10.208-1.619,2.8-6.318,3.273-8.589,5.544s-2.746,6.97-5.544,8.589c-2.759,1.6-7.057-.326-10.208.516-3.045.814-5.8,4.652-9.1,4.652s-6.055-3.838-9.1-4.652c-3.151-.842-7.449,1.08-10.208-.516-2.8-1.619-3.273-6.318-5.544-8.589s-6.97-2.745-8.589-5.544c-1.6-2.759.326-7.057-.516-10.208C3.838,44.663,0,41.91,0,38.608s3.838-6.055,4.652-9.1c.842-3.151-1.08-7.449.516-10.208,1.619-2.8,6.318-3.273,8.589-5.544S16.5,6.787,19.3,5.168c2.759-1.6,7.057.326,10.208-.516C32.553,3.838,35.306,0,38.608,0s6.055,3.838,9.1,4.652c3.151.842,7.449-1.08,10.208.516,2.8,1.619,3.273,6.318,5.544,8.589S70.43,16.5,72.049,19.3c1.6,2.759-.326,7.057.516,10.208.814,3.045,4.652,5.8,4.652,9.1Z" transform="translate(0 0)" fill="#42a5f5"/>
      <g id="Grupo_45781" data-name="Grupo 45781" transform="translate(52.114 4.51)">
        <path id="Trazado_71339" data-name="Trazado 71339" d="M366,73.1c.814-3.045,4.652-5.8,4.652-9.1s-3.838-6.055-4.652-9.1c-.842-3.151,1.08-7.449-.516-10.208-1.619-2.8-6.318-3.273-8.589-5.544s-2.746-6.97-5.544-8.589c-1.593-.922-3.7-.67-5.8-.455a4.455,4.455,0,0,1,1.141.455c2.8,1.619,3.273,6.318,5.544,8.589s6.97,2.746,8.589,5.544c1.6,2.759-.326,7.057.516,10.208.814,3.045,4.652,5.8,4.652,9.1s-3.838,6.055-4.652,9.1c-.842,3.151,1.08,7.449-.516,10.208-1.619,2.8-6.318,3.273-8.589,5.544s-2.746,6.97-5.544,8.589a4.458,4.458,0,0,1-1.141.455c2.1.215,4.209.467,5.8-.455,2.8-1.619,3.273-6.318,5.544-8.589s6.97-2.746,8.589-5.544C367.083,80.553,365.161,76.255,366,73.1Z" transform="translate(-345.552 -29.906)" fill="#2196f3"/>
      </g>
      <path id="Trazado_71340" data-name="Trazado 71340" d="M204.932,14.8H184.593a.706.706,0,0,1-.706-.706V10.849a.706.706,0,0,1,.706-.706h20.339a.706.706,0,0,1,.706.706V14.1A.706.706,0,0,1,204.932,14.8Z" transform="translate(-156.154 -8.613)" fill="#e2e2e2"/>
      <g id="Grupo_45782" data-name="Grupo 45782" transform="translate(32.041 0)">
        <path id="Trazado_71341" data-name="Trazado 71341" d="M217.116,11.4h-4.661V.625A.625.625,0,0,1,213.08,0h3.41a.625.625,0,0,1,.625.625Z" transform="translate(-212.455 0)" fill="#e6b988"/>
        <path id="Trazado_71342" data-name="Trazado 71342" d="M273.3,11.4H268.64V.625A.625.625,0,0,1,269.265,0h3.41a.625.625,0,0,1,.625.625Z" transform="translate(-260.167 0)" fill="#e6b988"/>
      </g>
      <path id="Trazado_71343" data-name="Trazado 71343" d="M85.411,55.115a30.3,30.3,0,1,0,30.3,30.3A30.3,30.3,0,0,0,85.411,55.115Zm0,55.931a25.635,25.635,0,1,1,25.635-25.635A25.665,25.665,0,0,1,85.411,111.046Z" transform="translate(-46.803 -46.803)" fill="#edc397"/>
      <g id="Grupo_45783" data-name="Grupo 45783" transform="translate(36.278 8.312)">
        <path id="Trazado_71344" data-name="Trazado 71344" d="M242.878,55.115q-1.176,0-2.331.088a30.3,30.3,0,0,1,0,60.416q1.154.088,2.331.088a30.3,30.3,0,0,0,0-60.592Z" transform="translate(-240.547 -55.115)" fill="#e6b988"/>
      </g>
      <path id="Trazado_71345" data-name="Trazado 71345" d="M168.323,147.208l3.044,6.167a2.437,2.437,0,0,0,1.835,1.333l6.806.989a2.437,2.437,0,0,1,1.351,4.157l-4.925,4.8a2.437,2.437,0,0,0-.7,2.157l1.163,6.779a2.437,2.437,0,0,1-3.536,2.569l-6.088-3.2a2.437,2.437,0,0,0-2.268,0l-6.088,3.2a2.437,2.437,0,0,1-3.536-2.569l1.163-6.779a2.437,2.437,0,0,0-.7-2.157l-4.925-4.8a2.437,2.437,0,0,1,1.351-4.157l6.806-.989a2.437,2.437,0,0,0,1.835-1.333l3.044-6.167A2.437,2.437,0,0,1,168.323,147.208Z" transform="translate(-127.529 -123.853)" fill="#ff8724"/>
    </g>
  </g>
</svg>
