<svg xmlns="http://www.w3.org/2000/svg" width="107" height="107" viewBox="0 0 107 107">
  <g id="Grupo_45989" data-name="Grupo 45989" transform="translate(-1313 -3459)">
    <rect id="Rectángulo_12750" data-name="Rectángulo 12750" width="107" height="107" transform="translate(1313 3459)" fill="none"/>
    <g id="bufanda" transform="translate(1302 3450.02)">
      <g id="Grupo_45784" data-name="Grupo 45784" transform="translate(31.717 88.201)">
        <path id="Trazado_71346" data-name="Trazado 71346" d="M129.95,462.82a.927.927,0,0,0-.927.927V466.4a.927.927,0,0,0,1.853,0v-2.653A.927.927,0,0,0,129.95,462.82Z" transform="translate(-116.292 -457.558)" fill="#4b9b7a"/>
        <path id="Trazado_71347" data-name="Trazado 71347" d="M462.3,462.82a.927.927,0,0,0-.927.927V466.4a.927.927,0,0,0,1.853,0v-2.653A.927.927,0,0,0,462.3,462.82Z" transform="translate(-397.31 -457.558)" fill="#4b9b7a"/>
        <path id="Trazado_71348" data-name="Trazado 71348" d="M351.515,462.82a.927.927,0,0,0-.927.927V466.4a.927.927,0,0,0,1.853,0v-2.653A.927.927,0,0,0,351.515,462.82Z" transform="translate(-303.638 -457.558)" fill="#4b9b7a"/>
        <path id="Trazado_71349" data-name="Trazado 71349" d="M240.733,462.82a.927.927,0,0,0-.927.927V466.4a.927.927,0,0,0,1.853,0v-2.653A.927.927,0,0,0,240.733,462.82Z" transform="translate(-209.966 -457.558)" fill="#4b9b7a"/>
        <path id="Trazado_71350" data-name="Trazado 71350" d="M296.127,462.82a.927.927,0,0,0-.927.927V466.4a.927.927,0,0,0,1.853,0v-2.653A.927.927,0,0,0,296.127,462.82Z" transform="translate(-256.805 -457.558)" fill="#4b9b7a"/>
        <path id="Trazado_71351" data-name="Trazado 71351" d="M185.341,462.82a.927.927,0,0,0-.927.927V466.4a.927.927,0,0,0,1.853,0v-2.653A.927.927,0,0,0,185.341,462.82Z" transform="translate(-163.129 -457.558)" fill="#4b9b7a"/>
        <path id="Trazado_71352" data-name="Trazado 71352" d="M406.906,462.82a.927.927,0,0,0-.927.927V466.4a.927.927,0,0,0,1.853,0v-2.653A.927.927,0,0,0,406.906,462.82Z" transform="translate(-350.474 -457.558)" fill="#4b9b7a"/>
        <path id="Trazado_71353" data-name="Trazado 71353" d="M47.52,428.748a.927.927,0,0,0-.927.927v2.879a.927.927,0,1,0,1.853,0v-2.879A.927.927,0,0,0,47.52,428.748Z" transform="translate(-46.593 -428.748)" fill="#4b9b7a"/>
        <path id="Trazado_71354" data-name="Trazado 71354" d="M99.246,428.748a.927.927,0,0,0-.927.927v2.879a.927.927,0,1,0,1.853,0v-2.879A.927.927,0,0,0,99.246,428.748Z" transform="translate(-90.33 -428.748)" fill="#4b9b7a"/>
      </g>
      <path id="Trazado_71355" data-name="Trazado 71355" d="M131.01,26H75.21a7.061,7.061,0,0,1,7.063,7.063V94.39h55.842V33.1a7.1,7.1,0,0,0-7.105-7.1Z" transform="translate(-39.073 -0.001)" fill="#f3ce7d"/>
      <path id="Trazado_71356" data-name="Trazado 71356" d="M84.843,28.068a7.057,7.057,0,0,0-5-2.068H75.21a7.069,7.069,0,0,1,7.072,7.063V94.418h4.633V33.063a7.05,7.05,0,0,0-2.073-4.995Z" transform="translate(-39.073 -0.001)" fill="#bfa166"/>
      <path id="Trazado_71357" data-name="Trazado 71357" d="M41.546,28.067A7.063,7.063,0,0,0,29.49,33.062V89.128H43.614V33.062a7.046,7.046,0,0,0-2.068-4.995Z" transform="translate(-0.414 0)" fill="#d3b271"/>
      <path id="Trazado_71358" data-name="Trazado 71358" d="M29,204H43.209v3.861H29Z" transform="translate(0 -150.51)" fill="#c66378"/>
      <path id="Trazado_71359" data-name="Trazado 71359" d="M29,286v3.861H43.209V286H29Z" transform="translate(0 -219.846)" fill="#c66378"/>
      <path id="Trazado_71360" data-name="Trazado 71360" d="M121,376h55.908v4.016H121Z" transform="translate(-77.791 -295.946)" fill="#eb7288"/>
      <path id="Trazado_71361" data-name="Trazado 71361" d="M121,294h55.908v3.861H121Z" transform="translate(-77.791 -226.61)" fill="#eb7288"/>
      <path id="Trazado_71362" data-name="Trazado 71362" d="M121,208h55.908v4.016H121Z" transform="translate(-77.791 -153.892)" fill="#eb7288"/>
      <path id="Trazado_71363" data-name="Trazado 71363" d="M121,126h55.908v3.861H121Z" transform="translate(-77.791 -84.556)" fill="#eb7288"/>
      <path id="Trazado_71364" data-name="Trazado 71364" d="M34.658,228.51l-4.729,8.831H29.49V228.51Z" transform="translate(-0.414 -171.234)" fill="#5fcda4"/>
      <path id="Trazado_71365" data-name="Trazado 71365" d="M38.922,228.51H37.059l-4.729,8.831H43.649Z" transform="translate(-2.816 -171.234)" fill="#4ca987"/>
      <path id="Trazado_71366" data-name="Trazado 71366" d="M75.01,229l4.727,8.8h2.375V229Z" transform="translate(-38.904 -171.649)" fill="#5fcda4"/>
      <path id="Trazado_71367" data-name="Trazado 71367" d="M401.012,150.89h-1.864l-4.727,8.831h11.319Z" transform="translate(-308.984 -105.602)" fill="#4b9b7a"/>
      <path id="Trazado_71368" data-name="Trazado 71368" d="M312.077,150.89l-4.727,8.831h11.319l-4.729-8.831Z" transform="translate(-235.361 -105.602)" fill="#4b9b7a"/>
      <path id="Trazado_71369" data-name="Trazado 71369" d="M225,150.89l-4.729,8.831h11.319l-4.727-8.831Z" transform="translate(-161.73 -105.602)" fill="#4b9b7a"/>
      <path id="Trazado_71370" data-name="Trazado 71370" d="M137.927,150.89l-4.727,8.831h11.319l-4.729-8.831Z" transform="translate(-88.107 -105.602)" fill="#4b9b7a"/>
      <path id="Trazado_71371" data-name="Trazado 71371" d="M437.1,150.89l4.727,8.831h2.286V150.89Z" transform="translate(-345.072 -105.602)" fill="#5fcda4"/>
      <path id="Trazado_71372" data-name="Trazado 71372" d="M354.749,159.721h2.128l4.727-8.831H350.02Z" transform="translate(-271.441 -105.602)" fill="#5fcda4"/>
      <path id="Trazado_71373" data-name="Trazado 71373" d="M267.678,159.721h2.13l4.728-8.831H262.95Z" transform="translate(-197.818 -105.602)" fill="#5fcda4"/>
      <path id="Trazado_71374" data-name="Trazado 71374" d="M180.6,159.721h2.128l4.729-8.831H175.87Z" transform="translate(-124.187 -105.602)" fill="#5fcda4"/>
      <path id="Trazado_71375" data-name="Trazado 71375" d="M120.94,150.89v8.831h1.893l4.727-8.831Z" transform="translate(-77.741 -105.602)" fill="#5fcda4"/>
      <path id="Trazado_71376" data-name="Trazado 71376" d="M401.012,319.06h-1.864l-4.727,8.833h11.319Z" transform="translate(-308.984 -247.8)" fill="#4ca987"/>
      <path id="Trazado_71377" data-name="Trazado 71377" d="M312.077,319.06l-4.727,8.833h11.319l-4.729-8.833Z" transform="translate(-235.361 -247.8)" fill="#4ca987"/>
      <path id="Trazado_71378" data-name="Trazado 71378" d="M225,319.06l-4.729,8.833h11.319l-4.727-8.833Z" transform="translate(-161.73 -247.8)" fill="#4b9b7a"/>
      <path id="Trazado_71379" data-name="Trazado 71379" d="M137.927,319.06l-4.727,8.833h11.319l-4.729-8.833Z" transform="translate(-88.107 -247.8)" fill="#4b9b7a"/>
      <path id="Trazado_71380" data-name="Trazado 71380" d="M437.1,319.06l4.727,8.833h2.286V319.06Z" transform="translate(-345.072 -247.8)" fill="#5fcda4"/>
      <path id="Trazado_71381" data-name="Trazado 71381" d="M354.749,327.893h2.128l4.727-8.833H350.02Z" transform="translate(-271.441 -247.8)" fill="#5fcda4"/>
      <path id="Trazado_71382" data-name="Trazado 71382" d="M267.678,327.893h2.13l4.728-8.833H262.95Z" transform="translate(-197.818 -247.8)" fill="#5fcda4"/>
      <path id="Trazado_71383" data-name="Trazado 71383" d="M180.6,327.893h2.128l4.729-8.833H175.87Z" transform="translate(-124.187 -247.8)" fill="#5fcda4"/>
      <path id="Trazado_71384" data-name="Trazado 71384" d="M120.94,327.893h1.893l4.727-8.833H120.94Z" transform="translate(-77.741 -247.8)" fill="#5fcda4"/>
      <path id="Trazado_71385" data-name="Trazado 71385" d="M121,376h4.633v4.016H121Z" transform="translate(-77.791 -295.946)" fill="#c4697d"/>
      <path id="Trazado_71386" data-name="Trazado 71386" d="M121,294h4.633v3.861H121Z" transform="translate(-77.791 -226.61)" fill="#c4697d"/>
      <path id="Trazado_71387" data-name="Trazado 71387" d="M121,208h4.633v4.016H121Z" transform="translate(-77.791 -153.892)" fill="#c4697d"/>
      <path id="Trazado_71388" data-name="Trazado 71388" d="M121,126h4.633v3.861H121Z" transform="translate(-77.791 -84.556)" fill="#c4697d"/>
      <path id="Trazado_71389" data-name="Trazado 71389" d="M121,151v8.8h1.884l2.749-5.107V151Z" transform="translate(-77.791 -105.695)" fill="#56a585"/>
      <path id="Trazado_71390" data-name="Trazado 71390" d="M121,319v8.8h1.884l2.749-5.08V319Z" transform="translate(-77.791 -247.749)" fill="#56a585"/>
    </g>
  </g>
</svg>
