<svg xmlns="http://www.w3.org/2000/svg" width="107" height="107" viewBox="0 0 107 107">
  <g id="Grupo_45986" data-name="Grupo 45986" transform="translate(-1313 -3103)">
    <rect id="Rectángulo_12747" data-name="Rectángulo 12747" width="107" height="107" transform="translate(1313 3103)" fill="none"/>
    <g id="caja" transform="translate(1310.902 3114.795)">
      <path id="Trazado_71324" data-name="Trazado 71324" d="M60.226,9.53,24.269,26.888a1.3,1.3,0,0,0-.737,1.175V70.775a1.3,1.3,0,0,0,.737,1.175L60.226,89.308a2.609,2.609,0,0,0,2.268,0L98.451,71.95a1.3,1.3,0,0,0,.737-1.175V28.063a1.3,1.3,0,0,0-.737-1.175L62.494,9.53A2.609,2.609,0,0,0,60.226,9.53Z" transform="translate(-6.032 -7.455)" fill="#ffe17d"/>
      <path id="Trazado_71325" data-name="Trazado 71325" d="M23.749,120.368a1.3,1.3,0,0,0-.217.714v42.712a1.3,1.3,0,0,0,.737,1.175l35.957,17.359a2.608,2.608,0,0,0,1.134.26V138.525Z" transform="translate(-6.032 -100.475)" fill="#ffc350"/>
      <path id="Trazado_71326" data-name="Trazado 71326" d="M293.611,120.368a1.3,1.3,0,0,1,.217.714v42.712a1.3,1.3,0,0,1-.737,1.175l-35.957,17.359a2.608,2.608,0,0,1-1.134.26V138.525Z" transform="translate(-200.672 -100.475)" fill="#ffd164"/>
      <path id="Trazado_71327" data-name="Trazado 71327" d="M163.41,64.233,125.667,46l-9.949,4.822,37.828,18.262Z" transform="translate(-83.217 -38.208)" fill="#ff8087"/>
      <path id="Trazado_71328" data-name="Trazado 71328" d="M348.185,162.9V177.05a.652.652,0,0,0,.936.587l8.191-3.954a1.3,1.3,0,0,0,.737-1.175V158.052Z" transform="translate(-277.856 -132.027)" fill="#e6646e"/>
      <path id="Trazado_71330" data-name="Trazado 71330" d="M55.351,344.064l-5.551-2.68a1.22,1.22,0,1,0-1.061,2.2l5.551,2.68a1.22,1.22,0,0,0,1.061-2.2Z" transform="translate(-26.559 -285.424)"/>
      <path id="Trazado_71331" data-name="Trazado 71331" d="M60.5,310.955l-10.653-5.143a1.22,1.22,0,0,0-1.061,2.2l10.653,5.143a1.22,1.22,0,0,0,1.061-2.2Z" transform="translate(-26.599 -255.641)"/>
    </g>
  </g>
</svg>
