<svg xmlns="http://www.w3.org/2000/svg" width="107" height="107" viewBox="0 0 107 107">
  <g id="Grupo_45990" data-name="Grupo 45990" transform="translate(-1314 -3581)">
    <rect id="Rectángulo_12751" data-name="Rectángulo 12751" width="107" height="107" transform="translate(1314 3581)" fill="none"/>
    <g id="ropa-limpia" transform="translate(1311.617 3593.464)">
      <g id="Grupo_45787" data-name="Grupo 45787" transform="translate(17.147 24.058)">
        <g id="Grupo_45785" data-name="Grupo 45785" transform="translate(54.29)">
          <path id="Trazado_71391" data-name="Trazado 71391" d="M361.722,150.543l15.6,15.147a3.349,3.349,0,0,1-.85,5.406l-20.354,10.053,3.6-29.9A1.187,1.187,0,0,1,361.722,150.543Z" transform="translate(-356.116 -150.206)" fill="#978ecb"/>
        </g>
        <g id="Grupo_45786" data-name="Grupo 45786">
          <path id="Trazado_71392" data-name="Trazado 71392" d="M33.762,150.543l-15.6,15.147a3.35,3.35,0,0,0,.85,5.406l20.354,10.053-3.6-29.9A1.187,1.187,0,0,0,33.762,150.543Z" transform="translate(-17.147 -150.206)" fill="#978ecb"/>
        </g>
      </g>
      <path id="Trazado_71393" data-name="Trazado 71393" d="M204.1,136.147a10.1,10.1,0,0,0,10.1-10.1v-4.168l-.841.419-3.364,1.674a13.226,13.226,0,0,1-11.784,0l-4.2-2.09,0,0v4.168A10.1,10.1,0,0,0,204.1,136.147Z" transform="translate(-148.532 -102.36)" fill="#978ecb"/>
      <path id="Trazado_71394" data-name="Trazado 71394" d="M193,23.761,178.243,13.017V9.092a4.345,4.345,0,0,0,4.092-4.33v-.3A4.465,4.465,0,0,0,177.872,0h-.256a4.465,4.465,0,0,0-4.463,4.456,1.242,1.242,0,1,0,2.484,0,1.978,1.978,0,0,1,1.979-1.972h.256a1.978,1.978,0,0,1,1.979,1.972v.3a1.858,1.858,0,0,1-1.859,1.853,2.235,2.235,0,0,0-2.233,2.231V12.9L162.329,23.011A1.242,1.242,0,1,0,163.823,25l13.105-9.863,14.61,10.637A1.242,1.242,0,1,0,193,23.761Z" transform="translate(-121.514 0)" fill="#e19974"/>
      <path id="Trazado_71395" data-name="Trazado 71395" d="M157.616,129.128l2.484,24.885v27.035a3.312,3.312,0,0,1-3.312,3.312H118.215a3.312,3.312,0,0,1-3.312-3.312v-51.9a3.312,3.312,0,0,1,2.091-3.079l10.578-4.2v4.168a10.1,10.1,0,1,0,20.194,0v-4.168l10.27,4.185C159.284,126.57,157.616,127.782,157.616,129.128Z" transform="translate(-82.099 -102.356)" fill="#aca6d6"/>
      <g id="Grupo_45788" data-name="Grupo 45788" transform="translate(32.913 22.229)">
        <path id="Trazado_71396" data-name="Trazado 71396" d="M158.607,140.26l-3.625-1.477a3.307,3.307,0,0,1,.72,2.06v21.214a34.018,34.018,0,0,1-34.018,34.018h-6.1a3.311,3.311,0,0,0,3.2,2.484h38.573a3.312,3.312,0,0,0,3.312-3.312v-51.92A3.313,3.313,0,0,0,158.607,140.26Z" transform="translate(-115.582 -138.783)" fill="#978ecb"/>
      </g>
      <g id="Grupo_45789" data-name="Grupo 45789" transform="translate(42.617 42.801)">
        <path id="Trazado_71397" data-name="Trazado 71397" d="M189.433,274.7l-3.471,1.492a.949.949,0,0,0-.532.591l-1.116,3.609a.948.948,0,0,1-1.777.094l-1.492-3.471a.949.949,0,0,0-.591-.532l-3.609-1.117a.949.949,0,0,1-.094-1.778l3.471-1.492a.949.949,0,0,0,.532-.591l1.116-3.609a.948.948,0,0,1,1.777-.094l1.492,3.471a.949.949,0,0,0,.591.532l3.609,1.116A.949.949,0,0,1,189.433,274.7Z" transform="translate(-176.176 -267.231)" fill="#fff"/>
        <path id="Trazado_71398" data-name="Trazado 71398" d="M257.4,390.343l-2.782,1.2a.761.761,0,0,0-.426.474l-.895,2.893a.76.76,0,0,1-1.425.076l-1.2-2.782a.761.761,0,0,0-.474-.426l-2.893-.895a.76.76,0,0,1-.076-1.425l2.782-1.2a.76.76,0,0,0,.426-.474l.895-2.893a.76.76,0,0,1,1.425-.076l1.2,2.782a.76.76,0,0,0,.474.426l2.893.9a.761.761,0,0,1,.076,1.425Z" transform="translate(-235.468 -365.595)" fill="#fff"/>
      </g>
    </g>
  </g>
</svg>
