<?xml version="1.0" encoding="utf-8"?>
<!-- Generator: Adobe Illustrator 25.2.0, SVG Export Plug-In . SVG Version: 6.00 Build 0)  -->
<svg version="1.1" id="Layer_1" xmlns="http://www.w3.org/2000/svg" xmlns:xlink="http://www.w3.org/1999/xlink" x="0px" y="0px"
	 viewBox="0 0 123 122.2" style="enable-background:new 0 0 123 122.2;" xml:space="preserve">
<style type="text/css">
	.st0{fill:#673AB7;}
	.st1{fill:#B492F1;}
	.st2{fill:#FFFFFF;}
</style>
<g>
	<path id="Trazado_59723_1_" class="st0" d="M7.7,0h92.2c4.2,0,7.7,3.4,7.7,7.7c0,0,0,0,0,0v69.2c0,4.2-3.4,7.7-7.7,7.7H7.7
		c-4.2,0-7.7-3.4-7.7-7.7c0,0,0,0,0,0V7.7C0,3.4,3.4,0,7.7,0C7.7,0,7.7,0,7.7,0z"/>
	<path id="Trazado_59724_1_" class="st1" d="M99.9,122.2L64.2,99.9H23.1c-4.2,0-7.7-3.4-7.7-7.7V23.1c0-4.2,3.4-7.7,7.7-7.7h0h92.2
		c4.2,0,7.7,3.4,7.7,7.7v0v69.2c0,4.2-3.4,7.7-7.7,7.7H99.9V122.2z"/>
	<g id="Grupo_31684_1_" transform="translate(23.063 23.063)">
		<path id="Trazado_59726_1_" class="st2" d="M42.3,53.8H50v7.7h-7.7V53.8z"/>
		<path id="Trazado_59727_1_" class="st2" d="M7.7,15.4H0V0h15.4v7.7H7.7V15.4z"/>
		<path id="Trazado_59728_1_" class="st2" d="M92.2,69.2H76.9v-7.7h7.7v-7.7h7.7L92.2,69.2z"/>
		<rect id="Rectángulo_12702" x="41.9" y="4.2" class="st2" width="8" height="44"/>
	</g>
</g>
</svg>
