<?xml version="1.0" encoding="utf-8"?>
<!-- Generator: Adobe Illustrator 25.2.0, SVG Export Plug-In . SVG Version: 6.00 Build 0)  -->
<svg version="1.1" id="Layer_1" xmlns="http://www.w3.org/2000/svg" xmlns:xlink="http://www.w3.org/1999/xlink" x="0px" y="0px"
	 viewBox="0 0 280.9 280.9" style="enable-background:new 0 0 280.9 280.9;" xml:space="preserve">
<style type="text/css">
	.st0{opacity:0.7;fill:#F6F2F9;enable-background:new    ;}
	.st1{opacity:0.7;fill:url(#SVGID_1_);enable-background:new    ;}
	.st2{opacity:0.7;fill:url(#SVGID_2_);enable-background:new    ;}
	.st3{opacity:0.7;fill:url(#SVGID_3_);enable-background:new    ;}
	.st4{opacity:0.7;fill:url(#SVGID_4_);enable-background:new    ;}
	.st5{opacity:0.7;fill:url(#SVGID_5_);enable-background:new    ;}
	.st6{fill:url(#SVGID_6_);}
	.st7{fill:#43201D;}
	.st8{fill:#783A3A;}
	.st9{fill:#FFFFFF;}
	.st10{fill:#F8ACA0;}
	.st11{fill:#FBC4B3;}
	.st12{fill:#722D15;}
	.st13{fill:url(#SVGID_7_);}
	.st14{fill:url(#SVGID_8_);}
	.st15{fill:url(#SVGID_9_);}
	.st16{fill:url(#SVGID_10_);}
	.st17{fill:url(#SVGID_11_);}
	.st18{fill:url(#SVGID_12_);}
	.st19{fill:url(#SVGID_13_);}
	.st20{fill:url(#SVGID_14_);}
	.st21{fill:url(#SVGID_15_);}
	.st22{fill:#855050;}
	.st23{fill:#713535;}
	.st24{fill:#FBD0CA;}
	.st25{fill:#DD3835;}
	.st26{fill:url(#SVGID_16_);}
	.st27{fill:url(#SVGID_17_);}
	.st28{fill:url(#SVGID_18_);}
	.st29{fill:url(#SVGID_19_);}
	.st30{fill:url(#SVGID_20_);}
	.st31{fill:url(#SVGID_21_);}
	.st32{fill:#D7CB95;}
	.st33{fill:url(#SVGID_22_);}
	.st34{fill:#6E3333;}
	.st35{fill:url(#SVGID_23_);}
	.st36{fill:url(#SVGID_24_);}
	.st37{fill:url(#SVGID_25_);}
	.st38{fill:url(#SVGID_26_);}
	.st39{fill:url(#SVGID_27_);}
	.st40{fill:url(#SVGID_28_);}
	.st41{fill:url(#SVGID_29_);}
	.st42{fill:url(#SVGID_30_);}
	.st43{fill:#B72025;}
	.st44{fill:url(#SVGID_31_);}
	.st45{fill:url(#SVGID_32_);}
	.st46{fill:url(#SVGID_33_);}
	.st47{fill:url(#SVGID_34_);}
	.st48{fill:url(#SVGID_35_);}
	.st49{fill:url(#SVGID_36_);}
	.st50{fill:url(#SVGID_37_);}
	.st51{fill:url(#SVGID_38_);}
	.st52{fill:#5A2727;}
	.st53{fill:#884646;}
	.st54{fill:url(#SVGID_39_);}
	.st55{fill:url(#SVGID_40_);}
	.st56{fill:#5F2A2A;}
	.st57{fill:url(#SVGID_41_);}
	.st58{fill:url(#SVGID_42_);}
	.st59{fill:url(#SVGID_43_);}
	.st60{fill:url(#SVGID_44_);}
	.st61{fill:url(#SVGID_45_);}
	.st62{fill:url(#SVGID_46_);}
	.st63{fill:url(#SVGID_47_);}
	.st64{fill:url(#SVGID_48_);}
	.st65{fill:url(#SVGID_49_);}
	.st66{fill:url(#SVGID_50_);}
	.st67{fill:url(#SVGID_51_);}
	.st68{fill:url(#SVGID_52_);}
	.st69{fill:url(#SVGID_53_);}
	.st70{fill:url(#SVGID_54_);}
	.st71{fill:url(#SVGID_55_);}
	.st72{fill:url(#SVGID_56_);}
	.st73{fill:url(#SVGID_57_);}
	.st74{fill:url(#SVGID_58_);}
	.st75{fill:url(#SVGID_59_);}
	.st76{fill:url(#SVGID_60_);}
	.st77{fill:url(#SVGID_61_);}
	.st78{fill:url(#SVGID_62_);}
	.st79{fill:url(#SVGID_63_);}
	.st80{fill:url(#SVGID_64_);}
	.st81{fill:url(#SVGID_65_);}
	.st82{fill:url(#SVGID_66_);}
	.st83{fill:url(#SVGID_67_);}
	.st84{fill:url(#SVGID_68_);}
	.st85{fill:url(#SVGID_69_);}
</style>
<g>
	<circle class="st0" cx="140.5" cy="140.5" r="140.5"/>
	<g>
		<g>
			
				<linearGradient id="SVGID_1_" gradientUnits="userSpaceOnUse" x1="-285.51" y1="136.35" x2="-253.55" y2="136.35" gradientTransform="matrix(-1 0 0 -1 -50.62 282)">
				<stop  offset="0" style="stop-color:#9DA1D0"/>
				<stop  offset="1" style="stop-color:#BEA5CF"/>
			</linearGradient>
			<path class="st1" d="M202.9,145.6c0,5,7.1,9,16,9s16-4,16-9s-7.1-9-16-9S202.9,140.7,202.9,145.6z"/>
			
				<linearGradient id="SVGID_2_" gradientUnits="userSpaceOnUse" x1="123.64" y1="78.76" x2="243.96" y2="78.76" gradientTransform="matrix(1 0 0 -1 0 282)">
				<stop  offset="0" style="stop-color:#9DA1D0"/>
				<stop  offset="1" style="stop-color:#BEA5CF"/>
			</linearGradient>
			<polygon class="st2" points="147.5,237.2 123.6,223.4 220.1,169.3 244,183 			"/>
			
				<linearGradient id="SVGID_3_" gradientUnits="userSpaceOnUse" x1="82.87" y1="101.715" x2="205.17" y2="101.715" gradientTransform="matrix(1 0 0 -1 0 282)">
				<stop  offset="0" style="stop-color:#9DA1D0"/>
				<stop  offset="1" style="stop-color:#BEA5CF"/>
			</linearGradient>
			<polygon class="st3" points="108.7,214.8 82.9,199.9 179.4,145.8 205.2,160.7 			"/>
			
				<linearGradient id="SVGID_4_" gradientUnits="userSpaceOnUse" x1="36.95" y1="128.255" x2="159.25" y2="128.255" gradientTransform="matrix(1 0 0 -1 0 282)">
				<stop  offset="0" style="stop-color:#9DA1D0"/>
				<stop  offset="1" style="stop-color:#BEA5CF"/>
			</linearGradient>
			<polygon class="st4" points="62.8,188.3 37,173.4 133.4,119.2 159.2,134.1 			"/>
			
				<linearGradient id="SVGID_5_" gradientUnits="userSpaceOnUse" x1="66.66" y1="56.37" x2="88.49" y2="56.37" gradientTransform="matrix(1 0 0 -1 0 282)">
				<stop  offset="0" style="stop-color:#9DA1D0"/>
				<stop  offset="1" style="stop-color:#BEA5CF"/>
			</linearGradient>
			<path class="st5" d="M88.5,225.6c0,3.4-4.9,6.1-10.9,6.1s-10.9-2.8-10.9-6.1s4.9-6.1,10.9-6.1S88.5,222.2,88.5,225.6z"/>
		</g>
		<g>
			
				<linearGradient id="SVGID_6_" gradientUnits="userSpaceOnUse" x1="204.7427" y1="193.5321" x2="217.3427" y2="193.5321" gradientTransform="matrix(1 0 0 -1 0 282)">
				<stop  offset="0" style="stop-color:#BDB3D9"/>
				<stop  offset="1" style="stop-color:#CFBEDD"/>
			</linearGradient>
			<path class="st6" d="M207.3,90.8c1.2-0.8,2-1.9,2.3-3.3c0.5-2,1.3-4,2.4-5.8c1.5-2.6,3.8-3.7,5.4-3.2l-0.4,7.5
				c0,0-3.9,6.9-4.6,8.6s-2.2,2.1-2.4,2.5c-0.9,2.1-2.5,1.9-4.8-0.5C204.5,95.9,204.2,92.8,207.3,90.8z"/>
			<path class="st7" d="M210.1,143.2c0,0-1,1.1-2.4,2.4s-1.6,1.6-2.8,2.7c-0.7,0.7-0.1,1.3,1.2,1.2c1.7-0.2,3.5-0.5,5.1-1.1
				c1.3-0.6,2.6-1.2,3.8-2c0.5-0.3,1-0.8,1.1-1.4v-2L210.1,143.2z"/>
			<path class="st7" d="M227.6,141.4c-0.6,0.8-1.3,1.6-2,2.3c-1,1-1.9,2-2.7,3.1c-0.2,0.3-0.4,1.3,0.9,1.2c1.5-0.1,2.9-0.5,4.3-1
				c1.6-0.6,3-2.2,4-2.8c0.6-0.5,1.1-1.2,1.4-1.9l-0.7-2L227.6,141.4z"/>
			<path class="st8" d="M232.7,140.3c0,0-0.7-9.7-4.1-17.4c0-0.4-0.9-4.6-0.9-5c-2.2,1.4-3.8,5-6.3,5.3c0.1,0.2,0.1,2.3,0.2,2.6
				c0.9,4.1,4.2,16.3,4.2,16.3s2.1,2.5,4.8,1.1S232.7,140.3,232.7,140.3z"/>
			<path class="st8" d="M209.7,117.8c-0.7,8.5-0.6,25.4-0.6,25.4s0.1,1.8,3.1,1.7c1.5-0.1,3-0.8,4-2l0.2-20.9
				C213.7,121.7,211.5,119.9,209.7,117.8z"/>
			<path class="st9" d="M212.1,96.8c0.1-2.3,0.7-9.6,0.8-10.5c0.4-2.8,0.8-4.7,1.8-5.6c2.7-2.4,9-1,9-1s5.3,2.7,5.5,4.7
				c0.2,1.6-3.9,9.7-2.6,15.5c1.5,6.9,2.6,13.8,3.4,20.8c-1,0.7-6.7,4.4-10.8,4.4c-7.1,0-9.5-4.2-10.4-5.4
				C208.8,114.1,211.8,104.1,212.1,96.8z"/>
			<path class="st10" d="M218.6,78.8l-0.7,3.8c0.1,0.7,0.3,1.3,0.7,1.8c1-0.6,2.3-0.5,3.2-1.3c0.9-0.6,1.6-1.4,2.2-2.4
				c-0.5-1.6-0.9-3.3-1.1-5.1C221.5,75.2,218.6,78.8,218.6,78.8z"/>
			<path class="st11" d="M221.2,69.8c-1.9-1.5-4.7-1.1-6.2,0.9c-0.3,0.4-0.6,0.9-0.7,1.4c-1.5,4.2,2.3,9.4,4.3,8.5
				c1.9-0.9,3.4-2.5,4.2-4.4C223.6,73.7,222.5,70.8,221.2,69.8z"/>
			<path class="st12" d="M214,73.5c0.9,1,2.3,1.4,3.6,1.1c1-0.2,2-0.5,2.8-1l0.3,2.2c0.2,0,0.4-0.1,0.6-0.2c0-0.9,0.3-1.1,0.8-0.9
				s0.6,1.5,0.6,1.5c1-1.1,1.4-2.6,1.1-4.1c-0.3-1.6-2.4-4.6-5.4-4.3c-2.3,0.1-4.3,1.6-5,3.9C213.4,72.3,213.6,73,214,73.5z"/>
			
				<linearGradient id="SVGID_7_" gradientUnits="userSpaceOnUse" x1="215.77" y1="199.605" x2="218.57" y2="199.605" gradientTransform="matrix(1 0 0 -1 0 282)">
				<stop  offset="0" style="stop-color:#BDB3D9"/>
				<stop  offset="1" style="stop-color:#CFBEDD"/>
			</linearGradient>
			<path class="st13" d="M217.2,80.4c-0.6,0.6-1,1.3-1.4,2c0.6-0.1,1.2,0.2,1.4,0.8c0.3,0.5,0.8,1,1.4,1.2c-0.1-1.2-0.1-2.5,0-3.7
				C218.1,80.8,217.6,80.7,217.2,80.4z"/>
			
				<linearGradient id="SVGID_8_" gradientUnits="userSpaceOnUse" x1="218.57" y1="199.925" x2="224.47" y2="199.925" gradientTransform="matrix(1 0 0 -1 0 282)">
				<stop  offset="0" style="stop-color:#BDB3D9"/>
				<stop  offset="1" style="stop-color:#CFBEDD"/>
			</linearGradient>
			<path class="st14" d="M223.6,79.1c0,0-1.9,2-3.1,3.1c-0.7,0.7-1.4,1.4-2,2.2c0.6,0,1.2,0,1.7,0c0.5-0.1,1,0.2,1.3,0.7
				c0,0,2.9-3.2,2.9-4.8C224.4,79.7,224.1,79.3,223.6,79.1z"/>
			
				<linearGradient id="SVGID_9_" gradientUnits="userSpaceOnUse" x1="213.77" y1="206.8835" x2="223.68" y2="206.8835" gradientTransform="matrix(1 0 0 -1 0 282)">
				<stop  offset="0" style="stop-color:#BDB3D9"/>
				<stop  offset="1" style="stop-color:#CFBEDD"/>
			</linearGradient>
			<path class="st15" d="M223.7,75c0.1,0.4-0.8,1.2-0.8,1.2s-4.3-0.3-6.1-0.7c-1.1-0.3-2.1-0.7-3-1.4
				C213.8,74.1,223.2,73.5,223.7,75z"/>
			<path class="st9" d="M223.6,75.1c0,0,1.2-0.3,1.5-2.6s-0.4-4.1-3-5.5s-4.6-1.2-6.3,0.1s-3.6,2.7-3.6,4.3s1.9,2.8,1.9,2.8
				c1.2,0.5,2.5,0.8,3.7,0.8C220.2,75.3,223.6,75.1,223.6,75.1z"/>
			
				<linearGradient id="SVGID_10_" gradientUnits="userSpaceOnUse" x1="221.44" y1="208.33" x2="223.9985" y2="208.33" gradientTransform="matrix(1 0 0 -1 0 282)">
				<stop  offset="0" style="stop-color:#BDB3D9"/>
				<stop  offset="1" style="stop-color:#CFBEDD"/>
			</linearGradient>
			<path class="st16" d="M223.8,71.7c0.3,0.7,0.2,1.5-0.2,2.2c-0.4,0.6-0.9,1.2-1.4,1.7l-0.8-0.1c0.7-0.5,1.3-1.2,1.8-1.9
				C223.5,73,223.7,72.4,223.8,71.7z"/>
			
				<linearGradient id="SVGID_11_" gradientUnits="userSpaceOnUse" x1="220.21" y1="208.185" x2="221.54" y2="208.185" gradientTransform="matrix(1 0 0 -1 0 282)">
				<stop  offset="0" style="stop-color:#BDB3D9"/>
				<stop  offset="1" style="stop-color:#CFBEDD"/>
			</linearGradient>
			<path class="st17" d="M221.1,72c0,0,0.7,1.1,0.3,1.7c-0.3,0.6-0.6,1.3-0.8,1.9h-0.4c0-0.6,0.1-1.2,0.4-1.8
				C220.8,73.2,221,72.6,221.1,72z"/>
			
				<linearGradient id="SVGID_12_" gradientUnits="userSpaceOnUse" x1="217.07" y1="207.82" x2="218.57" y2="207.82" gradientTransform="matrix(1 0 0 -1 0 282)">
				<stop  offset="0" style="stop-color:#BDB3D9"/>
				<stop  offset="1" style="stop-color:#CFBEDD"/>
			</linearGradient>
			<path class="st18" d="M217.1,72.9c0.4,0.3,0.8,0.7,1,1.1c0.2,0.5,0.4,1,0.5,1.5h-0.4c0-0.4-0.1-0.9-0.4-1.3L217.1,72.9z"/>
			
				<linearGradient id="SVGID_13_" gradientUnits="userSpaceOnUse" x1="215.76" y1="177.635" x2="218.2" y2="177.635" gradientTransform="matrix(1 0 0 -1 0 282)">
				<stop  offset="0" style="stop-color:#BDB3D9"/>
				<stop  offset="1" style="stop-color:#CFBEDD"/>
			</linearGradient>
			<path class="st19" d="M218.2,85.5c0,0-0.8,4.6-1,6.2s0.2,8.7,0,11.8s-0.6,9.2-0.8,11.9c0,2.6,0.1,5.3,0.3,7.9
				c-0.7-1.2-1-2.6-0.9-4c0.1-2.3,0.3-7.2,0.6-10.4c0.2-4.1,0.2-8.2,0-12.3c-0.1-2.9,0.1-5.8,0.8-8.6
				C217.4,87.1,217.8,86.2,218.2,85.5z"/>
			
				<linearGradient id="SVGID_14_" gradientUnits="userSpaceOnUse" x1="220.5759" y1="188.4945" x2="233.5759" y2="188.4945" gradientTransform="matrix(1 0 0 -1 0 282)">
				<stop  offset="0" style="stop-color:#BDB3D9"/>
				<stop  offset="1" style="stop-color:#CFBEDD"/>
			</linearGradient>
			<path class="st20" d="M220.8,103.3c-0.3-1.2-0.6-2.3,0.9-3.6c0.6-0.5,2.4-0.8,3.4-1.4c0.5-0.3,1.2-0.3,2.1-0.7
				c-0.8-1.3-1.2-5.9-1.5-7.6c-0.7-3.2-0.4-7.6,1.7-8c4.1-0.8,5.9,8,6.2,12.3c0.1,0.8-0.4,3.1-0.4,5c0.1,0.9-0.2,1.7-0.8,2.3
				c-0.8,0.8-2.6,2.7-4.5,2.7c-1.3,0.1-2.6,0.3-3.8,0.6C222.7,105.4,221.3,104.6,220.8,103.3z"/>
			<path class="st9" d="M223.1,77.6c0,0-3,4-5.1,3.5s-3-3.5-3-3.5c1-0.3,2-0.3,3,0c1.3,0.5,1.4,0.6,2.3,0.3c1-0.5,1.8-1.1,2.6-1.8
				L223.1,77.6z"/>
			
				<linearGradient id="SVGID_15_" gradientUnits="userSpaceOnUse" x1="222.1279" y1="211.4836" x2="213.6779" y2="211.4836" gradientTransform="matrix(1 0 0 -1 0 282)">
				<stop  offset="0" style="stop-color:#FFFFFF"/>
				<stop  offset="1" style="stop-color:#DFD0E7"/>
			</linearGradient>
			<path class="st21" d="M215.7,69c1.3-0.6,3.3-0.2,5.3,0s0.9,1.3-1,1.6s-3.1,2.3-5.4,1.6S214.4,69.6,215.7,69z"/>
			<g>
				<path class="st22" d="M217.2,102.7l-5.4-9.3c-0.4-0.6-0.9-1.1-1.6-1.4l-5-2.9c-0.2-0.1-0.4-0.1-0.5,0l0,0l-0.5,0.3l0.4,0.4
					l0.1-0.1v0.1l5.4,9.3c0.4,0.6,0.9,1.1,1.6,1.4l4.7,2.7l0.2,0.5l0.5-0.3l0,0C217.4,103.2,217.4,103,217.2,102.7z"/>
				<path class="st23" d="M204.8,89.4l5,2.9c0.7,0.3,1.2,0.8,1.6,1.4l5.4,9.3c0.3,0.6,0.1,0.8-0.4,0.6l-5-2.9
					c-0.7-0.3-1.2-0.8-1.6-1.4l-5.4-9.2C204.1,89.4,204.2,89.1,204.8,89.4z"/>
			</g>
			<path class="st24" d="M217.9,100.3c-0.7-0.6-1.6-0.9-2.6-1c0,0.1,0.7,1.2,0.7,1.2s-2.9-1-4-0.7c-1,0.3-0.6,1.6,1.6,3.1
				c1.4,0.7,2.9,1,4.4,1c1,0,3.7-0.3,3.7-0.3c0.7-0.6,0.7-1.7,0.1-2.4c0,0,0,0-0.1-0.1C220.4,101.1,219.1,100.8,217.9,100.3z"/>
			<path class="st24" d="M206.1,93.1c-0.6,0.3-0.1,2.9,1.2,3.8c1,0.7,2.3-0.2,1.5-1.6C208.2,94.3,207.3,93.5,206.1,93.1z"/>
		</g>
		<g>
			<g>
				<polygon class="st25" points="133.4,116.7 129.6,118.8 135.9,122.5 139.7,120.3 				"/>
				
					<linearGradient id="SVGID_16_" gradientUnits="userSpaceOnUse" x1="138.655" y1="236.1" x2="138.655" y2="152.63" gradientTransform="matrix(1 0 0 -1 0 282)">
					<stop  offset="0" style="stop-color:#D64C47"/>
					<stop  offset="1" style="stop-color:#D62D29"/>
				</linearGradient>
				<polygon class="st26" points="135.9,126.1 141.4,129.4 141.4,49.1 135.9,45.9 				"/>
				
					<linearGradient id="SVGID_17_" gradientUnits="userSpaceOnUse" x1="135.86" y1="235.565" x2="145.24" y2="235.565" gradientTransform="matrix(1 0 0 -1 0 282)">
					<stop  offset="0" style="stop-color:#F58B86"/>
					<stop  offset="0.39" style="stop-color:#F48681"/>
					<stop  offset="0.85" style="stop-color:#F17973"/>
					<stop  offset="1" style="stop-color:#F0736D"/>
				</linearGradient>
				<polygon class="st27" points="139.7,43.7 135.9,45.9 141.4,49.1 145.2,47 				"/>
				
					<linearGradient id="SVGID_18_" gradientUnits="userSpaceOnUse" x1="143.345" y1="151.69" x2="143.345" y2="235.03" gradientTransform="matrix(1 0 0 -1 0 282)">
					<stop  offset="0" style="stop-color:#E44D4F"/>
					<stop  offset="0.31" style="stop-color:#E65253"/>
					<stop  offset="0.67" style="stop-color:#EA605E"/>
					<stop  offset="1" style="stop-color:#F0736D"/>
				</linearGradient>
				<polygon class="st28" points="145.2,47 141.4,49.1 141.4,130.3 145.2,128.4 				"/>
				
					<linearGradient id="SVGID_19_" gradientUnits="userSpaceOnUse" x1="129.57" y1="154.25" x2="147.74" y2="154.25" gradientTransform="matrix(1 0 0 -1 0 282)">
					<stop  offset="0" style="stop-color:#D64C47"/>
					<stop  offset="1" style="stop-color:#D62D29"/>
				</linearGradient>
				<polygon class="st29" points="147.7,136.6 129.6,126.2 129.6,118.8 147.7,129.3 				"/>
				
					<linearGradient id="SVGID_20_" gradientUnits="userSpaceOnUse" x1="141.45" y1="155.56" x2="151.53" y2="155.56" gradientTransform="matrix(1 0 0 -1 0 282)">
					<stop  offset="0" style="stop-color:#F58B86"/>
					<stop  offset="0.39" style="stop-color:#F48681"/>
					<stop  offset="0.85" style="stop-color:#F17973"/>
					<stop  offset="1" style="stop-color:#F0736D"/>
				</linearGradient>
				<polygon class="st30" points="145.2,123.6 141.4,125.7 147.7,129.3 151.5,127.2 				"/>
				
					<linearGradient id="SVGID_21_" gradientUnits="userSpaceOnUse" x1="149.635" y1="145.35" x2="149.635" y2="154.84" gradientTransform="matrix(1 0 0 -1 0 282)">
					<stop  offset="0" style="stop-color:#E44D4F"/>
					<stop  offset="0.31" style="stop-color:#E65253"/>
					<stop  offset="0.67" style="stop-color:#EA605E"/>
					<stop  offset="1" style="stop-color:#F0736D"/>
				</linearGradient>
				<polygon class="st31" points="151.5,127.2 147.7,129.3 147.7,136.6 151.5,134.4 				"/>
			</g>
			<g>
				<path class="st7" d="M130.3,121.7c0.2-0.1,0.4-0.1,0.6,0.1c0.5,0.4,0.9,1,0.9,1.7c0,0.3-0.1,0.5-0.3,0.7l-3.9,2.2l-1.1-2.5
					L130.3,121.7z"/>
				<g>
					<path class="st8" d="M126,121.8c0.5-0.2,1-0.1,1.4,0.2c1.4,1,2.2,2.6,2.3,4.3c0.1,0.7-0.2,1.4-0.8,1.8l-73.3,42.1l-2.9-6.3
						L126,121.8z"/>
					<path class="st32" d="M51.9,165.8c0,1.7,0.9,3.3,2.3,4.3c1.2,0.7,2.2,0,2.2-1.7c0-1.7-0.9-3.3-2.2-4.3
						C53,163.4,51.9,164.1,51.9,165.8z"/>
				</g>
				<path class="st7" d="M53.4,166.1c0.2-0.1,0.4-0.1,0.5,0.1c0.5,0.4,0.9,1,0.9,1.7c0,0.3-0.1,0.5-0.3,0.7l-3.9,2.2l-1.1-2.5
					L53.4,166.1z"/>
			</g>
			
				<linearGradient id="SVGID_22_" gradientUnits="userSpaceOnUse" x1="71.99" y1="194.2" x2="71.99" y2="117.42" gradientTransform="matrix(1 0 0 -1 0 282)">
				<stop  offset="0" style="stop-color:#9DA1D0"/>
				<stop  offset="1" style="stop-color:#CFBEDD"/>
			</linearGradient>
			<polygon class="st33" points="64.8,92.5 66.4,162.5 65.4,164.6 79.1,156.7 75.5,87.8 			"/>
			<g>
				<path class="st7" d="M137.9,49.9c0.2-0.1,0.4-0.1,0.6,0.1c0.6,0.4,0.9,1,0.9,1.7c0,0.3-0.1,0.5-0.3,0.7l-3.9,2.2l-1.1-2.5
					L137.9,49.9z"/>
				<g>
					<path class="st8" d="M133.6,49.9c0.5-0.2,1-0.1,1.4,0.2c1.4,1,2.2,2.6,2.3,4.3c0.1,0.7-0.2,1.4-0.8,1.8L63.3,98.4l-2.9-6.3
						L133.6,49.9z"/>
					<path class="st34" d="M59.5,93.9c0,1.7,0.9,3.3,2.2,4.3c1.2,0.7,2.3,0,2.3-1.7c0-1.7-0.9-3.3-2.3-4.3
						C60.6,91.5,59.5,92.3,59.5,93.9z"/>
				</g>
				<path class="st7" d="M61,94.3c0.2-0.1,0.4-0.1,0.5,0.1c0.6,0.4,0.9,1,0.9,1.7c0,0.3-0.1,0.5-0.3,0.7L58.3,99l-1.1-2.5L61,94.3z"
					/>
			</g>
			<g>
				<path class="st7" d="M144.2,129.7c0.2-0.1,0.4-0.1,0.6,0.1c0.5,0.4,0.9,1,0.9,1.7c0,0.3-0.1,0.6-0.3,0.7l-3.9,2.2l-1.1-2.5
					L144.2,129.7z"/>
				<g>
					<path class="st8" d="M139.9,129.8c0.5-0.2,1-0.1,1.4,0.1c1.4,1,2.2,2.6,2.2,4.3c0.1,0.7-0.2,1.4-0.8,1.8l-73.3,42.2l-2.9-6.3
						L139.9,129.8z"/>
					<path class="st34" d="M65.8,173.8c0,1.7,0.8,3.3,2.2,4.3c1.2,0.7,2.3-0.1,2.3-1.7c0-1.7-0.9-3.3-2.3-4.3
						C66.8,171.3,65.8,172.1,65.8,173.8z"/>
				</g>
				<path class="st7" d="M67.3,174.1c0.2-0.1,0.4-0.1,0.5,0.1c0.6,0.4,0.9,1,0.9,1.7c0,0.3-0.1,0.5-0.3,0.7l-3.9,2.2l-1.1-2.5
					L67.3,174.1z"/>
			</g>
			<g>
				
					<linearGradient id="SVGID_23_" gradientUnits="userSpaceOnUse" x1="45.32" y1="113.64" x2="55.4" y2="113.64" gradientTransform="matrix(1 0 0 -1 0 282)">
					<stop  offset="0" style="stop-color:#F58B86"/>
					<stop  offset="0.39" style="stop-color:#F48681"/>
					<stop  offset="0.85" style="stop-color:#F17973"/>
					<stop  offset="1" style="stop-color:#F0736D"/>
				</linearGradient>
				<polygon class="st35" points="49.1,165.5 45.3,167.6 51.6,171.2 55.4,169.1 				"/>
				
					<linearGradient id="SVGID_24_" gradientUnits="userSpaceOnUse" x1="57.6985" y1="184.3727" x2="54.8885" y2="189.2327" gradientTransform="matrix(1 0 0 -1 0 282)">
					<stop  offset="0" style="stop-color:#F58B86"/>
					<stop  offset="0.39" style="stop-color:#F48681"/>
					<stop  offset="0.85" style="stop-color:#F17973"/>
					<stop  offset="1" style="stop-color:#F0736D"/>
				</linearGradient>
				<polygon class="st36" points="55.4,92.5 51.6,94.7 57.2,97.9 61,95.7 				"/>
				
					<linearGradient id="SVGID_25_" gradientUnits="userSpaceOnUse" x1="59.085" y1="102.92" x2="59.085" y2="186.27" gradientTransform="matrix(1 0 0 -1 0 282)">
					<stop  offset="0" style="stop-color:#E44D4F"/>
					<stop  offset="0.31" style="stop-color:#E65253"/>
					<stop  offset="0.67" style="stop-color:#EA605E"/>
					<stop  offset="1" style="stop-color:#F0736D"/>
				</linearGradient>
				<polygon class="st37" points="61,95.7 57.2,97.9 57.2,179.1 61,177.2 				"/>
				
					<linearGradient id="SVGID_26_" gradientUnits="userSpaceOnUse" x1="54.4" y1="187.33" x2="54.4" y2="96.58" gradientTransform="matrix(1 0 0 -1 0 282)">
					<stop  offset="0" style="stop-color:#D64C47"/>
					<stop  offset="1" style="stop-color:#D62D29"/>
				</linearGradient>
				<polygon class="st38" points="57.2,174.5 57.2,97.9 51.6,94.7 51.6,171.2 45.3,167.6 45.3,174.9 63.5,185.4 63.5,178.1 				"/>
				
					<linearGradient id="SVGID_27_" gradientUnits="userSpaceOnUse" x1="57.19" y1="106.795" x2="67.27" y2="106.795" gradientTransform="matrix(1 0 0 -1 0 282)">
					<stop  offset="0" style="stop-color:#F58B86"/>
					<stop  offset="0.39" style="stop-color:#F48681"/>
					<stop  offset="0.85" style="stop-color:#F17973"/>
					<stop  offset="1" style="stop-color:#F0736D"/>
				</linearGradient>
				<polygon class="st39" points="61,172.3 57.2,174.5 63.5,178.1 67.3,175.9 				"/>
				
					<linearGradient id="SVGID_28_" gradientUnits="userSpaceOnUse" x1="65.375" y1="106.07" x2="65.375" y2="96.58" gradientTransform="matrix(1 0 0 -1 0 282)">
					<stop  offset="0" style="stop-color:#E44D4F"/>
					<stop  offset="0.31" style="stop-color:#E65253"/>
					<stop  offset="0.67" style="stop-color:#EA605E"/>
					<stop  offset="1" style="stop-color:#F0736D"/>
				</linearGradient>
				<polygon class="st40" points="67.3,175.9 63.5,178.1 63.5,185.4 67.3,183.2 				"/>
			</g>
			<ellipse transform="matrix(0.9207 -0.3903 0.3903 0.9207 -30.7739 33.367)" class="st8" cx="66.7" cy="92.4" rx="2" ry="3.5"/>
			
				<linearGradient id="SVGID_29_" gradientUnits="userSpaceOnUse" x1="101.19" y1="229.7257" x2="101.19" y2="113.69" gradientTransform="matrix(1 0 0 -1 0 282)">
				<stop  offset="0" style="stop-color:#FFFFFF"/>
				<stop  offset="1" style="stop-color:#DFD0E7"/>
			</linearGradient>
			<path class="st41" d="M133.1,56.5L133.1,56.5c-0.1-1.6-0.9-3-2.2-4c-0.4-0.3-0.9-0.3-1.4-0.1l0,0l-64,36.8l3.7,4.3l3.7,74.9
				l64.1-36.9L133.1,56.5z"/>
			<path class="st8" d="M61.9,160.1c0,1.7,0.9,3.3,2.3,4.3c1.2,0.7,2.2,0,2.2-1.7c0-1.7-0.9-3.3-2.2-4.3
				C62.9,157.6,61.9,158.4,61.9,160.1z"/>
		</g>
		
			<linearGradient id="SVGID_30_" gradientUnits="userSpaceOnUse" x1="72.79" y1="144.495" x2="165.56" y2="144.495" gradientTransform="matrix(1 0 0 -1 0 282)">
			<stop  offset="0" style="stop-color:#9DA1D0"/>
			<stop  offset="1" style="stop-color:#CFBEDD"/>
		</linearGradient>
		<polygon class="st42" points="72.8,176.4 136.9,139.5 165.6,98.7 101.4,135.5 		"/>
		<g>
			<g>
				<polygon class="st43" points="200.1,128.4 188.5,121.6 188.5,87.2 180.3,82.5 180.3,146.7 200.4,158.3 204.2,136.7 				"/>
				
					<linearGradient id="SVGID_31_" gradientUnits="userSpaceOnUse" x1="184.77" y1="195.03" x2="184.77" y2="119.22" gradientTransform="matrix(1 0 0 -1 0 282)">
					<stop  offset="0" style="stop-color:#D64C47"/>
					<stop  offset="1" style="stop-color:#D62D29"/>
				</linearGradient>
				<polygon class="st44" points="192.6,132.9 181,126.1 181,91.7 172.8,87 172.8,151.2 192.9,162.8 196.7,141.2 				"/>
				
					<linearGradient id="SVGID_32_" gradientUnits="userSpaceOnUse" x1="172.84" y1="194.915" x2="188.5" y2="194.915" gradientTransform="matrix(1 0 0 -1 0 282)">
					<stop  offset="0" style="stop-color:#F58B86"/>
					<stop  offset="0.39" style="stop-color:#F48681"/>
					<stop  offset="0.85" style="stop-color:#F17973"/>
					<stop  offset="1" style="stop-color:#F0736D"/>
				</linearGradient>
				<polygon class="st45" points="180.3,82.5 172.8,87 181,91.7 188.5,87.2 				"/>
				
					<linearGradient id="SVGID_33_" gradientUnits="userSpaceOnUse" x1="181.01" y1="154.755" x2="200.12" y2="154.755" gradientTransform="matrix(1 0 0 -1 0 282)">
					<stop  offset="0" style="stop-color:#F58B86"/>
					<stop  offset="0.39" style="stop-color:#F48681"/>
					<stop  offset="0.85" style="stop-color:#F17973"/>
					<stop  offset="1" style="stop-color:#F0736D"/>
				</linearGradient>
				<polygon class="st46" points="188.5,121.6 181,126.1 192.6,132.9 200.1,128.4 				"/>
				
					<linearGradient id="SVGID_34_" gradientUnits="userSpaceOnUse" x1="184.755" y1="155.86" x2="184.755" y2="194.8" gradientTransform="matrix(1 0 0 -1 0 282)">
					<stop  offset="0" style="stop-color:#E44D4F"/>
					<stop  offset="0.31" style="stop-color:#E65253"/>
					<stop  offset="0.67" style="stop-color:#EA605E"/>
					<stop  offset="1" style="stop-color:#F0736D"/>
				</linearGradient>
				<polygon class="st47" points="188.5,87.2 181,91.7 181,126.1 188.5,121.6 				"/>
				
					<linearGradient id="SVGID_35_" gradientUnits="userSpaceOnUse" x1="198.54" y1="145.28" x2="198.54" y2="119.22" gradientTransform="matrix(1 0 0 -1 0 282)">
					<stop  offset="0" style="stop-color:#E44D4F"/>
					<stop  offset="0.31" style="stop-color:#E65253"/>
					<stop  offset="0.67" style="stop-color:#EA605E"/>
					<stop  offset="1" style="stop-color:#F0736D"/>
				</linearGradient>
				<polygon class="st48" points="204.2,136.7 196.7,141.2 192.9,162.8 200.4,158.3 				"/>
				
					<linearGradient id="SVGID_36_" gradientUnits="userSpaceOnUse" x1="192.63" y1="147.215" x2="204.18" y2="147.215" gradientTransform="matrix(1 0 0 -1 0 282)">
					<stop  offset="0" style="stop-color:#E44D4F"/>
					<stop  offset="0.31" style="stop-color:#E65253"/>
					<stop  offset="0.67" style="stop-color:#EA605E"/>
					<stop  offset="1" style="stop-color:#F0736D"/>
				</linearGradient>
				<polygon class="st49" points="192.6,132.9 196.7,141.2 204.2,136.7 200.1,128.4 				"/>
			</g>
			<g>
				<path class="st8" d="M174.6,90.4c0.5-0.2,1-0.1,1.5,0.2c1.4,1,2.3,2.7,2.3,4.4c0.1,0.7-0.2,1.4-0.8,1.9l-75.7,43.5l-3-6.5
					L174.6,90.4z"/>
				<path class="st32" d="M98.1,135.8c0,1.8,0.9,3.4,2.3,4.4c1.3,0.7,2.3,0,2.3-1.8c0-1.8-0.9-3.4-2.3-4.4
					C99.2,133.3,98.1,134.1,98.1,135.8z"/>
			</g>
			<path class="st8" d="M188.1,137.5c0,2.6,1.3,4.9,3.4,6.4c1.9,1.1,3.4-0.1,3.4-2.5c0-2.5-1.3-4.9-3.4-6.4
				C189.6,133.9,188.1,135,188.1,137.5z"/>
			<g>
				<path class="st8" d="M193.5,123.1l-11.7-6.8l-0.8,0.4l0.8,2.8l11.7,6.8c0.7,0.4,1.2,0,1.2-0.9
					C194.7,124.5,194.3,123.6,193.5,123.1z"/>
				<polygon class="st8" points="193.6,126.8 194.4,126.3 194.2,125.7 193.4,126 				"/>
				<path class="st7" d="M192.8,123.5l-11.8-6.8v3.2l11.7,6.8c0.7,0.4,1.2,0,1.2-0.9C193.9,124.9,193.5,124,192.8,123.5z"/>
			</g>
			<g>
				<g>
					<path class="st7" d="M190.7,138.1c0.2-0.1,0.4-0.1,0.6,0.1c0.6,0.4,0.9,1,0.9,1.7c0,0.3-0.1,0.5-0.3,0.7l-3.9,2.2l-1.1-2.5
						L190.7,138.1z"/>
					<path class="st8" d="M186.5,141c0,0.7,0.3,1.3,0.9,1.7c0.5,0.3,0.9,0,0.9-0.7c0-0.7-0.3-1.3-0.9-1.7
						C186.9,140.1,186.5,140.4,186.5,141z"/>
					<path class="st8" d="M186.9,141.3c0,0.4,0.2,0.8,0.5,1c0.3,0.2,0.5,0,0.5-0.4c0-0.4-0.2-0.8-0.5-1
						C187.1,140.8,186.9,140.9,186.9,141.3z"/>
				</g>
				<g>
					<path class="st9" d="M179.2,134.2L138,157.9L179.2,134.2c1.4-0.6,3.1-0.4,4.4,0.5c3.8,2.2,6.9,8.1,6.9,13.2
						c0,2.8-0.9,4.7-2.3,5.6l-64.1,36.8l-8.9-19.3L179.2,134.2z"/>
					
						<linearGradient id="SVGID_37_" gradientUnits="userSpaceOnUse" x1="112.6565" y1="101.3504" x2="126.5195" y2="101.3504" gradientTransform="matrix(1 0 0 -1 -4.983896e-03 282.0043)">
						<stop  offset="0" style="stop-color:#FFFFFF"/>
						<stop  offset="1" style="stop-color:#DFD0E7"/>
					</linearGradient>
					<path class="st50" d="M115.4,170.9c3.1-1.3,7.4,2,9.7,7.4c2.3,5.4,1.7,10.8-1.4,12.1s-7.4-2-9.7-7.4
						C111.7,177.6,112.4,172.2,115.4,170.9z"/>
					
						<linearGradient id="SVGID_38_" gradientUnits="userSpaceOnUse" x1="113.96" y1="101.12" x2="124.15" y2="101.12" gradientTransform="matrix(1 0 0 -1 0 282)">
						<stop  offset="0" style="stop-color:#9DA1D0"/>
						<stop  offset="1" style="stop-color:#CFBEDD"/>
					</linearGradient>
					<path class="st51" d="M114,177.9c0,3.8,2.3,8.1,5.1,9.7s5.1-0.1,5.1-3.9s-2.3-8.1-5.1-9.7S114,174.2,114,177.9z"/>
					<path class="st52" d="M115.5,179.1c0,2.6,1.3,4.9,3.4,6.4c1.8,1.1,3.3-0.1,3.3-2.5c0-2.5-1.3-4.9-3.3-6.4
						C117,175.5,115.5,176.6,115.5,179.1z"/>
				</g>
				<g>
					<path class="st8" d="M118,180.1c0.2-0.1,0.4-0.1,0.5,0.1c0.6,0.4,0.9,1,0.9,1.7c0,0.3-0.1,0.5-0.3,0.7l-3.9,2.2l-1.1-2.5
						L118,180.1z"/>
					<path class="st8" d="M113.8,183c0,0.7,0.3,1.3,0.9,1.7c0.5,0.3,0.9,0,0.9-0.7c0-0.7-0.3-1.3-0.9-1.7
						C114.2,182.1,113.8,182.4,113.8,183z"/>
					<path class="st8" d="M114.2,183.3c0,0.4,0.2,0.8,0.5,1c0.3,0.2,0.5,0,0.5-0.4c0-0.4-0.2-0.8-0.5-1
						C114.4,182.7,114.2,182.9,114.2,183.3z"/>
				</g>
			</g>
			<g>
				<g>
					<path class="st53" d="M175,119.6c0.2-0.1,0.4-0.1,0.6,0.1c0.6,0.4,0.9,1,0.9,1.7c0,0.3-0.1,0.5-0.3,0.7l-3.9,2.2l-1.1-2.5
						L175,119.6z"/>
					<path class="st8" d="M170.8,122.5c0,0.7,0.3,1.3,0.9,1.7c0.5,0.3,0.9,0,0.9-0.7c0-0.7-0.3-1.3-0.9-1.7
						C171.2,121.5,170.8,121.8,170.8,122.5z"/>
					<path class="st8" d="M171.2,122.7c0,0.4,0.2,0.8,0.5,1c0.3,0.2,0.5,0,0.5-0.4c0-0.4-0.2-0.8-0.5-1
						C171.4,122.2,171.2,122.3,171.2,122.7z"/>
				</g>
				<g>
					
						<linearGradient id="SVGID_39_" gradientUnits="userSpaceOnUse" x1="174.84" y1="138.5135" x2="99.45" y2="138.5135" gradientTransform="matrix(1 0 0 -1 0 282)">
						<stop  offset="0" style="stop-color:#FFFFFF"/>
						<stop  offset="1" style="stop-color:#DFD0E7"/>
					</linearGradient>
					<path class="st54" d="M163.6,115.6l-41.2,23.7L163.6,115.6c1.4-0.6,3.1-0.4,4.4,0.5c3.8,2.2,6.9,8.1,6.9,13.2
						c0,2.7-0.9,4.7-2.3,5.6l-64.1,36.8l-8.9-19.3L163.6,115.6z"/>
					
						<linearGradient id="SVGID_40_" gradientUnits="userSpaceOnUse" x1="109.2159" y1="110.7592" x2="98.6259" y2="129.0992" gradientTransform="matrix(1 0 0 -1 0 282)">
						<stop  offset="0" style="stop-color:#9DA1D0"/>
						<stop  offset="1" style="stop-color:#CFBEDD"/>
					</linearGradient>
					<path class="st55" d="M97,158.1c0,5.1,3.1,11,6.9,13.2s6.9-0.1,6.9-5.2s-3.1-11-6.9-13.2S97,153,97,158.1z"/>
					
						<ellipse transform="matrix(0.9202 -0.3915 0.3915 0.9202 -55.3849 53.352)" class="st52" cx="103.1" cy="162.5" rx="2.9" ry="5.1"/>
				</g>
				<g>
					<path class="st53" d="M102.3,161.5c0.2-0.1,0.4-0.1,0.6,0.1c0.5,0.4,0.9,1,0.9,1.7c0,0.3-0.1,0.5-0.3,0.7l-3.9,2.2l-1.1-2.5
						L102.3,161.5z"/>
					<path class="st8" d="M98.1,164.5c0,0.7,0.3,1.3,0.9,1.7c0.5,0.3,0.9,0,0.9-0.7c0-0.7-0.3-1.3-0.9-1.7
						C98.5,163.5,98.1,163.8,98.1,164.5z"/>
					<path class="st8" d="M98.5,164.7c0,0.4,0.2,0.8,0.5,1c0.3,0.2,0.5,0,0.5-0.4c0-0.4-0.2-0.8-0.5-1
						C98.7,164.2,98.5,164.3,98.5,164.7z"/>
				</g>
			</g>
			<g>
				<path class="st34" d="M185.5,121.9c0.5-0.2,1-0.1,1.5,0.2c1.4,1,2.3,2.7,2.3,4.4c0.1,0.7-0.2,1.4-0.8,1.9l-75.7,43.5l-3-6.5
					L185.5,121.9z"/>
				<path class="st56" d="M109,167.3c0,1.8,0.9,3.4,2.3,4.5c1.3,0.7,2.3,0,2.3-1.8c0-1.8-0.9-3.4-2.3-4.4
					C110,164.8,109,165.6,109,167.3z"/>
			</g>
			<g>
				<polygon class="st43" points="116.1,177 104.4,170.3 104.4,135.8 96.3,131.1 96.3,195.3 116.3,206.9 120.1,185.4 				"/>
				<g>
					
						<linearGradient id="SVGID_41_" gradientUnits="userSpaceOnUse" x1="100.725" y1="146.39" x2="100.725" y2="70.58" gradientTransform="matrix(1 0 0 -1 0 282)">
						<stop  offset="0" style="stop-color:#D64C47"/>
						<stop  offset="1" style="stop-color:#D62D29"/>
					</linearGradient>
					<polygon class="st57" points="108.6,181.5 97,174.8 97,140.3 88.8,135.6 88.8,199.8 108.9,211.4 112.7,189.9 					"/>
					<polygon class="st9" points="108.1,182.2 99.8,177.3 99.8,205 108.2,209.8 111.7,189.6 					"/>
					<polygon class="st7" points="107.8,187.6 101,183.6 101,179.8 107.8,183.8 					"/>
					<polygon class="st7" points="107.8,188.9 101,184.9 101,184.1 107.8,188.1 					"/>
					<polygon class="st9" points="107.4,186.7 101.5,183.3 101.5,180.7 107.4,184.1 					"/>
				</g>
				
					<linearGradient id="SVGID_42_" gradientUnits="userSpaceOnUse" x1="88.79" y1="146.275" x2="104.45" y2="146.275" gradientTransform="matrix(1 0 0 -1 0 282)">
					<stop  offset="0" style="stop-color:#F58B86"/>
					<stop  offset="0.39" style="stop-color:#F48681"/>
					<stop  offset="0.85" style="stop-color:#F17973"/>
					<stop  offset="1" style="stop-color:#F0736D"/>
				</linearGradient>
				<polygon class="st58" points="96.3,131.1 88.8,135.6 97,140.3 104.4,135.8 				"/>
				
					<linearGradient id="SVGID_43_" gradientUnits="userSpaceOnUse" x1="96.97" y1="106.115" x2="116.07" y2="106.115" gradientTransform="matrix(1 0 0 -1 0 282)">
					<stop  offset="0" style="stop-color:#F58B86"/>
					<stop  offset="0.39" style="stop-color:#F48681"/>
					<stop  offset="0.85" style="stop-color:#F17973"/>
					<stop  offset="1" style="stop-color:#F0736D"/>
				</linearGradient>
				<polygon class="st59" points="104.4,170.3 97,174.8 108.6,181.5 116.1,177 				"/>
				<polygon class="st9" points="104.6,171.4 99,174.8 108.4,180.1 114,176.7 				"/>
				
					<linearGradient id="SVGID_44_" gradientUnits="userSpaceOnUse" x1="100.71" y1="107.22" x2="100.71" y2="146.16" gradientTransform="matrix(1 0 0 -1 0 282)">
					<stop  offset="0" style="stop-color:#E44D4F"/>
					<stop  offset="0.31" style="stop-color:#E65253"/>
					<stop  offset="0.67" style="stop-color:#EA605E"/>
					<stop  offset="1" style="stop-color:#F0736D"/>
				</linearGradient>
				<polygon class="st60" points="104.4,135.8 97,140.3 97,174.8 104.4,170.3 				"/>
				
					<linearGradient id="SVGID_45_" gradientUnits="userSpaceOnUse" x1="114.5" y1="96.64" x2="114.5" y2="70.58" gradientTransform="matrix(1 0 0 -1 0 282)">
					<stop  offset="0" style="stop-color:#E44D4F"/>
					<stop  offset="0.31" style="stop-color:#E65253"/>
					<stop  offset="0.67" style="stop-color:#EA605E"/>
					<stop  offset="1" style="stop-color:#F0736D"/>
				</linearGradient>
				<polygon class="st61" points="120.1,185.4 112.7,189.9 108.9,211.4 116.3,206.9 				"/>
				
					<linearGradient id="SVGID_46_" gradientUnits="userSpaceOnUse" x1="114.365" y1="105.01" x2="114.365" y2="92.14" gradientTransform="matrix(1 0 0 -1 0 282)">
					<stop  offset="0" style="stop-color:#E44D4F"/>
					<stop  offset="0.31" style="stop-color:#E65253"/>
					<stop  offset="0.67" style="stop-color:#EA605E"/>
					<stop  offset="1" style="stop-color:#F0736D"/>
				</linearGradient>
				<polygon class="st62" points="108.6,181.5 112.7,189.9 120.1,185.4 116.1,177 				"/>
				<g>
					
						<linearGradient id="SVGID_47_" gradientUnits="userSpaceOnUse" x1="92.4" y1="95.5" x2="92.4" y2="102.54" gradientTransform="matrix(1 0 0 -1 0 282)">
						<stop  offset="0" style="stop-color:#9DA1D0"/>
						<stop  offset="1" style="stop-color:#CFBEDD"/>
					</linearGradient>
					<polygon class="st63" points="93.9,186.5 90.9,184.8 90.9,179.5 93.9,181.1 					"/>
					<polygon class="st7" points="93.4,183.8 91.4,182.6 91.4,180.3 93.4,181.5 					"/>
					
						<linearGradient id="SVGID_48_" gradientUnits="userSpaceOnUse" x1="94.855" y1="102.05" x2="94.855" y2="95.5" gradientTransform="matrix(1 0 0 -1 0 282)">
						<stop  offset="0" style="stop-color:#9DA1D0"/>
						<stop  offset="0.99" style="stop-color:#A297C9"/>
					</linearGradient>
					<polygon class="st64" points="93.9,181.1 95.8,179.9 95.8,185.3 93.9,186.5 					"/>
					
						<linearGradient id="SVGID_49_" gradientUnits="userSpaceOnUse" x1="90.94" y1="102.29" x2="95.85" y2="102.29" gradientTransform="matrix(1 0 0 -1 0 282)">
						<stop  offset="0" style="stop-color:#FFFFFF"/>
						<stop  offset="1" style="stop-color:#DFD0E7"/>
					</linearGradient>
					<polygon class="st65" points="92.9,178.3 90.9,179.5 93.9,181.1 95.8,179.9 					"/>
				</g>
				<polygon class="st8" points="106.9,173.1 104.8,174.3 104.4,174 106.5,172.8 				"/>
				<g>
					<path class="st8" d="M105,175.2c0,0.5-0.7,0.9-1.7,0.9s-1.6-0.4-1.6-0.9s0.7-0.9,1.6-0.9S105,174.7,105,175.2z"/>
					
						<linearGradient id="SVGID_50_" gradientUnits="userSpaceOnUse" x1="102.04" y1="107.015" x2="104.65" y2="107.015" gradientTransform="matrix(1 0 0 -1 0 282)">
						<stop  offset="0" style="stop-color:#D64C47"/>
						<stop  offset="1" style="stop-color:#D62D29"/>
					</linearGradient>
					<path class="st66" d="M102,174.2v0.8c0,0.4,0.6,0.7,1.3,0.7s1.3-0.3,1.3-0.7v-0.8L102,174.2z"/>
					
						<linearGradient id="SVGID_51_" gradientUnits="userSpaceOnUse" x1="102.04" y1="107.71" x2="104.65" y2="107.71" gradientTransform="matrix(1 0 0 -1 0 282)">
						<stop  offset="0" style="stop-color:#F58B86"/>
						<stop  offset="0.39" style="stop-color:#F48681"/>
						<stop  offset="0.85" style="stop-color:#F17973"/>
						<stop  offset="1" style="stop-color:#F0736D"/>
					</linearGradient>
					<ellipse class="st67" cx="103.3" cy="174.3" rx="1.3" ry="0.7"/>
				</g>
				<polygon class="st8" points="110.7,175.3 108.6,176.5 108.1,176.2 110.2,175 				"/>
				<g>
					<path class="st8" d="M108.7,177.4c0,0.5-0.7,0.9-1.6,0.9s-1.7-0.4-1.7-0.9s0.7-0.9,1.7-0.9S108.7,176.9,108.7,177.4z"/>
					
						<linearGradient id="SVGID_52_" gradientUnits="userSpaceOnUse" x1="105.79" y1="104.805" x2="108.4" y2="104.805" gradientTransform="matrix(1 0 0 -1 0 282)">
						<stop  offset="0" style="stop-color:#D64C47"/>
						<stop  offset="1" style="stop-color:#D62D29"/>
					</linearGradient>
					<path class="st68" d="M105.8,176.4v0.8c0,0.4,0.6,0.7,1.3,0.7s1.3-0.3,1.3-0.7v-0.8H105.8z"/>
					
						<linearGradient id="SVGID_53_" gradientUnits="userSpaceOnUse" x1="105.79" y1="105.52" x2="108.4" y2="105.52" gradientTransform="matrix(1 0 0 -1 0 282)">
						<stop  offset="0" style="stop-color:#F58B86"/>
						<stop  offset="0.39" style="stop-color:#F48681"/>
						<stop  offset="0.85" style="stop-color:#F17973"/>
						<stop  offset="1" style="stop-color:#F0736D"/>
					</linearGradient>
					<ellipse class="st69" cx="107.1" cy="176.5" rx="1.3" ry="0.7"/>
				</g>
			</g>
			<g>
				<path class="st8" d="M190.3,122.5c0.5-0.2,1-0.1,1.5,0.2c1.4,1,2.3,2.7,2.3,4.5c0.1,0.7-0.2,1.4-0.8,1.9l-75.7,43.5l-3-6.5
					L190.3,122.5z"/>
				<path class="st56" d="M113.8,167.9c0,1.8,0.9,3.4,2.3,4.4c1.3,0.7,2.3-0.1,2.3-1.8c0-1.8-0.9-3.4-2.3-4.5
					C114.9,165.4,113.8,166.2,113.8,167.9z"/>
			</g>
			<g>
				<path class="st8" d="M116.2,167.7l-11.7-6.8l-0.8,0.4l0.8,2.8l11.7,6.8c0.7,0.4,1.2,0,1.2-0.9
					C117.4,169.1,116.9,168.2,116.2,167.7z"/>
				<polygon class="st8" points="116.2,171.4 117,170.9 116.9,170.3 116,170.6 				"/>
				<path class="st7" d="M115.4,168.1l-11.7-6.8v3.2l11.7,6.8c0.7,0.4,1.2,0,1.2-0.9C116.6,169.5,116.2,168.7,115.4,168.1z"/>
				<path class="st7" d="M109.9,168.1c0,1.1,0.5,2.1,1.4,2.7c0.8,0.4,1.4,0,1.4-1.1c0-1.1-0.5-2.1-1.4-2.7
					C110.5,166.6,109.9,167.1,109.9,168.1z"/>
			</g>
			<polygon class="st9" points="167.6,94.4 171,96.8 182.9,126.9 118.7,163.7 106.9,133.8 103.7,131.2 			"/>
			<path class="st8" d="M105.2,135.9c0.5,0.6,1,1.1,1.5,1.7c0.5-0.5,0.7-1.1,0.7-1.8c0-1.8-0.9-3.4-2.3-4.4c-1.3-0.7-2.3,0-2.3,1.7
				C103.5,134,104.3,135,105.2,135.9z"/>
			<path class="st9" d="M166.8,96.3c0,1.8,0.9,3.4,2.3,4.4c1.3,0.7,2.3,0,2.3-1.8c0-1.8-0.9-3.4-2.3-4.5
				C167.9,93.8,166.8,94.6,166.8,96.3z"/>
		</g>
		<g>
			<g>
				
					<linearGradient id="SVGID_54_" gradientUnits="userSpaceOnUse" x1="222.96" y1="135.47" x2="222.96" y2="97.47" gradientTransform="matrix(1 0 0 -1 0 282)">
					<stop  offset="0" style="stop-color:#D64C47"/>
					<stop  offset="1" style="stop-color:#D62D29"/>
				</linearGradient>
				<polygon class="st70" points="232,184.5 213.9,174.1 213.9,146.5 232,157 				"/>
				
					<linearGradient id="SVGID_55_" gradientUnits="userSpaceOnUse" x1="213.88" y1="131.345" x2="235.84" y2="131.345" gradientTransform="matrix(1 0 0 -1 0 282)">
					<stop  offset="0" style="stop-color:#F58B86"/>
					<stop  offset="0.39" style="stop-color:#F48681"/>
					<stop  offset="0.85" style="stop-color:#F17973"/>
					<stop  offset="1" style="stop-color:#F0736D"/>
				</linearGradient>
				<polygon class="st71" points="235.8,154.8 217.7,144.3 213.9,146.5 232,157 				"/>
				
					<linearGradient id="SVGID_56_" gradientUnits="userSpaceOnUse" x1="133.59" y1="88.865" x2="232.21" y2="88.865" gradientTransform="matrix(1 0 0 -1 0 282)">
					<stop  offset="0" style="stop-color:#F58B86"/>
					<stop  offset="0.39" style="stop-color:#F48681"/>
					<stop  offset="0.85" style="stop-color:#F17973"/>
					<stop  offset="1" style="stop-color:#F0736D"/>
				</linearGradient>
				<polygon class="st72" points="232.2,175.1 214.1,164.6 133.6,211.2 151.8,221.7 				"/>
			</g>
			<g>
				<g>
					<path class="st7" d="M223.8,155.7c0.2-0.1,0.4-0.1,0.6,0.1c0.6,0.4,1,1.1,1,1.9c0,0.3-0.1,0.6-0.3,0.8l-4.4,2.5l-1.2-2.8
						L223.8,155.7z"/>
					<path class="st8" d="M219.1,158.9c0,0.8,0.4,1.5,1,1.9c0.6,0.3,1,0,1-0.8c0-0.8-0.4-1.5-1-1.9
						C219.5,157.9,219.1,158.2,219.1,158.9z"/>
					<path class="st8" d="M219.5,159.2c0,0.4,0.2,0.8,0.6,1.1c0.3,0.2,0.6,0,0.6-0.4c0-0.4-0.2-0.8-0.6-1.1
						C219.7,158.6,219.5,158.8,219.5,159.2z"/>
				</g>
				<g>
					<path class="st9" d="M211,151.3l-45.9,26.4L211,151.3c1.6-0.7,3.4-0.5,4.8,0.5c4.3,2.5,7.7,9.1,7.7,14.7c0,3.1-1,5.2-2.6,6.2
						l-71.3,40.9l-9.9-21.4C139.7,192.2,210.9,151.4,211,151.3z"/>
					
						<linearGradient id="SVGID_57_" gradientUnits="userSpaceOnUse" x1="136.9417" y1="79.0118" x2="152.3696" y2="79.0118" gradientTransform="matrix(1 0 0 -1 2.752481e-03 282.0064)">
						<stop  offset="0" style="stop-color:#FFFFFF"/>
						<stop  offset="1" style="stop-color:#DFD0E7"/>
					</linearGradient>
					<path class="st73" d="M140,192.1c3.4-1.4,8.2,2.3,10.8,8.3c2.6,6,1.9,12.1-1.5,13.5c-3.4,1.4-8.2-2.3-10.8-8.3
						C135.9,199.6,136.6,193.5,140,192.1z"/>
					
						<linearGradient id="SVGID_58_" gradientUnits="userSpaceOnUse" x1="138.4" y1="78.7322" x2="149.73" y2="78.7322" gradientTransform="matrix(1 0 0 -1 0 282)">
						<stop  offset="0" style="stop-color:#9DA1D0"/>
						<stop  offset="1" style="stop-color:#CFBEDD"/>
					</linearGradient>
					<path class="st74" d="M138.4,200c0,4.2,2.5,9,5.7,10.8s5.7-0.1,5.7-4.3s-2.5-9-5.7-10.8S138.4,195.8,138.4,200z"/>
					<path class="st52" d="M140.1,201.3c0,2.8,1.7,5.9,3.7,7.1s3.7-0.1,3.7-2.8s-1.7-5.9-3.7-7.1S140.1,198.5,140.1,201.3z"/>
				</g>
				<g>
					<path class="st53" d="M142.9,202.4c0.2-0.1,0.4-0.1,0.6,0.1c0.6,0.4,1,1.1,1,1.9c0,0.3-0.1,0.6-0.3,0.8l-4.4,2.5l-1.2-2.8
						L142.9,202.4z"/>
					<path class="st8" d="M138.2,205.6c0,0.8,0.4,1.5,1,1.9c0.5,0.3,1,0,1-0.7c0-0.8-0.4-1.5-1-1.9
						C138.7,204.6,138.2,204.9,138.2,205.6z"/>
					<path class="st8" d="M138.6,205.9c0,0.4,0.2,0.8,0.6,1.1c0.3,0.2,0.6,0,0.6-0.4c0-0.4-0.2-0.8-0.6-1.1
						C138.9,205.3,138.6,205.5,138.6,205.9z"/>
				</g>
			</g>
			<g>
				
					<linearGradient id="SVGID_59_" gradientUnits="userSpaceOnUse" x1="138.945" y1="86.56" x2="138.945" y2="48.56" gradientTransform="matrix(1 0 0 -1 0 282)">
					<stop  offset="0" style="stop-color:#D64C47"/>
					<stop  offset="1" style="stop-color:#D62D29"/>
				</linearGradient>
				<polygon class="st75" points="148,233.4 129.9,223 129.9,195.4 148,205.9 				"/>
				
					<linearGradient id="SVGID_60_" gradientUnits="userSpaceOnUse" x1="129.86" y1="82.435" x2="151.82" y2="82.435" gradientTransform="matrix(1 0 0 -1 0 282)">
					<stop  offset="0" style="stop-color:#F58B86"/>
					<stop  offset="0.39" style="stop-color:#F48681"/>
					<stop  offset="0.85" style="stop-color:#F17973"/>
					<stop  offset="1" style="stop-color:#F0736D"/>
				</linearGradient>
				<polygon class="st76" points="151.8,203.8 133.7,193.2 129.9,195.4 148,205.9 				"/>
			</g>
			
				<linearGradient id="SVGID_61_" gradientUnits="userSpaceOnUse" x1="191.935" y1="48.56" x2="191.935" y2="127.16" gradientTransform="matrix(1 0 0 -1 0 282)">
				<stop  offset="0" style="stop-color:#E44D4F"/>
				<stop  offset="0.31" style="stop-color:#E65253"/>
				<stop  offset="0.67" style="stop-color:#EA605E"/>
				<stop  offset="1" style="stop-color:#F0736D"/>
			</linearGradient>
			<polygon class="st77" points="232,157 232,175.2 151.8,221.5 151.8,203.8 148,205.9 148,233.4 151.8,231.2 151.8,225.1 
				232,178.8 232,184.5 235.8,182.3 235.8,154.8 			"/>
		</g>
		<g>
			<polygon class="st8" points="82.1,172.1 89.5,176.3 93.7,163.3 86.3,159.1 			"/>
			<polygon class="st8" points="81.8,172 89.2,176.2 93.4,163.1 86,158.9 			"/>
			<polygon class="st9" points="82.7,170.8 89,174.3 92.5,163.2 86.2,159.6 			"/>
			<path class="st11" d="M83.9,165.4l-0.5,1.4c0.4,0.2,0.7,0.4,1.1,0.7c0.3,0.3,0,0.5-0.3,0.5c-0.5,0.1-0.9,0.1-1.4,0l-0.6-0.2
				l-0.9-1.5C82.1,165.7,83,165.4,83.9,165.4z"/>
			<path class="st11" d="M91,171.4c-0.4-0.2-0.9-0.3-1.4-0.4c-0.4,0-0.5,0.2-0.4,0.4c0.1,0.2,0.3,0.3,0.5,0.4c0.3,0.3,0.6,0.6,0.9,1
				c0.3,0.3,0.4,0.7,0.5,1.1c0,0-0.4,1.8,0.5,1c1.1-1,1.8-3,1.3-4c-0.3-0.6-0.7-1.1-1.2-1.5L91,171.4z"/>
			
				<linearGradient id="SVGID_62_" gradientUnits="userSpaceOnUse" x1="67.9004" y1="117.3135" x2="73.24" y2="117.3135" gradientTransform="matrix(1 0 0 -1 0 282)">
				<stop  offset="0" style="stop-color:#BDB3D9"/>
				<stop  offset="1" style="stop-color:#CFBEDD"/>
			</linearGradient>
			<path class="st78" d="M72.2,160.4c-1.4-0.4-2.9,0.2-3.6,1.5c-1.3,2.3-0.3,5.8,0.5,7s4.2-2.4,4.2-2.4L72.2,160.4z"/>
			<g>
				<path class="st11" d="M75,223.1c1.3-0.6,2.5-1.4,2.1-2.1c-0.2-0.3-0.6-0.5-1-0.5c-0.6,0.2-1.3,0.3-2,0.3c0,0,0.8-12,0.8-15.4
					c0-0.9-4.2-1.6-4.2-1.6c-0.4,1.5-0.6,3-0.6,4.5c0,4,0.7,9.9,0.9,12.2c0,0.8-0.1,1.6-0.4,2.4l1.4,0.6
					C73,223.8,74.1,223.7,75,223.1z"/>
				<path class="st7" d="M70.6,224.7c0.4,1,1.4,0.9,3.4,0.2c1.6-0.5,3.1-1.3,4.5-2.3c1.2-0.9,1.3-1,1.4-1.7c0.2-0.9-1-1.4-3.2-0.7
					l-0.6,0.2c0.4,0,0.8,0.2,1,0.5c0.4,0.7-0.8,1.5-2.1,2.1c-0.9,0.5-2,0.7-2.9,0.4l-1.4-0.6C70.5,223.7,70.3,224.1,70.6,224.7z"/>
			</g>
			<g>
				<path class="st11" d="M81.1,226.7c1.3-0.6,2.5-1.4,2.1-2.1c-0.2-0.3-0.6-0.5-1-0.5c-0.6,0.2-1.2,0.4-1.8,0.4
					c-0.3-3.3-0.3-6.6-0.2-9.9c0.2-3.4,0.5-6.8,1.1-10.2c0.2-0.9-4.4-1-4.4-1c-0.1,0.2-1.5,3.8-1.5,5.8c0,4.7,1.5,12.4,1.7,14.8
					c0,0.8-0.1,1.6-0.3,2.4l1.4,0.6C79.2,227.4,80.2,227.2,81.1,226.7z"/>
				<path class="st7" d="M76.8,228.3c0.4,1,1.4,0.9,3.4,0.2c1.6-0.5,3.1-1.3,4.5-2.3c1.2-0.9,1.3-1.1,1.4-1.7c0.2-0.9-1-1.4-3.2-0.7
					l-0.6,0.2c0.4,0,0.8,0.2,1,0.5c0.4,0.7-0.8,1.5-2.1,2.1c-0.9,0.6-2,0.7-3,0.4l-1.4-0.6C76.7,227.3,76.5,227.7,76.8,228.3z"/>
			</g>
			<path class="st11" d="M76.5,149.3c0.5,0.4,2.5,0.8,3,5.1c0.5,3.8-0.3,4.8-1.1,5.1c-0.7,0.1-1.3,0.2-2,0.2l0.1,3.2
				c-1.2,0.4-2.5,0.4-3.7,0l-1.7-0.7c0.5-1,0.7-2.2,0.6-3.3c-0.2-2.6-1.1-6.4-0.4-7.8c0.8-1.9,3-2.8,4.9-2
				C76.2,149.1,76.4,149.2,76.5,149.3z"/>
			<path class="st9" d="M68.4,167.4c0.8-6.3,2.5-6.6,2.5-6.6s4.8,1.2,6.2,1.7s2.4,1.1,3.7,3.7s-0.3,6.4-0.3,6.4
				c-0.2,2.4-0.1,4.8,0.2,7.2c0.4,2.9,0.7,3.1,1.8,7.7c0.6,2.4,2.8,11.2,3.1,18.1c0,0-1.7,2.6-7.5,3c-4,0.3-10.7-3.8-10.7-3.8
				s-0.9-17.2,1.5-23.2C70.4,177.4,68,170.6,68.4,167.4z"/>
			<path class="st23" d="M76.7,155.6c-1.1,1.1-2.1,1.5-2.4,2.5c-3.8,0-5.4-2-6.2-5.8c1.4-2.3,3.2-4,5.1-4.4c4.6-1,6.4,1.1,6.1,4.2
				C79.2,153.5,77.8,154.4,76.7,155.6z"/>
			<path class="st11" d="M78.8,164.5c2.1,0.2,6,9.3,6,9.3l0.5,0.1c0.2,1.2,0.2,2.5,0.1,3.7c-0.7,0-1.4-0.1-2-0.4
				c0,0-6.5-5.3-6.6-8.4C76.7,166.4,77.8,164.4,78.8,164.5z"/>
			<path class="st11" d="M78.4,155c0,0-1.1-1.9-1.6,0c-0.3,1,0.2,2,1.1,2.4L78.4,155z"/>
			<g>
				<path class="st9" d="M79.7,153.5c0.6-1.2,0.8-2.5,0.7-3.9c-0.2-2.4-2.7-4.4-6.6-3.5s-5.4,3.4-6.2,6.1s-0.5,5.2,1.7,5.9
					s5.7,1,7-0.8C77.3,156,78.4,154.7,79.7,153.5z"/>
				
					<linearGradient id="SVGID_63_" gradientUnits="userSpaceOnUse" x1="78.8075" y1="127.47" x2="78.8075" y2="131.42" gradientTransform="matrix(1 0 0 -1 0 282)">
					<stop  offset="0" style="stop-color:#BDB3D9"/>
					<stop  offset="1" style="stop-color:#CFBEDD"/>
				</linearGradient>
				<path class="st79" d="M79.3,150.6c0,0-0.1,1.5-0.2,2.3c-0.1,0.6-0.2,1.2-0.5,1.7c-0.3-0.6-0.4-1.3-0.2-2L79.3,150.6z"/>
				
					<linearGradient id="SVGID_64_" gradientUnits="userSpaceOnUse" x1="77.1373" y1="126.36" x2="77.1373" y2="129.65" gradientTransform="matrix(1 0 0 -1 0 282)">
					<stop  offset="0" style="stop-color:#BDB3D9"/>
					<stop  offset="1" style="stop-color:#CFBEDD"/>
				</linearGradient>
				<path class="st80" d="M77.1,152.4c0,0,0.4,1.4,0.5,2.2c0.1,0.4,0.1,0.7,0.1,1.1c-0.5-0.1-0.9-0.4-1-0.9
					C76.6,153.9,76.8,153.1,77.1,152.4z"/>
				
					<linearGradient id="SVGID_65_" gradientUnits="userSpaceOnUse" x1="75.095" y1="124.7" x2="75.095" y2="125.72" gradientTransform="matrix(1 0 0 -1 0 282)">
					<stop  offset="0" style="stop-color:#BDB3D9"/>
					<stop  offset="1" style="stop-color:#CFBEDD"/>
				</linearGradient>
				<path class="st81" d="M73.2,156.9c0.6,0,1.2-0.1,1.7-0.3c0.6-0.2,1.3-0.3,2-0.3c-0.6,0.6-1.4,1-2.3,1
					C73.4,157.1,73.2,156.9,73.2,156.9z"/>
				
					<linearGradient id="SVGID_66_" gradientUnits="userSpaceOnUse" x1="76.91" y1="127.31" x2="79.97" y2="127.31" gradientTransform="matrix(1 0 0 -1 0 282)">
					<stop  offset="0" style="stop-color:#BDB3D9"/>
					<stop  offset="1" style="stop-color:#CFBEDD"/>
				</linearGradient>
				<path class="st82" d="M80,152.8l-0.3,1c-0.5,0.3-1,0.7-1.3,1.2c-0.4,0.6-0.9,1.1-1.5,1.5c0.5-1.1,1.2-2.1,2-2.9
					C79.2,153.3,79.6,153,80,152.8z"/>
				
					<linearGradient id="SVGID_67_" gradientUnits="userSpaceOnUse" x1="67.8815" y1="129.91" x2="78.8115" y2="129.91" gradientTransform="matrix(1 0 0 -1 0 282)">
					<stop  offset="0" style="stop-color:#FFFFFF"/>
					<stop  offset="1" style="stop-color:#DFD0E7"/>
				</linearGradient>
				<path class="st83" d="M76.8,146.7c1.5,0,2.2,0.8,2,1.4s-1,0.9-1.9,1.5c-1.4,1.1-2.3,2.6-2.6,4.4c-0.3,1.8-1.8,3.2-3.6,3.4
					c-1.5,0-2.3-0.2-2.6-1.6s-0.2-2.4,0.7-1.9c1.8,1,3.7,1.2,4.2-1.1s1.8-2.9,2.8-3.9S75,146.7,76.8,146.7z"/>
			</g>
			
				<linearGradient id="SVGID_68_" gradientUnits="userSpaceOnUse" x1="70.9" y1="120.625" x2="78.33" y2="120.625" gradientTransform="matrix(1 0 0 -1 0 282)">
				<stop  offset="0" style="stop-color:#BDB3D9"/>
				<stop  offset="1" style="stop-color:#CFBEDD"/>
			</linearGradient>
			<path class="st84" d="M78.3,163.1c-0.9-1.3-2.2-2.2-3.8-2.6c-1-0.2-2-0.5-3-0.8l-0.6,1.1C73.4,161.7,75.8,162.5,78.3,163.1z"/>
			
				<linearGradient id="SVGID_69_" gradientUnits="userSpaceOnUse" x1="76.0928" y1="110.884" x2="91.7528" y2="110.884" gradientTransform="matrix(1 0 0 -1 0 282)">
				<stop  offset="0" style="stop-color:#BDB3D9"/>
				<stop  offset="1" style="stop-color:#CFBEDD"/>
			</linearGradient>
			<path class="st85" d="M78.3,164.3c1-0.4,1.8,0.4,2.7,1.6s3.7,6.7,4.1,6.9s0.6-0.4,1.3,0c0.5,0.3,1.1,0.3,1.6,0.1
				c0.8-0.2,1.5-0.3,2.3-0.3c1.1,0.4,1.7,1.6,1.3,2.7c0,0.1-0.1,0.3-0.2,0.4c-1,0.4-3,1.3-5.3,2.1c-1.4,0.5-2.5,0.7-3.8,0
				s-5.6-5-6.1-7.1S76,165.2,78.3,164.3z"/>
		</g>
	</g>
</g>
</svg>
