<svg xmlns="http://www.w3.org/2000/svg" width="364" height="363.998" viewBox="0 0 364 363.998">
  <g id="Grupo_45993" data-name="Grupo 45993" transform="translate(-233 -6257)">
    <g id="tela_14_" data-name="tela (14)" transform="translate(233 6257)">
      <path id="Trazado_71418" data-name="Trazado 71418" d="M100,412v41.234l45.5,22.75v-38.39Zm0,0" transform="translate(-28.906 -119.095)" fill="#fff"/>
      <path id="Trazado_71419" data-name="Trazado 71419" d="M100.291,352.6,44.1,370.287l108.162,56.7,208-64.284-41.642-21.828-151.423,46.8Zm0,0" transform="translate(-12.748 -98.535)" fill="#4dbaf6"/>
      <path id="Trazado_71420" data-name="Trazado 71420" d="M50,291.345l107.354,56.278,213.988-66.136-40.9-21.436L182.406,305.8l-25.052-13.13-3.385,1.044L112.14,271.789Zm0,0" transform="translate(-14.453 -75.172)" fill="#72d8ff"/>
      <path id="Trazado_71421" data-name="Trazado 71421" d="M131.68,67,94,104.68h4.266v2.133h19.2v66.358l26.3,6.437V104.679h25.594Zm0,0" transform="translate(-27.172 -19.367)" fill="#c9f3ff"/>
      <path id="Trazado_71422" data-name="Trazado 71422" d="M446.575,45.117l-10.8-13.738a3.387,3.387,0,0,0-1.372,1.047L412.767,60.208h0a31.351,31.351,0,0,0-4.049,33.261,31.429,31.429,0,0,0,37.835-48.352Zm0,0" transform="translate(-117.274 -9.071)" fill="#ade5ff"/>
      <path id="Trazado_71423" data-name="Trazado 71423" d="M329.442,125.239,318.878,111.8l-21.111,27.107h0a31.348,31.348,0,0,0-2.485,36.155,31.507,31.507,0,0,0,41.343-29.834,31.219,31.219,0,0,0-7.2-19.989Zm0,0" transform="translate(-84.031 -32.318)" fill="#4dbaf6"/>
      <path id="Trazado_71424" data-name="Trazado 71424" d="M266.2,134.527l-2.9.894a31.469,31.469,0,1,1-58.694,18.14L54,200.108,160.3,255.83l212.2-65.581Zm0,0" transform="translate(-15.609 -38.887)" fill="#c9f3ff"/>
      <path id="Trazado_71425" data-name="Trazado 71425" d="M363.968,218.528a7.106,7.106,0,0,0-3.777-6.945L309.5,185.012l49.488-15.293a7.108,7.108,0,0,0,1.2-13.088L250.069,98.9,229.274,72.454A10.459,10.459,0,0,0,221,68.438h-.022A10.462,10.462,0,0,0,212.7,72.5l-17.665,22.68-71.332,22.047v-14.66H142.19a7.109,7.109,0,0,0,5.027-12.136L98.873,42.084a7.115,7.115,0,0,0-10.056,0L40.474,90.427A7.109,7.109,0,0,0,45.5,102.563H63.984V135.68L5.01,153.906a7.11,7.11,0,0,0-1.2,13.088l50.354,26.4L4.977,208.87a7.11,7.11,0,0,0-1.166,13.08l50.351,26.393L4.977,263.823A7.11,7.11,0,0,0,3.811,276.9l60.174,31.542V345.7a7.112,7.112,0,0,0,3.93,6.36l45.5,22.75a7.109,7.109,0,0,0,10.289-6.36v-28.7l12.514,6.559a7.1,7.1,0,0,0,5.4.5l81.071-25.055a7.11,7.11,0,0,0-4.2-13.586l-78.267,24.188-114.66-60.1L65.5,259.679v14.813a7.109,7.109,0,1,0,14.219,0v-12.75l29.762,15.6v15.749a7.109,7.109,0,1,0,14.219,0v-8.3l12.514,6.559a7.082,7.082,0,0,0,5.4.494l148.621-45.93,48.091,25.21L272.9,291.352a7.11,7.11,0,1,0,4.2,13.586l81.893-25.31a7.11,7.11,0,0,0,1.2-13.088L309.5,239.967l49.488-15.3a7.109,7.109,0,0,0,4.979-6.143ZM78.2,315.9l31.281,16.4V356.95L78.2,341.309ZM202.18,109.145c.069-.083.133-.167.2-.253l18.637-23.933,18.518,23.55c.119.175.247.344.386.511a24.348,24.348,0,1,1-43.2,15.454,23.978,23.978,0,0,1,5.465-15.33ZM25.672,162.4l38.313-11.842v11.25a7.109,7.109,0,0,0,14.219,0V95.454a7.109,7.109,0,0,0-7.109-7.109H62.665L93.844,57.166l31.181,31.178h-8.431a7.111,7.111,0,0,0-7.109,7.109V179.7a7.109,7.109,0,1,0,14.219,0V132.106l60.427-18.673a38.6,38.6,0,1,0,75.292,6.426l78.905,41.365L140.221,222.45,106.352,204.7l-30.34-15.9-.025-.014ZM288.84,231.47a.157.157,0,0,1-.033.011L140.221,277.4,25.561,217.3,65.5,204.727v13.719a7.109,7.109,0,0,0,14.219,0V206.79L98.7,216.738l10.786,5.654v15.779a7.109,7.109,0,1,0,14.219,0v-8.326l12.514,6.559.019.008a7.606,7.606,0,0,0,.705.317c.075.031.153.053.23.081.175.061.35.117.528.164.089.022.175.044.264.064.178.039.358.069.539.1.081.011.161.025.244.033.225.025.453.039.68.042.031,0,.058.006.089.006h.011a7.085,7.085,0,0,0,.939-.072c.072-.008.144-.019.219-.033a7.253,7.253,0,0,0,.93-.211l148.621-45.933,48.091,25.21Zm0,0" transform="translate(0 -11.563)"/>
      <path id="Trazado_71426" data-name="Trazado 71426" d="M345.589,404.949a7.111,7.111,0,1,0,5.027,2.083A7.161,7.161,0,0,0,345.589,404.949Zm0,0" transform="translate(-97.843 -117.057)"/>
      <path id="Trazado_71427" data-name="Trazado 71427" d="M413.3,94.554a38.5,38.5,0,0,0,30.1-62.646c-.064-.086-.131-.172-.194-.258L421.476,4.018A10.462,10.462,0,0,0,413.206,0h-.025A10.466,10.466,0,0,0,404.9,4.057L383.266,31.839v0A38.5,38.5,0,0,0,413.3,94.554Zm-18.92-53.848c.069-.083.133-.167.2-.253l18.637-23.933,18.518,23.55c.119.175.247.344.386.511a24.348,24.348,0,1,1-43.2,15.457,23.98,23.98,0,0,1,5.465-15.332Zm0,0" transform="translate(-108.313 0)"/>
    </g>
  </g>
</svg>
