<svg xmlns="http://www.w3.org/2000/svg" width="174" height="181" viewBox="0 0 174 181">
  <g id="Grupo_46013" data-name="Grupo 46013" transform="translate(8945 -4785)">
    <path id="Trazado_71715" data-name="Trazado 71715" d="M10,0H164a10,10,0,0,1,10,10V171a10,10,0,0,1-10,10H10A10,10,0,0,1,0,171V10A10,10,0,0,1,10,0Z" transform="translate(-8945 4785)" fill="#fff7de"/>
    <path id="Trazado_71717" data-name="Trazado 71717" d="M-14.458,0h-4.361V-11.73q0-1.9.164-4.2h-.109a20.654,20.654,0,0,1-.615,2.6L-23.974,0h-3.609l-4.676-13.193a25.672,25.672,0,0,1-.615-2.734H-33q.178,2.9.178,5.086V0H-36.8V-19.605h6.467l4.006,11.621a16.362,16.362,0,0,1,.7,2.8h.082a28.221,28.221,0,0,1,.779-2.83l4.006-11.594h6.3ZM-3.753.342a7.526,7.526,0,0,1-5.5-1.962,7.113,7.113,0,0,1-2-5.325A7.113,7.113,0,0,1-9.181-12.38a7.852,7.852,0,0,1,5.619-1.962A7.435,7.435,0,0,1,1.907-12.38,6.974,6.974,0,0,1,3.89-7.191a7.4,7.4,0,0,1-2.044,5.51A7.609,7.609,0,0,1-3.753.342Zm.109-11.375A2.882,2.882,0,0,0-6.022-9.98,4.642,4.642,0,0,0-6.87-7q0,4.033,3.254,4.033,3.1,0,3.1-4.143Q-.513-11.033-3.644-11.033Zm19.469.93a3.748,3.748,0,0,0-1.818-.424,2.62,2.62,0,0,0-2.2,1.032,4.5,4.5,0,0,0-.793,2.81V0H6.692V-14h4.32v2.6h.055a3.737,3.737,0,0,1,3.691-2.844,2.782,2.782,0,0,1,1.066.164ZM29.483,0H25.4V-2.01h-.055A4.563,4.563,0,0,1,21.171.342,4.362,4.362,0,0,1,17.965-.813,4.14,4.14,0,0,1,16.8-3.9q0-4.074,4.826-4.7l3.8-.506q0-2.3-2.488-2.3a8.493,8.493,0,0,0-4.758,1.49v-3.254a10.7,10.7,0,0,1,2.468-.82,12.972,12.972,0,0,1,2.851-.355q5.988,0,5.988,5.975ZM25.423-5.687v-.943L22.88-6.3q-2.105.273-2.105,1.9a1.57,1.57,0,0,0,.513,1.21,1.97,1.97,0,0,0,1.388.472,2.558,2.558,0,0,0,1.982-.841A3.037,3.037,0,0,0,25.423-5.687ZM37.222,0H32.9V-20.727h4.32ZM-38.192,30H-42.5V22.016q0-3.049-2.242-3.049a2.06,2.06,0,0,0-1.736.916,3.764,3.764,0,0,0-.67,2.283V30h-4.32V21.934q0-2.967-2.2-2.967a2.11,2.11,0,0,0-1.771.875,3.85,3.85,0,0,0-.663,2.379V30h-4.32V16h4.32v2.188h.055a5.165,5.165,0,0,1,1.88-1.825,5.167,5.167,0,0,1,2.646-.7,4.031,4.031,0,0,1,4.061,2.611,5.179,5.179,0,0,1,4.7-2.611q4.566,0,4.566,5.633Zm16-5.77h-9.133q.219,3.049,3.842,3.049a7.5,7.5,0,0,0,4.061-1.094V29.3a10.667,10.667,0,0,1-5.045,1.039,7.1,7.1,0,0,1-5.264-1.88,7.1,7.1,0,0,1-1.873-5.243A7.492,7.492,0,0,1-33.585,17.7a6.741,6.741,0,0,1,4.977-2.037,6.118,6.118,0,0,1,4.737,1.818A7,7,0,0,1-22.2,22.412ZM-26.2,21.578q0-3.008-2.434-3.008a2.324,2.324,0,0,0-1.8.861,3.909,3.909,0,0,0-.923,2.146Zm8.764-7.793a2.523,2.523,0,0,1-1.791-.649,2.092,2.092,0,0,1-.7-1.593,2.018,2.018,0,0,1,.7-1.586,2.607,2.607,0,0,1,1.791-.615,2.6,2.6,0,0,1,1.8.615,2.027,2.027,0,0,1,.69,1.586,2.084,2.084,0,0,1-.69,1.613A2.566,2.566,0,0,1-17.438,13.785Zm2.133,15.969a7.61,7.61,0,0,1-1.518,4.963A5.321,5.321,0,0,1-21.2,36.576a6.049,6.049,0,0,1-2.064-.41V32.775a3.365,3.365,0,0,0,1.6.506q2.037,0,2.037-3.2V16h4.32ZM-5,30.342a7.526,7.526,0,0,1-5.5-1.962,7.113,7.113,0,0,1-2-5.325,7.113,7.113,0,0,1,2.078-5.435,7.852,7.852,0,0,1,5.619-1.962A7.435,7.435,0,0,1,.663,17.62a6.974,6.974,0,0,1,1.982,5.188A7.4,7.4,0,0,1,.6,28.318,7.609,7.609,0,0,1-5,30.342Zm.109-11.375A2.882,2.882,0,0,0-7.267,20.02,4.642,4.642,0,0,0-8.114,23q0,4.033,3.254,4.033,3.1,0,3.1-4.143Q-1.757,18.967-4.888,18.967Zm19.469.93a3.748,3.748,0,0,0-1.818-.424,2.62,2.62,0,0,0-2.2,1.032,4.5,4.5,0,0,0-.793,2.81V30H5.448V16h4.32v2.6h.055a3.737,3.737,0,0,1,3.691-2.844,2.782,2.782,0,0,1,1.066.164ZM28.239,30H24.151V27.99H24.1a4.563,4.563,0,0,1-4.17,2.352,4.362,4.362,0,0,1-3.206-1.155A4.14,4.14,0,0,1,15.552,26.1q0-4.074,4.826-4.7l3.8-.506q0-2.3-2.488-2.3a8.493,8.493,0,0,0-4.758,1.49V16.834a10.7,10.7,0,0,1,2.468-.82,12.972,12.972,0,0,1,2.851-.355q5.988,0,5.988,5.975Zm-4.061-5.687v-.943l-2.543.328q-2.105.273-2.105,1.9a1.57,1.57,0,0,0,.513,1.21,1.97,1.97,0,0,0,1.388.472,2.558,2.558,0,0,0,1.982-.841A3.037,3.037,0,0,0,24.179,24.313ZM45.356,30h-4.32V28.072h-.055a4.844,4.844,0,0,1-4.334,2.27,5.308,5.308,0,0,1-4.225-1.853,7.669,7.669,0,0,1-1.6-5.175,8.347,8.347,0,0,1,1.764-5.564,5.753,5.753,0,0,1,4.621-2.092A3.931,3.931,0,0,1,40.981,17.6h.055V9.273h4.32Zm-4.238-6.809V22.139a3.313,3.313,0,0,0-.793-2.27,2.8,2.8,0,0,0-4.307.226,5.238,5.238,0,0,0-.807,3.1,4.532,4.532,0,0,0,.779,2.844,2.767,2.767,0,0,0,4.3-.055A4.388,4.388,0,0,0,41.118,23.191ZM60.642,30H56.554V27.99H56.5a4.563,4.563,0,0,1-4.17,2.352,4.362,4.362,0,0,1-3.206-1.155A4.14,4.14,0,0,1,47.954,26.1q0-4.074,4.826-4.7l3.8-.506q0-2.3-2.488-2.3a8.493,8.493,0,0,0-4.758,1.49V16.834a10.7,10.7,0,0,1,2.468-.82,12.972,12.972,0,0,1,2.851-.355q5.988,0,5.988,5.975Zm-4.061-5.687v-.943l-2.543.328q-2.105.273-2.105,1.9a1.57,1.57,0,0,0,.513,1.21,1.97,1.97,0,0,0,1.388.472,2.558,2.558,0,0,0,1.982-.841A3.037,3.037,0,0,0,56.581,24.313Z" transform="translate(-8858 4915)" fill="#361274"/>
    <g id="morality" transform="translate(-8896.938 4803)">
      <path id="Trazado_30683" data-name="Trazado 30683" d="M442.871,199.544l-1.263-4.424-.222-1-2.068.7.179.8c0,.021.01.041.016.062l1.272,4.455a1.085,1.085,0,1,0,2.087-.6Z" transform="translate(-372.335 -166.037)" fill="#e5e1e5"/>
      <g id="Grupo_45595" data-name="Grupo 45595" transform="translate(67.866 32.497)">
        <path id="Trazado_30684" data-name="Trazado 30684" d="M450.883,244.836a1.085,1.085,0,0,1-1.047-.8l-.764-2.822c0-.016-.008-.032-.012-.047l-2.795-12.536-.794-2.618a1.085,1.085,0,1,1,2.077-.63l.806,2.657c.008.026.015.052.021.079l2.8,12.552.757,2.8a1.086,1.086,0,0,1-1.048,1.369Z" transform="translate(-445.425 -224.611)" fill="#e5e1e5"/>
      </g>
      <path id="Trazado_30685" data-name="Trazado 30685" d="M43,190.986l-.324,1.455L41.4,197.056a1.085,1.085,0,1,0,2.092.577l1.28-4.641c0-.017.009-.035.013-.052l.308-1.381Z" transform="translate(-31.954 -163.354)" fill="#e5e1e5"/>
      <g id="Grupo_45596" data-name="Grupo 45596" transform="translate(6.346 31.415)">
        <path id="Trazado_30686" data-name="Trazado 30686" d="M21.293,235.619a1.086,1.086,0,0,1-1.06-1.322l2.8-12.576.87-3.748a1.085,1.085,0,0,1,2.114.491l-.868,3.739-2.8,12.567A1.085,1.085,0,0,1,21.293,235.619Z" transform="translate(-20.206 -217.134)" fill="#e5e1e5"/>
      </g>
      <g id="XMLID_552_" transform="translate(4.001 13.942)">
        <g id="Grupo_45597" data-name="Grupo 45597" transform="translate(0)">
          <path id="Trazado_30687" data-name="Trazado 30687" d="M75.846,115.155a3.381,3.381,0,0,1-3.381,3.381H49.342a.9.9,0,0,0-.9.9l.308,31.322H31.408V119.439a.9.9,0,0,0-.9-.9H7.382a3.381,3.381,0,0,1,0-6.762H31.194l2.594-3.367V96.367H46.059v12.04l2.594,3.367H72.465A3.382,3.382,0,0,1,75.846,115.155Z" transform="translate(-4.001 -96.367)" fill="#e8ad8c"/>
        </g>
      </g>
      <g id="Grupo_45605" data-name="Grupo 45605" transform="translate(20.291 0)">
        <path id="Trazado_30688" data-name="Trazado 30688" d="M209.881,107.845a14.811,14.811,0,0,0,12.272,0V96.368H209.881Z" transform="translate(-196.384 -82.426)" fill="#e19974"/>
        <circle id="Elipse_718" data-name="Elipse 718" cx="11.929" cy="11.929" r="11.929" transform="translate(7.704 0)" fill="#fef48b"/>
        <path id="Trazado_30689" data-name="Trazado 30689" d="M175.211,11.929A11.94,11.94,0,0,1,184.462.3a11.93,11.93,0,1,0-2.69,23.553,12.063,12.063,0,0,0,2.7-.306A11.942,11.942,0,0,1,175.211,11.929Z" transform="translate(-162.139 0)" fill="#fef056"/>
        <g id="XMLID_551_" transform="translate(18.547 52.977)">
          <g id="Grupo_45599" data-name="Grupo 45599">
            <g id="Grupo_45598" data-name="Grupo 45598">
              <path id="Trazado_30690" data-name="Trazado 30690" d="M245.876,383.119a1.085,1.085,0,0,1-1.085-1.085V367.253a1.085,1.085,0,1,1,2.17,0v14.781A1.085,1.085,0,0,1,245.876,383.119Z" transform="translate(-244.791 -366.168)" fill="#e19974"/>
            </g>
          </g>
        </g>
        <path id="Trazado_30691" data-name="Trazado 30691" d="M167.56,446.907H137.026a1.732,1.732,0,0,0-1.732,1.732v5.622h34v-5.622A1.733,1.733,0,0,0,167.56,446.907Z" transform="translate(-132.588 -382.249)" fill="#dc8758"/>
        <g id="Grupo_45600" data-name="Grupo 45600" transform="translate(0 70.835)">
          <path id="Trazado_30692" data-name="Trazado 30692" d="M154.919,491.767h-37.24a1.085,1.085,0,1,1,0-2.17h37.24a1.085,1.085,0,1,1,0,2.17Z" transform="translate(-116.594 -489.597)" fill="#d77f4a"/>
        </g>
        <g id="Grupo_45602" data-name="Grupo 45602" transform="translate(14.06 3.154)">
          <g id="Grupo_45601" data-name="Grupo 45601">
            <path id="Trazado_30693" data-name="Trazado 30693" d="M219.347,35.182a1.085,1.085,0,0,1-1.085-1.085v-1.8a1.536,1.536,0,0,1,1.4-1.531,3.4,3.4,0,1,0-3.722-3.388,1.085,1.085,0,1,1-2.17,0,5.593,5.593,0,0,1,1.771-4.074,5.529,5.529,0,0,1,4.195-1.485,5.574,5.574,0,0,1,.692,11.027V34.1A1.085,1.085,0,0,1,219.347,35.182Z" transform="translate(-213.774 -21.801)" fill="#f9f7f8"/>
          </g>
        </g>
        <g id="Grupo_45604" data-name="Grupo 45604" transform="translate(18.547 18.025)">
          <g id="Grupo_45603" data-name="Grupo 45603">
            <path id="Trazado_30694" data-name="Trazado 30694" d="M245.876,127.484a1.085,1.085,0,0,1-1.085-1.085v-.729a1.085,1.085,0,1,1,2.17,0v.729A1.085,1.085,0,0,1,245.876,127.484Z" transform="translate(-244.791 -124.585)" fill="#f9f7f8"/>
          </g>
        </g>
        <path id="Trazado_30695" data-name="Trazado 30695" d="M386.191,176.048l2.068-.7-.249-1.119a2.628,2.628,0,0,0-5.13,0l-4.811,21.577-.82,2.787a1.085,1.085,0,1,0,2.082.613l.83-2.822c.007-.023.013-.047.018-.07L385,174.707a.458.458,0,0,1,.894,0" transform="translate(-339.5 -147.267)" fill="#e5e1e5"/>
      </g>
      <path id="Trazado_30696" data-name="Trazado 30696" d="M62.765,195.846l-4.819-21.612a2.628,2.628,0,0,0-5.13,0l-.148.665,2.1.572.171-.765a.458.458,0,0,1,.894,0l4.818,21.612.367,1.727,2.311-.436Z" transform="translate(-41.626 -147.267)" fill="#e5e1e5"/>
      <path id="Trazado_30697" data-name="Trazado 30697" d="M23.328,337.4H5.868a.882.882,0,0,0-.882.882,9.612,9.612,0,0,0,19.224,0,.882.882,0,0,0-.882-.882Z" transform="translate(-0.842 -288.586)" fill="#99e6fc"/>
      <path id="Trazado_30698" data-name="Trazado 30698" d="M368.367,337.4H386.3a.644.644,0,0,1,.644.644v.238a9.612,9.612,0,1,1-19.224,0v-.238A.644.644,0,0,1,368.367,337.4Z" transform="translate(-311.099 -288.586)" fill="#fd8087"/>
    </g>
  </g>
</svg>
