<svg xmlns="http://www.w3.org/2000/svg" width="79" height="79.051" viewBox="0 0 79 79.051">
  <g id="analizar" transform="translate(-0.155 0)">
    <circle id="Elipse_722" data-name="Elipse 722" cx="23.695" cy="23.695" r="23.695" transform="translate(13.337 1.337)" fill="#f73445"/>
    <circle id="Elipse_723" data-name="Elipse 723" cx="18.429" cy="18.429" r="18.429" transform="translate(18.603 6.602)" fill="#dfdeed"/>
    <path id="Trazado_70647" data-name="Trazado 70647" d="M339.8,326.734v-3.028l-2.369-1.053a9.7,9.7,0,0,0-.527-1.843l1.316-2.238a10.952,10.952,0,0,0-1.711-2.369l-2.5.527a10.043,10.043,0,0,0-1.448-1.053l-.263-2.633a11.375,11.375,0,0,0-2.764-.921l-1.711,1.975h-1.843l-1.843-1.975a22.687,22.687,0,0,0-2.764.921l-.263,2.633a5.844,5.844,0,0,0-1.448,1.053l-2.5-.527a26.687,26.687,0,0,0-1.711,2.369l1.316,2.238a7.545,7.545,0,0,0-.527,1.843l-2.369,1.053v3.028l2.369,1.053a9.7,9.7,0,0,0,.527,1.843l-1.316,2.238a10.951,10.951,0,0,0,1.711,2.369l2.5-.527a10.052,10.052,0,0,0,1.448,1.053l.263,2.633a11.372,11.372,0,0,0,2.764.921l1.711-1.975h1.843l1.711,2.106a22.685,22.685,0,0,0,2.764-.921l.263-2.633a5.843,5.843,0,0,0,1.448-1.053l2.5.527A26.68,26.68,0,0,0,338.087,332l-1.316-2.238a7.544,7.544,0,0,0,.527-1.843Z" transform="translate(-262.091 -260.763)" fill="#92b1f9"/>
    <circle id="Elipse_724" data-name="Elipse 724" cx="5.265" cy="5.265" r="5.265" transform="translate(59.41 59.257)" fill="#dfdeed"/>
    <path id="Trazado_70648" data-name="Trazado 70648" d="M229.662,67.908A18.829,18.829,0,0,0,222.027,52.9c-.132,0-.132,0-.263.132l-.658-.658a14.387,14.387,0,0,0-1.975-1.053,12.817,12.817,0,0,0-3.159,1.975l.921,2.633a12.2,12.2,0,0,0-1.843,1.843l-2.633-.921a16.1,16.1,0,0,0-2.238,3.817l2.106,1.843a17.536,17.536,0,0,0-.658,2.5l-2.764.527a12.78,12.78,0,0,0,0,4.476l2.764.527a17.536,17.536,0,0,0,.658,2.5l-2.106,1.843a22.277,22.277,0,0,0,2.238,3.817l2.633-.921a12.2,12.2,0,0,0,1.843,1.843l-.921,2.633a20.75,20.75,0,0,0,3.159,1.975,14.386,14.386,0,0,0,1.975-1.053l.658-.658c.132,0,.132,0,.263.132A17.972,17.972,0,0,0,229.662,67.908Z" transform="translate(-174.201 -42.877)" fill="#92b1f9"/>
    <path id="Trazado_70649" data-name="Trazado 70649" d="M269.306,98.653a18.8,18.8,0,0,0-3.291-10.531,10.551,10.551,0,0,0,0,21.062A18.8,18.8,0,0,0,269.306,98.653Z" transform="translate(-213.846 -73.622)" fill="#fed966"/>
    <path id="Trazado_70650" data-name="Trazado 70650" d="M366.635,93.954a8.812,8.812,0,0,0,0-2.633l-2.106-.921A7.424,7.424,0,0,0,364,88.82l1.185-2.106a8.03,8.03,0,0,0-1.58-2.106l-2.238.527c-.395-.395-.921-.658-1.316-1.053l-.263-2.369a7.941,7.941,0,0,0-2.5-.79l-1.58,1.843h-1.58l-.263-.263a23.717,23.717,0,0,1,0,20.667l.263-.263h1.58l1.58,1.843a13.9,13.9,0,0,0,2.5-.79l.263-2.369a5.154,5.154,0,0,0,1.316-1.053l2.238.527a21.95,21.95,0,0,0,1.58-2.106L364,96.587a7.423,7.423,0,0,0,.527-1.58Z" transform="translate(-295.509 -67.606)" fill="#92b1f9"/>
    <g id="Grupo_45658" data-name="Grupo 45658" transform="translate(1.49 38.327)">
      <path id="Trazado_70651" data-name="Trazado 70651" d="M24.062,281.722,8.266,301.2l6.582,5.265,16.06-19.745Z" transform="translate(-8.266 -273.692)" fill="#f73445"/>
      <path id="Trazado_70652" data-name="Trazado 70652" d="M84.347,232.922l-4.081,5.134,14.48,10.531,4.607-5.66A24.254,24.254,0,0,1,84.347,232.922Z" transform="translate(-68.419 -232.922)" fill="#f73445"/>
    </g>
    <path id="Trazado_70653" data-name="Trazado 70653" d="M332.973,315.719l-1.711-.921c-.132-.263-.132-.527-.263-.79l1.053-1.711a1.2,1.2,0,0,0,0-1.316,18.811,18.811,0,0,0-1.843-2.633,1.192,1.192,0,0,0-1.316-.395l-1.975.395c-.132-.132-.395-.263-.527-.395l-.132-1.975a1.147,1.147,0,0,0-.79-1.053,20.459,20.459,0,0,0-3.028-1.053,1.263,1.263,0,0,0-1.316.395l-1.316,1.58h-.658l-1.316-1.58a1.192,1.192,0,0,0-1.316-.395,11.788,11.788,0,0,0-3.028,1.053c-.395.132-.658.658-.79,1.053l-.132,1.975a1.818,1.818,0,0,0-.527.395l-1.975-.395a1.263,1.263,0,0,0-1.316.395,11.876,11.876,0,0,0-1.843,2.633,1.2,1.2,0,0,0,0,1.316l1.053,1.711c-.132.263-.132.527-.263.79l-1.843.921a1.265,1.265,0,0,0-.79,1.185v3.028a1.151,1.151,0,0,0,.79,1.185l1.843.79c.132.263.132.527.263.79l-1.053,1.711a1.2,1.2,0,0,0,0,1.316,18.81,18.81,0,0,0,1.843,2.633,1.192,1.192,0,0,0,1.316.395l1.975-.395c.132.132.395.263.527.395l.132,1.975a1.147,1.147,0,0,0,.79,1.053,20.459,20.459,0,0,0,3.028,1.053,1.263,1.263,0,0,0,1.316-.395l1.316-1.58h.658l1.316,1.58a1.5,1.5,0,0,0,1.053.395h.263a11.787,11.787,0,0,0,3.028-1.053c.395-.132.658-.658.79-1.053l.132-1.975a1.817,1.817,0,0,0,.527-.395l1.975.395a1.263,1.263,0,0,0,1.316-.395,11.876,11.876,0,0,0,1.843-2.633,1.2,1.2,0,0,0,0-1.316L331,322.7c.132-.263.132-.527.263-.79l1.843-.79a1.265,1.265,0,0,0,.79-1.185V316.9A1.457,1.457,0,0,0,332.973,315.719Zm-1.843,3.291-1.58.658a1.392,1.392,0,0,0-.79.921,7.42,7.42,0,0,1-.526,1.58,1.28,1.28,0,0,0,.132,1.185l.921,1.58a5.575,5.575,0,0,1-.658.921l-1.711-.395a1.343,1.343,0,0,0-1.185.263,4.728,4.728,0,0,1-1.316.921,1.482,1.482,0,0,0-.658,1.053l-.132,1.843c-.395.132-.658.263-1.053.395l-1.185-1.448a1.5,1.5,0,0,0-1.053-.395h-1.843a1.5,1.5,0,0,0-1.053.395l-1.185,1.448c-.395-.132-.658-.263-1.053-.395l-.132-1.843a1.342,1.342,0,0,0-.658-1.053,11.391,11.391,0,0,1-1.316-.921,1.263,1.263,0,0,0-1.185-.263l-1.711.527a4,4,0,0,1-.658-.921l.921-1.58a1.28,1.28,0,0,0,.132-1.185,7.42,7.42,0,0,1-.527-1.58,1.392,1.392,0,0,0-.79-.921l-1.58-.658v-1.316l1.58-.658a1.392,1.392,0,0,0,.79-.921,7.419,7.419,0,0,1,.527-1.58,1.28,1.28,0,0,0-.132-1.185l-.921-1.711c.263-.263.395-.658.658-.921l1.711.395a1.343,1.343,0,0,0,1.185-.263,4.728,4.728,0,0,1,1.316-.921,1.482,1.482,0,0,0,.658-1.053l.132-1.843c.395-.132.658-.263,1.053-.395l1.185,1.448a1.5,1.5,0,0,0,1.053.395h1.843a1.5,1.5,0,0,0,1.053-.395l1.185-1.448c.395.132.658.263,1.053.395l.132,1.843a1.342,1.342,0,0,0,.658,1.053,11.385,11.385,0,0,1,1.316.921,1.263,1.263,0,0,0,1.185.263l1.711-.395a4,4,0,0,1,.658.921l-.921,1.58a1.28,1.28,0,0,0-.132,1.185,7.42,7.42,0,0,1,.526,1.58,1.392,1.392,0,0,0,.79.921l1.58.658Z" transform="translate(-254.739 -253.829)"/>
    <path id="Trazado_70654" data-name="Trazado 70654" d="M358.848,352.122a6.582,6.582,0,1,0,6.582,6.582A6.518,6.518,0,0,0,358.848,352.122Zm0,10.531A3.949,3.949,0,1,1,362.8,358.7,3.879,3.879,0,0,1,358.848,362.653Z" transform="translate(-294.173 -294.182)"/>
    <path id="Trazado_70655" data-name="Trazado 70655" d="M124.011,71.613a19.745,19.745,0,1,0-19.745-19.745A19.719,19.719,0,0,0,124.011,71.613Zm14.48-10.663a9.178,9.178,0,0,1,0-18.166A16.807,16.807,0,0,1,138.491,60.95ZM136.78,40.415a11.762,11.762,0,0,0-8.293,14.48,11.511,11.511,0,0,0,8.293,8.293,15.908,15.908,0,0,1-4.739,3.686c-.527-.263-1.185-.658-1.711-.921l.527-1.711a1.486,1.486,0,0,0-.395-1.448,10.521,10.521,0,0,1-1.711-1.711,1.486,1.486,0,0,0-1.448-.395l-1.711.527-1.185-1.975,1.316-1.185a1.486,1.486,0,0,0,.395-1.448,14.382,14.382,0,0,1-.658-2.238,1.429,1.429,0,0,0-1.053-1.053l-1.711-.395V50.551l1.711-.395a1.429,1.429,0,0,0,1.053-1.053,11.119,11.119,0,0,1,.658-2.238,1.485,1.485,0,0,0-.395-1.448l-1.316-1.185,1.185-1.975,1.711.527a1.486,1.486,0,0,0,1.448-.395,10.521,10.521,0,0,1,1.711-1.711,1.486,1.486,0,0,0,.395-1.448l-.527-1.711a7.092,7.092,0,0,1,1.711-.921A26.2,26.2,0,0,1,136.78,40.415Zm-12.769-5.66a19.761,19.761,0,0,1,4.871.658,4,4,0,0,1-.921.658,1.246,1.246,0,0,0-.395,1.448l.658,1.843-.79.79-1.843-.658a1.405,1.405,0,0,0-1.448.395,18.282,18.282,0,0,0-2.369,4.081,1.059,1.059,0,0,0,.395,1.448l1.448,1.316c-.132.263-.132.658-.263,1.053l-1.843.395a1.282,1.282,0,0,0-1.053,1.316v4.476a1.282,1.282,0,0,0,1.053,1.316l1.843.395c.132.395.132.658.263,1.053l-1.448,1.316a1.485,1.485,0,0,0-.395,1.448,16.146,16.146,0,0,0,2.238,4.212,1.246,1.246,0,0,0,1.448.395l1.843-.658.79.79-.658,1.843a1.405,1.405,0,0,0,.395,1.448c.263.263.658.395.921.658a17.116,17.116,0,1,1-9.873-32.777A23.869,23.869,0,0,1,124.011,34.755Z" transform="translate(-86.98 -26.836)"/>
    <path id="Trazado_70656" data-name="Trazado 70656" d="M8.072,72.42a1.2,1.2,0,0,0,1.053-.527L24.395,53.07l2.633,1.975a1.435,1.435,0,0,0,1.843-.263l4.081-5.134A24.638,24.638,0,0,0,59.41,36.22l1.448,1.58a1.422,1.422,0,0,0,.921.395h.263a22.683,22.683,0,0,0,2.764-.921,2.047,2.047,0,0,0,.79-1.053l.132-1.711c.132-.132.263-.263.395-.263l1.711.395a1.263,1.263,0,0,0,1.316-.395,26.7,26.7,0,0,0,1.711-2.369,1.2,1.2,0,0,0,0-1.316l-.921-1.711c0-.132.132-.395.132-.527l1.58-.658a1.265,1.265,0,0,0,.79-1.185V23.847a1.151,1.151,0,0,0-.79-1.185L70.072,22c0-.132-.132-.395-.132-.527l.921-1.58a1.2,1.2,0,0,0,0-1.316,10.952,10.952,0,0,0-1.711-2.369,1.192,1.192,0,0,0-1.316-.395l-1.711.395a.9.9,0,0,0-.395-.527L65.6,13.974a1.147,1.147,0,0,0-.79-1.053A11.373,11.373,0,0,0,62.043,12a1.062,1.062,0,0,0-1.185.395L59.41,13.842A24.99,24.99,0,0,0,14.653,36.089c.395.79.79,1.448,1.185,2.106l-3.554,4.344a1.77,1.77,0,0,0-.263,1.053,1.332,1.332,0,0,0,.527.921l2.9,2.106L.437,65.049a1.4,1.4,0,0,0,.132,1.843h0L7.15,72.157A3.349,3.349,0,0,0,8.072,72.42ZM62.306,14.632c.263.132.527.132.79.263l.132,1.58a1.342,1.342,0,0,0,.658,1.053,7.234,7.234,0,0,1,1.185.921,1.263,1.263,0,0,0,1.185.263l1.448-.395a2.871,2.871,0,0,0,.527.658l-.921,1.448a1.279,1.279,0,0,0-.132,1.185,4.666,4.666,0,0,1,.395,1.448,1.392,1.392,0,0,0,.79.921l1.316.658v.921l-1.316.658a1.392,1.392,0,0,0-.79.921c-.132.527-.263.921-.395,1.448a1.279,1.279,0,0,0,.132,1.185l.79,1.448a2.871,2.871,0,0,1-.527.658l-1.448-.395a1.343,1.343,0,0,0-1.185.263c-.395.263-.79.658-1.185.921a1.482,1.482,0,0,0-.658,1.053l-.132,1.58c-.263.132-.527.132-.79.263l-1.711-1.843a25.08,25.08,0,0,0,0-16.981ZM37.032,2.653A22.378,22.378,0,1,1,14.653,25.031,22.359,22.359,0,0,1,37.032,2.653ZM17.418,40.433a25.317,25.317,0,0,0,12.637,8.556l-2.5,3.159-2.633-1.975h0l-.132-.132L15.18,43.066Zm.132,7.767,4.739,3.423L7.808,69.261,3.333,65.575Z" transform="translate(0 0)"/>
  </g>
</svg>
