<svg xmlns="http://www.w3.org/2000/svg" width="79.333" height="79.617" viewBox="0 0 79.333 79.617">
  <g id="controlar" transform="translate(-1 -1)">
    <g id="Grupo_45688" data-name="Grupo 45688" transform="translate(2.284 2.284)">
      <g id="Grupo_45676" data-name="Grupo 45676" transform="translate(5.137 32.104)">
        <path id="Trazado_70676" data-name="Trazado 70676" d="M67.639,27h-56.5A5.135,5.135,0,0,0,6,32.137V57.82a5.135,5.135,0,0,0,5.137,5.137h56.5a5.135,5.135,0,0,0,5.137-5.137V32.137A5.135,5.135,0,0,0,67.639,27Z" transform="translate(-6 -27)" fill="#ccd1d9"/>
      </g>
      <g id="Grupo_45677" data-name="Grupo 45677" transform="translate(10.273 37.24)">
        <path id="Trazado_70677" data-name="Trazado 70677" d="M65.218,31H11.284A1.288,1.288,0,0,0,10,32.284V55.4a1.288,1.288,0,0,0,1.284,1.284H65.218A1.288,1.288,0,0,0,66.5,55.4V32.284A1.288,1.288,0,0,0,65.218,31Z" transform="translate(-10 -31)" fill="#69d6f4"/>
      </g>
      <g id="Grupo_45678" data-name="Grupo 45678" transform="translate(56.503 42.377)">
        <path id="Trazado_70678" data-name="Trazado 70678" d="M46,35h5.137v5.137H46Z" transform="translate(-46 -35)" fill="#fcd770"/>
      </g>
      <g id="Grupo_45679" data-name="Grupo 45679" transform="translate(46.229 42.377)">
        <path id="Trazado_70679" data-name="Trazado 70679" d="M38,35h5.137v5.137H38Z" transform="translate(-38 -35)" fill="#fcd770"/>
      </g>
      <g id="Grupo_45680" data-name="Grupo 45680" transform="translate(25.683 42.377)">
        <path id="Trazado_70680" data-name="Trazado 70680" d="M22,35h5.137v5.137H22Z" transform="translate(-22 -35)" fill="#fcd770"/>
      </g>
      <g id="Grupo_45681" data-name="Grupo 45681" transform="translate(15.41 42.377)">
        <path id="Trazado_70681" data-name="Trazado 70681" d="M14,35h5.137v5.137H14Z" transform="translate(-14 -35)" fill="#fcd770"/>
      </g>
      <g id="Grupo_45682" data-name="Grupo 45682" transform="translate(15.41 52.65)">
        <path id="Trazado_70682" data-name="Trazado 70682" d="M14,43h5.137v5.137H14Z" transform="translate(-14 -43)" fill="#fcd770"/>
      </g>
      <g id="Grupo_45683" data-name="Grupo 45683" transform="translate(28.251 0)">
        <path id="Trazado_70683" data-name="Trazado 70683" d="M24,2V22.546H44.546V2Z" transform="translate(-24 -2)" fill="#d3a06c"/>
      </g>
      <g id="Grupo_45684" data-name="Grupo 45684" transform="translate(65.492 15.41)">
        <circle id="Elipse_725" data-name="Elipse 725" cx="2.5" cy="2.5" r="2.5" transform="translate(0.224 0.306)" fill="#ff826e"/>
      </g>
      <g id="Grupo_45685" data-name="Grupo 45685" transform="translate(35.956 0)">
        <path id="Trazado_70684" data-name="Trazado 70684" d="M30,2h5.137V7.137H30Z" transform="translate(-30 -2)" fill="#b27946"/>
      </g>
      <g id="Grupo_45686" data-name="Grupo 45686" transform="translate(0 0)">
        <path id="Trazado_70685" data-name="Trazado 70685" d="M22.546,9.7v5.137l-1.9.693c-.051.116-.09.244-.141.36l.848,1.823-3.634,3.634L15.894,20.5c-.116.051-.244.09-.36.141l-.693,1.9H9.7l-.693-1.9c-.116-.051-.244-.09-.36-.141l-1.823.848L3.194,17.718l.848-1.823c-.051-.116-.09-.244-.141-.36L2,14.841V9.7l1.9-.693c.051-.116.09-.244.141-.36L3.194,6.828,6.828,3.194l1.823.848c.116-.051.244-.09.36-.141L9.7,2h5.137l.693,1.9c.116.051.244.09.36.141l1.823-.848,3.634,3.634L20.5,8.652c.051.116.09.244.141.36ZM17.41,12.273a5.137,5.137,0,1,0-5.137,5.137A5.135,5.135,0,0,0,17.41,12.273Z" transform="translate(-2 -2)" fill="#fcd770"/>
      </g>
      <g id="Grupo_45687" data-name="Grupo 45687" transform="translate(30.82 42.377)">
        <path id="Trazado_70686" data-name="Trazado 70686" d="M46.546,50.41a2.587,2.587,0,0,1,2.568-2.568,2.576,2.576,0,0,1,2.568,2.568V61.967a7.7,7.7,0,0,1-1.541,4.623l-2.311,3.082H29.852l-2.337-3.146A7.68,7.68,0,0,1,26,61.929V49.074a1.288,1.288,0,0,1,1.284-1.284,3.847,3.847,0,0,1,3.852,3.852V37.568A2.576,2.576,0,0,1,33.7,35a2.587,2.587,0,0,1,2.568,2.568V47.841a2.576,2.576,0,0,1,2.568-2.568,2.587,2.587,0,0,1,2.568,2.568,2.576,2.576,0,0,1,2.568-2.568,2.587,2.587,0,0,1,2.568,2.568Z" transform="translate(-26 -35)" fill="#f0d0b4"/>
      </g>
    </g>
    <g id="Grupo_45689" data-name="Grupo 45689" transform="translate(1 1)">
      <path id="Trazado_70687" data-name="Trazado 70687" d="M17.841,11.421a6.421,6.421,0,1,0-6.421,6.421A6.428,6.428,0,0,0,17.841,11.421Zm-6.421,3.852a3.852,3.852,0,1,1,3.852-3.852A3.857,3.857,0,0,1,11.421,15.273Z" transform="translate(0.137 0.137)"/>
      <path id="Trazado_70688" data-name="Trazado 70688" d="M50.05,11.634l1.816,1.816a6.421,6.421,0,0,1,9.082,0l1.816-1.816a8.988,8.988,0,0,0-12.713,0Z" transform="translate(12.938 1.273)"/>
      <path id="Trazado_70689" data-name="Trazado 70689" d="M47.222,9.136l1.816,1.816a11.57,11.57,0,0,1,16.346,0L67.2,9.136a14.142,14.142,0,0,0-19.978,0Z" transform="translate(12.134 0.138)"/>
      <path id="Trazado_70690" data-name="Trazado 70690" d="M13,41.7h7.7V34H13Zm2.568-5.137h2.568v2.568H15.568Z" transform="translate(2.41 8.377)"/>
      <path id="Trazado_70691" data-name="Trazado 70691" d="M13,49.7h7.7V42H13Zm2.568-5.137h2.568v2.568H15.568Z" transform="translate(2.41 10.65)"/>
      <path id="Trazado_70692" data-name="Trazado 70692" d="M21,41.7h7.7V34H21Zm2.568-5.137h2.568v2.568H23.568Z" transform="translate(4.683 8.377)"/>
      <path id="Trazado_70693" data-name="Trazado 70693" d="M37,41.7h7.7V34H37Zm2.568-5.137h2.568v2.568H39.568Z" transform="translate(9.229 8.377)"/>
      <path id="Trazado_70694" data-name="Trazado 70694" d="M52.7,34H45v7.7h7.7Zm-2.568,5.137H47.568V36.568h2.568Z" transform="translate(11.503 8.377)"/>
      <path id="Trazado_70695" data-name="Trazado 70695" d="M69.06,33.1H42.093V30.535H71.628V23.878a3.852,3.852,0,1,0-2.568,0v4.089H42.093V24.115H52.366V1H29.251V24.115H39.524v3.852H13.841V24.115h2.184l.616-1.7,1.635.765,4.905-4.905-.764-1.635,1.7-.618V9.089l-1.7-.615.764-1.635L18.277,1.934,16.642,2.7,16.026,1H9.089L8.472,2.7,6.838,1.932,1.932,6.838,2.7,8.472,1,9.089v6.937l1.7.615-.764,1.635,4.905,4.905,1.635-.765.616,1.7h2.184v6.421H39.524V33.1H12.557a6.428,6.428,0,0,0-6.421,6.421V65.207a6.428,6.428,0,0,0,6.421,6.421H31.822a9.049,9.049,0,0,0,1.768,5.324l2.72,3.665H55.576l2.7-3.6a9.043,9.043,0,0,0,1.8-5.393H69.06a6.428,6.428,0,0,0,6.421-6.421V39.524A6.428,6.428,0,0,0,69.06,33.1Zm1.284-14.126a1.284,1.284,0,1,1-1.284,1.284A1.285,1.285,0,0,1,70.344,18.978ZM39.524,3.568h2.568V6.137H39.524Zm-7.7,0h5.137V8.7h7.7V3.568H49.8V21.546H31.82ZM10.505,20.49l-.262-.569-1.324-.546-1.538.719-2.36-2.362.722-1.542-.574-1.383-1.6-.582V10.889L4.625,10.5l.574-.272.543-1.309L5.021,7.382,7.38,5.022l1.541.719,1.387-.571.582-1.6h3.338l.384,1.057.261.568L16.2,5.74l1.541-.719L20.1,7.381l-.722,1.542.574,1.383,1.6.583v3.336l-1.057.385-.574.272-.543,1.309.722,1.542-2.359,2.36L16.2,19.375l-1.388.571-.583,1.6H10.889Zm47,51.139a6.462,6.462,0,0,1-1.284,3.852l-1.926,2.568H37.6l-1.949-2.626A6.468,6.468,0,0,1,34.388,71.6V58.733a2.573,2.573,0,0,1,2.568,2.57V70.29h2.568V47.229a1.284,1.284,0,0,1,2.568,0V63.923h2.568V57.5a1.284,1.284,0,0,1,2.568,0v6.421H49.8V57.5a1.284,1.284,0,0,1,2.568,0v6.421h2.568V60.071a1.284,1.284,0,0,1,2.568,0Zm-1.284-15.41a3.832,3.832,0,0,0-1.433.283,3.818,3.818,0,0,0-6.272-1.849,3.734,3.734,0,0,0-3.852-.765V47.229a3.852,3.852,0,1,0-7.7,0v9.65a5.072,5.072,0,0,0-2.568-.715,2.571,2.571,0,0,0-2.568,2.568v5.191H13.841V40.809H67.776V63.923h-7.7V60.071A3.857,3.857,0,0,0,56.218,56.218Zm16.694,8.989A3.857,3.857,0,0,1,69.06,69.06H60.071V66.492h7.7a2.571,2.571,0,0,0,2.568-2.568V40.809a2.571,2.571,0,0,0-2.568-2.568H13.841a2.571,2.571,0,0,0-2.568,2.568V63.923a2.571,2.571,0,0,0,2.568,2.568H31.82V69.06H12.557A3.857,3.857,0,0,1,8.7,65.207V39.524a3.857,3.857,0,0,1,3.852-3.852h56.5a3.857,3.857,0,0,1,3.852,3.852Z" transform="translate(-1 -1)"/>
    </g>
  </g>
</svg>
