<svg xmlns="http://www.w3.org/2000/svg" width="174" height="181" viewBox="0 0 174 181">
  <g id="Grupo_46012" data-name="Grupo 46012" transform="translate(9135 -4785)">
    <path id="Trazado_71714" data-name="Trazado 71714" d="M10,0H164a10,10,0,0,1,10,10V171a10,10,0,0,1-10,10H10A10,10,0,0,1,0,171V10A10,10,0,0,1,10,0Z" transform="translate(-9135 4785)" fill="#fff7de"/>
    <path id="Trazado_71716" data-name="Trazado 71716" d="M-61.558,0V-19.605h6.945q10.445,0,10.445,9.557a9.664,9.664,0,0,1-2.851,7.314A10.511,10.511,0,0,1-54.612,0Zm4.416-16.01V-3.582h2.188a5.911,5.911,0,0,0,4.5-1.723,6.536,6.536,0,0,0,1.634-4.689,5.929,5.929,0,0,0-1.62-4.409,6.177,6.177,0,0,0-4.546-1.606Zm17.992-.205a2.523,2.523,0,0,1-1.791-.649,2.092,2.092,0,0,1-.7-1.593,2.018,2.018,0,0,1,.7-1.586,2.607,2.607,0,0,1,1.791-.615,2.6,2.6,0,0,1,1.8.615,2.027,2.027,0,0,1,.69,1.586,2.084,2.084,0,0,1-.69,1.613A2.566,2.566,0,0,1-39.149-16.215ZM-37.017,0h-4.32V-14h4.32ZM-34.3-.369v-3.5a9.2,9.2,0,0,0,2.126.957,7.049,7.049,0,0,0,2,.314,4.3,4.3,0,0,0,1.812-.314,1.016,1.016,0,0,0,.663-.957.885.885,0,0,0-.3-.684,2.8,2.8,0,0,0-.772-.479A8.766,8.766,0,0,0-29.8-5.4q-.561-.164-1.08-.369a10.348,10.348,0,0,1-1.47-.677,4.248,4.248,0,0,1-1.066-.841,3.3,3.3,0,0,1-.656-1.107,4.419,4.419,0,0,1-.226-1.49,3.836,3.836,0,0,1,.513-2.023A4.188,4.188,0,0,1-32.416-13.3a6.247,6.247,0,0,1,1.955-.793,10.194,10.194,0,0,1,2.29-.253,12.707,12.707,0,0,1,1.887.144,14.082,14.082,0,0,1,1.887.417v3.336a6.817,6.817,0,0,0-1.757-.718,7.411,7.411,0,0,0-1.839-.239,4.074,4.074,0,0,0-.8.075,2.634,2.634,0,0,0-.663.219,1.218,1.218,0,0,0-.451.369.85.85,0,0,0-.164.513.947.947,0,0,0,.246.656,2.137,2.137,0,0,0,.643.472,6.343,6.343,0,0,0,.882.355q.485.157.964.321a12.532,12.532,0,0,1,1.559.656,4.983,4.983,0,0,1,1.2.834,3.275,3.275,0,0,1,.766,1.121,3.985,3.985,0,0,1,.267,1.531,3.994,3.994,0,0,1-.54,2.126A4.324,4.324,0,0,1-25.525-.718,6.51,6.51,0,0,1-27.59.089a11.445,11.445,0,0,1-2.427.253A12.51,12.51,0,0,1-34.3-.369Zm23.844-.137a8.542,8.542,0,0,1-4.225.848A7.145,7.145,0,0,1-19.9-1.613a6.752,6.752,0,0,1-2-5.045,7.438,7.438,0,0,1,2.14-5.626,7.907,7.907,0,0,1,5.722-2.058,7.342,7.342,0,0,1,3.582.656v3.664a4.925,4.925,0,0,0-3.021-1.012A3.981,3.981,0,0,0-16.42-9.946a4.056,4.056,0,0,0-1.087,3,3.99,3.99,0,0,0,1.039,2.919,3.819,3.819,0,0,0,2.857,1.06,5.7,5.7,0,0,0,3.158-1.012Zm5.018-15.709a2.523,2.523,0,0,1-1.791-.649,2.092,2.092,0,0,1-.7-1.593,2.018,2.018,0,0,1,.7-1.586,2.607,2.607,0,0,1,1.791-.615,2.6,2.6,0,0,1,1.8.615,2.027,2.027,0,0,1,.69,1.586,2.084,2.084,0,0,1-.69,1.613A2.566,2.566,0,0,1-5.435-16.215ZM-3.3,0h-4.32V-14H-3.3ZM4.71-1.627H4.655V6.439H.335V-14h4.32v2.105H4.71a5.079,5.079,0,0,1,4.5-2.447,5.061,5.061,0,0,1,4.2,1.866A7.946,7.946,0,0,1,14.9-7.4a8.613,8.613,0,0,1-1.729,5.619A5.639,5.639,0,0,1,8.565.342,4.359,4.359,0,0,1,4.71-1.627ZM4.587-7.369v1.121a3.564,3.564,0,0,0,.766,2.365,2.492,2.492,0,0,0,2.01.916,2.649,2.649,0,0,0,2.29-1.142,5.512,5.512,0,0,0,.813-3.233q0-3.691-2.871-3.691a2.7,2.7,0,0,0-2.167,1A4.008,4.008,0,0,0,4.587-7.369ZM22.019,0H17.7V-20.727h4.32Zm5.824-16.215a2.523,2.523,0,0,1-1.791-.649,2.092,2.092,0,0,1-.7-1.593,2.018,2.018,0,0,1,.7-1.586,2.607,2.607,0,0,1,1.791-.615,2.6,2.6,0,0,1,1.8.615,2.027,2.027,0,0,1,.69,1.586,2.084,2.084,0,0,1-.69,1.613A2.566,2.566,0,0,1,27.843-16.215ZM29.976,0h-4.32V-14h4.32ZM47.134,0H42.827V-7.779q0-3.254-2.324-3.254a2.306,2.306,0,0,0-1.846.861,3.281,3.281,0,0,0-.725,2.188V0h-4.32V-14h4.32v2.215h.055a4.951,4.951,0,0,1,4.5-2.557q4.648,0,4.648,5.77ZM62.2,0H58.112V-2.01h-.055A4.563,4.563,0,0,1,53.888.342,4.362,4.362,0,0,1,50.682-.813,4.14,4.14,0,0,1,49.513-3.9q0-4.074,4.826-4.7l3.8-.506q0-2.3-2.488-2.3a8.493,8.493,0,0,0-4.758,1.49v-3.254a10.7,10.7,0,0,1,2.468-.82,12.972,12.972,0,0,1,2.851-.355q5.988,0,5.988,5.975ZM58.14-5.687v-.943L55.6-6.3q-2.105.273-2.105,1.9A1.57,1.57,0,0,0,54-3.192a1.97,1.97,0,0,0,1.388.472,2.558,2.558,0,0,0,1.982-.841A3.037,3.037,0,0,0,58.14-5.687ZM-50.415,28.373h-.055v8.066h-4.32V16h4.32v2.105h.055a5.079,5.079,0,0,1,4.5-2.447,5.061,5.061,0,0,1,4.2,1.866A7.946,7.946,0,0,1-40.229,22.6a8.613,8.613,0,0,1-1.729,5.619,5.639,5.639,0,0,1-4.6,2.119A4.359,4.359,0,0,1-50.415,28.373Zm-.123-5.742v1.121a3.564,3.564,0,0,0,.766,2.365,2.492,2.492,0,0,0,2.01.916,2.649,2.649,0,0,0,2.29-1.142,5.512,5.512,0,0,0,.813-3.233q0-3.691-2.871-3.691a2.7,2.7,0,0,0-2.167,1A4.008,4.008,0,0,0-50.538,22.631Zm25.689,1.6h-9.133q.219,3.049,3.842,3.049a7.5,7.5,0,0,0,4.061-1.094V29.3a10.667,10.667,0,0,1-5.045,1.039,7.1,7.1,0,0,1-5.264-1.88,7.1,7.1,0,0,1-1.873-5.243A7.492,7.492,0,0,1-36.237,17.7a6.741,6.741,0,0,1,4.977-2.037,6.118,6.118,0,0,1,4.737,1.818,7,7,0,0,1,1.675,4.936Zm-4.006-2.652q0-3.008-2.434-3.008a2.324,2.324,0,0,0-1.8.861,3.909,3.909,0,0,0-.923,2.146ZM-13.146,19.9a3.748,3.748,0,0,0-1.818-.424,2.62,2.62,0,0,0-2.2,1.032,4.5,4.5,0,0,0-.793,2.81V30h-4.32V16h4.32v2.6h.055a3.737,3.737,0,0,1,3.691-2.844,2.782,2.782,0,0,1,1.066.164Zm1.258,9.734v-3.5a9.2,9.2,0,0,0,2.126.957,7.049,7.049,0,0,0,2,.314,4.3,4.3,0,0,0,1.812-.314,1.016,1.016,0,0,0,.663-.957.885.885,0,0,0-.3-.684,2.8,2.8,0,0,0-.772-.479A8.766,8.766,0,0,0-7.39,24.6q-.561-.164-1.08-.369a10.348,10.348,0,0,1-1.47-.677,4.248,4.248,0,0,1-1.066-.841,3.3,3.3,0,0,1-.656-1.107,4.419,4.419,0,0,1-.226-1.49,3.836,3.836,0,0,1,.513-2.023A4.188,4.188,0,0,1-10.008,16.7a6.247,6.247,0,0,1,1.955-.793,10.194,10.194,0,0,1,2.29-.253,12.707,12.707,0,0,1,1.887.144,14.082,14.082,0,0,1,1.887.417v3.336a6.817,6.817,0,0,0-1.757-.718A7.411,7.411,0,0,0-5.585,18.6a4.074,4.074,0,0,0-.8.075,2.634,2.634,0,0,0-.663.219,1.218,1.218,0,0,0-.451.369.85.85,0,0,0-.164.513.947.947,0,0,0,.246.656,2.137,2.137,0,0,0,.643.472,6.343,6.343,0,0,0,.882.355q.485.157.964.321a12.532,12.532,0,0,1,1.559.656,4.983,4.983,0,0,1,1.2.834,3.275,3.275,0,0,1,.766,1.121,3.985,3.985,0,0,1,.267,1.531,3.994,3.994,0,0,1-.54,2.126,4.324,4.324,0,0,1-1.436,1.436,6.51,6.51,0,0,1-2.064.807,11.445,11.445,0,0,1-2.427.253A12.51,12.51,0,0,1-11.888,29.631Zm19.906.711a7.526,7.526,0,0,1-5.5-1.962,7.113,7.113,0,0,1-2-5.325A7.113,7.113,0,0,1,2.591,17.62,7.852,7.852,0,0,1,8.21,15.658a7.435,7.435,0,0,1,5.469,1.962,6.974,6.974,0,0,1,1.982,5.188,7.4,7.4,0,0,1-2.044,5.51A7.609,7.609,0,0,1,8.019,30.342Zm.109-11.375A2.882,2.882,0,0,0,5.749,20.02,4.642,4.642,0,0,0,4.9,23q0,4.033,3.254,4.033,3.1,0,3.1-4.143Q11.259,18.967,8.128,18.967ZM31.985,30H27.679V22.221q0-3.254-2.324-3.254a2.306,2.306,0,0,0-1.846.861,3.281,3.281,0,0,0-.725,2.188V30h-4.32V16h4.32v2.215h.055a4.951,4.951,0,0,1,4.5-2.557q4.648,0,4.648,5.77Zm15.066,0H42.964V27.99h-.055a4.563,4.563,0,0,1-4.17,2.352,4.362,4.362,0,0,1-3.206-1.155A4.14,4.14,0,0,1,34.364,26.1q0-4.074,4.826-4.7l3.8-.506q0-2.3-2.488-2.3a8.493,8.493,0,0,0-4.758,1.49V16.834a10.7,10.7,0,0,1,2.468-.82,12.972,12.972,0,0,1,2.851-.355q5.988,0,5.988,5.975Zm-4.061-5.687v-.943l-2.543.328q-2.105.273-2.105,1.9a1.57,1.57,0,0,0,.513,1.21,1.97,1.97,0,0,0,1.388.472,2.558,2.558,0,0,0,1.982-.841A3.037,3.037,0,0,0,42.991,24.313ZM54.79,30H50.47V9.273h4.32Z" transform="translate(-9048 4915)" fill="#361274"/>
    <g id="Flat" transform="translate(-9108.502 4779)">
      <path id="Trazado_30668" data-name="Trazado 30668" d="M280.811,57.622h2.517L282.07,55.1V45.035A5.035,5.035,0,0,0,277.035,40H272v3.776l3.776,1.259v7.552A5.035,5.035,0,0,0,280.811,57.622Z" transform="translate(-208.98 -13.483)" fill="#61311c"/>
      <path id="Trazado_30669" data-name="Trazado 30669" d="M200,288l1.259,7.552L200,300.587h17.622l-1.259-5.035L217.622,288Z" transform="translate(-148.309 -222.463)" fill="#fec093"/>
      <path id="Trazado_30670" data-name="Trazado 30670" d="M71.915,368,69.4,374.293l-16.691,1.964a5.33,5.33,0,0,0,.623,10.623h54.792a5.33,5.33,0,0,0,.623-10.623l-16.691-1.964L89.537,368Z" transform="translate(-20.224 -289.876)" fill="#b03b8d"/>
      <path id="Trazado_30671" data-name="Trazado 30671" d="M248,328h2.517v6.293H248Z" transform="translate(-188.757 -256.17)" fill="#f5a76e"/>
      <path id="Trazado_30672" data-name="Trazado 30672" d="M101.652,385.888a1.886,1.886,0,0,1-1.888,1.888h-.629l-12.587,6.293-10.106,2.3-17.586,4H52.649a5.121,5.121,0,1,1-.176-10.24l22.8-.786,8.761-.3.648-2.593a2.517,2.517,0,0,1,3.052-1.831l2.593.648L95.358,384h4.405a1.888,1.888,0,0,1,1.888,1.888Z" transform="translate(-19.752 -303.359)" fill="#f7b488"/>
      <path id="Trazado_30673" data-name="Trazado 30673" d="M76.442,424.95l-17.586,4H52.649a5.121,5.121,0,1,1-.176-10.24l22.8-.786Z" transform="translate(-19.752 -331.942)" fill="#bc4598"/>
      <path id="Trazado_30674" data-name="Trazado 30674" d="M174.121,395.425a5.187,5.187,0,0,1-5.219,4.938H162.8l-17.586-4-10.106-2.3-12.587-6.293h-.629a1.888,1.888,0,0,1,0-3.776h4.405l5.035,1.259,2.593-.648a2.517,2.517,0,0,1,3.052,1.832l.649,2.593,8.761.3,22.8.787a5.12,5.12,0,0,1,4.942,5.3Z" transform="translate(-80.896 -303.359)" fill="#fec093"/>
      <path id="Trazado_30675" data-name="Trazado 30675" d="M309.144,423.825a5.121,5.121,0,0,1-5.122,5.121h-6.206l-17.586-4,1.172-7.03,22.8.787A5.12,5.12,0,0,1,309.144,423.825Z" transform="translate(-215.916 -331.942)" fill="#bc4598"/>
      <path id="Trazado_30676" data-name="Trazado 30676" d="M97,164.054v3.776l-3.776,1.259-1.975-.658L89.9,167.98l-.321-.107-2.187-.728-1.717-.573L81.9,162.04l-.42-.5-8.391-10.07-2.517-13.846L66.8,141.4H54.209l-3.776-3.776-2.517,13.846-8.391,10.07-.42.5-3.776,4.531-1.717.573-2.187.728-.321.107-1.353.452-1.975.658L24,167.83v-3.776l5.035-2.517a2.517,2.517,0,0,1-2.517-2.517H34.07l7.552-10.07,3.007-16.033a5.034,5.034,0,0,1,4.948-4.106h7.149V120h7.552v8.811h7.149a5.034,5.034,0,0,1,4.948,4.107l3.007,16.032,7.552,10.07h7.552a2.517,2.517,0,0,1-2.517,2.517Z" transform="translate(0 -80.896)" fill="#fec093"/>
      <path id="Trazado_30677" data-name="Trazado 30677" d="M239.552,120v6.3a6.319,6.319,0,0,1-7.552,0V120Z" transform="translate(-175.274 -80.896)" fill="#f5a76e"/>
      <path id="Trazado_30678" data-name="Trazado 30678" d="M202.2,88.686h2.2V84.333h-2.2a2.177,2.177,0,1,0,0,4.353Z" transform="translate(-148.309 -50.84)" fill="#f7b488"/>
      <path id="Trazado_30679" data-name="Trazado 30679" d="M288.045,84.333H286v4.353h2.045a2.181,2.181,0,0,0,0-4.353Z" transform="translate(-220.778 -50.84)" fill="#f7b488"/>
      <path id="Trazado_30680" data-name="Trazado 30680" d="M222.293,64.363a5.992,5.992,0,0,1-5.865-4.329l-.188-.711A7.227,7.227,0,0,1,216,57.475V53.95a6.3,6.3,0,0,1,12.587,0v3.524a7.225,7.225,0,0,1-.24,1.847l-.188.712A5.992,5.992,0,0,1,222.293,64.363Z" transform="translate(-161.791 -20.224)" fill="#fec093"/>
      <path id="Trazado_30681" data-name="Trazado 30681" d="M217.063,28.446a29.114,29.114,0,0,0,5.62,6.883,18.489,18.489,0,0,0,.422-3.919,7.554,7.554,0,0,0-15.1,0,18.493,18.493,0,0,0,.142,2.28C210.469,32.861,213.785,32.508,217.063,28.446Z" transform="translate(-155.05)" fill="#6e3c26"/>
      <path id="Trazado_30682" data-name="Trazado 30682" d="M204.662,193.622a6.448,6.448,0,0,0,0-10.07L203.4,176h-2.517l-.518,2.591a4.606,4.606,0,0,1-9.033,0L190.816,176H188.3l-1.259,7.552a6.448,6.448,0,0,0,0,10.07Z" transform="translate(-135.349 -128.085)" fill="#c378cb"/>
    </g>
  </g>
</svg>
