<svg xmlns="http://www.w3.org/2000/svg" xmlns:xlink="http://www.w3.org/1999/xlink" width="267.377" height="264.668" viewBox="0 0 267.377 264.668">
  <defs>
    <linearGradient id="linear-gradient" y1="0.5" x2="1" y2="0.5" gradientUnits="objectBoundingBox">
      <stop offset="0.004" stop-color="#e38ddd"/>
      <stop offset="1" stop-color="#9571f6"/>
    </linearGradient>
    <linearGradient id="linear-gradient-2" x1="0.817" y1="-0.026" x2="0.049" y2="1.235" gradientUnits="objectBoundingBox">
      <stop offset="0" stop-color="#ff9085"/>
      <stop offset="1" stop-color="#fb6fbb"/>
    </linearGradient>
    <linearGradient id="linear-gradient-3" x1="0.418" y1="0.074" x2="0.809" y2="2.101" gradientUnits="objectBoundingBox">
      <stop offset="0" stop-color="#444b8c"/>
      <stop offset="0.996" stop-color="#26264f"/>
    </linearGradient>
    <linearGradient id="linear-gradient-4" x1="0.419" y1="0.069" x2="0.807" y2="2.121" gradientUnits="objectBoundingBox">
      <stop offset="0" stop-color="#ffc444"/>
      <stop offset="0.996" stop-color="#f36f56"/>
    </linearGradient>
    <linearGradient id="linear-gradient-5" x1="0.597" y1="0.23" x2="0.124" y2="1.547" xlink:href="#linear-gradient-4"/>
    <linearGradient id="linear-gradient-6" x1="0.564" y1="-0.758" x2="0.27" y2="4.637" xlink:href="#linear-gradient-3"/>
    <linearGradient id="linear-gradient-7" x1="0.736" y1="0.026" x2="-0.589" y2="2.686" xlink:href="#linear-gradient-3"/>
    <linearGradient id="linear-gradient-8" x1="0.503" y1="-5.062" x2="0.494" y2="10.943" xlink:href="#linear-gradient-4"/>
    <linearGradient id="linear-gradient-9" y1="0.5" x2="1" y2="0.5" gradientUnits="objectBoundingBox">
      <stop offset="0" stop-color="#aa80f9"/>
      <stop offset="0.996" stop-color="#6165d7"/>
    </linearGradient>
    <linearGradient id="linear-gradient-10" x1="7.328" y1="-2.57" x2="7.494" y2="2.836" gradientUnits="objectBoundingBox">
      <stop offset="0.004" stop-color="#26264f"/>
      <stop offset="1" stop-color="#444b8c"/>
    </linearGradient>
    <linearGradient id="linear-gradient-11" x1="-11.485" y1="-7.079" x2="-11.601" y2="-13.577" xlink:href="#linear-gradient-4"/>
    <linearGradient id="linear-gradient-12" x1="7.328" y1="-2.57" x2="7.494" y2="2.836" xlink:href="#linear-gradient-10"/>
    <linearGradient id="linear-gradient-13" x1="-11.464" y1="-6.161" x2="-11.58" y2="-12.659" xlink:href="#linear-gradient-4"/>
    <linearGradient id="linear-gradient-14" x1="0.74" y1="-0.103" x2="0.57" y2="0.191" gradientUnits="objectBoundingBox">
      <stop offset="0" stop-color="#893976"/>
      <stop offset="1" stop-color="#311944"/>
    </linearGradient>
    <linearGradient id="linear-gradient-15" x1="0" y1="0.5" x2="1" y2="0.5" xlink:href="#linear-gradient-14"/>
    <linearGradient id="linear-gradient-16" x1="0.155" y1="0.296" x2="0.802" y2="0.712" xlink:href="#linear-gradient-2"/>
    <linearGradient id="linear-gradient-17" x1="0.521" y1="0.074" x2="0.461" y2="1.199" xlink:href="#linear-gradient-4"/>
    <linearGradient id="linear-gradient-18" x1="22.995" y1="-4.095" x2="24.176" y2="-2.547" xlink:href="#linear-gradient-4"/>
    <linearGradient id="linear-gradient-19" x1="246.525" y1="-35.647" x2="260.844" y2="-21.859" xlink:href="#linear-gradient-4"/>
    <linearGradient id="linear-gradient-20" x1="-0.124" y1="0.253" x2="0.63" y2="0.79" xlink:href="#linear-gradient-2"/>
    <linearGradient id="linear-gradient-21" x1="0.672" y1="0.619" x2="1.587" y2="1.527" xlink:href="#linear-gradient-2"/>
    <linearGradient id="linear-gradient-22" x1="-1.322" y1="0.5" x2="-0.322" y2="0.5" xlink:href="#linear-gradient-9"/>
    <linearGradient id="linear-gradient-23" x1="-9.992" y1="0.5" x2="-8.992" y2="0.5" xlink:href="#linear-gradient-9"/>
    <linearGradient id="linear-gradient-24" x1="0.053" y1="1.084" x2="-0.101" y2="0.837" xlink:href="#linear-gradient-3"/>
    <linearGradient id="linear-gradient-25" x1="0" y1="0.5" x2="1" y2="0.5" xlink:href="#linear-gradient-3"/>
    <linearGradient id="linear-gradient-26" x1="0.575" y1="0.243" x2="0.37" y2="0.947" xlink:href="#linear-gradient-9"/>
  </defs>
  <g id="Grupo_46019" data-name="Grupo 46019" transform="translate(-841 -9611.637)">
    <g id="Grupo_45724" data-name="Grupo 45724" transform="translate(399.438 9156.637)">
      <path id="Trazado_70715" data-name="Trazado 70715" d="M467.52,504.556c4.077-5.58,38.977-51.724,95.548-49.476,2.827.112,58,3.026,78.349,39.2,15.054,26.757-.884,50.5,17.481,68.727,16,15.885,35.666,5.371,45.5,18.216,14.979,19.567-8.875,72.411-45.525,101.882-37.843,30.431-110.242,52.756-166.513,12.156C429.182,649.675,429.823,556.153,467.52,504.556Z" transform="translate(0 0)" fill="#f4f7fa"/>
      <g id="Grupo_45693" data-name="Grupo 45693" transform="translate(474.895 586.331)">
        <g id="Grupo_45692" data-name="Grupo 45692" transform="translate(0 0)">
          <path id="Trazado_70716" data-name="Trazado 70716" d="M896.7,1889.925l-5.822.01a41.486,41.486,0,0,0-2.7-11.006l4.923-2.855a2.911,2.911,0,0,0,1.03-3.934l-2.069-3.72a2.838,2.838,0,0,0-3.872-1.147l-4.861,2.759a42.792,42.792,0,0,0-8.021-8.488l2.8-4.8a3.023,3.023,0,0,0-1.065-4.055l-3.721-2.309a2.878,2.878,0,0,0-4.029.926l-2.8,4.754a43.546,43.546,0,0,0-11.6-3.536v-5.637a3.209,3.209,0,0,0-3.061-3.151l-4.531-.207a2.915,2.915,0,0,0-3.109,2.9v5.7a44.068,44.068,0,0,0-12.143,2.775l-3.025-5.153a3.39,3.39,0,0,0-4.412-1.307l-4.144,2.125a2.972,2.972,0,0,0-1.2,4.219l3.134,5.271a43.757,43.757,0,0,0-9.093,8.619l-5.668-3.207a3.448,3.448,0,0,0-4.6,1.058l-2.492,3.991a3.094,3.094,0,0,0,1.244,4.359l5.865,3.246a41.881,41.881,0,0,0-3.2,11.958l-7.036.012a3.331,3.331,0,0,0-3.434,3.206v4.7a3.275,3.275,0,0,0,3.434,3.157l7.222-.09a41.477,41.477,0,0,0,3.526,11.626l-6.375,3.618a3.121,3.121,0,0,0-1.244,4.377l2.492,3.956a3.422,3.422,0,0,0,4.6.993l6.448-3.739a43,43,0,0,0,8.9,7.953l-3.717,6.306a2.946,2.946,0,0,0,1.2,4.2l4.144,2.066a3.423,3.423,0,0,0,4.412-1.369l3.687-6.333a43.743,43.743,0,0,0,11.481,2.38v7.06a2.867,2.867,0,0,0,3.109,2.858l4.531-.271a3.265,3.265,0,0,0,3.061-3.194v-6.983a44.033,44.033,0,0,0,10.978-3.395l3.421,5.754a2.858,2.858,0,0,0,4.029.869l3.721-2.362a3.049,3.049,0,0,0,1.065-4.071l-3.32-5.657a43.668,43.668,0,0,0,7.869-8.083l5.538,3.065a2.865,2.865,0,0,0,3.872-1.2l2.069-3.749a2.887,2.887,0,0,0-1.03-3.92l-5.355-3.03a41.874,41.874,0,0,0,2.977-10.8l5.979-.074a2.873,2.873,0,0,0,2.787-2.908v-4.22A2.824,2.824,0,0,0,896.7,1889.925Zm-47.134,34.742c-17.227.639-31.644-12.731-31.644-29.884s14.417-30.707,31.644-30.288c16.642.4,29.724,13.784,29.724,29.9S866.211,1924.05,849.569,1924.667Z" transform="translate(-793.982 -1843.522)" fill="#97a6b7"/>
          <path id="Trazado_70717" data-name="Trazado 70717" d="M1124.5,1891.846l-4.146-.143-1.43,3.718Z" transform="translate(-1088.188 -1887.146)" fill="#97a6b7"/>
          <path id="Trazado_70718" data-name="Trazado 70718" d="M1612.6,1911.356l4.781.048v3.527Z" transform="translate(-1535.172 -1904.94)" fill="#97a6b7"/>
          <path id="Trazado_70719" data-name="Trazado 70719" d="M1805.258,2091.235l4.766.193-1.192,2.669Z" transform="translate(-1709.608 -2067.805)" fill="#97a6b7"/>
          <path id="Trazado_70720" data-name="Trazado 70720" d="M1884.373,2334.647l4.814.381-1.573,2.336Z" transform="translate(-1781.24 -2288.195)" fill="#97a6b7"/>
          <path id="Trazado_70721" data-name="Trazado 70721" d="M1799.715,2653.75l4.671.667.572-3.813Z" transform="translate(-1704.589 -2574.267)" fill="#97a6b7"/>
          <path id="Trazado_70722" data-name="Trazado 70722" d="M1610.745,2843.421l4.194.762.334-3.1Z" transform="translate(-1533.493 -2746.732)" fill="#97a6b7"/>
          <path id="Trazado_70723" data-name="Trazado 70723" d="M1352.977,2891.919l-3.765-.667,3.241-4.814Z" transform="translate(-1296.696 -2787.795)" fill="#97a6b7"/>
          <path id="Trazado_70724" data-name="Trazado 70724" d="M1131.369,2853.648l-4.385-.906,3.384-4.1Z" transform="translate(-1095.488 -2753.576)" fill="#97a6b7"/>
          <path id="Trazado_70725" data-name="Trazado 70725" d="M912.819,2071.1l4.576.143-1.811,3.336Z" transform="translate(-901.579 -2049.573)" fill="#97a6b7"/>
          <path id="Trazado_70726" data-name="Trazado 70726" d="M816.571,2423.63l4.194.62-.334-3.432Z" transform="translate(-814.434 -2366.215)" fill="#97a6b7"/>
          <path id="Trazado_70727" data-name="Trazado 70727" d="M911.811,2696.494l4.1.667.334-2.717Z" transform="translate(-900.666 -2613.961)" fill="#97a6b7"/>
        </g>
        <path id="Trazado_70728" data-name="Trazado 70728" d="M938.285,1890.3l-5.87.01a41.818,41.818,0,0,0-2.724-11.1l4.963-2.878a2.935,2.935,0,0,0,1.038-3.967l-2.086-3.75a2.862,2.862,0,0,0-3.9-1.156l-4.9,2.781a43.145,43.145,0,0,0-8.088-8.557l2.819-4.842a3.048,3.048,0,0,0-1.074-4.088l-3.752-2.328a2.9,2.9,0,0,0-4.062.934l-2.826,4.793a43.914,43.914,0,0,0-11.692-3.565v-5.683a3.235,3.235,0,0,0-3.086-3.177l-4.569-.208a2.939,2.939,0,0,0-3.135,2.926v5.746a44.442,44.442,0,0,0-12.244,2.8l-3.05-5.195a3.418,3.418,0,0,0-4.449-1.317l-4.178,2.142a3,3,0,0,0-1.209,4.253l3.16,5.314a44.12,44.12,0,0,0-9.169,8.689l-5.715-3.233a3.477,3.477,0,0,0-4.641,1.067l-2.512,4.023a3.119,3.119,0,0,0,1.254,4.395l5.914,3.272a42.221,42.221,0,0,0-3.229,12.056l-7.094.012a3.359,3.359,0,0,0-3.462,3.232v4.738a3.3,3.3,0,0,0,3.462,3.182l7.282-.091a41.808,41.808,0,0,0,3.555,11.721l-6.428,3.647a3.146,3.146,0,0,0-1.254,4.412l2.512,3.988a3.451,3.451,0,0,0,4.641,1l6.5-3.77a43.36,43.36,0,0,0,8.971,8.017l-3.748,6.357a2.97,2.97,0,0,0,1.209,4.236l4.178,2.083a3.451,3.451,0,0,0,4.449-1.38l3.717-6.385a44.1,44.1,0,0,0,11.576,2.4v7.117a2.891,2.891,0,0,0,3.135,2.882l4.569-.273a3.292,3.292,0,0,0,3.086-3.22v-7.04a44.4,44.4,0,0,0,11.069-3.422l3.449,5.8a2.881,2.881,0,0,0,4.062.876l3.752-2.381a3.074,3.074,0,0,0,1.074-4.1l-3.348-5.7a44.027,44.027,0,0,0,7.934-8.148l5.584,3.09a2.889,2.889,0,0,0,3.9-1.211l2.086-3.78a2.91,2.91,0,0,0-1.038-3.952l-5.4-3.055a42.214,42.214,0,0,0,3-10.885l6.028-.075a2.9,2.9,0,0,0,2.81-2.932v-4.255A2.847,2.847,0,0,0,938.285,1890.3Zm-47.525,35.025c-17.37.645-31.906-12.834-31.906-30.127s14.536-30.958,31.906-30.535c16.78.408,29.97,13.9,29.97,30.14S907.54,1924.706,890.76,1925.328Z" transform="translate(-830.86 -1843.522)" fill="#d8dee8"/>
      </g>
      <g id="Grupo_45702" data-name="Grupo 45702" transform="translate(451.572 482.523)">
        <g id="Grupo_45695" data-name="Grupo 45695" transform="translate(0)">
          <g id="Grupo_45694" data-name="Grupo 45694">
            <path id="Trazado_70729" data-name="Trazado 70729" d="M556.384,913.245c-4.945.295-8.99-2.913-8.99-7.152V753.3c0-4.239,4.045-7.513,8.99-7.3l228.674,9.908a6.912,6.912,0,0,1,6.57,6.823V892.682a7.052,7.052,0,0,1-6.57,6.93Z" transform="translate(-547.394 -745.992)" fill="#97a6b7"/>
            <path id="Trazado_70730" data-name="Trazado 70730" d="M578.112,913.245c-4.945.295-8.99-2.913-8.99-7.152V753.3c0-4.239,4.045-7.513,8.99-7.3l228.674,9.908a6.912,6.912,0,0,1,6.57,6.823V892.682a7.052,7.052,0,0,1-6.57,6.93Z" transform="translate(-567.067 -745.992)" fill="#fff"/>
            <path id="Trazado_70731" data-name="Trazado 70731" d="M846.966,793.088l-228.674-9.407c-2.643-.109-4.793,1.638-4.793,3.9v152.4c0,2.264,2.149,3.975,4.793,3.824l228.674-13.132a3.764,3.764,0,0,0,3.519-3.7V796.736A3.69,3.69,0,0,0,846.966,793.088Z" transform="translate(-607.247 -780.112)" fill="#d8dee8" opacity="0.3" style="mix-blend-mode: multiply;isolation: isolate"/>
            <path id="Trazado_70732" data-name="Trazado 70732" d="M646.3,954.707a1.651,1.651,0,0,1-1.867-1.5V811.576a1.67,1.67,0,0,1,1.867-1.523L874.97,819.11a1.442,1.442,0,0,1,1.376,1.424V941.965a1.459,1.459,0,0,1-1.376,1.437Z" transform="translate(-635.25 -803.993)" fill="url(#linear-gradient)"/>
          </g>
          <path id="Trazado_70733" data-name="Trazado 70733" d="M782.914,890.155c-19.238-11.9-5.8-45.736-27.406-62.737-21.782-17.14-52.432,3.882-67.69-13.868-11.361-13.216,1.932-29.175-8.915-41.6-17.012-19.492-60.56,7.316-80.567-11.887-2.841-2.726-5.707-6.863-7.339-13.5L578.112,746c-4.945-.214-8.99,3.06-8.99,7.3V906.093c0,4.239,4.045,7.447,8.99,7.152l228.674-13.632a7.052,7.052,0,0,0,6.57-6.93v-2.31C798.172,895.524,788.89,893.852,782.914,890.155Z" transform="translate(-567.067 -745.992)" fill="#fff" opacity="0.6" style="mix-blend-mode: soft-light;isolation: isolate"/>
        </g>
        <g id="Grupo_45701" data-name="Grupo 45701" transform="translate(23.742 19.874)">
          <path id="Trazado_70734" data-name="Trazado 70734" d="M798.405,1919.1l55.04-2.3v-28.856l-55.04,1.335Z" transform="translate(-798.405 -1799.812)" fill="#f4f7fa" style="mix-blend-mode: soft-light;isolation: isolate"/>
          <g id="Grupo_45697" data-name="Grupo 45697" transform="translate(0.231)" style="mix-blend-mode: soft-light;isolation: isolate">
            <g id="Grupo_45696" data-name="Grupo 45696" opacity="0.7">
              <path id="Trazado_70735" data-name="Trazado 70735" d="M2357.324,1103.589l8.362-.115v-61.137l-8.362-.214Z" transform="translate(-2210.106 -1033.986)" fill="#f4f7fa"/>
              <path id="Trazado_70736" data-name="Trazado 70736" d="M2197.777,1397.143l8.524-.117v-30.863l-8.524-.05Z" transform="translate(-2065.65 -1327.333)" fill="#f4f7fa"/>
              <path id="Trazado_70737" data-name="Trazado 70737" d="M2035.108,1039.692l8.691-.12V971.341l-8.691-.255Z" transform="translate(-1918.367 -969.669)" fill="#f4f7fa"/>
              <path id="Trazado_70738" data-name="Trazado 70738" d="M1869.228,1133.88l8.863-.122v-58.68l-8.863-.2Z" transform="translate(-1768.176 -1063.64)" fill="#f4f7fa"/>
              <path id="Trazado_70739" data-name="Trazado 70739" d="M1700.042,1547.753l9.04-.125v-15.891l-9.04.036Z" transform="translate(-1614.992 -1477.292)" fill="#f4f7fa"/>
              <path id="Trazado_70740" data-name="Trazado 70740" d="M1527.446,1340.283l9.223-.127v-37.724l-9.223-.086Z" transform="translate(-1458.721 -1269.598)" fill="#f4f7fa"/>
              <path id="Trazado_70741" data-name="Trazado 70741" d="M1351.338,1177.146l9.411-.13V1122.1l-9.411-.184Z" transform="translate(-1299.27 -1106.231)" fill="#f4f7fa"/>
              <path id="Trazado_70742" data-name="Trazado 70742" d="M1171.613,1318.807l9.6-.133v-40.46l-9.6-.1Z" transform="translate(-1136.544 -1247.657)" fill="#f4f7fa"/>
              <path id="Trazado_70743" data-name="Trazado 70743" d="M988.153,1100.367l9.8-.135v-63.407l-9.8-.235Z" transform="translate(-970.436 -1028.978)" fill="#f4f7fa"/>
              <path id="Trazado_70744" data-name="Trazado 70744" d="M800.842,1027.745l10.011-.138V956.393l-10.011-.282Z" transform="translate(-800.842 -956.111)" fill="#f4f7fa"/>
            </g>
          </g>
          <path id="Trazado_70745" data-name="Trazado 70745" d="M2526.922,2088.912l41.134-1.717v-4.163l-41.134,1.6Z" transform="translate(-2363.433 -1976.444)" fill="#f4f7fa" style="mix-blend-mode: soft-light;isolation: isolate"/>
          <path id="Trazado_70746" data-name="Trazado 70746" d="M2526.922,1519.308l41.134-.244V1514.9l-41.134.13Z" transform="translate(-2363.433 -1462.048)" fill="#f4f7fa" style="mix-blend-mode: soft-light;isolation: isolate"/>
          <path id="Trazado_70747" data-name="Trazado 70747" d="M2526.922,1443.151l41.134-.049v-4.163l-41.134-.065Z" transform="translate(-2363.433 -1393.212)" fill="#f4f7fa" style="mix-blend-mode: soft-light;isolation: isolate"/>
          <path id="Trazado_70748" data-name="Trazado 70748" d="M2526.922,2017.462l6.7-.254v-6.559l-6.7.225Z" transform="translate(-2363.433 -1910.907)" fill="#f4f7fa" style="mix-blend-mode: soft-light;isolation: isolate"/>
          <g id="Grupo_45699" data-name="Grupo 45699" transform="translate(168.455 68.973)">
            <path id="Trazado_70749" data-name="Trazado 70749" d="M2579.418,1701.3a15.205,15.205,0,0,0,15.879,15.208,16.123,16.123,0,0,0,15.555-15.961,15.214,15.214,0,0,0-15.555-15.216A16.108,16.108,0,0,0,2579.418,1701.3Z" transform="translate(-2579.418 -1685.334)" fill="#f4f7fa" style="mix-blend-mode: soft-light;isolation: isolate"/>
            <path id="Trazado_70750" data-name="Trazado 70750" d="M2589.046,1709.277a15.21,15.21,0,0,1,14.958-14.6,14.351,14.351,0,0,1,14.681,14.353A15.208,15.208,0,0,1,2604,1724.091a14.343,14.343,0,0,1-14.97-14.345C2589.034,1709.589,2589.041,1709.433,2589.046,1709.277Z" transform="translate(-2588.125 -1693.797)" fill="#fff" opacity="0.35" style="mix-blend-mode: soft-light;isolation: isolate"/>
            <path id="Trazado_70751" data-name="Trazado 70751" d="M2589.046,1709.277a15.21,15.21,0,0,1,14.958-14.6,14.351,14.351,0,0,1,14.681,14.353A15.208,15.208,0,0,1,2604,1724.091a14.343,14.343,0,0,1-14.97-14.345C2589.034,1709.589,2589.041,1709.433,2589.046,1709.277Z" transform="translate(-2588.125 -1693.797)" fill="#f4f7fa" style="mix-blend-mode: soft-light;isolation: isolate"/>
            <g id="Grupo_45698" data-name="Grupo 45698" transform="translate(0.921 1.799)">
              <path id="Trazado_70752" data-name="Trazado 70752" d="M2589.16,1718.039a15.171,15.171,0,0,1,10-13.682l4.958,13.791Z" transform="translate(-2589.16 -1704.357)" fill="#fff"/>
            </g>
          </g>
          <g id="Grupo_45700" data-name="Grupo 45700" transform="translate(0 95.689)" style="mix-blend-mode: soft-light;isolation: isolate">
            <path id="Trazado_70753" data-name="Trazado 70753" d="M813.521,1973.235c3.5.132,4.016-1.893,7.458-2.089,5.839-.333,7.269,5.35,12.895,5.263,4.593-.071,5.748-3.907,10.295-3.482,3.38.316,4.045,2.566,7.34,2.889a7.976,7.976,0,0,0,1.937-.053V1989.1l-55.04,2.3v-23.6a19.879,19.879,0,0,1,6.646,1.556C808.762,1970.981,809.993,1973.1,813.521,1973.235Z" transform="translate(-798.405 -1967.798)" fill="#f4f7fa"/>
          </g>
          <path id="Trazado_70754" data-name="Trazado 70754" d="M2526.922,1022.608l41.134.219V986.738l-41.133-1.208Z" transform="translate(-2363.433 -982.748)" fill="#f4f7fa" style="mix-blend-mode: soft-light;isolation: isolate"/>
          <path id="Trazado_70755" data-name="Trazado 70755" d="M800.842,1771.753l155.58-3.475v-6.522l-155.58,2.82Z" transform="translate(-800.612 -1685.555)" fill="#f4f7fa" style="mix-blend-mode: soft-light;isolation: isolate"/>
          <path id="Trazado_70756" data-name="Trazado 70756" d="M1450.837,1888.854l94.1-3.926v-27.542l-94.1,2.255Z" transform="translate(-1389.127 -1772.14)" fill="#f4f7fa" style="mix-blend-mode: soft-light;isolation: isolate"/>
        </g>
      </g>
      <g id="Grupo_45705" data-name="Grupo 45705" transform="translate(483.193 459.166)">
        <path id="Trazado_70757" data-name="Trazado 70757" d="M966.645,583.555l-79,1.121a5.635,5.635,0,0,1-5.932-5.414V504.2a5.336,5.336,0,0,1,5.932-5.141l79,4.757a5.466,5.466,0,0,1,5.094,5.377v69.218A5.167,5.167,0,0,1,966.645,583.555Z" transform="translate(-881.715 -499.049)" fill="url(#linear-gradient-2)"/>
        <g id="Grupo_45704" data-name="Grupo 45704" transform="translate(10.53 8.268)">
          <g id="Grupo_45703" data-name="Grupo 45703" transform="translate(0 23.287)" opacity="0.78" style="mix-blend-mode: soft-light;isolation: isolate">
            <path id="Trazado_70758" data-name="Trazado 70758" d="M1450.046,840.284l-8.15-.224v-7.39l8.15.279Z" transform="translate(-1399.442 -832.67)" fill="#fff"/>
            <path id="Trazado_70759" data-name="Trazado 70759" d="M1556.961,843.874l-8-.22v-7.322l8,.274Z" transform="translate(-1496.379 -835.986)" fill="#fff"/>
            <path id="Trazado_70760" data-name="Trazado 70760" d="M1661.934,847.4l-7.857-.216v-7.255l7.857.269Z" transform="translate(-1591.554 -839.241)" fill="#fff"/>
            <path id="Trazado_70761" data-name="Trazado 70761" d="M1001.832,932.543l-8.786-.164v-7.674l8.786.223Z" transform="translate(-993.046 -916)" fill="#fff"/>
            <path id="Trazado_70762" data-name="Trazado 70762" d="M1117.086,935.392l-8.621-.161v-7.6l8.621.218Z" transform="translate(-1097.548 -918.649)" fill="#fff"/>
            <path id="Trazado_70763" data-name="Trazado 70763" d="M1230.165,938.187l-8.459-.158V930.5l8.459.214Z" transform="translate(-1200.079 -921.247)" fill="#fff"/>
            <path id="Trazado_70764" data-name="Trazado 70764" d="M1341.133,940.929l-8.3-.155v-7.459l8.3.21Z" transform="translate(-1300.692 -923.796)" fill="#fff"/>
            <path id="Trazado_70765" data-name="Trazado 70765" d="M1450.046,943.621l-8.15-.152v-7.39l8.15.207Z" transform="translate(-1399.442 -926.298)" fill="#fff"/>
            <path id="Trazado_70766" data-name="Trazado 70766" d="M1556.961,946.264l-8-.149v-7.322l8,.2Z" transform="translate(-1496.379 -928.755)" fill="#fff"/>
            <path id="Trazado_70767" data-name="Trazado 70767" d="M1661.934,948.858l-7.857-.146v-7.256l7.857.2Z" transform="translate(-1591.554 -931.167)" fill="#fff"/>
            <path id="Trazado_70768" data-name="Trazado 70768" d="M1001.832,1039.853l-8.786-.086v-7.674l8.786.145Z" transform="translate(-993.046 -1013.231)" fill="#fff"/>
            <path id="Trazado_70769" data-name="Trazado 70769" d="M1117.086,1041.68l-8.621-.084v-7.6l8.621.142Z" transform="translate(-1097.548 -1014.953)" fill="#fff"/>
            <path id="Trazado_70770" data-name="Trazado 70770" d="M1230.165,1043.473l-8.459-.083v-7.529l8.459.139Z" transform="translate(-1200.079 -1016.642)" fill="#fff"/>
            <path id="Trazado_70771" data-name="Trazado 70771" d="M1341.133,1045.232l-8.3-.081v-7.459l8.3.137Z" transform="translate(-1300.692 -1018.3)" fill="#fff"/>
            <path id="Trazado_70772" data-name="Trazado 70772" d="M1450.046,1046.958l-8.15-.08v-7.39l8.15.134Z" transform="translate(-1399.442 -1019.927)" fill="#fff"/>
            <path id="Trazado_70773" data-name="Trazado 70773" d="M1556.961,1048.654l-8-.078v-7.322l8,.132Z" transform="translate(-1496.379 -1021.525)" fill="#fff"/>
            <path id="Trazado_70774" data-name="Trazado 70774" d="M1661.934,1050.317l-7.857-.077v-7.255l7.857.13Z" transform="translate(-1591.554 -1023.093)" fill="#fff"/>
            <path id="Trazado_70775" data-name="Trazado 70775" d="M1001.832,1147.163l-8.786-.008v-7.674l8.786.067Z" transform="translate(-993.046 -1110.462)" fill="#fff"/>
            <path id="Trazado_70776" data-name="Trazado 70776" d="M1117.086,1147.969l-8.621-.008v-7.6l8.621.066Z" transform="translate(-1097.548 -1111.257)" fill="#fff"/>
            <path id="Trazado_70777" data-name="Trazado 70777" d="M1230.165,1148.759l-8.459-.008v-7.529l8.459.064Z" transform="translate(-1200.079 -1112.038)" fill="#fff"/>
            <path id="Trazado_70778" data-name="Trazado 70778" d="M1341.133,1149.534l-8.3-.008v-7.459l8.3.063Z" transform="translate(-1300.692 -1112.804)" fill="#fff"/>
            <path id="Trazado_70779" data-name="Trazado 70779" d="M1450.046,1150.3l-8.15-.007v-7.39l8.15.062Z" transform="translate(-1399.442 -1113.555)" fill="#fff"/>
            <path id="Trazado_70780" data-name="Trazado 70780" d="M1556.961,1151.043l-8-.007v-7.322l8,.061Z" transform="translate(-1496.379 -1114.294)" fill="#fff"/>
            <path id="Trazado_70781" data-name="Trazado 70781" d="M1661.934,1151.776l-7.857-.007v-7.255l7.857.06Z" transform="translate(-1591.554 -1115.018)" fill="#fff"/>
            <path id="Trazado_70782" data-name="Trazado 70782" d="M1001.832,1254.367l-8.786.07v-7.674l8.786-.011Z" transform="translate(-993.046 -1207.586)" fill="#fff"/>
            <path id="Trazado_70783" data-name="Trazado 70783" d="M1117.086,1254.153l-8.621.069v-7.6l8.621-.011Z" transform="translate(-1097.548 -1207.458)" fill="#fff"/>
            <path id="Trazado_70784" data-name="Trazado 70784" d="M1230.165,1253.943l-8.459.067v-7.529l8.459-.01Z" transform="translate(-1200.079 -1207.332)" fill="#fff"/>
            <path id="Trazado_70785" data-name="Trazado 70785" d="M1341.133,1253.737l-8.3.066v-7.459l8.3-.01Z" transform="translate(-1300.692 -1207.208)" fill="#fff"/>
            <path id="Trazado_70786" data-name="Trazado 70786" d="M1450.046,1253.535l-8.15.065v-7.39l8.15-.01Z" transform="translate(-1399.442 -1207.087)" fill="#fff"/>
            <path id="Trazado_70787" data-name="Trazado 70787" d="M1556.961,1253.336l-8,.063v-7.322l8-.01Z" transform="translate(-1496.379 -1206.967)" fill="#fff"/>
          </g>
          <path id="Trazado_70788" data-name="Trazado 70788" d="M1209.346,598.041l-55.136-2.535v-9.043l55.136,2.976Z" transform="translate(-1138.966 -586.463)" fill="#fff"/>
          <path id="Trazado_70789" data-name="Trazado 70789" d="M1209.346,706.02l-55.136-2.283v-3.446l55.136,2.451Z" transform="translate(-1138.966 -689.525)" fill="#fff" opacity="0.78" style="mix-blend-mode: soft-light;isolation: isolate"/>
          <path id="Trazado_70790" data-name="Trazado 70790" d="M1450.046,1046.958l-8.15-.08v-7.39l8.15.134Z" transform="translate(-1399.442 -996.64)" fill="#fff"/>
        </g>
      </g>
      <g id="Grupo_45706" data-name="Grupo 45706" transform="translate(466.974 567.888)" opacity="0.79">
        <path id="Trazado_70791" data-name="Trazado 70791" d="M716.959,1732.18a6.214,6.214,0,0,1-6.721-6.2v-69.4a6.768,6.768,0,0,1,6.721-6.682l122.559-1.37a5.835,5.835,0,0,1,5.73,6.013v63.833a6.365,6.365,0,0,1-5.73,6.422Z" transform="translate(-710.238 -1648.526)" fill="url(#linear-gradient-3)"/>
        <path id="Trazado_70792" data-name="Trazado 70792" d="M861.778,1669.432l-122.559,1.526a4.5,4.5,0,0,0-4.4,4.513v69.3a4.129,4.129,0,0,0,4.4,4.2l122.559-7.229a4.239,4.239,0,0,0,3.758-4.334V1673.5A3.887,3.887,0,0,0,861.778,1669.432Z" transform="translate(-732.498 -1667.454)" fill="url(#linear-gradient-4)"/>
        <path id="Trazado_70793" data-name="Trazado 70793" d="M906.235,2245.567l-9.182.483V2231.3l9.182-.4Z" transform="translate(-879.383 -2175.813)" fill="#fff"/>
        <path id="Trazado_70794" data-name="Trazado 70794" d="M1067.276,2192.639l-9.015.474v-19.43l9.015-.368Z" transform="translate(-1025.344 -2123.679)" fill="#fff"/>
        <path id="Trazado_70795" data-name="Trazado 70795" d="M1225.4,2125.715l-8.853.465v-25.593l8.853-.327Z" transform="translate(-1168.656 -2057.534)" fill="#fff"/>
        <path id="Trazado_70796" data-name="Trazado 70796" d="M1380.677,2040.292l-8.695.458v-33.714l8.695-.277Z" transform="translate(-1309.392 -1972.876)" fill="#fff"/>
        <path id="Trazado_70797" data-name="Trazado 70797" d="M881.755,1820.388a1.668,1.668,0,0,1-.62-.095,1.4,1.4,0,0,1-.852-1.914,2.183,2.183,0,0,1,1.85-1.1c.385-.058.908-.118,1.57-.193,21.649-2.469,37.025-11.048,46.047-25.423a1.559,1.559,0,0,1,2.065-.522,1.39,1.39,0,0,1,.5,1.967c-6.1,9.734-15.011,17.039-26.587,21.707a82.6,82.6,0,0,1-21.755,5.215c-.618.072-1.254.145-1.549.2A1.734,1.734,0,0,1,881.755,1820.388Zm1.46-.939h0Zm0,0h0Zm0,0h0Zm0,0v0Zm0,0v0Zm0,0v0Zm0,0v0Z" transform="translate(-864.086 -1777.477)" fill="#fff"/>
        <path id="Trazado_70798" data-name="Trazado 70798" d="M1332.194,1763.387a1.433,1.433,0,0,1-1.5-1.309l-.428-6.291-6.282,4.152a1.55,1.55,0,0,1-2.105-.351,1.42,1.42,0,0,1,.418-2.017l10.628-7,.763,11.25a1.5,1.5,0,0,1-1.4,1.562C1332.26,1763.384,1332.226,1763.386,1332.194,1763.387Z" transform="translate(-1263.798 -1740.918)" fill="#fff"/>
        <path id="Trazado_70799" data-name="Trazado 70799" d="M1567.606,1805.033a2.24,2.24,0,0,1-2.215,2.193,2.127,2.127,0,0,1-2.221-2.1,2.239,2.239,0,0,1,2.221-2.193A2.127,2.127,0,0,1,1567.606,1805.033Z" transform="translate(-1482.497 -1788.33)" fill="#fff" opacity="0.68"/>
        <path id="Trazado_70800" data-name="Trazado 70800" d="M1683.091,1775.976l-37.754.918v-9.531l37.754-.692Z" transform="translate(-1556.892 -1755.496)" fill="#fff" opacity="0.68"/>
        <path id="Trazado_70801" data-name="Trazado 70801" d="M1567.606,1942.795a2.262,2.262,0,0,1-2.215,2.211,2.107,2.107,0,0,1-2.221-2.08,2.262,2.262,0,0,1,2.221-2.211A2.107,2.107,0,0,1,1567.606,1942.795Z" transform="translate(-1482.497 -1913.077)" fill="#fff" opacity="0.68"/>
        <path id="Trazado_70802" data-name="Trazado 70802" d="M1683.091,1910.032l-37.754,1.225v-9.531l37.754-1Z" transform="translate(-1556.892 -1876.873)" fill="#fff" opacity="0.68"/>
        <path id="Trazado_70803" data-name="Trazado 70803" d="M1567.606,2218.315a2.308,2.308,0,0,1-2.215,2.247,2.066,2.066,0,0,1-2.221-2.044,2.308,2.308,0,0,1,2.221-2.247A2.066,2.066,0,0,1,1567.606,2218.315Z" transform="translate(-1482.497 -2162.57)" fill="#fff" opacity="0.68"/>
        <path id="Trazado_70804" data-name="Trazado 70804" d="M1683.091,2198.087l-37.754,1.784v-4.765l37.754-1.671Z" transform="translate(-1556.892 -2141.895)" fill="#fff" opacity="0.68"/>
        <path id="Trazado_70805" data-name="Trazado 70805" d="M1567.606,2308.878a2.323,2.323,0,0,1-2.215,2.259,2.053,2.053,0,0,1-2.221-2.032,2.323,2.323,0,0,1,2.221-2.259A2.054,2.054,0,0,1,1567.606,2308.878Z" transform="translate(-1482.497 -2244.577)" fill="#fff" opacity="0.68"/>
        <path id="Trazado_70806" data-name="Trazado 70806" d="M1683.091,2286.217l-37.754,1.986v-4.766l37.754-1.873Z" transform="translate(-1556.892 -2221.689)" fill="#fff" opacity="0.68"/>
      </g>
      <g id="Grupo_45708" data-name="Grupo 45708" transform="translate(594.986 475.241)" opacity="0.78">
        <path id="Trazado_70807" data-name="Trazado 70807" d="M2157.139,722.582h-91.264a2.129,2.129,0,0,1-2.214-2.031V670.932a2.012,2.012,0,0,1,2.214-1.927l91.264,4.321a1.972,1.972,0,0,1,1.864,1.949v45.446A1.862,1.862,0,0,1,2157.139,722.582Z" transform="translate(-2063.661 -669.003)" fill="url(#linear-gradient-5)"/>
        <path id="Trazado_70808" data-name="Trazado 70808" d="M2157.139,1157.535h-91.264a2.129,2.129,0,0,1-2.214-2.031v-6.11l95.342.685v5.6A1.862,1.862,0,0,1,2157.139,1157.535Z" transform="translate(-2063.661 -1103.956)" fill="url(#linear-gradient-6)"/>
        <g id="Grupo_45707" data-name="Grupo 45707" transform="translate(40.578 15.863)">
          <path id="Trazado_70809" data-name="Trazado 70809" d="M2510.893,845.686a8.64,8.64,0,0,1-9.032,8.484,9.217,9.217,0,0,1-9.185-8.971,8.643,8.643,0,0,1,9.185-8.48A9.218,9.218,0,0,1,2510.893,845.686Z" transform="translate(-2492.676 -836.713)" fill="url(#linear-gradient-7)"/>
          <path id="Trazado_70810" data-name="Trazado 70810" d="M2551.916,884.635v-10.12l10.5,5.341Z" transform="translate(-2546.313 -870.939)" fill="#fff" opacity="0.68"/>
        </g>
        <path id="Trazado_70811" data-name="Trazado 70811" d="M2177.865,1188.893l-91.362-.262v-1.31l91.362.368Z" transform="translate(-2084.342 -1138.297)" fill="#fff" opacity="0.68"/>
        <path id="Trazado_70812" data-name="Trazado 70812" d="M2110.942,1188.7l-24.439-.07v-1.31l24.439.1Z" transform="translate(-2084.342 -1138.297)" fill="url(#linear-gradient-8)"/>
        <path id="Trazado_70813" data-name="Trazado 70813" d="M2313.718,1176.675a2.058,2.058,0,1,1-2.05-1.932A1.984,1.984,0,0,1,2313.718,1176.675Z" transform="translate(-2286.347 -1126.909)" fill="#fff"/>
      </g>
      <g id="Grupo_45719" data-name="Grupo 45719" transform="translate(557.067 602.132)">
        <g id="Grupo_45710" data-name="Grupo 45710" transform="translate(0 33.394)">
          <path id="Trazado_70814" data-name="Trazado 70814" d="M2069.14,2420.592a.4.4,0,0,1-.395-.36l-5.083-54.935a.4.4,0,1,1,.79-.073l4.291,46.375v-47.555a.4.4,0,0,1,.794,0V2420.2a.4.4,0,0,1-.379.4Z" transform="translate(-2025.741 -2363.647)" fill="#b7c0ce"/>
          <g id="Grupo_45709" data-name="Grupo 45709" transform="translate(0 0.296)">
            <path id="Trazado_70815" data-name="Trazado 70815" d="M1762.843,2372.886l-55.766-6.11-44.316,4.87,56.111,6.719Z" transform="translate(-1662.761 -2366.776)" fill="#f4f7fa" opacity="0.81"/>
            <path id="Trazado_70816" data-name="Trazado 70816" d="M1718.872,2424.98l43.97-5.479v2.646l-43.97,5.479-56.111-6.719v-2.646Z" transform="translate(-1662.761 -2413.392)" fill="#b7c0ce"/>
          </g>
          <path id="Trazado_70817" data-name="Trazado 70817" d="M1665.439,2498.356h-.016a.4.4,0,0,1-.381-.4V2440.9a.4.4,0,1,1,.794,0v46.935l3.688-46.966a.4.4,0,0,1,.792.062l-4.48,57.06A.4.4,0,0,1,1665.439,2498.356Z" transform="translate(-1664.826 -2433.233)" fill="#b7c0ce"/>
          <path id="Trazado_70818" data-name="Trazado 70818" d="M2665.967,2498.347a.4.4,0,0,1-.4-.364l-4.757-57.06a.4.4,0,0,1,.363-.428.392.392,0,0,1,.428.362l3.965,47.555v-46.136a.4.4,0,0,1,.794,0v55.674a.4.4,0,0,1-.381.4Z" transform="translate(-2566.413 -2433.224)" fill="#b7c0ce"/>
        </g>
        <g id="Grupo_45716" data-name="Grupo 45716" transform="translate(40.564)">
          <g id="Grupo_45713" data-name="Grupo 45713" transform="translate(0 19.327)">
            <g id="Grupo_45712" data-name="Grupo 45712">
              <path id="Trazado_70819" data-name="Trazado 70819" d="M2139.556,2413.062l-43.346-.323v.954a.525.525,0,0,0,.445.519l12.257,1.879a1.951,1.951,0,0,0,.44.018l29.733-2.143a.507.507,0,0,0,.471-.506Z" transform="translate(-2095.777 -2394.029)" fill="#26264f"/>
              <g id="Grupo_45711" data-name="Grupo 45711">
                <path id="Trazado_70820" data-name="Trazado 70820" d="M2119.679,2232.376l-27.168,1.746a.781.781,0,0,1-.881-.741v-17.661a.844.844,0,0,1,.881-.8h27.168a.723.723,0,0,1,.725.721v15.966A.782.782,0,0,1,2119.679,2232.376Z" transform="translate(-2091.63 -2214.921)" fill="#26264f"/>
                <path id="Trazado_70821" data-name="Trazado 70821" d="M2124.259,2232.376l-27.168,1.746a.781.781,0,0,1-.881-.741v-17.661a.843.843,0,0,1,.881-.8h27.168a.723.723,0,0,1,.724.721v15.966A.782.782,0,0,1,2124.259,2232.376Z" transform="translate(-2095.777 -2214.921)" fill="#26264f"/>
                <path id="Trazado_70822" data-name="Trazado 70822" d="M2134.725,2241.067l-25.3,1.516a.639.639,0,0,1-.717-.609v-15.462a.69.69,0,0,1,.717-.655l25.3-.095a.593.593,0,0,1,.6.591v14.083A.641.641,0,0,1,2134.725,2241.067Z" transform="translate(-2107.089 -2224.738)" fill="url(#linear-gradient-9)"/>
                <path id="Trazado_70823" data-name="Trazado 70823" d="M2253.3,2217.186a.313.313,0,1,1-.312-.3A.306.306,0,0,1,2253.3,2217.186Z" transform="translate(-2237.443 -2216.703)" fill="#fff"/>
                <path id="Trazado_70824" data-name="Trazado 70824" d="M2117.824,2227.541c-2.105-1.025-3.76.274-5.358-1.008-.969-.777-.493-1.357-1.685-2.518-1.32-1.287-2.179-.854-3.506-2.012-1.677-1.464-.838-2.6-2.283-3.654-1.753-1.275-3.643-.1-5.312-1.318a3.623,3.623,0,0,1-1.32-2.11h-1.632a.5.5,0,0,0-.518.469v18.32a.459.459,0,0,0,.518.436l27.831-1.789a.457.457,0,0,0,.335-.185,6.636,6.636,0,0,1-4.089-1.325C2119.24,2229.6,2119.512,2228.363,2117.824,2227.541Z" transform="translate(-2095.777 -2214.921)" fill="#fff" opacity="0.48" style="mix-blend-mode: soft-light;isolation: isolate"/>
              </g>
              <path id="Trazado_70825" data-name="Trazado 70825" d="M2125.342,2398.906l-29.132,1.838,12.7,1.948a1.979,1.979,0,0,0,.44.017l30.2-2.177-13.751-1.614A2.6,2.6,0,0,0,2125.342,2398.906Z" transform="translate(-2095.777 -2381.5)" fill="#26264f"/>
              <path id="Trazado_70826" data-name="Trazado 70826" d="M2141.152,2403.688l24.253-1.553,7.506.874-24.044,1.66Z" transform="translate(-2136.468 -2384.427)" fill="#d8dee8" opacity="0.47"/>
            </g>
          </g>
          <path id="Trazado_70827" data-name="Trazado 70827" d="M2400.644,3002.136s-6.372.443-6.465.859,4.325,2.024,5.869,2.084,2.814-.4,2.674-1.05-.68-2.3-.68-2.3Z" transform="translate(-2365.561 -2907.984)" fill="url(#linear-gradient-10)"/>
          <path id="Trazado_70828" data-name="Trazado 70828" d="M2458.286,2976.088l-.113,3.007a2.338,2.338,0,0,0,1.739.233l.856-3.171Z" transform="translate(-2423.503 -2884.767)" fill="url(#linear-gradient-11)"/>
          <path id="Trazado_70829" data-name="Trazado 70829" d="M2212.238,2989.316s-6.372.443-6.466.859,4.325,2.024,5.869,2.084,2.814-.4,2.674-1.05-.68-2.3-.68-2.3Z" transform="translate(-2194.975 -2896.376)" fill="url(#linear-gradient-12)"/>
          <path id="Trazado_70830" data-name="Trazado 70830" d="M2269.879,2963.268l-.113,3.007a2.338,2.338,0,0,0,1.739.233l.856-3.171Z" transform="translate(-2252.917 -2873.159)" fill="url(#linear-gradient-13)"/>
          <path id="Trazado_70831" data-name="Trazado 70831" d="M2433.922,2589.174l3.572.4a24,24,0,0,0,5.292-9.26c2.474-8.425-1.108-14.5,1.191-16.007,3.254-2.139,10.308,10.174,21.63,9.858,4.646-.13,10.709-2.405,13.039-7.36.352-.748,2.08-4.664.4-8.334-1.737-3.79-10.357-5.439-27.525-8.583-7.37-1.349-11.091-2.023-12.586-1.309C2428.335,2553.634,2432.753,2582.237,2433.922,2589.174Z" transform="translate(-2399.818 -2497.428)" fill="url(#linear-gradient-14)"/>
          <path id="Trazado_70832" data-name="Trazado 70832" d="M2259.994,2620.348l3.7.643c1.5-2.2,3.76-5.655,6.291-10.036,5.277-9.131,5.181-10.986,7.62-12.161,5.162-2.488,9.062,4.232,21.828,6.086,4.176.606,13.447,1.952,17.2-3.043a8.893,8.893,0,0,0,1.19-8.334c-2.157-5.192-9.264-4.569-32.676-9.128-9.13-1.778-10.375-2.095-12.586-1.309C2260.2,2587.457,2259.963,2614.35,2259.994,2620.348Z" transform="translate(-2244.068 -2528.551)" fill="url(#linear-gradient-15)"/>
          <path id="Trazado_70833" data-name="Trazado 70833" d="M2525.048,2144.419a12.71,12.71,0,0,1,5.177-5.568,11.28,11.28,0,0,1,1.938-1.036,26.256,26.256,0,0,1,10.663-1.8c2.116.159,7.342.55,11.213,3.9,1.874,1.624,3.372,3.891,5.556,16.669,3.046,17.821.574,15.994,2.977,23.217,1.271,3.823,3.252,8.208,1.157,11.008-.677.9-1.643,1.164-3.614,2.051-7.362,3.313-13.962,2.742-17.973,2.344-4.414-.437-6.644-.687-7.814-2.247-1.869-2.491.055-5.657.391-11.135.241-3.934-.654-7.051-2.442-13.284C2528.117,2154.053,2522.719,2150.113,2525.048,2144.419Z" transform="translate(-2483.545 -2124.126)" fill="url(#linear-gradient-16)"/>
          <path id="Trazado_70834" data-name="Trazado 70834" d="M2217.337,2403.587l-4.7-.905a2.859,2.859,0,0,0-1.024-.01l-4.069.7a11.147,11.147,0,0,0,4.9.73,9.094,9.094,0,0,1,4.706.932Z" transform="translate(-2196.577 -2365.549)" fill="url(#linear-gradient-17)"/>
          <g id="Grupo_45715" data-name="Grupo 45715" transform="translate(48.945)">
            <g id="Grupo_45714" data-name="Grupo 45714">
              <path id="Trazado_70835" data-name="Trazado 70835" d="M2612.07,2037.073c-.791-1.2.393-3.495.862-4.4.016-.031.037-.072.081-.154.719-1.327.9-1.509,1.247-1.739l.477-.295.057-.021a5.517,5.517,0,0,1,1.562-.1c.675.144,1.395,2.9,1.189,6.786q.042.223.081.448.159.921.256,1.805c.062.563.861.551,1.427.514,2.3-.146,3.419.049,3.516.391.183.641-2.54,2.735-5.9,3.206-4.512.034-8.182-.447-7.788-1.157.175-.316,3.671-1.229,4.654-2.135a3.009,3.009,0,0,0,.9-2.3C2614.225,2037.951,2612.673,2037.984,2612.07,2037.073Z" transform="translate(-2609.107 -2028.475)" fill="url(#linear-gradient-18)"/>
              <path id="Trazado_70836" data-name="Trazado 70836" d="M2646.062,2011.482c-.371.818.529,2.461.861,2.7a2,2,0,0,1,.436.477.6.6,0,0,1,.069.143c.264.76-.944,1.653-.711,1.993.169.247.99-.083,1.088.13s-.59.616-.486.856c.079.181.5.015.764.293a1.015,1.015,0,0,1,.233.671c.033,1.08-2.416,4.979-2.926,6.739-.541,1.866.427,3.642,3.942,8.551,5,6.982,7.5,10.473,8.891,11.47,6.793,4.877,14.782,4.279,18.058,3.77,3.935-.611,12.066-1.874,14.684-8.136,3.01-7.2-2.916-17.047-9-18.719-2.78-.764-4.26.4-7.871-.86-3.988-1.388-3.5-3.841-7.2-5.291-4.924-1.933-8.1,1.522-11.457-.993-1.825-1.369-1.524-2.872-3.77-3.969C2649.458,2010.225,2646.548,2010.41,2646.062,2011.482Z" transform="translate(-2641.831 -2010.581)" fill="#26264f"/>
              <path id="Trazado_70837" data-name="Trazado 70837" d="M2661.078,2071.646c.3-.406.814-.025.818.5s-.506,1.071-1,.967S2660.68,2072.192,2661.078,2071.646Z" transform="translate(-2655.758 -2065.716)" fill="url(#linear-gradient-19)"/>
            </g>
          </g>
          <path id="Trazado_70838" data-name="Trazado 70838" d="M2578.06,2318.079c-1.3-2.585,1.883-6.022-.2-9.963-1.765-3.347-4.972-2.6-6.447-5.665-1.781-3.706,2.092-6.475,1.953-12.112-.166-6.739-5.965-13.485-9.377-12.894-2.208.383-2.491,3.677-4.045,7.283a81.9,81.9,0,0,1,4.436,11.862c1.789,6.234,2.683,9.351,2.442,13.284-.336,5.479-2.26,8.645-.391,11.135,1.17,1.559,3.4,1.81,7.814,2.246,4.011.4,10.612.969,17.973-2.344.932-.419,1.63-.733,2.2-1.043C2582.921,2321.6,2579.09,2320.13,2578.06,2318.079Z" transform="translate(-2515.654 -2252.171)" opacity="0.3" fill="url(#linear-gradient-20)" style="mix-blend-mode: multiply;isolation: isolate"/>
          <path id="Trazado_70839" data-name="Trazado 70839" d="M2298.454,2191.8l.4-1.8c9.038,1.62,12.99-.2,14.9-2.323,1.752-1.95,1.005-2.958,3.81-10.4,2.671-7.091,5.7-8.913,7.228-9.573a3.273,3.273,0,0,1,2.149-.439c3.256.8,4.332,9.281,3.418,15.629-.515,3.576-1.524,10.59-7.277,13.919-.106.061-.273.158-.495.276-.724.388-3.6,1.772-9.273.749C2306.628,2196.632,2300.105,2192.8,2298.454,2191.8Z" transform="translate(-2278.892 -2152.394)" fill="url(#linear-gradient-21)"/>
        </g>
        <g id="Grupo_45718" data-name="Grupo 45718" transform="translate(79.947 38.848)">
          <ellipse id="Elipse_727" data-name="Elipse 727" cx="19.746" cy="8.059" rx="19.746" ry="8.059" transform="translate(5.105 62.571)" fill="#b7c0ce"/>
          <path id="Trazado_70840" data-name="Trazado 70840" d="M2601.48,3052.031c0,4.2-8.84,7.608-19.746,7.608s-19.746-3.406-19.746-7.608,8.84-11.075,19.746-11.075S2601.48,3047.83,2601.48,3052.031Z" transform="translate(-2556.884 -2982.347)" fill="#fff"/>
          <path id="Trazado_70841" data-name="Trazado 70841" d="M2661.867,3052.031c0-4.2-8.841-11.075-19.746-11.075a26.8,26.8,0,0,0-13.116,3.458,2.871,2.871,0,0,0-.312,1.5c.227,2.363,4.082,3.817,6.295,4.3,5.573,1.207,8.294-2.125,12.889-2,2.841.079,6.777,1.506,11.447,7.55C2660.941,3054.661,2661.867,3053.388,2661.867,3052.031Z" transform="translate(-2617.271 -2982.347)" opacity="0.3" fill="url(#linear-gradient-22)" style="mix-blend-mode: multiply;isolation: isolate"/>
          <path id="Trazado_70842" data-name="Trazado 70842" d="M2750.818,2854.993a4.471,4.471,0,0,1-2.218.013,1.427,1.427,0,0,1-1.059-1.389v-22.265h4.391v22.239A1.454,1.454,0,0,1,2750.818,2854.993Z" transform="translate(-2724.886 -2792.569)" fill="#fff"/>
          <path id="Trazado_70843" data-name="Trazado 70843" d="M2750.818,2854.993a4.471,4.471,0,0,1-2.218.013,1.427,1.427,0,0,1-1.059-1.389v-22.265h4.391v22.239A1.454,1.454,0,0,1,2750.818,2854.993Z" transform="translate(-2724.886 -2792.569)" opacity="0.65" fill="url(#linear-gradient-23)" style="mix-blend-mode: multiply;isolation: isolate"/>
          <g id="Grupo_45717" data-name="Grupo 45717">
            <path id="Trazado_70844" data-name="Trazado 70844" d="M2509.668,2450.72l6.707-4.24c.279-1.584,3.441-18.155,16.277-23.358,5.22-2.116,10.837-1.865,13.92-1.727,6.154.275,10.544.471,12.655,3.407,2.711,3.769-1.836,7.188-.894,17.97.384,4.4,1.36,6.35.144,9.263-1.457,3.49-4.835,5.423-7.462,6.512a38.23,38.23,0,0,1-15.829,5.054,39.392,39.392,0,0,1-24.367-6.148,4.018,4.018,0,0,1-2.727-3.018A3.544,3.544,0,0,1,2509.668,2450.72Z" transform="translate(-2508.017 -2421.307)" fill="url(#linear-gradient-24)"/>
          </g>
          <path id="Trazado_70845" data-name="Trazado 70845" d="M2557.966,2475.185c.248-1.491,4.4-.255,8.334-3.175,5.876-4.365,2.826-11.758,7.938-18.851,4.69-6.509,14.134-9.822,17.065-7.342,3.9,3.3-5.648,15.647,0,23.614,2.744,3.87,6.924,3.684,6.945,5.953.034,3.586-10.369,7.721-20.24,7.541C2567.4,2482.729,2557.572,2477.551,2557.966,2475.185Z" transform="translate(-2553.231 -2442.752)" fill="#fff" opacity="0.26" style="mix-blend-mode: soft-light;isolation: isolate"/>
        </g>
        <path id="Trazado_70846" data-name="Trazado 70846" d="M2256.212,2568.893h-.015a.4.4,0,0,1-.382-.4v-61.821a.4.4,0,0,1,.794,0v51.655l4.042-51.686a.4.4,0,0,1,.791.062l-4.834,61.821A.4.4,0,0,1,2256.212,2568.893Z" transform="translate(-2199.722 -2459.394)" fill="#b7c0ce"/>
      </g>
      <g id="Grupo_45723" data-name="Grupo 45723" transform="translate(537.121 505.208)">
        <g id="Grupo_45722" data-name="Grupo 45722" transform="translate(0)">
          <circle id="Elipse_728" data-name="Elipse 728" cx="34.233" cy="34.233" r="34.233" transform="translate(0 48.413) rotate(-45)" fill="url(#linear-gradient-25)"/>
          <g id="Grupo_45721" data-name="Grupo 45721" transform="translate(16.762 11.597)">
            <circle id="Elipse_729" data-name="Elipse 729" cx="34.233" cy="34.233" r="34.233" fill="url(#linear-gradient-26)"/>
            <path id="Trazado_70847" data-name="Trazado 70847" d="M1717.8,1165.283a31.872,31.872,0,1,1-31.872-31.872c.295,0,.586,0,.878.012A31.872,31.872,0,0,1,1717.8,1165.283Z" transform="translate(-1651.696 -1131.05)" fill="url(#linear-gradient-9)"/>
            <g id="Grupo_45720" data-name="Grupo 45720" transform="translate(5.609 19.587)">
              <path id="Trazado_70848" data-name="Trazado 70848" d="M1717.025,1315.537l-28.624,8.725,28.624,8.725,28.624-8.725Z" transform="translate(-1688.401 -1315.537)" fill="#fff"/>
              <path id="Trazado_70849" data-name="Trazado 70849" d="M1818.579,1479.8l-18.015-5.491v12.544a4.361,4.361,0,0,0,3.454,4.267,64,64,0,0,0,27.885.067,4.351,4.351,0,0,0,3.364-4.246v-12.227Z" transform="translate(-1789.955 -1459.29)" fill="#fff"/>
              <path id="Trazado_70850" data-name="Trazado 70850" d="M1714.846,1457.141a4.376,4.376,0,0,1-4.106.044.919.919,0,0,1-.436-.982l2.548-12.667,2.528,12.571A.931.931,0,0,1,1714.846,1457.141Z" transform="translate(-1708.216 -1431.429)" fill="#fff"/>
              <path id="Trazado_70851" data-name="Trazado 70851" d="M1757.856,1394.117,1733.5,1396.7v4.225h.722l.074-3.7Z" transform="translate(-1729.233 -1386.684)" fill="#fff"/>
            </g>
            <path id="Trazado_70852" data-name="Trazado 70852" d="M1859.556,1165.4a31.873,31.873,0,0,1-48.936,26.92c3-8.153,11.662-16.906,20.632-22.391,16.6-10.151,3.987-28.493-2.69-36.389A31.872,31.872,0,0,1,1859.556,1165.4Z" transform="translate(-1793.451 -1131.169)" fill="#fff" opacity="0.6" style="mix-blend-mode: soft-light;isolation: isolate"/>
          </g>
        </g>
      </g>
    </g>
  </g>
</svg>
