<svg xmlns="http://www.w3.org/2000/svg" width="638.778" height="638.778" viewBox="0 0 638.778 638.778">
  <g id="Grupo_46009" data-name="Grupo 46009" transform="translate(9064.5 -3129)">
    <path id="Trazado_71685" data-name="Trazado 71685" d="M335.018,771.281l52.474-56.859a154.662,154.662,0,0,1-109.03-136.386H301.2a8.705,8.705,0,0,0,5.906-15.1L217.453,480.2a8.706,8.706,0,0,0-11.808,0l-89.651,82.732a8.707,8.707,0,0,0,5.906,15.1h19.248c5.377,138.38,107.051,252.04,239.945,275.7L335.018,803.8A24.106,24.106,0,0,1,335.018,771.281Z" transform="translate(-9177.677 2881.863)" fill="#a471fc"/>
    <path id="Trazado_71686" data-name="Trazado 71686" d="M478.784,699.085h-19.19c-5.37-138.366-107.084-251.971-239.959-275.649l46.032,49.882a24.106,24.106,0,0,1,0,32.522l-52.528,56.918A154.6,154.6,0,0,1,322.263,699.085H299.482a8.7,8.7,0,0,0-5.9,15.1l89.647,82.732a8.711,8.711,0,0,0,11.811,0l89.647-82.732A8.7,8.7,0,0,0,478.784,699.085Z" transform="translate(-8913.228 2737.795)" fill="#a471fc"/>
    <path id="Trazado_71682" data-name="Trazado 71682" d="M552.267,521.048l-49.882,46.032a23.968,23.968,0,0,1-32.518,0l-56.921-52.524A154.585,154.585,0,0,1,276.621,623.634V600.9a8.709,8.709,0,0,0-15.107-5.906l-82.732,89.651a8.706,8.706,0,0,0,0,11.808L261.514,786.1a8.708,8.708,0,0,0,15.107-5.906V760.953C414.976,755.572,528.589,653.917,552.267,521.048Z" transform="translate(-9010.221 2978.855)" fill="#7546c7"/>
    <path id="Trazado_71689" data-name="Trazado 71689" d="M495.543,507.064l-82.735-89.651a8.706,8.706,0,0,0-15.1,5.906v19.194c-138.384,5.377-252.044,107.1-275.7,240l49.933-46.08a23.973,23.973,0,0,1,32.522,0l56.859,52.47A154.68,154.68,0,0,1,397.7,579.847v22.77a8.707,8.707,0,0,0,15.1,5.906l82.735-89.651A8.706,8.706,0,0,0,495.543,507.064Z" transform="translate(-9154.325 2714.406)" fill="#7546c7"/>
    <path id="Trazado_71687" data-name="Trazado 71687" d="M280.936,516.9c0,12.1-4.754,19.693-13.729,19.693-8.687,0-13.324-7.878-13.383-19.347,0-11.7,4.983-19.58,13.787-19.58C276.707,497.669,280.936,505.78,280.936,516.9Zm-19.926.346c-.062,9.15,2.49,13.9,6.427,13.9,4.17,0,6.372-5.1,6.372-14.134,0-8.749-2.085-13.9-6.372-13.9C263.616,503.115,260.947,507.807,261.009,517.249Z" transform="translate(-8805.592 2934.181)" fill="#fff"/>
    <path id="Trazado_71688" data-name="Trazado 71688" d="M262.481,535.958v-4.345l4.462-4.112c8.862-8.224,13.033-12.741,13.091-17.724,0-3.358-1.8-6.314-6.719-6.314a13.737,13.737,0,0,0-8.053,3.128l-2.085-5.038a18.632,18.632,0,0,1,11.586-3.883c8.341,0,12.395,5.275,12.395,11.411,0,6.606-4.75,11.935-11.294,18.016l-3.3,2.84v.117h15.461v5.906Z" transform="translate(-8782.689 2934.181)" fill="#fff"/>
    <path id="Trazado_71684" data-name="Trazado 71684" d="M217.89,577.376c0,12.107-4.754,19.7-13.729,19.7-8.687,0-13.324-7.878-13.383-19.347,0-11.7,4.983-19.58,13.787-19.58C213.661,558.146,217.89,566.257,217.89,577.376Zm-19.926.35c-.062,9.15,2.49,13.9,6.427,13.9,4.17,0,6.372-5.1,6.372-14.134,0-8.746-2.085-13.9-6.372-13.9C200.57,563.592,197.9,568.284,197.963,577.726Z" transform="translate(-8972.382 3094.174)" fill="#fff"/>
    <path id="Trazado_71683" data-name="Trazado 71683" d="M201.01,589.078a18.584,18.584,0,0,0,8.571,2.315c5.446,0,7.648-3.066,7.586-6.022,0-4.458-4.167-6.372-8.512-6.372h-3.3v-5.213h3.19c3.3,0,7.47-1.505,7.47-5.268,0-2.552-1.91-4.7-6.026-4.7a15.162,15.162,0,0,0-7.7,2.377l-1.622-5.155a20.306,20.306,0,0,1,10.834-2.9c7.761,0,11.757,4.287,11.757,9.212,0,3.937-2.315,7.182-6.952,8.8v.117c4.575.813,8.283,4.287,8.283,9.387,0,6.372-5.326,11.411-14.651,11.411a20.563,20.563,0,0,1-10.543-2.606Z" transform="translate(-8949.604 3094.174)" fill="#fff"/>
    <path id="Trazado_71690" data-name="Trazado 71690" d="M159.166,516.9c0,12.107-4.75,19.7-13.725,19.7-8.691,0-13.324-7.882-13.383-19.347,0-11.7,4.983-19.58,13.787-19.58C154.937,497.67,159.166,505.778,159.166,516.9Zm-19.923.35c-.062,9.15,2.49,13.9,6.427,13.9,4.17,0,6.372-5.1,6.372-14.134,0-8.749-2.085-13.9-6.372-13.9C141.85,503.116,139.181,507.808,139.243,517.25Z" transform="translate(-9127.727 2934.183)" fill="#fff"/>
    <path id="Trazado_71691" data-name="Trazado 71691" d="M157.381,535.5v-9.559H140.349V521.3L155.7,497.845h8.4v22.7h4.867v5.388H164.1V535.5Zm0-14.947V510.3c0-2.143.058-4.345.233-6.544h-.233c-1.159,2.373-2.144,4.283-3.3,6.369l-6.894,10.309-.055.117Z" transform="translate(-9105.793 2934.646)" fill="#fff"/>
    <path id="Trazado_71699" data-name="Trazado 71699" d="M8.906,0,8.023-2.477H3.156L2.281,0H.352l4.1-11.141H6.727L10.828,0ZM3.727-4.078H7.461L5.594-9.344ZM15.789.141a3.988,3.988,0,0,1-2.93-1.129,3.966,3.966,0,0,1-1.141-2.949,3.946,3.946,0,0,1,1.145-2.945,4,4,0,0,1,2.926-1.125,3.993,3.993,0,0,1,2.41.723,3.411,3.411,0,0,1,1.316,2.02l-1.672.219a2.1,2.1,0,0,0-.77-1.125,2.168,2.168,0,0,0-1.3-.391,2.062,2.062,0,0,0-1.625.723,2.783,2.783,0,0,0-.633,1.9,2.783,2.783,0,0,0,.633,1.9,2.062,2.062,0,0,0,1.625.723,2.183,2.183,0,0,0,1.3-.387,2.075,2.075,0,0,0,.77-1.121l1.672.211A3.416,3.416,0,0,1,18.191-.586,3.987,3.987,0,0,1,15.789.141ZM24.039,0a2.222,2.222,0,0,1-1.656-.6,2.31,2.31,0,0,1-.594-1.7V-6.453h-1.57V-7.859h.539a1.229,1.229,0,0,0,.926-.3,1.52,1.52,0,0,0,.285-1.051V-10.43h1.641v2.57H25.32v1.406H23.609v3.969a1.127,1.127,0,0,0,.27.816.971.971,0,0,0,.73.277h.711V0Zm8.18-7.859h1.8V0H32.3l-.047-.984A2.812,2.812,0,0,1,29.836.148a2.909,2.909,0,0,1-2.078-.707,2.631,2.631,0,0,1-.75-2.012V-7.859H28.82v4.9a1.612,1.612,0,0,0,.434,1.238,1.583,1.583,0,0,0,1.121.4,1.823,1.823,0,0,0,1.324-.5,2.064,2.064,0,0,0,.52-1.527Zm6.2,8.008a3.262,3.262,0,0,1-1.2-.207,1.906,1.906,0,0,1-.875-.7,2.092,2.092,0,0,1-.348-1.23,2.28,2.28,0,0,1,.16-.879,1.924,1.924,0,0,1,.422-.645,2.479,2.479,0,0,1,.664-.453,4.762,4.762,0,0,1,.813-.309q.41-.113.949-.215l1.188-.219q.727-.141.727-.711a1.116,1.116,0,0,0-.437-.98,1.865,1.865,0,0,0-1.1-.309,1.844,1.844,0,0,0-1.133.332,1.454,1.454,0,0,0-.531,1.051l-1.617-.3Q36.492-8,39.484-8a5.538,5.538,0,0,1,.934.074,3.334,3.334,0,0,1,.852.27,2.45,2.45,0,0,1,.715.5,2.165,2.165,0,0,1,.477.8,3.327,3.327,0,0,1,.18,1.137V-2.18a1.244,1.244,0,0,0,.164.75.707.707,0,0,0,.578.2h.125V0h-.852Q41.32,0,41.063-1.039h-.086a2.555,2.555,0,0,1-1.113.9A3.683,3.683,0,0,1,38.414.148Zm.422-1.414a2.09,2.09,0,0,0,1.57-.648,2.351,2.351,0,0,0,.625-1.7l-2.008.445a2.407,2.407,0,0,0-.969.363.785.785,0,0,0-.32.668.755.755,0,0,0,.3.656A1.336,1.336,0,0,0,38.836-1.266Zm8.148-5.273a2.373,2.373,0,0,1,1-1,3.107,3.107,0,0,1,1.535-.406V-6.3a2.769,2.769,0,0,0-1.855.527,2.242,2.242,0,0,0-.605,1.77V0h-1.8V-7.859h1.734Z" transform="translate(-8905.722 3238.778)" fill="#fff"/>
    <path id="Trazado_71694" data-name="Trazado 71694" d="M8.076.2A7.877,7.877,0,0,1,5.2-.322,6.763,6.763,0,0,1,2.91-1.768a6.515,6.515,0,0,1-1.5-2.295,8,8,0,0,1-.547-3A7.644,7.644,0,0,1,1.8-10.894,6.382,6.382,0,0,1,4.37-13.428a7.705,7.705,0,0,1,3.706-.879,7.488,7.488,0,0,1,4.141,1.143,6.255,6.255,0,0,1,2.529,3.145l-2.734,1a3.866,3.866,0,0,0-1.514-1.9,4.323,4.323,0,0,0-2.422-.684,4.145,4.145,0,0,0-3.086,1.23,4.528,4.528,0,0,0-1.211,3.32A4.534,4.534,0,0,0,5-3.735,4.14,4.14,0,0,0,8.076-2.5a4.307,4.307,0,0,0,2.417-.688A3.883,3.883,0,0,0,12.012-5.1l2.734,1A6.28,6.28,0,0,1,12.217-.952,7.464,7.464,0,0,1,8.076.2ZM18.213-11.543a1.579,1.579,0,0,1-1.152-.474,1.555,1.555,0,0,1-.479-1.147,1.536,1.536,0,0,1,.483-1.138,1.584,1.584,0,0,1,1.147-.474,1.556,1.556,0,0,1,1.133.474,1.544,1.544,0,0,1,.479,1.138,1.555,1.555,0,0,1-.479,1.147A1.556,1.556,0,0,1,18.213-11.543ZM16.777,0V-10.039h2.832V0ZM27.061.186A5.364,5.364,0,0,1,23.184-1.26a4.992,4.992,0,0,1-1.5-3.77,4.981,4.981,0,0,1,1.5-3.77,5.38,5.38,0,0,1,3.882-1.436,5.349,5.349,0,0,1,3.252.967,4.316,4.316,0,0,1,1.68,2.725l-2.6.283a2.226,2.226,0,0,0-.84-1.318,2.554,2.554,0,0,0-1.523-.439A2.3,2.3,0,0,0,25.2-7.2a3.216,3.216,0,0,0-.7,2.168,3.22,3.22,0,0,0,.7,2.163,2.3,2.3,0,0,0,1.836.825A2.532,2.532,0,0,0,28.55-2.48,2.277,2.277,0,0,0,29.395-3.8l2.6.283A4.328,4.328,0,0,1,30.3-.791,5.327,5.327,0,0,1,27.061.186ZM33.994,0V-15h2.842V0Zm10.43.2A6.313,6.313,0,0,1,41.582-.42a4.6,4.6,0,0,1-1.948-1.807,5.384,5.384,0,0,1-.708-2.8,4.911,4.911,0,0,1,1.523-3.809,5.652,5.652,0,0,1,3.975-1.4,5.665,5.665,0,0,1,3.984,1.4,4.911,4.911,0,0,1,1.523,3.809,4.938,4.938,0,0,1-1.523,3.823A5.654,5.654,0,0,1,44.424.2Zm-.029-2.236a2.577,2.577,0,0,0,1.987-.82,3.071,3.071,0,0,0,.757-2.168A3.071,3.071,0,0,0,46.382-7.2a2.577,2.577,0,0,0-1.987-.82,2.483,2.483,0,0,0-1.929.825,3.1,3.1,0,0,0-.747,2.163,3.1,3.1,0,0,0,.747,2.163A2.483,2.483,0,0,0,44.395-2.041ZM64.336-15h2.813V0H64.482l-.068-1.309A2.867,2.867,0,0,1,63.14-.171a4.29,4.29,0,0,1-1.88.405,4.883,4.883,0,0,1-1.875-.361,4.654,4.654,0,0,1-1.538-1.021A4.652,4.652,0,0,1,56.807-2.8,6.106,6.106,0,0,1,56.426-5a5.707,5.707,0,0,1,.664-2.8,4.55,4.55,0,0,1,1.753-1.821,4.827,4.827,0,0,1,2.417-.615,4.4,4.4,0,0,1,1.821.366,2.843,2.843,0,0,1,1.255,1.04ZM61.9-2.1a2.5,2.5,0,0,0,1.9-.8A2.932,2.932,0,0,0,64.561-5,2.938,2.938,0,0,0,63.8-7.1,2.5,2.5,0,0,0,61.9-7.91,2.53,2.53,0,0,0,60-7.119,2.937,2.937,0,0,0,59.238-5,2.924,2.924,0,0,0,60-2.891,2.53,2.53,0,0,0,61.9-2.1ZM79.5-5.166l-.029.674H72.031a2.6,2.6,0,0,0,.8,1.836,2.561,2.561,0,0,0,1.768.635,2.468,2.468,0,0,0,1.323-.347,2.131,2.131,0,0,0,.845-1.011L79.346-3A4.383,4.383,0,0,1,77.588-.645,5.226,5.226,0,0,1,74.619.2a5.435,5.435,0,0,1-3.911-1.382,5.042,5.042,0,0,1-1.45-3.833,5.072,5.072,0,0,1,1.455-3.833,5.273,5.273,0,0,1,3.818-1.4,5.04,5.04,0,0,1,3.6,1.279A5.019,5.019,0,0,1,79.5-5.166Zm-4.951-3.1a2.222,2.222,0,0,0-2.441,1.934h4.609a2.114,2.114,0,0,0-.693-1.436A2.2,2.2,0,0,0,74.551-8.262ZM87.207,0V-14.111h5.107a7.962,7.962,0,0,1,2.944.508,5.423,5.423,0,0,1,2.109,1.44,6.266,6.266,0,0,1,1.25,2.222,9.172,9.172,0,0,1,.425,2.881,9.206,9.206,0,0,1-.425,2.891,6.266,6.266,0,0,1-1.25,2.222,5.423,5.423,0,0,1-2.109,1.44A7.962,7.962,0,0,1,92.314,0Zm2.93-2.588h2.031A3.466,3.466,0,0,0,95.02-3.735a5.143,5.143,0,0,0,.938-3.325,5.143,5.143,0,0,0-.937-3.325,3.466,3.466,0,0,0-2.852-1.147H90.137Zm20.723-2.578-.029.674h-7.441a2.6,2.6,0,0,0,.8,1.836,2.561,2.561,0,0,0,1.768.635,2.468,2.468,0,0,0,1.323-.347,2.131,2.131,0,0,0,.845-1.011L110.7-3a4.383,4.383,0,0,1-1.758,2.354,5.226,5.226,0,0,1-2.969.84,5.435,5.435,0,0,1-3.911-1.382,5.042,5.042,0,0,1-1.45-3.833,5.072,5.072,0,0,1,1.455-3.833,5.273,5.273,0,0,1,3.818-1.4,5.04,5.04,0,0,1,3.6,1.279A5.019,5.019,0,0,1,110.859-5.166Zm-4.951-3.1a2.222,2.222,0,0,0-2.441,1.934h4.609a2.114,2.114,0,0,0-.693-1.436A2.2,2.2,0,0,0,105.908-8.262Zm18.984-1.973a3.836,3.836,0,0,1,2.588.815,2.918,2.918,0,0,1,.947,2.339V0h-2.812V-6.279a1.677,1.677,0,0,0-.449-1.27,1.573,1.573,0,0,0-1.133-.43,1.814,1.814,0,0,0-1.367.547,2.484,2.484,0,0,0-.527,1.768V0H119.3V-6.25a1.721,1.721,0,0,0-.449-1.294,1.6,1.6,0,0,0-1.162-.435,1.757,1.757,0,0,0-1.357.576,2.751,2.751,0,0,0-.527,1.885V0H113V-10.039h2.8v1.182a3.414,3.414,0,0,1,2.91-1.377,4.293,4.293,0,0,1,1.89.386,2.572,2.572,0,0,1,1.187,1.118A3.55,3.55,0,0,1,124.893-10.234Zm7.705-1.309a1.579,1.579,0,0,1-1.152-.474,1.555,1.555,0,0,1-.479-1.147,1.536,1.536,0,0,1,.483-1.138,1.584,1.584,0,0,1,1.147-.474,1.556,1.556,0,0,1,1.133.474,1.544,1.544,0,0,1,.479,1.138,1.555,1.555,0,0,1-.479,1.147A1.556,1.556,0,0,1,132.6-11.543ZM131.162,0V-10.039h2.832V0Zm11.67-10.234a3.914,3.914,0,0,1,2.773.9,3.349,3.349,0,0,1,.967,2.573V0H143.75V-6.152a1.749,1.749,0,0,0-.5-1.387,1.9,1.9,0,0,0-1.294-.439,2.643,2.643,0,0,0-.84.127,2.158,2.158,0,0,0-.7.4,1.748,1.748,0,0,0-.5.757,3.5,3.5,0,0,0-.19,1.162V0H136.9V-10.039h2.813v1.113A3.868,3.868,0,0,1,142.832-10.234Zm13.379.2h2.676V-.752a7.51,7.51,0,0,1-.376,2.5,4.123,4.123,0,0,1-1.089,1.714,4.539,4.539,0,0,1-1.67.962,7.04,7.04,0,0,1-2.187.313q-3.975,0-5.176-3.115l2.334-1a3.406,3.406,0,0,0,1.084,1.455,2.763,2.763,0,0,0,1.65.469q2.607,0,2.607-3.1V-1.719a3.163,3.163,0,0,1-1.265.991,4.2,4.2,0,0,1-1.782.376,4.443,4.443,0,0,1-1.763-.356,4.478,4.478,0,0,1-1.46-1,4.638,4.638,0,0,1-.991-1.577,5.534,5.534,0,0,1-.366-2.031,5.523,5.523,0,0,1,.366-2.036,4.451,4.451,0,0,1,1-1.558,4.584,4.584,0,0,1,1.465-.977,4.521,4.521,0,0,1,1.772-.352,4.082,4.082,0,0,1,1.86.415,2.967,2.967,0,0,1,1.245,1.108ZM151.9-3.4a2.461,2.461,0,0,0,1.841.771,2.462,2.462,0,0,0,1.846-.781,2.644,2.644,0,0,0,.752-1.9,2.665,2.665,0,0,0-.747-1.914,2.458,2.458,0,0,0-1.851-.781,2.46,2.46,0,0,0-1.851.767,2.671,2.671,0,0,0-.737,1.929A2.644,2.644,0,0,0,151.9-3.4Z" transform="translate(-8825.722 3458.778)" fill="#080033"/>
    <path id="Trazado_71695" data-name="Trazado 71695" d="M8.57-11.141h1.984L6.445,0H4.438L.352-11.141H2.328l3.125,8.9Zm9.945,7.078-.023.453H12.516A2.371,2.371,0,0,0,13.2-1.891a2.245,2.245,0,0,0,1.586.594,2.155,2.155,0,0,0,1.168-.32,2.019,2.019,0,0,0,.777-.914l1.641.281A3.454,3.454,0,0,1,17.016-.484,3.9,3.9,0,0,1,14.8.148,4.029,4.029,0,0,1,11.859-.937,4,4,0,0,1,10.75-3.93a4.011,4.011,0,0,1,1.109-2.992A3.941,3.941,0,0,1,14.75-8.016a3.742,3.742,0,0,1,2.727,1A3.958,3.958,0,0,1,18.516-4.062ZM14.758-6.68a2.293,2.293,0,0,0-1.418.426,2.073,2.073,0,0,0-.746,1.3h4.117a1.894,1.894,0,0,0-.625-1.289A2,2,0,0,0,14.758-6.68Zm7.406.141a2.373,2.373,0,0,1,1-1A3.107,3.107,0,0,1,24.7-7.945V-6.3a2.769,2.769,0,0,0-1.855.527,2.242,2.242,0,0,0-.605,1.77V0h-1.8V-7.859h1.734Zm4.906-2.82a1.073,1.073,0,0,1-.781-.324,1.054,1.054,0,0,1-.328-.777,1.06,1.06,0,0,1,.324-.777,1.069,1.069,0,0,1,.785-.324,1.064,1.064,0,0,1,.773.324,1.054,1.054,0,0,1,.328.777,1.054,1.054,0,0,1-.328.777A1.064,1.064,0,0,1,27.07-9.359ZM26.148,0V-7.859h1.8V0Zm4.828-9.094a4.653,4.653,0,0,1,.09-.957,2.822,2.822,0,0,1,.25-.73,1.8,1.8,0,0,1,.41-.523,2.293,2.293,0,0,1,.531-.352,2.93,2.93,0,0,1,.664-.211,5.959,5.959,0,0,1,.754-.105q.371-.027.848-.027v1.461h-.281q-.078,0-.266.012a1.5,1.5,0,0,0-.273.035q-.086.023-.242.074a.609.609,0,0,0-.23.121q-.074.07-.18.18a.65.65,0,0,0-.152.254,3,3,0,0,0-.086.344,2.3,2.3,0,0,0-.039.441v1.219h1.75v1.406h-1.75V0h-1.8V-6.453H29.453V-7.859h1.523Zm5.891-.266a1.073,1.073,0,0,1-.781-.324,1.054,1.054,0,0,1-.328-.777,1.06,1.06,0,0,1,.324-.777,1.069,1.069,0,0,1,.785-.324,1.064,1.064,0,0,1,.773.324,1.054,1.054,0,0,1,.328.777,1.054,1.054,0,0,1-.328.777A1.064,1.064,0,0,1,36.867-9.359ZM35.945,0V-7.859h1.8V0ZM43.7.141a3.988,3.988,0,0,1-2.93-1.129,3.966,3.966,0,0,1-1.141-2.949,3.946,3.946,0,0,1,1.145-2.945A4,4,0,0,1,43.7-8.008a3.993,3.993,0,0,1,2.41.723,3.411,3.411,0,0,1,1.316,2.02l-1.672.219a2.1,2.1,0,0,0-.77-1.125,2.168,2.168,0,0,0-1.3-.391,2.062,2.062,0,0,0-1.625.723,2.783,2.783,0,0,0-.633,1.9,2.783,2.783,0,0,0,.633,1.9,2.062,2.062,0,0,0,1.625.723,2.183,2.183,0,0,0,1.3-.387,2.075,2.075,0,0,0,.77-1.121l1.672.211A3.416,3.416,0,0,1,46.105-.586,3.987,3.987,0,0,1,43.7.141Zm7.383.008a3.262,3.262,0,0,1-1.2-.207,1.906,1.906,0,0,1-.875-.7,2.092,2.092,0,0,1-.348-1.23,2.28,2.28,0,0,1,.16-.879,1.924,1.924,0,0,1,.422-.645,2.479,2.479,0,0,1,.664-.453,4.762,4.762,0,0,1,.813-.309q.41-.113.949-.215l1.188-.219q.727-.141.727-.711a1.116,1.116,0,0,0-.437-.98,1.865,1.865,0,0,0-1.1-.309,1.844,1.844,0,0,0-1.133.332,1.454,1.454,0,0,0-.531,1.051l-1.617-.3Q49.164-8,52.156-8a5.538,5.538,0,0,1,.934.074,3.334,3.334,0,0,1,.852.27,2.45,2.45,0,0,1,.715.5,2.165,2.165,0,0,1,.477.8,3.327,3.327,0,0,1,.18,1.137V-2.18a1.244,1.244,0,0,0,.164.75.707.707,0,0,0,.578.2h.125V0h-.852q-1.336,0-1.594-1.039h-.086a2.555,2.555,0,0,1-1.113.9A3.683,3.683,0,0,1,51.086.148Zm.422-1.414a2.09,2.09,0,0,0,1.57-.648,2.351,2.351,0,0,0,.625-1.7L51.7-3.172a2.407,2.407,0,0,0-.969.363.785.785,0,0,0-.32.668.755.755,0,0,0,.3.656A1.336,1.336,0,0,0,51.508-1.266Zm8.148-5.273a2.373,2.373,0,0,1,1-1,3.107,3.107,0,0,1,1.535-.406V-6.3a2.769,2.769,0,0,0-1.855.527,2.242,2.242,0,0,0-.605,1.77V0h-1.8V-7.859h1.734Z" transform="translate(-8954.722 3554.778)" fill="#fff"/>
    <path id="Trazado_71692" data-name="Trazado 71692" d="M8.1-10.444H9.858V0H8.1V-4.46H3.252V0H1.494V-10.444H3.252v4.438H8.1ZM14.2.139a3.058,3.058,0,0,1-1.124-.194,1.787,1.787,0,0,1-.82-.659,1.961,1.961,0,0,1-.326-1.154,2.137,2.137,0,0,1,.15-.824,1.8,1.8,0,0,1,.4-.6,2.324,2.324,0,0,1,.623-.425,4.465,4.465,0,0,1,.762-.289q.385-.106.89-.2l1.113-.205q.681-.132.681-.667A1.047,1.047,0,0,0,16.135-6,1.749,1.749,0,0,0,15.1-6.292a1.729,1.729,0,0,0-1.062.311,1.363,1.363,0,0,0-.5.985l-1.516-.278Q12.4-7.5,15.205-7.5a5.192,5.192,0,0,1,.875.07,3.126,3.126,0,0,1,.8.253,2.3,2.3,0,0,1,.67.465A2.029,2.029,0,0,1,18-5.966,3.119,3.119,0,0,1,18.164-4.9v2.856a1.166,1.166,0,0,0,.154.7.662.662,0,0,0,.542.19h.117V0h-.8q-1.252,0-1.494-.974H16.6a2.4,2.4,0,0,1-1.044.842A3.452,3.452,0,0,1,14.2.139Zm.4-1.326a1.959,1.959,0,0,0,1.472-.608,2.2,2.2,0,0,0,.586-1.6l-1.882.417a2.257,2.257,0,0,0-.908.341.736.736,0,0,0-.3.626.708.708,0,0,0,.286.615A1.252,1.252,0,0,0,14.6-1.187ZM23.635.132A3.739,3.739,0,0,1,20.889-.927a3.718,3.718,0,0,1-1.069-2.765,3.7,3.7,0,0,1,1.073-2.761,3.749,3.749,0,0,1,2.743-1.055,3.744,3.744,0,0,1,2.26.677,3.2,3.2,0,0,1,1.234,1.893l-1.567.205a1.964,1.964,0,0,0-.721-1.055,2.032,2.032,0,0,0-1.219-.366,1.933,1.933,0,0,0-1.523.677A2.609,2.609,0,0,0,21.5-3.691,2.609,2.609,0,0,0,22.1-1.908a1.933,1.933,0,0,0,1.523.677,2.047,2.047,0,0,0,1.219-.363,1.945,1.945,0,0,0,.721-1.051l1.567.2a3.2,3.2,0,0,1-1.241,1.9A3.738,3.738,0,0,1,23.635.132Zm11.873-3.94-.022.425h-5.6a2.223,2.223,0,0,0,.645,1.611,2.1,2.1,0,0,0,1.487.557,2.02,2.02,0,0,0,1.095-.3,1.893,1.893,0,0,0,.729-.857l1.538.264A3.238,3.238,0,0,1,34.1-.454a3.66,3.66,0,0,1-2.073.593A3.777,3.777,0,0,1,29.268-.879a3.745,3.745,0,0,1-1.04-2.805,3.76,3.76,0,0,1,1.04-2.805,3.694,3.694,0,0,1,2.71-1.025,3.508,3.508,0,0,1,2.556.941A3.71,3.71,0,0,1,35.508-3.809ZM31.985-6.262a2.15,2.15,0,0,0-1.329.4,1.944,1.944,0,0,0-.7,1.219h3.86a1.776,1.776,0,0,0-.586-1.208A1.876,1.876,0,0,0,31.985-6.262Zm6.943.132a2.225,2.225,0,0,1,.934-.937A2.913,2.913,0,0,1,41.3-7.449v1.538a2.6,2.6,0,0,0-1.74.494,2.1,2.1,0,0,0-.568,1.659V0H37.3V-7.368h1.626Z" transform="translate(-8637.722 3606.778)" fill="#fff"/>
    <path id="Trazado_71700" data-name="Trazado 71700" d="M15.864.518A11.663,11.663,0,0,1,5.81-4.322Q2.3-9.161,2.3-18.71,2.3-28.286,5.8-33.1t10.067-4.813q6.547,0,10.041,4.813T29.4-18.71q0,9.549-3.507,14.389A11.637,11.637,0,0,1,15.864.518Zm0-6.729q2.9,0,4.49-3.067t1.592-9.433q0-6.366-1.6-9.433T15.864-31.21q-6.107,0-6.107,12.5T15.864-6.211ZM42.213-37.4H49.3V0H41.876V-29.735l-8.592,8V-29.4Z" transform="translate(-8774.722 3237.778)" fill="#fff"/>
    <path id="Trazado_71697" data-name="Trazado 71697" d="M9.316-.539A5.931,5.931,0,0,1,6.445.148,5.954,5.954,0,0,1,3.57-.539a5.006,5.006,0,0,1-2.012-2A6.094,6.094,0,0,1,.82-5.578a6.072,6.072,0,0,1,.738-3.035,5.012,5.012,0,0,1,2.012-2A5.954,5.954,0,0,1,6.445-11.3a5.931,5.931,0,0,1,2.871.688,5.019,5.019,0,0,1,2.008,2,6.072,6.072,0,0,1,.738,3.035,6.094,6.094,0,0,1-.738,3.039A5.012,5.012,0,0,1,9.316-.539ZM4.969-1.855a4.009,4.009,0,0,0,1.477.27,4.009,4.009,0,0,0,1.477-.27,3.479,3.479,0,0,0,1.2-.773,3.51,3.51,0,0,0,.8-1.262A4.7,4.7,0,0,0,10.2-5.578a4.647,4.647,0,0,0-.289-1.676,3.477,3.477,0,0,0-.8-1.254,3.557,3.557,0,0,0-1.2-.773,3.959,3.959,0,0,0-1.477-.273,3.959,3.959,0,0,0-1.477.273,3.557,3.557,0,0,0-1.2.773,3.477,3.477,0,0,0-.8,1.254,4.647,4.647,0,0,0-.289,1.676,4.7,4.7,0,0,0,.289,1.688,3.51,3.51,0,0,0,.8,1.262A3.479,3.479,0,0,0,4.969-1.855ZM18.555-8.008a3.635,3.635,0,0,1,1.438.289,3.585,3.585,0,0,1,1.184.809,3.769,3.769,0,0,1,.8,1.293,4.693,4.693,0,0,1,.3,1.7,4.8,4.8,0,0,1-.293,1.707,3.685,3.685,0,0,1-.8,1.3A3.64,3.64,0,0,1,20-.109,3.626,3.626,0,0,1,18.555.18a3.22,3.22,0,0,1-1.578-.387A2.5,2.5,0,0,1,15.93-1.258L15.883,0H14.164V-12h1.789l.008,5.367a2.5,2.5,0,0,1,1.047-1.012A3.26,3.26,0,0,1,18.555-8.008ZM16.492-2.07a2.151,2.151,0,0,0,1.656.727,2.185,2.185,0,0,0,1.66-.711,2.616,2.616,0,0,0,.668-1.867,2.6,2.6,0,0,0-.668-1.863,2.191,2.191,0,0,0-1.66-.707,2.155,2.155,0,0,0-1.652.727,2.619,2.619,0,0,0-.668,1.844A2.638,2.638,0,0,0,16.492-2.07Zm8.625-7.289a1.073,1.073,0,0,1-.781-.324,1.054,1.054,0,0,1-.328-.777,1.06,1.06,0,0,1,.324-.777,1.069,1.069,0,0,1,.785-.324,1.064,1.064,0,0,1,.773.324,1.054,1.054,0,0,1,.328.777,1.054,1.054,0,0,1-.328.777A1.064,1.064,0,0,1,25.117-9.359ZM22.484,3.68V2.227a1.553,1.553,0,0,0,1.371-.5A3.805,3.805,0,0,0,24.188-.2V-7.859h1.82V-.2A4.4,4.4,0,0,1,25.2,2.777,3.5,3.5,0,0,1,22.484,3.68Zm13.2-7.742-.023.453H29.688a2.371,2.371,0,0,0,.688,1.719,2.245,2.245,0,0,0,1.586.594,2.155,2.155,0,0,0,1.168-.32,2.019,2.019,0,0,0,.777-.914l1.641.281A3.454,3.454,0,0,1,34.188-.484a3.9,3.9,0,0,1-2.211.633A4.029,4.029,0,0,1,29.031-.937,4,4,0,0,1,27.922-3.93a4.011,4.011,0,0,1,1.109-2.992,3.941,3.941,0,0,1,2.891-1.094,3.742,3.742,0,0,1,2.727,1A3.958,3.958,0,0,1,35.688-4.062ZM31.93-6.68a2.293,2.293,0,0,0-1.418.426,2.073,2.073,0,0,0-.746,1.3h4.117a1.894,1.894,0,0,0-.625-1.289A2,2,0,0,0,31.93-6.68ZM40.32,0a2.222,2.222,0,0,1-1.656-.6,2.31,2.31,0,0,1-.594-1.7V-6.453H36.5V-7.859h.539a1.229,1.229,0,0,0,.926-.3,1.52,1.52,0,0,0,.285-1.051V-10.43h1.641v2.57H41.6v1.406H39.891v3.969a1.127,1.127,0,0,0,.27.816.971.971,0,0,0,.73.277H41.6V0Zm4.055-9.359a1.073,1.073,0,0,1-.781-.324,1.054,1.054,0,0,1-.328-.777,1.06,1.06,0,0,1,.324-.777,1.069,1.069,0,0,1,.785-.324,1.064,1.064,0,0,1,.773.324,1.054,1.054,0,0,1,.328.777,1.054,1.054,0,0,1-.328.777A1.064,1.064,0,0,1,44.375-9.359ZM43.453,0V-7.859h1.8V0Zm9.359-7.859h1.914L51.453,0H49.9l-3.25-7.859h1.906l2.117,5.8ZM59.281.148A4.13,4.13,0,0,1,56.3-.957a3.93,3.93,0,0,1-1.156-2.98A3.91,3.91,0,0,1,56.3-6.9a4.13,4.13,0,0,1,2.977-1.105,4.149,4.149,0,0,1,2.984,1.1,3.907,3.907,0,0,1,1.156,2.969,3.93,3.93,0,0,1-1.156,2.98A4.141,4.141,0,0,1,59.281.148ZM59.266-1.3a2.2,2.2,0,0,0,1.7-.727,2.715,2.715,0,0,0,.664-1.906,2.7,2.7,0,0,0-.664-1.9,2.209,2.209,0,0,0-1.7-.723,2.159,2.159,0,0,0-1.672.723,2.721,2.721,0,0,0-.656,1.9,2.745,2.745,0,0,0,.652,1.906A2.15,2.15,0,0,0,59.266-1.3ZM67.945.148a4.046,4.046,0,0,1-2.2-.559,2.332,2.332,0,0,1-1.078-1.621l1.523-.43a1.628,1.628,0,0,0,.617.988,1.9,1.9,0,0,0,1.141.332,1.821,1.821,0,0,0,.953-.234.8.8,0,0,0,.383-.758.733.733,0,0,0-.1-.387,1.063,1.063,0,0,0-.242-.281,1.69,1.69,0,0,0-.4-.223,4.54,4.54,0,0,0-.477-.172l-.582-.172q-.367-.109-.609-.187a5.554,5.554,0,0,1-.75-.289,3.559,3.559,0,0,1-.617-.391,1.529,1.529,0,0,1-.473-.613,2.164,2.164,0,0,1-.16-.863A2.066,2.066,0,0,1,65.266-7a2.266,2.266,0,0,1,1.047-.762A4.288,4.288,0,0,1,67.8-8a3.668,3.668,0,0,1,1.988.508,2.219,2.219,0,0,1,1,1.555L69.367-5.6a1.417,1.417,0,0,0-.566-.875,1.742,1.742,0,0,0-1-.281,1.74,1.74,0,0,0-.91.223.736.736,0,0,0-.371.676.917.917,0,0,0,.027.23.45.45,0,0,0,.105.191l.141.152a.734.734,0,0,0,.2.137q.141.07.227.109a2.459,2.459,0,0,0,.281.1l.289.086q.094.027.324.086l.324.082q.437.117.746.219a4.305,4.305,0,0,1,.68.3,2.369,2.369,0,0,1,.6.441,1.973,1.973,0,0,1,.387.629,2.286,2.286,0,0,1,.156.863,2.331,2.331,0,0,1-.25,1.105,1.9,1.9,0,0,1-.684.742,3.349,3.349,0,0,1-.969.4A4.844,4.844,0,0,1,67.945.148ZM7.555,20,4.664,15.031h-1.2V20H1.594V8.859H5.461a4.478,4.478,0,0,1,1.559.25,2.747,2.747,0,0,1,1.09.7,2.993,2.993,0,0,1,.621,1.023,3.7,3.7,0,0,1,.207,1.262A2.847,2.847,0,0,1,8.3,14a2.9,2.9,0,0,1-1.758.957L9.75,20ZM3.461,10.438v3.211H5.188a2.171,2.171,0,0,0,1.473-.426,1.48,1.48,0,0,0,.48-1.168,1.511,1.511,0,0,0-.484-1.18,2.134,2.134,0,0,0-1.469-.437Zm14.68,5.5-.023.453H12.141a2.371,2.371,0,0,0,.688,1.719,2.245,2.245,0,0,0,1.586.594,2.155,2.155,0,0,0,1.168-.32,2.019,2.019,0,0,0,.777-.914L18,17.75a3.454,3.454,0,0,1-1.359,1.766,3.9,3.9,0,0,1-2.211.633,4.029,4.029,0,0,1-2.945-1.086,4,4,0,0,1-1.109-2.992,4.011,4.011,0,0,1,1.109-2.992,3.941,3.941,0,0,1,2.891-1.094,3.742,3.742,0,0,1,2.727,1A3.958,3.958,0,0,1,18.141,15.938ZM14.383,13.32a2.293,2.293,0,0,0-1.418.426,2.073,2.073,0,0,0-.746,1.3h4.117a1.894,1.894,0,0,0-.625-1.289A2,2,0,0,0,14.383,13.32Zm9.078,6.82a3.89,3.89,0,0,1-4.07-4.078,3.946,3.946,0,0,1,1.145-2.945,4,4,0,0,1,2.926-1.125,3.993,3.993,0,0,1,2.41.723,3.411,3.411,0,0,1,1.316,2.02l-1.672.219a2.1,2.1,0,0,0-.77-1.125,2.168,2.168,0,0,0-1.3-.391,2.062,2.062,0,0,0-1.625.723,2.783,2.783,0,0,0-.633,1.9,2.783,2.783,0,0,0,.633,1.9,2.062,2.062,0,0,0,1.625.723,2.183,2.183,0,0,0,1.3-.387,2.075,2.075,0,0,0,.77-1.121l1.672.211a3.416,3.416,0,0,1-1.324,2.023A3.987,3.987,0,0,1,23.461,20.141Zm10.578-8h1.8V20H34.125l-.047-.984a2.812,2.812,0,0,1-2.422,1.133,2.909,2.909,0,0,1-2.078-.707,2.631,2.631,0,0,1-.75-2.012V12.141h1.813v4.9a1.612,1.612,0,0,0,.434,1.238,1.583,1.583,0,0,0,1.121.4,1.823,1.823,0,0,0,1.324-.5,2.064,2.064,0,0,0,.52-1.527Zm6.078,1.32a2.373,2.373,0,0,1,1-1,3.107,3.107,0,0,1,1.535-.406V13.7a2.769,2.769,0,0,0-1.855.527,2.242,2.242,0,0,0-.605,1.77V20h-1.8V12.141h1.734Zm6.609,6.688a4.046,4.046,0,0,1-2.2-.559,2.332,2.332,0,0,1-1.078-1.621l1.523-.43a1.628,1.628,0,0,0,.617.988,1.9,1.9,0,0,0,1.141.332,1.821,1.821,0,0,0,.953-.234.8.8,0,0,0,.383-.758.733.733,0,0,0-.1-.387,1.063,1.063,0,0,0-.242-.281,1.69,1.69,0,0,0-.4-.223,4.539,4.539,0,0,0-.477-.172l-.582-.172q-.367-.109-.609-.187a5.554,5.554,0,0,1-.75-.289,3.559,3.559,0,0,1-.617-.391,1.529,1.529,0,0,1-.473-.613,2.164,2.164,0,0,1-.16-.863,2.066,2.066,0,0,1,.4-1.289,2.266,2.266,0,0,1,1.047-.762A4.288,4.288,0,0,1,46.578,12a3.668,3.668,0,0,1,1.988.508,2.219,2.219,0,0,1,1,1.555l-1.422.336a1.417,1.417,0,0,0-.566-.875,1.936,1.936,0,0,0-1.906-.059.736.736,0,0,0-.371.676.917.917,0,0,0,.027.23.45.45,0,0,0,.105.191l.141.152a.734.734,0,0,0,.2.137q.141.07.227.109a2.459,2.459,0,0,0,.281.1l.289.086q.094.027.324.086l.324.082q.438.117.746.219a4.3,4.3,0,0,1,.68.3,2.369,2.369,0,0,1,.6.441,1.973,1.973,0,0,1,.387.629,2.286,2.286,0,0,1,.156.863,2.331,2.331,0,0,1-.25,1.105,1.9,1.9,0,0,1-.684.742,3.349,3.349,0,0,1-.969.4A4.844,4.844,0,0,1,46.727,20.148Zm8.43,0a4.13,4.13,0,0,1-2.977-1.105,3.93,3.93,0,0,1-1.156-2.98A3.91,3.91,0,0,1,52.18,13.1a4.577,4.577,0,0,1,5.961,0A3.907,3.907,0,0,1,59.3,16.063a3.93,3.93,0,0,1-1.156,2.98A4.141,4.141,0,0,1,55.156,20.148ZM55.141,18.7a2.2,2.2,0,0,0,1.7-.727,2.715,2.715,0,0,0,.664-1.906,2.7,2.7,0,0,0-.664-1.9,2.209,2.209,0,0,0-1.7-.723,2.159,2.159,0,0,0-1.672.723,2.721,2.721,0,0,0-.656,1.9,2.745,2.745,0,0,0,.652,1.906A2.15,2.15,0,0,0,55.141,18.7Zm8.68,1.453a4.046,4.046,0,0,1-2.2-.559,2.332,2.332,0,0,1-1.078-1.621l1.523-.43a1.628,1.628,0,0,0,.617.988,1.9,1.9,0,0,0,1.141.332,1.821,1.821,0,0,0,.953-.234.8.8,0,0,0,.383-.758.733.733,0,0,0-.1-.387,1.063,1.063,0,0,0-.242-.281,1.69,1.69,0,0,0-.4-.223,4.539,4.539,0,0,0-.477-.172l-.582-.172q-.367-.109-.609-.187a5.554,5.554,0,0,1-.75-.289,3.559,3.559,0,0,1-.617-.391,1.529,1.529,0,0,1-.473-.613,2.164,2.164,0,0,1-.16-.863,2.066,2.066,0,0,1,.4-1.289,2.266,2.266,0,0,1,1.047-.762A4.288,4.288,0,0,1,63.672,12a3.668,3.668,0,0,1,1.988.508,2.219,2.219,0,0,1,1,1.555l-1.422.336a1.417,1.417,0,0,0-.566-.875,1.936,1.936,0,0,0-1.906-.059.736.736,0,0,0-.371.676.917.917,0,0,0,.027.23.45.45,0,0,0,.105.191l.141.152a.734.734,0,0,0,.2.137q.141.07.227.109a2.459,2.459,0,0,0,.281.1l.289.086q.094.027.324.086l.324.082q.437.117.746.219a4.305,4.305,0,0,1,.68.3,2.369,2.369,0,0,1,.6.441,1.973,1.973,0,0,1,.387.629,2.286,2.286,0,0,1,.156.863,2.331,2.331,0,0,1-.25,1.105,1.9,1.9,0,0,1-.684.742,3.349,3.349,0,0,1-.969.4A4.844,4.844,0,0,1,63.82,20.148Zm-57.375,20a6.1,6.1,0,0,1-2.23-.4A5.283,5.283,0,0,1,2.43,38.617a5.1,5.1,0,0,1-1.18-1.809,6.412,6.412,0,0,1-.43-2.387,6.072,6.072,0,0,1,.738-3.035,5.012,5.012,0,0,1,2.012-2A5.954,5.954,0,0,1,6.445,28.7a5.788,5.788,0,0,1,3.117.844,4.918,4.918,0,0,1,1.984,2.336L9.8,32.547A3.331,3.331,0,0,0,8.48,31a3.782,3.782,0,0,0-2.035-.555,3.959,3.959,0,0,0-1.477.273,3.557,3.557,0,0,0-1.2.773,3.477,3.477,0,0,0-.8,1.254,4.647,4.647,0,0,0-.289,1.676,4.711,4.711,0,0,0,.289,1.684,3.466,3.466,0,0,0,.8,1.262,3.508,3.508,0,0,0,1.2.77,4.009,4.009,0,0,0,1.477.27,3.8,3.8,0,0,0,2.039-.551A3.315,3.315,0,0,0,9.8,36.313l1.742.664a4.9,4.9,0,0,1-1.98,2.332A5.8,5.8,0,0,1,6.445,40.148Zm10.422,0a4.13,4.13,0,0,1-2.977-1.105,3.93,3.93,0,0,1-1.156-2.98A3.91,3.91,0,0,1,13.891,33.1a4.13,4.13,0,0,1,2.977-1.105,4.149,4.149,0,0,1,2.984,1.1,3.907,3.907,0,0,1,1.156,2.969,3.93,3.93,0,0,1-1.156,2.98A4.141,4.141,0,0,1,16.867,40.148ZM16.852,38.7a2.2,2.2,0,0,0,1.7-.727,3.062,3.062,0,0,0,0-3.809,2.209,2.209,0,0,0-1.7-.723,2.159,2.159,0,0,0-1.672.723,3.1,3.1,0,0,0,0,3.809A2.15,2.15,0,0,0,16.852,38.7Zm14.734-6.7a2.762,2.762,0,0,1,1.93.652,2.368,2.368,0,0,1,.719,1.848V40h-1.8V34.992a1.543,1.543,0,0,0-.391-1.145,1.342,1.342,0,0,0-.984-.387,1.473,1.473,0,0,0-1.129.465,2.043,2.043,0,0,0-.434,1.434V40H27.664V35.031a1.6,1.6,0,0,0-.395-1.172,1.353,1.353,0,0,0-1-.4,1.462,1.462,0,0,0-1.133.48,2.171,2.171,0,0,0-.437,1.5V40H22.906V32.141H24.7v.969a2.535,2.535,0,0,1,2.219-1.117,2.979,2.979,0,0,1,1.406.316,2.082,2.082,0,0,1,.906.91A2.609,2.609,0,0,1,31.586,31.992Zm10.1.148h1.8V40H41.773l-.047-.984A2.812,2.812,0,0,1,39.3,40.148a2.909,2.909,0,0,1-2.078-.707,2.631,2.631,0,0,1-.75-2.012V32.141h1.813v4.9a1.612,1.612,0,0,0,.434,1.238,1.583,1.583,0,0,0,1.121.4,1.823,1.823,0,0,0,1.324-.5,2.064,2.064,0,0,0,.52-1.527Zm8.523-.148a2.909,2.909,0,0,1,2.078.707,2.631,2.631,0,0,1,.75,2.012V40H51.227V35.1a1.612,1.612,0,0,0-.434-1.238,1.572,1.572,0,0,0-1.113-.4,1.836,1.836,0,0,0-1.328.5,2.054,2.054,0,0,0-.523,1.527V40h-1.8V32.141h1.8v.93a2.655,2.655,0,0,1,1.012-.8A3.251,3.251,0,0,1,50.211,31.992Zm6.141-1.352a1.073,1.073,0,0,1-.781-.324,1.089,1.089,0,0,1,0-1.555,1.1,1.1,0,0,1,1.559,0,1.1,1.1,0,0,1-.773,1.879ZM55.43,40V32.141h1.8V40Zm7.758.141a3.89,3.89,0,0,1-4.07-4.078,3.946,3.946,0,0,1,1.145-2.945,4.373,4.373,0,0,1,5.336-.4,3.411,3.411,0,0,1,1.316,2.02l-1.672.219a2.1,2.1,0,0,0-.77-1.125,2.168,2.168,0,0,0-1.3-.391,2.062,2.062,0,0,0-1.625.723,3.176,3.176,0,0,0,0,3.8,2.062,2.062,0,0,0,1.625.723,2.183,2.183,0,0,0,1.3-.387,2.075,2.075,0,0,0,.77-1.121l1.672.211a3.416,3.416,0,0,1-1.324,2.023A3.987,3.987,0,0,1,63.188,40.141Zm7.383.008a3.262,3.262,0,0,1-1.2-.207,1.906,1.906,0,0,1-.875-.7,2.091,2.091,0,0,1-.348-1.23,2.279,2.279,0,0,1,.16-.879,1.925,1.925,0,0,1,.422-.645,2.479,2.479,0,0,1,.664-.453,4.762,4.762,0,0,1,.813-.309q.41-.113.949-.215l1.188-.219q.727-.141.727-.711a1.116,1.116,0,0,0-.437-.98,1.865,1.865,0,0,0-1.1-.309,1.844,1.844,0,0,0-1.133.332,1.454,1.454,0,0,0-.531,1.051l-1.617-.3Q68.648,32,71.641,32a5.538,5.538,0,0,1,.934.074,3.334,3.334,0,0,1,.852.27,2.45,2.45,0,0,1,.715.5,2.165,2.165,0,0,1,.477.8,3.327,3.327,0,0,1,.18,1.137V37.82a1.244,1.244,0,0,0,.164.75.707.707,0,0,0,.578.2h.125V40h-.852q-1.336,0-1.594-1.039h-.086a2.555,2.555,0,0,1-1.113.9A3.683,3.683,0,0,1,70.57,40.148Zm.422-1.414a2.09,2.09,0,0,0,1.57-.648,2.351,2.351,0,0,0,.625-1.7l-2.008.445a2.407,2.407,0,0,0-.969.363.785.785,0,0,0-.32.668.755.755,0,0,0,.3.656A1.336,1.336,0,0,0,70.992,38.734Zm8.148-5.273a2.373,2.373,0,0,1,1-1,3.107,3.107,0,0,1,1.535-.406V33.7a2.769,2.769,0,0,0-1.855.527,2.242,2.242,0,0,0-.605,1.77V40h-1.8V32.141h1.734Z" transform="translate(-8905.722 3260.778)" fill="#fff"/>
    <path id="Trazado_71696" data-name="Trazado 71696" d="M13.883,0H12.031L11.3-8.8,8.1,0H6.93L3.75-8.781,3.008,0H1.148l.891-11.141h2.6L7.508-3.266,10.4-11.141H13Zm9.477-4.062-.023.453H17.359a2.371,2.371,0,0,0,.688,1.719,2.245,2.245,0,0,0,1.586.594,2.155,2.155,0,0,0,1.168-.32,2.019,2.019,0,0,0,.777-.914l1.641.281A3.454,3.454,0,0,1,21.859-.484a3.9,3.9,0,0,1-2.211.633A4.029,4.029,0,0,1,16.7-.937,4,4,0,0,1,15.594-3.93,4.011,4.011,0,0,1,16.7-6.922a3.941,3.941,0,0,1,2.891-1.094,3.742,3.742,0,0,1,2.727,1A3.958,3.958,0,0,1,23.359-4.062ZM19.6-6.68a2.293,2.293,0,0,0-1.418.426,2.073,2.073,0,0,0-.746,1.3h4.117a1.894,1.894,0,0,0-.625-1.289A2,2,0,0,0,19.6-6.68ZM30.953-12h1.8V0H31.031l-.047-1.25A2.529,2.529,0,0,1,29.934-.2,3.207,3.207,0,0,1,28.367.18a3.626,3.626,0,0,1-1.441-.289,3.64,3.64,0,0,1-1.184-.809,3.73,3.73,0,0,1-.8-1.3,4.748,4.748,0,0,1-.3-1.707,4.693,4.693,0,0,1,.3-1.7,3.737,3.737,0,0,1,.8-1.293,3.629,3.629,0,0,1,1.188-.809,3.635,3.635,0,0,1,1.438-.289,3.249,3.249,0,0,1,1.535.363,2.524,2.524,0,0,1,1.051,1ZM27.105-2.055a2.185,2.185,0,0,0,1.66.711,2.151,2.151,0,0,0,1.656-.727,2.638,2.638,0,0,0,.664-1.852,2.619,2.619,0,0,0-.668-1.844,2.155,2.155,0,0,0-1.652-.727,2.191,2.191,0,0,0-1.66.707,2.6,2.6,0,0,0-.668,1.863A2.616,2.616,0,0,0,27.105-2.055Zm9.113-7.3a1.073,1.073,0,0,1-.781-.324,1.054,1.054,0,0,1-.328-.777,1.06,1.06,0,0,1,.324-.777,1.069,1.069,0,0,1,.785-.324,1.064,1.064,0,0,1,.773.324,1.054,1.054,0,0,1,.328.777,1.054,1.054,0,0,1-.328.777A1.064,1.064,0,0,1,36.219-9.359ZM35.3,0V-7.859h1.8V0ZM45.328-12h1.8V0H45.406l-.047-1.25A2.529,2.529,0,0,1,44.309-.2,3.207,3.207,0,0,1,42.742.18,3.626,3.626,0,0,1,41.3-.109a3.64,3.64,0,0,1-1.184-.809,3.73,3.73,0,0,1-.8-1.3,4.748,4.748,0,0,1-.3-1.707,4.693,4.693,0,0,1,.3-1.7,3.737,3.737,0,0,1,.8-1.293A3.629,3.629,0,0,1,41.3-7.719a3.635,3.635,0,0,1,1.438-.289,3.249,3.249,0,0,1,1.535.363,2.524,2.524,0,0,1,1.051,1ZM41.48-2.055a2.185,2.185,0,0,0,1.66.711A2.151,2.151,0,0,0,44.8-2.07a2.638,2.638,0,0,0,.664-1.852,2.619,2.619,0,0,0-.668-1.844,2.155,2.155,0,0,0-1.652-.727,2.191,2.191,0,0,0-1.66.707,2.6,2.6,0,0,0-.668,1.863A2.616,2.616,0,0,0,41.48-2.055ZM51.523.148a3.262,3.262,0,0,1-1.2-.207,1.906,1.906,0,0,1-.875-.7,2.092,2.092,0,0,1-.348-1.23,2.28,2.28,0,0,1,.16-.879,1.924,1.924,0,0,1,.422-.645,2.479,2.479,0,0,1,.664-.453,4.762,4.762,0,0,1,.813-.309q.41-.113.949-.215L53.3-4.711q.727-.141.727-.711a1.116,1.116,0,0,0-.437-.98,1.865,1.865,0,0,0-1.1-.309,1.844,1.844,0,0,0-1.133.332,1.454,1.454,0,0,0-.531,1.051l-1.617-.3Q49.6-8,52.594-8a5.538,5.538,0,0,1,.934.074,3.334,3.334,0,0,1,.852.27,2.45,2.45,0,0,1,.715.5,2.165,2.165,0,0,1,.477.8,3.327,3.327,0,0,1,.18,1.137V-2.18a1.244,1.244,0,0,0,.164.75.707.707,0,0,0,.578.2h.125V0h-.852Q54.43,0,54.172-1.039h-.086a2.555,2.555,0,0,1-1.113.9A3.683,3.683,0,0,1,51.523.148Zm.422-1.414a2.09,2.09,0,0,0,1.57-.648,2.351,2.351,0,0,0,.625-1.7l-2.008.445a2.407,2.407,0,0,0-.969.363.785.785,0,0,0-.32.668.755.755,0,0,0,.3.656A1.336,1.336,0,0,0,51.945-1.266ZM61.2,3.82A6.939,6.939,0,0,1,58.762.5a14.243,14.243,0,0,1-.887-5.223,14.226,14.226,0,0,1,.891-5.223A6.982,6.982,0,0,1,61.2-13.281l1,1.211a5.46,5.46,0,0,0-1.977,2.777,13.011,13.011,0,0,0-.734,4.566A12.97,12.97,0,0,0,60.227-.16,5.459,5.459,0,0,0,62.2,2.609ZM66.352.148a4.046,4.046,0,0,1-2.2-.559A2.332,2.332,0,0,1,63.07-2.031l1.523-.43a1.628,1.628,0,0,0,.617.988,1.9,1.9,0,0,0,1.141.332,1.821,1.821,0,0,0,.953-.234.8.8,0,0,0,.383-.758.733.733,0,0,0-.1-.387,1.063,1.063,0,0,0-.242-.281,1.69,1.69,0,0,0-.4-.223,4.54,4.54,0,0,0-.477-.172l-.582-.172q-.367-.109-.609-.187a5.554,5.554,0,0,1-.75-.289,3.559,3.559,0,0,1-.617-.391,1.529,1.529,0,0,1-.473-.613,2.164,2.164,0,0,1-.16-.863A2.066,2.066,0,0,1,63.672-7a2.266,2.266,0,0,1,1.047-.762A4.288,4.288,0,0,1,66.2-8a3.668,3.668,0,0,1,1.988.508,2.219,2.219,0,0,1,1,1.555L67.773-5.6a1.417,1.417,0,0,0-.566-.875,1.742,1.742,0,0,0-1-.281,1.74,1.74,0,0,0-.91.223.736.736,0,0,0-.371.676.917.917,0,0,0,.027.23.45.45,0,0,0,.105.191l.141.152a.734.734,0,0,0,.2.137q.141.07.227.109a2.459,2.459,0,0,0,.281.1l.289.086q.094.027.324.086l.324.082q.437.117.746.219a4.305,4.305,0,0,1,.68.3,2.369,2.369,0,0,1,.6.441,1.973,1.973,0,0,1,.387.629,2.286,2.286,0,0,1,.156.863,2.331,2.331,0,0,1-.25,1.105,1.9,1.9,0,0,1-.684.742,3.349,3.349,0,0,1-.969.4A4.844,4.844,0,0,1,66.352.148ZM71.273,3.82l-1-1.211A5.459,5.459,0,0,0,72.25-.16a12.97,12.97,0,0,0,.734-4.566,13.01,13.01,0,0,0-.734-4.566,5.46,5.46,0,0,0-1.977-2.777l1-1.211a6.982,6.982,0,0,1,2.438,3.332A14.226,14.226,0,0,1,74.6-4.727,14.243,14.243,0,0,1,73.715.5,6.939,6.939,0,0,1,71.273,3.82ZM8.906,20l-.883-2.477H3.156L2.281,20H.352l4.1-11.141H6.727L10.828,20Zm-5.18-4.078H7.461L5.594,10.656Zm13.781-3.781h1.8V20H17.594l-.047-.984a2.812,2.812,0,0,1-2.422,1.133,2.909,2.909,0,0,1-2.078-.707,2.631,2.631,0,0,1-.75-2.012V12.141h1.813v4.9a1.612,1.612,0,0,0,.434,1.238,1.583,1.583,0,0,0,1.121.4,1.823,1.823,0,0,0,1.324-.5,2.064,2.064,0,0,0,.52-1.527ZM24.57,20a2.222,2.222,0,0,1-1.656-.6,2.31,2.31,0,0,1-.594-1.7V13.547H20.75V12.141h.539a1.229,1.229,0,0,0,.926-.3,1.52,1.52,0,0,0,.285-1.051V9.57h1.641v2.57h1.711v1.406H24.141v3.969a1.127,1.127,0,0,0,.27.816.971.971,0,0,0,.73.277h.711V20Zm6.555.148a4.13,4.13,0,0,1-2.977-1.105,3.93,3.93,0,0,1-1.156-2.98A3.91,3.91,0,0,1,28.148,13.1a4.13,4.13,0,0,1,2.977-1.105,4.149,4.149,0,0,1,2.984,1.1,3.907,3.907,0,0,1,1.156,2.969,3.93,3.93,0,0,1-1.156,2.98A4.141,4.141,0,0,1,31.125,20.148ZM31.109,18.7a2.2,2.2,0,0,0,1.7-.727,2.715,2.715,0,0,0,.664-1.906,2.7,2.7,0,0,0-.664-1.9,2.209,2.209,0,0,0-1.7-.723,2.159,2.159,0,0,0-1.672.723,2.721,2.721,0,0,0-.656,1.9,2.745,2.745,0,0,0,.652,1.906A2.15,2.15,0,0,0,31.109,18.7ZM38.9,13.461a2.373,2.373,0,0,1,1-1,3.107,3.107,0,0,1,1.535-.406V13.7a2.769,2.769,0,0,0-1.855.527,2.242,2.242,0,0,0-.605,1.77V20h-1.8V12.141H38.9Zm4.289-2.531L45.2,8.211l.914.656L44.352,10.93Zm-.3,9.07V12.141h1.8V20Zm6.2.148a3.262,3.262,0,0,1-1.2-.207,1.906,1.906,0,0,1-.875-.7,2.092,2.092,0,0,1-.348-1.23,2.28,2.28,0,0,1,.16-.879,1.924,1.924,0,0,1,.422-.645,2.479,2.479,0,0,1,.664-.453,4.762,4.762,0,0,1,.813-.309q.41-.113.949-.215l1.188-.219q.727-.141.727-.711a1.116,1.116,0,0,0-.437-.98,1.865,1.865,0,0,0-1.1-.309,1.844,1.844,0,0,0-1.133.332,1.454,1.454,0,0,0-.531,1.051l-1.617-.3Q47.164,12,50.156,12a5.538,5.538,0,0,1,.934.074,3.334,3.334,0,0,1,.852.27,2.45,2.45,0,0,1,.715.5,2.165,2.165,0,0,1,.477.8,3.327,3.327,0,0,1,.18,1.137V17.82a1.244,1.244,0,0,0,.164.75.707.707,0,0,0,.578.2h.125V20h-.852q-1.336,0-1.594-1.039h-.086a2.555,2.555,0,0,1-1.113.9A3.683,3.683,0,0,1,49.086,20.148Zm.422-1.414a2.09,2.09,0,0,0,1.57-.648,2.351,2.351,0,0,0,.625-1.7l-2.008.445a2.407,2.407,0,0,0-.969.363.785.785,0,0,0-.32.668.755.755,0,0,0,.3.656A1.336,1.336,0,0,0,49.508,18.734Zm9.039,1.414a4.046,4.046,0,0,1-2.2-.559,2.332,2.332,0,0,1-1.078-1.621l1.523-.43a1.628,1.628,0,0,0,.617.988,1.9,1.9,0,0,0,1.141.332,1.821,1.821,0,0,0,.953-.234.8.8,0,0,0,.383-.758.733.733,0,0,0-.1-.387,1.063,1.063,0,0,0-.242-.281,1.69,1.69,0,0,0-.4-.223,4.539,4.539,0,0,0-.477-.172l-.582-.172q-.367-.109-.609-.187a5.554,5.554,0,0,1-.75-.289,3.559,3.559,0,0,1-.617-.391,1.529,1.529,0,0,1-.473-.613,2.164,2.164,0,0,1-.16-.863,2.066,2.066,0,0,1,.4-1.289,2.266,2.266,0,0,1,1.047-.762A4.288,4.288,0,0,1,58.4,12a3.668,3.668,0,0,1,1.988.508,2.219,2.219,0,0,1,1,1.555l-1.422.336a1.417,1.417,0,0,0-.566-.875,1.936,1.936,0,0,0-1.906-.059.736.736,0,0,0-.371.676.917.917,0,0,0,.027.23.45.45,0,0,0,.105.191l.141.152a.734.734,0,0,0,.2.137q.141.07.227.109a2.459,2.459,0,0,0,.281.1l.289.086q.094.027.324.086l.324.082q.438.117.746.219a4.3,4.3,0,0,1,.68.3,2.369,2.369,0,0,1,.6.441,1.973,1.973,0,0,1,.387.629,2.286,2.286,0,0,1,.156.863,2.331,2.331,0,0,1-.25,1.105,1.9,1.9,0,0,1-.684.742,3.349,3.349,0,0,1-.969.4A4.844,4.844,0,0,1,58.547,20.148ZM8.57,28.859h1.984L6.445,40H4.438L.352,28.859H2.328l3.125,8.9Zm9.945,7.078-.023.453H12.516a2.371,2.371,0,0,0,.688,1.719,2.245,2.245,0,0,0,1.586.594,2.155,2.155,0,0,0,1.168-.32,2.019,2.019,0,0,0,.777-.914l1.641.281a3.454,3.454,0,0,1-1.359,1.766,3.9,3.9,0,0,1-2.211.633,4.219,4.219,0,0,1-2.945-7.07,3.941,3.941,0,0,1,2.891-1.094,3.742,3.742,0,0,1,2.727,1A3.958,3.958,0,0,1,18.516,35.938ZM14.758,33.32a2.293,2.293,0,0,0-1.418.426,2.073,2.073,0,0,0-.746,1.3h4.117a1.894,1.894,0,0,0-.625-1.289A2,2,0,0,0,14.758,33.32Zm7.406.141a2.373,2.373,0,0,1,1-1,3.107,3.107,0,0,1,1.535-.406V33.7a2.769,2.769,0,0,0-1.855.527,2.242,2.242,0,0,0-.605,1.77V40h-1.8V32.141h1.734Zm4.906-2.82a1.073,1.073,0,0,1-.781-.324,1.089,1.089,0,0,1,0-1.555,1.1,1.1,0,0,1,1.559,0,1.1,1.1,0,0,1-.773,1.879ZM26.148,40V32.141h1.8V40Zm4.828-9.094a4.653,4.653,0,0,1,.09-.957,2.822,2.822,0,0,1,.25-.73,1.8,1.8,0,0,1,.41-.523,2.293,2.293,0,0,1,.531-.352,2.93,2.93,0,0,1,.664-.211,5.959,5.959,0,0,1,.754-.105q.371-.027.848-.027v1.461h-.281q-.078,0-.266.012a1.5,1.5,0,0,0-.273.035q-.086.023-.242.074a.609.609,0,0,0-.23.121q-.074.07-.18.18a.65.65,0,0,0-.152.254,3,3,0,0,0-.086.344,2.3,2.3,0,0,0-.039.441v1.219h1.75v1.406h-1.75V40h-1.8V33.547H29.453V32.141h1.523Zm5.891-.266a1.073,1.073,0,0,1-.781-.324,1.089,1.089,0,0,1,0-1.555,1.1,1.1,0,0,1,1.559,0,1.1,1.1,0,0,1-.773,1.879ZM35.945,40V32.141h1.8V40Zm7.758.141a3.89,3.89,0,0,1-4.07-4.078,3.946,3.946,0,0,1,1.145-2.945,4.373,4.373,0,0,1,5.336-.4,3.411,3.411,0,0,1,1.316,2.02l-1.672.219a2.1,2.1,0,0,0-.77-1.125,2.168,2.168,0,0,0-1.3-.391,2.062,2.062,0,0,0-1.625.723,3.176,3.176,0,0,0,0,3.8,2.062,2.062,0,0,0,1.625.723,2.183,2.183,0,0,0,1.3-.387,2.075,2.075,0,0,0,.77-1.121l1.672.211a3.416,3.416,0,0,1-1.324,2.023A3.987,3.987,0,0,1,43.7,40.141Zm7.383.008a3.262,3.262,0,0,1-1.2-.207,1.906,1.906,0,0,1-.875-.7,2.092,2.092,0,0,1-.348-1.23,2.28,2.28,0,0,1,.16-.879,1.924,1.924,0,0,1,.422-.645,2.479,2.479,0,0,1,.664-.453,4.762,4.762,0,0,1,.813-.309q.41-.113.949-.215l1.188-.219q.727-.141.727-.711a1.116,1.116,0,0,0-.437-.98,1.865,1.865,0,0,0-1.1-.309,1.844,1.844,0,0,0-1.133.332,1.454,1.454,0,0,0-.531,1.051l-1.617-.3Q49.164,32,52.156,32a5.538,5.538,0,0,1,.934.074,3.334,3.334,0,0,1,.852.27,2.45,2.45,0,0,1,.715.5,2.165,2.165,0,0,1,.477.8,3.327,3.327,0,0,1,.18,1.137V37.82a1.244,1.244,0,0,0,.164.75.707.707,0,0,0,.578.2h.125V40h-.852q-1.336,0-1.594-1.039h-.086a2.555,2.555,0,0,1-1.113.9A3.683,3.683,0,0,1,51.086,40.148Zm.422-1.414a2.09,2.09,0,0,0,1.57-.648,2.351,2.351,0,0,0,.625-1.7l-2.008.445a2.407,2.407,0,0,0-.969.363.785.785,0,0,0-.32.668.755.755,0,0,0,.3.656A1.336,1.336,0,0,0,51.508,38.734Zm9.641,1.406a3.89,3.89,0,0,1-4.07-4.078,3.946,3.946,0,0,1,1.145-2.945,4.373,4.373,0,0,1,5.336-.4,3.411,3.411,0,0,1,1.316,2.02l-1.672.219a2.1,2.1,0,0,0-.77-1.125,2.168,2.168,0,0,0-1.3-.391,2.062,2.062,0,0,0-1.625.723,3.176,3.176,0,0,0,0,3.8,2.062,2.062,0,0,0,1.625.723,2.183,2.183,0,0,0,1.3-.387,2.075,2.075,0,0,0,.77-1.121l1.672.211a3.416,3.416,0,0,1-1.324,2.023A3.987,3.987,0,0,1,61.148,40.141Zm6.453-9.5a1.073,1.073,0,0,1-.781-.324,1.089,1.089,0,0,1,0-1.555,1.1,1.1,0,0,1,1.559,0,1.1,1.1,0,0,1-.773,1.879ZM66.68,40V32.141h1.8V40Zm7.836.148a4.13,4.13,0,0,1-2.977-1.105,3.93,3.93,0,0,1-1.156-2.98A3.91,3.91,0,0,1,71.539,33.1a4.577,4.577,0,0,1,5.961,0,3.907,3.907,0,0,1,1.156,2.969,3.93,3.93,0,0,1-1.156,2.98A4.141,4.141,0,0,1,74.516,40.148ZM74.5,38.7a2.2,2.2,0,0,0,1.7-.727,3.062,3.062,0,0,0,0-3.809,2.209,2.209,0,0,0-1.7-.723,2.159,2.159,0,0,0-1.672.723,3.1,3.1,0,0,0,0,3.809A2.15,2.15,0,0,0,74.5,38.7Zm10.234-6.7a2.909,2.909,0,0,1,2.078.707,2.631,2.631,0,0,1,.75,2.012V40H85.75V35.1a1.612,1.612,0,0,0-.434-1.238,1.572,1.572,0,0,0-1.113-.4,1.836,1.836,0,0,0-1.328.5,2.055,2.055,0,0,0-.523,1.527V40h-1.8V32.141h1.8v.93a2.655,2.655,0,0,1,1.012-.8A3.251,3.251,0,0,1,84.734,31.992Zm12.352,3.945-.023.453H91.086a2.371,2.371,0,0,0,.688,1.719,2.245,2.245,0,0,0,1.586.594,2.155,2.155,0,0,0,1.168-.32,2.019,2.019,0,0,0,.777-.914l1.641.281a3.454,3.454,0,0,1-1.359,1.766,3.9,3.9,0,0,1-2.211.633,4.219,4.219,0,0,1-2.945-7.07,3.941,3.941,0,0,1,2.891-1.094,3.742,3.742,0,0,1,2.727,1A3.958,3.958,0,0,1,97.086,35.938ZM93.328,33.32a2.293,2.293,0,0,0-1.418.426,2.073,2.073,0,0,0-.746,1.3h4.117a1.894,1.894,0,0,0-.625-1.289A2,2,0,0,0,93.328,33.32Zm8.3,6.828a4.046,4.046,0,0,1-2.2-.559,2.332,2.332,0,0,1-1.078-1.621l1.523-.43a1.628,1.628,0,0,0,.617.988,1.9,1.9,0,0,0,1.141.332,1.821,1.821,0,0,0,.953-.234.8.8,0,0,0,.383-.758.733.733,0,0,0-.1-.387,1.063,1.063,0,0,0-.242-.281,1.69,1.69,0,0,0-.4-.223,4.539,4.539,0,0,0-.477-.172l-.582-.172q-.367-.109-.609-.187a5.555,5.555,0,0,1-.75-.289,3.559,3.559,0,0,1-.617-.391,1.529,1.529,0,0,1-.473-.613,2.164,2.164,0,0,1-.16-.863,2.066,2.066,0,0,1,.4-1.289,2.266,2.266,0,0,1,1.047-.762A4.288,4.288,0,0,1,101.477,32a3.668,3.668,0,0,1,1.988.508,2.219,2.219,0,0,1,1,1.555l-1.422.336a1.417,1.417,0,0,0-.566-.875,1.936,1.936,0,0,0-1.906-.059.736.736,0,0,0-.371.676.917.917,0,0,0,.027.23.45.45,0,0,0,.105.191l.141.152a.734.734,0,0,0,.2.137q.141.07.227.109a2.459,2.459,0,0,0,.281.1l.289.086q.094.027.324.086l.324.082q.437.117.746.219a4.305,4.305,0,0,1,.68.3,2.369,2.369,0,0,1,.6.441,1.973,1.973,0,0,1,.387.629,2.286,2.286,0,0,1,.156.863,2.331,2.331,0,0,1-.25,1.105,1.9,1.9,0,0,1-.684.742,3.349,3.349,0,0,1-.969.4A4.844,4.844,0,0,1,101.625,40.148Zm10.445-8.008-3.8,6.445h3.75V40h-6.367l3.781-6.437h-3.523V32.141Z" transform="translate(-8954.722 3576.778)" fill="#fff"/>
    <path id="Trazado_71698" data-name="Trazado 71698" d="M6.023-11.141a3.458,3.458,0,0,1,1.813.473,3.151,3.151,0,0,1,1.2,1.27,3.771,3.771,0,0,1,.414,1.766,3.461,3.461,0,0,1-.941,2.492,3.284,3.284,0,0,1-2.488.984H3.461V0H1.594V-11.141Zm-.3,5.391a1.863,1.863,0,0,0,1.414-.516,1.93,1.93,0,0,0,.492-1.391,1.931,1.931,0,0,0-.5-1.379,1.842,1.842,0,0,0-1.41-.527H3.461V-5.75ZM11.344,0V-12h1.813V0Zm6.211.148a3.262,3.262,0,0,1-1.2-.207,1.906,1.906,0,0,1-.875-.7,2.091,2.091,0,0,1-.348-1.23,2.28,2.28,0,0,1,.16-.879,1.924,1.924,0,0,1,.422-.645,2.479,2.479,0,0,1,.664-.453,4.762,4.762,0,0,1,.813-.309q.41-.113.949-.215l1.188-.219q.727-.141.727-.711a1.116,1.116,0,0,0-.437-.98,1.865,1.865,0,0,0-1.1-.309,1.844,1.844,0,0,0-1.133.332,1.454,1.454,0,0,0-.531,1.051l-1.617-.3Q15.633-8,18.625-8a5.538,5.538,0,0,1,.934.074,3.334,3.334,0,0,1,.852.27,2.45,2.45,0,0,1,.715.5,2.165,2.165,0,0,1,.477.8,3.327,3.327,0,0,1,.18,1.137V-2.18a1.244,1.244,0,0,0,.164.75.707.707,0,0,0,.578.2h.125V0H21.8Q20.461,0,20.2-1.039h-.086A2.555,2.555,0,0,1,19-.141,3.683,3.683,0,0,1,17.555.148Zm.422-1.414a2.09,2.09,0,0,0,1.57-.648,2.351,2.351,0,0,0,.625-1.7l-2.008.445a2.407,2.407,0,0,0-.969.363.785.785,0,0,0-.32.668.755.755,0,0,0,.3.656A1.336,1.336,0,0,0,17.977-1.266ZM28.57-8.008a2.909,2.909,0,0,1,2.078.707,2.631,2.631,0,0,1,.75,2.012V0H29.586V-4.9a1.612,1.612,0,0,0-.434-1.238,1.572,1.572,0,0,0-1.113-.4,1.836,1.836,0,0,0-1.328.5,2.055,2.055,0,0,0-.523,1.527V0h-1.8V-7.859h1.8v.93a2.655,2.655,0,0,1,1.012-.8A3.251,3.251,0,0,1,28.57-8.008ZM40.922-4.062l-.023.453H34.922a2.371,2.371,0,0,0,.688,1.719A2.245,2.245,0,0,0,37.2-1.3a2.155,2.155,0,0,0,1.168-.32,2.019,2.019,0,0,0,.777-.914l1.641.281A3.454,3.454,0,0,1,39.422-.484a3.9,3.9,0,0,1-2.211.633A4.029,4.029,0,0,1,34.266-.937,4,4,0,0,1,33.156-3.93a4.011,4.011,0,0,1,1.109-2.992,3.941,3.941,0,0,1,2.891-1.094,3.742,3.742,0,0,1,2.727,1A3.958,3.958,0,0,1,40.922-4.062ZM37.164-6.68a2.293,2.293,0,0,0-1.418.426A2.073,2.073,0,0,0,35-4.953h4.117a1.894,1.894,0,0,0-.625-1.289A2,2,0,0,0,37.164-6.68ZM44.688.148a3.262,3.262,0,0,1-1.2-.207,1.906,1.906,0,0,1-.875-.7,2.092,2.092,0,0,1-.348-1.23,2.28,2.28,0,0,1,.16-.879,1.924,1.924,0,0,1,.422-.645,2.479,2.479,0,0,1,.664-.453,4.762,4.762,0,0,1,.813-.309q.41-.113.949-.215l1.188-.219q.727-.141.727-.711a1.116,1.116,0,0,0-.437-.98,1.865,1.865,0,0,0-1.1-.309,1.844,1.844,0,0,0-1.133.332,1.454,1.454,0,0,0-.531,1.051l-1.617-.3Q42.766-8,45.758-8a5.538,5.538,0,0,1,.934.074,3.334,3.334,0,0,1,.852.27,2.45,2.45,0,0,1,.715.5,2.165,2.165,0,0,1,.477.8,3.327,3.327,0,0,1,.18,1.137V-2.18a1.244,1.244,0,0,0,.164.75.707.707,0,0,0,.578.2h.125V0H48.93q-1.336,0-1.594-1.039H47.25a2.555,2.555,0,0,1-1.113.9A3.683,3.683,0,0,1,44.688.148Zm.422-1.414a2.09,2.09,0,0,0,1.57-.648,2.351,2.351,0,0,0,.625-1.7L45.3-3.172a2.407,2.407,0,0,0-.969.363.785.785,0,0,0-.32.668.755.755,0,0,0,.3.656A1.336,1.336,0,0,0,45.109-1.266Zm8.148-5.273a2.373,2.373,0,0,1,1-1,3.107,3.107,0,0,1,1.535-.406V-6.3a2.769,2.769,0,0,0-1.855.527,2.242,2.242,0,0,0-.605,1.77V0h-1.8V-7.859h1.734Zm-43.941,26a5.931,5.931,0,0,1-2.871.688,5.954,5.954,0,0,1-2.875-.687,5.006,5.006,0,0,1-2.012-2A6.094,6.094,0,0,1,.82,14.422a6.072,6.072,0,0,1,.738-3.035,5.012,5.012,0,0,1,2.012-2A5.954,5.954,0,0,1,6.445,8.7a5.931,5.931,0,0,1,2.871.688,5.019,5.019,0,0,1,2.008,2,6.072,6.072,0,0,1,.738,3.035,6.094,6.094,0,0,1-.738,3.039A5.012,5.012,0,0,1,9.316,19.461ZM4.969,18.145a4.179,4.179,0,0,0,2.953,0,3.392,3.392,0,0,0,1.992-2.035,4.7,4.7,0,0,0,.289-1.687,4.647,4.647,0,0,0-.289-1.676,3.477,3.477,0,0,0-.8-1.254,3.557,3.557,0,0,0-1.2-.773,4.123,4.123,0,0,0-2.953,0,3.557,3.557,0,0,0-1.2.773,3.477,3.477,0,0,0-.8,1.254,4.647,4.647,0,0,0-.289,1.676,4.7,4.7,0,0,0,.289,1.688,3.392,3.392,0,0,0,1.992,2.035Zm13.586-6.152a3.635,3.635,0,0,1,1.438.289,3.585,3.585,0,0,1,1.184.809,3.769,3.769,0,0,1,.8,1.293,4.693,4.693,0,0,1,.3,1.7,4.8,4.8,0,0,1-.293,1.707,3.685,3.685,0,0,1-.8,1.3,3.641,3.641,0,0,1-2.625,1.1,3.22,3.22,0,0,1-1.578-.387,2.5,2.5,0,0,1-1.047-1.051L15.883,20H14.164V8h1.789l.008,5.367a2.5,2.5,0,0,1,1.047-1.012A3.26,3.26,0,0,1,18.555,11.992ZM16.492,17.93a2.151,2.151,0,0,0,1.656.727,2.185,2.185,0,0,0,1.66-.711,2.616,2.616,0,0,0,.668-1.867,2.6,2.6,0,0,0-.668-1.863,2.191,2.191,0,0,0-1.66-.707,2.155,2.155,0,0,0-1.652.727,2.619,2.619,0,0,0-.668,1.844A2.638,2.638,0,0,0,16.492,17.93Zm8.625-7.289a1.073,1.073,0,0,1-.781-.324,1.089,1.089,0,0,1,0-1.555,1.1,1.1,0,0,1,1.559,0,1.1,1.1,0,0,1-.773,1.879ZM22.484,23.68V22.227a1.553,1.553,0,0,0,1.371-.5,3.805,3.805,0,0,0,.332-1.926V12.141h1.82V19.8a4.4,4.4,0,0,1-.812,2.973A3.5,3.5,0,0,1,22.484,23.68Zm13.2-7.742-.023.453H29.688a2.371,2.371,0,0,0,.688,1.719,2.245,2.245,0,0,0,1.586.594,2.155,2.155,0,0,0,1.168-.32,2.019,2.019,0,0,0,.777-.914l1.641.281a3.454,3.454,0,0,1-1.359,1.766,3.9,3.9,0,0,1-2.211.633,4.029,4.029,0,0,1-2.945-1.086,4,4,0,0,1-1.109-2.992,4.011,4.011,0,0,1,1.109-2.992,3.941,3.941,0,0,1,2.891-1.094,3.742,3.742,0,0,1,2.727,1A3.958,3.958,0,0,1,35.688,15.938ZM31.93,13.32a2.293,2.293,0,0,0-1.418.426,2.073,2.073,0,0,0-.746,1.3h4.117a1.894,1.894,0,0,0-.625-1.289A2,2,0,0,0,31.93,13.32ZM40.32,20a2.222,2.222,0,0,1-1.656-.6,2.31,2.31,0,0,1-.594-1.7V13.547H36.5V12.141h.539a1.229,1.229,0,0,0,.926-.3,1.52,1.52,0,0,0,.285-1.051V9.57h1.641v2.57H41.6v1.406H39.891v3.969a1.127,1.127,0,0,0,.27.816.971.971,0,0,0,.73.277H41.6V20Zm4.055-9.359a1.073,1.073,0,0,1-.781-.324,1.089,1.089,0,0,1,0-1.555,1.1,1.1,0,0,1,1.559,0,1.1,1.1,0,0,1-.773,1.879ZM43.453,20V12.141h1.8V20Zm9.359-7.859h1.914L51.453,20H49.9l-3.25-7.859h1.906l2.117,5.8Zm6.469,8.008A4.13,4.13,0,0,1,56.3,19.043a3.93,3.93,0,0,1-1.156-2.98A3.91,3.91,0,0,1,56.3,13.1a4.577,4.577,0,0,1,5.961,0,3.907,3.907,0,0,1,1.156,2.969,3.93,3.93,0,0,1-1.156,2.98A4.141,4.141,0,0,1,59.281,20.148ZM59.266,18.7a2.2,2.2,0,0,0,1.7-.727,2.715,2.715,0,0,0,.664-1.906,2.7,2.7,0,0,0-.664-1.9,2.209,2.209,0,0,0-1.7-.723,2.159,2.159,0,0,0-1.672.723,2.721,2.721,0,0,0-.656,1.9,2.745,2.745,0,0,0,.652,1.906A2.15,2.15,0,0,0,59.266,18.7Zm8.68,1.453a4.046,4.046,0,0,1-2.2-.559,2.332,2.332,0,0,1-1.078-1.621l1.523-.43a1.628,1.628,0,0,0,.617.988,1.9,1.9,0,0,0,1.141.332,1.821,1.821,0,0,0,.953-.234.8.8,0,0,0,.383-.758.733.733,0,0,0-.1-.387,1.063,1.063,0,0,0-.242-.281,1.69,1.69,0,0,0-.4-.223,4.539,4.539,0,0,0-.477-.172l-.582-.172q-.367-.109-.609-.187a5.554,5.554,0,0,1-.75-.289,3.559,3.559,0,0,1-.617-.391,1.529,1.529,0,0,1-.473-.613,2.164,2.164,0,0,1-.16-.863,2.066,2.066,0,0,1,.4-1.289,2.266,2.266,0,0,1,1.047-.762A4.288,4.288,0,0,1,67.8,12a3.668,3.668,0,0,1,1.988.508,2.219,2.219,0,0,1,1,1.555l-1.422.336a1.417,1.417,0,0,0-.566-.875,1.936,1.936,0,0,0-1.906-.059.736.736,0,0,0-.371.676.917.917,0,0,0,.027.23.45.45,0,0,0,.105.191l.141.152a.734.734,0,0,0,.2.137q.141.07.227.109a2.459,2.459,0,0,0,.281.1l.289.086q.094.027.324.086l.324.082q.437.117.746.219a4.305,4.305,0,0,1,.68.3,2.369,2.369,0,0,1,.6.441,1.973,1.973,0,0,1,.387.629,2.286,2.286,0,0,1,.156.863,2.331,2.331,0,0,1-.25,1.105,1.9,1.9,0,0,1-.684.742,3.349,3.349,0,0,1-.969.4A4.844,4.844,0,0,1,67.945,20.148ZM7.555,40,4.664,35.031h-1.2V40H1.594V28.859H5.461a4.478,4.478,0,0,1,1.559.25,2.747,2.747,0,0,1,1.09.7,2.993,2.993,0,0,1,.621,1.023,3.7,3.7,0,0,1,.207,1.262A2.847,2.847,0,0,1,8.3,34a2.9,2.9,0,0,1-1.758.957L9.75,40ZM3.461,30.438v3.211H5.188a2.171,2.171,0,0,0,1.473-.426,1.48,1.48,0,0,0,.48-1.168,1.511,1.511,0,0,0-.484-1.18,2.134,2.134,0,0,0-1.469-.437Zm14.68,5.5-.023.453H12.141a2.371,2.371,0,0,0,.688,1.719,2.245,2.245,0,0,0,1.586.594,2.155,2.155,0,0,0,1.168-.32,2.019,2.019,0,0,0,.777-.914L18,37.75a3.454,3.454,0,0,1-1.359,1.766,3.9,3.9,0,0,1-2.211.633,4.219,4.219,0,0,1-2.945-7.07,3.941,3.941,0,0,1,2.891-1.094,3.742,3.742,0,0,1,2.727,1A3.958,3.958,0,0,1,18.141,35.938ZM14.383,33.32a2.293,2.293,0,0,0-1.418.426,2.073,2.073,0,0,0-.746,1.3h4.117a1.894,1.894,0,0,0-.625-1.289A2,2,0,0,0,14.383,33.32Zm9.078,6.82a3.89,3.89,0,0,1-4.07-4.078,3.946,3.946,0,0,1,1.145-2.945,4,4,0,0,1,2.926-1.125,3.993,3.993,0,0,1,2.41.723,3.411,3.411,0,0,1,1.316,2.02l-1.672.219a2.1,2.1,0,0,0-.77-1.125,2.168,2.168,0,0,0-1.3-.391,2.062,2.062,0,0,0-1.625.723,3.176,3.176,0,0,0,0,3.8,2.062,2.062,0,0,0,1.625.723,2.183,2.183,0,0,0,1.3-.387,2.075,2.075,0,0,0,.77-1.121l1.672.211a3.416,3.416,0,0,1-1.324,2.023A3.987,3.987,0,0,1,23.461,40.141Zm10.578-8h1.8V40H34.125l-.047-.984a2.812,2.812,0,0,1-2.422,1.133,2.909,2.909,0,0,1-2.078-.707,2.631,2.631,0,0,1-.75-2.012V32.141h1.813v4.9a1.612,1.612,0,0,0,.434,1.238,1.583,1.583,0,0,0,1.121.4,1.823,1.823,0,0,0,1.324-.5,2.064,2.064,0,0,0,.52-1.527Zm6.078,1.32a2.373,2.373,0,0,1,1-1,3.107,3.107,0,0,1,1.535-.406V33.7a2.769,2.769,0,0,0-1.855.527,2.242,2.242,0,0,0-.605,1.77V40h-1.8V32.141h1.734Zm6.609,6.688a4.046,4.046,0,0,1-2.2-.559,2.332,2.332,0,0,1-1.078-1.621l1.523-.43a1.628,1.628,0,0,0,.617.988,1.9,1.9,0,0,0,1.141.332,1.821,1.821,0,0,0,.953-.234.8.8,0,0,0,.383-.758.733.733,0,0,0-.1-.387,1.063,1.063,0,0,0-.242-.281,1.69,1.69,0,0,0-.4-.223,4.539,4.539,0,0,0-.477-.172l-.582-.172q-.367-.109-.609-.187a5.555,5.555,0,0,1-.75-.289,3.559,3.559,0,0,1-.617-.391,1.529,1.529,0,0,1-.473-.613,2.164,2.164,0,0,1-.16-.863,2.066,2.066,0,0,1,.4-1.289,2.266,2.266,0,0,1,1.047-.762A4.288,4.288,0,0,1,46.578,32a3.668,3.668,0,0,1,1.988.508,2.219,2.219,0,0,1,1,1.555l-1.422.336a1.417,1.417,0,0,0-.566-.875,1.936,1.936,0,0,0-1.906-.059.736.736,0,0,0-.371.676.917.917,0,0,0,.027.23.45.45,0,0,0,.105.191l.141.152a.734.734,0,0,0,.2.137q.141.07.227.109a2.459,2.459,0,0,0,.281.1l.289.086q.094.027.324.086l.324.082q.438.117.746.219a4.3,4.3,0,0,1,.68.3,2.369,2.369,0,0,1,.6.441,1.973,1.973,0,0,1,.387.629,2.286,2.286,0,0,1,.156.863,2.331,2.331,0,0,1-.25,1.105,1.9,1.9,0,0,1-.684.742,3.349,3.349,0,0,1-.969.4A4.844,4.844,0,0,1,46.727,40.148Zm8.43,0a4.13,4.13,0,0,1-2.977-1.105,3.93,3.93,0,0,1-1.156-2.98A3.91,3.91,0,0,1,52.18,33.1a4.577,4.577,0,0,1,5.961,0A3.907,3.907,0,0,1,59.3,36.063a3.93,3.93,0,0,1-1.156,2.98A4.141,4.141,0,0,1,55.156,40.148ZM55.141,38.7a2.2,2.2,0,0,0,1.7-.727,3.062,3.062,0,0,0,0-3.809,2.209,2.209,0,0,0-1.7-.723,2.159,2.159,0,0,0-1.672.723,3.1,3.1,0,0,0,0,3.809A2.15,2.15,0,0,0,55.141,38.7Zm8.68,1.453a4.046,4.046,0,0,1-2.2-.559,2.332,2.332,0,0,1-1.078-1.621l1.523-.43a1.628,1.628,0,0,0,.617.988,1.9,1.9,0,0,0,1.141.332,1.821,1.821,0,0,0,.953-.234.8.8,0,0,0,.383-.758.733.733,0,0,0-.1-.387,1.063,1.063,0,0,0-.242-.281,1.69,1.69,0,0,0-.4-.223,4.539,4.539,0,0,0-.477-.172l-.582-.172q-.367-.109-.609-.187a5.555,5.555,0,0,1-.75-.289,3.559,3.559,0,0,1-.617-.391,1.529,1.529,0,0,1-.473-.613,2.164,2.164,0,0,1-.16-.863,2.066,2.066,0,0,1,.4-1.289,2.266,2.266,0,0,1,1.047-.762A4.288,4.288,0,0,1,63.672,32a3.668,3.668,0,0,1,1.988.508,2.219,2.219,0,0,1,1,1.555l-1.422.336a1.417,1.417,0,0,0-.566-.875,1.936,1.936,0,0,0-1.906-.059.736.736,0,0,0-.371.676.917.917,0,0,0,.027.23.45.45,0,0,0,.105.191l.141.152a.734.734,0,0,0,.2.137q.141.07.227.109a2.459,2.459,0,0,0,.281.1l.289.086q.094.027.324.086l.324.082q.437.117.746.219a4.305,4.305,0,0,1,.68.3,2.369,2.369,0,0,1,.6.441,1.973,1.973,0,0,1,.387.629,2.286,2.286,0,0,1,.156.863,2.331,2.331,0,0,1-.25,1.105,1.9,1.9,0,0,1-.684.742,3.349,3.349,0,0,1-.969.4A4.844,4.844,0,0,1,63.82,40.148Zm-57.375,20a6.1,6.1,0,0,1-2.23-.4A5.283,5.283,0,0,1,2.43,58.617a5.1,5.1,0,0,1-1.18-1.809,6.412,6.412,0,0,1-.43-2.387,6.072,6.072,0,0,1,.738-3.035,5.012,5.012,0,0,1,2.012-2A5.954,5.954,0,0,1,6.445,48.7a5.788,5.788,0,0,1,3.117.844,4.918,4.918,0,0,1,1.984,2.336L9.8,52.547A3.331,3.331,0,0,0,8.48,51a3.782,3.782,0,0,0-2.035-.555,3.958,3.958,0,0,0-1.477.273,3.557,3.557,0,0,0-1.2.773,3.477,3.477,0,0,0-.8,1.254,4.647,4.647,0,0,0-.289,1.676,4.711,4.711,0,0,0,.289,1.684,3.466,3.466,0,0,0,.8,1.262,3.508,3.508,0,0,0,1.2.77,4.009,4.009,0,0,0,1.477.27,3.8,3.8,0,0,0,2.039-.551A3.315,3.315,0,0,0,9.8,56.313l1.742.664a4.9,4.9,0,0,1-1.98,2.332A5.8,5.8,0,0,1,6.445,60.148Zm10.422,0a4.13,4.13,0,0,1-2.977-1.105,4.4,4.4,0,0,1,0-5.945,4.13,4.13,0,0,1,2.977-1.105,4.149,4.149,0,0,1,2.984,1.1,4.4,4.4,0,0,1,0,5.949A4.141,4.141,0,0,1,16.867,60.148ZM16.852,58.7a2.2,2.2,0,0,0,1.7-.727,3.062,3.062,0,0,0,0-3.809,2.209,2.209,0,0,0-1.7-.723,2.159,2.159,0,0,0-1.672.723,3.1,3.1,0,0,0,0,3.809A2.15,2.15,0,0,0,16.852,58.7Zm14.734-6.7a2.762,2.762,0,0,1,1.93.652,2.368,2.368,0,0,1,.719,1.848V60h-1.8V54.992a1.543,1.543,0,0,0-.391-1.145,1.342,1.342,0,0,0-.984-.387,1.473,1.473,0,0,0-1.129.465,2.043,2.043,0,0,0-.434,1.434V60H27.664V55.031a1.6,1.6,0,0,0-.395-1.172,1.353,1.353,0,0,0-1-.4,1.462,1.462,0,0,0-1.133.48,2.171,2.171,0,0,0-.437,1.5V60H22.906V52.141H24.7v.969a2.535,2.535,0,0,1,2.219-1.117,2.979,2.979,0,0,1,1.406.316,2.082,2.082,0,0,1,.906.91A2.609,2.609,0,0,1,31.586,51.992Zm10.1.148h1.8V60H41.773l-.047-.984A2.812,2.812,0,0,1,39.3,60.148a2.909,2.909,0,0,1-2.078-.707,2.631,2.631,0,0,1-.75-2.012V52.141h1.813v4.9a1.612,1.612,0,0,0,.434,1.238,1.583,1.583,0,0,0,1.121.4,1.823,1.823,0,0,0,1.324-.5,2.064,2.064,0,0,0,.52-1.527Zm8.523-.148a2.909,2.909,0,0,1,2.078.707,2.631,2.631,0,0,1,.75,2.012V60H51.227V55.1a1.612,1.612,0,0,0-.434-1.238,1.572,1.572,0,0,0-1.113-.4,1.836,1.836,0,0,0-1.328.5,2.054,2.054,0,0,0-.523,1.527V60h-1.8V52.141h1.8v.93a2.655,2.655,0,0,1,1.012-.8A3.251,3.251,0,0,1,50.211,51.992Zm6.141-1.352a1.073,1.073,0,0,1-.781-.324,1.089,1.089,0,0,1,0-1.555,1.1,1.1,0,0,1,1.559,0,1.1,1.1,0,0,1-.773,1.879ZM55.43,60V52.141h1.8V60Zm7.758.141a3.89,3.89,0,0,1-4.07-4.078,3.946,3.946,0,0,1,1.145-2.945,4.373,4.373,0,0,1,5.336-.4,3.411,3.411,0,0,1,1.316,2.02l-1.672.219a2.1,2.1,0,0,0-.77-1.125,2.168,2.168,0,0,0-1.3-.391,2.062,2.062,0,0,0-1.625.723,3.176,3.176,0,0,0,0,3.8,2.062,2.062,0,0,0,1.625.723,2.183,2.183,0,0,0,1.3-.387,2.075,2.075,0,0,0,.77-1.121l1.672.211a3.416,3.416,0,0,1-1.324,2.023A3.987,3.987,0,0,1,63.188,60.141Zm7.383.008a3.262,3.262,0,0,1-1.2-.207,1.906,1.906,0,0,1-.875-.7,2.091,2.091,0,0,1-.348-1.23,2.279,2.279,0,0,1,.16-.879,1.925,1.925,0,0,1,.422-.645,2.479,2.479,0,0,1,.664-.453,4.762,4.762,0,0,1,.813-.309q.41-.113.949-.215l1.188-.219q.727-.141.727-.711a1.116,1.116,0,0,0-.437-.98,1.865,1.865,0,0,0-1.1-.309,1.844,1.844,0,0,0-1.133.332,1.454,1.454,0,0,0-.531,1.051l-1.617-.3Q68.648,52,71.641,52a5.538,5.538,0,0,1,.934.074,3.334,3.334,0,0,1,.852.27,2.45,2.45,0,0,1,.715.5,2.165,2.165,0,0,1,.477.8,3.327,3.327,0,0,1,.18,1.137V57.82a1.244,1.244,0,0,0,.164.75.707.707,0,0,0,.578.2h.125V60h-.852q-1.336,0-1.594-1.039h-.086a2.555,2.555,0,0,1-1.113.9A3.683,3.683,0,0,1,70.57,60.148Zm.422-1.414a2.09,2.09,0,0,0,1.57-.648,2.351,2.351,0,0,0,.625-1.7l-2.008.445a2.407,2.407,0,0,0-.969.363.785.785,0,0,0-.32.668.755.755,0,0,0,.3.656A1.336,1.336,0,0,0,70.992,58.734Zm8.148-5.273a2.373,2.373,0,0,1,1-1,3.107,3.107,0,0,1,1.535-.406V53.7a2.769,2.769,0,0,0-1.855.527,2.242,2.242,0,0,0-.605,1.77V60h-1.8V52.141h1.734Z" transform="translate(-8590.722 3326.778)" fill="#fff"/>
    <path id="Trazado_71693" data-name="Trazado 71693" d="M5.271-9.748a3.026,3.026,0,0,1,1.586.414A2.757,2.757,0,0,1,7.909-8.224a3.3,3.3,0,0,1,.362,1.545A3.028,3.028,0,0,1,7.448-4.5a2.874,2.874,0,0,1-2.177.861H3.028V0H1.395V-9.748Zm-.26,4.717a1.63,1.63,0,0,0,1.237-.451A1.689,1.689,0,0,0,6.679-6.7a1.689,1.689,0,0,0-.434-1.207,1.612,1.612,0,0,0-1.234-.461H3.028v3.336Zm6.433-.69a2.077,2.077,0,0,1,.872-.875,2.719,2.719,0,0,1,1.343-.355v1.436a2.423,2.423,0,0,0-1.624.461,1.962,1.962,0,0,0-.53,1.548V0H9.926V-6.877h1.518ZM17.91.13a3.614,3.614,0,0,1-2.6-.967,3.438,3.438,0,0,1-1.012-2.608A3.421,3.421,0,0,1,15.306-6.04a3.614,3.614,0,0,1,2.6-.967,3.631,3.631,0,0,1,2.611.964,3.419,3.419,0,0,1,1.012,2.6A3.438,3.438,0,0,1,20.521-.837,3.623,3.623,0,0,1,17.91.13ZM17.9-1.142a1.928,1.928,0,0,0,1.49-.636,2.376,2.376,0,0,0,.581-1.668,2.363,2.363,0,0,0-.581-1.665,1.933,1.933,0,0,0-1.49-.632,1.889,1.889,0,0,0-1.463.632,2.381,2.381,0,0,0-.574,1.665,2.4,2.4,0,0,0,.571,1.668A1.881,1.881,0,0,0,17.9-1.142ZM26.175.123a3.49,3.49,0,0,1-2.563-.988,3.471,3.471,0,0,1-1-2.581,3.453,3.453,0,0,1,1-2.577,3.5,3.5,0,0,1,2.56-.984,3.494,3.494,0,0,1,2.109.632,2.985,2.985,0,0,1,1.152,1.767l-1.463.191A1.833,1.833,0,0,0,27.3-5.4a1.9,1.9,0,0,0-1.138-.342,1.8,1.8,0,0,0-1.422.632,2.435,2.435,0,0,0-.554,1.665,2.435,2.435,0,0,0,.554,1.665,1.8,1.8,0,0,0,1.422.632A1.91,1.91,0,0,0,27.3-1.487a1.815,1.815,0,0,0,.673-.981l1.463.185A2.989,2.989,0,0,1,28.277-.513,3.489,3.489,0,0,1,26.175.123ZM37.256-3.555l-.021.4H32.006a2.075,2.075,0,0,0,.6,1.5A1.964,1.964,0,0,0,34-1.135a1.886,1.886,0,0,0,1.022-.28,1.767,1.767,0,0,0,.68-.8l1.436.246A3.022,3.022,0,0,1,35.943-.424,3.416,3.416,0,0,1,34.009.13a3.526,3.526,0,0,1-2.577-.95,3.5,3.5,0,0,1-.971-2.618,3.51,3.51,0,0,1,.971-2.618,3.448,3.448,0,0,1,2.529-.957,3.274,3.274,0,0,1,2.386.878A3.463,3.463,0,0,1,37.256-3.555Zm-3.288-2.29a2.007,2.007,0,0,0-1.241.373,1.814,1.814,0,0,0-.653,1.138h3.6a1.657,1.657,0,0,0-.547-1.128A1.751,1.751,0,0,0,33.968-5.845ZM41.228.13A3.54,3.54,0,0,1,39.3-.359a2.04,2.04,0,0,1-.943-1.418l1.333-.376a1.425,1.425,0,0,0,.54.865,1.663,1.663,0,0,0,1,.291,1.594,1.594,0,0,0,.834-.205.7.7,0,0,0,.335-.663.641.641,0,0,0-.089-.338.93.93,0,0,0-.212-.246,1.479,1.479,0,0,0-.352-.195,3.972,3.972,0,0,0-.417-.15l-.509-.15q-.321-.1-.533-.164a4.86,4.86,0,0,1-.656-.253,3.114,3.114,0,0,1-.54-.342,1.337,1.337,0,0,1-.414-.537A1.893,1.893,0,0,1,38.534-5a1.808,1.808,0,0,1,.349-1.128,1.983,1.983,0,0,1,.916-.667A3.752,3.752,0,0,1,41.1-7a3.21,3.21,0,0,1,1.74.444,1.942,1.942,0,0,1,.878,1.36L42.472-4.9a1.24,1.24,0,0,0-.5-.766,1.524,1.524,0,0,0-.872-.246,1.522,1.522,0,0,0-.8.195.644.644,0,0,0-.325.591.8.8,0,0,0,.024.2.393.393,0,0,0,.092.167l.123.133a.642.642,0,0,0,.178.12q.123.062.2.1a2.152,2.152,0,0,0,.246.085l.253.075q.082.024.284.075l.284.072q.383.1.653.191a3.767,3.767,0,0,1,.595.263,2.073,2.073,0,0,1,.526.386,1.726,1.726,0,0,1,.338.55,2,2,0,0,1,.137.755,2.04,2.04,0,0,1-.219.967,1.663,1.663,0,0,1-.6.649,2.931,2.931,0,0,1-.848.352A4.238,4.238,0,0,1,41.228.13ZM48.6.13A3.614,3.614,0,0,1,46-.837a3.438,3.438,0,0,1-1.012-2.608A3.421,3.421,0,0,1,46-6.04a3.614,3.614,0,0,1,2.6-.967,3.631,3.631,0,0,1,2.611.964,3.419,3.419,0,0,1,1.012,2.6A3.438,3.438,0,0,1,51.215-.837,3.623,3.623,0,0,1,48.6.13ZM48.59-1.142a1.928,1.928,0,0,0,1.49-.636,2.376,2.376,0,0,0,.581-1.668A2.363,2.363,0,0,0,50.08-5.11a1.933,1.933,0,0,0-1.49-.632,1.889,1.889,0,0,0-1.463.632,2.381,2.381,0,0,0-.574,1.665,2.4,2.4,0,0,0,.571,1.668A1.881,1.881,0,0,0,48.59-1.142ZM56.185.13a3.54,3.54,0,0,1-1.928-.489,2.04,2.04,0,0,1-.943-1.418l1.333-.376a1.425,1.425,0,0,0,.54.865,1.663,1.663,0,0,0,1,.291,1.594,1.594,0,0,0,.834-.205.7.7,0,0,0,.335-.663.641.641,0,0,0-.089-.338.93.93,0,0,0-.212-.246,1.479,1.479,0,0,0-.352-.195,3.972,3.972,0,0,0-.417-.15l-.509-.15q-.321-.1-.533-.164a4.86,4.86,0,0,1-.656-.253,3.114,3.114,0,0,1-.54-.342,1.337,1.337,0,0,1-.414-.537A1.893,1.893,0,0,1,53.491-5a1.808,1.808,0,0,1,.349-1.128,1.983,1.983,0,0,1,.916-.667A3.752,3.752,0,0,1,56.055-7a3.21,3.21,0,0,1,1.74.444,1.942,1.942,0,0,1,.878,1.36L57.429-4.9a1.24,1.24,0,0,0-.5-.766,1.524,1.524,0,0,0-.872-.246,1.522,1.522,0,0,0-.8.195.644.644,0,0,0-.325.591.8.8,0,0,0,.024.2.393.393,0,0,0,.092.167l.123.133a.642.642,0,0,0,.178.12q.123.062.2.1a2.152,2.152,0,0,0,.246.085l.253.075q.082.024.284.075l.284.072q.383.1.653.191a3.767,3.767,0,0,1,.595.263,2.073,2.073,0,0,1,.526.386,1.726,1.726,0,0,1,.338.55,2,2,0,0,1,.137.755,2.04,2.04,0,0,1-.219.967,1.663,1.663,0,0,1-.6.649,2.931,2.931,0,0,1-.848.352A4.238,4.238,0,0,1,56.185.13Zm6.754,2.529L69.733-10.5h1.5L64.436,2.659ZM82.564,0l-.772-2.167H77.533L76.768,0H75.079l3.589-9.748h1.989L84.246,0ZM78.032-3.568H81.3L79.666-8.176ZM88.587.123a3.49,3.49,0,0,1-2.563-.988,3.471,3.471,0,0,1-1-2.581,3.453,3.453,0,0,1,1-2.577,3.5,3.5,0,0,1,2.56-.984,3.494,3.494,0,0,1,2.109.632,2.985,2.985,0,0,1,1.152,1.767l-1.463.191a1.833,1.833,0,0,0-.673-.984,1.9,1.9,0,0,0-1.138-.342,1.8,1.8,0,0,0-1.422.632A2.435,2.435,0,0,0,86.6-3.445a2.435,2.435,0,0,0,.554,1.665,1.8,1.8,0,0,0,1.422.632,1.91,1.91,0,0,0,1.138-.338,1.815,1.815,0,0,0,.673-.981l1.463.185A2.989,2.989,0,0,1,90.689-.513,3.489,3.489,0,0,1,88.587.123ZM95.806,0a1.944,1.944,0,0,1-1.449-.526,2.021,2.021,0,0,1-.52-1.483V-5.646H92.463v-1.23h.472a1.075,1.075,0,0,0,.81-.263,1.33,1.33,0,0,0,.25-.919V-9.126H95.43v2.249h1.5v1.23h-1.5v3.473a.986.986,0,0,0,.236.714.85.85,0,0,0,.639.243h.622V0Zm3.548-8.189a.939.939,0,0,1-.684-.284.922.922,0,0,1-.287-.68.928.928,0,0,1,.284-.68.936.936,0,0,1,.687-.284.931.931,0,0,1,.677.284.922.922,0,0,1,.287.68.922.922,0,0,1-.287.68A.931.931,0,0,1,99.354-8.189ZM98.547,0V-6.877h1.579V0Zm8.189-6.877h1.675L105.547,0h-1.36l-2.844-6.877h1.668L104.863-1.8Zm3.7-1.312a.939.939,0,0,1-.684-.284.922.922,0,0,1-.287-.68.928.928,0,0,1,.284-.68.936.936,0,0,1,.687-.284.931.931,0,0,1,.677.284.922.922,0,0,1,.287.68.922.922,0,0,1-.287.68A.931.931,0,0,1,110.435-8.189ZM109.628,0V-6.877h1.579V0Zm8.777-10.5h1.572V0h-1.5l-.041-1.094a2.213,2.213,0,0,1-.919.916,2.807,2.807,0,0,1-1.371.335A3.173,3.173,0,0,1,114.881-.1,3.185,3.185,0,0,1,113.846-.8a3.264,3.264,0,0,1-.7-1.135,4.154,4.154,0,0,1-.26-1.494,4.107,4.107,0,0,1,.26-1.483,3.27,3.27,0,0,1,.7-1.131,3.175,3.175,0,0,1,1.039-.708,3.181,3.181,0,0,1,1.258-.253,2.843,2.843,0,0,1,1.343.318,2.209,2.209,0,0,1,.919.872Zm-3.367,8.7a1.912,1.912,0,0,0,1.453.622,1.882,1.882,0,0,0,1.449-.636,2.309,2.309,0,0,0,.581-1.62,2.291,2.291,0,0,0-.584-1.613,1.885,1.885,0,0,0-1.446-.636,1.917,1.917,0,0,0-1.453.619,2.277,2.277,0,0,0-.584,1.63A2.289,2.289,0,0,0,115.039-1.8ZM123.826.13a2.854,2.854,0,0,1-1.049-.181,1.668,1.668,0,0,1-.766-.615,1.83,1.83,0,0,1-.3-1.077,2,2,0,0,1,.14-.769,1.684,1.684,0,0,1,.369-.564,2.169,2.169,0,0,1,.581-.4,4.167,4.167,0,0,1,.711-.27q.359-.1.831-.188l1.039-.191q.636-.123.636-.622a.977.977,0,0,0-.383-.858,1.632,1.632,0,0,0-.964-.27,1.614,1.614,0,0,0-.991.291,1.272,1.272,0,0,0-.465.919l-1.415-.26Q122.145-7,124.763-7a4.846,4.846,0,0,1,.817.065,2.917,2.917,0,0,1,.745.236,2.144,2.144,0,0,1,.625.434,1.894,1.894,0,0,1,.417.7,2.911,2.911,0,0,1,.157.995v2.666a1.089,1.089,0,0,0,.144.656.618.618,0,0,0,.506.178h.109V0h-.745q-1.169,0-1.395-.909h-.075a2.235,2.235,0,0,1-.974.786A3.222,3.222,0,0,1,123.826.13Zm.369-1.237a1.829,1.829,0,0,0,1.374-.567,2.057,2.057,0,0,0,.547-1.49l-1.757.39a2.106,2.106,0,0,0-.848.318.686.686,0,0,0-.28.584.661.661,0,0,0,.267.574A1.169,1.169,0,0,0,124.2-1.107ZM134.62-10.5h1.572V0h-1.5l-.041-1.094a2.213,2.213,0,0,1-.919.916,2.807,2.807,0,0,1-1.371.335A3.173,3.173,0,0,1,131.1-.1,3.185,3.185,0,0,1,130.061-.8a3.264,3.264,0,0,1-.7-1.135,4.154,4.154,0,0,1-.26-1.494,4.107,4.107,0,0,1,.26-1.483,3.27,3.27,0,0,1,.7-1.131,3.175,3.175,0,0,1,1.039-.708,3.181,3.181,0,0,1,1.258-.253,2.843,2.843,0,0,1,1.343.318,2.209,2.209,0,0,1,.919.872Zm-3.367,8.7a1.912,1.912,0,0,0,1.453.622,1.882,1.882,0,0,0,1.449-.636,2.309,2.309,0,0,0,.581-1.62,2.291,2.291,0,0,0-.584-1.613,1.885,1.885,0,0,0-1.446-.636,1.917,1.917,0,0,0-1.453.619,2.277,2.277,0,0,0-.584,1.63A2.289,2.289,0,0,0,131.253-1.8Zm13.409-1.757-.021.4h-5.229a2.075,2.075,0,0,0,.6,1.5,1.964,1.964,0,0,0,1.388.52,1.886,1.886,0,0,0,1.022-.28,1.767,1.767,0,0,0,.68-.8l1.436.246A3.022,3.022,0,0,1,143.35-.424a3.416,3.416,0,0,1-1.935.554,3.526,3.526,0,0,1-2.577-.95,3.5,3.5,0,0,1-.971-2.618,3.51,3.51,0,0,1,.971-2.618,3.448,3.448,0,0,1,2.529-.957,3.274,3.274,0,0,1,2.386.878A3.463,3.463,0,0,1,144.662-3.555Zm-3.288-2.29a2.007,2.007,0,0,0-1.241.373,1.814,1.814,0,0,0-.653,1.138h3.6a1.657,1.657,0,0,0-.547-1.128A1.751,1.751,0,0,0,141.374-5.845ZM148.634.13a3.54,3.54,0,0,1-1.928-.489,2.04,2.04,0,0,1-.943-1.418l1.333-.376a1.425,1.425,0,0,0,.54.865,1.663,1.663,0,0,0,1,.291,1.593,1.593,0,0,0,.834-.205.7.7,0,0,0,.335-.663.641.641,0,0,0-.089-.338.93.93,0,0,0-.212-.246,1.479,1.479,0,0,0-.352-.195,3.972,3.972,0,0,0-.417-.15l-.509-.15q-.321-.1-.533-.164a4.86,4.86,0,0,1-.656-.253,3.114,3.114,0,0,1-.54-.342,1.337,1.337,0,0,1-.414-.537A1.893,1.893,0,0,1,145.94-5a1.808,1.808,0,0,1,.349-1.128,1.983,1.983,0,0,1,.916-.667A3.752,3.752,0,0,1,148.5-7a3.21,3.21,0,0,1,1.74.444,1.942,1.942,0,0,1,.878,1.36l-1.244.294a1.24,1.24,0,0,0-.5-.766,1.524,1.524,0,0,0-.872-.246,1.522,1.522,0,0,0-.8.195.644.644,0,0,0-.325.591.8.8,0,0,0,.024.2.393.393,0,0,0,.092.167l.123.133a.642.642,0,0,0,.178.12q.123.062.2.1a2.151,2.151,0,0,0,.246.085l.253.075q.082.024.284.075l.284.072q.383.1.653.191a3.767,3.767,0,0,1,.595.263,2.073,2.073,0,0,1,.526.386,1.726,1.726,0,0,1,.338.55,2,2,0,0,1,.137.755,2.04,2.04,0,0,1-.219.967,1.663,1.663,0,0,1-.6.649,2.931,2.931,0,0,1-.848.352A4.238,4.238,0,0,1,148.634.13ZM5.271,6.252a3.026,3.026,0,0,1,1.586.414A2.757,2.757,0,0,1,7.909,7.776a3.3,3.3,0,0,1,.362,1.545A3.028,3.028,0,0,1,7.448,11.5a2.874,2.874,0,0,1-2.177.861H3.028V16H1.395V6.252Zm-.26,4.717a1.63,1.63,0,0,0,1.237-.451A1.689,1.689,0,0,0,6.679,9.3a1.689,1.689,0,0,0-.434-1.207,1.612,1.612,0,0,0-1.234-.461H3.028v3.336Zm6.433-.69a2.077,2.077,0,0,1,.872-.875,2.719,2.719,0,0,1,1.343-.355v1.436a2.423,2.423,0,0,0-1.624.461,1.962,1.962,0,0,0-.53,1.548V16H9.926V9.123h1.518ZM17.91,16.13a3.614,3.614,0,0,1-2.6-.967,3.438,3.438,0,0,1-1.012-2.608A3.421,3.421,0,0,1,15.306,9.96a3.614,3.614,0,0,1,2.6-.967,3.631,3.631,0,0,1,2.611.964,3.419,3.419,0,0,1,1.012,2.6,3.438,3.438,0,0,1-1.012,2.608A3.623,3.623,0,0,1,17.91,16.13ZM17.9,14.858a1.928,1.928,0,0,0,1.49-.636,2.376,2.376,0,0,0,.581-1.668,2.363,2.363,0,0,0-.581-1.665,1.933,1.933,0,0,0-1.49-.632,1.889,1.889,0,0,0-1.463.632,2.381,2.381,0,0,0-.574,1.665,2.4,2.4,0,0,0,.571,1.668A1.881,1.881,0,0,0,17.9,14.858ZM28.164,5.5h1.572V16h-1.5l-.041-1.094a2.213,2.213,0,0,1-.919.916,2.807,2.807,0,0,1-1.371.335,3.186,3.186,0,0,1-2.3-.96,3.264,3.264,0,0,1-.7-1.135,4.154,4.154,0,0,1-.26-1.494,4.107,4.107,0,0,1,.26-1.483,3.27,3.27,0,0,1,.7-1.131,3.2,3.2,0,0,1,2.3-.96,2.843,2.843,0,0,1,1.343.318,2.209,2.209,0,0,1,.919.872ZM24.8,14.2a1.912,1.912,0,0,0,1.453.622,1.882,1.882,0,0,0,1.449-.636,2.309,2.309,0,0,0,.581-1.62,2.291,2.291,0,0,0-.584-1.613,1.885,1.885,0,0,0-1.446-.636,1.917,1.917,0,0,0-1.453.619,2.277,2.277,0,0,0-.584,1.63A2.289,2.289,0,0,0,24.8,14.2ZM36.381,9.123h1.572V16h-1.5l-.041-.861a2.46,2.46,0,0,1-2.119.991,2.545,2.545,0,0,1-1.818-.619,2.3,2.3,0,0,1-.656-1.76V9.123h1.586v4.286a1.411,1.411,0,0,0,.379,1.083,1.385,1.385,0,0,0,.981.352,1.6,1.6,0,0,0,1.159-.434,1.806,1.806,0,0,0,.455-1.336Zm6.781,7A3.4,3.4,0,0,1,39.6,12.555a3.453,3.453,0,0,1,1-2.577,3.826,3.826,0,0,1,4.669-.352,2.985,2.985,0,0,1,1.152,1.767l-1.463.191a1.833,1.833,0,0,0-.673-.984,1.9,1.9,0,0,0-1.138-.342,1.8,1.8,0,0,0-1.422.632,2.435,2.435,0,0,0-.554,1.665,2.435,2.435,0,0,0,.554,1.665,1.8,1.8,0,0,0,1.422.632,1.91,1.91,0,0,0,1.138-.338,1.815,1.815,0,0,0,.673-.981l1.463.185a2.989,2.989,0,0,1-1.159,1.771A3.489,3.489,0,0,1,43.162,16.123ZM50.381,16a1.944,1.944,0,0,1-1.449-.526,2.021,2.021,0,0,1-.52-1.483V10.354H47.038V9.123h.472a1.075,1.075,0,0,0,.81-.263,1.33,1.33,0,0,0,.25-.919V6.874H50V9.123h1.5v1.23H50v3.473a.986.986,0,0,0,.236.714.85.85,0,0,0,.639.243H51.5V16Zm5.735.13a3.614,3.614,0,0,1-2.6-.967A3.438,3.438,0,0,1,52.5,12.555,3.421,3.421,0,0,1,53.512,9.96a4,4,0,0,1,5.216,0,3.419,3.419,0,0,1,1.012,2.6,3.438,3.438,0,0,1-1.012,2.608A3.623,3.623,0,0,1,56.116,16.13ZM56.1,14.858a1.928,1.928,0,0,0,1.49-.636,2.376,2.376,0,0,0,.581-1.668,2.363,2.363,0,0,0-.581-1.665,1.933,1.933,0,0,0-1.49-.632,1.889,1.889,0,0,0-1.463.632,2.381,2.381,0,0,0-.574,1.665,2.4,2.4,0,0,0,.571,1.668A1.881,1.881,0,0,0,56.1,14.858ZM63.7,16.13a3.54,3.54,0,0,1-1.928-.489,2.04,2.04,0,0,1-.943-1.418l1.333-.376a1.425,1.425,0,0,0,.54.865,1.663,1.663,0,0,0,1,.291,1.594,1.594,0,0,0,.834-.205.7.7,0,0,0,.335-.663.641.641,0,0,0-.089-.338.93.93,0,0,0-.212-.246,1.479,1.479,0,0,0-.352-.195,3.972,3.972,0,0,0-.417-.15l-.509-.15q-.321-.1-.533-.164a4.86,4.86,0,0,1-.656-.253,3.114,3.114,0,0,1-.54-.342,1.337,1.337,0,0,1-.414-.537A1.893,1.893,0,0,1,61,11a1.808,1.808,0,0,1,.349-1.128,1.983,1.983,0,0,1,.916-.667A3.752,3.752,0,0,1,63.567,9a3.21,3.21,0,0,1,1.74.444,1.942,1.942,0,0,1,.878,1.36l-1.244.294a1.24,1.24,0,0,0-.5-.766,1.694,1.694,0,0,0-1.668-.051.644.644,0,0,0-.325.591.8.8,0,0,0,.024.2.393.393,0,0,0,.092.167l.123.133a.642.642,0,0,0,.178.12q.123.062.2.1a2.152,2.152,0,0,0,.246.085l.253.075q.082.024.284.075l.284.072q.383.1.653.191a3.767,3.767,0,0,1,.595.263,2.073,2.073,0,0,1,.526.386,1.726,1.726,0,0,1,.338.55,2,2,0,0,1,.137.755,2.04,2.04,0,0,1-.219.967,1.663,1.663,0,0,1-.6.649,2.931,2.931,0,0,1-.848.352A4.238,4.238,0,0,1,63.7,16.13Zm6.754,2.529L77.246,5.5h1.5L71.948,18.659ZM86.81,16.13a4.6,4.6,0,0,1-2.632-.714,2.943,2.943,0,0,1-1.292-1.993l1.682-.39a1.872,1.872,0,0,0,.755,1.282,2.563,2.563,0,0,0,1.548.455,2.231,2.231,0,0,0,1.292-.352,1.2,1.2,0,0,0,.506-1.077,1.117,1.117,0,0,0-.15-.547,1.565,1.565,0,0,0-.321-.4,2.115,2.115,0,0,0-.554-.311q-.376-.157-.615-.232t-.738-.219a.86.86,0,0,0-.1-.027q-.39-.116-.636-.195t-.6-.219a3.865,3.865,0,0,1-.571-.273,3.936,3.936,0,0,1-.468-.342,1.778,1.778,0,0,1-.39-.441A2.433,2.433,0,0,1,83.2,8.891a2.436,2.436,0,0,1,.947-2.044,3.8,3.8,0,0,1,2.4-.731,5.26,5.26,0,0,1,1.251.144,4.3,4.3,0,0,1,1.1.431,2.717,2.717,0,0,1,.865.772,2.906,2.906,0,0,1,.492,1.121l-1.579.4a1.724,1.724,0,0,0-.7-1.125,2.32,2.32,0,0,0-1.343-.373,2.213,2.213,0,0,0-1.261.342,1.166,1.166,0,0,0-.509,1.039.89.89,0,0,0,.068.352,1.363,1.363,0,0,0,.157.28,1.017,1.017,0,0,0,.28.239q.191.12.332.191a3.277,3.277,0,0,0,.427.167q.287.1.448.14l.5.14q.321.089.516.147t.509.164q.314.106.509.195t.458.232a2.515,2.515,0,0,1,.431.287,3.794,3.794,0,0,1,.349.345,1.628,1.628,0,0,1,.28.424,2.95,2.95,0,0,1,.167.5,2.533,2.533,0,0,1,.068.6,2.768,2.768,0,0,1-.291,1.292,2.37,2.37,0,0,1-.79.9,3.733,3.733,0,0,1-1.125.5A5.177,5.177,0,0,1,86.81,16.13Zm11.607-3.685-.021.4H93.167a2.075,2.075,0,0,0,.6,1.5,1.964,1.964,0,0,0,1.388.52,1.886,1.886,0,0,0,1.022-.28,1.767,1.767,0,0,0,.68-.8l1.436.246A3.022,3.022,0,0,1,97.1,15.576a3.416,3.416,0,0,1-1.935.554,3.526,3.526,0,0,1-2.577-.95,3.5,3.5,0,0,1-.971-2.618,3.51,3.51,0,0,1,.971-2.618,3.448,3.448,0,0,1,2.529-.957,3.274,3.274,0,0,1,2.386.878A3.463,3.463,0,0,1,98.417,12.445Zm-3.288-2.29a2.007,2.007,0,0,0-1.241.373,1.814,1.814,0,0,0-.653,1.138h3.6a1.657,1.657,0,0,0-.547-1.128A1.751,1.751,0,0,0,95.129,10.155Zm6.48.123a2.077,2.077,0,0,1,.872-.875,2.719,2.719,0,0,1,1.343-.355v1.436a2.423,2.423,0,0,0-1.624.461,1.962,1.962,0,0,0-.53,1.548V16h-1.579V9.123h1.518Zm8.039-1.155h1.675L108.459,16H107.1l-2.844-6.877h1.668l1.853,5.072Zm3.7-1.312a.939.939,0,0,1-.684-.284.953.953,0,0,1,0-1.36.961.961,0,0,1,1.364,0,.964.964,0,0,1-.677,1.644ZM112.54,16V9.123h1.579V16Zm6.788.123a3.4,3.4,0,0,1-3.562-3.568,3.453,3.453,0,0,1,1-2.577,3.826,3.826,0,0,1,4.669-.352,2.985,2.985,0,0,1,1.152,1.767l-1.463.191a1.833,1.833,0,0,0-.673-.984,1.9,1.9,0,0,0-1.138-.342,1.8,1.8,0,0,0-1.422.632,2.435,2.435,0,0,0-.554,1.665,2.435,2.435,0,0,0,.554,1.665,1.8,1.8,0,0,0,1.422.632,1.91,1.91,0,0,0,1.138-.338,1.815,1.815,0,0,0,.673-.981l1.463.185a2.989,2.989,0,0,1-1.159,1.771A3.489,3.489,0,0,1,119.328,16.123Zm5.646-8.312a.939.939,0,0,1-.684-.284.953.953,0,0,1,0-1.36.961.961,0,0,1,1.364,0,.964.964,0,0,1-.677,1.644ZM124.168,16V9.123h1.579V16Zm6.856.13a3.614,3.614,0,0,1-2.6-.967,3.438,3.438,0,0,1-1.012-2.608A3.421,3.421,0,0,1,128.42,9.96a4,4,0,0,1,5.216,0,3.419,3.419,0,0,1,1.012,2.6,3.438,3.438,0,0,1-1.012,2.608A3.623,3.623,0,0,1,131.024,16.13Zm-.014-1.271a1.928,1.928,0,0,0,1.49-.636,2.376,2.376,0,0,0,.581-1.668,2.363,2.363,0,0,0-.581-1.665,1.933,1.933,0,0,0-1.49-.632,1.889,1.889,0,0,0-1.463.632,2.381,2.381,0,0,0-.574,1.665,2.4,2.4,0,0,0,.571,1.668A1.881,1.881,0,0,0,131.011,14.858Zm7.595,1.271a3.54,3.54,0,0,1-1.928-.489,2.04,2.04,0,0,1-.943-1.418l1.333-.376a1.425,1.425,0,0,0,.54.865,1.663,1.663,0,0,0,1,.291,1.593,1.593,0,0,0,.834-.205.7.7,0,0,0,.335-.663.641.641,0,0,0-.089-.338.93.93,0,0,0-.212-.246,1.479,1.479,0,0,0-.352-.195,3.972,3.972,0,0,0-.417-.15l-.509-.15q-.321-.1-.533-.164a4.86,4.86,0,0,1-.656-.253,3.114,3.114,0,0,1-.54-.342,1.337,1.337,0,0,1-.414-.537,1.893,1.893,0,0,1-.14-.755,1.808,1.808,0,0,1,.349-1.128,1.983,1.983,0,0,1,.916-.667,3.752,3.752,0,0,1,1.3-.208,3.21,3.21,0,0,1,1.74.444,1.942,1.942,0,0,1,.878,1.36l-1.244.294a1.24,1.24,0,0,0-.5-.766,1.694,1.694,0,0,0-1.668-.051.644.644,0,0,0-.325.591.8.8,0,0,0,.024.2.393.393,0,0,0,.092.167l.123.133a.642.642,0,0,0,.178.12q.123.062.2.1a2.151,2.151,0,0,0,.246.085l.253.075q.082.024.284.075l.284.072q.383.1.653.191a3.767,3.767,0,0,1,.595.263,2.073,2.073,0,0,1,.526.386,1.726,1.726,0,0,1,.338.55,2,2,0,0,1,.137.755,2.04,2.04,0,0,1-.219.967,1.663,1.663,0,0,1-.6.649,2.931,2.931,0,0,1-.848.352A4.238,4.238,0,0,1,138.605,16.13Z" transform="translate(-8692.722 3625.778)" fill="#fff"/>
  </g>
</svg>
