<svg xmlns="http://www.w3.org/2000/svg" width="357" height="221.284" viewBox="0 0 357 221.284">
  <g id="Grupo_45951" data-name="Grupo 45951" transform="translate(-17.713 -37.028)">
    <g id="Grupo_45949" data-name="Grupo 45949" transform="translate(24.369 37.028)">
      <g id="Grupo_45928" data-name="Grupo 45928" transform="translate(0)">
        <g id="Grupo_45903" data-name="Grupo 45903" transform="translate(54.797 45.03)">
          <g id="Grupo_45886" data-name="Grupo 45886">
            <path id="Trazado_71577" data-name="Trazado 71577" d="M140.718,315.6l26.613-163.7L186.2,315.6Z" transform="translate(-140.718 -139.538)" fill="#092823"/>
            <path id="Trazado_71578" data-name="Trazado 71578" d="M141.978,460.333s21.082-20.058,22.74-18.867,22.937,18.867,22.937,18.867Z" transform="translate(-141.348 -284.415)" fill="#1a4943"/>
            <path id="Trazado_71579" data-name="Trazado 71579" d="M192.964,151.894H345.2l18.679,163.8L211.83,315.6Z" transform="translate(-166.862 -139.538)" fill="#ffad80"/>
            <g id="Grupo_45885" data-name="Grupo 45885" transform="translate(33.448)">
              <circle id="Elipse_743" data-name="Elipse 743" cx="4.702" cy="4.702" r="4.702" transform="matrix(0.923, -0.385, 0.385, 0.923, 13.602, 19.147)" fill="#092823"/>
              <path id="Trazado_71580" data-name="Trazado 71580" d="M226.917,132.342a11.85,11.85,0,0,0-7.172-4.984,9.606,9.606,0,0,0-8.112,2.079,11.72,11.72,0,0,0-3.965,9.057,1.25,1.25,0,0,0,2.5,0,9.391,9.391,0,0,1,2.59-6.711,7.064,7.064,0,0,1,6.132-2.054c5.185.928,7.814,6.131,8.489,10.9a20.457,20.457,0,0,1-.866,9.228c-.5,1.531,1.908,2.187,2.409.664C230.828,144.707,230.509,137.482,226.917,132.342Z" transform="translate(-207.667 -127.162)" fill="#e0733d"/>
              <circle id="Elipse_744" data-name="Elipse 744" cx="4.702" cy="4.702" r="4.702" transform="translate(46.373 21.677) rotate(-45)" fill="#092823"/>
              <path id="Trazado_71581" data-name="Trazado 71581" d="M293.514,132.342a11.851,11.851,0,0,0-7.173-4.984,9.6,9.6,0,0,0-8.111,2.079,11.721,11.721,0,0,0-3.966,9.057,1.25,1.25,0,0,0,2.5,0,9.391,9.391,0,0,1,2.59-6.711,7.064,7.064,0,0,1,6.132-2.054c5.185.928,7.814,6.131,8.489,10.9a20.457,20.457,0,0,1-.866,9.228c-.5,1.531,1.908,2.187,2.409.664C297.425,144.707,297.106,137.482,293.514,132.342Z" transform="translate(-240.992 -127.162)" fill="#e0733d"/>
              <circle id="Elipse_745" data-name="Elipse 745" cx="4.702" cy="4.702" r="4.702" transform="matrix(0.923, -0.385, 0.385, 0.923, 77.669, 19.147)" fill="#092823"/>
              <path id="Trazado_71582" data-name="Trazado 71582" d="M355.155,132.342a11.85,11.85,0,0,0-7.172-4.984,9.605,9.605,0,0,0-8.112,2.079,11.72,11.72,0,0,0-3.965,9.057,1.25,1.25,0,0,0,2.5,0,9.391,9.391,0,0,1,2.59-6.711,7.064,7.064,0,0,1,6.132-2.054c5.185.928,7.814,6.131,8.489,10.9a20.457,20.457,0,0,1-.866,9.228c-.5,1.531,1.908,2.187,2.409.664C359.066,144.707,358.747,137.482,355.155,132.342Z" transform="translate(-271.838 -127.162)" fill="#e0733d"/>
              <circle id="Elipse_746" data-name="Elipse 746" cx="4.702" cy="4.702" r="4.702" transform="translate(114.042 21.677) rotate(-45)" fill="#092823"/>
              <path id="Trazado_71583" data-name="Trazado 71583" d="M428.959,132.342a11.851,11.851,0,0,0-7.172-4.984,9.605,9.605,0,0,0-8.112,2.079,11.721,11.721,0,0,0-3.966,9.057,1.25,1.25,0,0,0,2.5,0,9.391,9.391,0,0,1,2.59-6.711,7.065,7.065,0,0,1,6.133-2.054c5.184.928,7.814,6.131,8.489,10.9a20.45,20.45,0,0,1-.866,9.228c-.5,1.531,1.909,2.187,2.409.664C432.871,144.707,432.551,137.482,428.959,132.342Z" transform="translate(-308.769 -127.162)" fill="#e0733d"/>
            </g>
          </g>
          <g id="Grupo_45889" data-name="Grupo 45889" transform="translate(145.468 39.487)">
            <g id="Grupo_45887" data-name="Grupo 45887">
              <rect id="Rectángulo_12680" data-name="Rectángulo 12680" width="22.336" height="19.293" transform="translate(0 2.463)" fill="#ffebc9"/>
              <path id="Trazado_71584" data-name="Trazado 71584" d="M453.2,206.779l-13.237-.581,2.906,1.162-3.616.969,4.391.332-4.391,1.8h14.27l-1.873-1.162,2.583-.969-2.325-.258Z" transform="translate(-435.571 -206.198)" fill="#092823"/>
            </g>
            <g id="Grupo_45888" data-name="Grupo 45888" transform="translate(0 32.113)">
              <rect id="Rectángulo_12681" data-name="Rectángulo 12681" width="22.336" height="19.293" transform="translate(0 2.463)" fill="#e0733d"/>
              <path id="Trazado_71585" data-name="Trazado 71585" d="M453.2,271.058l-13.237-.581,2.906,1.162-3.616.969,4.391.332-4.391,1.8h14.27l-1.873-1.162,2.583-.969-2.325-.258Z" transform="translate(-435.571 -270.476)" fill="#092823"/>
            </g>
          </g>
          <g id="Grupo_45902" data-name="Grupo 45902" transform="translate(53.636 37.125)">
            <g id="Grupo_45894" data-name="Grupo 45894" transform="translate(7.799 1.63)">
              <path id="Trazado_71586" data-name="Trazado 71586" d="M341.546,377.084a5.01,5.01,0,0,0-9.752-.129h-.255a5.009,5.009,0,0,0-9.737.07l-.282,0a5.019,5.019,0,0,0-4.879-3.871,5.548,5.548,0,0,0-4.889,3,5.549,5.549,0,0,0-4.89-3,5.019,5.019,0,0,0-4.879,3.871l-.282,0a5.009,5.009,0,0,0-9.737-.07h-.255a5.01,5.01,0,0,0-9.752.129c-.2.021,1.331,6.245,1.331,6.245a4.776,4.776,0,0,0,9.478,0h.026a4.776,4.776,0,0,0,9.478,0h.088a4.775,4.775,0,0,0,9.392.472,4.775,4.775,0,0,0,9.392-.472h.088a4.776,4.776,0,0,0,9.478,0h.026a4.776,4.776,0,0,0,9.478,0S341.743,377.105,341.546,377.084Z" transform="translate(-272.822 -289.014)" fill="#ffebc9"/>
              <path id="Trazado_71587" data-name="Trazado 71587" d="M337.464,294.691l-34.831,6.772-.052,1.311.016-1.311-34.831-6.772s-.221,4.465-4.078,5.819l10.15,41.816h57.555l10.15-41.816C337.685,299.156,337.464,294.691,337.464,294.691Z" transform="translate(-263.688 -249.749)" fill="#e0733d"/>
              <path id="Trazado_71588" data-name="Trazado 71588" d="M306.682,284.344s-12.967-22.463-33.238-23.863c0,0-6.636,22.89,7.183,32.873S306.682,284.344,306.682,284.344Z" transform="translate(-267.773 -232.63)" fill="#ffebc9"/>
              <path id="Trazado_71589" data-name="Trazado 71589" d="M309.417,315.151s-3.585,7.583-9.062,8.129l4.442.331S306.566,322.662,309.417,315.151Z" transform="translate(-282.036 -259.987)" fill="#ffad80"/>
              <path id="Trazado_71590" data-name="Trazado 71590" d="M277.654,296.283a16.857,16.857,0,0,0,5.944,11.676s-4.751-6.024-3.881-11.506Z" transform="translate(-270.677 -250.545)" fill="#ffad80"/>
              <g id="Grupo_45890" data-name="Grupo 45890" transform="translate(20.455 63.472)">
                <rect id="Rectángulo_12682" data-name="Rectángulo 12682" width="0.5" height="10.393" fill="#ffad80"/>
              </g>
              <g id="Grupo_45891" data-name="Grupo 45891" transform="translate(22.511 63.625)">
                <rect id="Rectángulo_12683" data-name="Rectángulo 12683" width="0.5" height="6.963" fill="#ffad80"/>
              </g>
              <path id="Trazado_71591" data-name="Trazado 71591" d="M285.827,234.833c.468-31.785-8.173-30.083-8.173-30.083,7.169,5.106,4.886,29.492,5.045,28.985Z" transform="translate(-270.677 -204.734)" fill="#ffebc9"/>
              <path id="Trazado_71592" data-name="Trazado 71592" d="M275.486,206.239s-5.731-4.244-1.109,26.347h-1.689s-6.067-28.583,1.306-27.835Z" transform="translate(-267.017 -204.736)" fill="#092823"/>
              <path id="Trazado_71593" data-name="Trazado 71593" d="M341.641,284.344s12.967-22.463,33.238-23.863c0,0,6.636,22.89-7.183,32.873S341.641,284.344,341.641,284.344Z" transform="translate(-302.696 -232.63)" fill="#ffebc9"/>
              <path id="Trazado_71594" data-name="Trazado 71594" d="M364.716,315.151s3.585,7.583,9.062,8.129l-4.441.331S367.568,322.662,364.716,315.151Z" transform="translate(-314.243 -259.987)" fill="#ffad80"/>
              <path id="Trazado_71595" data-name="Trazado 71595" d="M399.6,296.283a16.856,16.856,0,0,1-5.945,11.676s4.751-6.024,3.882-11.506Z" transform="translate(-328.725 -250.545)" fill="#ffad80"/>
              <g id="Grupo_45892" data-name="Grupo 45892" transform="translate(56.899 63.472)">
                <rect id="Rectángulo_12684" data-name="Rectángulo 12684" width="0.5" height="10.393" fill="#ffad80"/>
              </g>
              <g id="Grupo_45893" data-name="Grupo 45893" transform="translate(54.844 63.625)">
                <rect id="Rectángulo_12685" data-name="Rectángulo 12685" width="0.5" height="6.963" fill="#ffad80"/>
              </g>
              <path id="Trazado_71596" data-name="Trazado 71596" d="M389.178,234.833c-.468-31.785,8.173-30.083,8.173-30.083-7.169,5.106-4.886,29.492-5.046,28.985Z" transform="translate(-326.474 -204.734)" fill="#ffebc9"/>
              <path id="Trazado_71597" data-name="Trazado 71597" d="M402.571,206.239S408.3,202,403.68,232.587h1.689s6.067-28.583-1.306-27.835Z" transform="translate(-333.185 -204.736)" fill="#092823"/>
              <path id="Trazado_71598" data-name="Trazado 71598" d="M342.029,335.559c-.676-.591-1.517.024-2.065.464l-.219.176c-.134-.09-.262-.178-.373-.249q-.969-.615-1.9-1.284c-.154-.11-.3-.232-.454-.345.467-.355.929-.717,1.379-1.093.07-.058.145-.127.224-.2a2.779,2.779,0,0,0,.835.434c.423.12.98-.049.951-.579a.856.856,0,0,0-.966-.736,1.843,1.843,0,0,0-.846.388c-.058-.045-.116-.09-.172-.132q-.5-.373-.973-.783c-.173-.151-.335-.313-.5-.471.053-.052.11-.1.163-.154a20.683,20.683,0,0,0,1.4-1.59,9.6,9.6,0,0,1,.823-.922,3.519,3.519,0,0,0,.863.139,1.316,1.316,0,0,0,.912-.22.547.547,0,0,0,.082-.734c-.463-.672-1.418-.045-1.862.319-.014.011-.026.025-.04.037a6.469,6.469,0,0,1-1.635-.872c-.216-.151-.423-.315-.633-.474.183-.147.365-.3.546-.445.367-.3.731-.607,1.094-.913a5.036,5.036,0,0,0,.851-.834,1.953,1.953,0,0,0,.114-.177,1.436,1.436,0,0,0,1.219-.319c.122-.108-.035-.29-.168-.218a1.3,1.3,0,0,1-.875.119,1.258,1.258,0,0,0-.2-1.194c-.335-.391-1.148-.458-1.251.172a1.406,1.406,0,0,0,.9,1.319,6.53,6.53,0,0,1-1.418,1.3c-.379.314-.761.625-1.15.93-.388-.3-.77-.615-1.149-.93a6.53,6.53,0,0,1-1.418-1.3,1.406,1.406,0,0,0,.9-1.319c-.1-.63-.916-.563-1.251-.172a1.258,1.258,0,0,0-.2,1.194,1.3,1.3,0,0,1-.875-.119c-.133-.072-.29.11-.168.218a1.436,1.436,0,0,0,1.219.319,1.949,1.949,0,0,0,.113.177,5.04,5.04,0,0,0,.852.834c.363.307.727.613,1.094.913.181.148.363.3.546.445-.21.159-.417.323-.633.474a6.468,6.468,0,0,1-1.635.872c-.014-.012-.026-.026-.04-.037-.444-.364-1.4-.991-1.862-.319a.547.547,0,0,0,.082.734,1.315,1.315,0,0,0,.911.22,3.519,3.519,0,0,0,.864-.139,9.525,9.525,0,0,1,.823.922,20.8,20.8,0,0,0,1.4,1.59c.053.053.11.1.163.154-.167.157-.329.32-.5.471q-.471.409-.973.783c-.056.041-.114.087-.172.132a1.843,1.843,0,0,0-.846-.388.856.856,0,0,0-.966.736c-.028.53.529.7.952.579a2.77,2.77,0,0,0,.834-.434c.079.071.154.14.224.2.45.376.912.738,1.379,1.093-.153.112-.3.234-.454.345q-.934.668-1.9,1.284c-.111.07-.238.158-.373.249l-.219-.176c-.548-.439-1.388-1.054-2.065-.464-.568.5-.159,1.313.441,1.553a2.106,2.106,0,0,0,1.841-.438l0,0,.92.737,1.853,1.486-1.738,1.394c-.188.151.078.415.265.265l1.77-1.42,1.771,1.42c.186.15.453-.114.265-.265l-1.738-1.394,1.853-1.486.92-.737,0,0a2.106,2.106,0,0,0,1.841.438C342.188,336.872,342.6,336.054,342.029,335.559Zm-2.438-3.042a.489.489,0,0,1,.438.348c.043.3-.278.3-.478.245a2.106,2.106,0,0,1-.633-.33A1.047,1.047,0,0,1,339.591,332.517Zm.355-4.52a1.359,1.359,0,0,1,.583-.231c.12-.007.4.052.35.251-.017.07-.137.122-.189.144a1.76,1.76,0,0,1-.962-.008C339.8,328.1,339.869,328.043,339.946,328Zm-.873-4.493c-.136-.144-.463-.691-.062-.675s.489.558.438.86c0,.027-.017.051-.023.077A1.288,1.288,0,0,1,339.073,323.5Zm-5.171.185c-.051-.3.039-.845.438-.86s.073.531-.062.675a1.289,1.289,0,0,1-.352.262C333.919,323.739,333.906,323.715,333.9,323.688Zm-1.243,4.472c-.052-.022-.171-.074-.189-.144-.049-.2.23-.258.35-.251a1.359,1.359,0,0,1,.584.231c.077.046.145.1.217.156A1.76,1.76,0,0,1,332.659,328.16Zm1.14,4.95c-.2.055-.521.052-.478-.245a.489.489,0,0,1,.438-.348,1.047,1.047,0,0,1,.673.263A2.105,2.105,0,0,1,333.8,333.11Zm-1.951,3.585c-.309-.155-.586-.615-.222-.872a.889.889,0,0,1,.959.069,5.607,5.607,0,0,1,.695.516A1.536,1.536,0,0,1,331.847,336.695Zm3.778-6.914c-.4-.474-.774-.986-1.211-1.431a6.213,6.213,0,0,0,1.006-.51,14.09,14.09,0,0,0,1.254-.891,14.169,14.169,0,0,0,1.255.891,6.206,6.206,0,0,0,1.005.51c-.437.445-.807.957-1.211,1.431-.331.389-.685.758-1.05,1.117C336.31,330.539,335.957,330.17,335.625,329.78Zm-.035,3.458c-.169-.137-.346-.3-.531-.459.15-.119.3-.239.436-.349.41-.321.8-.667,1.179-1.024.38.357.769.7,1.18,1.024.14.109.285.229.436.349-.185.158-.361.322-.531.459-.354.285-.722.551-1.085.824C336.312,333.789,335.944,333.523,335.59,333.238Zm1.084,5.423q-1.369-1.1-2.74-2.2l.056-.035q1.165-.736,2.28-1.548c.136-.1.269-.2.4-.3.135.1.268.2.4.3q1.114.811,2.28,1.548l.056.035Zm4.828-1.966a1.536,1.536,0,0,1-1.432-.287,5.615,5.615,0,0,1,.695-.516.889.889,0,0,1,.959-.069C342.088,336.08,341.811,336.54,341.5,336.695Z" transform="translate(-297.396 -263.615)" fill="#ffad80"/>
            </g>
            <g id="Grupo_45895" data-name="Grupo 45895" transform="translate(5.444 52.884)">
              <path id="Trazado_71599" data-name="Trazado 71599" d="M276.644,356.537h0a6.626,6.626,0,0,1-5.444-2.505.25.25,0,1,1,.39-.312,6.147,6.147,0,0,0,5.054,2.318.25.25,0,1,1,0,.5Zm-7.351-7.972a.249.249,0,0,1-.242-.19l-1.439-5.82a.25.25,0,1,1,.485-.12l1.439,5.82a.25.25,0,0,1-.242.31Zm-2.878-11.64a.249.249,0,0,1-.242-.19l-1.439-5.82a.25.25,0,0,1,.485-.12l1.438,5.82a.25.25,0,0,1-.182.3A.277.277,0,0,1,266.416,336.925Zm-2.878-11.64a.25.25,0,0,1-.242-.19l-1.438-5.82a.25.25,0,0,1,.485-.12l1.438,5.82a.251.251,0,0,1-.243.31Zm-2.877-11.64a.25.25,0,0,1-.243-.19l-1.439-5.82a.25.25,0,1,1,.485-.12l1.439,5.82a.25.25,0,0,1-.242.31Z" transform="translate(-258.972 -307.325)" fill="#092823"/>
            </g>
            <g id="Grupo_45896" data-name="Grupo 45896" transform="translate(16.02)">
              <path id="Trazado_71600" data-name="Trazado 71600" d="M309.586,251.548a.25.25,0,0,1-.239-.179,15.3,15.3,0,0,0-.663-1.8.25.25,0,1,1,.457-.2,15.852,15.852,0,0,1,.685,1.854.251.251,0,0,1-.168.311A.256.256,0,0,1,309.586,251.548Zm-3.85-6.891a.252.252,0,0,1-.195-.093,39.456,39.456,0,0,0-4.106-4.317.25.25,0,1,1,.337-.369,39.966,39.966,0,0,1,4.159,4.371.25.25,0,0,1-.195.407Zm-8.774-8.147a.248.248,0,0,1-.149-.049c-1.567-1.163-3.232-2.3-4.949-3.366a.25.25,0,1,1,.265-.424c1.728,1.078,3.4,2.218,4.981,3.389a.25.25,0,0,1-.148.45ZM288.579,229a.25.25,0,0,1-.249-.234c-.085-1.392-.23-3.56-.434-5.986a.25.25,0,0,1,.5-.042c.2,2.431.349,4.6.435,6a.25.25,0,0,1-.234.265Zm-1.023-11.967a.251.251,0,0,1-.248-.221c-.266-2.3-.552-4.295-.852-5.925a.25.25,0,0,1,.492-.09c.3,1.641.589,3.646.856,5.957a.25.25,0,0,1-.219.277Zm-2.591-11.657a.248.248,0,0,1-.22-.132c-1.658-3.115-3.821-3.273-4.239-3.273a.5.5,0,0,0-.114,0,.25.25,0,0,1-.025-.5s.048,0,.139,0c.656,0,2.933.255,4.679,3.538a.249.249,0,0,1-.1.338A.239.239,0,0,1,284.965,205.377Z" transform="translate(-280.143 -201.472)" fill="#092823"/>
            </g>
            <g id="Grupo_45901" data-name="Grupo 45901" transform="translate(0 44.477)">
              <g id="Grupo_45898" data-name="Grupo 45898" transform="translate(0 0.466)">
                <g id="Grupo_45897" data-name="Grupo 45897" transform="translate(1.736 1.664)">
                  <path id="Trazado_71601" data-name="Trazado 71601" d="M256.764,300.792a.252.252,0,0,1-.186-.083l-4.963-5.531a.25.25,0,0,1,.372-.334l4.963,5.531a.25.25,0,0,1-.186.417Z" transform="translate(-251.551 -294.762)" fill="#092823"/>
                </g>
                <circle id="Elipse_747" data-name="Elipse 747" cx="1.212" cy="1.212" r="1.212" fill="#092823"/>
              </g>
              <g id="Grupo_45900" data-name="Grupo 45900" transform="translate(0.892)">
                <g id="Grupo_45899" data-name="Grupo 45899" transform="translate(0 1.927)">
                  <path id="Trazado_71602" data-name="Trazado 71602" d="M250.111,301.392a.245.245,0,0,1-.118-.03.25.25,0,0,1-.1-.339l3.533-6.538a.25.25,0,1,1,.439.238l-3.533,6.538A.249.249,0,0,1,250.111,301.392Z" transform="translate(-249.861 -294.355)" fill="#092823"/>
                </g>
                <path id="Trazado_71603" data-name="Trazado 71603" d="M257.428,292.851a1.212,1.212,0,1,1,.732-1.55A1.212,1.212,0,0,1,257.428,292.851Z" transform="translate(-252.836 -290.497)" fill="#092823"/>
              </g>
            </g>
          </g>
        </g>
        <g id="Grupo_45905" data-name="Grupo 45905" transform="translate(175.891 144.555)">
          <path id="Trazado_71604" data-name="Trazado 71604" d="M389.805,465.929h99.231a6.7,6.7,0,0,1,6.7,6.705H383.1A6.705,6.705,0,0,1,389.805,465.929Z" transform="translate(-383.1 -396.206)" fill="#1a4943"/>
          <rect id="Rectángulo_12686" data-name="Rectángulo 12686" width="85.641" height="4.417" transform="translate(13.5 65.306)" fill="#1a4943"/>
          <path id="Trazado_71605" data-name="Trazado 71605" d="M416.923,417.293a39.423,39.423,0,1,1,78.845,0Z" transform="translate(-400.025 -352.141)" fill="#e0733d"/>
          <path id="Trazado_71606" data-name="Trazado 71606" d="M430.69,329.664s-6.334-1.858-6.58,3.064,11.133,6.357,11.133,6.357,4.675-10.774.615-12.373S430.69,329.664,430.69,329.664Z" transform="translate(-403.62 -326.37)" fill="#e0733d"/>
          <path id="Trazado_71607" data-name="Trazado 71607" d="M443.837,350.48l15.3,24.434-13.49-25.77-.53,1.336Z" transform="translate(-413.493 -337.766)" fill="#092823"/>
          <path id="Trazado_71608" data-name="Trazado 71608" d="M515.036,351.818l-10.622,26.8,12.771-26.134-1.391.364Z" transform="translate(-443.806 -339.104)" fill="#092823"/>
          <path id="Trazado_71609" data-name="Trazado 71609" d="M407.426,407.865l-6.774-6.073-7.9,1.324,4.555,6.735Z" transform="translate(-387.929 -364.111)" fill="#fbb613"/>
          <path id="Trazado_71610" data-name="Trazado 71610" d="M420.9,413.129l.534.191,16.82,6.017-17.671-5.647Z" transform="translate(-401.855 -369.784)" fill="#092823"/>
          <circle id="Elipse_748" data-name="Elipse 748" cx="5.657" cy="5.657" r="5.657" transform="translate(68.009 3.198)" fill="#1a4943"/>
          <circle id="Elipse_749" data-name="Elipse 749" cx="2.809" cy="2.809" r="2.809" transform="translate(36.396 37.727)" fill="#fbb613"/>
          <circle id="Elipse_750" data-name="Elipse 750" cx="2.809" cy="2.809" r="2.809" transform="translate(44.569 54.653)" fill="#ffebc9"/>
          <circle id="Elipse_751" data-name="Elipse 751" cx="2.809" cy="2.809" r="2.809" transform="translate(70.57 42.632)" fill="#ffad80"/>
          <g id="Grupo_45904" data-name="Grupo 45904" transform="translate(13.25 69.473)">
            <path id="Trazado_71611" data-name="Trazado 71611" d="M495.512,465.929H409.871a.25.25,0,0,1,0-.5h85.641a.25.25,0,0,1,0,.5Z" transform="translate(-409.621 -465.429)" fill="#ffebc9"/>
          </g>
        </g>
        <g id="Grupo_45916" data-name="Grupo 45916" transform="translate(234.873)">
          <rect id="Rectángulo_12687" data-name="Rectángulo 12687" width="4.36" height="3.414" transform="translate(25.566 204.374)" fill="#1a4943"/>
          <path id="Trazado_71612" data-name="Trazado 71612" d="M544.786,100.055s3-20.748,7.51-27.414,6.666-20.467,6.2-22.344-20.842-5.821-20.842-5.821v-5a1.942,1.942,0,0,0-1.942-1.942h-11.7a1.942,1.942,0,0,0-1.942,1.942v5s-20.373,3.943-20.842,5.821,1.69,15.678,6.2,22.344,7.51,27.414,7.51,27.414,1.127,8.074-2.535,12.674-9.858,20.842-8.261,43.375h51.45c1.6-22.532-4.6-38.774-8.262-43.375S544.786,100.055,544.786,100.055Z" transform="translate(-501.159 -37.279)" fill="#e0733d"/>
          <g id="Grupo_45906" data-name="Grupo 45906" transform="translate(20.656 6.948)">
            <path id="Trazado_71613" data-name="Trazado 71613" d="M550.656,53.761a15.405,15.405,0,0,1-8.031-2.362.25.25,0,1,1,.258-.428c8.5,5.116,15.238.067,15.305.016a.25.25,0,0,1,.305.4A13.926,13.926,0,0,1,550.656,53.761Z" transform="translate(-542.503 -50.935)" fill="#ffad80"/>
          </g>
          <g id="Grupo_45907" data-name="Grupo 45907" transform="translate(6.01 7.74)">
            <path id="Trazado_71614" data-name="Trazado 71614" d="M558.316,80.393H513.437a.249.249,0,0,1-.233-.338l10.228-27.262a.25.25,0,0,1,.468.176L513.8,79.894h44.151L547.33,52.862a.25.25,0,0,1,.466-.183l10.753,27.372a.253.253,0,0,1-.026.232A.249.249,0,0,1,558.316,80.393Z" transform="translate(-513.188 -52.521)" fill="#ffad80"/>
          </g>
          <g id="Grupo_45908" data-name="Grupo 45908" transform="translate(18.288 0)">
            <path id="Trazado_71615" data-name="Trazado 71615" d="M543.383,101.08a.249.249,0,0,1-.245-.2l-5.369-28.439a.262.262,0,0,1,0-.1l5.921-26.5V37.279a.25.25,0,1,1,.5,0V45.86a.247.247,0,0,1-.006.054L538.269,72.4l5.359,28.389a.249.249,0,0,1-.2.292A.254.254,0,0,1,543.383,101.08Z" transform="translate(-537.765 -37.029)" fill="#ffad80"/>
          </g>
          <g id="Grupo_45909" data-name="Grupo 45909" transform="translate(31.736 0)">
            <path id="Trazado_71616" data-name="Trazado 71616" d="M566.019,101.08a.255.255,0,0,1-.047,0,.25.25,0,0,1-.2-.293l5.49-28.385-6.574-26.135a.281.281,0,0,1-.007-.061V37.279a.25.25,0,0,1,.5,0v8.892l6.579,26.159a.257.257,0,0,1,0,.108l-5.5,28.439A.25.25,0,0,1,566.019,101.08Z" transform="translate(-564.682 -37.029)" fill="#ffad80"/>
          </g>
          <path id="Trazado_71617" data-name="Trazado 71617" d="M542.977,451.522h0a6.828,6.828,0,0,0-5.17,2.472l-9.059,10.937H557.26l-8.906-10.9A6.826,6.826,0,0,0,542.977,451.522Z" transform="translate(-514.965 -244.441)" fill="#092823"/>
          <g id="Grupo_45910" data-name="Grupo 45910" transform="translate(28.074)">
            <path id="Trazado_71618" data-name="Trazado 71618" d="M557.976,101.08a.25.25,0,0,1-.25-.25V72.391c.019-8.663.044-25.124,0-25.779a.253.253,0,0,1,0-.033l-.375-9.29a.25.25,0,1,1,.5-.02l.375,9.29h-.03c.068.687.077,4.36.03,25.832V100.83A.25.25,0,0,1,557.976,101.08Z" transform="translate(-557.352 -37.028)" fill="#ffad80"/>
          </g>
          <g id="Grupo_45911" data-name="Grupo 45911" transform="translate(39.735 35.112)">
            <path id="Trazado_71619" data-name="Trazado 71619" d="M580.942,135.7a.242.242,0,0,1-.092-.018.249.249,0,0,1-.139-.324l11.153-27.894a.249.249,0,1,1,.463.185l-11.153,27.894A.249.249,0,0,1,580.942,135.7Z" transform="translate(-580.693 -107.309)" fill="#ffad80"/>
          </g>
          <g id="Grupo_45912" data-name="Grupo 45912" transform="translate(6.01 35.113)">
            <path id="Trazado_71620" data-name="Trazado 71620" d="M524.658,136.249a.249.249,0,0,1-.232-.158l-11.22-28.439a.25.25,0,1,1,.464-.184l11.22,28.439a.249.249,0,0,1-.14.324A.246.246,0,0,1,524.658,136.249Z" transform="translate(-513.188 -107.31)" fill="#ffad80"/>
          </g>
          <g id="Grupo_45913" data-name="Grupo 45913" transform="translate(2.353 9.291)">
            <path id="Trazado_71621" data-name="Trazado 71621" d="M506.111,73.761a.249.249,0,0,1-.238-.174c-.036-.114-.12-.382,7.5-17.813a.25.25,0,1,1,.458.2c-2.928,6.694-7.312,16.841-7.472,17.542a.249.249,0,0,1-.25.245Z" transform="translate(-505.868 -55.625)" fill="#ffad80"/>
          </g>
          <g id="Grupo_45914" data-name="Grupo 45914" transform="translate(48.321 9.599)">
            <path id="Trazado_71622" data-name="Trazado 71622" d="M604.088,74.9a.25.25,0,0,1-.239-.177c-2.083-6.884-5.347-17.308-5.864-18.032a.25.25,0,0,1,.2-.446c.174.044.637.16,6.138,18.334a.25.25,0,0,1-.167.312A.258.258,0,0,1,604.088,74.9Z" transform="translate(-597.879 -56.241)" fill="#ffad80"/>
          </g>
          <g id="Grupo_45915" data-name="Grupo 45915" transform="translate(28.274 64.848)">
            <path id="Trazado_71623" data-name="Trazado 71623" d="M558,221.056a.25.25,0,0,1-.25-.25V215.04a.25.25,0,1,1,.5,0v5.766A.25.25,0,0,1,558,221.056Zm0-11.761a.25.25,0,0,1-.25-.25v-6a.25.25,0,1,1,.5,0v6A.25.25,0,0,1,558,209.295Zm0-11.99a.25.25,0,0,1-.25-.25v-6a.25.25,0,1,1,.5,0v6A.25.25,0,0,1,558,197.3Zm0-11.99a.25.25,0,0,1-.25-.25v-6a.25.25,0,1,1,.5,0v6A.25.25,0,0,1,558,185.314Zm0-11.99a.25.25,0,0,1-.25-.25v-6a.25.25,0,1,1,.5,0v6A.25.25,0,0,1,558,173.324Z" transform="translate(-557.752 -166.829)" fill="#ffad80"/>
          </g>
          <path id="Trazado_71624" data-name="Trazado 71624" d="M558.578,166.536H528.721v-3.854c9.9,3.1,29.857,0,29.857,0Z" transform="translate(-514.951 -99.906)" fill="#ffad80"/>
          <rect id="Rectángulo_12688" data-name="Rectángulo 12688" width="1.449" height="40.352" transform="translate(27.957 118.825)" fill="#e0733d"/>
          <path id="Trazado_71625" data-name="Trazado 71625" d="M556.841,353.666H543.2S549.529,361.389,556.841,353.666Z" transform="translate(-522.198 -195.474)" fill="#092823"/>
          <path id="Trazado_71626" data-name="Trazado 71626" d="M553.06,378.436c4.817-18.848-1.685-18.2-1.685-18.2l-1.786,0h-.468l-1.786,0s-6.5-.653-1.685,18.2-5.026,25.41-5.026,25.41h17.462S548.244,397.283,553.06,378.436Z" transform="translate(-520.908 -198.763)" fill="#092823"/>
        </g>
        <g id="Grupo_45925" data-name="Grupo 45925" transform="translate(251.673 48.511)">
          <path id="Trazado_71627" data-name="Trazado 71627" d="M549.208,151.546l34.51,78.663s-1.786,7.408-6.281,9.576a11.344,11.344,0,0,1-9.289-5.921l-33.36-99.735Z" transform="translate(-534.788 -134.129)" fill="#fbb613"/>
          <path id="Trazado_71628" data-name="Trazado 71628" d="M543,144.753l26.245,70.859-1.1,18.252-33.36-99.735Z" transform="translate(-534.788 -134.129)" fill="#ffd68d"/>
          <path id="Trazado_71629" data-name="Trazado 71629" d="M598.5,333.76s-4.935,16.557,2.223,23.327,16.759,16.168,16.759,16.168-13.358-8.281-19.909,3.465,3.269,30.3,12.852,29.969,19.41-9.871,13.4-26.344-18.7-28.309-16.04-40.665Z" transform="translate(-565.144 -234.025)" fill="#fbb613"/>
          <ellipse id="Elipse_752" data-name="Elipse 752" cx="9.018" cy="12.03" rx="9.018" ry="12.03" transform="matrix(0.967, -0.255, 0.255, 0.967, 34.5, 144.602)" fill="#ffebc9"/>
          <path id="Trazado_71630" data-name="Trazado 71630" d="M626.96,322.417s14.965,8.635,14.419,18.472-1.061,23.263-1.061,23.263,4.011-15.2,16.843-11.166,18.45,24.255,11.262,30.6-20.883,6.171-27.842-9.923-5.876-33.414-16.3-40.562Z" transform="translate(-579.571 -228.349)" fill="#fbb613"/>
          <ellipse id="Elipse_753" data-name="Elipse 753" cx="9.019" cy="12.03" rx="9.019" ry="12.03" transform="translate(61.565 136.082) rotate(-28.62)" fill="#ffebc9"/>
          <g id="Grupo_45917" data-name="Grupo 45917" transform="translate(34.709 89.994)">
            <path id="Trazado_71631" data-name="Trazado 71631" d="M608.592,322.943a4.312,4.312,0,0,1-2.324-.682h0a4.313,4.313,0,1,1,2.324.682Zm-2.056-1.1a3.84,3.84,0,1,0-1.173-5.3,3.815,3.815,0,0,0,1.173,5.3Z" transform="translate(-604.262 -314.262)" fill="#092823"/>
          </g>
          <g id="Grupo_45918" data-name="Grupo 45918" transform="translate(39.15 90.011)">
            <path id="Trazado_71632" data-name="Trazado 71632" d="M613.67,322.907a.251.251,0,0,1-.25-.241l-.27-8.112a.25.25,0,0,1,.242-.258h.008a.25.25,0,0,1,.25.242l.27,8.112a.25.25,0,0,1-.241.258Z" transform="translate(-613.15 -314.295)" fill="#092823"/>
          </g>
          <g id="Grupo_45919" data-name="Grupo 45919" transform="translate(34.718 94.078)">
            <path id="Trazado_71633" data-name="Trazado 71633" d="M604.529,323.168a.25.25,0,0,1-.007-.5l8.166-.232a.254.254,0,0,1,.257.242.251.251,0,0,1-.242.257l-8.166.232Z" transform="translate(-604.279 -322.435)" fill="#092823"/>
          </g>
          <g id="Grupo_45920" data-name="Grupo 45920" transform="translate(33.11 94.374)">
            <path id="Trazado_71634" data-name="Trazado 71634" d="M610.6,334.56h-.023c-.063-.006-6.353-.654-9.481-6.045a.25.25,0,0,1,.432-.251c2.827,4.872,8.349,5.705,9.027,5.79,6.051-3.039,5.446-10.677,5.439-10.755a.25.25,0,0,1,.226-.271.256.256,0,0,1,.271.226c.008.081.651,8.11-5.781,11.28A.249.249,0,0,1,610.6,334.56Z" transform="translate(-601.061 -323.028)" fill="#ffd68d"/>
          </g>
          <g id="Grupo_45921" data-name="Grupo 45921" transform="translate(41.366 159.421)">
            <path id="Trazado_71635" data-name="Trazado 71635" d="M622.515,463.576a15.165,15.165,0,0,1-4.758-.825.25.25,0,1,1,.157-.474c3.564,1.179,6.763,1.052,9.506-.376,4.9-2.55,6.711-8.437,6.729-8.5a.25.25,0,1,1,.478.143c-.074.25-1.893,6.15-6.976,8.8A10.968,10.968,0,0,1,622.515,463.576Z" transform="translate(-617.586 -453.227)" fill="#ffd68d"/>
          </g>
          <g id="Grupo_45922" data-name="Grupo 45922" transform="translate(62.171 126.738)">
            <path id="Trazado_71636" data-name="Trazado 71636" d="M659.479,396.435a.253.253,0,0,1-.133-.038.25.25,0,0,1-.078-.345c2.88-4.575,6.287-7.276,10.128-8.028a12.648,12.648,0,0,1,9.17,1.891.25.25,0,0,1-.291.406,12.386,12.386,0,0,0-8.79-1.806c-3.7.726-6.992,3.352-9.795,7.8A.248.248,0,0,1,659.479,396.435Z" transform="translate(-659.229 -387.809)" fill="#ffd68d"/>
          </g>
          <g id="Grupo_45923" data-name="Grupo 45923" transform="translate(47.258 99.823)">
            <path id="Trazado_71637" data-name="Trazado 71637" d="M640.433,364.131h-.012a.249.249,0,0,1-.237-.261c.781-16.342-2.651-26.186-10.2-29.259-.2-.081-.358-.146-.466-.2a.25.25,0,0,1,.231-.443c.1.051.242.108.423.182,7.77,3.162,11.307,13.17,10.514,29.746A.25.25,0,0,1,640.433,364.131Z" transform="translate(-629.38 -333.936)" fill="#ffd68d"/>
          </g>
          <g id="Grupo_45924" data-name="Grupo 45924" transform="translate(32.96 139.401)">
            <path id="Trazado_71638" data-name="Trazado 71638" d="M601.011,423.126a.253.253,0,0,1-.066-.009.25.25,0,0,1-.175-.307c1.242-4.536,3.481-7.513,6.655-8.85,5.526-2.327,11.837,1.114,12.1,1.261a.25.25,0,1,1-.242.437c-.063-.035-6.37-3.471-11.67-1.236-3.024,1.274-5.165,4.141-6.364,8.52A.25.25,0,0,1,601.011,423.126Z" transform="translate(-600.761 -413.155)" fill="#ffd68d"/>
          </g>
        </g>
        <g id="Grupo_45927" data-name="Grupo 45927" transform="translate(0 51.566)">
          <rect id="Rectángulo_12689" data-name="Rectángulo 12689" width="3.394" height="84.479" transform="translate(80.963 13.766) rotate(47.622)" fill="#092823"/>
          <rect id="Rectángulo_12690" data-name="Rectángulo 12690" width="3.394" height="84.479" transform="translate(19.14 73.566)" fill="#092823"/>
          <circle id="Elipse_754" data-name="Elipse 754" cx="7.49" cy="7.49" r="7.49" transform="translate(13.44 76.657) rotate(-76.804)" fill="#092823"/>
          <path id="Trazado_71639" data-name="Trazado 71639" d="M43.128,455.75H61.062a12.092,12.092,0,0,1,12.092,12.092H31.036A12.092,12.092,0,0,1,43.128,455.75Z" transform="translate(-31.036 -298.124)" fill="#1a4943"/>
          <circle id="Elipse_755" data-name="Elipse 755" cx="9.678" cy="9.678" r="9.678" transform="translate(77.3)" fill="#1a4943"/>
          <path id="Trazado_71640" data-name="Trazado 71640" d="M193.2,156.311h0a21.406,21.406,0,0,1,28.961,8.814l6.408,12.015-37.775,20.146-6.408-12.014A21.406,21.406,0,0,1,193.2,156.311Z" transform="translate(-106.511 -147.022)" fill="#1a4943"/>
          <g id="Grupo_45926" data-name="Grupo 45926" transform="translate(79.136 6.491)">
            <path id="Trazado_71641" data-name="Trazado 71641" d="M189.685,162.67a.249.249,0,0,1-.21-.385,19.078,19.078,0,0,1,17.064-9.012.25.25,0,0,1-.054.5,18.57,18.57,0,0,0-16.59,8.787A.248.248,0,0,1,189.685,162.67Z" transform="translate(-189.434 -153.237)" fill="#092823"/>
          </g>
          <path id="Trazado_71642" data-name="Trazado 71642" d="M250.242,194.109c-1.105-1.108-2.78-.592-4.042-.1a16.269,16.269,0,0,0-7.336,5.727.406.406,0,0,0,.281.642,1.392,1.392,0,0,0,.119.9c.7,1.439,2.491,1.132,3.739.78a12.335,12.335,0,0,0,6.666-4.172C250.436,196.857,251.356,195.226,250.242,194.109Z" transform="translate(-134.991 -166.868)" fill="#315b55"/>
          <path id="Trazado_71643" data-name="Trazado 71643" d="M250.028,174.844a3.881,3.881,0,0,0-5.639.159,4.237,4.237,0,0,0-.835,1.949c-.159.846-.246,1.712-.325,2.568q-.061.662-.1,1.327a4.388,4.388,0,0,0,.018,1.219,1.2,1.2,0,0,0,.909.927,2.5,2.5,0,0,0,2.225.285,7.348,7.348,0,0,0,1.8-1,11.909,11.909,0,0,0,1.573-1.228,4.549,4.549,0,0,0,1.484-3.158A4.321,4.321,0,0,0,250.028,174.844Z" transform="translate(-137.151 -156.989)" fill="#315b55"/>
        </g>
      </g>
      <g id="Grupo_45948" data-name="Grupo 45948" transform="translate(76.592 97.495)">
        <g id="Grupo_45929" data-name="Grupo 45929" transform="translate(14.812 71.123)">
          <path id="Trazado_71644" data-name="Trazado 71644" d="M243.151,374.535H217.995a4,4,0,0,0-4,4h33.163A4,4,0,0,0,243.151,374.535Z" transform="translate(-213.991 -374.535)" fill="#315b55"/>
          <path id="Trazado_71645" data-name="Trazado 71645" d="M231.254,431.019l7.091-30.6v-17.87h1.731v17.5l7.017,30.971h-1.877l-5.14-25.887v25.887h-1.731V405.526l-4.994,25.492Z" transform="translate(-222.63 -378.545)" fill="#0e0108"/>
        </g>
        <g id="Grupo_45930" data-name="Grupo 45930" transform="translate(34.159 35.048)">
          <path id="Trazado_71646" data-name="Trazado 71646" d="M279.725,322.727l6.626-20.4H309.2l-3.541,20.4Z" transform="translate(-266.231 -302.327)" fill="#092823"/>
          <path id="Trazado_71647" data-name="Trazado 71647" d="M266.21,341.105l-13.494-.313,14.16-1.738Z" transform="translate(-252.716 -320.706)" fill="#092823"/>
        </g>
        <g id="Grupo_45946" data-name="Grupo 45946" transform="translate(3.74)">
          <g id="Grupo_45931" data-name="Grupo 45931" transform="translate(53.176 102.916)">
            <path id="Trazado_71648" data-name="Trazado 71648" d="M334.77,438.172l3.645,6.681,8.177-.633-8.333,4.774-1.948-.9.824,1.51-.934.51-5.35-9.807Z" transform="translate(-314.571 -438.172)" fill="#315b55"/>
            <path id="Trazado_71649" data-name="Trazado 71649" d="M302.731,455.4v7.611l7.481,3.361-9.6.2-1.28-1.72v1.72h-1.065V455.4Z" transform="translate(-298.266 -446.794)" fill="#315b55"/>
          </g>
          <g id="Grupo_45932" data-name="Grupo 45932" transform="translate(10.717 58.954)">
            <path id="Trazado_71650" data-name="Trazado 71650" d="M213.316,350.178s-.991,12.679,7.664,12.679,24.049.661,24.049.661l9.514,43.086h6.342s-2.048-54.06-4.1-55.243S213.316,350.178,213.316,350.178Z" transform="translate(-213.281 -350.178)" fill="#1a4943"/>
            <path id="Trazado_71651" data-name="Trazado 71651" d="M302.08,359.2l21.693,39.785-7.32,4.341L303.981,382.9Z" transform="translate(-257.716 -354.691)" fill="#092823"/>
          </g>
          <g id="Grupo_45943" data-name="Grupo 45943" transform="translate(15.47)">
            <g id="Grupo_45933" data-name="Grupo 45933" transform="translate(3.757 16.767)">
              <path id="Trazado_71652" data-name="Trazado 71652" d="M233.471,278.427h0a3.165,3.165,0,0,1-3.155-3.155V268.89a3.165,3.165,0,0,1,3.155-3.155h0a3.165,3.165,0,0,1,3.155,3.155v6.381A3.165,3.165,0,0,1,233.471,278.427Z" transform="translate(-230.316 -265.735)" fill="#f9cdb7"/>
              <path id="Trazado_71653" data-name="Trazado 71653" d="M233.741,265.735H233.2a2.9,2.9,0,0,0-2.887,2.887v2.262c2,1.7,4.8,2.69,6.31,2.549v-4.812A2.9,2.9,0,0,0,233.741,265.735Z" transform="translate(-230.316 -265.735)" fill="#e5a78c"/>
            </g>
            <path id="Trazado_71654" data-name="Trazado 71654" d="M239.742,251.838a6.536,6.536,0,0,0-.357-2.1c-.007-.028-.012-.049-.015-.059h-.007a6.555,6.555,0,0,0-12.693,1.4s0,.006,0,.009c-.389,1.392.618,4.607,1.236,6.36a4.535,4.535,0,0,0,1.431,2.023c2.227,1.8,7.585,4.7,9.488,2C240.535,259.048,240.15,254.8,239.742,251.838Z" transform="translate(-224.688 -238.74)" fill="#f9cdb7"/>
            <g id="Grupo_45934" data-name="Grupo 45934" transform="translate(11.073 18.078)">
              <path id="Trazado_71655" data-name="Trazado 71655" d="M246.06,268.951a1.917,1.917,0,0,1-1.034-.331.141.141,0,1,1,.151-.239,1.319,1.319,0,0,0,1.657.017.141.141,0,0,1,.2.2A1.493,1.493,0,0,1,246.06,268.951Z" transform="translate(-244.96 -268.359)" fill="#0e0108"/>
            </g>
            <g id="Grupo_45935" data-name="Grupo 45935" transform="translate(6.047 14.068)">
              <path id="Trazado_71656" data-name="Trazado 71656" d="M235.069,261.382a.169.169,0,0,1-.137-.268c.957-1.34,2.765-.548,2.783-.539a.169.169,0,1,1-.139.309c-.063-.028-1.573-.686-2.368.427A.169.169,0,0,1,235.069,261.382Z" transform="translate(-234.9 -260.335)" fill="#0e0108"/>
            </g>
            <path id="Trazado_71657" data-name="Trazado 71657" d="M251.767,260.685c-.013-.114-.025-.227-.039-.339a3.265,3.265,0,0,0-1.346.233.17.17,0,1,0,.139.309A2.806,2.806,0,0,1,251.767,260.685Z" transform="translate(-236.55 -246.269)" fill="#0e0108"/>
            <g id="Grupo_45939" data-name="Grupo 45939" transform="translate(6.048 15.791)">
              <g id="Grupo_45936" data-name="Grupo 45936" transform="translate(0.169 0.178)">
                <path id="Trazado_71658" data-name="Trazado 71658" d="M239.55,265.3a3.252,3.252,0,0,0-4.311-.611A3.555,3.555,0,0,0,239.55,265.3Z" transform="translate(-235.239 -264.139)" fill="#fff"/>
              </g>
              <g id="Grupo_45937" data-name="Grupo 45937" transform="translate(1.226 0.179)">
                <path id="Trazado_71659" data-name="Trazado 71659" d="M239.409,264.937a1.02,1.02,0,0,0-.213-.62,3.029,3.029,0,0,0-1.5-.139,1.02,1.02,0,0,0-.168,1.326,3.458,3.458,0,0,0,1.518.214A1.021,1.021,0,0,0,239.409,264.937Z" transform="translate(-237.353 -264.14)" fill="#0e0108"/>
              </g>
              <g id="Grupo_45938" data-name="Grupo 45938">
                <path id="Trazado_71660" data-name="Trazado 71660" d="M239.38,265.288a.17.17,0,0,1-.133-.064,3.067,3.067,0,0,0-4.091-.571.169.169,0,1,1-.173-.291,3.449,3.449,0,0,1,4.53.651.169.169,0,0,1-.028.238A.166.166,0,0,1,239.38,265.288Z" transform="translate(-234.9 -263.782)" fill="#0e0108"/>
              </g>
            </g>
            <path id="Trazado_71661" data-name="Trazado 71661" d="M251.272,265.565c0-.519-.019-1.038-.052-1.55a3.519,3.519,0,0,0-2.3,1A3.335,3.335,0,0,0,251.272,265.565Z" transform="translate(-235.87 -248.108)" fill="#fff"/>
            <path id="Trazado_71662" data-name="Trazado 71662" d="M252.284,264.023a3.04,3.04,0,0,0-1.04.205,1.021,1.021,0,0,0,.118,1.331,3.388,3.388,0,0,0,.974,0C252.336,265.046,252.316,264.531,252.284,264.023Z" transform="translate(-236.934 -248.112)" fill="#0e0108"/>
            <path id="Trazado_71663" data-name="Trazado 71663" d="M251.038,263.675a3.517,3.517,0,0,0-2.4,1.051.169.169,0,0,0,.231.247,3.22,3.22,0,0,1,2.19-.97C251.054,263.893,251.046,263.784,251.038,263.675Z" transform="translate(-235.701 -247.938)" fill="#0e0108"/>
            <g id="Grupo_45940" data-name="Grupo 45940" transform="translate(8.99 20.344)">
              <path id="Trazado_71664" data-name="Trazado 71664" d="M243.22,273.99a4.168,4.168,0,0,1-2.378-.867.125.125,0,0,1,.143-.205c2.477,1.728,3.831.238,3.887.174a.125.125,0,0,1,.188.164A2.566,2.566,0,0,1,243.22,273.99Z" transform="translate(-240.789 -272.896)" fill="#0e0108"/>
            </g>
            <path id="Trazado_71665" data-name="Trazado 71665" d="M236.819,249.361a3.326,3.326,0,0,1,2.923,2.477,6.535,6.535,0,0,0-.357-2.1c-.006-.028-.012-.049-.015-.059h-.007a6.555,6.555,0,0,0-12.693,1.4s0,.006,0,.009a7.966,7.966,0,0,0,.337,3.44l1.443,0a8.867,8.867,0,0,1,7.457-5.238l-2.569-3.05S235.9,249.293,236.819,249.361Z" transform="translate(-224.689 -238.74)" fill="#092823"/>
            <g id="Grupo_45942" data-name="Grupo 45942" transform="translate(0 14.67)">
              <path id="Trazado_71666" data-name="Trazado 71666" d="M222.8,264.076a2.537,2.537,0,1,1,2.537,2.537A2.537,2.537,0,0,1,222.8,264.076Z" transform="translate(-222.795 -261.539)" fill="#f9cdb7"/>
              <g id="Grupo_45941" data-name="Grupo 45941" transform="translate(0.553 0.965)">
                <path id="Trazado_71667" data-name="Trazado 71667" d="M227.043,265.427a.141.141,0,0,1-.131-.089,2.492,2.492,0,0,0-2.84-1.522.142.142,0,1,1-.058-.277,2.815,2.815,0,0,1,3.161,1.7.141.141,0,0,1-.079.183A.137.137,0,0,1,227.043,265.427Z" transform="translate(-223.901 -263.47)" fill="#0e0108"/>
              </g>
            </g>
            <path id="Trazado_71668" data-name="Trazado 71668" d="M230.316,284.823" transform="translate(-226.559 -258.52)" fill="#092823"/>
            <circle id="Elipse_756" data-name="Elipse 756" cx="3.774" cy="3.774" r="3.774" transform="translate(2.949)" fill="#092823"/>
          </g>
          <g id="Grupo_45945" data-name="Grupo 45945" transform="translate(0 23.718)">
            <path id="Trazado_71669" data-name="Trazado 71669" d="M206.694,282.928a6.625,6.625,0,0,1,3.094-.662l-.323-2.617,9.886,1.561-.962,2.29a13.64,13.64,0,0,1,2.381.868c2.749,1.439,7.2,27.011,7.2,27.011l-5.726-.313s-27.785,3.074-30.173-3.5S205.43,283.7,206.694,282.928Z" transform="translate(-191.829 -279.649)" fill="#e0733d"/>
            <path id="Trazado_71670" data-name="Trazado 71670" d="M261.4,340.714h0a2.232,2.232,0,0,0-1.787-2.189,28.613,28.613,0,0,0-6.149-.25l-.745,2.1Z" transform="translate(-222.297 -308.954)" fill="#f9cdb7"/>
            <g id="Grupo_45944" data-name="Grupo 45944" transform="translate(11.361 12.328)">
              <path id="Trazado_71671" data-name="Trazado 71671" d="M233.628,323.538a.13.13,0,0,1-.047-.009.125.125,0,0,1-.069-.162l1.017-2.526-19.867-5.474a.125.125,0,0,1-.081-.069.126.126,0,0,1,0-.107l5.444-10.8a.125.125,0,0,1,.223.112l-5.375,10.661,19.855,5.471a.125.125,0,0,1,.082.167l-1.07,2.656A.124.124,0,0,1,233.628,323.538Z" transform="translate(-214.57 -304.325)" fill="#092823"/>
            </g>
          </g>
        </g>
        <g id="Grupo_45947" data-name="Grupo 45947" transform="translate(0 55.447)">
          <rect id="Rectángulo_12691" data-name="Rectángulo 12691" width="89.711" height="3.88" transform="translate(89.711 3.88) rotate(180)" fill="#ffebc9"/>
          <path id="Trazado_71672" data-name="Trazado 71672" d="M355.488,350.926l-1.558,64.268h-1.473l-1.868-64.268Z" transform="translate(-267.533 -347.045)" fill="#ffebc9"/>
          <path id="Trazado_71673" data-name="Trazado 71673" d="M192.318,350.926l-1.558,64.268h-1.473l-1.868-64.268Z" transform="translate(-185.883 -347.045)" fill="#ffebc9"/>
        </g>
      </g>
    </g>
    <g id="Grupo_45950" data-name="Grupo 45950" transform="translate(17.713 257.762)">
      <path id="Trazado_71674" data-name="Trazado 71674" d="M374.463,479.35H17.963a.25.25,0,0,1,0-.5h356.5a.25.25,0,0,1,0,.5Z" transform="translate(-17.713 -478.85)" fill="#092823"/>
    </g>
  </g>
</svg>
