<svg xmlns="http://www.w3.org/2000/svg" width="106" height="106" viewBox="0 0 106 106">
  <g id="Grupo_45970" data-name="Grupo 45970" transform="translate(3343 -3499)">
    <rect id="Rectángulo_12720" data-name="Rectángulo 12720" width="106" height="106" transform="translate(-3343 3499)" fill="none"/>
    <g id="Layer_34" data-name="Layer 34" transform="translate(-3333.29 3509)">
      <g id="tag" transform="translate(3.29 2)">
        <path id="Trazado_71225" data-name="Trazado 71225" d="M48.869,17V46.869a2.724,2.724,0,0,1-2.715,2.715H21.715A2.724,2.724,0,0,1,19,46.869V17Z" transform="translate(2.329 3.365)" fill="#57a4ff"/>
        <path id="Trazado_71226" data-name="Trazado 71226" d="M48.869,5.715V22.008H19V5.715A2.724,2.724,0,0,1,21.715,3H46.154a2.724,2.724,0,0,1,2.715,2.715Z" transform="translate(2.329 -1.642)" fill="#00b6bd"/>
        <path id="Trazado_71227" data-name="Trazado 71227" d="M43.146,17V46.869a2.724,2.724,0,0,1-2.715,2.715H35a2.724,2.724,0,0,0,2.715-2.715V17Z" transform="translate(8.052 3.365)" fill="#2488ff"/>
        <path id="Trazado_71228" data-name="Trazado 71228" d="M43.146,5.715V22.008H37.715V5.715A2.724,2.724,0,0,0,35,3h5.431a2.724,2.724,0,0,1,2.715,2.715Z" transform="translate(8.052 -1.642)" fill="#009698"/>
        <circle id="Elipse_731" data-name="Elipse 731" cx="2.5" cy="2.5" r="2.5" transform="translate(33.71 7)" fill="#e0e0e2"/>
        <path id="Trazado_71229" data-name="Trazado 71229" d="M73.858,49.362V72.877A1.358,1.358,0,0,1,72.5,74.234H48.062A10.862,10.862,0,0,1,37.2,63.373V60.658L26.638,48.275a5.006,5.006,0,0,1-.9-1.195,5.431,5.431,0,0,1,8.581-6.49l6.666,6.49h3A2.724,2.724,0,0,0,46.7,44.365V24L66.147,35.513a16.306,16.306,0,0,1,7.712,13.848Z" transform="translate(4.494 5.869)" fill="#ffdaaa"/>
        <path id="Trazado_71230" data-name="Trazado 71230" d="M68.154,49.362V72.877A1.358,1.358,0,0,1,66.8,74.234H61.365a1.358,1.358,0,0,0,1.358-1.358V49.362a16.306,16.306,0,0,0-7.712-13.848L41,27.218V24L60.442,35.513a16.306,16.306,0,0,1,7.712,13.848Z" transform="translate(10.198 5.869)" fill="#ffc477"/>
        <path id="Trazado_71231" data-name="Trazado 71231" d="M52.22,33.631l-1.43,2.308a14.84,14.84,0,0,1,7.074,12.7h2.715A17.541,17.541,0,0,0,52.22,33.631Z" transform="translate(13.7 9.314)"/>
        <path id="Trazado_71232" data-name="Trazado 71232" d="M74.623,42.215,55.846,31.1V16.134l3.91-3.9a4.073,4.073,0,0,1,5.757,0l8.377,8.377,1.928-1.928-8.377-8.377a6.81,6.81,0,0,0-9.612,0l-1.982,2V6.073A4.085,4.085,0,0,0,51.773,2H27.335a4.085,4.085,0,0,0-4.073,4.073V12.3l-1.982-2a6.818,6.818,0,0,0-9.612,0L3.29,18.686l1.928,1.928,8.377-8.377a4.149,4.149,0,0,1,5.757,0l3.91,3.9v36.1a4.085,4.085,0,0,0,4.073,4.073h5.471a5.881,5.881,0,0,0,.584.72l10.237,12v2.213A12.238,12.238,0,0,0,55.846,83.461H80.285A2.724,2.724,0,0,0,83,80.746V57.231a17.556,17.556,0,0,0-8.377-15.016ZM25.977,18.184A6.788,6.788,0,0,0,33.5,16.772l2.81-2.824a4.073,4.073,0,1,0-.76-3.068l-3.978,3.964a4.149,4.149,0,0,1-5.594.136V6.073a1.358,1.358,0,0,1,1.358-1.358H51.773a1.358,1.358,0,0,1,1.358,1.358V21.008H25.977ZM38.2,11.5a1.358,1.358,0,1,1,1.358,1.358A1.358,1.358,0,0,1,38.2,11.5ZM31.584,53.592h-4.25a1.358,1.358,0,0,1-1.358-1.358V23.723H53.131V52.234a1.358,1.358,0,0,1-1.358,1.358H49.316L43.07,47.5a6.8,6.8,0,0,0-11.486,6.1Zm48.7,27.154H55.846a9.515,9.515,0,0,1-9.5-9.5V68.527a1.316,1.316,0,0,0-.326-.883L35.386,55.181a4.073,4.073,0,0,1,0-5.757,4.165,4.165,0,0,1,5.77.014L58.969,66.789l1.9-1.955-8.8-8.553a4.073,4.073,0,0,0,3.774-4.046V34.245L73.211,44.536a14.854,14.854,0,0,1,7.074,12.694Z" transform="translate(-3.29 -2)"/>
        <path id="Trazado_71233" data-name="Trazado 71233" d="M22,20h2.715v2.715H22Z" transform="translate(3.402 4.438)"/>
        <path id="Trazado_71234" data-name="Trazado 71234" d="M26,20H42.292v2.715H26Z" transform="translate(4.833 4.438)"/>
        <path id="Trazado_71235" data-name="Trazado 71235" d="M22,24H35.577v2.715H22Z" transform="translate(3.402 5.869)"/>
        <path id="Trazado_71236" data-name="Trazado 71236" d="M34,24h5.431v2.715H34Z" transform="translate(7.695 5.869)"/>
        <path id="Trazado_71237" data-name="Trazado 71237" d="M22,28h5.431v2.715H22Z" transform="translate(3.402 7.3)"/>
        <path id="Trazado_71238" data-name="Trazado 71238" d="M28,28H41.577v2.715H28Z" transform="translate(5.548 7.3)"/>
      </g>
    </g>
  </g>
</svg>
