<svg xmlns="http://www.w3.org/2000/svg" width="106" height="106" viewBox="0 0 106 106">
  <g id="Grupo_45961" data-name="Grupo 45961" transform="translate(3059 -3899)">
    <rect id="Rectángulo_12731" data-name="Rectángulo 12731" width="106" height="106" transform="translate(-3059 3899)" fill="none"/>
    <g id="etiqueta_2_" data-name="etiqueta (2)" transform="translate(-3037.814 3918.406)">
      <g id="Grupo_45761" data-name="Grupo 45761" transform="translate(0.985 2.662)">
        <path id="Trazado_71283" data-name="Trazado 71283" d="M210.011,13.936l12.983-4.228a9.327,9.327,0,0,1,11.759,5.982l11.308,34.718a9.328,9.328,0,0,1-5.982,11.759l-14.131,4.6Z" transform="translate(-184.816 -9.246)" fill="#8ac9fe"/>
        <path id="Trazado_71284" data-name="Trazado 71284" d="M41.929,46.865H16.221A8.322,8.322,0,0,0,7.9,55.186V95.361a8.322,8.322,0,0,0,8.321,8.321H41.929a8.317,8.317,0,0,0,7.1-3.982h0a8.285,8.285,0,0,0,1.219-4.338V55.186a8.321,8.321,0,0,0-8.321-8.321ZM29.076,60.842a4.158,4.158,0,1,1,4.157-4.157,4.157,4.157,0,0,1-4.157,4.157Z" transform="translate(-7.9 -42.176)" fill="#f9f3f1"/>
        <path id="Trazado_71285" data-name="Trazado 71285" d="M11.64,95.361V55.186a8.322,8.322,0,0,1,8.321-8.321h-3.74A8.322,8.322,0,0,0,7.9,55.186V95.361a8.322,8.322,0,0,0,8.321,8.321h3.74A8.322,8.322,0,0,1,11.64,95.361Z" transform="translate(-7.9 -42.176)" fill="#e1d3ce"/>
      </g>
      <g id="Grupo_45762" data-name="Grupo 45762" transform="translate(0 1.724)">
        <path id="Trazado_71286" data-name="Trazado 71286" d="M63.118,43.535,51.811,8.816A10.262,10.262,0,0,0,38.873,2.234l-12.287,4H9.256A9.266,9.266,0,0,0,0,15.492v4.772a.935.935,0,1,0,1.87,0V15.492A7.394,7.394,0,0,1,9.256,8.106H34.964a7.394,7.394,0,0,1,7.386,7.386V50.431a.935.935,0,0,0,1.87,0V46.158l9.63-3.4a.935.935,0,0,0-.623-1.763L44.22,44.175V36.263L51.753,33.6a.935.935,0,0,0-.623-1.763L44.22,34.28V26.614l6.136-2.168a.935.935,0,0,0-.623-1.763L44.22,24.631V15.492a9.266,9.266,0,0,0-9.256-9.256h-2.34l6.828-2.224A8.393,8.393,0,0,1,50.033,9.4L61.34,44.114a8.394,8.394,0,0,1-5.383,10.581L43.712,58.683a9.212,9.212,0,0,0,.507-3.017v-1a.935.935,0,1,0-1.87,0v1a7.394,7.394,0,0,1-7.386,7.386H9.256A7.394,7.394,0,0,1,1.87,55.667V24.5A.935.935,0,0,0,0,24.5V55.667a9.266,9.266,0,0,0,9.256,9.256H34.964a9.248,9.248,0,0,0,7.523-3.873l14.049-4.577a10.263,10.263,0,0,0,6.582-12.938Z" transform="translate(0 -1.724)"/>
        <path id="Trazado_71287" data-name="Trazado 71287" d="M142.005,84.775a5.093,5.093,0,1,0,5.093,5.093A5.1,5.1,0,0,0,142.005,84.775Zm0,8.316a3.223,3.223,0,1,1,3.223-3.223A3.227,3.227,0,0,1,142.005,93.091Z" transform="translate(-119.845 -74.422)"/>
        <path id="Trazado_71288" data-name="Trazado 71288" d="M142.744,217.687a.935.935,0,0,0-1.294.27l-8.994,13.735a.935.935,0,1,0,1.564,1.024l8.994-13.735A.935.935,0,0,0,142.744,217.687Z" transform="translate(-115.81 -190.632)"/>
        <path id="Trazado_71289" data-name="Trazado 71289" d="M112.543,208.163a3.305,3.305,0,1,0,3.305-3.305A3.309,3.309,0,0,0,112.543,208.163Zm3.305-1.436a1.436,1.436,0,1,1-1.436,1.436A1.437,1.437,0,0,1,115.848,206.728Z" transform="translate(-98.514 -179.536)"/>
        <path id="Trazado_71290" data-name="Trazado 71290" d="M189.96,305.389a3.305,3.305,0,1,0,3.305-3.305A3.309,3.309,0,0,0,189.96,305.389Zm4.741,0a1.436,1.436,0,1,1-1.436-1.436A1.437,1.437,0,0,1,194.7,305.389Z" transform="translate(-166.28 -264.642)"/>
        <path id="Trazado_71291" data-name="Trazado 71291" d="M63.751,399.093a.935.935,0,0,0,.935.935H91.242a.935.935,0,0,0,0-1.87H64.686A.935.935,0,0,0,63.751,399.093Z" transform="translate(-55.804 -348.739)"/>
        <path id="Trazado_71292" data-name="Trazado 71292" d="M64.686,440.315H91.242a.935.935,0,0,0,0-1.87H64.686a.935.935,0,0,0,0,1.87Z" transform="translate(-55.804 -384.004)"/>
      </g>
    </g>
  </g>
</svg>
