<svg xmlns="http://www.w3.org/2000/svg" width="106" height="106" viewBox="0 0 106 106">
  <g id="Grupo_45959" data-name="Grupo 45959" transform="translate(3099 -2935)">
    <rect id="Rectángulo_12709" data-name="Rectángulo 12709" width="106" height="106" transform="translate(-3099 2935)" fill="none"/>
    <g id="patron-de-tela_1_" data-name="patron-de-tela (1)" transform="translate(-3100.994 2933.005)">
      <g id="Grupo_45738" data-name="Grupo 45738" transform="translate(17.312 17.312)">
        <path id="Trazado_70918" data-name="Trazado 70918" d="M47.7,24,31.9,29.267S38.483,50.333,24,59.549c1.523,7.829,3.95,15.359,3.95,22.383,0,6.583-.656,12.917-2.633,18.433H60.866v-63.2S51.65,33.217,47.7,24Z" transform="translate(-24 -24)" fill="#c3f5d7"/>
        <path id="Trazado_70919" data-name="Trazado 70919" d="M314.233,42.533l-5.267,38.183h-23.7L280,42.533a58.354,58.354,0,0,0,7.9-6.583,12.728,12.728,0,0,1,18.433,0,58.356,58.356,0,0,0,7.9,6.583Z" transform="translate(-237.867 -30.683)" fill="#dcc3f5"/>
        <path id="Trazado_70920" data-name="Trazado 70920" d="M296,384h31.6v15.8H296Z" transform="translate(-251.234 -324.751)" fill="#c3f3f5"/>
      </g>
      <path id="Trazado_70921" data-name="Trazado 70921" d="M55.495,93.678v-63.2a1.317,1.317,0,0,0-.8-1.21c-.087-.037-8.775-3.842-12.475-12.475a1.317,1.317,0,0,0-1.627-.731L24.8,21.329a1.317,1.317,0,0,0-.84,1.642,38.977,38.977,0,0,1,1.422,11.26c-.206,8.053-3.158,13.948-8.772,17.521a1.317,1.317,0,0,0-.586,1.362c.456,2.343.994,4.67,1.515,6.921,1.24,5.357,2.411,10.417,2.411,15.21,0,7.307-.836,13.191-2.556,17.989a1.317,1.317,0,0,0,1.239,1.761H54.178A1.317,1.317,0,0,0,55.495,93.678ZM52.861,75.243H50.228a1.317,1.317,0,1,0,0,2.633h2.633V92.361H39.695V89.728a1.317,1.317,0,1,0-2.633,0v2.633H20.449a59.316,59.316,0,0,0,2.13-17.116c0-5.093-1.2-10.3-2.478-15.8-.451-1.951-.916-3.961-1.325-5.972C24.6,49.4,27.792,42.794,28.01,34.3a42.175,42.175,0,0,0-1.2-10.863l13.5-4.5A28.887,28.887,0,0,0,52.861,31.311Z" transform="translate(0 0)"/>
      <path id="Trazado_70922" data-name="Trazado 70922" d="M308.28,34.754a57.386,57.386,0,0,1-7.7-6.419,14.043,14.043,0,0,0-20.3,0,57.62,57.62,0,0,1-7.7,6.419,1.317,1.317,0,0,0-.574,1.275l5.267,38.183a1.317,1.317,0,0,0,1.3,1.137h23.7a1.317,1.317,0,0,0,1.3-1.137l5.267-38.183a1.317,1.317,0,0,0-.574-1.275Zm-7.144,37.962h-21.4l-5-36.246a60.762,60.762,0,0,0,7.416-6.273,11.411,11.411,0,0,1,16.57,0,60.764,60.764,0,0,0,7.415,6.273Z" transform="translate(-213.872 -6.688)"/>
      <path id="Trazado_70923" data-name="Trazado 70923" d="M145.317,61.267a1.317,1.317,0,0,0,1.317-1.317V57.317a1.317,1.317,0,0,0-2.633,0V59.95A1.317,1.317,0,0,0,145.317,61.267Z" transform="translate(-106.938 -33.421)"/>
      <path id="Trazado_70924" data-name="Trazado 70924" d="M377.317,61.267a1.317,1.317,0,0,0,1.317-1.317V57.317a1.317,1.317,0,1,0-2.633,0V59.95A1.317,1.317,0,0,0,377.317,61.267Z" transform="translate(-300.756 -33.421)"/>
      <path id="Trazado_70925" data-name="Trazado 70925" d="M377.317,128A1.317,1.317,0,0,0,376,129.317v2.633a1.317,1.317,0,1,0,2.633,0v-2.633A1.317,1.317,0,0,0,377.317,128Z" transform="translate(-300.756 -93.571)"/>
      <path id="Trazado_70926" data-name="Trazado 70926" d="M377.317,176A1.317,1.317,0,0,0,376,177.317v2.633a1.317,1.317,0,0,0,2.633,0v-2.633A1.317,1.317,0,0,0,377.317,176Z" transform="translate(-300.756 -133.671)"/>
      <path id="Trazado_70927" data-name="Trazado 70927" d="M377.317,224A1.317,1.317,0,0,0,376,225.317v2.633a1.317,1.317,0,1,0,2.633,0v-2.633A1.317,1.317,0,0,0,377.317,224Z" transform="translate(-300.756 -173.771)"/>
      <path id="Trazado_70928" data-name="Trazado 70928" d="M377.317,272A1.317,1.317,0,0,0,376,273.317v2.633a1.317,1.317,0,1,0,2.633,0v-2.633A1.317,1.317,0,0,0,377.317,272Z" transform="translate(-300.756 -213.871)"/>
      <path id="Trazado_70929" data-name="Trazado 70929" d="M53.267,249.317A1.317,1.317,0,0,0,51.95,248H49.317a1.317,1.317,0,1,0,0,2.633H51.95A1.317,1.317,0,0,0,53.267,249.317Z" transform="translate(-26.738 -193.821)"/>
      <path id="Trazado_70930" data-name="Trazado 70930" d="M355.95,424h-2.633a1.317,1.317,0,0,0,0,2.633h2.633a1.317,1.317,0,1,0,0-2.633Z" transform="translate(-280.706 -340.855)"/>
      <path id="Trazado_70931" data-name="Trazado 70931" d="M401.317,426.633h2.633a1.317,1.317,0,0,0,0-2.633h-2.633a1.317,1.317,0,0,0,0,2.633Z" transform="translate(-320.806 -340.855)"/>
      <path id="Trazado_70932" data-name="Trazado 70932" d="M322.233,377.317A1.317,1.317,0,0,0,320.916,376h-31.6A1.317,1.317,0,0,0,288,377.317v15.8a1.317,1.317,0,0,0,1.317,1.317h31.6a1.317,1.317,0,0,0,1.317-1.317ZM319.6,383.9h-3.95a1.317,1.317,0,0,0,0,2.633h3.95V391.8H306.433v-2.633a1.317,1.317,0,0,0-2.633,0V391.8H290.633v-5.267h3.95a1.317,1.317,0,0,0,0-2.633h-3.95v-5.267H303.8v1.317a1.317,1.317,0,1,0,2.633,0v-1.317H319.6Z" transform="translate(-227.239 -300.755)"/>
      <path id="Trazado_70933" data-name="Trazado 70933" d="M306.633,96h-1.317a1.317,1.317,0,1,0,0,2.633h1.317a1.317,1.317,0,1,0,0-2.633Z" transform="translate(-240.605 -66.838)"/>
      <path id="Trazado_70934" data-name="Trazado 70934" d="M347.95,96h-2.633a1.317,1.317,0,1,0,0,2.633h2.633a1.317,1.317,0,0,0,0-2.633Z" transform="translate(-274.022 -66.838)"/>
      <path id="Trazado_70935" data-name="Trazado 70935" d="M395.95,96h-2.633a1.317,1.317,0,1,0,0,2.633h2.633a1.317,1.317,0,1,0,0-2.633Z" transform="translate(-314.122 -66.838)"/>
      <path id="Trazado_70936" data-name="Trazado 70936" d="M441.317,98.633h1.317a1.317,1.317,0,1,0,0-2.633h-1.317a1.317,1.317,0,1,0,0,2.633Z" transform="translate(-354.222 -66.838)"/>
      <path id="Trazado_70937" data-name="Trazado 70937" d="M75.95,376.007H73.317a1.317,1.317,0,0,0,0,2.633H75.95a1.317,1.317,0,0,0,0-2.633Z" transform="translate(-46.788 -300.761)"/>
      <path id="Trazado_70938" data-name="Trazado 70938" d="M125.267,377.317A1.317,1.317,0,0,0,123.95,376h-2.633a1.317,1.317,0,1,0,0,2.633h2.633A1.317,1.317,0,0,0,125.267,377.317Z" transform="translate(-86.888 -300.755)"/>
      <path id="Trazado_70939" data-name="Trazado 70939" d="M171.95,375.993h-2.633a1.317,1.317,0,1,0,0,2.633h2.633a1.317,1.317,0,0,0,0-2.633Z" transform="translate(-126.988 -300.749)"/>
      <path id="Trazado_70940" data-name="Trazado 70940" d="M97.317,250.633H99.95a1.317,1.317,0,1,0,0-2.633H97.317a1.317,1.317,0,1,0,0,2.633Z" transform="translate(-66.838 -193.821)"/>
      <path id="Trazado_70941" data-name="Trazado 70941" d="M145.317,250.633h2.633a1.317,1.317,0,1,0,0-2.633h-2.633a1.317,1.317,0,1,0,0,2.633Z" transform="translate(-106.938 -193.821)"/>
      <path id="Trazado_70942" data-name="Trazado 70942" d="M193.317,250.633h2.633a1.317,1.317,0,1,0,0-2.633h-2.633a1.317,1.317,0,1,0,0,2.633Z" transform="translate(-147.038 -193.821)"/>
      <path id="Trazado_70943" data-name="Trazado 70943" d="M145.317,109.267a1.317,1.317,0,0,0,1.317-1.317v-2.633a1.317,1.317,0,0,0-2.633,0v2.633A1.317,1.317,0,0,0,145.317,109.267Z" transform="translate(-106.938 -73.521)"/>
      <path id="Trazado_70944" data-name="Trazado 70944" d="M145.317,157.267a1.317,1.317,0,0,0,1.317-1.317v-2.633a1.317,1.317,0,0,0-2.633,0v2.633A1.317,1.317,0,0,0,145.317,157.267Z" transform="translate(-106.938 -113.621)"/>
      <path id="Trazado_70945" data-name="Trazado 70945" d="M145.317,205.267a1.317,1.317,0,0,0,1.317-1.317v-2.633a1.317,1.317,0,0,0-2.633,0v2.633A1.317,1.317,0,0,0,145.317,205.267Z" transform="translate(-106.938 -153.721)"/>
      <path id="Trazado_70946" data-name="Trazado 70946" d="M145.317,280A1.317,1.317,0,0,0,144,281.317v2.633a1.317,1.317,0,0,0,2.633,0v-2.633A1.317,1.317,0,0,0,145.317,280Z" transform="translate(-106.938 -220.555)"/>
      <path id="Trazado_70947" data-name="Trazado 70947" d="M145.317,328A1.317,1.317,0,0,0,144,329.317v2.633a1.317,1.317,0,0,0,2.633,0v-2.633A1.317,1.317,0,0,0,145.317,328Z" transform="translate(-106.938 -260.655)"/>
      <path id="Trazado_70948" data-name="Trazado 70948" d="M145.317,408A1.317,1.317,0,0,0,144,409.317v2.633a1.317,1.317,0,0,0,2.633,0v-2.633A1.317,1.317,0,0,0,145.317,408Z" transform="translate(-106.938 -327.488)"/>
    </g>
  </g>
</svg>
