<svg xmlns="http://www.w3.org/2000/svg" width="106" height="106" viewBox="0 0 106 106">
  <g id="Grupo_45966" data-name="Grupo 45966" transform="translate(2811 -3686)">
    <rect id="Rectángulo_12728" data-name="Rectángulo 12728" width="106" height="106" transform="translate(-2811 3686)" fill="none"/>
    <g id="maquina-de-coser" transform="translate(-2806.118 3699.682)">
      <g id="Grupo_45759" data-name="Grupo 45759" transform="translate(10.861 3.544)">
        <path id="Trazado_71255" data-name="Trazado 71255" d="M127.257,276.731v2.721a1.9,1.9,0,0,0,1.892,1.892h4.624a1.9,1.9,0,0,0,1.892-1.892v-2.721Z" transform="translate(-110.304 -237.706)" fill="#f4dd45"/>
        <path id="Trazado_71256" data-name="Trazado 71256" d="M377.875,23.038h-4.367a1.614,1.614,0,0,0-1.615,1.6v7.433a1.614,1.614,0,0,0,1.615,1.6h4.367a1.614,1.614,0,0,0,1.615-1.6V24.642A1.614,1.614,0,0,0,377.875,23.038Z" transform="translate(-317.308 -23.038)" fill="#f87c68"/>
        <path id="Trazado_71257" data-name="Trazado 71257" d="M375.693,32.074V24.642a1.614,1.614,0,0,1,1.615-1.6h-3.8a1.614,1.614,0,0,0-1.615,1.6v7.433a1.614,1.614,0,0,0,1.615,1.6h3.8A1.614,1.614,0,0,1,375.693,32.074Z" transform="translate(-317.309 -23.038)" fill="#ec625e"/>
        <path id="Trazado_71258" data-name="Trazado 71258" d="M140.414,92.207H102.85a10.916,10.916,0,0,0-10.916,10.916v14.583a3.347,3.347,0,0,0,3.347,3.347h12.58a3.347,3.347,0,0,0,3.347-3.347v-3.313a2.912,2.912,0,0,1,2.912-2.912h15.023a2.912,2.912,0,0,1,2.912,2.912v19.732H151.33v-31A10.916,10.916,0,0,0,140.414,92.207Z" transform="translate(-80.415 -81.567)" fill="#7fb3fa"/>
        <g id="Grupo_45758" data-name="Grupo 45758" transform="translate(11.519 10.64)">
          <path id="Trazado_71259" data-name="Trazado 71259" d="M97.368,117.706V103.123a10.916,10.916,0,0,1,10.916-10.916H102.85a10.916,10.916,0,0,0-10.916,10.916v14.583a3.347,3.347,0,0,0,3.347,3.347h5.434A3.347,3.347,0,0,1,97.368,117.706Z" transform="translate(-91.934 -92.207)" fill="#64a6f4"/>
          <path id="Trazado_71260" data-name="Trazado 71260" d="M339.258,217.505h-5.434a2.912,2.912,0,0,1,2.912,2.912v19.732h5.434V220.417A2.912,2.912,0,0,0,339.258,217.505Z" transform="translate(-296.614 -198.231)" fill="#64a6f4"/>
          <path id="Trazado_71261" data-name="Trazado 71261" d="M99.693,154.727a1.878,1.878,0,0,0,1.878-1.878V140.711a1.878,1.878,0,0,0-1.878-1.878h-7.1a10.9,10.9,0,0,0-.659,3.744v12.151h7.759Z" transform="translate(-91.934 -131.661)" fill="#64a6f4"/>
        </g>
        <path id="Trazado_71262" data-name="Trazado 71262" d="M97.368,142.576a10.9,10.9,0,0,1,.659-3.744H92.593a11.073,11.073,0,0,0-.659,3.741v12.154h5.434Z" transform="translate(-80.415 -121.02)" fill="#3d8bd8"/>
        <circle id="Elipse_733" data-name="Elipse 733" cx="8.561" cy="8.561" r="8.561" transform="translate(56.335 21.296)" fill="#477b9e"/>
        <path id="Trazado_71263" data-name="Trazado 71263" d="M388.292,170.038a8.564,8.564,0,0,1,6.048-8.185,8.561,8.561,0,1,0,0,16.37A8.564,8.564,0,0,1,388.292,170.038Z" transform="translate(-326.932 -140.181)" fill="#3f6d8e"/>
        <circle id="Elipse_734" data-name="Elipse 734" cx="4.048" cy="4.048" r="4.048" transform="translate(60.848 25.809)" fill="#3f6d8e"/>
        <path id="Trazado_71264" data-name="Trazado 71264" d="M416.653,194.863a4.045,4.045,0,0,1,2.024-3.5,4.048,4.048,0,1,0,0,7.01A4.045,4.045,0,0,1,416.653,194.863Z" transform="translate(-351.757 -165.006)" fill="#365e7d"/>
        <path id="Trazado_71265" data-name="Trazado 71265" d="M198.453,361.709h43.01v15.63h-43.01Z" transform="translate(-170.548 -309.612)" fill="#b5dcff"/>
        <path id="Trazado_71266" data-name="Trazado 71266" d="M40.222,361.709h-2.76a2.445,2.445,0,0,0-2.43,2.459v13.171h5.19Z" transform="translate(-32.266 -309.612)" fill="#8bcaff"/>
        <path id="Trazado_71267" data-name="Trazado 71267" d="M25.006,467.031v-4.9H18.783a1.739,1.739,0,0,0-1.734,1.734v3a1.739,1.739,0,0,0,1.734,1.734h7.786A1.563,1.563,0,0,1,25.006,467.031Z" transform="translate(-17.049 -394.586)" fill="#dbedff"/>
        <path id="Trazado_71268" data-name="Trazado 71268" d="M233.671,462.131H189.854v4.9a1.563,1.563,0,0,1-1.563,1.563h45.38a1.739,1.739,0,0,0,1.734-1.734v-3A1.739,1.739,0,0,0,233.671,462.131Z" transform="translate(-161.949 -394.586)" fill="#dbedff"/>
        <path id="Trazado_71269" data-name="Trazado 71269" d="M25.006,475.919v-1.668H18.783a1.738,1.738,0,0,1-1.728-1.616c0,.039-.006.078-.006.118v3a1.739,1.739,0,0,0,1.734,1.734h7.786A1.564,1.564,0,0,1,25.006,475.919Z" transform="translate(-17.049 -403.474)" fill="#b5dcff"/>
        <path id="Trazado_71270" data-name="Trazado 71270" d="M233.671,474.25H189.854v1.668a1.563,1.563,0,0,1-1.563,1.563h45.38a1.739,1.739,0,0,0,1.734-1.734v-3c0-.04,0-.079-.006-.118A1.738,1.738,0,0,1,233.671,474.25Z" transform="translate(-161.949 -403.473)" fill="#b5dcff"/>
        <path id="Trazado_71271" data-name="Trazado 71271" d="M85.544,351.12H67.337a1.563,1.563,0,0,0-1.563,1.563V373.1a1.563,1.563,0,0,0,1.563,1.563H85.544a1.563,1.563,0,0,0,1.563-1.563V352.683a1.563,1.563,0,0,0-1.563-1.563Z" transform="translate(-58.279 -300.652)" fill="#f87c68"/>
        <path id="Trazado_71272" data-name="Trazado 71272" d="M71.709,373.1V352.682a1.563,1.563,0,0,1,1.563-1.563H67.337a1.563,1.563,0,0,0-1.563,1.563V373.1a1.563,1.563,0,0,0,1.563,1.563h5.935A1.563,1.563,0,0,1,71.709,373.1Z" transform="translate(-58.279 -300.651)" fill="#ec625e"/>
      </g>
      <g id="Grupo_45760" data-name="Grupo 45760" transform="translate(9.736 0)">
        <path id="Trazado_71273" data-name="Trazado 71273" d="M148.424,370.757a1.154,1.154,0,0,0,1.154-1.154v-1.036a1.154,1.154,0,0,0-2.307,0V369.6A1.154,1.154,0,0,0,148.424,370.757Z" transform="translate(-126.113 -310.894)"/>
        <path id="Trazado_71274" data-name="Trazado 71274" d="M148.424,402.84a1.154,1.154,0,0,0,1.154-1.154V400.65a1.154,1.154,0,0,0-2.307,0v1.036A1.154,1.154,0,0,0,148.424,402.84Z" transform="translate(-126.113 -338.042)"/>
        <path id="Trazado_71275" data-name="Trazado 71275" d="M148.424,434.923a1.154,1.154,0,0,0,1.154-1.154v-1.036a1.154,1.154,0,0,0-2.307,0v1.036A1.154,1.154,0,0,0,148.424,434.923Z" transform="translate(-126.113 -365.19)"/>
        <path id="Trazado_71276" data-name="Trazado 71276" d="M148.424,467a1.154,1.154,0,0,0,1.154-1.154v-1.036a1.154,1.154,0,0,0-2.307,0v1.036A1.154,1.154,0,0,0,148.424,467Z" transform="translate(-126.113 -392.337)"/>
        <path id="Trazado_71277" data-name="Trazado 71277" d="M185.484,131.677a1.154,1.154,0,0,0-1.154,1.154v2.443a1.154,1.154,0,1,0,2.307,0v-2.443A1.154,1.154,0,0,0,185.484,131.677Z" transform="translate(-157.472 -111.421)"/>
        <path id="Trazado_71278" data-name="Trazado 71278" d="M210.461,131.677a1.154,1.154,0,0,0-1.154,1.154v2.443a1.154,1.154,0,1,0,2.307,0v-2.443A1.154,1.154,0,0,0,210.461,131.677Z" transform="translate(-178.607 -111.421)"/>
        <path id="Trazado_71279" data-name="Trazado 71279" d="M235.437,131.677a1.154,1.154,0,0,0-1.154,1.154v2.443a1.154,1.154,0,1,0,2.307,0v-2.443A1.154,1.154,0,0,0,235.437,131.677Z" transform="translate(-199.741 -111.421)"/>
        <path id="Trazado_71280" data-name="Trazado 71280" d="M260.414,131.677a1.154,1.154,0,0,0-1.154,1.154v2.443a1.154,1.154,0,1,0,2.307,0v-2.443A1.154,1.154,0,0,0,260.414,131.677Z" transform="translate(-220.876 -111.421)"/>
        <path id="Trazado_71281" data-name="Trazado 71281" d="M410.492,183.66a5.2,5.2,0,1,0,5.2,5.2A5.207,5.207,0,0,0,410.492,183.66Zm0,8.1a2.894,2.894,0,1,1,2.894-2.894A2.9,2.9,0,0,1,410.492,191.756Z" transform="translate(-344.443 -155.408)"/>
        <path id="Trazado_71282" data-name="Trazado 71282" d="M81.805,62.106a1.154,1.154,0,0,0,1.154-1.154V40a9.7,9.7,0,0,0,0-13.086V25.153a12.089,12.089,0,0,0-8.88-11.639,2.73,2.73,0,0,0,.147-.881V5.2a2.766,2.766,0,0,0-2.769-2.758h-1.03V1.154a1.154,1.154,0,0,0-2.307,0v1.29H67.09A2.766,2.766,0,0,0,64.321,5.2V8.88H33.2V8.365a1.154,1.154,0,0,0-2.307,0V8.88h-.042a1.154,1.154,0,0,0,0,2.307h.042V13.33a12.092,12.092,0,0,0-9.637,11.823V39.736a4.506,4.506,0,0,0,4.5,4.5h.933v1.106a3.049,3.049,0,0,0,3.045,3.045h1.158V49.5H30.26a1.154,1.154,0,0,0,0,2.307h.633v1.108H19.948a2.719,2.719,0,0,0-2.488,1.629H16.086A3.588,3.588,0,0,0,12.5,58.125v11.87a2.889,2.889,0,0,0-2.766,2.882v3a2.891,2.891,0,0,0,2.888,2.888H82.612A2.891,2.891,0,0,0,85.5,75.871v-3a2.89,2.89,0,0,0-2.541-2.865V66.336a1.154,1.154,0,1,0-2.307,0v3.653H40.871V56.848h39.78v4.1a1.153,1.153,0,0,0,1.154,1.153Zm-6.02-21.245a7.407,7.407,0,1,1,7.407-7.407A7.415,7.415,0,0,1,75.785,40.861ZM66.629,5.2a.462.462,0,0,1,.461-.45h4.367a.462.462,0,0,1,.461.45v7.433a.462.462,0,0,1-.461.45H67.09a.462.462,0,0,1-.461-.45ZM33.2,11.187H64.321v1.446a2.747,2.747,0,0,0,.04.45H33.325c-.042,0-.083,0-.125,0ZM23.914,22.563h6.254a.726.726,0,0,1,.725.725V35.426a.725.725,0,0,1-.725.725H23.563v-11A9.678,9.678,0,0,1,23.914,22.563ZM29,45.343V44.237h6.1v1.106a.748.748,0,0,1-.738.738H29.734A.748.748,0,0,1,29,45.343ZM14.81,58.124a1.278,1.278,0,0,1,1.276-1.276h1.145v13.14H14.81ZM12.624,76.451a.588.588,0,0,1-.58-.58v-3a.588.588,0,0,1,.58-.58h4.608v3.746c0,.084.005.167.013.25,0,.024.005.048.008.072s.006.059.01.088H12.624Zm6.915-.409V55.629a.41.41,0,0,1,.409-.409H38.154a.41.41,0,0,1,.409.409V76.042a.41.41,0,0,1-.409.409H19.948a.41.41,0,0,1-.409-.409ZM82.612,72.3a.588.588,0,0,1,.58.58v3a.588.588,0,0,1-.58.58H40.84c0-.029.006-.059.01-.088s.006-.048.008-.072c.008-.082.013-.165.013-.25V72.3H82.612ZM63.685,54.541V36.424a4.071,4.071,0,0,0-4.066-4.066H54.8a1.154,1.154,0,0,0,0,2.307h4.819a1.76,1.76,0,0,1,1.759,1.759V54.54H40.642a2.72,2.72,0,0,0-2.488-1.629H33.2V51.8h.633a1.154,1.154,0,0,0,0-2.307H33.2V48.388h1.158A3.049,3.049,0,0,0,37.4,45.343V44.237h.933a4.506,4.506,0,0,0,4.5-4.5V36.424A1.76,1.76,0,0,1,44.6,34.665h4.819a1.154,1.154,0,1,0,0-2.307H44.6a4.071,4.071,0,0,0-4.066,4.066v3.313a2.2,2.2,0,0,1-2.194,2.194H25.757a2.2,2.2,0,0,1-2.194-2.194V38.457h6.605A3.036,3.036,0,0,0,33.2,35.425V23.288a3.036,3.036,0,0,0-3.032-3.032H24.886a9.766,9.766,0,0,1,8.44-4.865H70.889a9.774,9.774,0,0,1,9.762,9.651,9.714,9.714,0,1,0,0,16.822V54.54H63.685Z" transform="translate(-9.736 0)"/>
      </g>
    </g>
  </g>
</svg>
