<svg xmlns="http://www.w3.org/2000/svg" width="106" height="106" viewBox="0 0 106 106">
  <g id="Grupo_45976" data-name="Grupo 45976" transform="translate(2962 -3128)">
    <rect id="Rectángulo_12714" data-name="Rectángulo 12714" width="106" height="106" transform="translate(-2962 3128)" fill="none"/>
    <g id="tela_10_" data-name="tela (10)" transform="translate(-2948 3142)">
      <g id="Grupo_45742" data-name="Grupo 45742" transform="translate(1.08 1.078)">
        <rect id="Rectángulo_12530" data-name="Rectángulo 12530" width="17.898" height="62.027" rx="5" transform="translate(0 7.408)" fill="#979fef"/>
        <rect id="Rectángulo_12531" data-name="Rectángulo 12531" width="58.941" height="49.844" transform="translate(17.898 13.5)" fill="#6b77e8"/>
        <rect id="Rectángulo_12532" data-name="Rectángulo 12532" width="9.647" height="7.408" transform="translate(4.125)" fill="#704c55"/>
        <rect id="Rectángulo_12533" data-name="Rectángulo 12533" width="9.647" height="7.408" transform="translate(4.125 69.432)" fill="#704c55"/>
        <path id="Trazado_71146" data-name="Trazado 71146" d="M17.307,13.75H11.629l-.027.036a9.9,9.9,0,0,0,0,12.8,5.013,5.013,0,0,1,0,6.858,9.894,9.894,0,0,0,0,12.8,5.012,5.012,0,0,1,0,6.861,9.9,9.9,0,0,0,0,12.8,5.014,5.014,0,0,1,0,6.863,11.616,11.616,0,0,0-1.77,3.008h5.678l.028-.038a9.9,9.9,0,0,0,0-12.8,5.013,5.013,0,0,1,0-6.861,9.9,9.9,0,0,0,0-12.8,5.014,5.014,0,0,1,0-6.858,9.894,9.894,0,0,0,0-12.8,5.014,5.014,0,0,1,0-6.858,11.616,11.616,0,0,0,1.769-3.007Z" transform="translate(-4.624 -6.342)" fill="#6b77e8"/>
        <path id="Trazado_71147" data-name="Trazado 71147" d="M49.039,59.855a5.024,5.024,0,0,0,0,6.857,9.7,9.7,0,0,1,2.351,6.406,3.178,3.178,0,0,1-.012.346H46.44a3.122,3.122,0,0,0,.012-.346,4.825,4.825,0,0,0-1.358-3.432A9.9,9.9,0,0,1,45.1,56.88a5.024,5.024,0,0,0,0-6.857,9.885,9.885,0,0,1,0-12.8,5.024,5.024,0,0,0,0-6.857,9.671,9.671,0,0,1-2.351-6.4,3.178,3.178,0,0,1,.012-.346H47.7a3.122,3.122,0,0,0-.012.346,4.842,4.842,0,0,0,1.352,3.425,9.885,9.885,0,0,1,0,12.8,5.024,5.024,0,0,0,0,6.857,9.894,9.894,0,0,1,0,12.807Z" transform="translate(-17.445 -10.12)" fill="#979fef"/>
        <path id="Trazado_71148" data-name="Trazado 71148" d="M69.545,59.855a5.007,5.007,0,0,0,0,6.857,9.736,9.736,0,0,1,2.345,6.406,3.179,3.179,0,0,1-.012.346H66.94a3.122,3.122,0,0,0,.012-.346,4.825,4.825,0,0,0-1.358-3.432A9.9,9.9,0,0,1,65.6,56.88a5.016,5.016,0,0,0-.006-6.857,9.9,9.9,0,0,1,.006-12.8,5.024,5.024,0,0,0,0-6.857,9.671,9.671,0,0,1-2.351-6.4,3.179,3.179,0,0,1,.012-.346H68.2a3.12,3.12,0,0,0-.012.346,4.842,4.842,0,0,0,1.352,3.425,9.885,9.885,0,0,1,0,12.8,5.016,5.016,0,0,0,.006,6.857,9.914,9.914,0,0,1,0,12.807Z" transform="translate(-25.293 -10.12)" fill="#979fef"/>
        <path id="Trazado_71149" data-name="Trazado 71149" d="M90.045,59.855a5.007,5.007,0,0,0,0,6.857,9.736,9.736,0,0,1,2.345,6.406,3.177,3.177,0,0,1-.012.346H87.44a3.122,3.122,0,0,0,.012-.346,4.825,4.825,0,0,0-1.358-3.432A9.9,9.9,0,0,1,86.1,56.88a5.016,5.016,0,0,0-.006-6.857,9.9,9.9,0,0,1,.006-12.8,5.024,5.024,0,0,0,0-6.857,9.671,9.671,0,0,1-2.351-6.4,3.177,3.177,0,0,1,.012-.346H88.7a3.122,3.122,0,0,0-.012.346,4.842,4.842,0,0,0,1.352,3.425,9.885,9.885,0,0,1,0,12.8,5.016,5.016,0,0,0,.006,6.857,9.914,9.914,0,0,1,0,12.807Z" transform="translate(-33.14 -10.12)" fill="#979fef"/>
        <path id="Trazado_71150" data-name="Trazado 71150" d="M110.545,59.855a5.007,5.007,0,0,0,0,6.857,9.736,9.736,0,0,1,2.345,6.406,3.181,3.181,0,0,1-.012.346H107.94a3.12,3.12,0,0,0,.012-.346,4.825,4.825,0,0,0-1.358-3.432A9.9,9.9,0,0,1,106.6,56.88a5.016,5.016,0,0,0-.006-6.857,9.9,9.9,0,0,1,.006-12.8,5.024,5.024,0,0,0,0-6.857,9.671,9.671,0,0,1-2.351-6.4,3.175,3.175,0,0,1,.012-.346H109.2a3.118,3.118,0,0,0-.012.346,4.842,4.842,0,0,0,1.352,3.425,9.885,9.885,0,0,1,0,12.8,5.016,5.016,0,0,0,.006,6.857,9.914,9.914,0,0,1,0,12.807Z" transform="translate(-40.988 -10.12)" fill="#979fef"/>
      </g>
      <g id="Grupo_45743" data-name="Grupo 45743" transform="translate(0 0)">
        <path id="Trazado_71151" data-name="Trazado 71151" d="M1.08,84.271a1.081,1.081,0,0,0,1.08-1.08V78.33a1.08,1.08,0,0,0-2.16,0v4.86a1.081,1.081,0,0,0,1.08,1.08Z" transform="translate(0 -29.572)"/>
        <path id="Trazado_71152" data-name="Trazado 71152" d="M77.92,13.5H20.059V11.572a4.17,4.17,0,0,0-4.125-4.166V1.078A1.081,1.081,0,0,0,14.853,0H5.205a1.081,1.081,0,0,0-1.08,1.08V7.406A4.17,4.17,0,0,0,0,11.572V41.2a1.08,1.08,0,1,0,2.16,0V11.572A2.008,2.008,0,0,1,4.166,9.566H6.034a10.245,10.245,0,0,0-1.405,5.355A10.765,10.765,0,0,0,7.2,21.972a3.961,3.961,0,0,1,0,5.555,10.968,10.968,0,0,0,0,14.1,3.961,3.961,0,0,1,0,5.555,10.972,10.972,0,0,0,0,14.1,3.969,3.969,0,0,1,0,5.562,13.958,13.958,0,0,0-1.611,2.575h-.38a.118.118,0,0,0-.036,0h-1A2.008,2.008,0,0,1,2.16,67.42V61.179a1.08,1.08,0,0,0-2.16,0v6.249a4.17,4.17,0,0,0,4.125,4.166V77.92A1.081,1.081,0,0,0,5.205,79h9.648a1.081,1.081,0,0,0,1.08-1.08V71.594a4.17,4.17,0,0,0,4.125-4.166V65.5H77.92A1.08,1.08,0,0,0,79,64.422V14.578A1.08,1.08,0,0,0,77.92,13.5ZM46.2,51.465l.007-.01a10.986,10.986,0,0,0-.007-14.1,3.784,3.784,0,0,1-1.142-2.774,3.825,3.825,0,0,1,1.134-2.78,10.962,10.962,0,0,0,0-14.106,4.352,4.352,0,0,1-1.078-2.037h5.524a10.808,10.808,0,0,0,2.549,6.32,3.968,3.968,0,0,1,0,5.549,10.971,10.971,0,0,0,0,14.116,3.966,3.966,0,0,1-.015,5.558,10.977,10.977,0,0,0,0,14.1,4.325,4.325,0,0,1,1.086,2.045H48.734a10.9,10.9,0,0,0-2.54-6.324,3.953,3.953,0,0,1,0-5.553ZM37.98,15.658a10.8,10.8,0,0,0,2.549,6.32,3.964,3.964,0,0,1,0,5.549,10.971,10.971,0,0,0,0,14.116,3.966,3.966,0,0,1-.015,5.558,10.977,10.977,0,0,0,0,14.1,4.325,4.325,0,0,1,1.086,2.045H36.082a10.856,10.856,0,0,0-2.55-6.327,3.97,3.97,0,0,1,0-5.548l0,0a10.967,10.967,0,0,0,0-14.111,3.969,3.969,0,0,1,0-5.55,10.959,10.959,0,0,0,0-14.106,4.36,4.36,0,0,1-1.076-2.037ZM6.285,2.16h7.488V7.406H6.285Zm2.635,66a6.083,6.083,0,0,0,0-8.162,8.826,8.826,0,0,1,0-11.5,6.082,6.082,0,0,0,0-8.162,8.823,8.823,0,0,1,0-11.5,6.081,6.081,0,0,0,0-8.16,8.641,8.641,0,0,1-2.131-5.748A8.336,8.336,0,0,1,8.625,9.566h3.4c-.309.5-.626.926-.891,1.277a5.88,5.88,0,0,0-1.572,4.078A5.886,5.886,0,0,0,11.138,19a8.821,8.821,0,0,1,0,11.5,6.077,6.077,0,0,0,0,8.157,8.826,8.826,0,0,1,0,11.5,6.082,6.082,0,0,0,0,8.161,8.641,8.641,0,0,1,2.131,5.752,8.326,8.326,0,0,1-1.835,5.356H8.03c.307-.5.625-.922.891-1.275ZM6.285,76.84V71.594h7.488V76.84ZM17.9,67.428a2.008,2.008,0,0,1-2.006,2.006h-1c-.012,0-.023,0-.036,0h-.828a10.251,10.251,0,0,0,1.4-5.356,10.769,10.769,0,0,0-2.566-7.051,3.968,3.968,0,0,1,0-5.561,10.969,10.969,0,0,0,0-14.1,3.965,3.965,0,0,1,0-5.558,10.966,10.966,0,0,0,0-14.1,3.961,3.961,0,0,1,0-5.555,13.9,13.9,0,0,0,1.611-2.581h1.42a2.008,2.008,0,0,1,2,2.006Zm2.16-51.77h5.269a10.8,10.8,0,0,0,2.55,6.321,3.965,3.965,0,0,1,0,5.548A10.962,10.962,0,0,0,27.89,41.65a3.971,3.971,0,0,1-.025,5.55,10.977,10.977,0,0,0,0,14.1,4.325,4.325,0,0,1,1.086,2.045h-8.9ZM31.133,63.342a6.048,6.048,0,0,0-1.543-3.353,8.833,8.833,0,0,1,.016-11.507A6.087,6.087,0,0,0,29.6,40.33,8.82,8.82,0,0,1,29.621,28.8a6.079,6.079,0,0,0-.023-8.128,8.69,8.69,0,0,1-2.107-5.015h2.787a6.089,6.089,0,0,0,1.543,3.351A8.815,8.815,0,0,1,31.8,30.517a6.08,6.08,0,0,0,.014,8.142,8.822,8.822,0,0,1,0,11.5l-.006.009a6.084,6.084,0,0,0,.007,8.154,8.739,8.739,0,0,1,2.105,5.019Zm12.652,0a6.043,6.043,0,0,0-1.543-3.353,8.833,8.833,0,0,1,.015-11.507,6.079,6.079,0,0,0-.018-8.157A8.826,8.826,0,0,1,42.273,28.8a6.079,6.079,0,0,0-.023-8.129,8.692,8.692,0,0,1-2.107-5.015H42.93a6.1,6.1,0,0,0,1.543,3.352,8.817,8.817,0,0,1-.022,11.506,6.076,6.076,0,0,0,.028,8.154,8.839,8.839,0,0,1,0,11.488l0,0a6.071,6.071,0,0,0,.01,8.172,8.764,8.764,0,0,1,2.092,5.008Zm12.652,0A6.043,6.043,0,0,0,54.9,59.989a8.833,8.833,0,0,1,.015-11.507,6.076,6.076,0,0,0-.015-8.157A8.826,8.826,0,0,1,54.928,28.8a6.079,6.079,0,0,0-.023-8.129A8.692,8.692,0,0,1,52.8,15.658h2.787a6.1,6.1,0,0,0,1.543,3.352,8.817,8.817,0,0,1-.022,11.506,6.073,6.073,0,0,0,.026,8.154,8.839,8.839,0,0,1,0,11.488l0,0a6.071,6.071,0,0,0,.01,8.172,8.764,8.764,0,0,1,2.092,5.008Zm12.652,0a6.043,6.043,0,0,0-1.543-3.353,8.833,8.833,0,0,1,.015-11.507,6.079,6.079,0,0,0-.018-8.157,8.644,8.644,0,0,1-2.123-5.744,1.08,1.08,0,0,0-2.16,0,10.8,10.8,0,0,0,2.574,7.065,3.962,3.962,0,0,1-.015,5.555,10.977,10.977,0,0,0,0,14.1,4.325,4.325,0,0,1,1.086,2.045H61.387a10.9,10.9,0,0,0-2.54-6.324,3.95,3.95,0,0,1,0-5.551l.007-.01a10.986,10.986,0,0,0-.007-14.1,3.964,3.964,0,0,1-.006-5.557,10.962,10.962,0,0,0,0-14.106,4.352,4.352,0,0,1-1.078-2.037h5.524a10.808,10.808,0,0,0,2.549,6.32,3.962,3.962,0,0,1,.014,5.53l-.019.027a1.066,1.066,0,0,0,.228,1.5A1.1,1.1,0,0,0,67.58,28.8a6.079,6.079,0,0,0-.023-8.129,8.692,8.692,0,0,1-2.107-5.015h2.787a6.1,6.1,0,0,0,1.543,3.352,8.817,8.817,0,0,1-.022,11.506,6.076,6.076,0,0,0,.028,8.154,8.839,8.839,0,0,1-.008,11.491,6.071,6.071,0,0,0,.009,8.173,8.764,8.764,0,0,1,2.092,5.008Zm7.75,0h-2.8a10.9,10.9,0,0,0-2.54-6.324,3.956,3.956,0,0,1,.006-5.563,10.986,10.986,0,0,0-.007-14.1,3.961,3.961,0,0,1-.006-5.554,10.962,10.962,0,0,0,0-14.106,4.352,4.352,0,0,1-1.078-2.037H76.84Z" transform="translate(0 0)"/>
      </g>
    </g>
  </g>
</svg>
