<svg xmlns="http://www.w3.org/2000/svg" width="106" height="106" viewBox="0 0 106 106">
  <g id="Grupo_45975" data-name="Grupo 45975" transform="translate(2836 -3128)">
    <rect id="Rectángulo_12715" data-name="Rectángulo 12715" width="106" height="106" transform="translate(-2836 3128)" fill="none"/>
    <g id="tela_2_" data-name="tela (2)" transform="translate(-2822 3142)">
      <path id="Trazado_71159" data-name="Trazado 71159" d="M150.3,145.714l-4.583,4.583-4.584-4.583L136.55,150.3l-4.584-4.583-4.583,4.583-4.583-4.583-4.584,4.583-4.583-4.583L109.05,150.3l-4.583-4.583L99.884,150.3,95.3,145.714,90.717,150.3l-4.584-4.583,4.584-4.584-4.584-4.583,4.584-4.584-4.584-4.583,4.584-4.584-4.584-4.583,4.584-4.584-4.584-4.583,4.584-4.584L86.133,99.88,90.717,95.3l-4.584-4.583,4.584-4.584L95.3,90.713l4.584-4.584,4.583,4.584,4.584-4.584,4.583,4.584,4.584-4.584,4.583,4.584,4.584-4.584,4.583,4.584,4.584-4.584,4.583,4.584,4.584-4.584,4.582,4.584L145.717,95.3l4.583,4.584-4.583,4.583,4.583,4.583-4.583,4.584,4.583,4.583-4.583,4.584,4.583,4.583-4.583,4.584,4.583,4.583-4.583,4.583Zm0,0" transform="translate(-72.843 -72.84)" fill="#ff6977"/>
      <path id="Trazado_71160" data-name="Trazado 71160" d="M74.167,69.584l-4.583,4.584L65,69.584l-4.583,4.584-4.583-4.584L51.25,74.167l-4.583-4.584-4.584,4.584L37.5,69.584l-4.584,4.584-4.583-4.584-4.584,4.584-4.583-4.584-4.584,4.584L10,69.584,14.583,65,10,60.417l4.583-4.583L10,51.251l4.583-4.584L10,42.084,14.583,37.5,10,32.917l4.583-4.584L10,23.75l4.583-4.583L10,14.583,14.583,10l4.584,4.583L23.75,10l4.584,4.583L32.917,10,37.5,14.583,42.084,10l4.583,4.583L51.25,10l4.583,4.583L60.417,10,65,14.583,69.583,10l4.584,4.583-4.584,4.584,4.584,4.583-4.584,4.584,4.584,4.583L69.583,37.5l4.584,4.583-4.584,4.584,4.584,4.583-4.584,4.584,4.584,4.583L69.583,65Zm0,0" transform="translate(-8.457 -8.457)" fill="#ffc15a"/>
      <g id="Grupo_45744" data-name="Grupo 45744" transform="translate(12.643 12.372)">
        <path id="Trazado_71161" data-name="Trazado 71161" d="M94.2,83.618a2.988,2.988,0,0,0-3.225-1.29,2.809,2.809,0,0,0-5.46,0,2.809,2.809,0,0,0-2.73,4.729,2.809,2.809,0,0,0,2.73,4.728,2.809,2.809,0,0,0,5.46,0,2.809,2.809,0,0,0,2.73-4.728A2.988,2.988,0,0,0,94.2,83.618Zm0,0" transform="translate(-81.941 -80.18)" fill="#fff"/>
        <path id="Trazado_71162" data-name="Trazado 71162" d="M284.263,83.618a2.988,2.988,0,0,0-3.225-1.29,2.809,2.809,0,0,0-5.46,0,2.809,2.809,0,0,0-2.73,4.729,2.809,2.809,0,0,0,2.73,4.728,2.809,2.809,0,0,0,5.46,0,2.809,2.809,0,0,0,2.73-4.728A2.987,2.987,0,0,0,284.263,83.618Zm0,0" transform="translate(-242.682 -80.18)" fill="#fff"/>
        <path id="Trazado_71163" data-name="Trazado 71163" d="M94.2,276.869a2.986,2.986,0,0,1-3.225,1.29,2.809,2.809,0,0,1-5.46,0,2.809,2.809,0,0,1-2.73-4.728,2.809,2.809,0,0,1,2.73-4.729,2.809,2.809,0,0,1,5.46,0,2.809,2.809,0,0,1,2.73,4.729A2.988,2.988,0,0,1,94.2,276.869Zm0,0" transform="translate(-81.941 -237.797)" fill="#fff"/>
        <path id="Trazado_71164" data-name="Trazado 71164" d="M284.263,276.869a2.986,2.986,0,0,1-3.225,1.29,2.809,2.809,0,0,1-5.46,0,2.809,2.809,0,0,1-2.73-4.728,2.809,2.809,0,0,1,2.73-4.729,2.809,2.809,0,0,1,5.46,0,2.809,2.809,0,0,1,2.73,4.729A2.987,2.987,0,0,1,284.263,276.869Zm0,0" transform="translate(-242.682 -237.797)" fill="#fff"/>
        <path id="Trazado_71165" data-name="Trazado 71165" d="M189.359,176.8a2.988,2.988,0,0,0-3.225-1.29,2.809,2.809,0,0,0-5.461,0,2.809,2.809,0,0,0-2.73,4.729,2.809,2.809,0,0,0,2.73,4.728,2.809,2.809,0,0,0,5.461,0,2.809,2.809,0,0,0,2.73-4.728A2.987,2.987,0,0,0,189.359,176.8Zm0,0" transform="translate(-162.421 -158.988)" fill="#fff"/>
      </g>
      <path id="Trazado_71166" data-name="Trazado 71166" d="M79,27.041a1.543,1.543,0,0,0-.452-1.091l-3.492-3.493,3.492-3.492a1.542,1.542,0,0,0,0-2.182L73.964,12.2a1.544,1.544,0,0,0-2.182,0L68.29,15.692,64.8,12.2h0L63.308,10.71,66.8,7.218a1.543,1.543,0,0,0,0-2.182L62.217.452a1.542,1.542,0,0,0-2.182,0L56.543,3.944,53.051.452a1.543,1.543,0,0,0-2.182,0L47.377,3.944,43.884.452a1.543,1.543,0,0,0-2.182,0L38.21,3.944,34.718.452a1.542,1.542,0,0,0-2.182,0L29.044,3.944,25.551.452a1.542,1.542,0,0,0-2.182,0L19.877,3.944,16.384.452a1.542,1.542,0,0,0-2.182,0L10.71,3.944,7.218.452a1.543,1.543,0,0,0-2.182,0L.452,5.035a1.543,1.543,0,0,0,0,2.182L3.944,10.71.452,14.2a1.542,1.542,0,0,0,0,2.182l3.492,3.492L.452,23.369a1.542,1.542,0,0,0,0,2.182l3.492,3.492L.452,32.535a1.543,1.543,0,0,0,0,2.182L3.944,38.21.452,41.7a1.543,1.543,0,0,0,0,2.182l3.492,3.492L.452,50.869a1.542,1.542,0,0,0,0,2.182l3.492,3.493L.452,60.035a1.542,1.542,0,0,0,0,2.182L5.035,66.8a1.545,1.545,0,0,0,2.182,0l3.492-3.493L14.2,66.8h0l1.489,1.489L12.2,71.783a1.545,1.545,0,0,0,0,2.182l4.584,4.583a1.542,1.542,0,0,0,2.182,0l3.492-3.492,3.492,3.492a1.543,1.543,0,0,0,2.182,0l3.492-3.492,3.492,3.492a1.542,1.542,0,0,0,2.182,0l3.492-3.492,3.492,3.492a1.543,1.543,0,0,0,2.182,0l3.492-3.492,3.492,3.492a1.542,1.542,0,0,0,2.182,0l3.492-3.492,3.493,3.492a1.542,1.542,0,0,0,2.182,0l3.492-3.492,3.492,3.492a1.542,1.542,0,0,0,2.182,0l4.584-4.583a1.543,1.543,0,0,0,0-2.182L75.055,68.29,78.548,64.8a1.542,1.542,0,0,0,0-2.182l-3.492-3.492,3.492-3.493a1.542,1.542,0,0,0,0-2.182l-3.492-3.492,3.493-3.492a1.544,1.544,0,0,0,0-2.182l-3.493-3.492L78.548,37.3a1.543,1.543,0,0,0,0-2.182l-3.492-3.492,3.492-3.492A1.541,1.541,0,0,0,79,27.041ZM9.619,60.036,6.126,63.528l-2.4-2.4,3.492-3.492a1.542,1.542,0,0,0,0-2.182L3.725,51.96l3.492-3.492a1.542,1.542,0,0,0,0-2.182L3.725,42.793,7.217,39.3a1.543,1.543,0,0,0,0-2.182L5.268,35.17h7.641a1.543,1.543,0,1,0,0-3.086H5.268l1.95-1.949a1.545,1.545,0,0,0,0-2.182L3.726,24.46l3.492-3.492a1.543,1.543,0,0,0,0-2.182L3.725,15.293,7.218,11.8a1.544,1.544,0,0,0,0-2.182L3.725,6.126l2.4-2.4L9.619,7.218a1.544,1.544,0,0,0,2.182,0l3.492-3.493,3.492,3.493a1.545,1.545,0,0,0,2.182,0L24.46,3.725l3.492,3.493a1.544,1.544,0,0,0,2.182,0l3.492-3.493,3.492,3.493a1.544,1.544,0,0,0,2.182,0l3.493-3.493,3.492,3.493a1.544,1.544,0,0,0,2.182,0l3.492-3.493,3.492,3.493a1.545,1.545,0,0,0,2.182,0l3.492-3.493,2.4,2.4L60.036,9.619a1.542,1.542,0,0,0,0,2.182l3.492,3.492-3.492,3.492a1.543,1.543,0,0,0,0,2.182l3.493,3.492-3.492,3.492a1.542,1.542,0,0,0,0,2.182l3.492,3.493-3.492,3.492a1.542,1.542,0,0,0,0,2.182l3.492,3.492-3.493,3.493a1.542,1.542,0,0,0,0,2.182l3.492,3.492-3.492,3.492a1.543,1.543,0,0,0,0,2.182l3.492,3.492-2.4,2.4-3.492-3.492a1.542,1.542,0,0,0-2.182,0L51.96,63.528l-3.493-3.492a1.542,1.542,0,0,0-2.182,0l-3.492,3.492L39.3,60.036a1.543,1.543,0,0,0-2.182,0l-3.492,3.492-3.492-3.492a1.542,1.542,0,0,0-2.182,0L24.46,63.528l-3.492-3.492a1.542,1.542,0,0,0-2.182,0l-3.493,3.492-.911-.912h0L11.8,60.036a1.542,1.542,0,0,0-2.182,0Zm62.164-29.5a1.542,1.542,0,0,0,0,2.182l3.492,3.492L71.783,39.7a1.543,1.543,0,0,0,0,2.182l3.492,3.492-3.492,3.492a1.543,1.543,0,0,0,0,2.182l3.492,3.492-3.492,3.492a1.543,1.543,0,0,0,0,2.182l3.492,3.492L71.783,67.2a1.544,1.544,0,0,0,0,2.182l3.492,3.492-2.4,2.4-3.492-3.492a1.542,1.542,0,0,0-2.182,0l-3.492,3.492-3.492-3.492a1.543,1.543,0,0,0-2.182,0l-3.492,3.492-3.492-3.492a1.542,1.542,0,0,0-2.182,0l-3.492,3.492-3.492-3.492a1.543,1.543,0,0,0-2.182,0l-3.492,3.492-3.492-3.492a1.542,1.542,0,0,0-2.182,0l-3.492,3.492-3.493-3.492a1.542,1.542,0,0,0-2.182,0l-3.492,3.492-2.4-2.4,3.492-3.492a1.542,1.542,0,0,0,0-2.182l-1.489-1.49,2.4-2.4L23.369,66.8a1.545,1.545,0,0,0,2.182,0l3.492-3.493L32.536,66.8a1.544,1.544,0,0,0,2.182,0l3.492-3.493L41.7,66.8a1.545,1.545,0,0,0,2.182,0l3.492-3.493L50.869,66.8a1.544,1.544,0,0,0,2.182,0l3.492-3.493L60.036,66.8a1.544,1.544,0,0,0,2.182,0L66.8,62.217a1.542,1.542,0,0,0,0-2.182l-3.492-3.492L66.8,53.051a1.544,1.544,0,0,0,0-2.182l-3.492-3.492L66.8,43.884a1.543,1.543,0,0,0,0-2.182L63.309,38.21,66.8,34.718a1.543,1.543,0,0,0,0-2.182l-3.492-3.492L66.8,25.551a1.542,1.542,0,0,0,0-2.182l-3.492-3.493,2.4-2.4,1.49,1.489a1.542,1.542,0,0,0,2.182,0l3.493-3.492,2.4,2.4-3.492,3.492a1.542,1.542,0,0,0,0,2.182l3.492,3.493Zm0,0" transform="translate(0 0)"/>
      <path id="Trazado_71167" data-name="Trazado 71167" d="M79.758,87.019a4.338,4.338,0,0,0,3.657-2.085A4.251,4.251,0,0,0,87.073,78.6a4.251,4.251,0,0,0-3.657-6.335,4.252,4.252,0,0,0-7.315,0A4.251,4.251,0,0,0,72.443,78.6,4.251,4.251,0,0,0,76.1,84.934,4.339,4.339,0,0,0,79.758,87.019Zm-4.619-5.753a1.485,1.485,0,0,1,.326-1.657,1.544,1.544,0,0,0,0-2.019,1.284,1.284,0,0,1,1.272-2.2,1.543,1.543,0,0,0,1.748-1.009,1.284,1.284,0,0,1,2.545,0,1.543,1.543,0,0,0,1.748,1.009,1.284,1.284,0,0,1,1.273,2.2,1.542,1.542,0,0,0,0,2.019,1.284,1.284,0,0,1-1.272,2.2,1.543,1.543,0,0,0-1.749,1.009,1.284,1.284,0,0,1-2.545,0,1.543,1.543,0,0,0-1.748-1.009A1.483,1.483,0,0,1,75.139,81.266Zm0,0" transform="translate(-60.814 -59.352)"/>
      <path id="Trazado_71168" data-name="Trazado 71168" d="M114.191,117.824a1.541,1.541,0,1,0-1.091-.452A1.549,1.549,0,0,0,114.191,117.824Zm0,0" transform="translate(-95.267 -97.034)"/>
      <path id="Trazado_71169" data-name="Trazado 71169" d="M262.534,82.808a4.337,4.337,0,0,0,3.634,2.125,4.251,4.251,0,0,0,7.315,0A4.251,4.251,0,0,0,277.14,78.6a4.251,4.251,0,0,0-3.657-6.335,4.251,4.251,0,0,0-7.315,0A4.251,4.251,0,0,0,262.51,78.6,4.338,4.338,0,0,0,262.534,82.808Zm3-5.219a1.284,1.284,0,0,1,1.273-2.2,1.543,1.543,0,0,0,1.748-1.009,1.284,1.284,0,0,1,2.545,0,1.543,1.543,0,0,0,1.748,1.009,1.284,1.284,0,0,1,1.272,2.2,1.544,1.544,0,0,0,0,2.019,1.284,1.284,0,0,1-1.272,2.2,1.542,1.542,0,0,0-1.748,1.009,1.284,1.284,0,0,1-2.545,0,1.542,1.542,0,0,0-1.748-1.009,1.284,1.284,0,0,1-1.272-2.2A1.543,1.543,0,0,0,265.532,77.589Zm0,0" transform="translate(-221.555 -59.351)"/>
      <path id="Trazado_71170" data-name="Trazado 71170" d="M304.254,117.824a1.543,1.543,0,1,0-1.091-.452A1.548,1.548,0,0,0,304.254,117.824Zm0,0" transform="translate(-256.003 -97.034)"/>
      <path id="Trazado_71171" data-name="Trazado 71171" d="M76.1,271.31a4.252,4.252,0,0,0,7.315,0,4.251,4.251,0,0,0,3.657-6.335,4.251,4.251,0,0,0-3.657-6.335,4.251,4.251,0,0,0-7.315,0,4.251,4.251,0,0,0-3.657,6.335A4.251,4.251,0,0,0,76.1,271.31Zm-.635-7.344a1.284,1.284,0,0,1,1.272-2.2,1.543,1.543,0,0,0,1.748-1.01,1.284,1.284,0,0,1,2.545,0,1.544,1.544,0,0,0,1.748,1.01,1.284,1.284,0,0,1,1.272,2.2,1.543,1.543,0,0,0,0,2.018,1.284,1.284,0,0,1-1.272,2.2,1.544,1.544,0,0,0-1.748,1.01,1.284,1.284,0,0,1-2.545,0,1.542,1.542,0,0,0-1.748-1.01,1.284,1.284,0,0,1-1.273-2.2A1.542,1.542,0,0,0,75.465,263.965Zm0,0" transform="translate(-60.815 -216.969)"/>
      <path id="Trazado_71172" data-name="Trazado 71172" d="M114.184,304.207a1.544,1.544,0,1,0-1.091-.453A1.555,1.555,0,0,0,114.184,304.207Zm0,0" transform="translate(-95.261 -254.659)"/>
      <path id="Trazado_71173" data-name="Trazado 71173" d="M277.116,260.764a4.336,4.336,0,0,0-3.634-2.125,4.25,4.25,0,0,0-7.315,0,4.251,4.251,0,0,0-3.658,6.335,4.251,4.251,0,0,0,3.657,6.335,4.251,4.251,0,0,0,7.315,0,4.251,4.251,0,0,0,3.657-6.335A4.338,4.338,0,0,0,277.116,260.764Zm-2.672,6.876a1.485,1.485,0,0,1-1.6.547,1.544,1.544,0,0,0-1.748,1.01,1.284,1.284,0,0,1-2.545,0,1.542,1.542,0,0,0-1.748-1.01,1.284,1.284,0,0,1-1.272-2.2,1.543,1.543,0,0,0,0-2.018,1.284,1.284,0,0,1,1.272-2.2,1.543,1.543,0,0,0,1.748-1.01,1.284,1.284,0,0,1,2.545,0,1.544,1.544,0,0,0,1.748,1.01,1.284,1.284,0,0,1,1.272,2.2,1.543,1.543,0,0,0,0,2.018,1.484,1.484,0,0,1,.326,1.658Zm0,0" transform="translate(-221.555 -216.969)"/>
      <path id="Trazado_71174" data-name="Trazado 71174" d="M304.254,301.121a1.543,1.543,0,1,0,1.091.452A1.552,1.552,0,0,0,304.254,301.121Zm0,0" transform="translate(-256.003 -254.659)"/>
      <path id="Trazado_71175" data-name="Trazado 71175" d="M167.6,171.787a4.251,4.251,0,0,0,3.658,6.335,4.251,4.251,0,0,0,7.315,0,4.251,4.251,0,0,0,3.657-6.335,4.337,4.337,0,0,0-.023-4.209h0a4.337,4.337,0,0,0-3.634-2.125,4.25,4.25,0,0,0-7.315,0,4.251,4.251,0,0,0-3.658,6.335Zm3.022-1.009a1.284,1.284,0,0,1,1.272-2.2,1.543,1.543,0,0,0,1.748-1.01,1.284,1.284,0,0,1,2.545,0,1.543,1.543,0,0,0,1.748,1.01,1.284,1.284,0,0,1,1.272,2.2,1.543,1.543,0,0,0,0,2.018,1.284,1.284,0,0,1-1.272,2.2,1.544,1.544,0,0,0-1.748,1.01,1.285,1.285,0,0,1-2.545,0A1.542,1.542,0,0,0,171.9,175a1.284,1.284,0,0,1-1.272-2.2A1.543,1.543,0,0,0,170.625,170.778Zm0,0" transform="translate(-141.292 -138.16)"/>
      <path id="Trazado_71176" data-name="Trazado 71176" d="M209.352,211.016a1.543,1.543,0,1,0-1.091-.452A1.547,1.547,0,0,0,209.352,211.016Zm0,0" transform="translate(-175.744 -175.847)"/>
      <path id="Trazado_71177" data-name="Trazado 71177" d="M114.124,208.381a1.542,1.542,0,1,0,1.091-.452A1.548,1.548,0,0,0,114.124,208.381Zm0,0" transform="translate(-96.133 -175.846)"/>
    </g>
  </g>
</svg>
