<svg xmlns="http://www.w3.org/2000/svg" width="106" height="106" viewBox="0 0 106 106">
  <g id="Grupo_45960" data-name="Grupo 45960" transform="translate(3221 -2935)">
    <rect id="Rectángulo_12708" data-name="Rectángulo 12708" width="106" height="106" transform="translate(-3221 2935)" fill="none"/>
    <g id="diseno_1_" data-name="diseno (1)" transform="translate(-3208 2949)">
      <path id="Trazado_70993" data-name="Trazado 70993" d="M84.452,46.226A38.226,38.226,0,1,1,46.226,8,38.226,38.226,0,0,1,84.452,46.226Zm0,0" transform="translate(-6.726 -6.726)" fill="#85d3c1"/>
      <path id="Trazado_70994" data-name="Trazado 70994" d="M147.288,136a38.195,38.195,0,0,1,0,35.678h-38.9l-3.823-2.548H88v-5.1h48.419V136Zm0,0" transform="translate(-73.984 -114.339)" fill="#ff958a"/>
      <path id="Trazado_70995" data-name="Trazado 70995" d="M131.323,354.194v7.645H108.387v-7.645H93.1a5.1,5.1,0,0,1-5.1-5.1V344h16.565l3.823,2.548h38.9a37.5,37.5,0,0,1-5.326,7.645Zm0,0" transform="translate(-73.984 -289.21)" fill="#f9d48a"/>
      <path id="Trazado_70996" data-name="Trazado 70996" d="M40,50.194V40H92.179a35.883,35.883,0,0,1,3.886,2.548v7.645Zm0,0" transform="translate(-33.629 -33.629)" fill="#f9d48a"/>
      <path id="Trazado_70997" data-name="Trazado 70997" d="M96.065,109.1v28.032H40V104H96.065Zm0,0" transform="translate(-33.629 -87.436)" fill="#f5f7fa"/>
      <path id="Trazado_70998" data-name="Trazado 70998" d="M72,248H82.194v5.1H72Zm0,0" transform="translate(-60.532 -208.5)" fill="#ff958a"/>
      <path id="Trazado_70999" data-name="Trazado 70999" d="M168,248h10.194v5.1H168Zm0,0" transform="translate(-141.242 -208.5)" fill="#f9d48a"/>
      <path id="Trazado_71000" data-name="Trazado 71000" d="M264,248h15.29v5.1H264Zm0,0" transform="translate(-221.952 -208.5)" fill="#ff958a"/>
      <path id="Trazado_71001" data-name="Trazado 71001" d="M216,136h22.936v7.645H216Zm0,0" transform="translate(-181.597 -114.339)" fill="#f9d48a"/>
      <path id="Trazado_71002" data-name="Trazado 71002" d="M72,136H89.839v12.742H72Zm0,0" transform="translate(-60.532 -114.339)" fill="#ff958a"/>
      <g id="Grupo_45741" data-name="Grupo 45741" transform="translate(0 0)">
        <path id="Trazado_71003" data-name="Trazado 71003" d="M176,368h2.548v2.548H176Zm0,0" transform="translate(-147.968 -309.387)" fill="#232323"/>
        <path id="Trazado_71004" data-name="Trazado 71004" d="M144,368h2.548v2.548H144Zm0,0" transform="translate(-121.064 -309.387)" fill="#232323"/>
        <path id="Trazado_71005" data-name="Trazado 71005" d="M112,368h2.548v2.548H112Zm0,0" transform="translate(-94.161 -309.387)" fill="#232323"/>
        <path id="Trazado_71006" data-name="Trazado 71006" d="M39.5,0A39.481,39.481,0,0,0,20.1,5.1H5.1v15A39.5,39.5,0,1,0,39.5,0ZM64.943,66.258a37.075,37.075,0,0,1-6.33,4.855V66.258ZM38.311,63.71v2.548H56.064v5.1H35.677V63.71H19.113a3.828,3.828,0,0,1-3.823-3.823V56.064h14.9l3.823,2.548h37.1a37.151,37.151,0,0,1-3.734,5.1ZM7.645,17.838H61.161V48.419H7.645ZM34.79,56.064l-3.823-2.548H15.29V50.968H63.71V22.935h8.806a36.825,36.825,0,0,1,0,33.129ZM71.114,20.387h-7.4V11.619A37.216,37.216,0,0,1,71.114,20.387ZM39.5,2.548A36.74,36.74,0,0,1,52.958,5.1H26.043A37,37,0,0,1,39.5,2.548Zm18.694,5.1q1.533.9,2.968,1.946v5.7H7.645V7.645ZM2.548,39.5A37.01,37.01,0,0,1,5.1,26.042V50.968h7.645v8.919a6.378,6.378,0,0,0,6.371,6.371H33.129v5.1h-5.1V73.9H52.958A36.929,36.929,0,0,1,2.548,39.5Zm0,0" transform="translate(0 0)" fill="#232323"/>
        <path id="Trazado_71007" data-name="Trazado 71007" d="M64,64h2.548v2.548H64Zm0,0" transform="translate(-53.806 -53.806)" fill="#232323"/>
        <path id="Trazado_71008" data-name="Trazado 71008" d="M104,64h2.548v2.548H104Zm0,0" transform="translate(-87.435 -53.806)" fill="#232323"/>
        <path id="Trazado_71009" data-name="Trazado 71009" d="M136,64h2.548v2.548H136Zm0,0" transform="translate(-114.339 -53.806)" fill="#232323"/>
        <path id="Trazado_71010" data-name="Trazado 71010" d="M84.387,128H64v15.29H84.387Zm-2.548,12.742H66.548V130.548h15.29Zm0,0" transform="translate(-53.806 -107.613)" fill="#232323"/>
        <path id="Trazado_71011" data-name="Trazado 71011" d="M64,247.645H76.742V240H64Zm2.548-5.1h7.645V245.1H66.548Zm0,0" transform="translate(-53.806 -201.774)" fill="#232323"/>
        <path id="Trazado_71012" data-name="Trazado 71012" d="M160,247.645h12.742V240H160Zm2.548-5.1h7.645V245.1h-7.645Zm0,0" transform="translate(-134.516 -201.774)" fill="#232323"/>
        <path id="Trazado_71013" data-name="Trazado 71013" d="M256,247.645h17.839V240H256Zm2.548-5.1H271.29V245.1H258.548Zm0,0" transform="translate(-215.226 -201.774)" fill="#232323"/>
        <path id="Trazado_71014" data-name="Trazado 71014" d="M208,138.194h25.484V128H208Zm2.548-7.645h20.387v5.1H210.548Zm0,0" transform="translate(-174.871 -107.613)" fill="#232323"/>
        <path id="Trazado_71015" data-name="Trazado 71015" d="M208,208h2.548v2.548H208Zm0,0" transform="translate(-174.871 -174.871)" fill="#232323"/>
        <path id="Trazado_71016" data-name="Trazado 71016" d="M240,208h20.387v2.548H240Zm0,0" transform="translate(-201.774 -174.871)" fill="#232323"/>
      </g>
    </g>
  </g>
</svg>
