<svg xmlns="http://www.w3.org/2000/svg" width="106" height="106" viewBox="0 0 106 106">
  <g id="Grupo_45967" data-name="Grupo 45967" transform="translate(3213 -3686)">
    <rect id="Rectángulo_12723" data-name="Rectángulo 12723" width="106" height="106" transform="translate(-3213 3686)" fill="none"/>
    <g id="reloj-de-arena" transform="translate(-3184 3699)">
      <path id="Trazado_71137" data-name="Trazado 71137" d="M50.837,462a3.14,3.14,0,0,1,3.141,3.141v3.141H10v-3.141A3.14,3.14,0,0,1,13.141,462Zm0,0" transform="translate(-8.429 -389.435)" fill="#424d63"/>
      <path id="Trazado_71138" data-name="Trazado 71138" d="M53.979,10v3.141a3.14,3.14,0,0,1-3.141,3.141h-37.7A3.14,3.14,0,0,1,10,13.141V10Zm0,0" transform="translate(-8.429 -8.43)" fill="#424d63"/>
      <path id="Trazado_71139" data-name="Trazado 71139" d="M46.279,74.277a9.6,9.6,0,0,1,2.57,2.424,9.845,9.845,0,0,1,2.633-2.46c5.94-3.579,9.933-9.259,9.933-14.127v-2.89a23.71,23.71,0,0,1-25.131,0v2.89C36.283,64.982,40.276,70.661,46.279,74.277ZM67.7,104.605v10.106H30V104.605A22.867,22.867,0,0,1,41.075,85.074a3.215,3.215,0,0,0,0-5.437A22.867,22.867,0,0,1,30,60.1V50H67.7V60.1A22.867,22.867,0,0,1,56.621,79.636a3.215,3.215,0,0,0,0,5.437A22.867,22.867,0,0,1,67.7,104.605Zm-6.283,3.823v-.691c0-4.868-3.993-4.265-10-7.88a9.394,9.394,0,0,1-2.574-2.351,9.587,9.587,0,0,1-2.628,2.387c-5.94,3.579-9.933,2.976-9.933,7.844v.691ZM50.419,91.308a1.571,1.571,0,1,0-1.571,1.571A1.571,1.571,0,0,0,50.419,91.308Zm0,0" transform="translate(-25.288 -42.146)" fill="#cae9fc"/>
      <path id="Trazado_71140" data-name="Trazado 71140" d="M95.131,362.693v.691H70v-.691c0-4.868,3.993-4.265,9.933-7.844a9.588,9.588,0,0,0,2.628-2.387,9.394,9.394,0,0,0,2.574,2.351c6,3.616,10,3.012,10,7.88Zm0,0" transform="translate(-59.005 -297.102)" fill="#ffe781"/>
      <path id="Trazado_71141" data-name="Trazado 71141" d="M95.131,96v2.89c0,4.868-3.993,10.547-9.933,14.127a9.845,9.845,0,0,0-2.633,2.46A9.6,9.6,0,0,0,80,113.053c-6-3.616-10-9.3-10-14.163V96a23.71,23.71,0,0,0,25.131,0Zm0,0" transform="translate(-59.005 -80.922)" fill="#ffe781"/>
      <path id="Trazado_71142" data-name="Trazado 71142" d="M141.571,303A1.571,1.571,0,1,1,140,304.571,1.571,1.571,0,0,1,141.571,303Zm0,0" transform="translate(-118.01 -255.409)"/>
      <path id="Trazado_71143" data-name="Trazado 71143" d="M32.149,38.832a24.722,24.722,0,0,0,8.725-9.014,24.318,24.318,0,0,0,3.1-11.86v-8.8a4.72,4.72,0,0,0,3.141-4.442V1.57A1.571,1.571,0,0,0,45.55,0H1.571A1.571,1.571,0,0,0,0,1.57V4.712A4.72,4.72,0,0,0,3.142,9.154v8.8a24.318,24.318,0,0,0,3.1,11.86,24.725,24.725,0,0,0,8.726,9.014,1.645,1.645,0,0,1,0,2.753A24.717,24.717,0,0,0,6.246,50.6a24.318,24.318,0,0,0-3.1,11.86v8.8A4.72,4.72,0,0,0,0,75.706v3.141a1.571,1.571,0,0,0,1.571,1.571H45.55a1.571,1.571,0,0,0,1.571-1.571V75.706a4.72,4.72,0,0,0-3.141-4.442v-8.8a24.316,24.316,0,0,0-3.1-11.86,24.716,24.716,0,0,0-8.726-9.014,1.645,1.645,0,0,1,0-2.753ZM3.142,3.141H43.979V4.712a1.572,1.572,0,0,1-1.571,1.571H4.712A1.572,1.572,0,0,1,3.142,4.712ZM43.979,77.277H3.142V75.706a1.572,1.572,0,0,1,1.571-1.571h37.7a1.572,1.572,0,0,1,1.571,1.571ZM30.518,44.27a21.171,21.171,0,0,1,10.32,18.189v8.535H6.283V62.459A21.172,21.172,0,0,1,16.6,44.27a4.784,4.784,0,0,0,0-8.122A21.171,21.171,0,0,1,6.283,17.959V9.424H40.838v8.535A21.17,21.17,0,0,1,30.519,36.147a4.785,4.785,0,0,0,0,8.123Zm0,0"/>
      <path id="Trazado_71144" data-name="Trazado 71144" d="M75.388,343.089a1.571,1.571,0,0,0-1.255-.628h0a1.571,1.571,0,0,0-1.255.626,8.007,8.007,0,0,1-2.192,1.992,35.587,35.587,0,0,1-4.824,2.359C62.716,348.763,60,349.909,60,354.263v.691a1.571,1.571,0,0,0,1.571,1.571H86.7a1.571,1.571,0,0,0,1.571-1.571v-.691c0-4.351-2.722-5.5-5.874-6.834a36.318,36.318,0,0,1-4.873-2.386,7.821,7.821,0,0,1-2.137-1.954Zm9.681,10.294H63.2c.239-1.452,1.229-1.934,3.879-3.052a38.772,38.772,0,0,0,5.233-2.567l.015-.01a11.334,11.334,0,0,0,1.8-1.377,11.035,11.035,0,0,0,1.748,1.341l.017.01a39.349,39.349,0,0,0,5.28,2.594c2.661,1.125,3.654,1.61,3.894,3.062Zm0,0" transform="translate(-50.576 -288.672)"/>
      <path id="Trazado_71145" data-name="Trazado 71145" d="M88.272,90.459v-2.89a1.571,1.571,0,0,0-2.4-1.332,22.139,22.139,0,0,1-23.466,0A1.571,1.571,0,0,0,60,87.569v2.89a14.951,14.951,0,0,0,3.033,8.456,25.628,25.628,0,0,0,7.713,7.047,7.77,7.77,0,0,1,1.819,1.631v7.778a1.571,1.571,0,0,0,3.141,0V107.6a8.009,8.009,0,0,1,1.881-1.669c6.391-3.854,10.685-10.069,10.685-15.467ZM75.958,103.24l-.015.01a10.619,10.619,0,0,0-1.8,1.417,10.139,10.139,0,0,0-1.747-1.38l-.017-.01c-5.524-3.327-9.236-8.478-9.236-12.818v-.231a25.291,25.291,0,0,0,21.989,0v.231C85.131,94.731,81.359,99.986,75.958,103.24Zm0,0" transform="translate(-50.576 -72.491)"/>
    </g>
  </g>
</svg>
