<svg xmlns="http://www.w3.org/2000/svg" width="106" height="106" viewBox="0 0 106 106">
  <g id="Grupo_45973" data-name="Grupo 45973" transform="translate(3068 -3312)">
    <rect id="Rectángulo_12718" data-name="Rectángulo 12718" width="106" height="106" transform="translate(-3068 3312)" fill="none"/>
    <g id="patron-de-tela_1_" data-name="patron-de-tela (1)" transform="translate(-3068.995 3311.005)">
      <g id="Grupo_45738" data-name="Grupo 45738" transform="translate(17.279 17.279)">
        <path id="Trazado_70918" data-name="Trazado 70918" d="M47.1,24,31.7,29.133S38.117,49.666,24,58.65c1.485,7.631,3.85,14.97,3.85,21.816,0,6.417-.639,12.59-2.567,17.967h34.65v-61.6S50.95,32.983,47.1,24Z" transform="translate(-24 -24)" fill="#f5c3de"/>
        <path id="Trazado_70919" data-name="Trazado 70919" d="M313.366,42.267l-5.133,37.216h-23.1L280,42.267a56.878,56.878,0,0,0,7.7-6.417,12.405,12.405,0,0,1,17.966,0,56.879,56.879,0,0,0,7.7,6.417Z" transform="translate(-238.934 -30.717)" fill="#c3f5d2"/>
        <path id="Trazado_70920" data-name="Trazado 70920" d="M296,384h30.8v15.4H296Z" transform="translate(-252.367 -326.251)" fill="#f5d2c3"/>
      </g>
      <path id="Trazado_70921" data-name="Trazado 70921" d="M54.495,91.712v-61.6a1.283,1.283,0,0,0-.778-1.18c-.085-.036-8.553-3.745-12.159-12.159a1.283,1.283,0,0,0-1.585-.712l-15.4,5.133a1.283,1.283,0,0,0-.819,1.6A37.99,37.99,0,0,1,25.139,33.77c-.2,7.849-3.078,13.6-8.55,17.077a1.283,1.283,0,0,0-.571,1.328c.444,2.284.969,4.552,1.477,6.746,1.209,5.221,2.35,10.153,2.35,14.825,0,7.122-.815,12.857-2.491,17.533A1.283,1.283,0,0,0,18.562,93h34.65A1.283,1.283,0,0,0,54.495,91.712ZM51.928,73.743H49.362a1.283,1.283,0,1,0,0,2.567h2.567V90.428H39.1V87.862a1.283,1.283,0,1,0-2.567,0v2.567H20.336a57.815,57.815,0,0,0,2.076-16.683c0-4.964-1.173-10.035-2.416-15.4-.44-1.9-.893-3.861-1.292-5.821,5.68-3.965,8.788-10.4,9-18.685a41.108,41.108,0,0,0-1.171-10.588L39.693,18.86A28.156,28.156,0,0,0,51.928,30.923Z" transform="translate(0 0)"/>
      <path id="Trazado_70922" data-name="Trazado 70922" d="M307.361,34.482a55.934,55.934,0,0,1-7.5-6.256,13.688,13.688,0,0,0-19.781,0,56.164,56.164,0,0,1-7.5,6.256,1.283,1.283,0,0,0-.559,1.243l5.133,37.216a1.283,1.283,0,0,0,1.271,1.108h23.1a1.283,1.283,0,0,0,1.271-1.108l5.133-37.216a1.283,1.283,0,0,0-.559-1.243Zm-6.964,37H279.535l-4.872-35.328a59.224,59.224,0,0,0,7.228-6.114,11.123,11.123,0,0,1,16.151,0,59.227,59.227,0,0,0,7.228,6.114Z" transform="translate(-214.938 -6.721)"/>
      <path id="Trazado_70923" data-name="Trazado 70923" d="M145.283,61.133a1.283,1.283,0,0,0,1.283-1.283V57.283a1.283,1.283,0,1,0-2.567,0V59.85A1.283,1.283,0,0,0,145.283,61.133Z" transform="translate(-107.472 -33.588)"/>
      <path id="Trazado_70924" data-name="Trazado 70924" d="M377.283,61.133a1.283,1.283,0,0,0,1.283-1.283V57.283a1.283,1.283,0,1,0-2.567,0V59.85A1.283,1.283,0,0,0,377.283,61.133Z" transform="translate(-302.255 -33.588)"/>
      <path id="Trazado_70925" data-name="Trazado 70925" d="M377.283,128A1.283,1.283,0,0,0,376,129.283v2.567a1.283,1.283,0,1,0,2.567,0v-2.567A1.283,1.283,0,0,0,377.283,128Z" transform="translate(-302.255 -94.038)"/>
      <path id="Trazado_70926" data-name="Trazado 70926" d="M377.283,176A1.283,1.283,0,0,0,376,177.283v2.567a1.283,1.283,0,0,0,2.567,0v-2.567A1.283,1.283,0,0,0,377.283,176Z" transform="translate(-302.255 -134.338)"/>
      <path id="Trazado_70927" data-name="Trazado 70927" d="M377.283,224A1.283,1.283,0,0,0,376,225.283v2.567a1.283,1.283,0,1,0,2.567,0v-2.567A1.283,1.283,0,0,0,377.283,224Z" transform="translate(-302.255 -174.638)"/>
      <path id="Trazado_70928" data-name="Trazado 70928" d="M377.283,272A1.283,1.283,0,0,0,376,273.283v2.567a1.283,1.283,0,1,0,2.567,0v-2.567A1.283,1.283,0,0,0,377.283,272Z" transform="translate(-302.255 -214.938)"/>
      <path id="Trazado_70929" data-name="Trazado 70929" d="M53.133,249.283A1.283,1.283,0,0,0,51.85,248H49.283a1.283,1.283,0,1,0,0,2.567H51.85A1.283,1.283,0,0,0,53.133,249.283Z" transform="translate(-26.871 -194.788)"/>
      <path id="Trazado_70930" data-name="Trazado 70930" d="M355.85,424h-2.567a1.283,1.283,0,0,0,0,2.567h2.567a1.283,1.283,0,1,0,0-2.567Z" transform="translate(-282.105 -342.555)"/>
      <path id="Trazado_70931" data-name="Trazado 70931" d="M401.283,426.567h2.567a1.283,1.283,0,0,0,0-2.567h-2.567a1.283,1.283,0,0,0,0,2.567Z" transform="translate(-322.405 -342.555)"/>
      <path id="Trazado_70932" data-name="Trazado 70932" d="M321.366,377.283A1.283,1.283,0,0,0,320.083,376h-30.8A1.283,1.283,0,0,0,288,377.283v15.4a1.283,1.283,0,0,0,1.283,1.283h30.8a1.283,1.283,0,0,0,1.283-1.283ZM318.8,383.7h-3.85a1.283,1.283,0,0,0,0,2.567h3.85V391.4H305.967v-2.567a1.283,1.283,0,1,0-2.567,0V391.4H290.567v-5.133h3.85a1.283,1.283,0,0,0,0-2.567h-3.85v-5.133H303.4v1.283a1.283,1.283,0,1,0,2.567,0v-1.283H318.8Z" transform="translate(-228.372 -302.255)"/>
      <path id="Trazado_70933" data-name="Trazado 70933" d="M306.567,96h-1.283a1.283,1.283,0,1,0,0,2.567h1.283a1.283,1.283,0,1,0,0-2.567Z" transform="translate(-241.805 -67.171)"/>
      <path id="Trazado_70934" data-name="Trazado 70934" d="M347.85,96h-2.567a1.283,1.283,0,1,0,0,2.567h2.567a1.283,1.283,0,0,0,0-2.567Z" transform="translate(-275.388 -67.171)"/>
      <path id="Trazado_70935" data-name="Trazado 70935" d="M395.85,96h-2.567a1.283,1.283,0,1,0,0,2.567h2.567a1.283,1.283,0,1,0,0-2.567Z" transform="translate(-315.689 -67.171)"/>
      <path id="Trazado_70936" data-name="Trazado 70936" d="M441.283,98.567h1.283a1.283,1.283,0,1,0,0-2.567h-1.283a1.283,1.283,0,1,0,0,2.567Z" transform="translate(-355.989 -67.171)"/>
      <path id="Trazado_70937" data-name="Trazado 70937" d="M75.85,376.007H73.283a1.283,1.283,0,0,0,0,2.567H75.85a1.283,1.283,0,0,0,0-2.567Z" transform="translate(-47.021 -302.261)"/>
      <path id="Trazado_70938" data-name="Trazado 70938" d="M125.133,377.283A1.283,1.283,0,0,0,123.85,376h-2.567a1.283,1.283,0,1,0,0,2.567h2.567A1.283,1.283,0,0,0,125.133,377.283Z" transform="translate(-87.322 -302.255)"/>
      <path id="Trazado_70939" data-name="Trazado 70939" d="M171.85,375.993h-2.567a1.283,1.283,0,1,0,0,2.567h2.567a1.283,1.283,0,0,0,0-2.567Z" transform="translate(-127.622 -302.249)"/>
      <path id="Trazado_70940" data-name="Trazado 70940" d="M97.283,250.567H99.85a1.283,1.283,0,1,0,0-2.567H97.283a1.283,1.283,0,1,0,0,2.567Z" transform="translate(-67.171 -194.788)"/>
      <path id="Trazado_70941" data-name="Trazado 70941" d="M145.283,250.567h2.567a1.283,1.283,0,1,0,0-2.567h-2.567a1.283,1.283,0,1,0,0,2.567Z" transform="translate(-107.472 -194.788)"/>
      <path id="Trazado_70942" data-name="Trazado 70942" d="M193.283,250.567h2.567a1.283,1.283,0,1,0,0-2.567h-2.567a1.283,1.283,0,1,0,0,2.567Z" transform="translate(-147.772 -194.788)"/>
      <path id="Trazado_70943" data-name="Trazado 70943" d="M145.283,109.133a1.283,1.283,0,0,0,1.283-1.283v-2.567a1.283,1.283,0,0,0-2.567,0v2.567A1.283,1.283,0,0,0,145.283,109.133Z" transform="translate(-107.472 -73.888)"/>
      <path id="Trazado_70944" data-name="Trazado 70944" d="M145.283,157.133a1.283,1.283,0,0,0,1.283-1.283v-2.567a1.283,1.283,0,0,0-2.567,0v2.567A1.283,1.283,0,0,0,145.283,157.133Z" transform="translate(-107.472 -114.188)"/>
      <path id="Trazado_70945" data-name="Trazado 70945" d="M145.283,205.133a1.283,1.283,0,0,0,1.283-1.283v-2.567a1.283,1.283,0,0,0-2.567,0v2.567A1.283,1.283,0,0,0,145.283,205.133Z" transform="translate(-107.472 -154.488)"/>
      <path id="Trazado_70946" data-name="Trazado 70946" d="M145.283,280A1.283,1.283,0,0,0,144,281.283v2.567a1.283,1.283,0,0,0,2.567,0v-2.567A1.283,1.283,0,0,0,145.283,280Z" transform="translate(-107.472 -221.655)"/>
      <path id="Trazado_70947" data-name="Trazado 70947" d="M145.283,328A1.283,1.283,0,0,0,144,329.283v2.567a1.283,1.283,0,0,0,2.567,0v-2.567A1.283,1.283,0,0,0,145.283,328Z" transform="translate(-107.472 -261.955)"/>
      <path id="Trazado_70948" data-name="Trazado 70948" d="M145.283,408A1.283,1.283,0,0,0,144,409.283v2.567a1.283,1.283,0,0,0,2.567,0v-2.567A1.283,1.283,0,0,0,145.283,408Z" transform="translate(-107.472 -329.121)"/>
    </g>
  </g>
</svg>
