<svg xmlns="http://www.w3.org/2000/svg" width="106" height="106" viewBox="0 0 106 106">
  <g id="Grupo_45965" data-name="Grupo 45965" transform="translate(2944 -3686)">
    <rect id="Rectángulo_12727" data-name="Rectángulo 12727" width="106" height="106" transform="translate(-2944 3686)" fill="none"/>
    <g id="patron-de-tela_2_" data-name="patron-de-tela (2)" transform="translate(-2981.819 3667.683)">
      <path id="Trazado_70949" data-name="Trazado 70949" d="M173.209,55.541S157.668,58.366,146.366,40l-16.953,8.477s5.651,12.715,5.651,24.017S128,85.209,128,85.209l4.238,19.779h40.971Z" transform="translate(-59.285 -6.588)" fill="#e8edf1"/>
      <path id="Trazado_70950" data-name="Trazado 70950" d="M344.477,124.822v49.447H336V124.14A21.168,21.168,0,0,0,344.477,124.822Z" transform="translate(-230.553 -75.869)" fill="#e0e2e5"/>
      <path id="Trazado_70951" data-name="Trazado 70951" d="M168.035,98.4V48.953a1.413,1.413,0,0,0-1.665-1.39,20.2,20.2,0,0,1-8.524-.846c-8.332-2.5-13.769-9.017-16.863-14.045a1.413,1.413,0,0,0-1.835-.523l-16.953,8.477a1.413,1.413,0,0,0-.659,1.837c.055.125,5.529,12.583,5.529,23.444,0,9.9-5.7,11.279-5.928,11.33a1.413,1.413,0,0,0-1.1,1.681L124.27,98.7a1.413,1.413,0,0,0,1.381,1.117h40.97A1.413,1.413,0,0,0,168.035,98.4Zm-11.3-21.192H155.32a1.413,1.413,0,1,0,0,2.826h1.413V96.987H126.793l-3.74-17.453a9.975,9.975,0,0,0,2.89-2.033c3.261-3.261,3.946-8.105,3.946-11.595,0-9.525-3.819-19.823-5.249-23.345l14.629-7.314c5.807,8.878,12.6,12.562,17.463,14.083Zm8.477,19.779h-5.651V50.049a24.15,24.15,0,0,0,5.651.454Z" transform="translate(-52.698)"/>
      <path id="Trazado_70952" data-name="Trazado 70952" d="M188.238,184h-2.826a1.413,1.413,0,0,0,0,2.826h2.826a1.413,1.413,0,1,0,0-2.826Z" transform="translate(-105.396 -125.158)"/>
      <path id="Trazado_70953" data-name="Trazado 70953" d="M172.238,288h-2.826a1.413,1.413,0,1,0,0,2.826h2.826a1.413,1.413,0,1,0,0-2.826Z" transform="translate(-92.221 -210.792)"/>
      <path id="Trazado_70954" data-name="Trazado 70954" d="M220.238,288h-2.826a1.413,1.413,0,1,0,0,2.826h2.826a1.413,1.413,0,1,0,0-2.826Z" transform="translate(-131.744 -210.792)"/>
      <path id="Trazado_70955" data-name="Trazado 70955" d="M265.413,290.826h2.826a1.413,1.413,0,1,0,0-2.826h-2.826a1.413,1.413,0,0,0,0,2.826Z" transform="translate(-171.268 -210.792)"/>
      <path id="Trazado_70956" data-name="Trazado 70956" d="M233.413,184a1.413,1.413,0,1,0,0,2.826h2.826a1.413,1.413,0,0,0,0-2.826Z" transform="translate(-144.919 -125.158)"/>
      <path id="Trazado_70957" data-name="Trazado 70957" d="M281.413,186.826h2.826a1.413,1.413,0,1,0,0-2.826h-2.826a1.413,1.413,0,0,0,0,2.826Z" transform="translate(-184.442 -125.158)"/>
      <path id="Trazado_70958" data-name="Trazado 70958" d="M57.413,307.779a1.413,1.413,0,1,0,0,2.826h5.651a1.413,1.413,0,1,0,0-2.826H61.651V290.826h1.413a1.413,1.413,0,1,0,0-2.826H57.413a1.413,1.413,0,1,0,0,2.826h1.413v16.953Z" transform="translate(0 -210.792)"/>
      <path id="Trazado_70959" data-name="Trazado 70959" d="M321.413,48A1.413,1.413,0,0,0,320,49.413v5.651a1.413,1.413,0,0,0,2.826,0V53.651h5.651v1.413a1.413,1.413,0,0,0,2.826,0V49.413a1.413,1.413,0,1,0-2.826,0v1.413h-5.651V49.413A1.413,1.413,0,0,0,321.413,48Z" transform="translate(-217.378 -13.175)"/>
      <path id="Trazado_70960" data-name="Trazado 70960" d="M184.971,440.477a1.413,1.413,0,0,0,1.413-1.413v-5.651a1.413,1.413,0,1,0-2.826,0v1.413H146.826v-1.413a1.413,1.413,0,1,0-2.826,0v5.651a1.413,1.413,0,1,0,2.826,0v-1.413h36.732v1.413A1.413,1.413,0,0,0,184.971,440.477Z" transform="translate(-72.459 -329.362)"/>
      <path id="Trazado_70961" data-name="Trazado 70961" d="M415.064,122.826a1.413,1.413,0,0,0,0-2.826h-5.651a1.413,1.413,0,0,0,0,2.826h1.413v46.622h-1.413a1.413,1.413,0,0,0,0,2.826h5.651a1.413,1.413,0,0,0,0-2.826h-1.413V122.826Z" transform="translate(-289.838 -72.46)"/>
    </g>
  </g>
</svg>
