<svg xmlns="http://www.w3.org/2000/svg" width="106" height="106" viewBox="0 0 106 106">
  <g id="Grupo_45971" data-name="Grupo 45971" transform="translate(3343 -3312)">
    <rect id="Rectángulo_12716" data-name="Rectángulo 12716" width="106" height="106" transform="translate(-3343 3312)" fill="none"/>
    <g id="pano" transform="translate(-3328.999 3325)">
      <path id="Trazado_71178" data-name="Trazado 71178" d="M231.965,8h41.971V84.535H231.965Zm0,0" transform="translate(-196.173 -6.766)" fill="#4fc1e9"/>
      <g id="Grupo_45745" data-name="Grupo 45745" transform="translate(35.794 1.234)">
        <path id="Trazado_71179" data-name="Trazado 71179" d="M231.973,8h19.751V26.517H231.973Zm0,0" transform="translate(-231.973 -8)" fill="#f5f7fa"/>
        <path id="Trazado_71180" data-name="Trazado 71180" d="M487.973,8h2.469V26.517h-2.469Zm0,0" transform="translate(-448.471 -8)" fill="#f5f7fa"/>
        <path id="Trazado_71181" data-name="Trazado 71181" d="M359.973,384h19.751v18.517H359.973Zm0,0" transform="translate(-340.222 -325.981)" fill="#f5f7fa"/>
        <path id="Trazado_71182" data-name="Trazado 71182" d="M359.973,128h19.751v19.749H359.973Zm0,0" transform="translate(-340.222 -109.483)" fill="#f5f7fa"/>
        <path id="Trazado_71183" data-name="Trazado 71183" d="M231.973,256.016h19.751v19.749H231.973Zm0,0" transform="translate(-231.973 -217.746)" fill="#f5f7fa"/>
        <path id="Trazado_71184" data-name="Trazado 71184" d="M487.973,256.016h2.468v19.749h-2.468Zm0,0" transform="translate(-448.471 -217.746)" fill="#f5f7fa"/>
      </g>
      <path id="Trazado_71185" data-name="Trazado 71185" d="M24.845,106.889a9.872,9.872,0,1,1-13.962,0,9.854,9.854,0,0,1,13.962,0Zm-3.494,10.481a4.936,4.936,0,1,0-6.974,0A4.947,4.947,0,0,0,21.352,117.369Zm0,0" transform="translate(-6.755 -87.953)" fill="#da4453"/>
      <path id="Trazado_71186" data-name="Trazado 71186" d="M106.666,129.228l-4.494,4.481a9.916,9.916,0,0,0-2.111-3.136,9.649,9.649,0,0,0-3.136-2.1l4.494-4.494,5.246-5.234,11.1-11.11,5.568-5.567a7.4,7.4,0,0,1,10.48,0L111.9,123.982Zm0,0" transform="translate(-81.971 -84.479)" fill="#e6e9ed"/>
      <path id="Trazado_71187" data-name="Trazado 71187" d="M171.144,261.876v10.469l-11.1-11.1L165.281,256Zm0,0" transform="translate(-135.352 -216.498)" fill="#ccd1d9"/>
      <path id="Trazado_71188" data-name="Trazado 71188" d="M106.735,197.454l-5.246,5.234-4.481-4.495a9.931,9.931,0,0,0,5.234-5.233Zm0,0" transform="translate(-82.04 -163.186)" fill="#ccd1d9"/>
      <path id="Trazado_71189" data-name="Trazado 71189" d="M26.95,286.041a9.889,9.889,0,1,1-5.246-5.234,9.649,9.649,0,0,1,3.136,2.1A9.9,9.9,0,0,1,26.95,286.041Zm-5.6,7.345a4.941,4.941,0,1,0-6.987,0A4.947,4.947,0,0,0,21.346,293.386Zm0,0" transform="translate(-6.748 -236.812)" fill="#ed5565"/>
      <path id="Trazado_71190" data-name="Trazado 71190" d="M11.11,118.228a11.114,11.114,0,1,1,7.855-3.255,11.04,11.04,0,0,1-7.855,3.255Zm0-19.75a8.641,8.641,0,1,0,6.11,2.53,8.588,8.588,0,0,0-6.11-2.53Zm0,0" transform="translate(-0.005 -81.194)"/>
      <path id="Trazado_71191" data-name="Trazado 71191" d="M38.168,140.366a6.172,6.172,0,1,1,4.364-1.807A6.132,6.132,0,0,1,38.168,140.366Zm0-9.873a3.7,3.7,0,0,0-2.618,6.32,3.8,3.8,0,0,0,5.236,0,3.7,3.7,0,0,0-2.618-6.32Zm0,0" transform="translate(-27.063 -108.269)"/>
      <path id="Trazado_71192" data-name="Trazado 71192" d="M164.287,295.5a1.233,1.233,0,0,1-.873-.362L152.3,284.026a1.234,1.234,0,1,1,1.746-1.745L165.16,293.4a1.234,1.234,0,0,1-.873,2.107Zm0,0" transform="translate(-128.495 -238.417)"/>
      <path id="Trazado_71193" data-name="Trazado 71193" d="M94.679,225.9a1.231,1.231,0,0,1-.873-.362l-4.488-4.486a1.234,1.234,0,1,1,1.746-1.746l4.487,4.486a1.234,1.234,0,0,1-.873,2.107Zm0,0" transform="translate(-75.231 -185.159)"/>
      <path id="Trazado_71194" data-name="Trazado 71194" d="M193.016,256.355a1.23,1.23,0,0,1-.873-.362l-5.873-5.873a1.234,1.234,0,0,1,1.746-1.746l5.873,5.874a1.234,1.234,0,0,1-.873,2.107Zm0,0" transform="translate(-157.222 -209.743)"/>
      <path id="Trazado_71195" data-name="Trazado 71195" d="M128.619,191.957a1.231,1.231,0,0,1-.873-.362l-4.492-4.491A1.234,1.234,0,0,1,125,185.359l4.492,4.491a1.234,1.234,0,0,1-.872,2.107Zm0,0" transform="translate(-103.93 -156.451)"/>
      <path id="Trazado_71196" data-name="Trazado 71196" d="M11.1,294.236a11.11,11.11,0,1,1,7.856-3.254A11.039,11.039,0,0,1,11.1,294.236Zm0-19.75a8.641,8.641,0,1,0,6.111,2.531A8.583,8.583,0,0,0,11.1,274.486Zm0,0" transform="translate(0 -230.043)"/>
      <path id="Trazado_71197" data-name="Trazado 71197" d="M38.153,316.372a6.17,6.17,0,1,1,4.365-1.806A6.132,6.132,0,0,1,38.153,316.372Zm0-9.872a3.7,3.7,0,0,0-2.62,6.32,3.8,3.8,0,0,0,5.239,0,3.7,3.7,0,0,0-2.62-6.32Zm0,0" transform="translate(-27.05 -257.118)"/>
      <path id="Trazado_71198" data-name="Trazado 71198" d="M90.191,134.88a1.235,1.235,0,0,1-.873-2.107l26.4-26.4a1.234,1.234,0,0,1,1.746,1.746l-26.4,26.4a1.229,1.229,0,0,1-.873.362Zm0,0" transform="translate(-75.231 -89.655)"/>
      <path id="Trazado_71199" data-name="Trazado 71199" d="M124.127,140.116a1.234,1.234,0,0,1-.873-2.107l31.635-31.635a1.234,1.234,0,1,1,1.746,1.746L125,139.755A1.233,1.233,0,0,1,124.127,140.116Zm0,0" transform="translate(-103.93 -89.654)"/>
      <path id="Trazado_71200" data-name="Trazado 71200" d="M271.744,96.586a1.232,1.232,0,0,1-.873-.362,6.166,6.166,0,0,0-8.727,0,1.234,1.234,0,0,1-1.746-1.746,8.634,8.634,0,0,1,12.218,0,1.234,1.234,0,0,1-.873,2.107Zm0,0" transform="translate(-219.912 -77.758)"/>
      <path id="Trazado_71201" data-name="Trazado 71201" d="M225.207,24.392a1.233,1.233,0,0,1-1.234-1.234V1.234a1.234,1.234,0,0,1,2.469,0V23.158A1.233,1.233,0,0,1,225.207,24.392Zm0,0" transform="translate(-189.414)"/>
      <path id="Trazado_71202" data-name="Trazado 71202" d="M481.207,79a1.233,1.233,0,0,1-1.234-1.234V1.234a1.234,1.234,0,0,1,2.469,0V77.77A1.233,1.233,0,0,1,481.207,79Zm0,0" transform="translate(-405.912)"/>
      <path id="Trazado_71203" data-name="Trazado 71203" d="M267.178,2.469H225.207a1.234,1.234,0,0,1,0-2.469h41.971a1.234,1.234,0,0,1,0,2.469Zm0,0" transform="translate(-189.414)"/>
      <path id="Trazado_71204" data-name="Trazado 71204" d="M343.251,122.469H315.16a1.234,1.234,0,1,1,0-2.469h28.091a1.234,1.234,0,1,1,0,2.469Zm0,0" transform="translate(-265.487 -101.483)"/>
      <path id="Trazado_71205" data-name="Trazado 71205" d="M267.178,250.469H225.207a1.234,1.234,0,0,1,0-2.469h41.971a1.234,1.234,0,0,1,0,2.469Zm0,0" transform="translate(-189.414 -209.732)"/>
      <path id="Trazado_71206" data-name="Trazado 71206" d="M267.178,378.469H225.207a1.234,1.234,0,1,1,0-2.469h41.971a1.234,1.234,0,1,1,0,2.469Zm0,0" transform="translate(-189.414 -317.981)"/>
      <path id="Trazado_71207" data-name="Trazado 71207" d="M225.207,256.567a1.233,1.233,0,0,1-1.234-1.234V211.2a1.234,1.234,0,0,1,2.469,0v44.137A1.233,1.233,0,0,1,225.207,256.567Zm0,0" transform="translate(-189.414 -177.563)"/>
      <path id="Trazado_71208" data-name="Trazado 71208" d="M267.178,498.469H225.207a1.234,1.234,0,0,1,0-2.469h41.971a1.234,1.234,0,1,1,0,2.469Zm0,0" transform="translate(-189.414 -419.465)"/>
      <path id="Trazado_71209" data-name="Trazado 71209" d="M353.207,79a1.233,1.233,0,0,1-1.234-1.234V1.234a1.234,1.234,0,1,1,2.469,0V77.77A1.233,1.233,0,0,1,353.207,79Zm0,0" transform="translate(-297.663)"/>
      <path id="Trazado_71210" data-name="Trazado 71210" d="M153.447,248.574a1.234,1.234,0,0,1-.014-2.469h.014a1.234,1.234,0,0,1,0,2.469Zm0,0" transform="translate(-128.722 -208.13)"/>
    </g>
  </g>
</svg>
