<svg xmlns="http://www.w3.org/2000/svg" width="106" height="106" viewBox="0 0 106 106">
  <g id="Grupo_45972" data-name="Grupo 45972" transform="translate(3205 -3312)">
    <rect id="Rectángulo_12717" data-name="Rectángulo 12717" width="106" height="106" transform="translate(-3205 3312)" fill="none"/>
    <g id="reflejar" transform="translate(-3191 3325.453)">
      <g id="Grupo_45746" data-name="Grupo 45746" transform="translate(8.025 8.557)">
        <path id="Trazado_71211" data-name="Trazado 71211" d="M114.958,83.865a31.475,31.475,0,1,0-31.477,31.407A31.441,31.441,0,0,0,114.958,83.865ZM92,82.682,104.23,72.92c.555-.441.59-.275.59.38V94.43c0,.659-.035.825-.59.38L92,85.048A1.569,1.569,0,0,1,92,82.682ZM62.732,72.92l12.233,9.762a1.569,1.569,0,0,1,0,2.365L62.732,94.81c-.551.445-.586.279-.586-.38V73.3C62.146,72.645,62.181,72.48,62.732,72.92Z" transform="translate(-52.008 -52.462)" fill="#fff" fill-rule="evenodd"/>
      </g>
      <g id="Grupo_45747" data-name="Grupo 45747" transform="translate(1.543 2.09)">
        <path id="Trazado_71212" data-name="Trazado 71212" d="M47.955,10.547A37.913,37.913,0,0,0,10,48.361v.118A37.918,37.918,0,0,0,47.9,86.292h.118a37.921,37.921,0,0,0,37.9-37.814v-.118A37.917,37.917,0,0,0,47.955,10.547ZM16.482,48.417A31.475,31.475,0,1,1,47.955,79.825,31.44,31.44,0,0,1,16.482,48.417Z" transform="translate(-10 -10.547)" fill="#a0e5a5" fill-rule="evenodd"/>
      </g>
      <g id="Grupo_45748" data-name="Grupo 45748" transform="translate(18.163 28.769)">
        <path id="Trazado_71213" data-name="Trazado 71213" d="M130.533,193.465,118.3,183.7c-.551-.441-.586-.275-.586.38v21.13c0,.659.035.825.586.38l12.233-9.762A1.569,1.569,0,0,0,130.533,193.465Z" transform="translate(-117.714 -183.456)" fill="#ffcd69" fill-rule="evenodd"/>
      </g>
      <g id="Grupo_45749" data-name="Grupo 45749" transform="translate(47.48 28.769)">
        <path id="Trazado_71214" data-name="Trazado 71214" d="M321.075,205.213v-21.13c0-.655-.035-.82-.59-.38l-12.229,9.762a1.569,1.569,0,0,0,0,2.365l12.229,9.762C321.04,206.038,321.075,205.872,321.075,205.213Z" transform="translate(-307.717 -183.457)" fill="#ffe6b4" fill-rule="evenodd"/>
      </g>
      <g id="Grupo_45750" data-name="Grupo 45750" transform="translate(0 0.547)">
        <path id="Trazado_71215" data-name="Trazado 71215" d="M39.5.547A39.416,39.416,0,1,0,79,39.96,39.5,39.5,0,0,0,39.5.547Zm0,75.745A36.33,36.33,0,1,1,75.914,39.96,36.413,36.413,0,0,1,39.5,76.292Z" transform="translate(0 -0.547)"/>
        <path id="Trazado_71216" data-name="Trazado 71216" d="M108.7,173.6a2,2,0,0,0-.983,2.006v21.13a2,2,0,0,0,.987,2.011,1.618,1.618,0,0,0,.7.164,2.3,2.3,0,0,0,1.4-.589l12.232-9.762a3.11,3.11,0,0,0,0-4.775l0,0-12.232-9.761A1.969,1.969,0,0,0,108.7,173.6Zm2.1,4.364,10.271,8.2a.146.146,0,0,1,0,.022l-10.271,8.2Z" transform="translate(-91.095 -146.76)"/>
        <path id="Trazado_71217" data-name="Trazado 71217" d="M311.062,198.324a2.328,2.328,0,0,0,1.407.591,1.615,1.615,0,0,0,.707-.165,2,2,0,0,0,.985-2.01V175.61a2,2,0,0,0-.981-2,1.977,1.977,0,0,0-2.115.419l-12.229,9.762,0,0a3.11,3.11,0,0,0,0,4.774ZM300.8,186.164l10.271-8.2v16.42l-10.271-8.2A.138.138,0,0,1,300.8,186.164Z" transform="translate(-251.78 -146.762)"/>
        <path id="Trazado_71218" data-name="Trazado 71218" d="M247.528,123.421a1.543,1.543,0,0,0,1.543-1.543v-2.64a1.543,1.543,0,1,0-3.086,0v2.64A1.543,1.543,0,0,0,247.528,123.421Z" transform="translate(-208.03 -99.619)"/>
        <path id="Trazado_71219" data-name="Trazado 71219" d="M245.985,181.753a1.543,1.543,0,0,0,3.086,0v-2.64a1.543,1.543,0,0,0-3.086,0Z" transform="translate(-208.03 -150.256)"/>
        <path id="Trazado_71220" data-name="Trazado 71220" d="M245.985,241.628a1.543,1.543,0,1,0,3.086,0v-2.64a1.543,1.543,0,0,0-3.086,0Z" transform="translate(-208.03 -200.892)"/>
        <path id="Trazado_71221" data-name="Trazado 71221" d="M245.985,301.474a1.543,1.543,0,0,0,3.086,0v-2.64a1.543,1.543,0,0,0-3.086,0Z" transform="translate(-208.03 -251.504)"/>
        <path id="Trazado_71222" data-name="Trazado 71222" d="M245.985,361.349a1.543,1.543,0,1,0,3.086,0v-2.64a1.543,1.543,0,0,0-3.086,0Z" transform="translate(-208.03 -302.141)"/>
        <path id="Trazado_71223" data-name="Trazado 71223" d="M98.376,52.112a33.09,33.09,0,0,0-40.988-4.559,1.543,1.543,0,0,0,1.648,2.609A30.187,30.187,0,0,1,96.2,54.3a29.811,29.811,0,0,1,0,42.232A29.91,29.91,0,0,1,49.718,59.46a1.543,1.543,0,0,0-2.606-1.653A33,33,0,0,0,98.376,98.713a32.9,32.9,0,0,0,0-46.6Z" transform="translate(-35.531 -35.999)"/>
        <path id="Trazado_71224" data-name="Trazado 71224" d="M103.276,105.137a1.535,1.535,0,0,0,.689-.163l.009,0a1.542,1.542,0,1,0-.7.168Z" transform="translate(-86.035 -86.388)"/>
      </g>
    </g>
  </g>
</svg>
